<svg id="レイヤー_1" data-name="レイヤー 1" xmlns="http://www.w3.org/2000/svg" viewBox="0 0 760.13 43.88"><defs><style>.cls-1{fill:#f7f7f7;}</style></defs><title>catchcopy</title><path class="cls-1" d="M139.61,80.87c-.67-.81-1.29-1.77-1.92-2.59a9.13,9.13,0,0,0-1.15-2.06,4.58,4.58,0,0,1-.62-2.69h.72a3.76,3.76,0,0,0,1.77,1,3.61,3.61,0,0,0,1.69.48l-.34-8.11c-.62.19-1.49.52-1.49.52a5,5,0,0,1-2.69.34,11.14,11.14,0,0,1-3.5-1.58l-.15-.77,7.54-3.22a6.18,6.18,0,0,0,.43-2.45,16,16,0,0,1-.14-2.59l-.67-.67h-2.88a3.89,3.89,0,0,1-3-1.44l-.14-.77.77-.29,6.09-1a14.13,14.13,0,0,0,.48-2.44,14.63,14.63,0,0,1,.19-2.88L140,45.93l1.87-.2a3.53,3.53,0,0,1,3,1.11l.29,2.59-.63,2.4.48.67a7.53,7.53,0,0,0,2,.15,3,3,0,0,1,2.21.81l.62,1.59a3,3,0,0,1-2.35,1.05,6.94,6.94,0,0,0-2.45.48,2.11,2.11,0,0,0-.48,1.49c-.14.82-.14,1.44-.33,2.26l0,.19,1.11.14L147,60l1.39,1.1v1.11l-1.44,1.25A17.24,17.24,0,0,0,144.46,65a2.33,2.33,0,0,0-.28,1.78l.19,7.68A12.19,12.19,0,0,0,144,77a17.08,17.08,0,0,0-.14,2.74l.29,2.4-.92.91h-1.15A5,5,0,0,1,139.61,80.87Zm20.6.39-.34-2.21-.05-5.33a27,27,0,0,0-3.36,1.92,8.72,8.72,0,0,1-3.21,2.26,14.3,14.3,0,0,1-3.84.77l-.63-.29-.28-2.21,6.86-7.54s-3,.39-3.74.39l-2.69-1.3.62-1.44c1.87-.34,5-1.49,6.77-1.82a17.5,17.5,0,0,0,4.37-1,7.52,7.52,0,0,0,.33-3.41l-.43-1.83,2.31-.86,2.54,1.73.34,3.89,1.92.14,1.15-.29a15,15,0,0,0,2.74.29,6.89,6.89,0,0,1,2.83,1.1l.33,1.88a21,21,0,0,1-3.16.33,23.58,23.58,0,0,1-3.22.15,8.48,8.48,0,0,0-2.59.67,2.64,2.64,0,0,0-.34,2,23.14,23.14,0,0,0,3.36,3.07,26,26,0,0,0,3.7,2.88,10.07,10.07,0,0,1,2.88,3.22l-.77.91c-1.25-.48-2.4-1-3.5-1.44a14.83,14.83,0,0,1-3.22-2c-1.1-.62-2.06-1.25-2.83-1.78-.1.72-.48,4.8-.63,6a14.19,14.19,0,0,1-.77,3.55l-1.24.14A3.87,3.87,0,0,1,160.21,81.26ZM150.42,53a17,17,0,0,1-.2-3.21c0-1.11-.14-2.07-.28-3.89h1.87c3.36-.34,5.61-.67,8-.82a46.57,46.57,0,0,0,6.77-1.1,13.66,13.66,0,0,1,7.06.09l1.25.92.62,2.11-1.1,2.54c-.48.77-1,1.44-1.44,2.21a6.15,6.15,0,0,1-2.07,2.11l-2.54.63-.48-1.39A4.38,4.38,0,0,0,169,51.4c.15-.82.29-1.44.48-2.26L169.19,48l-1.78-.14c-1.44.14-3.07.29-4.66.48s-3.21.14-4.85.14a12.06,12.06,0,0,0-3.36.62c.34,1.21,0,4.23.1,5.19A3.66,3.66,0,0,1,152.43,56h-.77A3.88,3.88,0,0,1,150.42,53Zm1.87,7.83-.15-1.44.77-1.59,1.92-2.11a7.32,7.32,0,0,1,1-2.21,6,6,0,0,0,.48-2.59h1.11l2.68.82.2.91a17.2,17.2,0,0,1-.2,3.22A5,5,0,0,1,158.48,59c-1.25,1.44-4.94,3-4.94,3Zm14-2.26c-.82-.48-1.49-1.29-2.4-1.92a10.39,10.39,0,0,1-1.16-3.21,7.74,7.74,0,0,1-.28-3.37,6.76,6.76,0,0,1,3.12-.67l.81.63v.77a5,5,0,0,0-.33,2.59l1.15,2.21a6.13,6.13,0,0,0,2.74.52,7.55,7.55,0,0,1,3,1l.14.77-1.72,1.49-2.4.19A7,7,0,0,1,166.26,58.55Z" transform="translate(-131.93 -41.56)"/><path class="cls-1" d="M185.17,74.83a5.22,5.22,0,0,1-2.07-1.11l-.33-1.15.67-1c1.15.34,3.36-.14,10.75-2.55l.87,2-1,1.3c-1.11.62-2.16,1.39-3.27,1.87a34.73,34.73,0,0,1-3.41,1.59C186.65,75.5,186,75.16,185.17,74.83Zm1.29-9a13.9,13.9,0,0,1-2.4-2l-.14-.48a13.45,13.45,0,0,0,3.5-1,9.23,9.23,0,0,1,3.7-.29,4.88,4.88,0,0,1,3.7,1.11l.33,1.15-1.15,1-3.7,1.25-.77.81h-.67C188.1,67,187.28,66.33,186.46,65.85Zm13.16,17.42a22.2,22.2,0,0,0-2.26-2.06,21.83,21.83,0,0,0-2.59-1.78V79a8.66,8.66,0,0,1,2.25-.19,2.51,2.51,0,0,0,1.92-.62l.34-.48V66.09l.34-8.16-.68-1.78a9.82,9.82,0,0,0-3.84-.33l-2.25.48-6.24-3.51v-.48a8.87,8.87,0,0,1,4-1.63c1.44-.14,3-.34,4.66-.34a13.75,13.75,0,0,0,4.46-.62l.67-6.24-.33-.82,2.54-.48,2.26,1,.48,1.44a13.65,13.65,0,0,0-.29,2.4c-.19,1-.19,1.92-.34,2.74a14.78,14.78,0,0,0,3,.62c1.15.2,2.11.34,3.21.53a4.6,4.6,0,0,1,2.74,1.59L215,55.53l-.14.29L213.1,56h-7l-.82.77a9.11,9.11,0,0,0-.48,3.07c0,1.1,0,2.06.15,9.12a1.35,1.35,0,0,0,1.44.67l2.11-.19a12.84,12.84,0,0,1,3.36,1.77A38.31,38.31,0,0,0,215.7,74a29,29,0,0,1,3,2.26l.82,1.77a1.91,1.91,0,0,1-1.63.34c-1.44-.34-2.89-.67-4.32-1.15a17.36,17.36,0,0,1-4.66-2.26,29.36,29.36,0,0,0-4-2.06l-.15,6.72a14.77,14.77,0,0,0-.33,2.73,7.72,7.72,0,0,1-.82,2.74,2.46,2.46,0,0,1-1.92.34A8.51,8.51,0,0,1,199.62,83.27ZM212.15,47.8a20.37,20.37,0,0,0-3.08-2.26l-1.77-3a15.39,15.39,0,0,0,3.89-1l4.94,1.73a4.31,4.31,0,0,1,1.3,2.73c-.63,1.16-1.3,2.4-1.78,3.55l-.63.29A6.85,6.85,0,0,1,212.15,47.8Zm-2.41,17.81A3.28,3.28,0,0,1,208,64.5V64a12.49,12.49,0,0,1,2.4-2.73,8.84,8.84,0,0,1,2.88-1.78,5.36,5.36,0,0,0,2.59,1.3,14.4,14.4,0,0,1,2.55.81l.33,1.25v1.78l-.19.33-3.17.48-1.15-.14a3.87,3.87,0,0,1-2.4.77A4.19,4.19,0,0,1,209.74,65.61Z" transform="translate(-131.93 -41.56)"/><path class="cls-1" d="M228.61,72.62l-.15-10.56a15.53,15.53,0,0,1,.63-4.9l1.15-.19a11,11,0,0,1,2.06,1.63,11.3,11.3,0,0,1,1.64,2.26l.14,2.06a12,12,0,0,0-.82,3.26c-.14,1.25-.14,2.55-.33,3.56a5.24,5.24,0,0,1-1.25,3.07l-2.26.86Zm21.17,7.15a31.59,31.59,0,0,1-5.33-2.59,16.07,16.07,0,0,1-4.56-4.13A12.34,12.34,0,0,1,238,67.43c-.34-2-.72-4.08-.92-6.14a36.53,36.53,0,0,0-.72-4.75c-.28-1.54-.57-2.88-.72-3.51l1-.62c.91.24,1.73.43,2.55.62a6.79,6.79,0,0,1,2.25,1.44,5.06,5.06,0,0,1,.53,3.12c.15,2.64.29,4.13.48,5.52a15.9,15.9,0,0,0,1.06,4.56,6.93,6.93,0,0,0,2.35,3.51,17.12,17.12,0,0,0,2.93,2.25,9.22,9.22,0,0,0,3.17,1.44,10.68,10.68,0,0,0,3.6.63,5.62,5.62,0,0,0,2.59-.63,7.68,7.68,0,0,0,2.21-1.82,16.39,16.39,0,0,0,.86-3.51c.15-1.24.29-2.49.53-3.69l.77-.24c.86,1,1.77,1.82,2.59,2.88A15.9,15.9,0,0,1,267.2,72v2.45l-1.58,3.12a13.22,13.22,0,0,1-3.12,2.21A10.89,10.89,0,0,1,258.94,81a19.33,19.33,0,0,1-3.69.24A25,25,0,0,1,249.78,79.77Zm3.69-16.71A8.06,8.06,0,0,1,250.3,60a13.74,13.74,0,0,1-1.2-3.07,20.87,20.87,0,0,0-.76-3.07l1.63-.19a9.87,9.87,0,0,1,2.16.81A9.49,9.49,0,0,1,254,56.54,9.62,9.62,0,0,0,255.49,59a7.32,7.32,0,0,0,2.06,1.88,3.46,3.46,0,0,1,2.31,1l.38,1.44c-1.15,1-2,1.39-3.17,1.2A30.56,30.56,0,0,1,253.47,63.06Zm14-2.2a9.28,9.28,0,0,1-1.77-2.07l-3.56-6.14,2.16-.24c1,.43,1.92.86,2.88,1.25a10.12,10.12,0,0,1,2.4,2.25A19.42,19.42,0,0,0,271,58.22a4.71,4.71,0,0,1,1,2.44l-1.15,1.25-1.29.15A3.89,3.89,0,0,1,267.44,60.86Z" transform="translate(-131.93 -41.56)"/><path class="cls-1" d="M302.86,77.66l-.09-.43c.91-.58,2-1.54,3.12-2.4a10.36,10.36,0,0,0,2.59-3.41c.62-1.92,1-3.32,1-3.32.15-1.15.24-3.4.24-4.65a26,26,0,0,0-.67-4.23,7.42,7.42,0,0,0-2.88-3.31l-3.84-1.73c-.77,1-.63,2.26-.91,3.27l-.82,2a43.19,43.19,0,0,1-1.92,3.93A28,28,0,0,1,297,68.49a24.58,24.58,0,0,1-2.5,3.65A7,7,0,0,0,291.87,74a4.43,4.43,0,0,1-2.45,1.39,11.3,11.3,0,0,1-3.4.15,25.23,25.23,0,0,1-2.45-.67A19.59,19.59,0,0,1,281,73.72c-.49-.81-1.06-1.68-1.59-2.64a6.81,6.81,0,0,1-1-2.69,41.82,41.82,0,0,1,1.2-4.65c.43-1.35.91-3.8,1.78-5.19a16.38,16.38,0,0,1,2.83-3.69,20.56,20.56,0,0,1,4.61-3.22,16.82,16.82,0,0,1,5.38-1.82c1.92-.15,3.84-.34,5.85-.34a19.6,19.6,0,0,1,4.42,1.1c1.44.58,2.83,1.11,4.13,1.73A23.59,23.59,0,0,1,312.27,55a14.66,14.66,0,0,1,2.45,4,20,20,0,0,1,1.06,4.61,22.21,22.21,0,0,1-.67,7.1A29.88,29.88,0,0,1,314.05,74c-.86,1.73-1.73,2.83-5.14,3.41l-4.65.72Zm-12.28-9.75A32.9,32.9,0,0,1,292.4,65a29.55,29.55,0,0,0,1.68-2.73c.53-1,.91-2.93,1.49-4.23a18.79,18.79,0,0,1,1-3,1.77,1.77,0,0,0-2-.67c-.91.14-2,.52-2.88.67a9.79,9.79,0,0,0-2.93,1.49c-.72.62-1.44,1.29-2.35,2.16A9,9,0,0,0,284.81,62c-.52,1-1,2-1.34,2.88a8.23,8.23,0,0,0-.33,3.17,8.13,8.13,0,0,0,1.39,3.12l1.15.05,2.26-.87A15.44,15.44,0,0,0,290.58,67.91Z" transform="translate(-131.93 -41.56)"/><path class="cls-1" d="M358.11,81.59c-1.77-.14-3.5-.33-5.28-.48s-3.55-.33-5.33-.48H335.65a12.56,12.56,0,0,1-3.55.48,13.7,13.7,0,0,0-3.7.48s-4.08-1.15-4.47-2.73a26.62,26.62,0,0,1,3.22-1.11c1.1-.33,2.26-.62,3.36-1a21.68,21.68,0,0,0,3.22-.81c0-2.07-.2-3.22-.2-4.51V68l.2-5.95a15.67,15.67,0,0,0-.82-2.74l2.59-.62c.77.14,1.44.14,2.21.33a4.51,4.51,0,0,1,2.11.77l.63,2.59a2.53,2.53,0,0,0-.63,1.92,9.4,9.4,0,0,1-.14,2.07l.14,1.15-.48,7.39c.48.48,3.36.48,4,.48l.33-1.15-.33-4.46.33-10.28c.2-1,.24-4.8.44-5.9,0-2-.1-5.86-.24-6.63s-.48-1.29-.68-2.11l.24-.62,3.46-.24,1.1,1a12.46,12.46,0,0,1,.82,3.41,43.41,43.41,0,0,0,.19,4.56,21.7,21.7,0,0,0,.63,3.65,15.42,15.42,0,0,0,4.8.33,28.29,28.29,0,0,1,5,.15,9.13,9.13,0,0,1,4.18,1.77,2.07,2.07,0,0,1,.48,1.92,5.4,5.4,0,0,1-2.74.67h-9.65a3,3,0,0,0-2.21,1L349,75.16c1.92.19,3.84.48,5.76.67s3.7.63,5.62,1a39.07,39.07,0,0,1,5.47,1.44A4.7,4.7,0,0,0,367.57,80v.77l-.77,1.49h-3.36C361.67,82.07,359.89,81.79,358.11,81.59Z" transform="translate(-131.93 -41.56)"/><path class="cls-1" d="M387.87,81.59a8.94,8.94,0,0,1-3.07-.76,9,9,0,0,1-2.88-1.44,5,5,0,0,1-1.15-3.22c.19-.82.33-1.44.53-2.26a4.83,4.83,0,0,1,1-2.11c1.1-.48,2.2-1,3.36-1.44a13,13,0,0,1,4.32-1,12.77,12.77,0,0,0,3.4-1l.15-1.44a4.45,4.45,0,0,0-1.3-3.22l-1.1-.14-6.29.29-2.54.33-2.41-1.44-.19-1c1.3-.48,2.6-.81,4-1.29a23.39,23.39,0,0,1,4.33-1,11.74,11.74,0,0,0,4-1.11l.14-2.59a2.34,2.34,0,0,0-.77-1.77c-1.15-.15-2.11-.29-3.21-.48a25.94,25.94,0,0,1-3.41-.15,20.55,20.55,0,0,1-3.36-.33l-.14-.48A4.41,4.41,0,0,1,383.36,51a10,10,0,0,0,2.88-.48c.82-.19,1.78-.53,2.74-.67a8,8,0,0,0,2.59-.82l.14-1-1.29-3.46a11.73,11.73,0,0,1,2.73-1.29,21.21,21.21,0,0,1,2.88-.63l2.11,1.3.63,1.58-.29,2.21.14.48c4.47,0,5.57.29,6.73,1.11l.28,1.15a5.17,5.17,0,0,1-2.73,1.73c-3.8.48-4.28,1.15-4.42,1.77a7.06,7.06,0,0,0-.34,2.11l.63,1.73c1,.19,4.27.19,5.28.34a7,7,0,0,1,2.4.81l.62,1.59a5.28,5.28,0,0,1-2.54,1.15,47.35,47.35,0,0,0-5.43.62,4.7,4.7,0,0,0-.62,3.36l1.1,2.6a15.33,15.33,0,0,0,3.7,1A5.6,5.6,0,0,1,406.64,71l.34,1-.48,1a6.53,6.53,0,0,1-3.07.63l-4-.34a22.31,22.31,0,0,0-.67,2.93,6.51,6.51,0,0,1-1,2.69,24.73,24.73,0,0,1-2.07,2.45,9.78,9.78,0,0,1-3.84.76C390.75,81.93,389.79,81.79,387.87,81.59Zm6.24-7.87-.19-.57-2.35-.2c-.63.2-1.35.39-2.16.63-1.68.14-2.35.33-2.83,1l-.2.91c1,1,3.17,1.39,4.71,1.2l2.35-1.2Z" transform="translate(-131.93 -41.56)"/><path class="cls-1" d="M424.83,70l-.14-2.59,1.87-11-.48-.62a11.23,11.23,0,0,1-2.59-.19,3.61,3.61,0,0,1-2.21-1.25l-.48-1.63a26.56,26.56,0,0,1,3.36-.63,5.33,5.33,0,0,0,3-1l.34-3.36-.62-2.45c.62-.48,1.24-.77,1.91-1.25a10,10,0,0,1,2.26-.67,3,3,0,0,1,2.69,1l.34,1.3a10.26,10.26,0,0,0-.82,1.92,5,5,0,0,0-.48,2.11c.19.15.48.48.67.63a29.43,29.43,0,0,1,3.51.14,28,28,0,0,1,3.4.82l.15.81-.63,1.59a9.66,9.66,0,0,1-3.69.67,9,9,0,0,0-3.55,1.1c-.82,1.15-1.3,2.4-2,6.53a41.12,41.12,0,0,0-.82,4.18,7.94,7.94,0,0,1-1.73,4.08l-2.2,1.1ZM439.9,81.93c-1.48-.48-2.73-1-4-1.44a33.42,33.42,0,0,1-4-1.78A4.3,4.3,0,0,1,430.59,75c.48-.82.77-1.78,1.25-2.74A14.23,14.23,0,0,1,435.06,68a22,22,0,0,1,5.47-1.78,18.84,18.84,0,0,0,2.73-.14l1,.29c.48-1,.82-1.44.63-2.07,0,0-.48-2.83-.63-4.27a15.45,15.45,0,0,0-.81-3.84l.33-1,.82-.14c.77.14,1.44.48,2.21.67a5.89,5.89,0,0,1,1.92,1.44,21,21,0,0,1,1,4.66,59.31,59.31,0,0,0,1,6.19,11.92,11.92,0,0,0,3.36,1,6.21,6.21,0,0,1,3.21,1.44,1.87,1.87,0,0,1,.48,1.78l-.81.81-.82.15-5.42-.82A2.78,2.78,0,0,0,449,73.91a23.06,23.06,0,0,0-.14,3,8.5,8.5,0,0,1-.82,2.73,10.43,10.43,0,0,1-1.92,2.4A2.5,2.5,0,0,1,444,83,31.54,31.54,0,0,1,439.9,81.93Zm5.43-9a3,3,0,0,0-2.26-1.11h-2.54l-2.11,1.3-1.25,2.49a5.81,5.81,0,0,0,1.92,1.06,5.66,5.66,0,0,0,2.25.14l3.22-1.44A4.33,4.33,0,0,0,445.33,72.91Zm6.43-17.81c-2.3-1.4-4.75-3-6.19-3.84L444,47.75l1.11-.19h1.63a11,11,0,0,0,2.21.82c.67.33,4.75,1.72,5.57,2.2.81.68,1.77,1.3,2.54,1.92v.34l.53.14a2.5,2.5,0,0,1,.62,2.12,2.73,2.73,0,0,1-2.11,2.06A25.68,25.68,0,0,1,451.76,55.1Z" transform="translate(-131.93 -41.56)"/><path class="cls-1" d="M479.79,79.1a18.55,18.55,0,0,1-1.73-1.3,14.88,14.88,0,0,1-3.41-7.2c-.47-2.74-1-5.33-1.24-8.06s-.68-5.43-.82-8.16a3.33,3.33,0,0,1,.82-2.88h.48a12.25,12.25,0,0,0,2.54.76,5,5,0,0,1,2.26,1.3l.33,1.3a14.87,14.87,0,0,0-.33,2.88,12,12,0,0,1-.34,2.88,10.59,10.59,0,0,0-.14,3.07,28.79,28.79,0,0,1,.81,3.36,20.51,20.51,0,0,0,.63,3.55,13.41,13.41,0,0,0,1.44,3.22l.72.57c1.1-1.29,2.35-3.5,3.89-4.7a11.14,11.14,0,0,1,3.64-1.92c.82.48,1.16,2.21,1,3.17-.48,1-1.39,2.35-2.64,4.51s-1.53,2.83-2.59,3.41c-1.63.86-2.4,1.34-3.55,1.2A3.84,3.84,0,0,1,479.79,79.1Zm22.9-5.19a5.51,5.51,0,0,1-.48-3.21c-1.35-4.47-2.64-8.55-3.6-11S495.78,55,495.3,52.6l1-1.1h.48a9,9,0,0,0,2.73,1,15.66,15.66,0,0,1,2.74.76,13.25,13.25,0,0,1,1.92,3.08,12.4,12.4,0,0,1,.82,3.36,9.3,9.3,0,0,0,1.1,3.55c0,.81.19,3.17.19,3.17l.29,2.4c-.14.81-.14,1.77-.29,2.73a7.37,7.37,0,0,1-1,2.55,1.51,1.51,0,0,1-1.63.48Z" transform="translate(-131.93 -41.56)"/><path class="cls-1" d="M533.94,82.12a14.6,14.6,0,0,1-2.31-2.88,15.92,15.92,0,0,0-2.69-2.69v-.81a1.4,1.4,0,0,1,1.4-.82l1.24.19,1.64-.19,3.21.19a4.58,4.58,0,0,0,1.68-2.83c.19-1.1.19-2.06.39-3.17l-.68-.91-2.92-.34-9.56.82a9.74,9.74,0,0,1-3.6-.67,10.37,10.37,0,0,1-3.07-1.11v-.62a17.29,17.29,0,0,1,6.05-1.92c2.16-.14,4.27-.48,6.62-.77s4.47-.62,7.11-.77l.19-1.44-1.1-1.1-8.6.34c-.81-.15-1.92-.34-2.78-.48a3.16,3.16,0,0,1-2-1.59l-.09-.62a7.63,7.63,0,0,1,3.89-1.44c1.58-.15,3-.48,4.65-.63s3.07-.43,4.95-.76l.43-1.3-1-2-1.3-.33a40.8,40.8,0,0,1-6.14,2.35,8.56,8.56,0,0,1-3,1,1.84,1.84,0,0,1-.52-1.44,8.78,8.78,0,0,0,1.2-2.83,4.29,4.29,0,0,1,1.44-2.5l8.25-4.9s3-.19,5-.38a43.27,43.27,0,0,1,4.61-.1c.87.48,1.1,1.3,1,2.55l-2.4,2.54a8.67,8.67,0,0,0-4,1.54l-.63,1.39c.43.67,1.39,3.17,2.07,3.65a30.35,30.35,0,0,0,4.08.19,5.62,5.62,0,0,1,3.31,1,6.85,6.85,0,0,1,.72,2.69l-.63.72a15,15,0,0,1-2.92.67,12.38,12.38,0,0,0-3.51.87,2.75,2.75,0,0,0-.53,1.82l1.4,1.1a41.78,41.78,0,0,0,4.32.29,25.4,25.4,0,0,1,3.79.63A27.88,27.88,0,0,1,556,65.8a1.59,1.59,0,0,1,.38,1.73c-.53,2.21-1.44,2.21-2.93,1.87l-10-.77a31.45,31.45,0,0,1-1.06,5.81c-.52,1.78-1,3.36-1.48,4.9a13.08,13.08,0,0,1-2.26,4.56,1.9,1.9,0,0,1-1.87.48A5.67,5.67,0,0,1,533.94,82.12Z" transform="translate(-131.93 -41.56)"/><path class="cls-1" d="M573.15,82.55a25.86,25.86,0,0,1-.81-3.26c-.15-1.15-.49-2.16-.63-3.26l.14-10.61-.62-.34a7.1,7.1,0,0,0-2.11,2.69,3.58,3.58,0,0,1-2.4,2.06l-1-1.1-.82-2.64a19.36,19.36,0,0,1,2.45-7.3c1.25-2.21,2.55-4.46,4-6.81a35.87,35.87,0,0,0,3.22-6.87l.82-.34c.81.2,1.77.34,2.54.48a6.14,6.14,0,0,1,2.11,1.16L581,49a6.69,6.69,0,0,1-1.63,2.45,11.07,11.07,0,0,0-1.73,2.35,8,8,0,0,0-.81,2.83,19.44,19.44,0,0,1,.81,2.64,8.67,8.67,0,0,1,0,2.79L577.33,67l.14,1.78c0,1.78-.14,3.6-.29,5.28s-.33,3.46-.48,5.28a25.61,25.61,0,0,1-.81,4.94l-1.16.39A4.8,4.8,0,0,1,573.15,82.55ZM590,81.31a14.73,14.73,0,0,1-.82-4.8,16,16,0,0,1-.14-3.7V69.26a35.94,35.94,0,0,0,.67-4.13,42.7,42.7,0,0,1,.29-4.27,17.75,17.75,0,0,0,.19-4.28l-.19-.52-3-.39c-.48,1.25-1,2.4-1.3,3.55a21.7,21.7,0,0,0-.62,3.8,14.11,14.11,0,0,1-1.16,3.5l-1.1.38-1.44-2.11-.67-5.57,1.44-7.44,1.63-8.06-.19-.72a2.88,2.88,0,0,1,2.11-.34l1.1.48a16.37,16.37,0,0,1,1,1.92,3.65,3.65,0,0,1,.34,2.31l-.48,3.41a2.16,2.16,0,0,0,2.11.52h2.21c.82-.14,4.66-.33,5.62-.48h2.73a10.45,10.45,0,0,1,2.4.68,13.74,13.74,0,0,1,2.26,1.15l.19,1.34-.81.72c-1.3.19-2.6.19-3.84.34a11.39,11.39,0,0,0-3.7.86,29.58,29.58,0,0,0-1,4.27l.14.58a14.56,14.56,0,0,0,3.56.14,14.17,14.17,0,0,1,3.5.15,8,8,0,0,1,3.07,1.29l.48,1.25a12.73,12.73,0,0,1-3.41,1c-1.24.19-2.54.39-3.84.53l-3.5.24-.34,1.39A7.34,7.34,0,0,0,599,68a30.36,30.36,0,0,1,3.51.62,8.88,8.88,0,0,1,3.07,1.83l.29,1.1a3,3,0,0,1-1.58,1.25,14,14,0,0,1-2.74.19,16.45,16.45,0,0,0-2.74.29c-1,.19-1.77.53-3.69,1.06a25.87,25.87,0,0,0-.29,4.46,15.19,15.19,0,0,1-.19,2.93,4.28,4.28,0,0,1-1.44,2.5l-.48.19Z" transform="translate(-131.93 -41.56)"/><path class="cls-1" d="M623.07,65.22a26.2,26.2,0,0,1-1.15-3.69,13,13,0,0,1-1-3.7c-.15-1.25-.34-2.54-.48-4,.14-1,.48-1.92.62-3.07a20.16,20.16,0,0,1,.67-3,18.61,18.61,0,0,0,.82-3.07l.63-.15a3.64,3.64,0,0,0,2.25.63,5.5,5.5,0,0,1,2.26.81,5.48,5.48,0,0,1,1.44,2.89A16,16,0,0,0,628,51.11a23.78,23.78,0,0,0-1.11,2.55c0,1.44,0,3.07-.14,4.51a35.81,35.81,0,0,0-.19,4.51,17.44,17.44,0,0,1-1,4.18l-1.11.28A3.87,3.87,0,0,1,623.07,65.22Zm12,17.53c-.14-.68-.29-1.3-.48-2.12a12.15,12.15,0,0,1-.14-2.25l1.44-8.64c.48-2.88,1.1-5.81,1.77-8.69a85.19,85.19,0,0,0,1-8.83c-.19-1.11-.19-2.07-.33-3.22a9.23,9.23,0,0,0-1.35-2.35L636,45.4a4.06,4.06,0,0,1,2.4-.39,5.53,5.53,0,0,1,3.22,1c.48.82,1.1.87,1.58,2.12a13,13,0,0,1,.82,4.22c.14,1.44-.15,3,0,4.42a17.91,17.91,0,0,1,0,4.51c-.15,1-.29,1.92-.48,2.69a20.06,20.06,0,0,0-.29,2.93A36.11,36.11,0,0,0,642,70.7a28.72,28.72,0,0,0-1.1,3.84,33.85,33.85,0,0,1-1.15,4,5.65,5.65,0,0,1-.82,2.88,11.88,11.88,0,0,1-1.92,2.4l-.62.34Z" transform="translate(-131.93 -41.56)"/><path class="cls-1" d="M670.26,77.9a15.57,15.57,0,0,1-.82-2.88c-.14-1-.34-1.92-.48-3,.14-2,.34-3.89.48-5.95s.14-4.18.14-6.29V53.66l-1-2.55-.48-2.21.82-1.15,2.4-.19A5.85,5.85,0,0,1,674.43,49l.15,1.3a42.25,42.25,0,0,1,0,6.91c.19,1.58.19,3.21.33,4.8v5.13l-.24,4.13.05,1.4,1,.14c2.59-.63,5.14-1.44,7.73-2.26s5.13-1.58,7.87-2.4a14.32,14.32,0,0,1,7.73-.67,1.22,1.22,0,0,1,1,1.3L699.15,70c-1.77,1-3.69,1.78-5.47,2.6S690,74.2,688.21,75l-5.62,2.4c-2.06.77-5.76,1.29-6.86,1.77s-2.11.82-3.22,1.3A5.86,5.86,0,0,1,670.26,77.9Z" transform="translate(-131.93 -41.56)"/><path class="cls-1" d="M715.85,80.3,717,75.83a8.35,8.35,0,0,1,1-2.73c.48-.82.81-1.78,1.29-2.74A14.6,14.6,0,0,1,720.9,68a24.87,24.87,0,0,1,2.88-5c1-1.59,1.92-3.22,3-4.8a48.69,48.69,0,0,0,3.07-5,4.68,4.68,0,0,0-2.59-.34l-9.7.58-2.21-.82c-.81-.77-1.29-2.69-1.63-3.65l3.7-.77,1.44.15a58.61,58.61,0,0,1,6-.63c1.92-.19,3.84-.33,5.95-.48s4-.33,5.91-.48l2.74.29a7,7,0,0,1,3.07,2.26l.14,3.31-1,2.11a14.07,14.07,0,0,0-1.78,1,7.94,7.94,0,0,0-1.72,1.3,13.67,13.67,0,0,1-1.78,2.21,12.53,12.53,0,0,0-1.92,2.25A21.83,21.83,0,0,0,732.7,64v.63a25.28,25.28,0,0,0,4.52,4.8c1.58,1.49,3.17,3.07,4.8,4.66a46.92,46.92,0,0,1,4.32,5l.33,1.77a1.73,1.73,0,0,1-1.92.63,22,22,0,0,1-4.51-2.74,27.24,27.24,0,0,1-4.18-3.36c-1.44-1.1-2.73-2.4-4.17-3.7l-2.4-2.54h-.63c-1.29,1.44-2.44,3-3.55,4.47s-2.25,2.49-3.21,3.93c-1,1.59-1.92,2.74-3,4.32l-1.15.34Z" transform="translate(-131.93 -41.56)"/><path class="cls-1" d="M768.46,80.83a25.34,25.34,0,0,1-.81-2.93,10.17,10.17,0,0,1-.48-3V71.8c.33-2.88.67-5.76,1-8.83s.48-5.91.67-9c.14-2.88.48-5.76.77-8.83l-.15-1.78.82-.14s1.34.24,2.06.29a4.84,4.84,0,0,1,2.4,1.15l.48,1.77c-.14,1.44-.28,2.74-.48,4.18s-.28,2.74-.28,4.18-.2,2.88-.34,4.32l.34,1.92h1.1l3.07-.48c1.44.33,2.88.67,4.32,1a27.15,27.15,0,0,1,4,1.63c1.25.62,2.55,1.44,3.85,2.21a4.68,4.68,0,0,1,.33,2.59l-1.29.62a20.62,20.62,0,0,0-2.6-1.1c-1-.14-1.92-.48-2.88-.62s-1.92-.2-2.88-.34a48.86,48.86,0,0,1-7.39-.48l-.34,2.26V73c-.14,1.25-.28,2.55-.48,3.7a30.58,30.58,0,0,0-.62,3.5,12.71,12.71,0,0,1-1.1,3.56h-.82A8.22,8.22,0,0,1,768.46,80.83Z" transform="translate(-131.93 -41.56)"/><path class="cls-1" d="M825.34,81.31,825,77.8a24.48,24.48,0,0,1,2.4-6,22.1,22.1,0,0,0,2.73-5.19c.82-2.06,1.44-4.41,1.92-5.52a6.38,6.38,0,0,0-3.36-.43l-10.6.34a15.2,15.2,0,0,1-3.08-.34,19.84,19.84,0,0,0-2.88-.14,4.26,4.26,0,0,1-2.88-.67l-.14-3,.77-.53c2.59-.14,4.65-.29,6.77-.43s4.17-.29,7.87-.62a40.21,40.21,0,0,1,6.43-.15,27.72,27.72,0,0,0,3.55.15,29.43,29.43,0,0,0,3.51.14,8.28,8.28,0,0,1,3.21,1.1,3.94,3.94,0,0,1,.82,2.21,11.32,11.32,0,0,0-2,2.83c-.48,1.11-.86,2.4-1.39,3.51s-.77,2.4-1.25,3.45a19.2,19.2,0,0,1-1.92,3.27s-.81,1.25-1.82,2.59-1.73,3-2.55,4.32A16.55,16.55,0,0,1,828,82.89l-1.25.14A2.65,2.65,0,0,1,825.34,81.31Zm-9.45-31.06-1.16-1.49v-1a14.3,14.3,0,0,1,5.62-2.26,48.55,48.55,0,0,1,6.15-.38l6.09.14a4.4,4.4,0,0,1,3.7,1.78l.34.91a11.68,11.68,0,0,1-5.77,2.11c-2,.15-3.84.39-5.9.63a46.11,46.11,0,0,1-6.34-.15Z" transform="translate(-131.93 -41.56)"/><path class="cls-1" d="M860.05,80a11.89,11.89,0,0,1-3.51-.57l-.81-.82,1.77-1.92c3.65-2.11,7-3.89,10.71-5.62,3.41-2.06,7-3.89,10.56-5.66s7.25-3.41,11-4.9c.91,0,2.26.48,2.26,1.39L892,62.92a4.51,4.51,0,0,1-2.16,2.54c-2.74,1.54-5.52,3.32-8.31,5-3,1.63-5.76,3.36-8.64,4.94a42.81,42.81,0,0,1-8.4,3.94A13.36,13.36,0,0,1,860.05,80Zm-1.4-26.74c-1-.43-1.1-2-2-2.4l0-1.2c1.35-.86,2.6-1.34,4-.76a22.61,22.61,0,0,0,4,1.39,16.12,16.12,0,0,0,4,.91,4.54,4.54,0,0,1,2.93,2.64l-.1.62-1.68,1.2a3.52,3.52,0,0,1-2.78.34c-1-.19-1.88-.43-2.69-.58a12.46,12.46,0,0,1-3-.48A6.87,6.87,0,0,1,858.65,53.22Z" transform="translate(-131.93 -41.56)"/></svg>