<?xml version="1.0" encoding="utf-8"?>
<!-- Generator: Adobe Illustrator 24.0.2, SVG Export Plug-In . SVG Version: 6.00 Build 0)  -->
<svg version="1.1" id="レイヤー_1" xmlns="http://www.w3.org/2000/svg" xmlns:xlink="http://www.w3.org/1999/xlink" x="0px"
	 y="0px" viewBox="0 0 443.3 150.8" style="enable-background:new 0 0 443.3 150.8;" xml:space="preserve">
<style type="text/css">
	.st0{enable-background:new    ;}
	.st1{fill:#FFFFFF;}
</style>
<title>header-logo</title>
<g class="st0">
	<path class="st1" d="M3.5,100.4l-2.7-0.9V86.2l2.7-0.7v-1.9h6.4l0.9-3.3h3.6V82H16l3.6-4.3h1.9v-3.2l-1.9-5.9
		c3-3.4,6.6-5.3,10.8-5.9c4.2-0.6,8.2-1.4,12.1-2.6c3.9-1.2,7.8-2.4,11.7-3.8c3.9-1.4,8-2.6,12.2-3.7l0.9-2.6h-6.4
		c-1.7,0.6-3.5,1-5.3,1.4c-1.8,0.3-3.6,0.8-5.4,1.3c-1.8,0.5-3.4,1.2-4.9,2.1c-1.5,0.9-3.2,1.5-5,2v-2.6l2.7-4.9l3.6-0.9v-1.7
		l20.6-5.8v-4.3h-2.7v1.7c-1.7,0-3.3,0.3-4.8,0.8c-1.5,0.5-3.2,1.1-5,1.7c-1.8,0.6-3.5,1.4-5,2.6c-1.5,1.2-3.2,1.4-5,0.9l-0.9-11
		l3.6-3.3l3.6-1l2.7,1l9.8-2.6v-5.9l-0.9-2.5l0.9-1.7c1.2,0,2.2-0.4,2.7-1.2c0.6-0.8,1.2-1.4,1.7-1.7c0.6-0.3,1.3-0.5,2.2-0.5
		c0.9,0,2,0,3.2,0c1.2,0.7,1.9,1.6,2.2,2.7c0.3,1.2,0.4,2.4,0.4,3.8c0,1.4,0.1,2.6,0.4,3.8c0.3,1.1,0.4,2.2,0.4,3.2l22.5,1.6
		l0.9,6.8l-2.6,0.9v0.9h-2.7l-7.2-2.5h-2.7v1.6h-0.9l-2.6-0.9l-3.6,0.9v3.3c0.6,1.2,1.5,1.7,2.7,1.7c1.2,0,2.2,0,3.1,0
		c0.9,0,1.9,0,3.1,0c1.2,0,2.4,0,3.7,0l3.6-0.7l12.6,2.3v3.5l-8.9,0.7l-14.4-0.7l-5.3,1.7l-1,5.1c6.6,0,12.9,0.1,18.9,0.4
		c6,0.2,12,0.8,18,1.7c6,0.9,11.9,1.9,17.5,3c5.7,1.2,11.3,2.8,16.7,5.1v0.9c-1.2,0.5-2.3,1.2-3.5,2c-1.2,0.9-2.6,1.3-4,1.3
		c-1.5,0-3,0-4.5,0c-1.5,0-2.9,0-4.3,0c-4.8-1.2-9.6-2.1-14.4-3c-4.8-0.8-9.5-1.7-14.4-2.5c-4.8-0.9-9.6-1.6-14.4-2.1
		c-4.8-0.5-9.8-0.8-15.2-0.8c-4.2,0.6-8.3,1.1-12.2,1.7c-3.9,0.5-7.8,1.3-11.7,2.5c-3.9,1.1-7.8,2.4-11.7,3.8
		c-3.9,1.4-7.6,2.7-11.2,3.8v1.6l-4.5,1.9L21.5,81l4.5,1.9l1.7,4.9h0.9v1.9L3.5,100.4z M6.2,45.8L4.3,45l-0.9-2.6l0.9-5.1l3.6-3.3
		c1.8,0,3.3-0.3,4.5-0.9c1.2-0.6,2.5-1,4-1.3c1.5-0.3,2.8-0.9,4-1.7c1.2-0.9,2.7-1.3,4.4-1.3v2.6h1.9v1.7l3.6,0.9l1.7,5.1h-0.9v2.5
		c-1.8,0.6-3.9,0.9-6.3,0.9c-2.4,0-4.6,0.1-6.7,0.4c-2.1,0.2-4.2,0.5-6.4,0.9C9.9,44,7.9,44.7,6.2,45.8z M9.8,64.4v-1.9H7.9v-4.9
		l2.7-5.1l8.1-3.3v1.6l10.8,1.7l0.9,6.8L9.8,64.4z M43,131.5l-1.9-0.9l-0.9-3.3c0.6-3.9,2.1-7.6,4.5-11c2.4-3.4,4.4-6.9,5.8-10.5
		c1.5-3.6,2.7-7.4,3.6-11.3c0.9-3.9,1.1-8.1,0.5-12.6L52,76.1h-2.6v-2.6l3.5-5.8c2.4-1.2,5-1.7,7.6-1.7c2.7,0,5.4-0.3,8.1-0.8
		c2.7-0.5,5.2-1.2,7.6-2.1c2.4-0.9,5.1-1.3,8.1-1.3l2.7,3.3c1.2,0,2.3,0,3.5,0c1.2,0,2.3,0.1,3.2,0.4c0.9,0.3,1.8,0.7,2.7,1.3
		c0.9,0.6,1.9,0.9,3.1,0.9l1.9,9.1l-1.9,15.2l0.9,1.9l-0.9,3.3l3.6,22.7l-0.9,8.2h-1.9l-2.6-0.7v0.7H96v1.6h-2.6
		c-0.7-1.1-1.2-2.3-1.4-3.6c-0.3-1.3-0.4-2.9-0.4-4.6c0-1.7,0-3.3,0-4.7c0-1.4,0-2.9,0-4.4l0.9-6.1l-3.6-31.8L74.5,71l-13.6,2.5v3.3
		c1.2,1.3,2.9,1.9,5,1.9c2.1,0,4.2,0,6.3,0c2.1,0,4.2,0.1,6.4,0.4c2.1,0.2,4,0.4,5.8,0.4v6.1L83.4,87h-9.8v1.6h8.9H67.3l-2.7-0.9
		l-3.6,0.9L60,95.4h20.6l7.2-0.9v7.5l-5.3,0.9l-3.6-0.9l-2.7,0.9L69,102l-12.6,2.6l-7.1,20.9c-0.7,0.7-1.3,1.1-1.9,1.4
		s-1.3,0.5-2.2,0.7c-0.9,0.2-1.5,0.6-1.8,1.2C43.2,129.3,43,130.2,43,131.5z M79.8,35.6l-0.9-0.7l-0.9,1.6h0.9L79.8,35.6z
		 M99.6,34.9l-0.9-0.9l-0.9,0.9l0.9,0.7L99.6,34.9z"/>
	<path class="st1" d="M155.3,129.3v-1.7l-2.7-0.7c0-1-0.5-2-1.4-3c-0.9-1.1-1.4-2.3-1.5-3.8c-0.1-1.4-0.3-2.7-0.5-3.8
		c-0.2-1.1-0.4-2.5-0.4-4.3c2.4-1.7,4.7-3.3,6.9-4.8c2.2-1.4,4.6-2.9,7.3-4.3c2.6-1.4,5.1-2.9,7.4-4.4c2.3-1.5,4.9-2.8,7.9-4
		l0.9,4.2c-0.5,1.2-0.9,2.3-1.2,3.5s-0.4,2.5-0.4,3.9s0,2.9,0.1,4.3c0,1.4,0.1,2.6,0.1,3.7h-1.9l-1.6,4.2h-1.7l-2.5,3.6l-1.7,0.1
		v1.6c-1.2,0.6-2.2,1.2-3.1,1.7c-0.9,0.6-1.9,1.2-3,1.9c-1.1,0.7-2.2,1.2-3.4,1.6C157.6,129.1,156.4,129.3,155.3,129.3z M160.3,75.9
		c-1.2-1-2.2-2-3.1-3.2c-0.9-1.2-1.5-2.4-1.8-3.5c-0.3-1.1-0.4-2.4-0.4-3.8c0-1.4-0.1-2.9-0.3-4.5c1.2-0.6,2.3-1.2,3.5-1.9
		c1.2-0.7,2.3-1.3,3.5-1.8c1.2-0.5,2.4-0.9,3.5-1.2c1.2-0.3,2.6-0.5,4.3-0.6l6.2,1.6l1.9,6.9l-0.9,4.2l1.7-0.1v3.5L160.3,75.9z
		 M168.4,42.9l-6.2-2.6l-1.9-10.1l9.7-3.6l2.5,0.9l3.8-0.9l3.3,1.6l3.8,7.6l-1.7,5.9L168.4,42.9z M178.2,97.1l-0.9-0.9l-0.9,0.9
		l0.9,0.9L178.2,97.1z M189.2,126.3v-0.7l-1.9-3.2l6.1-10.4l3.3-3.3l6.2-7.8l1.3-15.3l3.5-1l4.3,4.2l1,4.2c-1.7,2.9-3.1,5.7-4.2,8.5
		c-1.1,2.8-2.3,5.7-3.7,8.6c-1.4,2.9-3.1,5.7-5.1,8.3s-4.2,5-6.5,7.2L189.2,126.3z M205.7,71.9l-5.3-2.6l-1-6.8l1.9-3.3l2.6-0.9
		l2.6-1.7l2.5-3.6l5.3-4.9l-0.3-6.1h-2.7l-16.3,7.2l-1-6.1l4.2-6.1c1.2-0.5,2.3-1.2,3.5-2c1.2-0.9,2.5-1.3,3.9-1.4
		c1.4,0,2.7-0.4,3.9-1c1.2-0.6,2.6-0.9,4.5-0.9v-3.3c-0.6-0.6-1.1-1.1-1.4-1.7c-0.4-0.5-0.6-1.1-0.6-1.7s0-1.3,0-2.1
		c0-0.8,0-1.6,0-2.2l2.7-3.3l6.1-0.3c0.7,1.2,1.3,2.3,1.9,3.5c0.6,1.2,0.9,2.3,0.9,3.5s0,2.4,0.1,3.8c0,1.4,0.1,2.6,0.1,3.7
		c3.6-0.1,7.2-0.2,11-0.2c3.8,0,7.4,0.2,10.9,0.7c3.5,0.5,6.8,1.2,10.1,2c3.3,0.8,6.7,1.4,10.2,1.8v2.6l-2.7,5.2h-7.8
		c-3-0.5-5.8-1-8.4-1.5c-2.6-0.5-5.2-1-7.9-1.5c-2.6-0.5-5.4-0.9-8.3-1.2c-2.9-0.3-5.8-0.4-8.8-0.3c0,1.7-0.1,3.3-0.4,4.8
		c-0.3,1.4-0.4,3-0.3,4.7c0.1,1.7-0.4,2.9-1.6,3.8c-1.2,0.8-1.7,2-1.7,3.7h5.3l14-1.9l-0.3-2.6h-1.7l-0.9-5.6l3.3-2l5.5,1.9
		c0.6,1.6,1.2,3.1,1.7,4.5c0.6,1.3,1.3,2.7,2.3,4.1c1,1.4,1.4,3,1.4,4.7c0,1.7,0,3.4,0.1,5.1l-3.5,3.3l-2.6-1.4l-1.7-2.6l-8.8-0.6
		c-2.3,0.6-4.6,1-7,1.4c-2.4,0.3-4.6,1.1-6.6,2.2c-2.1,1.2-4.1,2.3-6.2,3.5C210.1,71.1,208,71.8,205.7,71.9z M224.3,118.2
		c-0.7-0.6-1.5-1-2.4-1.2c-0.9-0.2-1.5-0.8-1.8-1.7c-0.3-0.9-0.6-1.7-0.9-2.5c-0.3-0.8-0.4-1.8-0.4-3l1.3-15.3l-1.9-10.1l0.9-1.6
		h3.6v1.6l2.6,0.9V87c0.6-0.2,1.2-0.1,1.8,0.1c0.6,0.3,0.9,0.7,0.9,1.3s0.1,1,0.4,1.3c0.3,0.3,0.8,0.7,1.6,1.2v6.9
		c-0.5,1.6-0.7,3.4-0.7,5.4c0,2-0.1,3.8-0.4,5.6c-0.2,1.7-0.8,3.3-1.7,4.8C226.3,115,225.3,116.6,224.3,118.2z M282.3,133.2
		c-2.9-0.6-5.9-1.3-9.2-2.2c-3.2-0.9-6.2-2-8.9-3.5c-2.7-1.5-5.5-2.9-8.4-4.3c-2.9-1.3-5.6-2.8-7.9-4.5c-1.8-2.4-3.2-4.8-4.1-7.3
		c-0.9-2.5-1.8-5-2.7-7.5c-0.9-2.5-1.3-5.4-1.4-8.5c0-3.1-0.2-6.1-0.4-8.9l3.5-3.3c0.6,0.6,1,1.3,1.3,2.1c0.3,0.8,0.9,1.5,1.7,2
		c0.9,0.5,1.3,1.2,1.4,2c0,0.8,0.1,1.8,0.1,3l-0.9,5.9l3.6,5.9c1.9,1.2,3.9,2.3,6,3.4c2.1,1.1,4.1,1.9,6.2,2.4
		c2.1,0.5,4.2,0.9,6.5,1.2c2.3,0.3,4.5,0.4,6.9,0.3c1.3-0.6,2.6-0.9,3.7-0.9c1.1,0,2.2-0.3,3.4-0.9c1.2-0.6,2.1-1.2,3-1.7
		c0.8-0.5,1.8-1.1,3-1.7l3.8,9.8h1.7l1.2,7.6l-1.6,3.2l-4.5,1.7l-0.9,2.7L282.3,133.2z"/>
	<path class="st1" d="M300.6,123.1l-3.2-3l-1.7-9.4l1.7-3.5c0.9,0,1.8,0,2.9,0c1.1,0,1.9-0.2,2.5-0.6c0.6-0.4,1.3-0.9,1.9-1.4
		c0.6-0.6,1.4-0.9,2.2-0.9v-1.2l7.1-4.8l1.2-0.4v1.6l-1.9,0.7c0,1.9,0.1,3.9,0.4,6.1c0.2,2.1-0.3,4-1.6,5.6s-2.5,3.2-3.5,4.7
		c-1.1,1.5-1.8,3.3-2.2,5.3L300.6,123.1z M309.4,89.2c-0.8-0.5-1.6-0.9-2.5-1.3c-0.9-0.4-1.7-0.6-2.5-0.6c-0.8,0-1.8,0-2.9,0
		c-1.1,0-2,0-2.8,0v-1.2h1.2c-0.3-0.8,0-1.3,0.8-1.7c0.8-0.4,1.2-0.9,1.2-1.4s0-1.2,0-1.7s0-1.2,0-2l-0.7-4.8l5.8-1.2
		c0.9,0.8,1.7,1.2,2.5,1.2c0.8,0,1.7,0.2,2.5,0.6c0.9,0.4,1.6,0.9,2.2,1.5c0.6,0.6,1.4,1.3,2.2,2c0.5,0.4,0.9,0.8,1.4,1.2
		c0.4,0.4,0.6,0.9,0.6,1.4s0,1.2,0,1.7s0,1.3,0,2c-0.5,0.8-0.9,1.5-1.4,2.1c-0.4,0.6-1.2,1-2.2,1.2c-1.1,0.1-2,0.2-2.9,0.2
		C311.1,88.5,310.3,88.7,309.4,89.2z M343.9,48.3l-4.6-6.5l-4.5-0.6c-1.2,0.8-2.5,1.3-4,1.7c-1.5,0.4-3.1,0.6-4.8,0.6
		c-1.7,0-3.2,0.2-4.4,0.6c-1.3,0.4-2.7,0.6-4.5,0.6l-2.7-1.2l-1.7-4.6l1.3-6.5h1.2v-1.2h1.3l0.7-2.9c1.7-0.4,3.3-0.8,4.7-1.2
		c1.4-0.4,2.9-0.9,4.4-1.5c1.5-0.6,3.2-0.9,4.8-0.9c1.7,0,3.1-0.4,4.4-1.2l5.1-4.6h1.3v-1.2h7.1l4.5,4.2v1.2h3.2l19.6-1.2v-1.2
		l-0.7-1.9l3.9-5.2l4.3-1.3l4,2.5l2.5,6.3c2.9,0.5,5.8,0.8,8.8,0.9c3,0.1,6,0.5,8.9,1.2c3,0.6,5.8,1.3,8.6,2.1
		c2.7,0.8,5.4,1.7,7.9,2.9l0.7,2.9l-2,5.9l-4.3,0.6c-2.6-0.4-5-0.8-7.3-1.2c-2.3-0.4-4.7-0.8-7.3-1.2c-2.6-0.4-5.1-0.6-7.6-0.8
		c-2.5-0.1-5-0.2-7.5-0.2l-3.3,6.9l-2,1.7l-5.5,1.2l-0.7-1.7l-5.8-1.2v-1.7l2.5-2.3v-2.9H363l-6.4,1.6l-1.4,4.8h-1.3
		c0,0.8,0,1.4,0,2c0,0.6-0.2,1.2-0.6,1.7c-0.4,0.6-0.7,1.2-0.9,1.8c-0.2,0.6-0.5,1.1-1,1.4L343.9,48.3z M330.5,134.1v-1.3l-5.8-0.6
		l-1.9-8.7h-4.3v-1.2l5.1-2.9l3.8-38c-0.4-1.2-0.8-2.3-1.3-3.5c-0.5-1.2-1-2.2-1.6-3.2c-0.6-1-0.9-2.2-0.9-3.5c0-1.3,0-2.6,0-3.8
		c0.3-0.4,0.4-1,0.4-1.8c0-0.8,0-1.6,0-2.4c0-0.8,0.1-1.4,0.4-1.9c0.2-0.5,0.8-1,1.7-1.5l2-0.4v-1.9h3l7.8,1.9
		c1.6,1.1,2.5,2.5,2.5,4.3c0,1.8,0.2,3.5,0.6,5.3c0.4,1.7,0.6,3.5,0.6,5.3c0,1.8,0,3.6,0,5.6l-3.8,30.3l0.4,9.4l-1.2,7.5l0.7,2.2
		l-2.6,3.6h-4.5v1.3H330.5z M365.4,118.3l-5.8-2.9c-0.8-0.8-1.2-1.8-1.2-3c0-1.2,0-2.4,0-3.5c0-1.2,0-2.3,0-3.5s0-2.4,0-3.6
		c1.2-1.1,2.7-1.6,4.4-1.6c1.7,0,3.3-0.2,4.8-0.6c1.5-0.4,2.9-1,4.2-1.7c1.3-0.8,2.8-1.2,4.4-1.2c0.4-1.2,0.7-2.6,0.9-4
		c0.2-1.4,0.4-2.7,0.4-4s0-2.5,0-3.8c0-1.2,0-2.6,0-4.1l-4.5-2.3c-1.3,0.4-2.4,0.8-3.5,1.2c-1.1,0.4-2.1,0.9-3.2,1.4
		c-1.1,0.6-2.2,1.2-3.2,1.7c-1,0.6-1.9,1.5-2.8,2.7l-2.5,1.6l-3.3,1.9l-6.2-3.5v-7.6l1.7-4c1.7-0.9,3.7-1.4,5.8-1.6
		c2.2-0.2,4.1-0.7,5.7-1.4c1.6-0.8,3.4-1.3,5.3-1.7c1.9-0.4,3.8-1.3,5.5-2.9l0.6-1.9l2.5-2.3v-2.3l-0.6-1.6l2.6-3l7.5-1.2
		c0.5,0.3,1.1,0.4,1.7,0.4c0.7,0,1.3,0,1.9,0c0.6,0,1,0.3,1.2,0.9c0.2,0.6,0.8,0.9,1.7,0.9l3,10.5c4.3,0.4,8.5,0.8,12.6,1.2
		c4,0.4,8.1,1.1,12,2c4,1,7.9,1.9,11.7,2.9c3.8,1,7.9,1.7,12.2,2.2v2.3l-3.9,5.8l-6.5,1.3l-38.1-6.5c-1.6,1.2-2.5,2.6-2.7,4.3
		c-0.2,1.7-0.4,3.5-0.6,5.3c-0.2,1.8-0.6,3.6-1,5.3c-0.4,1.8-0.7,3.6-0.7,5.4l2,2.3l30.5,4.2l3.2,9.4c-0.9,0.8-1.7,1.3-2.5,1.7
		c-0.8,0.4-1.7,0.9-2.5,1.4c-0.9,0.6-1.9,0.8-3.2,0.6c-1.3-0.2-2.4-0.3-3.2-0.3c-2.5-0.8-5.1-1.3-7.9-1.7c-2.7-0.4-5.4-0.9-7.9-1.5
		c-2.6-0.6-5.2-0.9-7.9-0.9s-5.6,0-8.6,0l-11.4,1.9l-1.9,2.3L365.4,118.3z"/>
</g>
</svg>
