<svg id="レイヤー_1" data-name="レイヤー 1" xmlns="http://www.w3.org/2000/svg" viewBox="0 0 4010.15 70.82"><defs><style>.cls-1{fill:#fff;}</style></defs><title>line</title><polygon class="cls-1" points="4010.15 1.88 4008.26 0 4003.35 5.2 4010.15 1.88"/><path class="cls-1" d="M4062.21,108c.94.94.48,2.5,1.45,3.45l18.94-14.81C4074.13,88.25,4067.78,113.63,4062.21,108Z" transform="translate(-84.32 -94.57)"/><path class="cls-1" d="M4056.63,106.51c-7.35-3.46-10.4,3.51-12.11,5.86C4047.09,107,4058.23,114,4056.63,106.51Z" transform="translate(-84.32 -94.57)"/><path class="cls-1" d="M3409.6,110a10.12,10.12,0,0,0,2.28-.45A2.31,2.31,0,0,0,3409.6,110Z" transform="translate(-84.32 -94.57)"/><path class="cls-1" d="M3240.8,133.65l-1.77,5.56c31.49-9.9,67,.16,100.34-4.16l-2.25,2c84.53,2.15,162.48-7.13,246.35-11.36-1.31.59-1.75,2.22-3.1,2.87,4-1.93,8.53-5.48,13.07-5,1.18,1.24-1.27,2.58-2.73,3.14,17.71,9.18,52-5.82,63.09,1.26,5-1,7.18-4.81,4.41-7.72,65.64-2.35,135.87-4.11,202.72-11.32,3.22,1.26,3.8,3.76,2.92,6.93,57.15-14.9,117-9,175.51-6.55,2.24-3.92-6-4.15-.21-8.22-18.8-4.89-34.42,9.59-51.47,2.47l2.18-3.77c-12.4-2.43-2.51,9.52-15.38,4.65-5.08-3.16,1.27-4.81-1.1-5.09-26.36,1.55-53.86-1.85-78.69,7.33-6.13-8.21-28.33-.28-38.07-8.12-6.82,3.24-13.67,2.41-16.26,7.84-92.28-4.33-186.56,3.61-281.09,3-44.24,15.86-97.21-3.06-149.72,2.26a1.36,1.36,0,0,1,0-1.62c-17.11,3.92-42,5.76-62.48,3.81l-17.31,6.7c-122.93-13.77-248.55-4.09-373.42-9.8-141.88-3.95-266.18-15.37-404.35,5.53.18-1.53-.94-2.39,2.63-3-39.88,3.2-76.21-2.5-113.77.82l.12-1.57c-93.18,13.08-193.95-1.74-283.78,12.37-109.35-1.41-233,0-348.75,4.06l.27-3.14c-92.62,6.63-182.12-10-274.54-5-95-7.16-195.43,18-291.28,8.47-59.3-15.43-137.19,17.68-192.89,1.67-114.44-24.11-225.46-8.58-339.87,5.88-105.54-8.59-210.93,13.49-313.14-4C348.6,144,295.11,118.8,241.22,122.05l1.93,3.89c-19.35-11.81-43.11,16.55-55.19-1l2-.79c-10.24-8.94-23.79,21-30,10.4l-1.65,4.39c-12.41,1.27-1.47-5-11-6.75-3.6.55-1.37,8-8.88,5.5-1.63-18-30.37,3.91-31.23-16.33,6.78,0-10.63-7.85,4.6-12.09-4.34-2.07-25.12-1.07-23.25,7.52-1.78,9.12-9.9,17.07,2.73,24.12l2.54-6.64c4.26,6.64,3.24,3.32,4.76,8.3,16.5.88,18.71,10.54,30.55,14.54a.61.61,0,0,1-.06-.72c8.09-8,19.28-3.24,25.68-2.1l2.57,3.7c3.89,7.74,18.78-15.12,13.76-1.85,33.55-3.29,72-3.14,109.51-3.3,5.25-5,28.7.47,20.51-9.26,9.38,11.08,37.28,13.88,47.64,13.46-.38,1-.83,2.22-2.45,1.8,20.1,14.38,23.82-13.3,42.66,4.28,2.94-12.42,34.21,4,44.86-10.64,2.33,2.76,3.1,5.25,2.26,7.46,33.9.28,71.35,4.76,100.05,5.31,24.51-10.89,59.35,4.94,80.43-10.1,17.47,3.18,45.72,9.45,70.11,3.41l-2.37,1.84c27.51-.88,61.87-1.66,80.75-11.12,8.13,14.4,20,11.52,31.91,16.13,18.37-6.67,55.45-4.71,83.47-10.78,4.3,6.64,23.12-2.82,24.57,6.84,78.52-18.64,175.61-12.12,259.45,2l-1.21.68c10.88-5.3,23.41-17,34.49-23.84,1.09.84,1,2.44-1.36,2.39,15.31-1.8,29.63,7.69,44.93,5.92-.13,1.6-.13,1.6-2.61,3.12,14.36-4.29,29.67,7.72,46.61.25l1,2.55,10.77-3.58c-.26,3.19-.68,8-6.43,7,131.47,3.1,267.19-13.46,402.17-11.07l-5,3,26.17-5.43c-.14,1.61-1.39,2.4-2.64,3.12,33.34,5.42,67.94-3.61,100.43-2.24-.15,1.55-5.07,4.64-.52,6.39,24-8.7,38.64,11.31,50.68-6.76,1.12.84,1.88,4.91-.57,6.36,66.92-6,135.63-5.66,203.05-2.73,56.15-16.36,118.91-1.56,177.22-14.55l-.28,3.26c75.5-11.44,155.6.77,233.86-1.52,32.5,1.31,54.45-2.55,87.11-2.76l.82,4.07c55-15.48,115.54,13.9,172.88-3.14l-4,5.53c8.9-8.57,34.69,3,31.3-11.64l10.12,4.44c39-19.39,70.91,8.93,118.66-3.65L2889,132c12.69-2.7,27.49-4.84,36.9-1.65-1.47.51-.79,1.53-3.8,2.45,39.76,13.78,84-1.45,125.95-.92l-4.75,6.48c20.28-7.61,57.47-.53,84.12-4l-1.62,3,13.49-4.3.35,6.14C3174.3,139.67,3206.94,134.37,3240.8,133.65Z" transform="translate(-84.32 -94.57)"/><path class="cls-1" d="M3590.71,126.65c-.1-.06-.25-.06-.37-.19C3589.31,127,3589.81,126.93,3590.71,126.65Z" transform="translate(-84.32 -94.57)"/><path class="cls-1" d="M133.36,158.33a31.1,31.1,0,0,1-4.25-1.24C129.43,158.33,132,158.06,133.36,158.33Z" transform="translate(-84.32 -94.57)"/></svg>