<svg id="レイヤー_1" data-name="レイヤー 1" xmlns="http://www.w3.org/2000/svg" viewBox="0 0 442.32 203.63"><title>logo-left-black</title><path d="M34.08,198.69l-2.74-.87V184.4l2.74-.72V181.8h6.35l.87-3.32h3.61v1.74h1.73l3.6-4.33h1.88v-3.18l-1.88-5.91A17.19,17.19,0,0,1,61,160.88a82,82,0,0,0,12.12-2.6q5.85-1.72,11.69-3.82T97,150.78l.87-2.6H91.52a39.42,39.42,0,0,1-5.34,1.37,52.57,52.57,0,0,0-5.41,1.3,22.82,22.82,0,0,0-4.91,2.09,19.76,19.76,0,0,1-5,2v-2.6l2.74-4.9,3.61-.87v-1.73l20.64-5.77v-4.33H95.13v1.73a14.62,14.62,0,0,0-4.84.79c-1.49.53-3.15,1.09-5,1.66a16,16,0,0,0-5,2.6,5.16,5.16,0,0,1-5,.87l-.86-11,3.61-3.32,3.61-1,2.74,1,9.81-2.6v-5.91l-.86-2.46.86-1.73A3.11,3.11,0,0,0,97,114.19a6.13,6.13,0,0,1,1.73-1.73A4.5,4.5,0,0,1,101,112h3.25a4.33,4.33,0,0,1,2.16,2.74,15.65,15.65,0,0,1,.44,3.82,14.89,14.89,0,0,0,.43,3.76,12.67,12.67,0,0,1,.43,3.24l22.51,1.59.87,6.78-2.6.87v.86h-2.74l-7.21-2.45h-2.75v1.59h-.86l-2.6-.87-3.61.87v3.32a2.83,2.83,0,0,0,2.67,1.73h9.89l3.6-.72,12.56,2.31v3.46l-8.95.72L114,144.86l-5.34,1.73-1,5q10,0,18.91.36a180,180,0,0,1,18,1.66q9,1.31,17.54,3a95.76,95.76,0,0,1,16.74,5.06v.86a17.39,17.39,0,0,0-3.54,2,6.72,6.72,0,0,1-4,1.3h-8.73q-7.22-1.73-14.36-3c-4.76-.81-9.55-1.66-14.36-2.52s-9.59-1.57-14.36-2.1a140.39,140.39,0,0,0-15.22-.79L92,159.22a85.65,85.65,0,0,0-11.69,2.45q-5.83,1.67-11.68,3.75t-11.19,3.83v1.59L53,172.71l-.87,6.5,4.48,1.87L58.33,186h.86v1.88ZM36.82,144,35,143.27l-.87-2.6.87-5,3.61-3.32a10.45,10.45,0,0,0,4.54-.86,16.5,16.5,0,0,1,4-1.3,10.21,10.21,0,0,0,4-1.73,7.32,7.32,0,0,1,4.4-1.3v2.6h1.88v1.73l3.61.86,1.73,5.06h-.87v2.45a20.71,20.71,0,0,1-6.27.86A59.41,59.41,0,0,0,49,141q-3.18.36-6.35.86A16,16,0,0,0,36.82,144Zm3.61,18.62v-1.88H38.56v-4.9l2.74-5.05,8.08-3.32V149l10.82,1.74.87,6.78Zm33.19,67.11-1.87-.87-.87-3.32a25,25,0,0,1,4.47-11A51.92,51.92,0,0,0,81.2,204.1a73,73,0,0,0,3.61-11.33,35.13,35.13,0,0,0,.5-12.55l-2.74-5.92H80v-2.6l3.47-5.77a17.48,17.48,0,0,1,7.65-1.73,41.84,41.84,0,0,0,8.08-.8,51,51,0,0,0,7.65-2.09,23.82,23.82,0,0,1,8.08-1.3l2.74,3.32h3.54a10.85,10.85,0,0,1,3.17.43,12.16,12.16,0,0,1,2.74,1.3,5.68,5.68,0,0,0,3.1.87l1.88,9.09-1.88,15.15.87,1.88-.87,3.32L133.8,218l-.86,8.22h-1.88l-2.6-.72v.72h-1.87v1.59H124a10.6,10.6,0,0,1-1.44-3.61,22,22,0,0,1-.44-4.62v-9.09l.87-6.06-3.61-31.75-14.29-3.46L91.52,171.7V175a6.73,6.73,0,0,0,5,1.88h6.27a56.19,56.19,0,0,1,6.35.36,51.82,51.82,0,0,0,5.78.36v6.06l-.87,1.59h-9.81v1.58H97.87L95.13,186l-3.61.86-.87,6.79h20.64l7.22-.87v7.51l-5.34.86-3.61-.86-2.74.86-7.22-.86L87,202.87,80,223.8a6.21,6.21,0,0,1-1.87,1.37,18.11,18.11,0,0,1-2.24.72,2.68,2.68,0,0,0-1.8,1.16A5.87,5.87,0,0,0,73.62,229.72Zm36.8-95.83-.86-.72-.87,1.59h.87Zm19.77-.72-.86-.87-.87.87.87.72Z" transform="translate(-31.34 -28.69)"/><path d="M185.9,227.55v-1.73l-2.74-.72a4.78,4.78,0,0,0-1.37-3,6.21,6.21,0,0,1-1.52-3.75,27.13,27.13,0,0,0-.5-3.83,19.84,19.84,0,0,1-.37-4.26q3.61-2.59,6.93-4.76c2.21-1.44,4.64-2.89,7.29-4.33s5.1-2.91,7.36-4.4a41.59,41.59,0,0,1,7.87-4l.86,4.19a24.61,24.61,0,0,0-1.15,3.46,16,16,0,0,0-.44,3.9c0,1.44,0,2.86.08,4.25s.07,2.63.07,3.68h-1.88l-1.59,4.19h-1.73l-2.45,3.61-1.73.14v1.59c-1.16.58-2.19,1.15-3.11,1.73l-3,2a12.71,12.71,0,0,1-3.39,1.59A12.53,12.53,0,0,1,185.9,227.55Zm5-53.39a20.29,20.29,0,0,1-3.1-3.25,10,10,0,0,1-1.81-3.46,15.36,15.36,0,0,1-.43-3.76,39.54,39.54,0,0,0-.29-4.54c1.16-.58,2.31-1.2,3.47-1.88a35.53,35.53,0,0,1,3.53-1.8,22,22,0,0,1,3.54-1.23,23.69,23.69,0,0,1,4.33-.58l6.2,1.59,1.88,6.93-.87,4.18,1.73-.14v3.46Zm8.08-33-6.2-2.6L191,128.41l9.67-3.61,2.45.87,3.75-.87,3.32,1.59L213.9,134,212.16,140Zm9.82,54.26-.87-.87-.87.87.87.87Zm11,29.15v-.72l-1.87-3.18L224,210.23l3.32-3.32,6.2-7.79,1.3-15.3,3.46-1,4.33,4.19,1,4.18a53.91,53.91,0,0,0-4.18,8.52q-1.59,4.19-3.68,8.59a45,45,0,0,1-5.12,8.29,66.11,66.11,0,0,1-6.5,7.22Zm16.45-54.4-5.33-2.6-1-6.79,1.88-3.31,2.6-.87,2.6-1.73,2.45-3.61,5.34-4.91-.29-6.06h-2.74l-16.31,7.22-1-6.06,4.19-6.07a15.87,15.87,0,0,0,3.46-2,6.7,6.7,0,0,1,3.9-1.38,8.48,8.48,0,0,0,3.89-1,9.46,9.46,0,0,1,4.48-.93v-3.32A14.67,14.67,0,0,1,242.9,125a2.82,2.82,0,0,1-.57-1.66V119l2.74-3.32,6.06-.29c.67,1.16,1.3,2.31,1.87,3.46a7.68,7.68,0,0,1,.87,3.47c0,1.15,0,2.43.07,3.82s.08,2.62.08,3.68c3.55-.09,7.23-.17,11-.22a67.3,67.3,0,0,1,10.89.73q5.19.79,10.1,2a74.74,74.74,0,0,0,10.25,1.8v2.6L293.56,142h-7.8q-4.47-.72-8.37-1.51c-2.59-.53-5.22-1-7.86-1.52s-5.41-.86-8.3-1.15a67.58,67.58,0,0,0-8.8-.29,24.16,24.16,0,0,1-.44,4.76,18.77,18.77,0,0,0-.28,4.69,4,4,0,0,1-1.59,3.76,4.18,4.18,0,0,0-1.73,3.67h5.34l14-1.87-.29-2.6H265.7l-.86-5.63,3.32-2,5.48,1.88q.87,2.46,1.73,4.47a24.25,24.25,0,0,0,2.31,4.12,8.06,8.06,0,0,1,1.45,4.69c0,1.73,0,3.41.14,5.05l-3.46,3.32-2.6-1.45-1.73-2.59-8.81-.58a69.23,69.23,0,0,1-7,1.37,18.93,18.93,0,0,0-6.63,2.24l-6.21,3.46A14.67,14.67,0,0,1,236.26,170.12Zm18.62,46.32a5.88,5.88,0,0,0-2.38-1.23,2.4,2.4,0,0,1-1.8-1.66q-.44-1.29-.87-2.52a8.94,8.94,0,0,1-.43-3l1.3-15.3-1.88-10.1.87-1.59h3.6v1.59l2.6.87v1.73a2.37,2.37,0,0,1,1.8.14,1.38,1.38,0,0,1,.94,1.3,1.76,1.76,0,0,0,.44,1.3,9.12,9.12,0,0,0,1.58,1.15v6.93a19.19,19.19,0,0,0-.72,5.41,40.48,40.48,0,0,1-.36,5.56,11.87,11.87,0,0,1-1.73,4.76C256.92,213.26,255.94,214.8,254.88,216.44Zm58,15q-4.33-.87-9.17-2.17a39,39,0,0,1-8.87-3.53q-4-2.24-8.45-4.26a49.61,49.61,0,0,1-7.86-4.47,28.55,28.55,0,0,1-4.11-7.29c-.92-2.45-1.81-5-2.67-7.51a27.25,27.25,0,0,1-1.37-8.51c0-3.13-.17-6.08-.37-8.88l3.47-3.31a5.53,5.53,0,0,1,1.3,2.09,3.81,3.81,0,0,0,1.73,2,2.53,2.53,0,0,1,1.37,2c.05.82.07,1.8.07,3l-.87,5.91,3.61,5.92c1.93,1.16,3.92,2.29,6,3.39a25.16,25.16,0,0,0,6.21,2.38,62.93,62.93,0,0,0,6.49,1.16,41.23,41.23,0,0,0,6.86.29,9.37,9.37,0,0,1,3.68-.87,7.07,7.07,0,0,0,3.39-.94c1.15-.62,2.14-1.2,3-1.73a30.88,30.88,0,0,1,2.95-1.66l3.76,9.81h1.73l1.15,7.65-1.58,3.18-4.48,1.73-.86,2.74Z" transform="translate(-31.34 -28.69)"/><path d="M331.22,221.35l-3.17-3-1.73-9.39,1.73-3.46h2.88a4.76,4.76,0,0,0,2.53-.58,12.25,12.25,0,0,0,1.88-1.44,3.16,3.16,0,0,1,2.23-.87v-1.15l7.07-4.76,1.16-.43v1.58l-1.88.72a54,54,0,0,0,.36,6.07,7.15,7.15,0,0,1-1.59,5.55q-1.94,2.39-3.53,4.69a14,14,0,0,0-2.17,5.34ZM340,187.43a21.24,21.24,0,0,0-2.46-1.3,6.25,6.25,0,0,0-2.52-.57h-5.7V184.4h1.15a1.26,1.26,0,0,1,.79-1.73c.82-.38,1.23-.87,1.23-1.44v-3.76l-.72-4.76,5.77-1.15a3.88,3.88,0,0,0,2.53,1.15,5.65,5.65,0,0,1,2.52.65,9.47,9.47,0,0,1,2.24,1.52c.62.57,1.37,1.25,2.24,2,.48.38.93.77,1.37,1.15a1.88,1.88,0,0,1,.65,1.45v3.75c-.49.77-.94,1.46-1.37,2.09a3,3,0,0,1-2.24,1.15,20.69,20.69,0,0,1-2.89.22A5.29,5.29,0,0,0,340,187.43Zm34.49-40.84-4.62-6.49-4.48-.58a12.7,12.7,0,0,1-4,1.73,18.84,18.84,0,0,1-4.77.58,14.85,14.85,0,0,0-4.4.58,15.47,15.47,0,0,1-4.47.57l-2.74-1.15-1.74-4.62,1.3-6.49h1.16v-1.16h1.3l.72-2.88c1.73-.39,3.29-.77,4.69-1.16a40.44,40.44,0,0,0,4.4-1.51,12.63,12.63,0,0,1,4.83-.94,8.15,8.15,0,0,0,4.41-1.16l5.05-4.61h1.3v-1.16h7.07l4.47,4.19v1.15h3.18l19.62-1.15v-1.16l-.72-1.87,3.9-5.2,4.33-1.3,4,2.46,2.45,6.35a75.16,75.16,0,0,0,8.8.93,57.12,57.12,0,0,1,8.95,1.16c3,.62,5.85,1.32,8.59,2.09a52.16,52.16,0,0,1,7.86,2.89l.72,2.88-2,5.92-4.33.58q-3.89-.59-7.28-1.23c-2.27-.43-4.69-.84-7.29-1.23s-5.15-.65-7.65-.79-5-.22-7.5-.22l-3.32,6.93-2,1.73-5.49,1.16-.72-1.74-5.77-1.15v-1.73l2.45-2.31v-2.89H393.57l-6.35,1.59-1.45,4.76h-1.3v2a3.16,3.16,0,0,1-.57,1.74,6.64,6.64,0,0,0-.87,1.8,2.3,2.3,0,0,1-1,1.37ZM361.1,232.31V231l-5.78-.57-1.87-8.66h-4.33v-1.16l5.05-2.88,3.75-38c-.39-1.15-.82-2.31-1.3-3.46a28.85,28.85,0,0,0-1.59-3.25,7,7,0,0,1-.86-3.53v-3.75a3,3,0,0,0,.43-1.81V161.6a4.72,4.72,0,0,1,.36-1.95,3.77,3.77,0,0,1,1.66-1.51l2-.44v-1.87h3l7.8,1.87a4.87,4.87,0,0,1,2.45,4.26,21.79,21.79,0,0,0,.65,5.27,21.79,21.79,0,0,1,.65,5.27v5.55l-3.75,30.31.43,9.38-1.16,7.5.73,2.17-2.6,3.6h-4.48v1.3ZM396,216.58l-5.77-2.88a4,4,0,0,1-1.16-3V200.13a6.6,6.6,0,0,1,4.4-1.59,19.3,19.3,0,0,0,4.77-.57,16.18,16.18,0,0,0,4.18-1.73,8.48,8.48,0,0,1,4.4-1.16,30.75,30.75,0,0,0,.94-4,23.77,23.77,0,0,0,.36-4v-7.86l-4.47-2.31c-1.25.38-2.41.77-3.47,1.15A26.75,26.75,0,0,0,397,179.5c-1.11.57-2.17,1.15-3.18,1.73A8.75,8.75,0,0,0,391,184l-2.46,1.59-3.31,1.87L379,184v-7.65l1.73-4a16.21,16.21,0,0,1,5.85-1.59,16.8,16.8,0,0,0,5.7-1.44,22.74,22.74,0,0,1,5.34-1.73,11.75,11.75,0,0,0,5.48-2.89l.58-1.88,2.45-2.3v-2.31l-.58-1.59,2.6-3,7.51-1.16a3.27,3.27,0,0,0,1.73.44h1.87a1.26,1.26,0,0,1,1.23.94,1.57,1.57,0,0,0,1.66.93l3,10.54q6.49.57,12.56,1.15a87.59,87.59,0,0,1,12,2q6,1.45,11.68,2.89a90.6,90.6,0,0,0,12.2,2.16v2.31l-3.9,5.78-6.49,1.29-38.1-6.49a6,6,0,0,0-2.74,4.33c-.2,1.73-.41,3.49-.65,5.27a52.77,52.77,0,0,1-1,5.34,22.94,22.94,0,0,0-.65,5.41l2,2.31,30.45,4.18,3.17,9.38a10.44,10.44,0,0,1-2.52,1.73,20.25,20.25,0,0,0-2.53,1.45,4.46,4.46,0,0,1-3.24.57,23.06,23.06,0,0,0-3.25-.28,51,51,0,0,0-7.87-1.74,77.31,77.31,0,0,1-7.93-1.51,33,33,0,0,0-7.94-.94h-8.59l-11.4,1.88L398.62,216Z" transform="translate(-31.34 -28.69)"/><path d="M51.64,68.39v-.33A3.76,3.76,0,0,1,51,65.91V58.64l.33-1.83-.7-10.4h-1l-.7.93-1.74.89v.61l-4.82,3.38h-.71l-2.72,3.09a5,5,0,0,0-1.38.89,5.19,5.19,0,0,1-1.38.92,7.1,7.1,0,0,1-1.38.44,5.63,5.63,0,0,0-1.34.47l-1.78-.94-.33-1.22a21.26,21.26,0,0,1,2.11-.42,4.87,4.87,0,0,0,1.87-.63A11.36,11.36,0,0,0,37,53.58a2.82,2.82,0,0,1,1.89-.75l.66-.94,5.86-5.16h.66v-.61l3.14-3.37-3.47-.28a8.57,8.57,0,0,1-2.23.91,15.34,15.34,0,0,0-2.23.75,8,8,0,0,0-2.06,1.36,2.61,2.61,0,0,1-2.39.63V42.75l1-1.27h.66v-.61q1.41-.27,2.76-.42a9.31,9.31,0,0,0,2.56-.61,16.89,16.89,0,0,1,2.6-.77,8.26,8.26,0,0,0,2.44-.91l.33-1.22-.66-1.83a2.82,2.82,0,0,0,.33-1.36V32.23A1.52,1.52,0,0,1,49.43,31,3.65,3.65,0,0,0,50.28,30l2.39-.33,2.44,8.54c1.34,0,2.59.05,3.75.16s2.36.16,3.63.16a10.86,10.86,0,0,1,3.61.61,18.73,18.73,0,0,0,3.44.89v.61h-.7l-1.36,1.27-3.09.89-9.28-.89v1.83l1.36,2.11h.65a4.29,4.29,0,0,0,1.57,2.46c.8.61,1.6,1.22,2.42,1.82a13.34,13.34,0,0,0,2.6,1.53,19,19,0,0,1,2.74,1.5l8.25,1.5L78.17,54l.7.61a2.77,2.77,0,0,0-.37,1.29A1.41,1.41,0,0,1,78,57a6.32,6.32,0,0,0-.84.92c-.22.29-.46.65-.71,1.05-.72.41-1.42.77-2.11,1.08a5.29,5.29,0,0,1-2.22.47H67.15l-.7-.33v-.61l-1.73-.61-5.16-4.59v-.61l-1.74-.89-.32-.94-1-.28L53.7,49.45l-.33,11.3.7,4.59H53.7l-.33,1.74h-.7v1.31Z" transform="translate(-31.34 -28.69)"/><path d="M81.5,68.76l-.85-4.5,1.13-2.39,9.51-4.54.57-8.63-1.41-2.48-2.11,1.22v-.8h-.61l-.28-4.13c.37-1.09.86-1.71,1.45-1.85A9.52,9.52,0,0,0,90.71,40c.61-.28,1.2-.55,1.78-.8s1.18-.53,1.8-.84l.33-4.55L94,30.61h.65v-.85l2.91-.42.94.42L99,32.25l-.84,6.14a28.49,28.49,0,0,1,3.56.23c1.19.16,2.34.36,3.45.61a22.19,22.19,0,0,1,3.25,1,31.1,31.1,0,0,1,3.1,1.43l.32,1.64a1.91,1.91,0,0,1-.91.63,3.46,3.46,0,0,1-1.17.22h-2.42l-2.62-.43v.89l.61,2.82-1.83,8.2c1.78.59,3.62,1.23,5.51,1.9s3.73,1.42,5.51,2.25a26,26,0,0,0,5.65,1.87,29,29,0,0,0,6,.64V66L124,67.5v.8h-1.17l-5.34-1.18V66l-3-.84-.57-1.22a10.75,10.75,0,0,1-3.61-1.64,14.17,14.17,0,0,0-3.7-1.83c-1.28-.4-2.56-.76-3.84-1.05a9.24,9.24,0,0,0-4,0,7.59,7.59,0,0,1-2.72.47,21.33,21.33,0,0,0-2.95.21,9.27,9.27,0,0,0-2.72.8,20.63,20.63,0,0,1-2.67,1v.43L84.17,66h-.61L83,68.3Zm18.42-14A5.12,5.12,0,0,0,101,52.33a19.58,19.58,0,0,1,.42-2.43,19.13,19.13,0,0,0,.42-2.65c.09-1,.14-2,.14-3.09l-.28-1.22H95.79l-3.61,1.22v1.21L94.86,47l.61,5.4-.61,4.12h2.39Z" transform="translate(-31.34 -28.69)"/><path d="M149.23,62.76v-.84h-.8l-1.07.56c.15-.37.28-.69.37-1a3.53,3.53,0,0,1,.56-.94,1.73,1.73,0,0,0,.43-1.07v-1.1l-1.13-1.36h-2.16a13.18,13.18,0,0,1-3.25.68,9.22,9.22,0,0,0-3,.68,24.91,24.91,0,0,1-2.84,1,8.4,8.4,0,0,1-3.39.11V59h-.57c-.15-.56-.33-1.12-.51-1.67a9.33,9.33,0,0,1-.42-1.75,12.07,12.07,0,0,1-.15-1.9V51.89l1.36-8.67h-2.15a.85.85,0,0,1-.82-.54.86.86,0,0,0-.82-.54v-.56h-.52V40.22l1.6-.52v-.56l3.56-.52V36.3a3.8,3.8,0,0,1,.12-1.07,5.92,5.92,0,0,1,.39-1h.57L136,31.83l.79-.28a1.16,1.16,0,0,1,.68.68,3.8,3.8,0,0,1,.12,1.07v2.32l-.24,2.16h.8l1.64-.8v-.56h.52v-.23h1.92l.8.23V37h.56v1.08a17.9,17.9,0,0,1-1.78,1.48l-1.9,1.36a9.58,9.58,0,0,1-2,1.1,14.84,14.84,0,0,1-2.16.66,7.34,7.34,0,0,1-1,2.46,7.15,7.15,0,0,0-.93,2.32,11.85,11.85,0,0,0-.26,2.57,13.32,13.32,0,0,1-.28,2.68l.28.28-.28,1.36.79,1.36,2.44.56,2.72-.56c.91-.19,1.81-.37,2.72-.54s1.86-.31,2.86-.4a24.86,24.86,0,0,0,2.81-.42l3.56,1.36c.16.37.33.74.52,1.1A2.55,2.55,0,0,1,152,58v2.55l-.8,1.08v.28h-.28v-.28h-.56l-.8,1.12Zm-5.16,4.32V66.8l.29-.52h.28v.28Zm5.16-5.44-.28-.23-.23.23.23.28Zm.84,0-.28-.23-.28.23.28.28Zm-.28.28-.28-.28v.84Zm.52-.51-.24-.29-.28.29.28.23Z" transform="translate(-31.34 -28.69)"/><path d="M172.15,65.72a32.53,32.53,0,0,1,2.65-4c1-1.27,1.92-2.54,2.81-3.82a21.75,21.75,0,0,0,2.21-4,9.43,9.43,0,0,0,.58-4.73c-.18-.78-.38-1.61-.58-2.49a22.81,22.81,0,0,0-.75-2.5,13.7,13.7,0,0,0-1.17-2.37,11.71,11.71,0,0,0-1.62-2.06,7,7,0,0,0-1.31-1,8.29,8.29,0,0,0-1.65-.75,5.17,5.17,0,0,0-1.75-.31h-1.76a17.41,17.41,0,0,1-1.17,6.5q-1.17,2.93-2.51,5.88c-.89,2-1.88,3.88-2.95,5.74s-2.11,3.77-3.07,5.74h-.61V61l-.89-.33-.29-2.06h-.6v-.28H158V57.8h-.32l-.57-2.07h-.33V54h-.28V52.78h-.28v-1.5l-.61-.56.33-1.17h-.61l-.28-1.79A7.49,7.49,0,0,1,156,46c.39-.59.73-1.18,1-1.75a6.94,6.94,0,0,1,1.17-1.62c.49-.5,1-1,1.62-1.6l2.95-1.78v-.61q1.17-.55,2.34-1.14a11.19,11.19,0,0,1,2.51-.9,22.51,22.51,0,0,1,2.67-.44A27.86,27.86,0,0,1,173,36a5.53,5.53,0,0,0,1.34.42c.48.09,1,.2,1.45.31a3.65,3.65,0,0,1,1.32.58,10.75,10.75,0,0,0,1.19.75c.78,1.16,1.52,2.27,2.2,3.35a22.42,22.42,0,0,1,1.78,3.4,9.83,9.83,0,0,1,.75,3.85,15.39,15.39,0,0,0,.57,4.12,2.6,2.6,0,0,0-.73,1.31,2.69,2.69,0,0,1-.75,1.34,7.35,7.35,0,0,0-1,1.31,8.4,8.4,0,0,1-1,1.34,10,10,0,0,0-2.2,1.45c-.69.59-1.38,1.24-2.06,1.92s-1.33,1.38-1.93,2.06S172.75,64.94,172.15,65.72ZM157.72,52.5v-.61l-.57-3.23h-.61v3.51h.28v.89h.9ZM161,55.12a21.74,21.74,0,0,0,2.53-3.68,42.59,42.59,0,0,0,1.9-4,40,40,0,0,0,1.48-4.12,10.43,10.43,0,0,0,.28-4.41h-.57a8.59,8.59,0,0,0-2.67,1.6c-.78.68-1.56,1.42-2.34,2.2a25.17,25.17,0,0,0-2.2,2.51l-1.93,2.5v3l.61,2.34h.57l.89,1.78,1.17.57Zm-2.06,0,.33-.28-1.79-1.78v.61l1.18,1.74Zm-.28,3.24-.29-.28-.28.28.28.28Z" transform="translate(-31.34 -28.69)"/><path d="M209.14,69.56l-.61-.28a6.34,6.34,0,0,0-.68-1.27,4,4,0,0,1-.61-1.35c-.11-.47-.21-1-.31-1.46s-.17-1-.23-1.59l.33-1.88-.38-1.26.28-.61-.65-5.77.23-2.39-5.9-.33-3.05.47-2.81-.23-3.61-8.72h-1.32v-.84l.24-.47h.51l0-.61c1.15-.44,2.34-.85,3.56-1.22a30.71,30.71,0,0,1,3.91-.92l4-.67c1.29-.22,2.58-.4,3.86-.52l.28-1.31-1.12-3,.23-.47h.28v-.42l-.32-2.3.56-.28.23-.8,3.47-.09,1.41.37v.89l.84.24.89,3.19a1.07,1.07,0,0,0-.56,1c0,.36,0,.72,0,1.07v2A26.9,26.9,0,0,1,216,38a34.22,34.22,0,0,0,3.84.36c1.32,0,2.58.1,3.8.16a5.13,5.13,0,0,1,3.24,1.36l.65,1.5a6.42,6.42,0,0,0-.28,2.16,4.5,4.5,0,0,1-.37,2c-.29.65-.61,1.28-1,1.9a4.17,4.17,0,0,0-.54,2.11h.56v.61l-.75.85h.28v.42l-2,.23v.47h-.33v.24H222L220.62,52v-.65l-3.33,0v-.23H217V51h-.61v.42h-.23V51h.51l0-.37h-1.08l-.84.61-.8-.19-3.1.47v2.2l.52,7.17-.37.66.46,2.53-.37,1.69.37.94-1.36,2.2h-.46a.64.64,0,0,0-.31.09c-.11.06-.16.13-.16.21Zm-3-21.09.29-.61-.38-.85.33-1.92-.38-.65.24-4.5h-2.53l-8.68,2.25v.42l1.13.89v.42h.56L198,47.76l1.74.66a5.1,5.1,0,0,0,1.94.31l2.09,0h2.15Zm-1.07,2.86-.29-.24-.23.42h.23Zm15.18-3.28,1.27-3.8-1.74-3.66-7.64-.75a2,2,0,0,0-1,1.81,17.87,17.87,0,0,1-.1,2.22A19.53,19.53,0,0,0,211,46c0,.72,0,1.42.09,2.11l8.95.14ZM212,51l.19-.19-.8-.19.09.38.24.19Zm7.55.09-.24-.14-.28.42h.28Zm5.11.38-.33-.24-.28.24.28.19Z" transform="translate(-31.34 -28.69)"/><path d="M252,65.72a32.53,32.53,0,0,1,2.65-4q1.47-1.9,2.81-3.82a21.75,21.75,0,0,0,2.21-4,9.54,9.54,0,0,0,.58-4.73c-.19-.78-.38-1.61-.58-2.49a22.81,22.81,0,0,0-.75-2.5,13.08,13.08,0,0,0-1.18-2.37,11.22,11.22,0,0,0-1.61-2.06,6.77,6.77,0,0,0-1.32-1,8.2,8.2,0,0,0-1.64-.75,5.21,5.21,0,0,0-1.75-.31h-1.76a17.41,17.41,0,0,1-1.17,6.5c-.79,2-1.62,3.91-2.51,5.88a63.44,63.44,0,0,1-3,5.74c-1.07,1.86-2.1,3.77-3.07,5.74h-.61V61l-.89-.33-.28-2.06h-.61v-.28h.33V57.8h-.33L237,55.73h-.33V54h-.28V52.78h-.28v-1.5l-.61-.56.33-1.17h-.61l-.28-1.79a7.49,7.49,0,0,1,.87-1.78c.39-.59.73-1.18,1-1.75A6.41,6.41,0,0,1,238,42.61c.48-.5,1-1,1.62-1.6l2.95-1.78v-.61q1.17-.55,2.34-1.14a11,11,0,0,1,2.51-.9,22.51,22.51,0,0,1,2.67-.44,27.71,27.71,0,0,1,2.79-.14,5.53,5.53,0,0,0,1.34.42c.48.09,1,.2,1.45.31a3.53,3.53,0,0,1,1.31.58,10.87,10.87,0,0,0,1.2.75c.78,1.16,1.51,2.27,2.2,3.35a22.42,22.42,0,0,1,1.78,3.4,9.83,9.83,0,0,1,.75,3.85,15.39,15.39,0,0,0,.57,4.12,2.6,2.6,0,0,0-.73,1.31,2.69,2.69,0,0,1-.75,1.34,6.92,6.92,0,0,0-1,1.31,9,9,0,0,1-1,1.34,9.74,9.74,0,0,0-2.2,1.45c-.69.59-1.38,1.24-2.07,1.92s-1.32,1.38-1.92,2.06S252.57,64.94,252,65.72ZM237.54,52.5v-.61L237,48.66h-.61v3.51h.28v.89h.89Zm3.24,2.62a21.74,21.74,0,0,0,2.53-3.68,42.59,42.59,0,0,0,1.9-4,37.65,37.65,0,0,0,1.47-4.12A10.43,10.43,0,0,0,247,39h-.57a8.59,8.59,0,0,0-2.67,1.6c-.78.68-1.56,1.42-2.34,2.2a26.61,26.61,0,0,0-2.21,2.51l-1.92,2.5v3l.61,2.34h.56l.89,1.78,1.18.57Zm-2.06,0,.32-.28-1.78-1.78v.61l1.17,1.74Zm-.29,3.24-.28-.28-.28.28.28.28Z" transform="translate(-31.34 -28.69)"/><path d="M278.42,69.75l-2.06-2-.29-2.48a4.06,4.06,0,0,0,.94-2.7,24.19,24.19,0,0,1,.19-3.09,27.43,27.43,0,0,0,.19-3.21V53.16l-.38-.85h-.65l-.71.85a6.39,6.39,0,0,0-1.71,1.45,5.17,5.17,0,0,1-1.87,1.4,5.52,5.52,0,0,0-1.9,1.41,2.54,2.54,0,0,1-2.06.84l-1.64-.6-1-2.54.29-.51c.9-.56,1.87-1.13,2.9-1.69a29.2,29.2,0,0,0,2.95-1.83,31.16,31.16,0,0,0,2.58-2,15.28,15.28,0,0,0,2.21-2.37H277l3.52-4.5h.61l1-2.86,1-.23,2.48,1.08.61,1.69c-.68.56-1.43,1.17-2.22,1.85a18.91,18.91,0,0,0-2.07,2c-.57.66-1.14,1.35-1.68,2.08a3.78,3.78,0,0,0-.82,2.28l1.31.51.75,4.83a6.21,6.21,0,0,0-.75,3c0,1.12-.05,2.21-.14,3.26a20.94,20.94,0,0,1-.52,3.07,7.23,7.23,0,0,0,0,3.18l.42.85h-.42l-.33.89ZM274.29,44.2l-.7-.28a4.46,4.46,0,0,1-.47-1.12,6.2,6.2,0,0,1-.14-1.41V38.53l-1.78-.23V36.89l2.06-1.69,13-2.53.33-1.17L286,29.58l.28-.57,1.78-.32,2.35,1.17.75,3.09c1.78.16,3.65.24,5.62.24a33.64,33.64,0,0,1,5.49.42q2.54.42,5.11,1a26.46,26.46,0,0,1,5.06,1.71l.66,3-1.69,2.86-1.45.28-2.35-.6-1-2.54h-1.36v-.51h1.36l.28-2.3c-1.09-.15-2.33-.33-3.7-.54s-2.7-.39-4-.56a29.82,29.82,0,0,0-3.93-.26h-4.08l-2.06.52-5.49-.24-6.94,1.69V38.3l.71,3.93-.71,1.69Zm29.16,22.13-1.34-.52a7,7,0,0,0-1.54-.4,13.52,13.52,0,0,0-1.71-.11h-1.6l-4.78.56-2.34-1.17L289.72,63l.42-4.5-1-5.06h-.75l-.71-3.66a2,2,0,0,1,1.08-.68c.44-.11.88-.2,1.34-.28a2.54,2.54,0,0,0,1.19-.54c.35-.28.75-.62,1.22-1l1.08-1.64h-1.78l-3.71.8-.75-3,.75-1.13h1v-.56a12.07,12.07,0,0,0,3.18-.42,13.25,13.25,0,0,1,3.47-.42h7.41l2.67,1.08.42,2.29h-.42l-.33.85H304.2l-6.52-.61v.89l.61,1.68L298,48.09h2.43a15.63,15.63,0,0,1,2.44.17c.69.11,1.36.25,2,.42a7.85,7.85,0,0,1,2,.87l.75,3.37a7.77,7.77,0,0,0-.89,3.21c-.09,1.24-.19,2.41-.3,3.52s-.24,2.22-.38,3.35a11.05,11.05,0,0,1-.82,3.09ZM303.17,56V52.64l.28-2L298,50.39l-6.52,1.41v.51l1,2.81h1.36l5.16-.51,3.14.51V56l.7.33Zm-1,6a1.64,1.64,0,0,0,.7-1.17v-1.1a4.24,4.24,0,0,1,.16-1.1,4,4,0,0,0,.17-1.13l-6.24-.28-3.7,1.12-.75,1.41h-.7v.84h0V61h1a.92.92,0,0,0,.89,1,14.33,14.33,0,0,0,1.92.12h2.06a3.56,3.56,0,0,1,1.64.32l.43-.32.61.32Zm1-4.78v-.56h-.75v.56l.42.28Z" transform="translate(-31.34 -28.69)"/></svg>