<?xml version="1.0" encoding="utf-8"?>
<!-- Generator: Adobe Illustrator 24.0.2, SVG Export Plug-In . SVG Version: 6.00 Build 0)  -->
<svg version="1.1" id="レイヤー_1" xmlns="http://www.w3.org/2000/svg" xmlns:xlink="http://www.w3.org/1999/xlink" x="0px"
	 y="0px" viewBox="0 0 442.9 375.7" style="enable-background:new 0 0 442.9 375.7;" xml:space="preserve">
<style type="text/css">
	.st0{fill:#0F0E0A;}
</style>
<title>menu_logo</title>
<path class="st0" d="M58.1,287c0.4,0.3,0.7,0.6,1,1c-0.5,0.8-1.1,1.5-1.9,2.1c-1,0.6-1.4-0.3-1-1C56.7,288.4,57.4,287.6,58.1,287z"
	/>
<g>
	<path class="st0" d="M213.7,343.9c35.2,1.1,70.3,0.6,104.9-7.4c1.2-0.4,2.3-0.8,3.4-1.4c3.1-2.7,7.1-2.1,10.8-2.9
		c36.3-10.2,67.2-27.3,81.8-64.9c1.1-2.8,1.5-7.4,6.2-5.3c4.5,2,3.8,5.8,1.8,9.5c-17,30.2-39.7,53.4-74,63.8
		c-21.9,6.6-44.4,11.1-67.2,13.6c-8.3,3.5-17.1,3-25.8,2.7l-0.6-0.2l-0.6,0.3c-11.9,3.4-23.9-0.4-35.9,0.7
		c-16.7,1.2-33.4,2.3-49.8-2c-9-1.3-18.2-0.8-27.1-3.1c-6.6-3.2,0.2-6.3,0.1-9.4h6c4,0.4,8.3-0.5,12,1.7l0.4,0.4l0.5-0.2
		c4,1.9,8.7-2,12.6,1.4l0.4,0.3l0.4-0.2C187.2,341.7,200.4,342.5,213.7,343.9z"/>
	<path class="st0" d="M141.6,337.9c2.3,3.2-3.1,6.3-0.1,9.4c-21.2-1.5-41.6-6.7-61.3-14.4c-3.2-1.2-6.3-2.5-9.4-3.8
		c-1.5-0.8-2.7-2.2-4.4-2.8c-2.5-2-5.1-4-7.6-6.1c-0.4-0.6-0.9-1-1.5-1.4c-1.1-0.5,0.3-5.1-2.9-1.8c-7.8-4.9-13.1-12.2-18.1-19.6
		c-1.5-2.2-3.2-4.9-0.9-7.5c2.1-2.4,5.1-2,7.7-1.2c3.4,1,6.4,2.9,8.8,5.5c24.3,25.2,54.6,37.8,88.7,42.7
		C140.9,337.1,141.2,337.6,141.6,337.9z"/>
	<path class="st0" d="M384.8,76.5c16.1,19.8,29.9,41,38.1,65.4c0.9,2.6,3.7,6.3,0.2,7.9c-3.9,1.8-5.4-2.8-6.6-5.5
		c-2.9-6.6-4.9-13.6-7.9-20.2c-10-21.8-22.9-41.4-43.2-55.2c-2.7-1.2-5.8-1.7-7.4-4.6l-4.4-3.4c-1.6,0.2-2.2-1.3-3.2-2.2l-15.1-9.2
		c0.3-3.9,2.7-2.3,4.7-1.8c15.1,5.2,27.6,14.6,39.9,24.4C382.6,72.6,384.6,73.6,384.8,76.5z"/>
	<path class="st0" d="M51.5,100.6c-3.5,8.1-10.6,13.9-14,22.2c-0.6,2.3-0.7,4.8-3.1,6.2l0,0c0,3.8-1.7,7.2-3,10.7
		c-2.9,11.5-6.9,22.9-4.3,35.2c0.1,1,0.1,2,0.1,3c0.3,3.2-0.8,5.5-4.3,5.7c-3.8,0.2-4.4-2.5-4.6-5.5c-1.6-20.3,3.8-39.1,12.4-57.2
		c4-8.2,8.8-16.1,14.4-23.4c2.1-0.9,3.7-2.6,4.5-4.7l1.1-1.4c2-1.1,3.4-0.7,4.3,1.4C55.4,96,52.1,97.7,51.5,100.6z"/>
	<path class="st0" d="M103.9,258.2c18.7-3.2,32-16.4,47-26.3c4.8-3.1,8.7-7.5,14.3-9.5c3.1,3,0.7,5.4-1.1,7.6
		c-2.9,3.3-5.7,6.8-8.3,10.4c-3,4.2-3.8,8.4-1.7,13.2c-0.7,4.6-4.6,5.1-8,6.1c-0.4,0.1-0.8,0.1-1.2,0.1c-1.9-0.7-3.8-1.9-4.4-3.8
		c-2-7.3-5.5-5.5-10-2.3c-3.5,2.5-6.7,6-11.6,6.1c-10.3,3.8-20.4,8.6-31.6,3.3c-1.4-1.3-3.1-2.6-1.7-4.8c2.1-3.2,5.3-0.4,7.9-1.2
		C96.9,258.4,100.5,257,103.9,258.2z"/>
	<path class="st0" d="M340.1,47.8c-1.8,0.1-3.7-0.2-4.7,1.8c-1.1-0.1-2.4-0.1-3-1.3c-2.2-3-5.4-3.6-8.8-3.7l-1.5,0.2
		c-2.1-0.7-4.6-0.5-6.1-2.7c-1.9-0.4-4.1,0.1-5.5-1.9c-4.1-1.1-9.1,1.2-12.4-3.1c-22.3-5.4-45.1-6.9-67.8-9c-3.7-1.9-7.7,0.4-11.4-1
		c-1.6-0.7-4.4-0.2-3.4-3.4c8.5-0.9,17.1-0.9,25.6,0.1c9-1,17.7,2.3,26.6,1.7c1.8,1.6,4.4-0.6,6.2,1.2l4.4,0.7
		c8.4,0.4,17-0.6,24.2,5.3C315,37.6,328.4,40.8,340.1,47.8z"/>
	<path class="st0" d="M360.9,242.3c1.8-2.2,4.1-4.6-1.3-5c-2-10.1-1-11.2,9.8-10.4c2.1,0.6,3.9,1.4,3.7,4c-1.4,1.5-4.4,2.4-2.9,5.3
		c1.5,3,4.4,5,7.7,5.4c9.7,1.4,19.5-0.3,28.2-4.8c3.8-1.9,7.2-5.1,12.4-5.7c-0.5,5.4-5.4,6.1-8,8.2c-10.8,8.4-23,14.1-37.4,11.5
		C367.9,249.9,363.1,247.9,360.9,242.3z"/>
	<path class="st0" d="M174.6,244.9c2.8-4.8,4.8-9.6,2.6-15.4c-1.4-3.6-3.7-8,1.6-10.2c5.8-2.4,5.7,3.5,7.7,6.4
		c4.8,6.4,16.2,8,24.6,3.4c1.9-1.1,3.6-2.5,5.5-3.8c1.4-1.1,2.6-0.9,3.5,0.6c0.1,0.7,0,1.4-0.3,2c-2.4,2-3.5,5.1-3,8.2
		c-3.1,7,1.3,11.1,5.9,15.1c2.1,3.5,0.5,5.1-3,5.7c-7-4.1-13.6-8.6-12.1-18.3c0.6-3.6-1.9-3-3.7-2.5c-6.1,1.9-12.4,1.3-18.6,1.6
		C181.1,239.2,181.3,247.1,174.6,244.9z"/>
	<path class="st0" d="M39.3,276.5c-4.5,1.5-9.9,5.7-13.4,0.6s0.7-10.2,4.3-14.3c1.6-1.8,4-3,4.6-5.6c2-4.1,3.4-8.7,8.8-9.6
		c4.4,3.6,9.1-1.6,13.5,0.5c1,3.6-0.9,6.3-2.9,9c-2.9,1.5-7.3,2.1-3.8,7.1c0.1,0.7,0,1.4-0.4,2l-0.7,1.3C48,272.6,44,275,39.3,276.5
		z"/>
	<path class="st0" d="M219.7,256.9c1.5-1.6,3.6-3,3-5.7c12.1,3,24.9,1.7,36.2-3.6c5.6-2.6,11-5.7,16.5-8.6c2.6,2.6,6.4,4.9,2.8,9.4
		c-1-4.2-2-6.1-6.7-2.3c-12,9.5-25.8,14.5-41.4,13.9C226.4,259.9,222.8,259.4,219.7,256.9z"/>
	<path class="st0" d="M102.5,49.7c14.1-9.3,30.3-13.1,46-18.4c4.1-1.4,8.4-2,12.6-2.9c3.6,0.5,8.4-3.7,10.5,2.6
		c-22.7,4.1-44.7,11.8-65,22.7C103.7,53.9,102.3,52.7,102.5,49.7z"/>
	<path class="st0" d="M174.6,244.9c3.7-0.2,5-3.3,6.6-5.8c1.2-1.8,1.9-3.3,4.1-1.4c0.2,1.7-0.1,3.4-0.8,5
		c-5.1,10.6-23,20.3-34.6,18.8c-1.5-0.1-2.9-0.8-3.9-1.9c1.5-3.1,5.4-3.1,7.4-5.5C162.1,254.8,168.7,250.6,174.6,244.9z"/>
	<path class="st0" d="M92.1,257.9c-0.8,2.5-9.2-1.9-4.8,5.3c-9.8-1.6-13.8-10-19.7-16.4c-0.3-0.6-0.6-1.3-0.9-2
		c-0.8-2.4-4.1-4.4-1.9-7.1c2-2.6,4.9-0.7,7.4-0.2c1.4,0.5,2.6,1.7,3,3.1c4.2,5.7,8.3,11.5,14.9,15
		C91.2,255.9,91.9,256.8,92.1,257.9z"/>
	<path class="st0" d="M72.7,238.7l-7.2-0.7c-0.7,3.5,5.2,5,2.2,8.7c-3.8-2.7-7.3-2.3-10.5,1.1c-2.8,1.6-6.5,1-9.1,2.4
		c-3.8,2-3.2-1.2-4.3-2.6c-0.4-0.2-0.6-0.6-0.5-1s0.2-0.5,0.3-0.5l0.5,0.2c3.2-0.5,5.4-2.4,7.1-5.1c5-3,5.2-9.4,9.1-13.2
		c2.8-1.6,5.1-1.4,6.4,2C69.1,232.7,73.2,234.1,72.7,238.7z"/>
	<path class="st0" d="M241,23.7c-8.6,1-17.4-1.6-25.9,1.5c0.4-0.9,0,1.4-0.5,0.5s-1.4-0.3-0.5,0.1c1.6,0.7,3.5-0.2,5.1,0.6
		c3.5,1.4,7.8-2.2,10.9,1.6C212,27.6,194,27.8,176,29.7c-1-0.9-2-1.8-2-3.3C196.3,22.7,218.5,20.7,241,23.7z"/>
	<path class="st0" d="M223,219.4c2.8-2.8,6.2-5,9.9-6.4c3.4-1.5,7.4-3.6,10.1,0.4c3.1,4.6,4.3,9.8,0.4,14.8c-1.4,1.9-3.4,2-5.4,1.7
		c-1.9-0.4-3.2-2.3-2.8-4.2l0,0c0-0.1,0-0.2,0.1-0.2c1.9-7.1-2.3-3.6-4.9-3C227.5,222.3,224.7,222.2,223,219.4z"/>
	<path class="st0" d="M50.2,208.6c-5.7,2.2,0.9,5-0.4,7.4c-9.2-1.7-18.2-3.5-22.6-13.3c0.9-5.6,4-7.1,9-4.7
		C40.1,202.4,44.9,206,50.2,208.6z"/>
	<path class="st0" d="M54.3,94.5c-0.1-2.3-1.6-3-3.6-3.2c3.7-5.9,8.8-10.5,14.1-14.8c2.4-1.3,3.9-3.9,6.8-4.4
		c1.7-0.1,3.2,0.1,4.3,1.6C72,81.2,64.4,85.5,59.4,92.1c-1.5,2.1-3.1,4.1-4.9,6c-1.1-0.8-1.2-2.4-0.4-3.4l0,0
		C54.2,94.6,54.2,94.5,54.3,94.5z"/>
	<path class="st0" d="M75.9,73.7l-5.1-0.3c-0.8-0.8-0.8-2.1,0-3l0,0l0,0c1.2-2.3,3.3-3.1,5.7-3.1c1.9-1.4,4.3-2.2,4.2-5.2
		c0.6-1.9,1.7-3.1,3.9-2.5c1.7,1.5,2.7,3.7,2.6,6c0,1.2-0.6,2.2-1.5,2.9C81.3,68,79.8,73.2,75.9,73.7z"/>
	<path class="st0" d="M96.7,60.1c-0.2,0.4-0.4,0.8-0.6,1.2c-1.7,0.6-3.4,1.1-4.4,2.9c-1.3,2.5-3.1,3.7-5.8,2L84.4,60
		c0.1-1,0.9-1.2,1.7-1.5l0,0c1.8-2.4,4.1-4,7.3-3.6C95.1,56,96.4,57.9,96.7,60.1z"/>
	<path class="st0" d="M50,264.5c-0.8-0.8-1.6-1.8-2.3-2.7c-0.9-1.3-2.8-2.4-1.6-4.4c1.1-2,3-0.6,4.6-0.6l3.7,0.1
		c-0.5,1.5-1,3-1.5,4.4C51.5,262.1,52.7,265,50,264.5z"/>
	<path class="st0" d="M93.4,55.6c1.7-0.1,3-1.5,3-3.2l3-1.6c2,1.4,3.6,3.1,2.9,5.9l0.2,0.6c-3-1.3-3.3,3-5.8,2.8
		C94.8,59.5,93.4,57.7,93.4,55.6z"/>
	<path class="st0" d="M223,219.4c2.6,0.7,5.3,0.9,7.3,3c-1.8,3-6.2,2.6-7.7,6c-1.7,1-3,1-2.8-1.5l0,0c0.4-2.7,2-4.9,3.1-7.3
		L223,219.4z"/>
	<path class="st0" d="M174,26.5c1.3,0.6,2.1,1.9,2,3.2c-1.2,1.1-2.9,1.6-4.5,1.3c-2.6-4.2-7.2-1-10.5-2.6
		C165.2,26.3,169.7,26.8,174,26.5z"/>
	<path class="st0" d="M219.7,226.9c0.6,1,1.7,1.6,2.8,1.5c-1,3.2-4,5.1-5.8,7.7C211,230.9,216.7,229.3,219.7,226.9z"/>
	<path class="st0" d="M102.3,56.7c-0.9-2-3.2-3.3-2.9-5.9c0.5-1.9,2-0.8,3.1-1l4.1,4C105.7,55.6,103.9,56,102.3,56.7z"/>
	<path class="st0" d="M45.2,244.8c2-0.1,3.2-1.6,4.3-3l1.6-0.3c-0.4,4.4-1.4,8-7.1,5.1L45.2,244.8z"/>
	<path class="st0" d="M222.8,219.5c1.6,3.6-1.5,5.1-3.1,7.3c-0.7-1.2-1.9-1.5-3.1-1.6C217.9,222.6,220.2,220.9,222.8,219.5z"/>
	<path class="st0" d="M323.5,44.5c4.2-1.7,7.4-1.1,8.8,3.7L323.5,44.5z"/>
	<path class="st0" d="M70.8,70.4v3c-2,0.9-3.3,3.3-5.9,3L70.8,70.4z"/>
	<path class="st0" d="M367,199.5l1.6,1.8c-0.9,2-2.5,3.5-4.4,4.5L367,199.5z"/>
	<path class="st0" d="M54.2,317.1c5.6-4.7,2.4,2.9,4.5,3.2C56.6,320,55.5,318.5,54.2,317.1z"/>
	<path class="st0" d="M54.3,94.5l0.2,3.6l-3,2.6C50.1,97.5,52.9,96.3,54.3,94.5z"/>
	<path class="st0" d="M79.8,62.6c0.5,0,0.9-0.1,1.4-0.2c0.2,3.3-1.4,4.9-4.6,4.8C76.4,64.9,78.8,64.3,79.8,62.6z"/>
	<path class="st0" d="M49.6,92.7c0.1,3.1-1.4,4.7-4.5,4.8C46.6,95.9,48.1,94.3,49.6,92.7z"/>
	<path class="st0" d="M99.7,332.6c-3.1-0.1-6-1.5-8-3.9C94.8,328.8,97.7,330.3,99.7,332.6z"/>
	<path class="st0" d="M138.5,341.8l-5.4,3c-0.1-0.4-0.4-0.9-0.4-1.3C133.4,339.9,136.3,341.9,138.5,341.8z"/>
	<path class="st0" d="M59.3,307.1c0.7,0.5,1.4,0.9,1.6,1.4c0.3,0.7,0,1.4-0.7,1.7c-0.2,0.1-0.5,0.1-0.7,0.1
		c-0.6-0.2-1.1-0.7-1.3-1.3C58,308.4,58.8,307.8,59.3,307.1z"/>
	<path class="st0" d="M133.2,339.1c2.3-1.2,3.8-1.2,5.4-0.3C137.2,340.2,135.7,339.6,133.2,339.1z"/>
	<path class="st0" d="M127.9,163.5c-9.5,0-16.6,5.7-24.1,10.4c-9.7,5.1-18,12.5-23,21.6c-7.3,13.1-16.3,18-30.5,13.2
		c-1.4-0.6-3-1-3.5,0.8c-0.8,2.9,1,4.9,3.1,6.6c1,0.1,2,0.2,2.9,0.3c12.9,1.1,12.9,1.1,7.5,11.9c2.1,1.2,4.4,1.5,6.6,2
		c3.6-0.8,2.6-4.4,4-6.5c1-6.8,6.7-7.6,11.8-9c13.5-3.5,26.8-7.4,39.3-13.6c5.1-0.7,8.9-4.5,13.7-5.9c2-0.9,4.3-1.4,5.7-3.4
		c0.8-1.2,1.6-2.4,3.2-2.6c3.3-1,3.6-4,4.2-6.6C150,166.5,142.3,159.4,127.9,163.5z M135.8,187.7c-3.8,2.3-8,3.9-12,6
		c-2,1-5.2,0.9-5.1,4.4c-0.9-0.4-2.1-1.3-2.5-1c-8.4,5-18.5,4.8-27.2,8.7c-3,0.1-2.4-1.6-1.7-3.3c7.3-9.4,14.9-18.6,25.7-24.3
		c4.6-1.9,8.6-4.9,13.6-5.8l0,0c1-0.2,1.9-0.5,2.9-0.6c4.3-0.5,9.4-2.7,11.6,3.2C143,180.5,140.4,184.9,135.8,187.7L135.8,187.7z"/>
	<path class="st0" d="M361.2,235.8c-1.5-0.6-2.7-2.4-4.7-1.5L351,236c-5.8,0.3-10.6,4.1-16.3,4.8c-3.1,0.4-7.2,2.1-8.7-1.4
		c-1.2-2.7,3-3.9,4.9-5.7c1.3-1.2,2.8-2.1,4-3.3c3.2-3.1,4.5-6.5,1.4-10.5c-1.9-2.3-4.7-3.5-7.1-5.2c-2.1-1.4-3.5-4.9-6.8-3
		c-1.2-1.5-3.1-2.2-5-1.7c-16.4,0.4-27.5,9.7-36.5,22.2c-1.7,2.4-3.6,4.7-5.6,6.8c-1.2,3.8,4.6,5.4,2.8,9.4
		c3.7,7.8,8.9,9.7,16.5,6.6c6.2-2.5,10.3-8.3,16.7-10.4c4.4,7,10.9,8.2,18.1,6.1c8.7-2.5,17.3-5.5,25.9-8.5c2-0.7,3.6-1.5,5.4,0
		C366.4,240.5,364.5,238.2,361.2,235.8z M319.7,228.3c-4.1,4.7-8.6,9.1-12.9,13.6l-9,6.3c-2.5,0.7-5.1,1.7-7.3-0.6
		c-3.8-11.5,10.4-23,21.3-28c2.2-1,4.7-1.3,7.1-1.9C324,220.8,322.9,224.7,319.7,228.3z"/>
	<path class="st0" d="M290.6,247.5c2.3,0.9,4.9,1.1,7.3,0.6C295.2,250.8,292.6,252.6,290.6,247.5z"/>
	<path class="st0" d="M288.5,247.1c-0.5,0.6-1.2,1.2-1.8,1.6c-0.6,0.1-1.2-0.2-1.6-0.7c-0.3-1.2,0.9-1.5,1.7-1.9
		C287.5,245.8,288.1,245.7,288.5,247.1z"/>
	<path class="st0" d="M145.7,247.7c0.4,1.7,0.9,3.4,1.5,5.6C143.3,252.4,145,250,145.7,247.7z"/>
	<path class="st0" d="M219.3,26.4h-7.1c0.6-1.7,2-0.9,3-1.2C216.6,25.4,218.3,24.8,219.3,26.4z"/>
	<path class="st0" d="M61.7,235.2c0.4,0.3,0.8,0.6,1.1,1c-0.6,1-1.2,2-1.9,3c-0.2-0.4-0.6-1-0.5-1.3C60.8,237,61.2,236.1,61.7,235.2
		z"/>
	<path class="st0" d="M385.4,213.4l4.4-4.6c0.2,2.3-1.3,3.6-3,4.7C386.2,213.5,385.8,213.4,385.4,213.4z"/>
	<path class="st0" d="M415.1,169.7l-0.1-0.1c-0.7-3.7-2.9-5.6-7.1-5.2c-9.4,0.9-15.8,6.9-22,13.2c-0.3,0.6-0.5,1.2-0.7,1.8
		c-0.2-0.8-0.2-1.6-0.1-2.3c-5.8,4.7-10.7,10.3-14.6,16.7l0,0c-1.5,1.7-3.9,2.9-3.5,5.8c-0.5,1.3-0.2,1.8,0.6,1.8
		c-1.5,1.2-2.3,3-3.4,4.4l-3.1,9c-3.9,6-1.2,13.5-4.6,19.6l3.1,3c-0.7-6.3,0.1-11.1,8.5-8.4c0.6,0.2,1.4-0.4,2.1-0.6l-0.1-1.9l0,0
		c-2.4,0.7-3.7,0.1-3.3-2.7c0.4-7.1,4.1-13.1,6.9-19.4l4-6.6l12-14.6c4.9-3.8,9.4-8,15.1-10.7c5.3,0.9,1.7,5,2.8,7.5l0,0
		c-0.5,3.2-1,6.4-3.1,9.2V189c-2.4,3.6-4.8,7.1-7.1,10.7l-7.7,9c-1.2,1.8-2.6,3.3-4.4,4.6L370.5,226c0.1,0.6,0.4,1.1,0.8,1.5
		l2.9,2.6c7-4.5,14-8.9,19.1-15.6l0,0c3.4-2.7,6.5-5.7,8.6-9.6c0.1-0.3,0.2-0.6,0.3-0.9c0,0.2,0.1,0.5,0.1,0.7
		c3.2-3.8,7.4-7,8.3-12.3l-0.4,0.1l0.3-0.3c-0.3-4,3.6-6.5,3.8-10.3l0,0l0.7-1.8C415.9,176.7,416.6,173.2,415.1,169.7z"/>
</g>
</svg>
