<?xml version="1.0" encoding="utf-8"?>
<!-- Generator: Adobe Illustrator 24.0.2, SVG Export Plug-In . SVG Version: 6.00 Build 0)  -->
<svg version="1.1" id="レイヤー_1" xmlns="http://www.w3.org/2000/svg" xmlns:xlink="http://www.w3.org/1999/xlink" x="0px"
	 y="0px" viewBox="0 0 799.5 365.6" style="enable-background:new 0 0 799.5 365.6;" xml:space="preserve">
<style type="text/css">
	.st0{fill:#FFFFFF;}
</style>
<title>logo_side</title>
<path class="st0" d="M195.6,340.7c35.2,1.1,70.3,0.6,104.9-7.4c1.2-0.4,2.3-0.8,3.4-1.4c3.1-2.7,7.1-2.1,10.8-2.9
	c36.3-10.2,67.2-27.3,81.8-64.9c1.1-2.8,1.5-7.4,6.2-5.3c4.5,2,3.8,5.8,1.8,9.5c-17,30.2-39.7,53.4-74,63.8
	c-21.9,6.6-44.4,11.1-67.2,13.6c-8.3,3.5-17.1,3-25.8,2.7l-0.6-0.2l-0.6,0.3c-11.9,3.3-24-0.4-35.9,0.7c-16.7,1.2-33.4,2.3-49.8-2
	c-9-1.3-18.2-0.8-27.1-3.1c-6.6-3.2,0.2-6.3,0.1-9.4h5.9c4,0.4,8.3-0.5,12,1.8l0.4,0.4l0.5-0.2c4,1.8,8.7-2,12.6,1.4l0.4,0.3
	l0.4-0.2C169.1,338.5,182.4,339.3,195.6,340.7z"/>
<path class="st0" d="M123.5,334.7c2.3,3.2-3.1,6.3-0.1,9.4c-21.2-1.5-41.6-6.7-61.3-14.4c-3.2-1.2-6.3-2.5-9.4-3.8
	c-1.5-0.8-2.7-2.2-4.4-2.7l-7.6-6.1c-0.4-0.6-0.9-1.1-1.5-1.4c-1.1-0.5,0.3-5.1-2.9-1.8c-7.8-4.9-13.1-12.2-18.1-19.6
	c-1.5-2.2-3.2-4.8-0.9-7.5c2.1-2.4,5.1-2,7.7-1.2c3.4,1,6.4,2.9,8.8,5.5c24.3,25.2,54.6,37.8,88.7,42.7
	C122.8,333.8,123.2,334.4,123.5,334.7z"/>
<path class="st0" d="M768.8,122.8c-0.1,4.9-0.1,9.9-0.4,14.8c-0.4,5.2,1.2,9,6.5,10.6c2,1.7,4.3,1.4,6.7,1.2c3.1-0.2,5.1,1,3.7,4.7
	c-10,0.2-20,0.4-30,0.5c-1.5,0-3.8,0.6-4.4-1.8c-0.6-2.4,1.4-3.3,3-3.7c5.3-1.4,5.8-5.4,5.8-9.9c0-14.5,0-29,0-43.5
	c0-4.9-0.1-10-7.4-9.1c-1.1,0.3-2.3-0.4-2.5-1.6c0-0.2-0.1-0.3-0.1-0.5c0.2-1.3,1.3-2.2,2.6-2.2c7.3-0.1,14.5-0.1,21.7,0
	c1-0.1,2,0.6,2.1,1.7c0,0,0,0,0,0c0.3,1.2-0.3,2.4-1.5,2.7c-0.1,0-0.2,0-0.3,0.1c-1.7,0.4-3.3,1-4.1,2.9c-2.7,4.3,2,9.5-1.6,13.6
	c0,2.5,0.1,5,0.1,7.5c1.3,1.5,1.1,3,0,4.5c0,1,0,2,0,3C770,119.6,770,121.6,768.8,122.8z"/>
<path class="st0" d="M740,183.1c1.6,4.3,3.5,8.5,2.9,13.4c-3.3,0-4.3-2.5-6-4.2c-1.7-1.7-3.4-3.7-5.5-5c-6.7-4-11.6-1.7-12.9,5.8
	c-0.4,2.2-0.6,4.4-0.7,6.6c-0.2,9.2,1.4,10.4,10.5,7.4c2.8-1,3.1,1.6,4.2,2.9c1,4,1,8.3-0.1,12.3c-3.8-2.4-2.8-7.9-7.4-9.5
	c-4-1.4-6.2-2-6.3,3.1c0,2.3-0.4,4.5-0.5,6.7c-0.2,5.1-1.6,11.3,5,13.2c6.6,2,12.8,0.5,17.1-5.6c1.1-1.5,1.7-3.6,4.2-4.5
	c1.2,5.2-1.4,9.5-1.8,14.1c-13.3,3.8-26.4-0.6-40.2-0.8c9.4-2.9,8.8-10.5,8.9-17.3c0.1-9.5-0.3-19-0.5-28.5
	c-0.1-4.4-0.7-8.5-6.2-10.3H740z"/>
<path class="st0" d="M366.8,73.3c16.1,19.8,29.9,41,38.1,65.4c0.9,2.6,3.7,6.3,0.2,7.9c-3.9,1.8-5.4-2.8-6.6-5.5
	c-2.9-6.6-4.9-13.6-7.9-20.1c-10-21.8-22.9-41.4-43.2-55.1c-2.7-1.2-5.8-1.7-7.4-4.6l-4.4-3.4c-1.6,0.2-2.2-1.3-3.2-2.1l-15.1-9.2
	c0.3-3.9,2.7-2.3,4.7-1.8c15.1,5.2,27.6,14.6,39.9,24.4C364.6,69.4,366.6,70.4,366.8,73.3z"/>
<path class="st0" d="M577.9,34.1c0.3,4.2,0.5,8.4,0.8,12.5c0.3,4-0.8,8.6,4.1,11.2h-17.1c7.6-6.4,4.6-14.3,4.4-21.4
	c-0.1-3.4-3.7-4.3-7-3.9s-6.3,1-9.5,1.5c-2.2-2.4-6.3,0.4-8.2-2.9c-1-2,0.2-4.9-2.3-6.4c-1.1-7-3.7-13.6-4.4-20.7
	c5-0.1,10-0.2,14.9-0.2c1.2,0,2.7,0.1,2.9,1.7s-1,1.9-2.2,2.5c-7.4,3.9-3,10.4-3,15.6c0,4.7,4.5,4.8,8,4.3c3.8-0.6,10.1,2.8,11-2.8
	c1-6.5,2.7-14.3-4.4-19.3c0.9-2.5,3-1.8,4.5-1.8c4.3,0.1,10-2,12.6,1.6c2.1,2.9-5.7,3.1-5.3,7.3C576.1,20.1,574.9,27.1,577.9,34.1z"
	/>
<path class="st0" d="M33.4,97.4c-3.5,8.1-10.6,13.9-13.9,22.1c-0.6,2.3-0.7,4.8-3.1,6.2l0,0c0,3.8-1.7,7.2-3,10.7
	c-2.9,11.5-6.9,22.9-4.3,35.2c0.1,1,0.1,2,0.1,3c0.3,3.2-0.8,5.5-4.3,5.7c-3.8,0.2-4.4-2.5-4.6-5.5c-1.7-20.3,3.8-39.1,12.4-57.2
	c4-8.2,8.8-16,14.3-23.3c2.1-0.9,3.7-2.6,4.5-4.8l1.1-1.4c1.9-1.1,3.4-0.7,4.3,1.4C37.4,92.8,34.1,94.5,33.4,97.4z"/>
<path class="st0" d="M85.8,255c18.8-3.3,32-16.4,47-26.3c4.8-3.1,8.7-7.5,14.3-9.5c3.1,3,0.7,5.4-1.1,7.5c-2.9,3.3-5.7,6.8-8.3,10.4
	c-3,4.2-3.9,8.4-1.7,13.2c-0.7,4.6-4.6,5.1-8,6.1c-0.4,0.1-0.8,0.1-1.2,0.1c-1.9-0.7-3.8-1.9-4.4-3.8c-2-7.3-5.5-5.5-10-2.3
	c-3.5,2.5-6.8,6-11.6,6.1c-10.3,3.8-20.4,8.6-31.6,3.3c-1.4-1.3-3.1-2.6-1.7-4.8c2.1-3.2,5.3-0.4,7.9-1.2
	C78.8,255.1,82.5,253.8,85.8,255z"/>
<path class="st0" d="M490.5,9c-1.9-0.2-2.2,1.6-3.2,2.6c-1.6,0.7-2.2-0.4-2.9-1.5c-0.5-2.2,0-4.4,1.4-6.2c9-0.6,17.5-4.7,26.9-3.7
	c8.6,0.9,12.9,5.2,12.7,14.4c-2.1,3.1-2.8-0.1-3.5-1c-1.7-2.5-4.2-4.3-7-5.3c-5.4-1.8-7.9-0.6-7.8,5.6c0.2,11.5,0,22.9-0.1,34.4
	c0,3.4,0.5,5.8,4.8,5.6c2-0.1,3.1,1.4,2.8,3.6c-0.3,2.1-1.9,2.1-3.4,2c-4.2-0.1-8.5-0.2-12.7-0.6c-1.8-0.2-4.4,0.3-4.9-2.3
	c-0.5-2.8,2.4-2.6,4-3.4c0.6-0.4,1.2-0.9,1.7-1.4c0.7-6.9-1.8-14,1.4-20.7c0.8-3.5-1.8-7,0-10.5c-0.4-0.3-0.6-0.7-0.5-1
	c0.1-0.3,0.3-0.5,0.4-0.5c0-2.5,0-5,0-7.5C498,8.2,494,9.8,490.5,9z"/>
<path class="st0" d="M322.1,44.6c-1.8,0.1-3.6-0.2-4.7,1.8c-1.2-0.1-2.4-0.1-3-1.3c-2.2-3-5.4-3.6-8.9-3.7l-1.5,0.2
	c-2.1-0.7-4.6-0.5-6.1-2.6c-1.9-0.4-4.2,0.1-5.5-1.9c-4.1-1-9.1,1.2-12.4-3.1c-22.3-5.4-45.1-6.9-67.8-9c-3.6-1.9-7.7,0.4-11.4-1
	c-1.6-0.6-4.4-0.2-3.4-3.4c8.5-0.9,17.1-0.9,25.5,0.1c9-1,17.7,2.3,26.6,1.7c1.8,1.6,4.4-0.6,6.2,1.2l4.4,0.7
	c8.4,0.4,17-0.6,24.2,5.3C297,34.4,310.3,37.6,322.1,44.6z"/>
<path class="st0" d="M661.6,231.3l4.8,4.5c0.7,1.6-0.2,2.3-1.5,2.9c-6.7-0.7-9.7-6.1-13.5-10.5c-1-0.7-1.6-1.9-1.4-3
	c-1.3-10-4-20,1.2-30c5.7-11,14.7-15.5,26.9-12.7c0.2,0.1,0.5,0.4,0.7,0.3c9.7-3.6,8.7,4.1,10.1,9.4c0.8,2,2,4.1-1.5,4.7
	c-2.2-2-2.9-5.3-5.9-6.5c-3.2-1.1-6.6-1.6-9.1-4.1c-8.4,1-14.2,6.5-16,16c-1,5.1-1.9,10.3-0.4,15.5c0.7,3.2,1.6,6.3,2.8,9.3
	c-0.2,0.4,0,0.9,0.4,1.1C660.5,228.8,661.6,229.6,661.6,231.3z"/>
<path class="st0" d="M634.5,145.5l1.7,1.4c0.9,0.6,2.1,0.6,3,1.2c2.2,1.7,2.7,3.3-0.4,4.5c-1.8,0.7-3.8,0-5.6,0.6
	c-13.1-6.3-14.8-18.7-15.5-30.9c-1-18.7,4.5-31.8,21.2-39.4c1.6-0.7,3.3-0.9,5-0.6c1.1,1,1.2,2.7,0.2,3.9c-0.1,0.1-0.1,0.1-0.2,0.2
	c-6,0.5-10,4.1-12.5,9c-7.2,14.2-9.4,28.9-2.2,43.9C630.9,141.5,634.4,142.1,634.5,145.5z"/>
<path class="st0" d="M342.8,239.1c1.8-2.2,4.1-4.6-1.3-5c-2-10.1-1-11.2,9.8-10.4c2.1,0.5,3.9,1.4,3.7,4c-1.4,1.5-4.4,2.4-2.9,5.3
	c1.5,3,4.4,5,7.6,5.5c9.7,1.4,19.6-0.3,28.2-4.9c3.8-2,7.2-5,12.4-5.7c-0.5,5.4-5.4,6.1-8,8.2c-10.8,8.4-23,14.1-37.4,11.5
	C349.9,246.7,345,244.6,342.8,239.1z"/>
<path class="st0" d="M156.6,241.7c2.7-4.8,4.8-9.6,2.5-15.4c-1.4-3.6-3.7-8,1.6-10.2c5.8-2.4,5.7,3.5,7.7,6.4
	c4.8,6.4,16.2,8,24.6,3.4c1.9-1.2,3.7-2.4,5.5-3.8c1.4-1,2.6-0.9,3.5,0.6c0.1,0.7,0,1.4-0.3,2c-2.4,2-3.6,5.1-3,8.2
	c-3.1,7,1.3,11.1,5.9,15.1c2.1,3.5,0.5,5.1-3,5.7c-7-4.1-13.6-8.5-12.1-18.3c0.5-3.6-2-3-3.7-2.5c-6.1,1.9-12.4,1.3-18.6,1.6
	C163.1,236,163.2,243.9,156.6,241.7z"/>
<path class="st0" d="M556.5,183.4l-4.6,4.9c-1.6,9.2,1.5,18.8-2.7,27.7c-0.1,0.8-0.1,1.7-0.2,2.5c-1,6.7,4.9,10.8,6.3,16.6
	c3.5,3.2,7.7,2.3,11.8,1.9c1.7-0.9,3-1.1,3.1,1.4c-11,5.2-18.2,4-26.9-4.4c-1.5-1.1-2.5-2.5-1.7-4.5c0.5-1.4-0.9-2-1.3-3
	c-0.3-9.8,0.8-19.5,0.6-29.3c-0.1-3.9,0.8-8-2.3-11.3l-4.8-2.9l9.4-0.5C547.7,181.4,552.1,180.8,556.5,183.4z"/>
<path class="st0" d="M622.7,21.7c4.3,1.3,1.3,4.2,1.5,6.4c-1.7,4.3,0.6,9-1.3,13.3c-2.4-5.7-5.8-10-12.9-8.6c-3.3,2.7-0.2,6.7-2,9.7
	c2.3,4.1-2.8,8.9,1.4,12.8c2.4,1.7,5.5-0.5,7.8,1.5c-0.1,2.4-2,1.9-3.5,2.1c-4.7-0.2-9.5,0.3-14.2-0.6c-1.4,0.2-3.6,0.5-3.6-1.2
	c0.1-2.8,3.1-2.8,5.2-3.6c3.5-2.6,0.3-6.7,2.2-9.7c-1.5-9.1,0.1-18.3-0.3-27.4c-0.2-4.6,2-10.2-5.4-11.5c11,0,22-0.3,33,0.2
	c3.9,0.2,7.7,8.4,6.2,11.9c-1.1,2.6-3,0.2-4.5,0.5c-4.6-2.2-7.2-7.5-12.9-7.9c-3-0.2-5.8-1.1-8.7,0.4c-1.9,5.4-0.8,10.9-0.3,16.4
	c0.4,0.8,1,1.5,1.7,2.1c1.7,1.1,3.9,0.9,5.3-0.5C619.7,26.3,620.5,23.4,622.7,21.7z"/>
<path class="st0" d="M493.4,118.3c0.9-9,2.1-17.9,1.1-27c4.8-0.2,3.8,3.8,3.8,6.2c0,10.7,1.1,21.4-0.9,32c-1,5.1,0.8,10.4-0.8,15.6
	c1.7-0.9,3.4-2.6,5.7-1.2c0.6,0.5,1.2,1,1.6,1.6c3.1,6.2,13.7,7,20.6,1.5c3.2-2.5,5.6-6.1,9.6-7.7c3.4,5.3,2,10-1.7,14.5
	c-2.5,1.6-5.5,2.3-8.5,2.1c-10.7-0.1-21.4-0.1-32.1,0c-4,0-7.1-0.8-5.8-6c8.3-7.3,4-17.8,6.7-26.6
	C493.2,121.8,492.4,119.9,493.4,118.3z"/>
<path class="st0" d="M21.2,273.3c-4.5,1.5-9.9,5.7-13.4,0.5c-3.5-5.2,0.7-10.2,4.3-14.4c1.6-1.8,4-3,4.6-5.6
	c1.9-4.1,3.4-8.7,8.8-9.6c4.4,3.6,9.1-1.6,13.6,0.5c1,3.6-0.9,6.3-2.9,9c-2.9,1.5-7.3,2.1-3.9,7.1c0.1,0.7,0,1.4-0.4,2l-0.7,1.3
	C29.9,269.4,26,271.8,21.2,273.3z"/>
<path class="st0" d="M502.8,145.3c-5.4-2.2-5.9,4-9.3,5.5c3.1-18.6,3.2-37.2,3-55.8c0-1.6-0.4-3-2-3.6c-1.3-1.4-2-3.3-4.4-3.3
	c-1.9,0-4.6-0.2-4.3-2.7c0.3-2.8,3-1.5,4.8-1.6c1,0,1.9,0.1,2.9,0.2c1.6,1.6,3.1,1.5,4.5-0.1c2.1-1.2,4.3-0.6,6.5-0.2
	s5.9-1.2,6.5,1.6c0.9,3.8-4.4,1.8-5.6,4.2c-1.3,8.5-1.9,17.1-2,25.7C503.3,125.2,503.7,135.3,502.8,145.3z"/>
<path class="st0" d="M201.7,253.7c1.5-1.6,3.6-3,3-5.7c12.1,3,24.9,1.7,36.2-3.5c5.6-2.6,11-5.7,16.5-8.6c2.6,2.6,6.4,4.9,2.8,9.4
	c-1-4.2-2-6.1-6.7-2.3c-12,9.5-25.8,14.5-41.4,13.9C208.3,256.6,204.8,256.1,201.7,253.7z"/>
<path class="st0" d="M84.4,46.5c14.1-9.3,30.4-13.1,46-18.4c4.1-1.4,8.4-2,12.6-2.9c3.6,0.5,8.4-3.7,10.5,2.6
	c-22.7,4.1-44.7,11.8-65,22.7C85.7,50.7,84.3,49.4,84.4,46.5z"/>
<path class="st0" d="M156.6,241.7c3.7-0.2,5-3.3,6.6-5.8c1.2-1.8,1.9-3.3,4.1-1.4c0.2,1.7-0.1,3.4-0.8,5
	c-5.1,10.6-23,20.3-34.6,18.8c-1.5-0.1-2.9-0.8-3.9-1.9c1.5-3.1,5.4-3.1,7.4-5.5C144.1,251.6,150.7,247.4,156.6,241.7z"/>
<path class="st0" d="M74,254.6c-0.8,2.5-9.1-1.9-4.8,5.3c-9.8-1.6-13.8-10-19.6-16.4c-0.3-0.6-0.6-1.3-0.9-2c-0.8-2.4-4.1-4.4-2-7.1
	c2-2.6,4.9-0.7,7.4-0.2c1.4,0.5,2.6,1.7,3,3.1c4.2,5.7,8.3,11.5,14.9,15C73.1,252.6,73.9,253.5,74,254.6z"/>
<path class="st0" d="M54.6,235.5l-7.2-0.7c-0.7,3.5,5.2,5,2.2,8.7c-3.8-2.7-7.3-2.3-10.5,1.1c-2.9,1.7-6.5,1-9.1,2.4
	c-3.8,2-3.2-1.2-4.3-2.5c-0.4-0.3-0.6-0.6-0.5-1s0.2-0.5,0.3-0.5l0.5,0.2c3.2-0.5,5.4-2.4,7.1-5.1c5-3,5.2-9.3,9.1-13.1
	c2.8-1.6,5.1-1.4,6.4,2C51.1,229.5,55.1,230.8,54.6,235.5z"/>
<path class="st0" d="M223,20.5c-8.6,1-17.4-1.6-25.9,1.6c0.4-0.9,0,1.4-0.5,0.5s-1.4-0.3-0.5,0.1c1.6,0.7,3.5-0.2,5.1,0.6
	c3.5,1.4,7.8-2.2,10.9,1.6c-18.1-0.4-36.1-0.2-54.1,1.7c-1.1-0.9-2-1.8-2-3.3C178.2,19.5,200.5,17.5,223,20.5z"/>
<path class="st0" d="M204.9,216.2c2.8-2.8,6.2-5,9.8-6.4c3.4-1.5,7.4-3.6,10.1,0.4c3.1,4.6,4.3,9.8,0.4,14.8c-1.5,1.9-3.4,2-5.4,1.7
	c-2-0.4-3.2-2.3-2.8-4.2c0-0.1,0-0.2,0.1-0.2c1.9-7.1-2.3-3.6-4.9-3C209.4,219.1,206.6,218.9,204.9,216.2z"/>
<path class="st0" d="M32.1,205.4c-5.8,2.2,0.9,5-0.4,7.4c-9.1-1.7-18.2-3.5-22.6-13.3c0.9-5.5,4-7.1,9-4.7
	C22.1,199.2,26.8,202.8,32.1,205.4z"/>
<path class="st0" d="M767,289.8l3.6-4.5c1.9-0.1,2.3,1.4,2.7,2.8c0.4,2.2,0,4.5-1,6.5c-2.8,5.4-0.5,7.8,4.6,9
	c0.2,0.7,0.1,1.4-0.3,1.9c-1.5,2.5-4.6,3.4-7.2,2.2c-3.8-1.6-8.9,1.2-9.8,0.5c-6.1-4.7-13.3,1.5-19-2.7c-0.2-0.2-0.4-0.4-0.5-0.5
	c0.2-1,0.8-1.9,1.7-2.4c0.6-0.3,1.2-0.5,1.9-0.7c3.5-0.4,6.6-2.2,9.9-3.1c1.6-0.9,2-3.7,4.7-3.1c2,1.7-0.5,4.3,1.2,6.3
	C764.5,299.4,763.8,293.3,767,289.8z"/>
<path class="st0" d="M543.3,46.2l1-0.2c3.6-4.6-0.9-10.2,1.8-14.9c2,2.4,7.4-3.9,7.5,3l-1.5,1.5c-0.9,3-2.3,6-0.2,9
	c0.1,4.7,0.5,9.3,6.1,13.2h-19.1C543.6,54.8,543.9,50.7,543.3,46.2z"/>
<path class="st0" d="M496.6,299.1c0.1,1.5-1.1,4,1.7,4c3.5,0.1,6.9-1.5,9.1-4.2c1.4-1.6,1.9-4,2.8-6c1-0.6,2.1,0,3.1-0.2
	c0.7-0.3,1.5-0.5,2.3-0.6c0.5,0,1.1,0.3,1.5,0.6c0.7,3-1.5,4.5-3.4,6c-2.8,2.2-6.1,4.9-3.9,8.2c2.1,3,4.9-1.6,7.7-1.7
	c0.8,0.6,1.2,1.7,1,2.8c-0.2,0.7-0.8,1.1-1.4,1.2c-4.6,1.1-9.6,5-11.9-3.4c-0.8-2.7-3.5,1.8-5.6,0.8c-0.3,0.4-0.9,0.5-1.3,0.2
	c-0.1-0.1-0.2-0.1-0.2-0.2c-3-0.7-6-3.5-9,0c-1.6,0.7-2.9,0.5-3.7-1.2c-0.1-0.7,0-1.5,0.2-2.2c3-2.6,5.3-6.3,9.9-6.6
	C496.6,297.1,497.4,297.7,496.6,299.1z"/>
<path class="st0" d="M36.2,91.3c-0.1-2.3-1.6-3-3.6-3.2c3.7-5.9,8.8-10.5,14.1-14.8c2.4-1.3,3.9-3.9,6.8-4.4
	c1.7-0.1,3.2,0.1,4.2,1.6C53.9,78,46.3,82.3,41.3,88.8c-1.5,2.1-3.1,4.1-4.9,6c-1-0.9-1.2-2.4-0.3-3.5
	C36.1,91.4,36.2,91.3,36.2,91.3z"/>
<path class="st0" d="M585.4,186.1c-6.4,2.5-6.6,7.9-6.4,13.5c-1.6,8.1,0.5,16.4-1.1,24.6c-0.7,4.2-2.4,8.1-4.9,11.5
	c-2.5-0.1-2.3-1.5-1.4-3.1c0-2.9,1.8-5.1,3.2-7.4c0.9-11.5,1.5-23-0.4-34.5c-1.5-2-6-2.3-4.8-5.8s4.7-1.7,7.3-1.9
	c2.8-0.1,5.5-0.1,8.3,0.1c0.9,0.6,1.1,1.9,0.5,2.8C585.5,185.9,585.5,186,585.4,186.1z"/>
<path class="st0" d="M690.6,214.2c1.5,0.2,4.3-0.3,1.6,2.4c-1.8,1.8-5,2.1-5,5.5c-1.5,4.1,0.3,8.5-1.1,12.7c0.8,7.6-3.7,2.1-5.9,2.4
	c-2,0.7-3-0.3-3.8-1.9l0.7-2.6c0.6-1.2,1-2.5,2.4-3.2c2.7-1.9,0.3-5.3,2.1-7.4c0.3-4.5-3-4.4-6-4.7c-1.6-3,0.4-3.4,2.6-3.5
	C682.3,213.7,686.5,213.8,690.6,214.2z"/>
<path class="st0" d="M633.2,153.3c1.1-2.2,3.3-1.4,5.1-2c3.1-1.1-0.4-1.7-0.4-2.6c2.9-3.5,6,0,9-0.4c2.2,0.4,4.4-0.2,6-1.7
	c0.9-1.6,2.7-2.4,4.5-2c2,1.1,3.6,2.3,3.1,4.9C652.4,157.5,643,158.8,633.2,153.3z"/>
<path class="st0" d="M653,85c2.9,0.2,8.4,0.3,8.4,0.6c0.2,5.9,5.2,10,5.4,15.7c0.2,1-0.5,2-1.5,2.2c-2,0.5-3.4-0.6-4.4-2
	c-2.8-3.8-5.4-7.6-8.1-11.5C651.9,88.3,651.4,86.6,653,85z"/>
<path class="st0" d="M785.3,154.1c-0.4-2.4-1.2-4.5-4.2-3.5c-2.8,0.9-4.7-0.2-6.2-2.4c4,0.5,7.9-0.6,11.8-1.4c3.4-0.6,6.3-3,7.6-6.2
	c1-2.2,2.8-3.9,5.1-4.7c-1.2,6-1.7,11.4-3.6,16.3C793.7,157.4,788.8,153.5,785.3,154.1z"/>
<path class="st0" d="M613.8,58.2l3-1.3c1.1-1.8,3.3-0.3,4.5-1.6l3-1.7c1.9-2.5,4.4-4.5,7.2-6c1.3-0.4,2.1-3.3,3.3-1.8
	c2.3,3,0.2,6.6-0.3,9.8c-0.4,2.6-1.9,4.3-5.1,4.1c-5.2-0.3-10.3-0.2-15.5-0.3c-0.5-0.3-0.7-0.6-0.5-0.8S613.7,58.2,613.8,58.2z"/>
<path class="st0" d="M527.9,309.7c-1.9-9.9-6.8-1.8-10.4-1.8v-2.7c5.8-3.5,11.6-6.9,12.5-14.6c0.2-1.3,1.6-0.8,2.5-0.8
	c2,0.2,3.2-2,5.1-2c1.1,0.4,1.8,0.9,1,2.2c-1.5,4.2-7.4,5.1-7.7,10.2c-1.5,2.4-0.3,5-0.7,7.4C530,308.7,529.1,309.4,527.9,309.7z"/>
<path class="st0" d="M729.9,297.5l4.2-1.7c2.4,1.7-1.8,6.2,2.9,7c0.9,0.4,1.6,1.2,1.8,2.2c-3.3,2.6-6.4,7.1-10.6,0.9
	c-1.1-1.7-2.5,0.6-3.8,0.6c-2.5,0-4.9,2.8-7.5,0.1c0.2-0.9,0.8-1.7,1.7-2.2c1.1-0.5,2.6,0.1,3.5-1c1.6-2.2,4.9-0.5,6.4-2.9
	C728,299.3,728.7,297.9,729.9,297.5C729.9,297.5,729.9,297.5,729.9,297.5z"/>
<path class="st0" d="M57.8,70.4l-5.1-0.3c-0.8-0.8-0.8-2.2,0-3c0,0,0,0,0,0c1.2-2.3,3.3-3,5.7-3.1c1.8-1.4,4.3-2.2,4.2-5.1
	c0.6-1.9,1.7-3.1,3.9-2.5c1.7,1.5,2.7,3.7,2.6,6c0,1.2-0.6,2.2-1.5,2.9C63.2,64.8,61.8,70,57.8,70.4z"/>
<path class="st0" d="M660.4,149.6c-1-1.4-2-2.9-3-4.3c-0.8-1-1-2,0.3-2.8c4.6,0.1,4.6-4.4,6.7-6.8c0.9-1,1.5-2.9,3.4-1.6
	c1.3,0.9,2.1,2.1,0.9,3.8C665.9,141.8,665.2,147.2,660.4,149.6z"/>
<path class="st0" d="M704.5,294.5c1.4-3.4,3.3-4.6,5.5-0.8c0.8,1.5,1.3,2.6,3.1,2.1c1.4,0.7,2.4,1.6,1.3,3.3c-3.3,1.8-3.4,7.6-8.6,7
	c-2.3-2.7-0.8-5.8-1-8.7C704.4,296.4,704.4,295.5,704.5,294.5z"/>
<path class="st0" d="M78.7,56.8c-0.2,0.4-0.4,0.8-0.6,1.2c-1.7,0.6-3.4,1.1-4.4,2.9c-1.3,2.5-3.1,3.7-5.8,2
	c-0.5-2.1-1.1-4.1-1.6-6.2c0.1-1,0.9-1.2,1.7-1.5l0,0c1.8-2.4,4.1-4,7.3-3.6C77.1,52.8,78.3,54.7,78.7,56.8z"/>
<path class="st0" d="M715.9,92.8c-1.8-0.5-1.8-6.4-5.5-1.5c-1.8,2.4-3.1-1.4-4.9-1.5c-1-7.1,6-4.3,8.8-8
	C714.9,86,715.4,89.4,715.9,92.8z"/>
<path class="st0" d="M579.9,291.5c2.5-0.8,2.9,0.6,2.8,2.7c-0.2,3.4-0.2,6.9-0.3,10.3l-0.2,2c-3.2-0.1-0.3-8.3-6.3-4.7
	c-0.4-0.6-0.9-1.2-1.3-1.8C574.3,295.9,577.1,293.7,579.9,291.5z"/>
<path class="st0" d="M632.1,359c-1.1-4.4,0.9-9.2-1.8-13.4v-0.1c-1.4-1.2-5,0.7-4.4-3.2c6-3.6,8.6-1.5,8.1,5.1
	c-0.3,3.9,2.2,7.6,0.9,11.6c-0.6,0.8-1.6,0.9-2.4,0.4C632.3,359.3,632.2,359.2,632.1,359z"/>
<path class="st0" d="M577.9,34.1c-7.8-1-2-6.9-3.1-10.2c-1-3.1,0.6-7.6,3-10.9C577.8,20.1,577.8,27.1,577.9,34.1z"/>
<path class="st0" d="M657.4,305l1.9-1.8c3.6,1.3,6.5-1,9.8-1.5c1.3-0.2,3-2,3.8,0.1c1,2.4-1.7,2.8-2.9,3
	C665.8,305.3,661.7,311.5,657.4,305z"/>
<path class="st0" d="M676.4,235.4l3.8,1.9c-4.8,3.6-9.9,3.9-15.3,1.4l1.5-2.9C669.7,236.5,673.2,236.4,676.4,235.4z"/>
<path class="st0" d="M714.4,299l-1.3-3.3l1.7-2.8l0,0c2-3.4,3.9-3.3,5.7,0.1c-1.6,1.5-1.3,3.5-1.5,5.4c-1.2,2.1-0.6,4.3,0.1,6.4
	l-2.1,1.7c-0.3,0.1-0.7-0.1-0.8-0.4c0-0.1,0-0.1,0-0.2C714.1,304,716.9,300.8,714.4,299L714.4,299z"/>
<path class="st0" d="M574.5,190.6c3.5,3.5,1.7,8,1.6,11.9c-0.2,7.5,1.8,15.2-1.3,22.5L574.5,190.6z"/>
<path class="st0" d="M502.6,364.9c-0.3-0.2-1.7-0.9-1.6-1.2c1.2-4.8,1.9-9.5-0.7-14.2c0.4-0.4,1-0.8,1.5-1c0.8-0.3,1.8,0.2,2.1,1
	c0,0.1,0.1,0.3,0.1,0.4c0.7,4.3-0.5,8.8,2.4,12.8C506.9,363.5,505,365.1,502.6,364.9z"/>
<path class="st0" d="M591.1,354.2c-0.2,2.1-1.9,3.3-3,4.8c0,4.2,3,1.5,4.6,2l3.9-0.5c-0.8,1-0.2,2.8-1.9,3.3
	c-2.7,0.8-5.6,0.8-8.3-0.1c-2.3-0.8-3.4-1.9-1.7-4.3c1.7-2.4,3.4-5.3,5-7.9C591,352,591.8,352.8,591.1,354.2z"/>
<path class="st0" d="M701.1,299.5c0.2,3.7-3.6,5.3-4.6,8.3c-6.6,4.1-3.9-2-4.6-4.3c-0.4-0.6-0.7-1.3-0.7-2c1.4-2.8,2.6-1.5,3.8,0.2
	C697.8,303.2,698.4,298.5,701.1,299.5z"/>
<path class="st0" d="M592.7,345.6c-1.8-1.1-3.7-3.2-5,0.6c-0.4,1.1-1.2,2.4-2.7,1.5s-1.5-2.5-0.7-3.9c2.6-4.6,5.8-5.8,9.8-1.4
	C593.4,343.5,594,344.9,592.7,345.6z"/>
<path class="st0" d="M516,364.2c-3.2-4.8-0.5-10.2-1.9-15.2C519.8,353.6,516.4,359,516,364.2z"/>
<path class="st0" d="M31.9,261.3c-0.8-0.8-1.6-1.8-2.3-2.7c-0.9-1.3-2.8-2.4-1.6-4.4c1.1-2,3-0.6,4.6-0.5c1.2,0,2.4,0,3.6,0.1
	l-1.5,4.4C33.4,258.9,34.7,261.8,31.9,261.3z"/>
<path class="st0" d="M494.9,297.3c0.3-1.6,2.8-3.6,0-4.9c-3-1.4-5.2,1.1-7.6,2.5c0.8-7.2,6.2-5,10.5-5.1c2.8,3.5,2,6.5-1.2,9.2
	L494.9,297.3z"/>
<path class="st0" d="M75.3,52.4c1.7-0.1,3-1.5,3-3.2l2.9-1.6c2.1,1.4,3.6,3.1,2.9,5.9l0.2,0.6c-3-1.3-3.3,3.1-5.8,2.8
	C76.7,56.2,75.3,54.4,75.3,52.4z"/>
<path class="st0" d="M204.9,216.2c2.6,0.7,5.3,0.9,7.3,3c-1.8,3-6.2,2.6-7.7,6c-1.7,1-2.9,1-2.8-1.5l0,0c0.4-2.7,1.9-4.9,3.1-7.3
	L204.9,216.2z"/>
<path class="st0" d="M606.7,360.4c-5.3-3.8-3-8.8-2.1-13.5c2.2-0.6,2.6,1.1,3.2,2.6c0.3,3.4,1.3,6.8,0.7,10.3
	c-0.2,0.6-0.8,1-1.4,0.8C607,360.6,606.8,360.5,606.7,360.4z"/>
<path class="st0" d="M156,23.3c1.3,0.6,2.1,1.9,2,3.3c-1.2,1.1-2.9,1.6-4.5,1.4c-2.6-4.3-7.2-1-10.5-2.6
	C147.1,23.1,151.6,23.6,156,23.3z"/>
<path class="st0" d="M521.1,279.3l-1.9-1.7c0.8-3.2,1.5-6.4,6-4.3c0.3,3.2-0.8,6.1-1.9,9C520.4,282.9,521.8,280.3,521.1,279.3z"/>
<path class="st0" d="M201.7,223.6c0.6,1,1.7,1.6,2.8,1.5c-1,3.2-4,5.1-5.7,7.7C192.9,227.6,198.7,226.1,201.7,223.6z"/>
<path class="st0" d="M592.7,345.6l1.3-3.2c2.3,2,1.8,4.7,1.6,7.3c-1.7,1.3-2.2,3.8-4.5,4.4l-1.3-2.7
	C590.2,349.3,593.3,348.4,592.7,345.6z"/>
<path class="st0" d="M745.4,291.4c3.2,4.7-3.3,7.6-2.2,11.9h-1.5c-1-0.7-1.6-1.9-1.6-3.1c1.6-3.3,5.1-6.4,1.5-10.5
	C743.3,289.2,744.3,290.4,745.4,291.4z"/>
<path class="st0" d="M606.7,360.4l1.7-0.2c2.3-1.8,3.5-4.9,6.4-6.1c1.7,0.5,0.9,2.3,1.8,3.3l-0.3,2.9
	C611.2,364.7,610,364.7,606.7,360.4z"/>
<path class="st0" d="M577.9,224.1c0.2-8.2-1.7-16.5,1.1-24.6C578.9,207.8,580,216,577.9,224.1z"/>
<path class="st0" d="M653,85l-0.2,5c-2.9-1.5-5.5-3.6-8.9-3.5v-4.1l1.5,0c1.7,1.8,4.3-0.2,6.1,1.3L653,85z"/>
<path class="st0" d="M484.4,355.6c-2.5-1.3-3.8-2.9-1.4-5.5c1.8-3.3,4.7-2.4,7.5-2c1.5,0.7,2.2,1.8,1.5,3.4
	c-1.3,1.1-3.3,0.8-4.5,2.1C486.7,354.6,485.6,355.3,484.4,355.6z"/>
<path class="st0" d="M535.8,360.4c2.4,0.1,4.9,0.5,7.3-0.6c2.9-1.3,1.6,1.2,1.7,2.2c-3.6,2.6-7.2,3.5-10.9,0.2
	C533.5,360.7,534.2,360.1,535.8,360.4z"/>
<path class="st0" d="M535.8,360.4l-1.8,1.9c-4.6-4.2-3.3-8.2,0.2-12.3c0.9,0.1,1.6,0.7,1.8,1.6C533.9,354.5,533.5,357.4,535.8,360.4
	z"/>
<path class="st0" d="M84.2,53.4c-0.9-2-3.2-3.3-2.9-5.9c0.5-1.9,2-0.8,3.1-1l4.1,4C87.6,52.4,85.9,52.8,84.2,53.4z"/>
<path class="st0" d="M631.8,297.3l-0.1,4.5c-0.7,1-1.2,2.6-3,1.6l-4.3,1.4c-0.8-0.7-0.9-1.8-0.2-2.6c0.1-0.1,0.1-0.2,0.2-0.2
	C626.9,300.5,628.4,297.5,631.8,297.3z"/>
<path class="st0" d="M628.7,303.4l3-1.6c-0.2,4.3,4.5,1.9,5.7,4.2l1.7,0.2C634.5,309.3,630.8,309.5,628.7,303.4z"/>
<path class="st0" d="M690.6,214.2c-3.3,2-6.7-0.2-10,0.4c-2.1,0.4-4.7-0.5-5.1,2.8c-2.9-2.4-2.4-4.1,1.3-4.1
	C681.4,213.3,686,213.9,690.6,214.2z"/>
<path class="st0" d="M632.1,359h2.7c0.8,1.2,1.4,2.7,3.2,2.9c0.4,1.8-0.7,2.2-2.1,2.3c-2.5-0.1-5.1,0.3-7.6-0.4l-2.2-0.3
	C627.4,361,631.1,361.8,632.1,359z"/>
<path class="st0" d="M615.2,302.9c-0.4-0.7-0.8-1.5-1.3-2.2l4.4-3.5c1.3,0.1,2.6,0.3,3.3,1.6l-0.2,2.7c0.7,1.4-0.1,1.8-1.3,1.8
	C618.8,299.9,616.8,303.6,615.2,302.9z"/>
<path class="st0" d="M484.4,355.6c0.5-0.7,0.9-1.4,1.4-2.1c2.1-2,3.3-0.1,4.5,1.2c1.3,2.4,5.8,4,1.7,7.6c-1-0.2-1.8-0.7-2.5-1.5
	c-1.4-1.3-2.3-3.1-3.7-4.4L484.4,355.6z"/>
<path class="st0" d="M655.9,362.4c-1.8,2.9-4.2,3.8-6.8,1.7c-1.7-1.3-4-3.5,0.3-4.9C650.4,362.6,654.1,360.8,655.9,362.4z"/>
<path class="st0" d="M695,301.8c-1-0.1-1.9-1.7-2.9,0c-1.6,0.6-1.9-0.1-1.5-1.5c1.1-2.7,3.1-5,5.7-6.4
	C698,297.3,694.9,299.3,695,301.8z"/>
<path class="st0" d="M621.7,298.9c-1.3-0.2-2.7-0.1-3.3-1.6l6.9-5.8C624.5,294.3,625,297.7,621.7,298.9z"/>
<path class="st0" d="M490.8,360.5l1.4,1.7c-3.6,5.2-6.5,2.4-9.2-1c-0.4-0.5-0.5-2.1,1.1-1.7c0.7,0.3,1.3,0.7,1.8,1.2
	C487.5,360.3,489.2,360.2,490.8,360.5z"/>
<path class="st0" d="M616.6,357.4l-1.5-3.3c-2.5-3.4-4-6.8-1.4-10.9l1.3,0.7l1.5,1.5C617.2,349.5,617.6,353.5,616.6,357.4z"/>
<path class="st0" d="M27.2,241.6c2-0.1,3.2-1.6,4.3-3l1.6-0.3c-0.4,4.4-1.4,8-7.1,5.1L27.2,241.6z"/>
<path class="st0" d="M775,281.1c-1.6,2.3-0.9,5.5-3.2,7.5c-0.4-1.1-0.9-2.2-1.3-3.3c-0.8-2.7,1-4.4,2.4-6.3
	C774.6,278.7,775.4,279.3,775,281.1z"/>
<path class="st0" d="M204.8,216.3c1.6,3.5-1.5,5.1-3.1,7.3c-0.7-1.2-1.9-1.5-3.1-1.5C199.9,219.4,202.2,217.7,204.8,216.3z"/>
<path class="st0" d="M535.9,351.6l-1.8-1.6c3.4-2.7,6.5-3.3,8.9,1.2L535.9,351.6z"/>
<path class="st0" d="M551.8,362.5l1.7-2c1.7,1.7,3.9,1.3,6,1.3c1.7-0.7,1.9,0.2,1.7,1.5c-3.1,2.5-6.2,1.8-9.3,0.1
	C551.9,363.2,551.9,362.9,551.8,362.5z"/>
<path class="st0" d="M538.8,304.9c0-0.5,0.1-0.9,0.2-1.4l6.5-2.8c2,3.5-2.2,3.5-2.9,5.5l-2.4,0.4
	C539.4,306.4,538.8,305.8,538.8,304.9z"/>
<path class="st0" d="M305.5,41.3c4.2-1.7,7.4-1.1,8.9,3.7L305.5,41.3z"/>
<path class="st0" d="M613.8,58.2v1.3c-4.8,0.2-9.7,0.5-14.4-1.2L613.8,58.2z"/>
<path class="st0" d="M622.8,41.4c0.4-4.4-1.4-9.1,1.3-13.3C623.4,32.5,624.8,37.1,622.8,41.4z"/>
<path class="st0" d="M523.3,354.8c-0.3-0.3-1-0.8-0.9-1c0.5-2.6-4.6-1.5-3.1-4.6c0.5-0.5,1.1-0.8,1.8-0.7c2.3,0.3,3.9,2.3,3.8,4.5
	C524.4,353.6,524.3,354.6,523.3,354.8z"/>
<path class="st0" d="M620.1,303.3l1.3-1.8l2.9,0.4c0,0.9,0,1.9,0,2.8c-1.8,0.3-1,3.8-3.4,2.9C618.5,306.8,620.1,304.8,620.1,303.3z"
	/>
<path class="st0" d="M541.5,271.5c1.2-1.7,2.9-2.2,4.3-0.8c1.5,1.5,0.7,3.6,0,5.5c-0.9,0.5-1.6-0.1-2.3-0.6
	c-0.9-0.7-1.8-1.5-2.4-2.4C541,272.5,541.2,272,541.5,271.5z"/>
<path class="st0" d="M552,44.6c-4.7-3.1-1.6-6.1,0.2-9L552,44.6z"/>
<path class="st0" d="M740.1,300.3c1.2,0.7,1.4,1.9,1.5,3.1l-1.6,1.5l-0.6,0.1l-0.6,0l-1.8-1.8L740.1,300.3z"/>
<path class="st0" d="M686.2,234.8c0.3-4.2-1.5-8.7,1.1-12.7C686.7,226.4,687.8,230.7,686.2,234.8z"/>
<path class="st0" d="M523.3,354.8l1.6-1.8c0.6,3.7,1.6,7.4-0.7,11.8C522.3,361,523.8,357.8,523.3,354.8z"/>
<path class="st0" d="M621.4,55.3c-1.1,1.7-3,1.3-4.5,1.6c-2.5-0.7-5.4,0.8-7.5-1.6L621.4,55.3z"/>
<path class="st0" d="M485.9,305.1c-1.4,0.1-2.8,0.1-3.2-1.7l0-3c0.5-1.7,1.7-2.2,3.3-2.1c0,1.6,0,3.3,0,4.9
	C486,303.8,485.9,304.4,485.9,305.1z"/>
<path class="st0" d="M794.2,140.6c-0.3,4.8-3.2,6.5-7.6,6.2L794.2,140.6z"/>
<path class="st0" d="M705.4,295.4c-0.4,2.5-2.4,3.3-4.4,4.1c1.6-1.2-2-2.5,0.1-3.7l3.4-1.2C704.6,295,704.9,295.3,705.4,295.4z"/>
<path class="st0" d="M503.8,339.8c0.4,0.6,1.3,1.4,1.3,2.2c0.1,1.1-0.8,2-1.9,2.1c-0.2,0-0.4,0-0.6,0c-0.9,0-1.6-0.7-1.6-1.6
	c0-0.1,0-0.2,0-0.4C501.2,340.8,501.9,339.8,503.8,339.8z"/>
<path class="st0" d="M571.6,232.5c0.5,1,0.9,2.1,1.4,3.1c0,1.9-1.1,2.8-2.9,2.9l-3.1-1.4L571.6,232.5z"/>
<path class="st0" d="M52.8,67.1c0,1,0,2,0,3c-2.1,0.9-3.3,3.3-5.9,3L52.8,67.1z"/>
<path class="st0" d="M498,83.9c-0.2,1.6-0.3,3.6-2.5,3.4c-1.6-0.1-1.8-1.9-2-3.3L498,83.9z"/>
<path class="st0" d="M607.9,42.5c0.6-3.3-1.9-7.2,2-9.7C609.3,36,608.6,39.3,607.9,42.5z"/>
<path class="st0" d="M541.5,271.5l0.1,1.8c0.8,2.9-1,4-3.2,5c-1.2-0.2-2.2-0.6-1.4-2.1c0.1-0.4,0.2-0.9,0.2-1.3L541.5,271.5z"/>
<path class="st0" d="M681.5,222.1c-0.6,3,1.6,6.5-1.9,8.9c-0.6-0.9-0.5-2.1,0.2-2.9L681.5,222.1z"/>
<path class="st0" d="M627.1,225.2c-5.3,1.1-3.2-2.3-2.7-4.6L627.1,225.2z"/>
<path class="st0" d="M538.7,290c-0.4-0.5-0.9-1.1-1.4-1.6c-1.1-2.9,0.8-4,3-5c1.2,0.2,2.2,0.6,1.4,2.1L538.7,290z"/>
<path class="st0" d="M606.5,350.3c-0.4-1.3-0.5-2.7-1.9-3.4l0.2-2.7c0.4-0.1,0.8-0.2,1.2-0.2c0.6-0.6,1.5-0.6,2.1,0
	c0.1,0,0.1,0.1,0.1,0.2C609.3,346.6,610,349,606.5,350.3z"/>
<path class="st0" d="M349,196.3l1.6,1.8c-0.9,2-2.5,3.5-4.4,4.5C347.1,200.5,348,198.4,349,196.3z"/>
<path class="st0" d="M36.2,313.9c5.6-4.7,2.4,2.9,4.5,3.2C38.6,316.8,37.4,315.3,36.2,313.9z"/>
<path class="st0" d="M795.8,303.2l-1.7-1.5c1.4-1.6,3.3-2.6,5.4-2.8C799.8,301.8,797.6,302.4,795.8,303.2z"/>
<path class="st0" d="M775,281.1l-2.1-2.1c0.3-1.3,0.3-3.5,2-3.1c2.6,0.6,0.8,3.1,1.3,4.7C775.8,280.8,775.4,281,775,281.1z"/>
<path class="st0" d="M740,291.6c-1.9,1.1-3.2,3.5-5.9,2.8C735.5,292.2,736.1,288.3,740,291.6z"/>
<path class="st0" d="M537,276.1l1.2,1.6c0.9,3.5-0.8,4.7-4,4.4l-0.1,0.1v-3L537,276.1z"/>
<path class="st0" d="M484.5,10l2.9,1.5c-0.3,1.8-1.3,4-3,3.3C481.7,13.7,483.6,11.7,484.5,10z"/>
<path class="st0" d="M690.5,300.3l1.5,1.5c0,0.6-0.1,1.2-0.2,1.8c-1.5-0.6-4,1-4.5-1C686.8,300.8,689.3,301,690.5,300.3z"/>
<path class="st0" d="M36.2,91.3c0.1,1.2,0.1,2.4,0.2,3.5l-3,2.5C32.1,94.3,34.9,93.1,36.2,91.3z"/>
<path class="st0" d="M636.9,363.8c0.9-0.3,1.6-0.8,1-1.9c2.5-1.4,2.4,0.3,2,1.8c-0.6,2.4-2.2,2.1-3.9,1.1c-0.1-0.5,0.3-1,0.8-1.1
	C636.9,363.8,636.9,363.8,636.9,363.8z"/>
<path class="st0" d="M61.7,59.4c0.5,0,0.9-0.1,1.4-0.2c0.2,3.3-1.4,4.9-4.6,4.9C58.4,61.7,60.8,61.1,61.7,59.4z"/>
<path class="st0" d="M603.2,43.8c-0.7,3.3,2,7.2-2.2,9.7C601.7,50.3,602.5,47,603.2,43.8z"/>
<path class="st0" d="M589.8,94.2c-2.8-0.1-4.3-1.4-4.6-4.2C587.7,90.4,588.9,92.2,589.8,94.2z"/>
<path class="st0" d="M651.5,83.7c-2.2,0.3-4.7,2-6.1-1.3C647.6,82,649.8,81.6,651.5,83.7z"/>
<path class="st0" d="M714.3,299c3.3,1.6,1.3,4.7,1.9,7C713.3,304.3,715.3,301.3,714.3,299z"/>
<path class="st0" d="M544.3,274.4l1.5,1.7c-0.4,1.9-0.7,3.9-2.4,5.2c-0.7-0.5-1.2-1.2-1.5-2C541.6,277.2,541.6,275.1,544.3,274.4z"
	/>
<path class="st0" d="M561.2,363.4l-1.7-1.5c1.3-1.3,3.5-3.4,4.4-2.1C565.4,361.8,562.9,362.8,561.2,363.4z"/>
<path class="st0" d="M624.8,238.5l-0.6-7.3c2.8,1.8,1.3,4.7,1.8,7C625.6,238.3,625.2,238.4,624.8,238.5z"/>
<path class="st0" d="M31.6,89.5c0.1,3.1-1.4,4.7-4.5,4.8C28.6,92.6,30.1,91.1,31.6,89.5z"/>
<path class="st0" d="M542.8,278.7l0.6,2.7c0.2,1.5-0.5,3.1-1.7,4l-1.4-1.6C539.1,281.2,540.3,279.6,542.8,278.7z"/>
<path class="st0" d="M586.4,363.7l8.4,0.1C591.9,365.8,589.2,365,586.4,363.7z"/>
<path class="st0" d="M568.7,303.3c2.1-1.2,2.4,2.7,4.5,1.5C570.8,307.1,569.1,307.1,568.7,303.3z"/>
<path class="st0" d="M636.9,363.8c-0.3,0.3-0.6,0.7-0.9,1.1c-2.6-0.5-5.4,0.9-7.8-1.1L636.9,363.8z"/>
<path class="st0" d="M732.5,210.1l-4.2-2.9l2.2-5.7C733.5,204.1,733.1,207.1,732.5,210.1z"/>
<path class="st0" d="M81.6,329.4c-3.1-0.1-6.1-1.5-8-3.9C76.7,325.6,79.6,327,81.6,329.4z"/>
<path class="st0" d="M120.5,338.6l-5.4,2.9c-0.1-0.5-0.4-0.9-0.4-1.3C115.4,336.7,118.2,338.7,120.5,338.6z"/>
<path class="st0" d="M41.2,303.9c0.7,0.5,1.4,0.8,1.6,1.4c0.3,0.7,0,1.4-0.7,1.7c-0.2,0.1-0.5,0.1-0.7,0.1c-0.6-0.2-1.1-0.7-1.3-1.4
	C40,305.2,40.7,304.6,41.2,303.9z"/>
<path class="st0" d="M115.2,335.9c2.3-1.2,3.8-1.2,5.4-0.3C119.2,337,117.7,336.4,115.2,335.9z"/>
<path class="st0" d="M630.4,229.5c-2.4-0.4-2.2-2.9-3.3-4.3c-2.2-0.7-2.1-2.9-2.7-4.6c-2.6-4.8-2.7-8.5,3.3-11
	c4.5-1.9,6.2-6.3,6.7-10.9c0.9-7.8-5.1-11.5-10-15.8c-7.4-1.5-14.8-5.3-22.6-1.5l-7,0.5c-1.4,0.1-2.4,0.9-2.2,2.3
	c0.1,1.4,1.4,2.5,2.8,2.3c0.1,0,0.2,0,0.3,0c4-0.8,4.8,1.7,4.8,4.8c-0.2,12.7-0.5,25.5-0.8,38.2c-0.1,2.5-0.2,5-3.6,5.6
	c-1.2,0.2-2,1.3-1.8,2.5c0,0.1,0,0.2,0.1,0.3c0.4,1.5,2,1.3,3.2,1.4c4.2,0.4,8.5,0.6,12.7,0.9c4.7-0.7,5.4-2.3,2-6.1
	c-4.1-4.7-3.6-10.3,0.7-15.8c3.8,4.4,5.8,9.8,9.6,14.1c1.6,1.8,1.3,4.6,3.4,6.1l-0.2,0.6c1.5,0.8,3,1.4,4.6,0.1
	c3.2-0.4,6.8,0.5,8.6-3.5C637.1,232,633.4,231.3,630.4,229.5z M613.6,208.4c-8-1.1-4.7-7.9-5.8-12.6c1.1-4.1-1.7-10.5,5.9-10.8
	c7.3-0.4,13.1,5,13.2,11.8C627.1,202.5,619.7,209.3,613.6,208.4z"/>
<path class="st0" d="M109.8,160.2c-9.5,0-16.6,5.7-24.1,10.4c-9.7,5.1-17.9,12.5-23,21.6c-7.3,13.1-16.4,18-30.6,13.2
	c-1.4-0.5-3-1-3.5,0.8c-0.8,2.9,1,4.9,3.1,6.6c1,0.1,2,0.2,2.9,0.3c12.9,1.1,12.9,1.1,7.5,11.9c2.1,1.1,4.4,1.5,6.6,2
	c3.6-0.8,2.6-4.4,4-6.5c1.1-6.8,6.7-7.6,11.8-9c13.5-3.5,26.8-7.4,39.3-13.6c5.1-0.7,8.9-4.5,13.7-5.9c2-1,4.3-1.4,5.7-3.4
	c0.8-1.2,1.6-2.4,3.2-2.6c3.3-1,3.6-4,4.2-6.7C132,163.3,124.3,156.2,109.8,160.2z M117.7,184.5c-3.8,2.3-8,3.9-12,6
	c-2,1-5.2,0.9-5.1,4.4c-0.9-0.4-2.1-1.3-2.5-1c-8.4,5-18.5,4.8-27.2,8.7c-3,0.1-2.4-1.6-1.7-3.3c7.3-9.4,14.9-18.6,25.7-24.3
	c4.6-1.9,8.6-4.9,13.5-5.8l0,0c1-0.2,1.9-0.5,2.9-0.6c4.3-0.5,9.4-2.7,11.6,3.2C125,177.2,122.4,181.7,117.7,184.5L117.7,184.5z"/>
<path class="st0" d="M783.6,190.7L783.6,190.7C783.6,190.7,783.6,190.7,783.6,190.7L783.6,190.7z"/>
<path class="st0" d="M798,235.7c-6.9-3.5-8.6-10.6-12.2-16.5c-2.9-4.7-5.2-9,2.1-12.1c1.4-0.6,2.3-2.6,2.2-4.5
	c1.8-0.4,1.3-1.9,1.6-3.1c2.4-4.6,2.1-8.6-2.2-12l-4.2-1.8c-2.1-2.6-5-2.9-7.9-2.9c-7.4,0-14.8,0-22.2,0c0.4,4.2,6.4,4.1,6.2,9.4
	c-0.6,12.9-0.2,25.8-0.2,38.7c0.2,4.9-5.7,2.8-7.4,6.8c7.1,1.5,13.9,0.9,20.7,0.6c2.1-1.7,0.7-3.2-0.6-4.3c-3-2.5-3.5-5.9-3.2-9.4
	c0.2-3.1-1.5-7.4,1.6-9s3.7,4,6.7,4.8c3.9,5.8,6.1,12.6,6.3,19.5c4.4,1.1,9.1,1.1,13.5,0C799.9,238.5,799.9,236.7,798,235.7z
	 M777.8,207.1c-3-0.7-7.8,1.9-8.6-1.8c-1.2-5.1-3.1-10.8-0.5-15.9c1.8-3.7,10.1-2.8,15,1.3l0,0v0.2c0.8,2.2,3,4.2,2.3,6.7
	c0.2,0.5,0.4,0.9,0.6,1.4c-0.4-0.1-0.8-0.1-1.2-0.1c-0.1,0.2-0.3,0.4-0.4,0.6c-1.4,0.7-1,2-1.1,3.1
	C782.7,205.2,780.1,206,777.8,207.1z"/>
<path class="st0" d="M784.8,199.4c-0.4-2.9-0.8-5.8-1.3-8.7c2.7,2.4,4.8,5,3.2,8.9L784.8,199.4z"/>
<path class="st0" d="M777.8,207.1l6-4.5C783.6,206.5,781,207.2,777.8,207.1z"/>
<path class="st0" d="M524.9,226.6c-1.7-1.8,0.2-5.1-2.8-6.3c0.7-2.7-1.4-4.2-2.7-5.8c-2.4-2.9-4.1-4.2,0.3-8
	c7.4-6.4,3.7-19.3-5.3-21.8c-10.5-4.2-21.4-3-33.1-2.6c6.7,2.4,7.9,7.5,7.9,13.2c0,11.7-0.2,23.5-0.2,35.2c0,4.1-2.8,4.8-5.9,5.2
	c-1.3,0.8-1.2,1.8-0.6,3c1.7,2.6,4.2,0.8,6.3,1.2c8.5-0.5,17.1-0.1,25.6-1c3.3-0.7,6.4-2.4,8.8-4.9
	C524.6,231.8,525.1,229.2,524.9,226.6z M512.7,187.6c4.5,11,2,17.2-8.7,21.1c-3.5,0-5.7-1.3-5.5-5.3c0-2-0.1-4-0.3-6
	C496.9,185.4,502.2,182.6,512.7,187.6L512.7,187.6z M517,226.2l-0.2,0.3c-0.2,1.5-0.7,3.1-1.2,4.5c-1.5,1.2-2.9,2.8-4.6,3.7
	c-7.7,4.1-13.7,1-14.3-7.5c-0.3-3.7-0.2-7.4,0.2-11.1c0.5-3.9,2.5-6.5,7.1-4.7c5.3-0.5,8.9,2.1,11.7,6.4c1.1,2.4,1.5,5,1.3,7.5
	c0.1,0.2,0.2,0.5,0.4,0.7L517,226.2z"/>
<path class="st0" d="M515.6,231c1.6-4.4,0.6-8.8,0-13.2c3.7,2.2,2,5.8,2.3,9C517.5,228.3,517.9,230.4,515.6,231z"/>
<path class="st0" d="M546.1,31.1c0.2,3.6,0.6,7.3,0.6,11c0,1.6,1,4.3-2.4,4c0-7,0-13.9,0.1-20.9C549.3,25.9,544.8,29.3,546.1,31.1z"
	/>
<path class="st0" d="M343.2,232.6c-1.6-0.6-2.7-2.4-4.7-1.5l-5.5,1.7c-5.8,0.3-10.6,4.1-16.3,4.8c-3.1,0.4-7.2,2.1-8.7-1.4
	c-1.2-2.7,3-3.9,4.9-5.7c1.3-1.2,2.8-2.1,4-3.3c3.2-3.1,4.5-6.5,1.4-10.5c-1.9-2.3-4.7-3.5-7.1-5.2c-2.1-1.5-3.5-4.9-6.8-3
	c-1.2-1.5-3.1-2.2-5-1.7c-16.4,0.4-27.5,9.7-36.5,22.2c-1.7,2.4-3.6,4.7-5.6,6.8c-1.2,3.8,4.6,5.4,2.8,9.4c3.7,7.9,8.9,9.7,16.5,6.6
	c6.2-2.5,10.3-8.3,16.7-10.4c4.4,7,10.9,8.2,18.1,6.1c8.7-2.5,17.3-5.5,25.9-8.5c2-0.7,3.6-1.5,5.4,0
	C348.4,237.3,346.5,235,343.2,232.6z M301.7,225c-4.1,4.7-8.6,9.1-12.9,13.6l-8.9,6.3c-2.5,0.7-5.1,1.8-7.3-0.6
	c-3.8-11.5,10.3-23,21.3-28c2.2-1,4.7-1.3,7.1-1.9C306,217.6,304.9,221.4,301.7,225z"/>
<path class="st0" d="M272.5,244.2c2.3,0.9,4.9,1.1,7.3,0.6C277.2,247.6,274.5,249.4,272.5,244.2z"/>
<path class="st0" d="M270.5,243.8c-0.5,0.6-1.2,1.2-1.8,1.6c-0.6,0.1-1.2-0.2-1.6-0.7c-0.3-1.2,0.9-1.5,1.7-1.9
	C269.4,242.6,270.1,242.5,270.5,243.8z"/>
<path class="st0" d="M127.7,244.5c0.4,1.7,0.9,3.4,1.5,5.6C125.2,249.2,126.9,246.7,127.7,244.5z"/>
<path class="st0" d="M735,150.8c-9.9-18.2-13.3-38.5-19.1-58c-1.5-7.9-6.8-2.5-10.4-3l0,0c-4.5,12.5-9,25-13.5,37.6
	c-1.1,0.6-1.9,1.6-2.3,2.8c-2.2,7.3-4.1,14.8-10.7,19.8c-1.2,0.9-2.1,2.9,0.1,4.3l7,0.5c2.5,0.5,5,1.7,7.5,0c2-0.5,5.4-0.2,2-3.6
	c-1.1-1.1-4-1.2-3.4-3.3c2-6.3,1.3-14,8.9-17.4c3,0,6,0.3,9,0.1c6.7-0.3,9.4,3.9,10.3,9.5c0.6,4,4.2,9.9-4.4,10.2
	c-0.6,0-1.5,1.3-1.6,2.1c-0.3,1.6,1,2.1,2.3,2.1c5.5,0.1,11,0.2,16.5,0.1C735.7,154.5,736.5,153.5,735,150.8z M713.1,124.4
	c-14,0.3-14,0.3-9.9-12.8c1.5-4.7,2.8-9.5,4.3-14.2c4.5,1.6,3.2,5.9,4.2,9c0.8,2.5,1.6,5,2.5,7.5c3.1,1.2,0.2,4.4,2,6
	C715.6,121.8,714.6,123.3,713.1,124.4L713.1,124.4z"/>
<path class="st0" d="M716,120.1l-2-6C720.1,114.3,715.3,118.1,716,120.1z"/>
<path class="st0" d="M720.3,122.8v5C718.6,126.1,719.1,124.6,720.3,122.8z"/>
<path class="st0" d="M201.3,23.2h-7.1c0.6-1.7,2-0.9,3-1.2C198.6,22.2,200.2,21.6,201.3,23.2z"/>
<path class="st0" d="M609.3,8.5c-0.1,6.5-0.2,13-0.3,19.5C607.5,21.5,606.2,15,609.3,8.5z"/>
<path class="st0" d="M610.8,29.6l7.4-0.5C615.9,32.2,613.4,31.5,610.8,29.6z"/>
<path class="st0" d="M22,261.5c0.5,0.5,1.1,1,1,1c-0.5,0.8-1.1,1.5-1.9,2.1c-1,0.6-1.4-0.3-1-1C20.7,262.8,21.3,262.1,22,261.5z"/>
<path class="st0" d="M521.1,279.3l2.3,2.9c-0.8,2.1-0.6,4.7-2.7,6.3c-0.9-0.1-1.6-0.8-1.7-1.7C519.6,284.2,520.3,281.8,521.1,279.3z
	"/>
<path class="st0" d="M518.9,286.7l1.7,1.7c-0.6,1.9-0.8,4.1-3.5,4.3l-0.4,0.2C515.9,290.3,517.6,288.6,518.9,286.7z"/>
<path class="st0" d="M43.6,232c0.6,0.5,1.2,0.9,1.1,1c-0.6,1-1.3,2-1.9,3c-0.2-0.5-0.6-1-0.4-1.3C42.7,233.7,43.2,232.8,43.6,232z"
	/>
<path class="st0" d="M515.9,284.1c0.7,3.6-5.4,6.2-1.4,10.2c-2.5,3.1-2.8-1-4.3-1.4C512.2,290,510.4,284.7,515.9,284.1z"/>
<path class="st0" d="M613.9,300.8c-1.9-1.1-2.5,3.3-4.7,1.2c-2.2-1.6-3.2-3.5-1.4-6c1.7-5.2,0.4-6.5-6.1-6.2c-2.7,1.1-5.1,2.4-4.4,6
	c2.2-0.5,3-2.6,4.6-3.8c3.8-0.8,4,1.5,2.3,3.6c-2.2,2.8-3.8,6.3-7.8,7.3c-1.2-2.5,1.2-4.6,0.7-6.9c-2.6,0.7-3.4,3.4-5.5,4.7
	c-3.5,0.6-6.8,2-9.8,4c-0.1,0-0.2,0.2-0.2,0.7c-0.1,0.5,0.1,0.9,0.4,1.3c0.3,0.4,0.6,1.1,0.8,1.1c10.1-0.7,19.9-4,30.2-2.8
	c1,0,1.9-0.8,2-1.9c0.3-0.8-0.1-1.8-1-2.1C614.1,300.8,614,300.8,613.9,300.8z"/>
<path class="st0" d="M529.8,307.7c1.6,0,3.3,0.7,4.4-1.2l4.6-1.6l1.4,1.6c-3.8,2-7,6.7-12.3,3.1C528.6,309,529.2,308.4,529.8,307.7z
	"/>
<path class="st0" d="M367.3,210.1l4.4-4.6c0.2,2.3-1.3,3.6-3,4.7L367.3,210.1z"/>
<path class="st0" d="M613.9,342.6c-1.5,2-3.8,1.1-5.7,1.6l-2-0.3C608.2,340.7,610.3,337.5,613.9,342.6z"/>
<path class="st0" d="M579.4,272.2c-2.7-0.7-4.5,1-4.7,4.1c-1.8,0.9-1.2,2.8-1.7,4.2c-2.1,2.6-3.1,5.9-2.8,9.3
	c-0.9,5.2-3.1,9.6-8,12.2c2.3,2.8,4.7-0.9,6.4,1.3c1.4,0.8,2.2,3.5,4.5,1.5c1.7-0.3,2.3-1.5,2.7-3c-0.2-0.8-0.5-1.6-1-2.3
	c-0.7-3,3.2-4.7,2.1-7.8l0.3,0.1l0.5-0.5l1.1-1.6l1.1-4.2l0,0c1.9-2.3,0.7-5.2,1.6-7.8C582.3,275.5,581.7,272.8,579.4,272.2z
	 M578,285.3c-1.1,1.5-2.2,3-3.3,4.6l-2.8-0.2l2.4-7.5c0.7-1.5,1.3-2.9,1.9-4.4C579.9,279.6,577.3,282.8,578,285.3L578,285.3z"/>
<path class="st0" d="M657.5,345.5c0,3.4-0.8,7.1-4.9,6.1c-5-1.2-1.8-5-1.2-7.8c2.5-1.7,4,1.2,6,1.5c-0.8-5-3-6.6-7.2-2.8
	c-4.8,5.8-4.1,12.6,1.9,12.8c5.1,0.1,3,3.9,6.1,6.3C658.4,355.5,662.8,350.6,657.5,345.5z"/>
<path class="st0" d="M561.2,350c-2.4-1.5-4.8-2.7-7.4-1c-1.9,1.3-3.1,3.2-3.5,5.4c0.2,2.7-0.8,5.7,1.5,8.1c1.1-0.2,1.3-1.2,1.7-2
	c-1.2-4.7,2.6-3,4.6-3.3c2.2-0.3,5,0,5.7-2.4C564.2,353.2,563.2,351.2,561.2,350z M559.3,352.8c-0.2,1.1-1.3,1.1-2.7,1.1
	c-0.2-0.2-1-0.6-1.1-1c-0.2-1.5,1.2-1.2,1.9-1.2S559.7,351.1,559.3,352.8z"/>
<path class="st0" d="M794.1,301.7c-3.9-0.1-7.1,4.9-11.8,1.5c2.2-3.7,7.8-5,7.3-10.4c0.8-2.3-0.2-4.7-2.3-4.3
	c-3.4,0.5-7.6,0.9-8.2,5.8l-1.6,7.4l0.7-0.5c-0.2,0.2-0.4,0.4-0.7,0.5l-1.3,1.3c0.1,0.8,0.2,1.6,0.3,2.5c6.9,3.2,13.3,2.4,19.3-2.4
	C795.9,301.8,795.8,300.9,794.1,301.7z M788.5,292.8c-2.5,2-3.5,5.9-7.5,5.9C781.6,294.4,781.9,289.7,788.5,292.8z"/>
<path class="st0" d="M592.7,361c-1.3,1.5-3.6,1.6-5.1,0.3c-0.8-0.6-0.4-1.7,0.5-2.3C588.6,362.1,591,360.7,592.7,361z"/>
<path class="st0" d="M397.1,166.4l-0.1-0.1c-0.7-3.7-2.9-5.6-7.1-5.2c-9.4,0.9-15.8,6.8-22,13.2c-0.3,0.6-0.5,1.2-0.7,1.8
	c-0.2-0.8-0.2-1.6-0.1-2.3c-5.8,4.7-10.7,10.3-14.5,16.8l0,0c-1.5,1.7-3.9,2.9-3.5,5.8c-0.5,1.3-0.2,1.8,0.6,1.8
	c-1.5,1.2-2.2,3-3.4,4.4l-3.1,9c-3.9,6-1.2,13.5-4.6,19.6l3.1,3c-0.7-6.3,0.1-11.1,8.5-8.4c0.6,0.2,1.4-0.4,2.1-0.6
	c0-0.6-0.1-1.2-0.1-1.9l0,0c-2.4,0.7-3.7,0-3.2-2.7c0.4-7.1,4.1-13.1,6.9-19.4l4-6.6l12-14.6c4.9-3.8,9.4-8,15.1-10.7
	c5.3,0.9,1.7,5,2.8,7.5l0,0c-0.5,3.2-1,6.4-3,9.2v-0.1l-7.1,10.7l-7.7,9c-1.2,1.8-2.6,3.3-4.4,4.6l-14.6,12.7
	c0.1,0.6,0.4,1.1,0.8,1.5l2.9,2.6c7-4.5,14-8.9,19.1-15.6l0,0c3.4-2.7,6.5-5.7,8.6-9.6c0.1-0.3,0.2-0.6,0.3-0.9
	c0,0.2,0.1,0.5,0.1,0.7c3.2-3.8,7.4-7,8.3-12.3l-0.4,0.1l0.3-0.3c-0.3-4,3.6-6.5,3.8-10.3l0,0c0.2-0.6,0.5-1.2,0.7-1.8
	C397.8,173.4,398.5,170,397.1,166.4z"/>
<path class="st0" d="M595.4,101.9c-1.9-2.6-3.8-5.1-5.7-7.7c-1.8-1.1-3.4-2.5-4.6-4.2c-3.9-2.1-7.3-4.8-12.3-5.2
	c-9.9-0.7-14.6,5.5-19.1,12.5c-7,15.7-7.5,31.2,1.7,46.4c2.4,2.5,4.6,5.2,7.3,7.4c10.1,8.1,19.5,7,28-2.8c3.5-4,5-9.1,7.8-13.5
	C601.6,123.5,600.9,112.4,595.4,101.9z M592.1,130c-0.3,1.2-0.7,2.4-1.2,3.5c-4.1,11.5-9,16.5-15.4,15.8
	c-8.7-0.8-17.5-10.7-18.6-20.9c-0.3-2.7,0-5.5,0-8.3c-0.2-6.8,0.3-13.5,3.2-19.8c6.2-13.8,17.3-14,26.9-3.1
	C595.4,106.9,594.7,118.4,592.1,130z"/>
<path class="st0" d="M664.2,279.4c-1.6,6.2-6.4,8.4-11.5,10.3c-0.3,0.4-0.5,0.9-0.6,1.4c-2.4,0.8-3.4,3.3-5.3,4.7l0.1,0.8
	c-2.2,0.3-3.2,2-4.6,3.4c-1,0.8-2.7,0.2-3.3,1.8c-1.8,1-2.5,2.5-1.7,4.5c0.3,0.5,0.9,0.6,1.4,0.3c0.1-0.1,0.3-0.2,0.3-0.3
	c0.9-0.3,2.3-1.2,2.6-1c4.9,5.1,9,3.2,13-1.1c0.3-0.3,1.7,0.6,2.6,0.9c0.9-0.2,1.7-0.9,1.9-1.8C658.4,294.9,665.1,288.1,664.2,279.4
	z M645.4,306.4c1.6-4.3,2.4-6.6,3.3-9c0.5-2.2,2.1-4.1,4.2-5.1c2,0.3,3-2.8,5.8-1.3C656.8,297.4,653.4,302.2,645.4,306.4
	L645.4,306.4z"/>
</svg>
