<?xml version="1.0" encoding="utf-8"?>
<!-- Generator: Adobe Illustrator 24.0.2, SVG Export Plug-In . SVG Version: 6.00 Build 0)  -->
<svg version="1.1" id="レイヤー_1" xmlns="http://www.w3.org/2000/svg" xmlns:xlink="http://www.w3.org/1999/xlink" x="0px"
	 y="0px" viewBox="0 0 406.8 805.5" style="enable-background:new 0 0 406.8 805.5;" xml:space="preserve">
<style type="text/css">
	.st0{fill:#FFFFFF;}
</style>
<title>logo_straight</title>
<path class="st0" d="M195.6,321.7c35.2,1.1,70.3,0.6,104.9-7.4c1.2-0.4,2.3-0.8,3.4-1.4c3.1-2.7,7.1-2.1,10.8-2.9
	c36.3-10.2,67.2-27.3,81.8-64.9c1.1-2.8,1.5-7.4,6.2-5.3c4.5,2,3.8,5.8,1.8,9.5c-17,30.2-39.7,53.5-74,63.8
	c-21.9,6.6-44.4,11.1-67.2,13.6c-8.3,3.5-17.1,3-25.8,2.7l-0.6-0.2l-0.6,0.4c-11.9,3.4-24-0.4-35.9,0.7c-16.7,1.2-33.4,2.3-49.8-2
	c-9-1.3-18.2-0.8-27.1-3.1c-6.6-3.2,0.2-6.3,0.1-9.4h6c4,0.4,8.3-0.5,12,1.7l0.4,0.4l0.5-0.2c4,1.9,8.7-2,12.6,1.4l0.4,0.3l0.4-0.2
	C169.1,319.5,182.4,320.3,195.6,321.7z"/>
<path class="st0" d="M123.5,315.7c2.3,3.2-3.1,6.3-0.1,9.4c-21.2-1.5-41.6-6.7-61.3-14.4c-3.2-1.2-6.3-2.5-9.4-3.8
	c-1.5-0.8-2.7-2.2-4.4-2.8l-7.6-6.1c-0.4-0.6-0.9-1.1-1.5-1.4c-1.1-0.5,0.3-5.1-2.9-1.8c-7.8-4.9-13.1-12.2-18.1-19.6
	c-1.5-2.2-3.2-4.9-0.9-7.5c2.1-2.4,5.1-2,7.7-1.2c3.4,1,6.4,2.9,8.8,5.5c24.3,25.2,54.6,37.8,88.7,42.7
	C122.8,314.8,123.1,315.4,123.5,315.7z"/>
<path class="st0" d="M366.8,54.3c16.1,19.8,29.9,41,38.1,65.4c0.9,2.6,3.7,6.3,0.2,7.9c-3.8,1.8-5.4-2.8-6.6-5.5
	c-2.9-6.6-4.9-13.6-7.9-20.1c-10-21.8-22.9-41.4-43.2-55.1c-2.7-1.2-5.8-1.7-7.4-4.6l-4.4-3.4c-1.7,0.2-2.2-1.3-3.2-2.1l-15.1-9.2
	c0.3-3.9,2.7-2.3,4.7-1.8c15.1,5.2,27.6,14.6,39.9,24.4C364.6,50.3,366.5,51.4,366.8,54.3z"/>
<path class="st0" d="M33.4,78.3c-3.5,8.1-10.6,13.9-13.9,22.1c-0.6,2.3-0.6,4.8-3.1,6.2l0,0c0,3.9-1.7,7.2-3,10.7
	c-2.9,11.5-6.9,22.9-4.3,35.2c0.1,1,0.1,2,0.1,3c0.3,3.2-0.8,5.5-4.3,5.7c-3.8,0.2-4.4-2.5-4.6-5.5c-1.6-20.3,3.8-39.1,12.4-57.2
	c4-8.2,8.8-16,14.4-23.3c2.1-0.9,3.7-2.7,4.5-4.8l1.1-1.4c2-1.1,3.4-0.7,4.3,1.4C37.3,73.7,34.1,75.4,33.4,78.3z"/>
<path class="st0" d="M85.8,236c18.8-3.3,32-16.4,47-26.3c4.8-3.1,8.7-7.5,14.3-9.5c3.1,3,0.7,5.4-1.1,7.6c-2.9,3.3-5.7,6.8-8.3,10.4
	c-3,4.2-3.8,8.4-1.7,13.2c-0.7,4.6-4.6,5.1-8,6.1c-0.4,0.1-0.8,0.1-1.2,0.1c-1.9-0.7-3.8-1.9-4.4-3.8c-2-7.3-5.5-5.5-10-2.3
	c-3.5,2.5-6.7,6-11.6,6.1c-10.3,3.8-20.4,8.6-31.6,3.3c-1.4-1.3-3.1-2.6-1.7-4.8c2.1-3.2,5.3-0.4,7.9-1.2
	C78.8,236.1,82.5,234.8,85.8,236z"/>
<path class="st0" d="M322.1,25.6c-1.8,0.1-3.7-0.2-4.7,1.8c-1.2-0.1-2.4-0.1-3.1-1.3c-2.2-3-5.4-3.6-8.8-3.7l-1.5,0.2
	c-2.1-0.7-4.6-0.5-6.1-2.6c-1.9-0.4-4.2,0.1-5.5-1.9c-4.1-1.1-9.1,1.2-12.4-3.1c-22.3-5.4-45.1-6.9-67.8-9c-3.7-1.9-7.7,0.4-11.4-1
	c-1.6-0.7-4.4-0.2-3.4-3.4c8.5-0.9,17.1-0.9,25.5,0.1c9-1,17.7,2.3,26.7,1.7c1.8,1.6,4.4-0.6,6.2,1.2l4.4,0.7
	c8.4,0.4,17-0.6,24.2,5.3C297,15.3,310.3,18.6,322.1,25.6z"/>
<path class="st0" d="M342.8,220.1c1.8-2.2,4.1-4.6-1.3-5c-2-10.1-1-11.2,9.8-10.4c2.1,0.5,3.9,1.4,3.7,4c-1.4,1.5-4.4,2.4-2.9,5.3
	c1.5,3,4.4,5,7.7,5.5c9.7,1.4,19.5-0.3,28.2-4.9c3.8-1.9,7.2-5,12.3-5.7c-0.5,5.4-5.4,6.1-8,8.2c-10.8,8.4-23,14.1-37.3,11.5
	C349.8,227.7,345,225.6,342.8,220.1z"/>
<path class="st0" d="M156.6,222.6c2.8-4.8,4.8-9.6,2.5-15.4c-1.4-3.6-3.7-8,1.6-10.2c5.8-2.4,5.7,3.5,7.7,6.4
	c4.8,6.4,16.2,8,24.6,3.4c1.9-1.1,3.7-2.5,5.5-3.8c1.4-1.1,2.6-0.9,3.5,0.6c0.1,0.7,0,1.4-0.3,2c-2.4,2-3.5,5.1-3,8.2
	c-3.1,7,1.3,11.1,5.9,15.1c2.1,3.5,0.5,5.1-3,5.7c-7-4.1-13.6-8.6-12.1-18.3c0.6-3.6-2-3-3.7-2.5c-6.1,1.9-12.4,1.3-18.6,1.6
	C163.1,216.9,163.2,224.9,156.6,222.6z"/>
<path class="st0" d="M21.2,254.2c-4.5,1.5-9.9,5.7-13.4,0.6s0.7-10.2,4.3-14.4c1.6-1.8,4-3,4.6-5.6c1.9-4.1,3.4-8.7,8.8-9.6
	c4.4,3.6,9.1-1.6,13.6,0.5c1,3.6-0.9,6.3-2.9,9c-2.9,1.5-7.3,2.1-3.9,7.1c0.1,0.7,0,1.4-0.4,2c-0.2,0.4-0.5,0.9-0.7,1.3
	C29.9,250.3,26,252.8,21.2,254.2z"/>
<path class="st0" d="M201.7,234.6c1.5-1.6,3.6-3,3-5.7c12.1,3,24.9,1.7,36.2-3.5c5.6-2.6,11-5.7,16.5-8.6c2.6,2.6,6.4,4.9,2.8,9.4
	c-1-4.2-2-6.1-6.7-2.3c-12,9.5-25.8,14.5-41.4,13.9C208.3,237.6,204.7,237.1,201.7,234.6z"/>
<path class="st0" d="M84.4,27.5c14.1-9.3,30.4-13.1,46-18.4c4.1-1.4,8.4-2,12.6-2.9c3.6,0.5,8.4-3.7,10.5,2.6
	c-22.7,4.1-44.7,11.8-65,22.7C85.7,31.7,84.3,30.4,84.4,27.5z"/>
<path class="st0" d="M156.6,222.6c3.7-0.2,5-3.3,6.6-5.8c1.2-1.8,1.9-3.3,4.1-1.4c0.2,1.7-0.1,3.4-0.8,5
	c-5.1,10.6-23,20.3-34.6,18.8c-1.5-0.1-2.9-0.8-3.9-1.9c1.5-3.1,5.4-3.1,7.5-5.5C144.1,232.5,150.7,228.4,156.6,222.6z"/>
<path class="st0" d="M74,235.6c-0.8,2.5-9.1-1.9-4.8,5.3c-9.8-1.6-13.8-10-19.7-16.4c-0.3-0.6-0.6-1.3-0.9-2
	c-0.8-2.4-4.1-4.4-1.9-7.1c2-2.5,4.9-0.7,7.4-0.2c1.4,0.5,2.6,1.7,3,3.1c4.2,5.7,8.3,11.5,14.8,15C73.1,233.6,73.9,234.5,74,235.6z"
	/>
<path class="st0" d="M54.6,216.5l-7.2-0.7c-0.7,3.5,5.2,5,2.1,8.7c-3.8-2.7-7.3-2.3-10.5,1.1c-2.9,1.6-6.5,1-9.1,2.4
	c-3.8,2-3.2-1.2-4.3-2.5c-0.4-0.3-0.6-0.6-0.5-1s0.2-0.5,0.3-0.5l0.5,0.2c3.2-0.5,5.4-2.5,7.1-5.1c5-3,5.2-9.4,9.1-13.2
	c2.8-1.6,5.1-1.4,6.4,2C51.1,210.5,55.1,211.8,54.6,216.5z"/>
<path class="st0" d="M223,1.4c-8.6,1-17.4-1.6-25.8,1.6c0.4-0.9,0,1.4-0.5,0.5s-1.4-0.3-0.5,0.1c1.6,0.7,3.5-0.2,5.1,0.6
	c3.5,1.4,7.8-2.2,10.9,1.6C194.1,5.4,176,5.6,158,7.5c-1-0.8-2-1.8-2-3.3C178.2,0.5,200.5-1.5,223,1.4z"/>
<path class="st0" d="M204.9,197.1c2.8-2.8,6.2-5,9.9-6.4c3.4-1.5,7.4-3.6,10.1,0.4c3.1,4.6,4.2,9.8,0.4,14.8c-1.5,1.9-3.4,2-5.4,1.7
	c-2-0.4-3.2-2.3-2.8-4.2c0-0.1,0-0.2,0.1-0.2c1.9-7.1-2.3-3.6-4.9-3C209.4,200.1,206.6,199.9,204.9,197.1z"/>
<path class="st0" d="M32.1,186.4c-5.7,2.2,0.9,5-0.4,7.5c-9.1-1.7-18.2-3.5-22.6-13.3c0.9-5.6,4-7.1,9.1-4.7
	C22.1,180.2,26.8,183.8,32.1,186.4z"/>
<path class="st0" d="M36.2,72.2c-0.1-2.3-1.6-3-3.6-3.2c3.7-5.9,8.8-10.5,14.1-14.8c2.4-1.3,3.9-3.9,6.8-4.4
	c1.7-0.1,3.2,0.1,4.3,1.6c-3.9,7.5-11.5,11.8-16.5,18.4c-1.5,2.1-3.1,4.1-4.9,6c-1-0.9-1.2-2.4-0.3-3.5
	C36.1,72.3,36.2,72.3,36.2,72.2z"/>
<path class="st0" d="M57.8,51.4l-5.1-0.3c-0.8-0.8-0.8-2.2,0-3c0,0,0,0,0,0c1.2-2.3,3.3-3.1,5.7-3.1c1.8-1.4,4.3-2.2,4.2-5.1
	c0.6-1.9,1.7-3.1,3.9-2.6c1.7,1.5,2.7,3.7,2.6,6c0,1.2-0.6,2.2-1.5,2.9C63.2,45.8,61.7,51,57.8,51.4z"/>
<path class="st0" d="M78.7,37.8c-0.2,0.4-0.4,0.8-0.6,1.3c-1.7,0.6-3.4,1.1-4.4,2.9c-1.3,2.5-3.1,3.7-5.8,2c-0.5-2-1.1-4.1-1.6-6.2
	c0.1-1,0.9-1.2,1.7-1.5l0,0c1.8-2.4,4.1-4,7.3-3.6C77.1,33.8,78.3,35.7,78.7,37.8z"/>
<path class="st0" d="M31.9,242.3c-0.8-0.9-1.6-1.8-2.3-2.7c-0.9-1.3-2.8-2.4-1.6-4.4s3-0.6,4.6-0.5l3.7,0.1l-1.5,4.4
	C33.4,239.9,34.7,242.8,31.9,242.3z"/>
<path class="st0" d="M75.3,33.3c1.7-0.1,3-1.5,3-3.2l3-1.6c2,1.4,3.6,3.1,2.9,5.9l0.2,0.6c-3-1.3-3.3,3.1-5.8,2.8
	C76.7,37.2,75.3,35.4,75.3,33.3z"/>
<path class="st0" d="M204.9,197.1c2.6,0.7,5.3,0.9,7.3,3c-1.8,3-6.2,2.6-7.7,6c-1.7,1-2.9,1-2.8-1.5l0,0c0.5-2.7,2-4.9,3.1-7.3
	L204.9,197.1z"/>
<path class="st0" d="M156,4.2c1.3,0.6,2.1,1.9,2,3.3c-1.2,1.1-2.9,1.6-4.5,1.3c-2.6-4.3-7.2-1-10.5-2.6C147.1,4.1,151.6,4.6,156,4.2
	z"/>
<path class="st0" d="M201.7,204.6c0.6,1,1.7,1.6,2.8,1.5c-1,3.2-4,5.1-5.8,7.7C192.9,208.6,198.7,207.1,201.7,204.6z"/>
<path class="st0" d="M84.2,34.4c-0.9-2-3.2-3.3-2.9-5.9c0.5-1.9,2-0.8,3.1-1l4.1,4C87.6,33.3,85.9,33.7,84.2,34.4z"/>
<path class="st0" d="M27.2,222.6c2-0.1,3.2-1.6,4.3-3l1.6-0.3c-0.4,4.4-1.4,8-7.1,5.1L27.2,222.6z"/>
<path class="st0" d="M204.8,197.3c1.6,3.6-1.5,5.1-3.1,7.3c-0.7-1.1-1.9-1.6-3.2-1.5C199.9,200.3,202.2,198.7,204.8,197.3z"/>
<path class="st0" d="M305.5,22.3c4.2-1.7,7.4-1.1,8.8,3.7L305.5,22.3z"/>
<path class="st0" d="M52.7,48.1v3c-2.1,0.9-3.3,3.3-5.9,3L52.7,48.1z"/>
<path class="st0" d="M349,177.3l1.6,1.8c-0.9,2-2.5,3.6-4.4,4.5L349,177.3z"/>
<path class="st0" d="M36.2,294.9c5.6-4.7,2.4,2.9,4.5,3.2C38.6,297.8,37.5,296.2,36.2,294.9z"/>
<path class="st0" d="M36.2,72.2l0.2,3.6l-2.9,2.6C32,75.2,34.9,74.1,36.2,72.2z"/>
<path class="st0" d="M61.7,40.4c0.5,0,0.9-0.1,1.4-0.2c0.2,3.3-1.4,4.9-4.6,4.9C58.4,42.6,60.8,42.1,61.7,40.4z"/>
<path class="st0" d="M31.6,70.4c0.1,3.1-1.4,4.7-4.5,4.8L31.6,70.4z"/>
<path class="st0" d="M81.6,310.4c-3.1-0.1-6-1.5-8-3.9C76.7,306.6,79.6,308,81.6,310.4z"/>
<path class="st0" d="M120.5,319.5l-5.4,2.9c-0.1-0.4-0.5-0.9-0.4-1.3C115.4,317.7,118.2,319.6,120.5,319.5z"/>
<path class="st0" d="M41.2,284.8c0.7,0.5,1.4,0.9,1.6,1.4c0.3,0.7,0,1.4-0.7,1.7c-0.2,0.1-0.5,0.1-0.7,0.1c-0.6-0.2-1.1-0.7-1.3-1.4
	C40,286.1,40.7,285.6,41.2,284.8z"/>
<path class="st0" d="M115.1,316.9c2.3-1.2,3.8-1.2,5.4-0.3C119.2,317.9,117.6,317.4,115.1,316.9z"/>
<path class="st0" d="M109.8,141.2c-9.5,0-16.6,5.7-24.1,10.4c-9.7,5.1-18,12.5-23,21.6c-7.3,13.1-16.4,18-30.6,13.2
	c-1.4-0.5-3-1-3.5,0.8c-0.8,2.9,1,4.9,3.1,6.6c1,0.1,2,0.2,2.9,0.3c12.8,1.1,12.8,1.1,7.4,11.9c2.1,1.2,4.4,1.5,6.6,2
	c3.6-0.8,2.6-4.4,4-6.5c1.1-6.8,6.7-7.6,11.8-9c13.5-3.5,26.8-7.4,39.3-13.6c5.1-0.7,8.9-4.5,13.7-5.9c2-0.9,4.3-1.4,5.7-3.4
	c0.8-1.2,1.6-2.4,3.2-2.6c3.3-1,3.5-4,4.2-6.6C132,144.2,124.3,137.2,109.8,141.2z M117.7,165.5c-3.8,2.3-8,3.9-12,6
	c-2,1-5.2,0.9-5.1,4.4c-0.9-0.4-2-1.3-2.5-1c-8.4,5-18.5,4.8-27.2,8.7c-3,0.1-2.4-1.6-1.7-3.3c7.3-9.4,14.9-18.6,25.7-24.3
	c4.5-1.9,8.6-4.9,13.5-5.8l0,0c1-0.2,1.9-0.5,2.9-0.6c4.3-0.5,9.4-2.7,11.6,3.2C125,158.2,122.4,162.6,117.7,165.5z"/>
<path class="st0" d="M343.2,213.6c-1.5-0.6-2.7-2.4-4.7-1.5l-5.5,1.7c-5.8,0.3-10.6,4.1-16.3,4.8c-3.1,0.4-7.2,2.1-8.7-1.4
	c-1.2-2.7,3-3.9,4.9-5.7c1.3-1.2,2.8-2.1,4-3.3c3.2-3.1,4.5-6.5,1.4-10.5c-1.9-2.3-4.7-3.5-7.1-5.2c-2.1-1.5-3.5-4.9-6.8-3
	c-1.2-1.5-3.1-2.2-5-1.7c-16.4,0.4-27.5,9.7-36.5,22.2c-1.7,2.4-3.6,4.7-5.6,6.8c-1.2,3.8,4.6,5.4,2.8,9.4c3.7,7.8,8.9,9.7,16.5,6.6
	c6.2-2.5,10.3-8.3,16.7-10.3c4.4,7,10.9,8.2,18.1,6.1c8.7-2.5,17.3-5.5,25.9-8.5c2-0.7,3.6-1.5,5.4,0
	C348.4,218.2,346.5,215.9,343.2,213.6z M301.7,206c-4.1,4.7-8.6,9.1-12.9,13.6l-9,6.3c-2.5,0.7-5.1,1.7-7.3-0.7
	c-3.8-11.5,10.4-23,21.3-28c2.2-1,4.7-1.3,7.1-1.9C306,198.6,304.9,202.4,301.7,206z"/>
<path class="st0" d="M272.5,225.2c2.3,0.9,4.9,1.1,7.3,0.6C277.2,228.5,274.5,230.4,272.5,225.2z"/>
<path class="st0" d="M270.5,224.8c-0.5,0.6-1.1,1.2-1.8,1.6c-0.6,0.1-1.2-0.2-1.6-0.7c-0.3-1.2,0.9-1.5,1.7-1.9
	C269.4,223.5,270.1,223.5,270.5,224.8z"/>
<path class="st0" d="M127.7,225.5l1.5,5.6C125.2,230.1,126.9,227.7,127.7,225.5z"/>
<path class="st0" d="M201.3,4.2h-7.1c0.6-1.7,2-0.9,3-1.2C198.6,3.2,200.2,2.6,201.3,4.2z"/>
<path class="st0" d="M22,242.5c0.5,0.5,1.1,0.9,1,1c-0.5,0.8-1.1,1.5-1.9,2.1c-1,0.6-1.4-0.3-1-1C20.7,243.8,21.3,243.1,22,242.5z"
	/>
<path class="st0" d="M43.6,212.9c0.6,0.5,1.2,1,1.1,1c-0.6,1-1.3,2-1.9,3c-0.2-0.5-0.6-1-0.4-1.3C42.7,214.7,43.2,213.8,43.6,212.9z
	"/>
<path class="st0" d="M367.3,191.1l4.4-4.6c0.2,2.3-1.3,3.6-3,4.7C368.2,191.2,367.7,191.2,367.3,191.1z"/>
<path class="st0" d="M397,147.4l-0.1-0.1c-0.7-3.7-2.9-5.6-7.1-5.2c-9.4,0.9-15.8,6.9-22,13.2c-0.3,0.6-0.5,1.2-0.7,1.8
	c-0.2-0.8-0.2-1.6-0.1-2.3c-5.8,4.7-10.7,10.4-14.5,16.8l0,0c-1.5,1.7-3.9,2.9-3.5,5.8c-0.5,1.3-0.2,1.8,0.6,1.8
	c-1.5,1.2-2.3,3-3.4,4.4l-3.1,9c-3.9,6-1.2,13.5-4.6,19.6c1,1,2.1,2,3.1,3c-0.7-6.3,0.2-11.1,8.5-8.4c0.6,0.2,1.4-0.4,2.1-0.6
	l-0.1-1.9l0,0c-2.4,0.7-3.7,0-3.3-2.7c0.4-7.1,4.1-13.1,6.9-19.4l4-6.6l12-14.6c4.9-3.8,9.4-8,15-10.7c5.3,0.9,1.7,5,2.8,7.5l0,0
	c-0.5,3.2-1,6.4-3.1,9.2v-0.1l-7.1,10.7l-7.7,9c-1.2,1.8-2.6,3.3-4.4,4.6l-14.6,12.6c0.1,0.6,0.4,1.1,0.8,1.5l2.9,2.6
	c7-4.5,14-8.9,19.1-15.6l0,0c3.3-2.7,6.5-5.7,8.6-9.6c0.1-0.3,0.2-0.6,0.3-0.9c0,0.2,0.1,0.5,0.1,0.7c3.2-3.8,7.4-7,8.3-12.3
	l-0.4,0.1l0.3-0.2c-0.3-4,3.6-6.5,3.8-10.3l0,0l0.7-1.8C397.8,154.4,398.5,150.9,397,147.4z"/>
<path class="st0" d="M348.2,531.4c-0.2,5.5-0.1,11.1-0.5,16.7c-0.4,5.9,1.3,10.2,7.4,12c2.3,2,4.9,1.5,7.6,1.4
	c3.5-0.2,5.8,1.2,4.2,5.3c-11.3,0.2-22.6,0.5-33.9,0.6c-1.8,0-4.3,0.6-4.9-2s1.6-3.7,3.3-4.2c6.1-1.5,6.6-6,6.6-11.1
	c0-16.4,0.1-32.8,0-49.1c0-5.6-0.2-11.2-8.4-10.3c-1.5,0.2-3-0.7-2.9-2.3c0.2-1.4,1.4-2.5,2.9-2.5c8.2-0.1,16.4-0.1,24.6,0
	c1.2-0.1,2.2,0.7,2.3,1.9c0,0,0,0,0,0c0.2,1.5-0.2,2.6-2,3.1s-3.8,1.2-4.6,3.2c-3,4.8,2.3,10.7-1.8,15.4c0,2.8,0.1,5.7,0.1,8.5
	c1.5,1.7,1.2,3.4,0,5.1c0,1.1,0,2.3,0,3.4C349.7,528,349.5,529.7,348.2,531.4z"/>
<path class="st0" d="M315.8,599.4c1.8,4.8,4,9.6,3.3,15.1c-3.8,0.1-4.9-2.9-6.8-4.8s-3.9-4.2-6.2-5.6c-7.6-4.5-13.1-2-14.5,6.6
	c-0.4,2.5-0.7,5-0.8,7.5c-0.3,10.4,1.6,11.7,11.8,8.4c3.1-1.1,3.5,1.8,4.8,3.3c1.2,4.4,1,8.8-0.1,13.9c-4.3-2.7-3.2-8.9-8.4-10.8
	c-4.5-1.6-7-2.3-7.1,3.6c-0.1,2.5-0.5,5.1-0.6,7.6c-0.2,5.8-1.8,12.7,5.7,15s14.5,0.6,19.3-6.3c1.2-1.8,1.9-4,4.7-5
	c1.4,5.9-1.5,10.8-2,15.9c-15,4.3-29.8-0.7-45.4-0.9c10.6-3.3,10-11.8,10-19.6c0.1-10.7-0.3-21.4-0.6-32.2c-0.1-5-0.8-9.6-7-11.6
	L315.8,599.4z"/>
<path class="st0" d="M132.7,431.2c0.3,4.7,0.6,9.4,0.9,14.2c0.3,4.6-0.9,9.7,4.6,12.7h-19.3c8.6-7.2,5.1-16.2,5-24.2
	c-0.1-3.8-4.2-4.8-7.9-4.4s-7.2,1.1-10.7,1.7c-2.5-2.7-7.1,0.4-9.2-3.3c-1.2-2.3,0.3-5.5-2.5-7.2c-1.2-7.9-4.2-15.4-4.9-23.4
	c5.6-0.1,11.2-0.2,16.9-0.2c1.3,0,3,0.1,3.2,1.9s-1.1,2.1-2.5,2.8c-8.4,4.4-3.4,11.7-3.4,17.7c0,5.3,5,5.5,9,4.8
	c4.3-0.7,11.4,3.1,12.4-3.1c1.1-7.3,3-16.1-5-21.8c1-2.8,3.3-2,5-2c4.9,0.1,11.3-2.2,14.2,1.8c2.4,3.3-6.5,3.5-6,8.2
	C130.7,415.3,129.4,423.2,132.7,431.2z"/>
<path class="st0" d="M34,402.8c-2.1-0.2-2.4,1.8-3.6,2.9c-1.8,0.8-2.5-0.4-3.2-1.7c-0.5-2.5,0-5,1.6-7c10.2-0.7,19.8-5.3,30.4-4.2
	c9.7,1,14.5,5.9,14.4,16.3c-2.4,3.4-3.1-0.1-4-1.2c-1.9-2.8-4.7-4.8-7.9-5.9c-6.1-2-9-0.6-8.9,6.3c0.2,13,0.1,25.9-0.1,38.9
	c0,3.9,0.6,6.5,5.4,6.4c2.2-0.1,3.5,1.6,3.2,4s-2.1,2.4-3.8,2.3c-4.8-0.1-9.6-0.2-14.3-0.7c-2-0.2-5,0.3-5.5-2.6
	c-0.6-3.2,2.7-2.9,4.5-3.9c0.7-0.5,1.3-1,1.9-1.6c0.8-7.8-2-15.8,1.6-23.3c0.9-4-2-7.9,0-11.9c-0.5-0.4-0.7-0.8-0.5-1.2
	s0.3-0.6,0.5-0.6c0-2.8,0-5.6,0-8.5C42.5,401.9,37.9,403.6,34,402.8z"/>
<path class="st0" d="M227.3,653.8l5.4,5.1c0.8,1.8-0.2,2.6-1.7,3.2c-7.5-0.8-11-6.9-15.2-11.9c-1.1-0.7-1.8-2.1-1.6-3.4
	c-1.5-11.3-4.5-22.6,1.3-33.8c6.5-12.4,16.6-17.5,30.4-14.4c0.3,0.1,0.6,0.4,0.8,0.3c10.9-4.1,9.8,4.7,11.4,10.6
	c0.9,2.2,2.3,4.6-1.6,5.3c-2.5-2.2-3.3-6-6.7-7.3c-3.6-1.3-7.5-1.8-10.3-4.7c-9.5,1.1-16,7.3-18,18c-1.1,5.7-2.1,11.7-0.5,17.5
	c0.8,3.6,1.8,7.1,3.1,10.5c-0.2,0.5,0,1.1,0.5,1.3C226,651,227.3,651.9,227.3,653.8z"/>
<path class="st0" d="M196.7,557l1.9,1.6c1,0.7,2.4,0.6,3.4,1.3c2.5,2,3,3.8-0.5,5.1c-2,0.8-4.3,0-6.3,0.7
	c-14.8-7.1-16.8-21.1-17.5-34.8c-1.1-21.1,5.1-35.9,23.9-44.5c1.8-0.8,3.8-1.1,5.7-0.6c1.3,1.2,1.4,3.1,0.2,4.4
	c-0.1,0.1-0.1,0.1-0.2,0.2c-6.7,0.5-11.3,4.6-14.1,10.1c-8.1,16.1-10.6,32.6-2.5,49.6C192.6,552.4,196.5,553.1,196.7,557z"/>
<path class="st0" d="M108.5,599.8l-5.2,5.6c-1.8,10.4,1.7,21.2-3.1,31.3c-0.1,0.9-0.1,1.9-0.2,2.8c-1.2,7.6,5.6,12.2,7.1,18.8
	c4,3.6,8.7,2.7,13.4,2.1c1.9-1,3.3-1.2,3.5,1.6c-12.4,5.9-20.5,4.5-30.4-5c-1.7-1.3-2.8-2.8-1.9-5c0.6-1.6-1-2.2-1.5-3.4
	c-0.3-11,0.9-22.1,0.7-33.1c-0.1-4.4,0.9-9-2.6-12.7l-5.5-3.2l10.6-0.5C98.5,597.5,103.6,596.8,108.5,599.8z"/>
<path class="st0" d="M183.3,417.1c4.9,1.4,1.5,4.8,1.6,7.3c-1.9,4.9,0.7,10.2-1.5,15c-2.7-6.4-6.5-11.3-14.5-9.7
	c-3.7,3-0.2,7.6-2.3,11c2.6,4.6-3.1,10.1,1.6,14.4c2.7,1.9,6.2-0.5,8.8,1.7c-0.1,2.8-2.3,2.2-4,2.3c-5.4-0.2-10.7,0.4-16.1-0.7
	c-1.6,0.3-4.1,0.6-4-1.3c0.1-3.2,3.5-3.2,5.8-4.1c3.9-3,0.3-7.6,2.5-11c-1.7-10.3,0.1-20.6-0.4-30.9c-0.2-5.2,2.3-11.6-6.1-13
	c12.4,0,24.8-0.3,37.2,0.2c4.4,0.2,8.7,9.5,7,13.5c-1.3,3-3.4,0.3-5.1,0.5c-5.2-2.4-8.1-8.5-14.6-8.9c-3.3-0.2-6.6-1.2-9.8,0.5
	c-2.1,6.1-0.9,12.3-0.3,18.5c0.5,0.9,1.1,1.8,1.9,2.4c2.1,1.3,4.1,0.9,6-0.5C179.9,422.4,180.8,419,183.3,417.1z"/>
<path class="st0" d="M37.3,526.3c1-10.1,2.4-20.3,1.2-30.5c5.5-0.2,4.4,4.3,4.4,7c0,12,1.3,24.2-1.1,36.1
	c-1.1,5.8,0.9,11.8-0.9,17.7c1.9-1,3.8-3,6.4-1.3c0.7,0.5,1.3,1.1,1.8,1.8c3.5,7,15.4,7.9,23.3,1.7c3.6-2.9,6.4-6.9,10.8-8.7
	c3.8,6,2.3,11.3-1.9,16.3c-2.9,1.8-6.2,2.6-9.6,2.4c-12.1-0.2-24.1-0.1-36.2,0c-4.5,0-8-0.9-6.6-6.7c9.3-8.3,4.6-20.1,7.6-30
	C37,530.2,36.1,528.1,37.3,526.3z"/>
<path class="st0" d="M47.9,556.7c-6.1-2.5-6.7,4.5-10.5,6.2c3.5-21,3.6-42,3.4-63c0-1.8-0.4-3.3-2.2-4.1c-1.4-1.5-2.2-3.7-5-3.7
	c-2.1,0-5.1-0.2-4.9-3.1c0.3-3.2,3.4-1.7,5.4-1.8c1.1,0,2.2,0.1,3.3,0.3c1.8,1.8,3.4,1.7,5.1-0.2c2.4-1.3,4.9-0.7,7.3-0.2
	c2.6,0.5,6.7-1.4,7.4,1.8c1,4.3-4.9,2.1-6.3,4.8c-1.4,9.6-2.2,19.3-2.3,29C48.5,534.1,48.9,545.4,47.9,556.7z"/>
<path class="st0" d="M346.2,719.9l4-5.1c2.2-0.1,2.6,1.6,3,3.2c0.4,2.5,0,5.1-1.1,7.3c-3.2,6.1-0.5,8.8,5.2,10.1
	c0.3,0.7,0.1,1.6-0.4,2.2c-1.7,2.8-5.2,3.9-8.2,2.5c-4.3-1.8-10,1.3-11.1,0.5c-6.9-5.3-15,1.7-21.4-3c-0.2-0.2-0.4-0.4-0.6-0.6
	c0.2-1.2,1-2.2,2-2.7c0.7-0.3,1.4-0.6,2.1-0.7c4-0.4,7.4-2.5,11.2-3.5c1.8-1.1,2.3-4.2,5.3-3.5c2.3,1.9-0.5,4.8,1.4,7.1
	C343.5,730.7,342.6,723.9,346.2,719.9z"/>
<path class="st0" d="M93.6,444.8l1.2-0.2c4-5.2-1-11.5,2-16.8c2.2,2.7,8.4-4.4,8.5,3.4l-1.7,1.7c-1,3.4-2.6,6.8-0.2,10.2
	c0.2,5.3,0.6,10.4,6.9,14.9H88.7C93.9,454.6,94.3,449.9,93.6,444.8z"/>
<path class="st0" d="M40.9,730.4c0.2,1.7-1.2,4.5,1.9,4.5c4,0.1,7.8-1.7,10.3-4.8c1.5-1.8,2.1-4.5,3.1-6.8c1.1-0.6,2.4,0,3.5-0.2
	c0.8-0.3,1.7-0.5,2.6-0.7c0.6,0,1.2,0.3,1.6,0.7c0.7,3.4-1.7,5.1-3.8,6.8c-3.1,2.4-6.9,5.6-4.4,9.2c2.3,3.3,5.5-1.8,8.6-1.9
	c0.9,0.7,1.3,2,1.1,3.1c-0.2,0.7-0.9,1.3-1.6,1.4c-5.1,1.2-10.8,5.7-13.5-3.8c-0.9-3-3.9,2.1-6.4,1c-0.3,0.5-1,0.6-1.5,0.3
	c-0.1-0.1-0.2-0.1-0.2-0.2c-3.4-0.8-6.8-4-10.2,0c-1.8,0.8-3.3,0.6-4.2-1.4c-0.1-0.8,0-1.7,0.3-2.5c3.4-2.9,6-7.1,11.2-7.4
	C40.9,728.1,41.8,728.8,40.9,730.4z"/>
<path class="st0" d="M141.2,602.7c-7.2,2.8-7.4,8.9-7.2,15.3c-1.8,9.2,0.5,18.5-1.2,27.7c-0.8,4.7-2.7,9.2-5.5,13
	c-2.8-0.2-2.5-1.7-1.6-3.5c0-3.3,2-5.7,3.6-8.3c1-13,1.7-26-0.4-39c-1.8-2.3-6.8-2.6-5.5-6.5s5.4-1.9,8.2-2.1
	c3.1-0.1,6.2-0.1,9.3,0.1c1,0.8,1.2,2.2,0.5,3.2C141.3,602.6,141.2,602.7,141.2,602.7z"/>
<path class="st0" d="M260,634.5c1.7,0.2,4.9-0.3,1.8,2.7c-2,2-5.6,2.4-5.6,6.2c-1.6,4.7,0.4,9.7-1.3,14.3c0.9,8.6-4.2,2.4-6.7,2.7
	c-2.2,0.8-3.4-0.3-4.3-2.1c0.2-1,0.5-2,0.7-2.9c0.7-1.4,1.2-2.9,2.7-3.6c3-2.2,0.3-6,2.4-8.4c0.3-5.1-3.4-5-6.8-5.3
	c-1.8-3.3,0.4-3.9,2.9-4C250.6,633.9,255.3,634.1,260,634.5z"/>
<path class="st0" d="M195.2,565.8c1.3-2.5,3.8-1.6,5.7-2.3c3.5-1.2-0.5-1.9-0.5-2.9c3.3-3.9,6.8,0,10.2-0.4c2.4,0.5,4.9-0.2,6.7-1.9
	c1-1.8,3.1-2.7,5-2.2c2.2,1.2,4,2.6,3.5,5.6C216.9,570.4,206.2,571.9,195.2,565.8z"/>
<path class="st0" d="M217.5,488.6c3.3,0.2,9.5,0.4,9.5,0.7c0.2,6.6,5.8,11.3,6.1,17.7c0.2,1.1-0.5,2.2-1.7,2.5
	c-2.3,0.6-3.8-0.7-5-2.3c-3.1-4.3-6.1-8.6-9.1-12.9C216.3,492.4,215.8,490.5,217.5,488.6z"/>
<path class="st0" d="M366.9,566.7c-0.5-2.7-1.4-5-4.8-4c-3.2,1-5.3-0.3-7-2.7c4.6,0.6,8.9-0.7,13.3-1.5c3.9-0.7,7.1-3.4,8.6-7
	c1.1-2.5,3.2-4.4,5.7-5.4c-1.4,6.8-1.9,12.9-4,18.4C376.4,570.4,370.9,566.1,366.9,566.7z"/>
<path class="st0" d="M173.3,458.3l3.4-1.5c1.2-2,3.8-0.3,5.1-1.8l3.4-1.9c2.2-2.8,4.9-5.1,8.1-6.8c1.4-0.5,2.4-3.7,3.7-2
	c2.6,3.4,0.2,7.4-0.3,11.1c-0.5,3-2.1,4.9-5.8,4.7c-5.8-0.3-11.7-0.3-17.5-0.4c-0.5-0.3-0.7-0.6-0.5-1S173.1,458.3,173.3,458.3z"/>
<path class="st0" d="M76.3,742.3c-2.1-11.2-7.7-2.1-11.7-2v-3.1c6.6-3.9,13.1-7.8,14.2-16.5c0.2-1.5,1.8-0.9,2.8-0.8
	c2.3,0.2,3.6-2.2,5.8-2.2c1.2,0.4,2.1,1,1.1,2.4c-1.7,4.8-8.3,5.8-8.7,11.5c-1.7,2.7-0.3,5.6-0.8,8.4
	C78.6,741.2,77.5,742,76.3,742.3z"/>
<path class="st0" d="M304.4,728.5l4.8-1.9c2.7,1.9-2,7,3.3,7.9c1,0.5,1.8,1.4,2,2.5c-3.8,3-7.2,8-12,1c-1.3-1.9-2.8,0.7-4.4,0.7
	c-2.8,0-5.6,3.2-8.4,0.1c0.2-1.1,0.9-2,1.9-2.5c1.3-0.5,2.9,0.1,4-1.2c1.8-2.5,5.5-0.6,7.2-3.3C302.3,730.5,303,729,304.4,728.5
	C304.4,728.5,304.4,728.5,304.4,728.5z"/>
<path class="st0" d="M225.9,561.6l-3.4-4.8c-0.9-1.2-1.1-2.3,0.4-3.2c5.2,0.1,5.2-5,7.6-7.7c1-1.1,1.7-3.3,3.8-1.8
	c1.4,1,2.3,2.4,1,4.3C232.1,552.7,231.3,558.8,225.9,561.6z"/>
<path class="st0" d="M275.6,725.2c1.5-3.8,3.7-5.2,6.2-0.9c1,1.7,1.4,2.9,3.5,2.3c1.6,0.8,2.7,1.8,1.5,3.7c-3.8,2-3.8,8.6-9.8,7.9
	c-2.5-3-0.9-6.5-1.1-9.8C275.6,727.4,275.5,726.3,275.6,725.2z"/>
<path class="st0" d="M288.6,497.4c-2-0.5-2.1-7.2-6.2-1.7c-2,2.7-3.5-1.6-5.6-1.8c-1.1-8,6.8-4.9,10-9
	C287.5,489.8,288,493.6,288.6,497.4z"/>
<path class="st0" d="M135,721.8c2.9-0.8,3.3,0.7,3.1,3.1c-0.2,3.9-0.3,7.8-0.4,11.7l-0.2,2.2c-3.6-0.1-0.4-9.3-7.1-5.3l-1.5-2
	C128.6,726.8,131.8,724.3,135,721.8z"/>
<path class="st0" d="M193.9,798.1c-1.2-5,1-10.4-2-15.1l-0.1-0.1c-1.5-1.3-5.6,0.8-5-3.6c6.8-4.1,9.7-1.7,9.1,5.7
	c-0.4,4.5,2.5,8.6,1,13.1c-0.6,0.8-1.8,1-2.6,0.4C194.2,798.3,194,798.2,193.9,798.1z"/>
<path class="st0" d="M132.7,431.2c-8.8-1.2-2.3-7.7-3.5-11.5c-1.1-3.5,0.7-8.6,3.3-12.3C132.6,415.3,132.6,423.2,132.7,431.2z"/>
<path class="st0" d="M222.5,737.1l2.1-2c4,1.5,7.4-1.2,11.1-1.8c1.5-0.2,3.4-2.2,4.3,0.1c1.1,2.7-1.9,3.1-3.3,3.3
	C232,737.4,227.3,744.4,222.5,737.1z"/>
<path class="st0" d="M243.9,658.4l4.3,2.1c-5.4,4.1-11.2,4.4-17.2,1.5c0.5-1.1,1.1-2.1,1.7-3.2C236.4,659.7,240.3,659.5,243.9,658.4
	z"/>
<path class="st0" d="M286.8,730.3c-0.5-1.2-1-2.5-1.5-3.7l1.9-3.1l0,0c2.3-3.8,4.4-3.7,6.4,0.2c-1.8,1.7-1.4,3.9-1.7,6
	c-1.4,2.4-0.6,4.8,0.1,7.2c-0.8,0.6-1.6,1.3-2.4,1.9c-0.4,0.1-0.8-0.1-0.9-0.5c0-0.1,0-0.1,0-0.2
	C286.5,735.9,289.7,732.3,286.8,730.3L286.8,730.3z"/>
<path class="st0" d="M128.8,607.9c4,4,1.9,9,1.8,13.5c-0.3,8.5,2,17.2-1.4,25.5C129.1,633.9,129,620.9,128.8,607.9z"/>
<path class="st0" d="M47.7,804.7c-0.3-0.2-1.9-1-1.8-1.4c1.3-5.4,2.1-10.7-0.8-16c0.5-0.5,1.1-0.9,1.7-1.1c1-0.3,2,0.2,2.3,1.1
	c0,0.1,0.1,0.3,0.1,0.4c0.7,4.8-0.6,10,2.7,14.5C52.5,803.1,50.4,804.9,47.7,804.7z"/>
<path class="st0" d="M147.6,792.6c-0.2,2.4-2.2,3.7-3.4,5.4c0,4.8,3.4,1.7,5.2,2.2l4.4-0.6c-0.9,1.1-0.3,3.1-2.1,3.7
	c-3.1,0.9-6.4,0.9-9.4-0.1c-2.6-0.8-3.8-2.1-1.9-4.8s3.8-5.9,5.7-8.9C147.5,790.1,148.4,791,147.6,792.6z"/>
<path class="st0" d="M271.9,730.9c0.2,4.2-4,6-5.2,9.4c-7.5,4.6-4.4-2.2-5.2-4.8c-0.5-0.6-0.7-1.4-0.8-2.2c1.6-3.2,2.9-1.6,4.2,0.2
	C268.1,735.1,268.8,729.7,271.9,730.9z"/>
<path class="st0" d="M149.4,783c-2-1.2-4.1-3.7-5.6,0.6c-0.4,1.2-1.4,2.7-3.1,1.7s-1.7-2.8-0.8-4.4c3-5.2,6.5-6.6,11-1.6
	C150.3,780.5,150.9,782.2,149.4,783z"/>
<path class="st0" d="M62.8,803.9c-3.6-5.5-0.6-11.5-2.2-17.2C67.1,791.9,63.3,798.1,62.8,803.9z"/>
<path class="st0" d="M39,728.4c0.4-1.9,3.2-4,0-5.5c-3.4-1.6-5.9,1.2-8.6,2.9c0.9-8.2,7-5.7,11.8-5.8c3.2,3.9,2.2,7.3-1.4,10.4
	L39,728.4z"/>
<path class="st0" d="M165.2,799.6c-5.9-4.3-3.4-9.9-2.3-15.3c2.5-0.7,2.9,1.3,3.6,2.9c0.4,3.9,1.5,7.7,0.8,11.7
	c-0.2,0.7-0.9,1.1-1.5,0.9C165.5,799.8,165.4,799.7,165.2,799.6z"/>
<path class="st0" d="M68.5,708l-2.1-2c0.9-3.6,1.7-7.2,6.8-4.8c0.3,3.6-0.9,6.8-2.1,10.1C67.8,712.1,69.3,709.1,68.5,708z"/>
<path class="st0" d="M149.4,783l1.5-3.6c2.6,2.3,2,5.3,1.8,8.3c-1.9,1.4-2.5,4.3-5.1,5l-1.5-3.1C146.6,787.1,150.1,786.1,149.4,783z
	"/>
<path class="st0" d="M321.8,721.7c3.6,5.3-3.8,8.6-2.5,13.5h-1.7c-1.2-0.8-1.8-2.1-1.7-3.5c1.8-3.8,5.7-7.2,1.7-11.9
	C319.5,719.2,320.6,720.5,321.8,721.7z"/>
<path class="st0" d="M165.2,799.6l2-0.2c2.6-2.1,4-5.5,7.2-6.9c1.9,0.6,1.1,2.7,2,3.8l-0.3,3.3C170.3,804.5,169,804.5,165.2,799.6z"
	/>
<path class="st0" d="M132.7,645.7c0.2-9.3-1.9-18.6,1.2-27.7C133.8,627.3,135.1,636.6,132.7,645.7z"/>
<path class="st0" d="M217.5,488.6l-0.2,5.7c-3.2-1.7-6.2-4-10.1-4v-4.6l1.7-0.1c2,2.1,4.8-0.2,6.9,1.5L217.5,488.6z"/>
<path class="st0" d="M27.2,794.2c-2.8-1.5-4.3-3.3-1.6-6.2c2-3.7,5.3-2.7,8.4-2.2c1.6,0.8,2.5,2,1.7,3.9c-1.5,1.2-3.7,0.9-5.1,2.4
	C29.7,793.1,28.5,793.8,27.2,794.2z"/>
<path class="st0" d="M85.1,799.6c2.8,0.1,5.5,0.6,8.2-0.7c3.3-1.5,1.8,1.3,2,2.5c-4,2.9-8.1,4-12.3,0.3
	C82.6,799.9,83.3,799.3,85.1,799.6z"/>
<path class="st0" d="M85.1,799.6l-2.1,2.1c-5.1-4.7-3.8-9.3,0.2-13.8c1,0.1,1.8,0.8,2,1.8C83,793,82.6,796.3,85.1,799.6z"/>
<path class="st0" d="M193.6,728.4c0,1.7-0.1,3.4-0.1,5.1c-0.8,1.2-1.3,2.9-3.4,1.8l-5,1.5c-0.9-0.7-1-2-0.3-2.9
	c0.1-0.1,0.2-0.2,0.3-0.3C188,732,189.8,728.5,193.6,728.4z"/>
<path class="st0" d="M190.1,735.3l3.4-1.8c-0.2,4.8,5.1,2.1,6.4,4.8l1.9,0.2C196.7,742,192.4,742.1,190.1,735.3z"/>
<path class="st0" d="M260,634.5c-3.7,2.2-7.5-0.3-11.3,0.4c-2.4,0.4-5.3-0.6-5.8,3.2c-3.3-2.7-2.7-4.7,1.5-4.7
	C249.6,633.5,254.8,634.2,260,634.5z"/>
<path class="st0" d="M193.9,798.1h3c1,1.3,1.6,3,3.6,3.3c0.5,2-0.8,2.5-2.4,2.6c-2.9-0.1-5.8,0.3-8.6-0.5l-2.4-0.4
	C188.6,800.3,192.8,801.3,193.9,798.1z"/>
<path class="st0" d="M174.8,734.7l-1.4-2.4l5-4c1.5,0.1,3,0.3,3.8,1.8l-0.2,3c0.8,1.6-0.1,2-1.5,2
	C178.8,731.3,176.6,735.5,174.8,734.7z"/>
<path class="st0" d="M27.2,794.2l1.6-2.4c2.4-2.3,3.7-0.1,5.1,1.3c1.5,2.7,6.6,4.5,2,8.6c-1.1-0.2-2.1-0.8-2.9-1.7
	c-1.6-1.5-2.6-3.5-4.1-5L27.2,794.2z"/>
<path class="st0" d="M220.9,801.9c-2.1,3.3-4.8,4.3-7.7,1.9c-1.9-1.5-4.6-4,0.4-5.5C214.5,802.2,218.7,800,220.9,801.9z"/>
<path class="st0" d="M264.9,733.5c-1.1-0.1-2.2-1.9-3.3,0c-1.8,0.7-2.1-0.1-1.7-1.7c1.3-3.1,3.5-5.6,6.4-7.3
	C268.3,728.4,264.9,730.6,264.9,733.5z"/>
<path class="st0" d="M182.1,730.2c-1.5-0.2-3-0.2-3.8-1.8l7.8-6.6C185.3,725.1,185.9,728.8,182.1,730.2z"/>
<path class="st0" d="M34.3,799.8l1.6,2c-4.1,5.9-7.4,2.7-10.3-1.1c-0.5-0.6-0.6-2.4,1.3-2c0.7,0.3,1.4,0.8,2,1.3
	C30.6,799.5,32.4,799.4,34.3,799.8z"/>
<path class="st0" d="M176.4,796.3c-0.5-1.2-1.1-2.5-1.7-3.7c-2.9-3.8-4.5-7.7-1.5-12.3l1.5,0.8l1.7,1.7
	C177.1,787.3,177.5,791.8,176.4,796.3z"/>
<path class="st0" d="M355.3,710.1c-1.8,2.6-1,6.2-3.6,8.5l-1.5-3.7c-0.9-3,1.2-4.9,2.7-7.1C354.8,707.4,355.8,708,355.3,710.1z"/>
<path class="st0" d="M85.3,789.7l-2-1.8c3.8-3,7.3-3.7,10,1.3L85.3,789.7z"/>
<path class="st0" d="M103.2,802c0.6-0.7,1.3-1.5,1.9-2.2c2,1.9,4.4,1.5,6.8,1.5c1.9-0.8,2.2,0.2,1.9,1.7c-3.5,2.9-7,2.1-10.5,0.2
	C103.3,802.8,103.3,802.4,103.2,802z"/>
<path class="st0" d="M88.5,737c0-0.5,0.1-1,0.3-1.6l7.4-3.2c2.3,3.9-2.5,4-3.3,6.2l-2.7,0.5C89.2,738.7,88.5,737.9,88.5,737z"/>
<path class="st0" d="M173.3,458.3v1.4c-5.5,0.2-11,0.6-16.3-1.3L173.3,458.3z"/>
<path class="st0" d="M183.4,439.4c0.4-5-1.6-10.3,1.5-15C184,429.3,185.7,434.5,183.4,439.4z"/>
<path class="st0" d="M71.1,793.3c-0.4-0.4-1.1-0.9-1-1.2c0.5-3-5.1-1.7-3.5-5.2c0.5-0.6,1.3-0.9,2.1-0.8c2.5,0.4,4.4,2.6,4.3,5.1
	C72.3,792,72.1,793.1,71.1,793.3z"/>
<path class="st0" d="M180.4,735.2l1.5-2l3.3,0.4v3.2c-2,0.3-1.1,4.2-3.8,3.3S180.3,736.9,180.4,735.2z"/>
<path class="st0" d="M91.6,699.2c1.3-1.9,3.3-2.4,4.8-0.9c1.7,1.7,0.8,4.1,0,6.2c-1.1,0.5-1.8-0.1-2.6-0.7c-1.1-0.7-2-1.7-2.7-2.7
	C91,700.4,91.2,699.7,91.6,699.2z"/>
<path class="st0" d="M103.5,443.1c-5.3-3.5-1.8-6.8,0.2-10.2L103.5,443.1z"/>
<path class="st0" d="M315.8,731.7c1.4,0.8,1.6,2.1,1.7,3.5l-1.8,1.7l-0.6,0.1h-0.6l-2.1-2L315.8,731.7z"/>
<path class="st0" d="M255,657.8c0.3-4.8-1.7-9.8,1.3-14.3C255.5,648.3,256.9,653.2,255,657.8z"/>
<path class="st0" d="M71.1,793.3l1.8-2c0.7,4.1,1.8,8.3-0.8,13.4C69.9,800.3,71.6,796.7,71.1,793.3z"/>
<path class="st0" d="M181.8,455.1c-1.3,1.9-3.3,1.5-5.1,1.8c-2.8-0.8-6.1,0.9-8.5-1.8L181.8,455.1z"/>
<path class="st0" d="M28.8,737.2c-1.6,0.1-3.2,0.1-3.6-2v-3.4c0.6-1.9,2-2.4,3.8-2.3c0,1.8,0,3.7-0.1,5.5
	C28.9,735.7,28.8,736.4,28.8,737.2z"/>
<path class="st0" d="M377,551.4c-0.4,5.4-3.6,7.3-8.6,7L377,551.4z"/>
<path class="st0" d="M276.6,726.2c-0.5,2.9-2.7,3.7-5,4.6c1.8-1.3-2.2-2.9,0.1-4.2l3.9-1.4C275.8,725.7,276.2,726.1,276.6,726.2z"/>
<path class="st0" d="M49,776.4c0.4,0.7,1.5,1.6,1.5,2.4c0,1.3-0.9,2.3-2.2,2.4c-0.2,0-0.4,0-0.5,0c-1,0-1.8-0.8-1.8-1.9
	c0-0.1,0-0.3,0-0.4C46.1,777.5,46.8,776.3,49,776.4z"/>
<path class="st0" d="M125.6,655.2l1.6,3.5c0,2.2-1.2,3.1-3.2,3.3l-3.5-1.6L125.6,655.2z"/>
<path class="st0" d="M42.5,487.3c-0.3,1.8-0.3,4.1-2.8,3.8c-1.8-0.2-2.1-2.1-2.3-3.7L42.5,487.3z"/>
<path class="st0" d="M166.6,440.6c0.7-3.7-2.1-8.1,2.3-11C168.1,433.3,167.4,437,166.6,440.6z"/>
<path class="st0" d="M91.6,699.2c0,0.7,0.1,1.3,0.1,2c1,3.3-1.2,4.5-3.6,5.6c-1.3-0.3-2.5-0.7-1.6-2.4c0.1-0.5,0.2-1,0.2-1.5
	L91.6,699.2z"/>
<path class="st0" d="M249.7,643.5c-0.7,3.3,1.8,7.4-2.1,10c-0.7-1-0.6-2.4,0.3-3.3L249.7,643.5z"/>
<path class="st0" d="M188.3,646.9c-6,1.3-3.6-2.5-3.1-5.2L188.3,646.9z"/>
<path class="st0" d="M88.4,720.1l-1.5-1.8c-1.3-3.3,1-4.5,3.3-5.7c1.4,0.2,2.5,0.6,1.6,2.4L88.4,720.1z"/>
<path class="st0" d="M165,788.2c-0.5-1.4-0.5-3-2.1-3.8l0.3-3.1c0.4-0.2,0.9-0.2,1.4-0.3c0.6-0.7,1.7-0.7,2.3-0.1
	c0.1,0.1,0.1,0.1,0.2,0.2C168.2,784.1,169,786.8,165,788.2z"/>
<path class="st0" d="M378.7,735l-1.9-1.7c1.5-1.5,3.1-3,6.1-3.2C383.2,733.5,380.8,734.1,378.7,735z"/>
<path class="st0" d="M355.3,710.1l-2.4-2.3c0.3-1.5,0.4-4,2.3-3.5c2.9,0.6,0.9,3.5,1.4,5.3C356.2,709.8,355.7,709.9,355.3,710.1z"/>
<path class="st0" d="M315.8,722c-2.1,1.2-3.6,4-6.7,3.2C310.6,722.6,311.3,718.2,315.8,722z"/>
<path class="st0" d="M86.5,704.4l1.4,1.8c1,4-0.9,5.3-4.6,5l-0.1,0.1V708C84.3,706.8,85.4,705.6,86.5,704.4z"/>
<path class="st0" d="M27.2,404l3.2,1.7c-0.4,2-1.4,4.5-3.4,3.8C24,408.1,26.2,405.8,27.2,404z"/>
<path class="st0" d="M259.9,731.8l1.7,1.7c-0.1,0.7-0.1,1.3-0.2,2c-1.7-0.6-4.5,1.2-5.1-1.1C255.7,732.3,258.6,732.6,259.9,731.8z"
	/>
<path class="st0" d="M199.4,803.4c1.1-0.3,1.8-0.9,1.1-2.1c2.8-1.5,2.7,0.4,2.3,2.1c-0.7,2.7-2.5,2.3-4.4,1.2
	c-0.1-0.5,0.2-1.1,0.8-1.2C199.2,803.4,199.3,803.4,199.4,803.4z"/>
<path class="st0" d="M161.3,442.1c-0.7,3.7,2.2,8.2-2.5,11C159.6,449.4,160.4,445.7,161.3,442.1z"/>
<path class="st0" d="M146.1,499.1c-3.1-0.1-4.9-1.6-5.1-4.8C143.8,494.7,145.1,496.7,146.1,499.1z"/>
<path class="st0" d="M215.8,487.2c-2.5,0.3-5.3,2.3-6.9-1.5C211.4,485.3,213.9,484.8,215.8,487.2z"/>
<path class="st0" d="M286.7,730.3c3.7,1.8,1.5,5.3,2.1,7.9C285.6,736.3,287.8,732.8,286.7,730.3z"/>
<path class="st0" d="M94.8,702.5l1.6,1.9c-0.5,2.2-0.8,4.4-2.7,5.9c-0.8-0.5-1.4-1.3-1.7-2.2C91.7,705.7,91.7,703.3,94.8,702.5z"/>
<path class="st0" d="M113.8,803.1l-1.9-1.7c1.4-1.5,3.9-3.8,5-2.4C118.6,801.2,115.8,802.3,113.8,803.1z"/>
<path class="st0" d="M185.6,661.9l-0.7-8.2c3.2,2,1.5,5.3,2.1,8C186.5,661.8,186.1,661.9,185.6,661.9z"/>
<path class="st0" d="M93,707.3l0.7,3c0.2,1.7-0.5,3.5-1.9,4.6l-1.6-1.8C88.9,710.2,90.2,708.4,93,707.3z"/>
<path class="st0" d="M142.3,803.3l9.4,0.1C148.6,805.7,145.4,804.8,142.3,803.3z"/>
<path class="st0" d="M122.3,735.2c2.3-1.4,2.7,3.1,5.1,1.7C124.6,739.5,122.8,739.4,122.3,735.2z"/>
<path class="st0" d="M199.4,803.4c-0.4,0.4-0.7,0.8-1,1.2c-2.9-0.6-6.1,1-8.8-1.2L199.4,803.4z"/>
<path class="st0" d="M307.3,629.9l-4.8-3.3l2.5-6.5C308.4,623.1,308,626.5,307.3,629.9z"/>
<path class="st0" d="M192,651.8c-2.7-0.5-2.5-3.3-3.7-4.9c-2.5-0.8-2.4-3.3-3.1-5.2c-3-5.4-3-9.6,3.8-12.4c5.1-2.1,7-7.2,7.5-12.3
	c1-8.8-5.8-13-11.3-17.9c-8.4-1.7-16.6-6-25.5-1.8l-7.9,0.5c-1.6,0.1-2.7,1-2.5,2.5c0.2,1.6,1.6,2.8,3.2,2.7c0.1,0,0.2,0,0.3-0.1
	c4.5-0.9,5.4,1.9,5.4,5.4c-0.2,14.4-0.5,28.8-0.8,43.1c-0.1,2.8-0.3,5.7-4.1,6.3c-1.4,0.2-2.3,1.5-2.1,2.9c0,0.1,0,0.3,0.1,0.4
	c0.5,1.6,2.3,1.4,3.5,1.5c4.8,0.4,9.5,0.7,14.3,1c5.3-0.8,6.1-2.6,2.3-7c-4.6-5.3-4-11.6,0.8-17.8c4.3,4.9,6.6,11.1,10.8,16
	c1.9,2,1.5,5.2,3.8,6.9l-0.2,0.6c1.7,0.9,3.4,1.6,5.2,0.2c3.6-0.4,7.7,0.5,9.7-3.9C199.6,654.6,195.4,653.8,192,651.8z M173,628
	c-9.1-1.2-5.3-9-6.5-14.2c1.3-4.7-2-11.8,6.6-12.2c8.3-0.4,14.8,5.7,15,13.4C188.2,621.3,179.9,628.9,173,628L173,628z"/>
<path class="st0" d="M365,607.9L365,607.9L365,607.9L365,607.9z"/>
<path class="st0" d="M381.3,658.8c-7.8-3.9-9.7-12-13.8-18.6c-3.3-5.3-5.9-10.2,2.3-13.6c1.6-0.7,2.5-3,2.5-5.1
	c2-0.4,1.5-2.2,1.8-3.5c2.7-5.2,2.3-9.7-2.5-13.5l-4.7-2c-2.3-2.9-5.6-3.2-9-3.3c-8.3,0-16.7,0-25,0c0.4,4.7,7.2,4.6,6.9,10.7
	c-0.7,14.5-0.2,29.1-0.2,43.7c0.3,5.5-6.5,3.2-8.3,7.6c8,1.7,15.7,1,23.3,0.7c2.4-1.9,0.8-3.6-0.6-4.8c-3.4-2.9-4-6.6-3.7-10.6
	c0.3-3.5-1.7-8.4,1.8-10.1s4.2,4.5,7.5,5.4c4.3,6.7,7,14,7.2,22.1c5,1.3,10.3,1.3,15.3,0C383.4,661.9,383.5,659.9,381.3,658.8z
	 M358.4,626.5c-3.3-0.8-8.8,2.1-9.7-2c-1.3-5.7-3.5-12.1-0.6-18c2.1-4.2,11.4-3.1,17,1.5l0,0v0.2c0.8,2.5,3.4,4.8,2.5,7.5
	c0.2,0.5,0.4,1,0.7,1.5c-0.4-0.1-0.9-0.1-1.4-0.1c-0.1,0.2-0.3,0.4-0.5,0.6c-1.6,0.8-1.1,2.3-1.2,3.5
	C363.9,624.4,361,625.3,358.4,626.5z"/>
<path class="st0" d="M366.4,617.8c-0.5-3.3-1-6.6-1.5-9.9c3,2.7,5.4,5.7,3.7,10.1L366.4,617.8z"/>
<path class="st0" d="M358.4,626.5l6.8-5.2C365,625.8,362.1,626.6,358.4,626.5z"/>
<path class="st0" d="M72.9,648.6c-1.9-2,0.2-5.7-3.1-7.1c0.8-3-1.5-4.7-3-6.5c-2.7-3.3-4.6-4.8,0.4-9.1c8.4-7.2,4.1-21.8-6-24.6
	c-11.9-4.7-24.2-3.3-37.3-2.9c7.5,2.7,8.9,8.4,8.9,14.9c-0.1,13.3-0.2,26.5-0.2,39.8c0,4.7-3.1,5.5-6.7,5.9c-1.4,0.8-1.3,2-0.7,3.3
	c1.9,3,4.8,0.9,7.1,1.4c9.6-0.6,19.3-0.1,28.9-1.2c3.8-0.8,7.2-2.8,9.9-5.5C72.5,654.4,73.1,651.5,72.9,648.6z M59.1,604.6
	c5.1,12.5,2.3,19.4-9.8,23.8c-3.9,0-6.4-1.5-6.3-6c0-2.3-0.1-4.5-0.4-6.8C41.2,602,47.3,598.8,59.1,604.6L59.1,604.6z M64,648.1
	l-0.2,0.3c-0.3,1.7-0.7,3.5-1.4,5.1c-1.7,1.4-3.3,3.1-5.2,4.1c-8.7,4.7-15.5,1.2-16.2-8.4c-0.3-4.2-0.3-8.4,0.2-12.6
	c0.6-4.4,2.9-7.3,8-5.3c6-0.6,10.1,2.4,13.2,7.2c1.3,2.7,1.8,5.6,1.5,8.6c0.1,0.3,0.2,0.5,0.4,0.8L64,648.1z"/>
<path class="st0" d="M62.4,653.5c1.8-5,0.7-10,0.1-15c4.1,2.5,2.3,6.6,2.5,10.1C64.5,650.4,64.9,652.8,62.4,653.5z"/>
<path class="st0" d="M96.8,427.7c0.3,4.1,0.7,8.3,0.7,12.4c0,1.8,1.2,4.9-2.8,4.5l0.1-23.6C100.4,421.9,95.4,425.7,96.8,427.7z"/>
<path class="st0" d="M310.1,562.9c-11.1-20.5-15-43.5-21.5-65.5c-1.7-8.9-7.7-2.8-11.8-3.5l0,0l-15.3,42.5c-1.2,0.7-2.1,1.9-2.6,3.2
	c-2.5,8.3-4.6,16.7-12.1,22.3c-1.4,1-2.4,3.3,0.1,4.9l7.9,0.5c2.8,0.6,5.7,2,8.5,0c2.2-0.5,6.1-0.3,2.2-4.1
	c-1.3-1.3-4.5-1.4-3.8-3.7c2.2-7.1,1.4-15.8,10-19.7c3.4,0.1,6.8,0.3,10.1,0.1c7.7-0.4,10.7,4.4,11.7,10.7c0.7,4.5,4.7,11.2-5,11.5
	c-0.7,0-1.7,1.5-1.9,2.4c-0.3,1.8,1.2,2.4,2.7,2.4c6.2,0.1,12.4,0.2,18.6,0.1C310.9,567.1,311.8,566,310.1,562.9z M285.4,533.1
	c-15.8,0.3-15.8,0.3-11.2-14.5c1.6-5.3,3.2-10.7,4.8-16c5.1,1.8,3.6,6.6,4.7,10.2c0.9,2.8,1.9,5.7,2.8,8.5c3.5,1.4,0.2,5,2.2,6.8
	C288.3,530.3,286.9,531.8,285.4,533.1z"/>
<path class="st0" d="M288.7,528.2l-2.2-6.8C293.3,521.7,287.8,526,288.7,528.2z"/>
<path class="st0" d="M293.5,531.3v5.7C291.6,535.1,292.2,533.3,293.5,531.3z"/>
<path class="st0" d="M168.1,402.3c-0.1,7.3-0.2,14.7-0.3,22C166.1,416.9,164.6,409.6,168.1,402.3z"/>
<path class="st0" d="M169.9,426.1l8.3-0.5C175.6,429,172.8,428.3,169.9,426.1z"/>
<path class="st0" d="M68.5,708l2.6,3.3c-1,2.4-0.7,5.3-3,7.1c-1-0.2-1.8-0.9-2-1.9L68.5,708z"/>
<path class="st0" d="M66.1,716.4l2,1.9c-0.6,2.2-0.9,4.7-4,4.8l-0.5,0.2C62.6,720.5,64.6,718.5,66.1,716.4z"/>
<path class="st0" d="M62.7,713.4c0.8,4-6.1,7-1.6,11.5c-2.9,3.5-3.2-1.1-4.8-1.5C58.5,720.1,56.5,714.1,62.7,713.4z"/>
<path class="st0" d="M173.4,732.3c-2.2-1.3-2.8,3.7-5.3,1.3c-2.4-1.8-3.6-3.9-1.6-6.8c1.9-5.9,0.5-7.3-6.9-7c-3,1.2-5.7,2.7-5,6.7
	c2.4-0.5,3.4-3,5.2-4.3c4.3-0.9,4.5,1.7,2.6,4c-2.5,3.1-4.3,7.1-8.9,8.3c-1.3-2.8,1.4-5.2,0.8-7.8c-2.9,0.8-3.9,3.8-6.2,5.3
	c-3.9,0.9-7.7,2-11,4.5c-0.1,0-0.2,0.3-0.3,0.8c-0.1,0.5,0.1,1.1,0.5,1.4c0.3,0.4,0.7,1.2,1,1.2c11.4-0.8,22.5-4.5,34.1-3.1
	c1.1,0.1,2-0.8,2.2-2.1c0.3-1-0.2-2-1.1-2.3C173.6,732.3,173.5,732.3,173.4,732.3z"/>
<path class="st0" d="M78.4,740.1c1.8,0,3.8,0.7,5-1.4l5.2-1.8l1.6,1.8c-4.3,2.3-7.9,7.6-13.9,3.5L78.4,740.1z"/>
<path class="st0" d="M173.3,779.5c-1.7,2.2-4.3,1.2-6.5,1.8l-2.3-0.3C166.9,777.3,169.3,773.7,173.3,779.5z"/>
<path class="st0" d="M134.4,700.1c-3-0.8-5.1,1.2-5.3,4.6c-2,1-1.3,3.2-1.9,4.8c-2.4,3-3.5,6.7-3.1,10.5c-1,5.9-3.5,10.9-9,13.8
	c2.5,3.2,5.3-1,7.2,1.5c1.6,0.9,2.5,3.9,5.1,1.7c1.9-0.4,2.6-1.8,3.1-3.4c-0.2-0.9-0.6-1.8-1.1-2.7c-0.8-3.4,3.6-5.3,2.4-8.8
	l0.3,0.1l0.5-0.5l1.2-1.9c0.4-1.6,0.8-3.1,1.2-4.7l0,0c2.2-2.6,0.8-5.9,1.8-8.8C137.7,703.8,137,700.7,134.4,700.1z M132.8,714.9
	l-3.7,5.2l-3.2-0.2l2.7-8.5c0.7-1.6,1.5-3.3,2.2-4.9C135,708.4,132.1,712.1,132.8,714.9L132.8,714.9z"/>
<path class="st0" d="M222.6,782.8c0,3.9-0.9,8-5.6,6.9c-5.7-1.3-2-5.7-1.3-8.8c2.9-1.9,4.5,1.3,6.8,1.7c-0.9-5.7-3.3-7.4-8.2-3.2
	c-5.5,6.6-4.6,14.3,2.2,14.4c5.8,0.1,3.3,4.4,6.9,7.2C223.6,794.1,228.6,788.6,222.6,782.8z"/>
<path class="st0" d="M113.8,787.9c-2.8-1.7-5.4-3-8.3-1.1c-2.1,1.4-3.5,3.6-4,6.1c0.2,3.1-1,6.4,1.7,9.1c1.2-0.2,1.5-1.3,1.9-2.2
	c-1.3-5.3,2.9-3.4,5.1-3.8c2.5-0.4,5.6,0,6.4-2.7C117.2,791.5,116.1,789.3,113.8,787.9z M111.7,791c-0.3,1.3-1.5,1.3-3,1.2
	c-0.3-0.2-1.1-0.6-1.2-1.2c-0.3-1.8,1.3-1.3,2.2-1.3S112.1,789.2,111.7,791L111.7,791z"/>
<path class="st0" d="M376.8,733.3c-4.4-0.1-8,5.6-13.4,1.7c2.5-4.2,8.8-5.7,8.3-11.7c0.9-2.6-0.3-5.3-2.6-4.9
	c-3.8,0.6-8.6,1-9.3,6.5l-1.8,8.4l0.7-0.6c-0.2,0.3-0.4,0.5-0.7,0.6l-1.4,1.5c0.1,0.9,0.3,1.9,0.4,2.8c7.8,3.6,15,2.7,21.7-2.7
	C378.9,733.5,378.7,732.5,376.8,733.3z M370.5,723.3c-2.8,2.2-3.9,6.7-8.5,6.7C362.7,725.1,363.1,719.8,370.5,723.3L370.5,723.3z"/>
<path class="st0" d="M149.4,800.3c-1.5,1.6-4,1.8-5.7,0.4c-1-0.7-0.5-1.9,0.5-2.6C144.8,801.6,147.5,799.9,149.4,800.3z"/>
<path class="st0" d="M152.5,507.7l-6.4-8.6c-2.1-1.2-3.8-2.8-5.1-4.8c-4.5-2.3-8.3-5.4-13.9-5.8c-11.2-0.8-16.5,6.2-21.6,14.1
	c-8,17.8-8.5,35.3,2,52.4c2.7,2.8,5.2,5.9,8.2,8.4c11.4,9.2,22,7.9,31.6-3.2c3.9-4.6,5.6-10.3,8.8-15.2
	C159.5,532.1,158.7,519.6,152.5,507.7z M148.7,539.5c-0.4,1.4-0.8,2.7-1.4,4c-4.6,12.9-10.1,18.6-17.4,17.9
	c-9.8-0.9-19.8-12-20.9-23.6c-0.3-3.1,0-6.2,0-9.3c-0.2-7.7,0.4-15.2,3.6-22.3c7-15.6,19.5-15.8,30.4-3.5
	C152.4,513.3,151.6,526.4,148.7,539.5z"/>
<path class="st0" d="M230.1,708.2c-1.8,7-7.2,9.5-13,11.6c-0.3,0.5-0.5,1-0.6,1.5c-2.7,0.9-3.8,3.7-6,5.3c0,0.3,0.1,0.6,0.1,0.9
	c-2.5,0.3-3.7,2.3-5.2,3.9c-1.1,0.9-3.1,0.2-3.7,2c-2,1.2-2.8,2.8-1.9,5.1c0.4,0.5,1.1,0.7,1.6,0.3c0.1-0.1,0.2-0.2,0.3-0.3
	c1-0.4,2.6-1.4,2.9-1.1c5.5,5.8,10.2,3.6,14.7-1.3c0.3-0.3,1.9,0.6,3,1c1.1-0.2,1.9-1,2.2-2C223.6,725.6,231.2,717.9,230.1,708.2z
	 M208.9,738.6l3.7-10.2c0.6-2.5,2.3-4.7,4.7-5.7c2.2,0.3,3.4-3.2,6.5-1.4C221.9,728.4,218,733.9,208.9,738.6z"/>
</svg>
