<?xml version="1.0" encoding="utf-8"?>
<!-- Generator: Adobe Illustrator 24.0.2, SVG Export Plug-In . SVG Version: 6.00 Build 0)  -->
<svg version="1.1" id="レイヤー_1" xmlns="http://www.w3.org/2000/svg" xmlns:xlink="http://www.w3.org/1999/xlink" x="0px"
	 y="0px" viewBox="0 0 406.8 331.2" style="enable-background:new 0 0 406.8 331.2;" xml:space="preserve">
<style type="text/css">
	.st0{fill:#F7F7F7;}
</style>
<title>menu_logo</title>
<path class="st0" d="M195.6,321.6c35.2,1.1,70.3,0.6,104.9-7.4c1.2-0.4,2.3-0.8,3.4-1.4c3.1-2.7,7.1-2.1,10.8-2.9
	c36.3-10.2,67.2-27.3,81.8-64.9c1.1-2.8,1.5-7.4,6.2-5.3c4.5,2,3.8,5.8,1.8,9.5c-17,30.2-39.7,53.4-74,63.8
	c-21.9,6.6-44.4,11.1-67.2,13.6c-8.3,3.5-17.1,3-25.8,2.7l-0.6-0.2l-0.6,0.3c-11.9,3.4-24-0.4-35.9,0.7c-16.7,1.2-33.4,2.3-49.8-2
	c-9-1.3-18.2-0.8-27.1-3.1c-6.6-3.2,0.2-6.3,0.1-9.4h6c4,0.4,8.3-0.5,12,1.7l0.4,0.4l0.5-0.2c4,1.9,8.7-2,12.6,1.4l0.4,0.3l0.4-0.2
	C169.1,319.5,182.4,320.3,195.6,321.6z"/>
<path class="st0" d="M123.5,315.6c2.3,3.2-3.1,6.3-0.1,9.4c-21.2-1.5-41.6-6.7-61.3-14.4c-3.2-1.2-6.3-2.5-9.4-3.8
	c-1.5-0.8-2.7-2.2-4.4-2.8c-2.5-2-5.1-4-7.6-6.1c-0.4-0.6-0.9-1-1.5-1.4c-1.1-0.5,0.3-5.1-2.9-1.8c-7.8-4.9-13.1-12.2-18.1-19.6
	c-1.5-2.2-3.2-4.9-0.9-7.5c2.1-2.4,5.2-2,7.7-1.2c3.4,1,6.4,2.9,8.8,5.5c24.3,25.2,54.6,37.8,88.7,42.7
	C122.8,314.8,123.2,315.3,123.5,315.6z"/>
<path class="st0" d="M366.8,54.3c16.1,19.8,29.9,41,38.1,65.4c0.9,2.6,3.7,6.3,0.2,7.9c-3.9,1.8-5.4-2.8-6.6-5.5
	c-2.9-6.6-4.9-13.6-7.9-20.2c-10-21.8-22.9-41.4-43.2-55.2c-2.7-1.2-5.8-1.7-7.4-4.6l-4.4-3.4c-1.6,0.2-2.2-1.3-3.2-2.2l-15.1-9.2
	c0.3-3.9,2.7-2.3,4.7-1.8c15.1,5.2,27.6,14.6,39.9,24.4C364.6,50.3,366.6,51.4,366.8,54.3z"/>
<path class="st0" d="M33.4,78.3c-3.5,8.1-10.6,13.9-14,22.1c-0.6,2.3-0.7,4.8-3.1,6.2l0,0c0,3.8-1.7,7.2-3,10.7
	c-2.9,11.5-6.9,22.9-4.3,35.2c0.1,1,0.1,2,0.1,3c0.3,3.2-0.8,5.5-4.3,5.7c-3.8,0.2-4.4-2.5-4.6-5.5c-1.6-20.3,3.8-39.1,12.4-57.2
	c4-8.2,8.8-16,14.4-23.3c2.1-0.9,3.7-2.6,4.5-4.8l1.1-1.4c2-1.1,3.4-0.7,4.3,1.4C37.3,73.7,34,75.4,33.4,78.3z"/>
<path class="st0" d="M85.8,236c18.7-3.3,32-16.4,47-26.3c4.8-3.1,8.7-7.5,14.3-9.5c3.1,3,0.7,5.4-1.1,7.6c-2.9,3.3-5.7,6.8-8.3,10.4
	c-3,4.2-3.8,8.4-1.7,13.2c-0.7,4.6-4.6,5.1-8,6.1c-0.4,0.1-0.8,0.1-1.2,0.1c-1.9-0.7-3.8-1.9-4.4-3.8c-2-7.3-5.5-5.6-10-2.3
	c-3.5,2.5-6.7,6-11.6,6.1c-10.3,3.8-20.4,8.6-31.6,3.3c-1.4-1.3-3.1-2.6-1.7-4.8c2.1-3.2,5.3-0.4,7.9-1.2
	C78.8,236.1,82.5,234.8,85.8,236z"/>
<path class="st0" d="M322.1,25.6c-1.8,0.1-3.7-0.2-4.7,1.8c-1.1-0.1-2.4-0.1-3-1.3c-2.2-3-5.4-3.6-8.8-3.7l-1.5,0.2
	c-2.1-0.7-4.6-0.5-6.1-2.7c-1.9-0.4-4.1,0.1-5.5-1.9c-4.1-1.1-9.1,1.2-12.4-3.1c-22.3-5.4-45.1-6.9-67.8-9c-3.7-1.9-7.7,0.5-11.4-1
	c-1.6-0.7-4.4-0.2-3.4-3.4c8.5-0.9,17.1-0.9,25.6,0.1c9-1,17.7,2.3,26.6,1.7c1.8,1.6,4.4-0.6,6.2,1.2l4.4,0.7
	c8.4,0.4,17-0.6,24.2,5.3C297,15.3,310.3,18.6,322.1,25.6z"/>
<path class="st0" d="M342.8,220.1c1.8-2.2,4.1-4.6-1.3-5c-2-10.1-1-11.2,9.8-10.4c2.1,0.6,3.9,1.4,3.7,4c-1.4,1.5-4.4,2.4-2.9,5.3
	c1.5,3,4.4,5,7.7,5.4c9.7,1.4,19.5-0.3,28.2-4.8c3.8-1.9,7.2-5.1,12.4-5.7c-0.5,5.4-5.4,6.1-8,8.2c-10.8,8.4-23,14.1-37.4,11.5
	C349.8,227.7,345,225.6,342.8,220.1z"/>
<path class="st0" d="M156.6,222.6c2.8-4.8,4.8-9.6,2.5-15.4c-1.4-3.6-3.7-8,1.6-10.2c5.8-2.4,5.7,3.5,7.7,6.4
	c4.8,6.4,16.2,8,24.6,3.4c1.9-1.1,3.6-2.5,5.5-3.8c1.4-1.1,2.6-0.9,3.5,0.6c0.1,0.7,0,1.4-0.3,2c-2.4,2-3.5,5.1-3,8.2
	c-3.1,7,1.3,11.1,5.9,15.1c2.1,3.5,0.5,5.1-3,5.7c-7-4.1-13.6-8.6-12.1-18.3c0.6-3.6-2-3-3.7-2.5c-6.1,1.9-12.4,1.3-18.6,1.6
	C163.1,216.9,163.2,224.9,156.6,222.6z"/>
<path class="st0" d="M21.2,254.2c-4.5,1.5-9.9,5.7-13.5,0.6c-3.5-5.2,0.7-10.2,4.3-14.4c1.6-1.8,4-3,4.6-5.6c2-4.1,3.4-8.7,8.8-9.6
	c4.4,3.6,9.1-1.6,13.5,0.5c1,3.6-0.9,6.3-2.9,9c-2.9,1.5-7.3,2.1-3.8,7.1c0.1,0.7,0,1.4-0.4,2l-0.7,1.3
	C29.9,250.3,26,252.7,21.2,254.2z"/>
<path class="st0" d="M201.7,234.6c1.5-1.6,3.6-3,3-5.7c12.1,3,24.9,1.7,36.2-3.6c5.6-2.6,11-5.7,16.5-8.6c2.6,2.6,6.4,4.9,2.8,9.4
	c-1-4.2-2-6.1-6.7-2.3c-12,9.5-25.8,14.5-41.4,13.9C208.3,237.6,204.7,237.1,201.7,234.6z"/>
<path class="st0" d="M84.4,27.5c14.1-9.3,30.4-13.1,46-18.4c4.1-1.4,8.4-2,12.6-2.9c3.6,0.5,8.4-3.7,10.5,2.6
	c-22.7,4.1-44.7,11.8-65,22.7C85.7,31.6,84.3,30.4,84.4,27.5z"/>
<path class="st0" d="M156.6,222.6c3.7-0.2,5-3.3,6.6-5.8c1.2-1.8,1.9-3.3,4.1-1.4c0.2,1.7-0.1,3.4-0.8,5
	c-5.1,10.6-23,20.3-34.6,18.8c-1.5-0.1-2.9-0.8-3.9-1.9c1.5-3.1,5.4-3.1,7.4-5.5C144.1,232.5,150.7,228.4,156.6,222.6z"/>
<path class="st0" d="M74,235.6c-0.8,2.5-9.2-1.9-4.8,5.3c-9.8-1.6-13.8-10-19.7-16.4c-0.3-0.6-0.6-1.3-0.9-2c-0.8-2.4-4.1-4.4-2-7.1
	c2-2.6,4.9-0.7,7.5-0.2c1.4,0.5,2.6,1.7,3,3.1c4.2,5.7,8.3,11.5,14.8,15C73.1,233.6,73.9,234.5,74,235.6z"/>
<path class="st0" d="M54.6,216.5l-7.2-0.7c-0.7,3.5,5.2,5,2.1,8.7c-3.8-2.7-7.3-2.3-10.5,1.1c-2.8,1.6-6.5,1-9.1,2.4
	c-3.8,2-3.2-1.2-4.3-2.6c-0.4-0.3-0.6-0.6-0.5-1s0.2-0.5,0.3-0.5l0.5,0.2c3.2-0.5,5.4-2.4,7.1-5.1c5-3,5.2-9.4,9.1-13.2
	c2.8-1.6,5.1-1.4,6.4,2C51.1,210.5,55.1,211.8,54.6,216.5z"/>
<path class="st0" d="M223,1.4c-8.6,1-17.4-1.6-25.9,1.5c0.4-0.9,0,1.4-0.5,0.5c-0.5-0.9-1.4-0.3-0.5,0.1c1.6,0.7,3.5-0.2,5.1,0.6
	c3.5,1.4,7.8-2.2,10.9,1.6C194.1,5.4,176,5.6,158,7.5c-1.1-0.9-2-1.8-2-3.3C178.2,0.5,200.5-1.5,223,1.4z"/>
<path class="st0" d="M204.9,197.1c2.8-2.8,6.2-5,9.9-6.4c3.4-1.5,7.4-3.6,10.1,0.4c3.1,4.6,4.3,9.8,0.4,14.8c-1.4,1.9-3.4,2-5.4,1.7
	c-1.9-0.4-3.2-2.3-2.8-4.2c0-0.1,0-0.2,0.1-0.2c1.9-7.1-2.3-3.6-4.9-3C209.4,200,206.6,199.9,204.9,197.1z"/>
<path class="st0" d="M32.1,186.4c-5.7,2.2,0.9,5-0.4,7.4c-9.1-1.7-18.2-3.5-22.6-13.3c1-5.6,4-7.1,9-4.7
	C22.1,180.2,26.8,183.8,32.1,186.4z"/>
<path class="st0" d="M36.2,72.2c-0.1-2.3-1.6-3-3.6-3.2c3.7-5.9,8.8-10.5,14.1-14.8c2.4-1.3,3.9-3.9,6.8-4.4
	c1.7-0.1,3.2,0.1,4.3,1.6c-3.9,7.5-11.5,11.8-16.5,18.4c-1.5,2.1-3.1,4.1-4.9,6c-1.1-0.9-1.2-2.4-0.4-3.4
	C36.1,72.3,36.2,72.3,36.2,72.2z"/>
<path class="st0" d="M57.8,51.4l-5.1-0.3c-0.8-0.8-0.8-2.2,0-3c0,0,0,0,0,0c1.2-2.3,3.3-3.1,5.7-3.1c1.9-1.4,4.3-2.2,4.2-5.1
	c0.6-1.9,1.7-3.1,3.9-2.5c1.7,1.5,2.7,3.7,2.6,6c0,1.2-0.6,2.2-1.5,2.9C63.2,45.8,61.7,51,57.8,51.4z"/>
<path class="st0" d="M78.7,37.8c-0.2,0.4-0.4,0.8-0.6,1.2c-1.7,0.6-3.4,1.1-4.4,2.9c-1.3,2.5-3.1,3.7-5.8,2l-1.6-6.2
	c0.1-1,0.9-1.2,1.7-1.5l0,0c1.8-2.4,4.1-4,7.3-3.6C77.1,33.8,78.3,35.7,78.7,37.8z"/>
<path class="st0" d="M31.9,242.3c-0.8-0.8-1.6-1.8-2.3-2.7c-0.9-1.3-2.8-2.4-1.7-4.4s3-0.6,4.6-0.6l3.7,0.1c-0.5,1.5-1,3-1.5,4.4
	C33.4,239.9,34.7,242.8,31.9,242.3z"/>
<path class="st0" d="M75.3,33.3c1.7-0.1,3-1.5,3-3.2l3-1.6c2,1.4,3.6,3.1,2.9,5.9l0.2,0.6c-3-1.3-3.3,3-5.8,2.8
	C76.7,37.2,75.3,35.4,75.3,33.3z"/>
<path class="st0" d="M204.9,197.1c2.6,0.7,5.3,0.9,7.3,3c-1.8,3-6.2,2.6-7.7,6c-1.7,1-3,1-2.8-1.5l0,0c0.4-2.7,2-4.9,3.1-7.3
	L204.9,197.1z"/>
<path class="st0" d="M156,4.2c1.3,0.6,2.1,1.9,2,3.3c-1.2,1.1-2.9,1.6-4.5,1.3c-2.6-4.2-7.2-1-10.5-2.6C147.1,4,151.6,4.6,156,4.2z"
	/>
<path class="st0" d="M201.7,204.6c0.6,1,1.7,1.6,2.8,1.5c-1,3.2-4,5.1-5.8,7.7C192.9,208.6,198.7,207,201.7,204.6z"/>
<path class="st0" d="M84.2,34.4c-0.9-2-3.2-3.3-2.9-5.9c0.5-1.9,2-0.8,3.1-1l4.1,4C87.6,33.3,85.8,33.7,84.2,34.4z"/>
<path class="st0" d="M27.2,222.6c2-0.1,3.2-1.6,4.3-3l1.6-0.3c-0.4,4.4-1.3,8-7.1,5.1L27.2,222.6z"/>
<path class="st0" d="M204.8,197.3c1.6,3.6-1.5,5.1-3.1,7.3c-0.7-1.2-1.9-1.5-3.1-1.6C199.9,200.3,202.2,198.6,204.8,197.3z"/>
<path class="st0" d="M305.5,22.3c4.2-1.7,7.4-1.1,8.8,3.7L305.5,22.3z"/>
<path class="st0" d="M52.7,48.1v3c-2,0.9-3.3,3.3-5.9,3L52.7,48.1z"/>
<path class="st0" d="M349,177.3l1.6,1.8c-0.9,2-2.5,3.6-4.4,4.5L349,177.3z"/>
<path class="st0" d="M36.2,294.8c5.6-4.7,2.4,2.9,4.5,3.2C38.6,297.8,37.5,296.2,36.2,294.8z"/>
<path class="st0" d="M36.2,72.2l0.2,3.6l-3,2.6C32,75.2,34.9,74.1,36.2,72.2z"/>
<path class="st0" d="M61.7,40.4c0.5,0,0.9-0.1,1.4-0.2c0.2,3.3-1.4,4.9-4.6,4.8C58.3,42.6,60.8,42,61.7,40.4z"/>
<path class="st0" d="M31.6,70.4c0.1,3.1-1.4,4.7-4.5,4.8C28.6,73.6,30.1,72,31.6,70.4z"/>
<path class="st0" d="M81.6,310.4c-3.1-0.1-6-1.5-8-3.9C76.7,306.6,79.6,308,81.6,310.4z"/>
<path class="st0" d="M120.5,319.5l-5.4,2.9c-0.1-0.4-0.4-0.9-0.4-1.3C115.4,317.6,118.2,319.6,120.5,319.5z"/>
<path class="st0" d="M41.2,284.8c0.7,0.5,1.4,0.9,1.6,1.4c0.3,0.7,0,1.4-0.7,1.7c-0.2,0.1-0.5,0.1-0.7,0.1c-0.6-0.2-1.1-0.7-1.3-1.3
	C40,286.1,40.7,285.5,41.2,284.8z"/>
<path class="st0" d="M115.2,316.8c2.3-1.2,3.8-1.2,5.4-0.3C119.2,317.9,117.7,317.4,115.2,316.8z"/>
<path class="st0" d="M109.8,141.2c-9.5,0-16.6,5.7-24.1,10.4c-9.7,5.1-18,12.5-23,21.6c-7.3,13.1-16.3,18-30.5,13.2
	c-1.4-0.6-3-1-3.5,0.8c-0.8,2.9,1,4.9,3.1,6.6c1,0.1,2,0.2,2.9,0.3c12.9,1.1,12.9,1.1,7.5,11.9c2.1,1.2,4.4,1.5,6.6,2
	c3.6-0.8,2.6-4.4,4-6.5c1-6.8,6.7-7.6,11.8-9c13.5-3.5,26.8-7.4,39.3-13.6c5.1-0.7,8.9-4.5,13.7-5.9c2-0.9,4.3-1.4,5.7-3.4
	c0.8-1.2,1.6-2.4,3.2-2.6c3.3-1,3.6-4,4.2-6.6C132,144.2,124.3,137.2,109.8,141.2z M117.7,165.5c-3.8,2.3-8,3.9-12,6
	c-2,1-5.2,0.9-5.1,4.4c-0.9-0.4-2.1-1.3-2.5-1c-8.4,5-18.5,4.8-27.2,8.7c-3,0.1-2.4-1.6-1.7-3.3c7.3-9.4,14.9-18.6,25.7-24.3
	c4.6-1.9,8.6-4.9,13.6-5.8l0,0c1-0.2,1.9-0.5,2.9-0.6c4.3-0.5,9.4-2.7,11.6,3.2C125,158.2,122.4,162.6,117.7,165.5L117.7,165.5z"/>
<path class="st0" d="M343.2,213.6c-1.5-0.6-2.7-2.4-4.7-1.5l-5.5,1.7c-5.8,0.3-10.6,4.1-16.3,4.8c-3.1,0.4-7.2,2.1-8.7-1.4
	c-1.2-2.7,3-3.9,4.9-5.7c1.3-1.2,2.8-2.1,4-3.3c3.2-3.1,4.5-6.5,1.4-10.5c-1.9-2.3-4.7-3.5-7.1-5.2c-2.1-1.4-3.5-4.9-6.8-3
	c-1.2-1.5-3.1-2.2-5-1.7c-16.4,0.4-27.5,9.7-36.5,22.2c-1.7,2.4-3.6,4.7-5.6,6.8c-1.2,3.8,4.6,5.4,2.8,9.4c3.7,7.8,8.9,9.7,16.5,6.6
	c6.2-2.5,10.3-8.3,16.7-10.4c4.4,7,10.9,8.2,18.1,6.1c8.7-2.5,17.3-5.5,25.9-8.5c2-0.7,3.6-1.5,5.4,0
	C348.4,218.2,346.5,215.9,343.2,213.6z M301.7,206c-4.1,4.7-8.6,9.1-12.9,13.6l-9,6.3c-2.5,0.7-5.1,1.7-7.3-0.6
	c-3.8-11.5,10.4-23,21.3-28c2.2-1,4.7-1.3,7.1-1.9C306,198.6,304.9,202.4,301.7,206L301.7,206z"/>
<path class="st0" d="M272.5,225.2c2.3,0.9,4.9,1.1,7.3,0.6C277.2,228.5,274.5,230.4,272.5,225.2z"/>
<path class="st0" d="M270.5,224.8c-0.5,0.6-1.2,1.2-1.8,1.6c-0.6,0.1-1.2-0.2-1.6-0.7c-0.3-1.2,0.9-1.5,1.7-1.9
	C269.4,223.5,270.1,223.5,270.5,224.8z"/>
<path class="st0" d="M127.7,225.5c0.4,1.7,0.9,3.4,1.5,5.6C125.2,230.1,126.9,227.7,127.7,225.5z"/>
<path class="st0" d="M201.3,4.1h-7.1c0.6-1.7,2-0.9,3-1.2C198.5,3.2,200.2,2.5,201.3,4.1z"/>
<path class="st0" d="M22,242.5c0.4,0.3,0.7,0.6,1,1c-0.5,0.8-1.1,1.5-1.9,2.1c-1,0.6-1.4-0.3-1-1C20.7,243.8,21.3,243.1,22,242.5z"
	/>
<path class="st0" d="M43.6,212.9c0.6,0.5,1.2,0.9,1.1,1c-0.6,1-1.2,2-1.9,3c-0.2-0.4-0.6-1-0.5-1.3
	C42.7,214.7,43.1,213.8,43.6,212.9z"/>
<path class="st0" d="M367.3,191.1l4.4-4.6c0.2,2.3-1.3,3.6-3,4.7C368.2,191.2,367.7,191.2,367.3,191.1z"/>
<path class="st0" d="M397.1,147.4l-0.1-0.1c-0.7-3.7-2.9-5.6-7.1-5.2c-9.4,0.9-15.8,6.9-22,13.2c-0.3,0.6-0.5,1.2-0.7,1.8
	c-0.2-0.8-0.2-1.6-0.1-2.3c-5.8,4.7-10.7,10.3-14.6,16.8l0,0c-1.5,1.7-3.9,2.9-3.5,5.8c-0.5,1.3-0.2,1.8,0.6,1.8
	c-1.5,1.2-2.3,3-3.4,4.4l-3.1,9c-3.9,6-1.2,13.5-4.6,19.6l3.1,3c-0.7-6.3,0.1-11.1,8.5-8.4c0.6,0.2,1.4-0.4,2.1-0.6l-0.1-1.9l0,0
	c-2.4,0.7-3.7,0.1-3.3-2.7c0.4-7.1,4.1-13.1,6.9-19.4l4-6.6l12-14.6c4.9-3.8,9.4-8,15.1-10.7c5.3,0.9,1.7,5,2.8,7.5l0,0
	c-0.5,3.2-1,6.4-3.1,9.2v-0.1c-2.4,3.6-4.8,7.1-7.1,10.7l-7.7,9c-1.2,1.8-2.6,3.3-4.4,4.6l-14.6,12.6c0.1,0.6,0.4,1.1,0.8,1.5
	l2.9,2.6c7-4.5,14-8.9,19.1-15.6l0,0c3.4-2.7,6.5-5.7,8.6-9.6c0.1-0.3,0.2-0.6,0.3-0.9c0,0.2,0.1,0.5,0.1,0.7
	c3.2-3.8,7.4-7,8.3-12.3l-0.4,0.1l0.3-0.3c-0.3-4,3.6-6.5,3.8-10.3l0,0l0.7-1.8C397.8,154.4,398.5,150.9,397.1,147.4z"/>
</svg>
