<svg id="レイヤー_1" data-name="レイヤー 1" xmlns="http://www.w3.org/2000/svg" viewBox="0 0 384.4 320.31"><defs><style>.cls-1,.cls-3{fill:#fff;}.cls-1{stroke:#fff;stroke-miterlimit:10;}.cls-2{fill:none;}</style></defs><path class="cls-1" d="M102.6,8.9a.76.76,0,0,1-.4-.2C102.2,8.9,102.5,8.9,102.6,8.9Z" transform="translate(-58.2 -7.49)"/><polygon class="cls-1" points="39.9 138.51 40.1 138.71 40.6 138.01 39.9 138.51"/><path class="cls-1" d="M101.3,144.3c-.1-.1,0-.4-.1-.5l-1.9,2.1C100.1,147.1,100.8,143.6,101.3,144.3Z" transform="translate(-58.2 -7.49)"/><path class="cls-1" d="M101.9,144.6c.7.5,1-.5,1.2-.8C102.8,144.5,101.7,143.5,101.9,144.6Z" transform="translate(-58.2 -7.49)"/><path class="cls-1" d="M102.6,281.6a.76.76,0,0,1-.4-.2C102.2,281.6,102.5,281.5,102.6,281.6Z" transform="translate(-58.2 -7.49)"/><line class="cls-2" x1="0.5" y1="38.01" x2="383.8" y2="38.01"/><path class="cls-3" d="M438.3,35.7l-1,.1C437.4,35.9,437.7,35.9,438.3,35.7Z" transform="translate(-58.2 -7.49)"/><path class="cls-3" d="M439.1,37.6Z" transform="translate(-58.2 -7.49)"/><path class="cls-3" d="M130.6,66.7a1,1,0,0,0-.8.6C130.3,67.2,130.6,67,130.6,66.7Z" transform="translate(-58.2 -7.49)"/><path class="cls-3" d="M187.5,29.4v.5A.45.45,0,0,0,187.5,29.4Z" transform="translate(-58.2 -7.49)"/><path class="cls-3" d="M427,36.6c.1,0,.3.1.4.1C427.5,36.2,427.1,36.3,427,36.6Z" transform="translate(-58.2 -7.49)"/><path class="cls-3" d="M115.9,64.7a4.33,4.33,0,0,0-.1.5A1.09,1.09,0,0,0,115.9,64.7Z" transform="translate(-58.2 -7.49)"/><path class="cls-3" d="M392.2,27.8c-.1.1-.3.1-.4.2C391.9,28,392,27.9,392.2,27.8Z" transform="translate(-58.2 -7.49)"/><path class="cls-3" d="M199,67.8a2.09,2.09,0,0,0,.4-.6A.55.55,0,0,0,199,67.8Z" transform="translate(-58.2 -7.49)"/><path class="cls-3" d="M199.2,62.6c-2.9,1.5.6,3,.2,4.6.8-.4,2.4-.1,1.6-1.3,1.5,3.2,4.6-1.8,6.2.8.1-.3-.9-1.4.3-2.2,1.7-.3,1.6,1.2,2.3,1.8.5-.9,3.1-1.6,2.8-1.1,1.1-.8-1.2-3.1.4-4.5,1.1-2.1,2.5-.3,3.8-.9,1.5,1.5-1.5,1-2.1,1.8l4.3-1c1.3,1.1-.6,2.1-1.8,1.8,1.7,1.4,3.9.1,4.4-1.6,1.1.4,1.6,0,2.6.7-1,1-.9,4-2.5,4.6-2.6-.2.9-2.3-1.3-2.8l-.2,1.8c-.9-1-1.7.3-2.7.5-.6-.5.1-.7.5-.9-1.8.1-3.3-.8-4.7,1.2,2.5,1.7,6.2-.6,7.3,1.5l4.9-2.5c0-.8-1.7-2.2-.3-3.5a4.69,4.69,0,0,0,3.9,3.5c-.7-2.3,3-2.1,2.1-4-.9,1.2-1.3-.8-1.4-1,1.8-.1.2-2.2,1.3-2.3,3.3.5-.1,1.5,3.2,2.3a16,16,0,0,1-4.3,4.4c.1,1,1.8-.1,2.6,1-1.1-1.2.8-2.2-.1-2.7,2.6-1,5.7-3.4,8.9-3.9-.5,3.5-5.4,2.6-4.4,6.7,1.6-.5,1.6-2.2,2.8-2,1.1,2.1,3.7.3,5.9.2l-.9-1c.8-.9,2.3-.2,3.3,0l-.2.5.9-.7c.1.1.2.2.2.3,1-1.1,3.7,0,5.6-.7,0-1.7-2-.1-2.9-.3-.3-.4-2.1-1.1-1.2-2.3,2.4,0,4.2-2,6.9-2l-.9-.5c.9-1.2,2.1-.6,3.4-.7,2.4,1.2-1.8,2.4-.3,3.3-.9,1.5-2.6-.2-2.8,2L258,64c1.3-1.4,2.7.7,3.5.4l-.9-1c.2-1.8,1.1-.5,1.5-.2l-.6-2.7c-1.4-.5-2.3,1.9-3.3.3,2.5-.9,1.9-3,4.8-3.1.1,1-.6.4-.9,1.2,1,.7,2.1-1.4,3.7-.6-.9.7-2.5,1.7-1.3,3.1l.9-2c.8.3.4,1.1.8,1.2,1.1.4-.2-2.1,1.5-1.6.3.4.8.8.6,1.3,2,.1.9-.7,2.8-1.6-1.6,0-1.7-3.1,0-3.4,2.4.3,4-1.4,5.7,1.2l1.1-1.3c-.7,1.9,1.5.7,2.3,1,.3,2.1-3.6-.1-3.6,3.3,1.6.3.9,1.4.4,2.3,1.7-.3.6-2.4,1.4-3.8,0,.8,2.9.3,1.9,2.1,1.4.1,1.7-2,2.8-1.6a9.45,9.45,0,0,0-.2,3c.1-.7,1.5.2,1.8.2-.3-.4.5-1.8-.8-1.2.3-1.6,3-.1,2.9-1.4.1,1.9,2.7.4,4,1.2-.1-4.4-2.5,1.7-2.9-2,1.8-1.5,5.9-.1,8.8-2.1,2.5.8,0,1.7.5,3.3-2.3.7-2.8-.6-4.8.2,2.1.8,5.7.3,7.2-1.1,2.3-.2,2.6,4.4,5.4,3.3-.4-1.4-.3-1.8-1.2-2.3.8-.5,1.6,0,2.5,0,.5-.9-1.3-1.1-.1-1.9.4.3,1.4.5,1.2,1.4l-.2.1c2.7-1.3,2,3.5,4.3.7-.2-.7-.7.2-1.3-.3-.4-1.1,1-2.7,2.1-3.1-.2,1,.9.2,1.7.5.5,1.6-1.9.5-2.3,1.6l2.1.3-.4-.3,2.3-1.6c-1.6.5-.8-2-.1-2.2,1.6.3,3.1.6,3,2.5.2-1.8,2.1-1.8,3.5-2.2-1.5-.7-.2-1.6.2-2.2l2.3,1.8c-2.4.5.5,1.6-.1,2.9-.7,1.9-2.1.9-3.4.7,2.5,3.4,3.5-1.8,5.6-.2,0,.8-.2,1.8-1.1,1.6.4.6,2-1.6,3.4-.7-.4-.6-1.2-2.3.2-3l1.9,2.1c2.2.5.8-2.2,2.6-3.2l-1.2-1.4c.2-1.8,2.5,0,2.5-2-1.1-.1-1.8,1.5-3,.9-.4-2,1.5-1,2.2-2.1,2.5.8,2,.9,3.8,2.5.1,3.1-3,3.8-2.6,7.8,2.4-.5,5.9-1.5,7.4-.3,2.1-.9,1.9-3.3,1.6-5.1a1.64,1.64,0,0,1,1.9.4l-1,1c2.6-1,4.2-2,6.9-2,1.6-.5.9-2.4.6-3.8l1.7-.3-.3-.4c.4-2,1.9-1.3,3-1.2,0,.8-.7,1-.6,1.6a2.7,2.7,0,0,0,3.3-.3c0,.8-.7,2.7-1.9,2.2-.1-.2-.1-.5-.2-.7l-2,1.1c2.3-1,3.7,1.1,3.7,3.1,2.3-1-1.9-2.1.9-2.9,3.7,4,6.9-1.1,9,4.5,1.7-1.2,3.7-3.1,6.4-3.3,0-1.7,1.8-.7,1.5-2.7-2.5-2.2-4.7,3.3-6.7.1-1.1.8-.7,2.2-1.3,3.1-1,.1-1.9-.1-2.1-1.1,2.3-1,.6-4.1,3.6-4.2-.4-1.4-2.8-.9-3.8-1.3a2.09,2.09,0,0,0-.7-2.3c.8-1.4,2.5-2.5,3.3-3.7-.3.8.3,1.2,0,1.7l3.1-2.4a2.89,2.89,0,0,1,.7,3.2c1.7.5,4.6-1.8,4.6.8,2.2-.4-.7-1.5-.9-2.2l.2-.1-2.3.2c-.3-2.9,2.6.7,3-2.1.4-5.3,3.3,1.7,4.9.8L381,45.8l1.6-.8c-.9,1.5-.9,4-2.4,5.6,2.3.1,5.5,1.3,6.9.6a6.39,6.39,0,0,1,.6,3.8c2.3-2.4,3.5,1.2,5.5,1.3,2.1-1.4-2.1-2-.6-3.8.6,1,1.8.2,2.3-.2-.6.7-2.8-.6-4.3-1.2,1.1.1,1-1.8,1.3-2.6l-1.9-.4c.1-2.3,2.3-.2,3.2-1.4-.6,2.1-.3,2.2-.8,4.2a5.42,5.42,0,0,1,5.5.4c.8.8-.7,1-1.1,1.6.4,1.4,1.6-.9,2,.9-.3,1.3-1,.1-1.6.5l4.8.6c0,.8-1.2,1.1-1.9.8,1.5,1,2.5.5,4.2-2.4,1.6.8,3.5,2.1,3,3.3.8-.5.3-1.3.2-2.2,2.2.5,2.5-2.5,3.8-2.6l-1-1.6c2.1,1.6.5-2.6,2.4-1.4a15.81,15.81,0,0,0,.1,5.3c.3-1.6,1.5-.2,2.3-.2-.5-1.6,1.8-1.5.4-3.1,1.9-1.3,2.8.9,4.2-1.2-.9-.5,1.6-1.7.9-2.9a2.76,2.76,0,0,1,2.6,3.6c-.6-.1-1.6-.8-1.6.5l3.3-.3c.8.8,1.9,1.2,2,3.1,1.1-2.2,3.1,1.5,4-1-1.1,1.6-2-.6-2.5-.8l.5-.4a.37.37,0,0,1-.3-.1L430,48c-1.4-1.3-.2,2.1-2.2,2.1-1.7-3.1,3.8-4.6,2.1-6.5-1.4-1-1.2,2-2.4,3.1l.3.1-2.7,1.3a2.86,2.86,0,0,1,.7-1.9c-3.3,0-3.8-1.6-7.3-2,.3.4.9,3.6-.6,4.1-1.1.8-1.3-1.1-2.2-1.3.6-.4,1.1-2.2,1.8-1l-.1-2.2c2.6-2.7,1.3-4.8,4.8-5.6.2-1.6,2.8-2.5,4.7-2l-.9-1.5c2-2.8.4,2.3,3-.1,1.1,2.9,3,6.4,1.6,8.8,1.8.7,2.5-.9,4.1-.9,1,2.4-.5,2.6-.3,5,1.2-.3,2.7-1.3,1.8-2.7l2.3,1c.1.5-.8.5-1.1.5.9.5,2.6-.7,3.1-1.6-.2.1-.8.5-1,.1.9-.6,2.6-1.8,2.8-2.5-1.4,1.2-1.5-1.5-3,.1.1-.6.4-2,1.1-1.6-1.2-1.4-2.4-1.2-2.9-2.8,1,1.2,1.7-.5,1.9-.8a3.3,3.3,0,0,0-3.3.7c-.1-2.7-3.5.5-2.3-2.3-.2,1-1.5,1-2.2.4.1-1.2,1.8-1.8,2.6-3.2,3.5-1.3-.1,2,.8,2.9l2.7-.2c-.3-.4,1.1-1.9-.7-1.8.8-1.7,2.5-2.9,3.9-1.6.3-.8-.7-.7-1-.7.3-.8,2-3.7-.2-4.1.6.1-1.1,1.3.1,2.2-.9.3-3.3-.8-2.3-2.3-1.1.5-3.1,1.6-4,1.9-.3-1.2.8-.5,1.2-1.1l-3.1.7.9,1.4c-2.3-1-3.7,2.3-5.5,3.3.3-2.2,1.8-2.4,3-3.5-1.1-2.6-.8,1.4-2.6,1a2.05,2.05,0,0,1-.2-1.6l-1.5,1.9a.46.46,0,0,1,0-.8c-2.6,2.4.1,3.1-3.4,4,2.1,1.1,1.8-1.5,3.5-1.3,1,1.6-2,2.8-2.5,3.7-1.7-.5-1.9-3.8-4-2,1.5-1,.1-2,2.2-2.1,1.2-1.1-.6-1-.9-2.2-.6.4.4,2.3-1.2,2l.1-.3-2.6,2.3c-2.4-1.2-5.4,2.6-7.1.1l.4,2.3a27.63,27.63,0,0,0-4.7.7c.2-1.3,1.3-1.4,2.3-1.9-2.7-.4-5.1,1-6.9,2.8a13.29,13.29,0,0,0,2.8,2.6c-1.8,3.2-2.1-2-4.4-.4-.1-2.2.7-1.9.1-4-.9,1.5-2.5,1.2-3.6,2.5-.6-2.2.4-4,2.8-4.2,1.8,1.9,3.7-1.4,5.2.4l-.9-1.4c1.8-.7,2.8-.3,4.3-1.3l-.1.3.8-2.2h-.8c.6-1.2,2.3-3.3,2.8-3.3-2.5.3-2.7,3.8-3.9,5.8-2.3-.1-3.2-4-4.7-2.1-.1-1.1-1.4-2.2-.4-3.1,1.3-.6,2.1.8,2.3-.7-1.3.1-.8-.8-2.8-.6a12.19,12.19,0,0,1-3.3,5.4,5,5,0,0,1-4.7.4c1.5-.2,3-2.1,2.6-3.5-.9,2-3-1.6-2.5,1.2-1.8-.2-4.7-.1-4.9-2.5,1.7-.9,3.3.6,4.7.1a.85.85,0,0,1-.5-1.2l2.1.3c-1.6-1.2-1.3-2-3.3-1.7.1.2.4.6.2.7-.5.1-1.1-.1-1.6,0l-.1-2.2c-1.5,1-4.4-1.8-7.2-.1l.2-.5c-2.2-.5-2.4,3.9-4.8,4.4.7-1,.4-2,.3-3-1.2,1.1-1.8-.7-3-1.3,1.4,1.3-.9,2.3.1,3.1.1,2.2-2.4,2.2-3.7,2-.8-2.9,3.9-1.6,2-4.5-1.3-.3-1.6,1.4-.7,1.9-1.6-.3-4-.6-5.1-2.4-1.9,2.2-2.6,1-3.8,3.8,1-.1,1.1-2.2,2.3-1l-1.4,2.1c-1.8.1-3.3-1.7-4.5-1.9l1.3-.9-.1.3c.5-.9,2.2-.4,2-2-1.2,1.9-2.1.1-3.7,1.4l.1-.3c-2.8,1.6-4.8-3.2-6.5.9.5-.1,1.5,1.5,1.2,2.3-.6-1-2.3-.6-2.3-1.8l.6-.4c-1.6-.3-2.5-.5-3.1-.1-.4,1.4,0,2.5-1.1,3.3-2.8-.9,1.1-3.3-.8-4.6L344.8,26l-.6-1.3c-3.8-1.3-6.8,3-10.9,3-.1-2.2,2.9-3.1,3.9-3.3-1.3-2-3.1.7-4.8-.6-1.6-.3-2.8,1.6-2.5,2.9-1.9.8-1.4-1.3-1.6-1.7-.6,2.4-3.1,1.6-4.7,2.1l-.1-1.4L321,27.4c.6.1.1,1.4.1,2.2l-.6-.1c2.4,3.7,5.4-2.6,7.9,1.6-.8.5.3,1.2-.5,1.8-.6-.1-.8-.3-.8-.9-.4,1.1-1.4,2.1-.1,2-.1,2.9-2.7,2.2-4.5,3.1-1.5-1.8,1.5-2.7,2.3-4.1-.7.2-1.3,1.4-2.3.7l.2-2.1c-2.5,1.2-.7,1.9-1.3,4-.7,2.7-2.3-.1-3,.1l.8-.5c-2-.9-2.4,1.4-4.2,1.2l-.8-1.7c2.2,2.2,2.7-3,4-1.9-3.2-2,.7-4.4,1.7-6.3a2.9,2.9,0,0,1-3.4-1c-2,2.8-4.2-1-6.2,2.3-1.1-.4.9-1.5-.2-1.6a9.82,9.82,0,0,0-6.5,1.4c-1.1-.1-.9-1-1.3-1.9-5.5-1.3-7.6,3.9-13.6,2.6l.9-1.2c-1.3-.3-2.3-.7-3,.9-1.6-3.7-5.4,2.3-7.4-1.7-2.6-.7-2.8,2.5-4.9,3.1,0-.8.6-2.4-.4-2.8-6.8,1.3-12.9,1.6-20.4,2.2a1.41,1.41,0,0,1,.6-.7c-4.9-.3-9.6,3.3-13.7,2.1-.8.5-3,1.2-2.3,2.7.9.2,1.1,2.1,1,3.3-3.6,1.6-1.8-2.7-4.2-2.2-.8-2.9,1.5-1.9,1.5-4.4l-3.5,1.8c-2-.9-3.9.7-5.6-.6.8.3.2-2.1,1.5-1-.2.1-.1.3-.3.5,2.9.2,1.6-1.4,4.2-2-2.3.7-5.4,1.4-7.4.9.4,1.9-1.6.8-2.2,2.1l-.1-.2c0,.8-1.3,1.4-1.6,1.7l-.5-2.5c-.9.3.3,1.2-.6,1.6-1.3.6-5.7.9-6-1.7-1.5.2-2,1.6-3.5,1.3.1-.7.5-.9.6-1.2-3.3-.5-7.4.3-10.6-1.2-2.6.7-4.8,1-6.4,2.7.7-.2,2.7.4,1.4,1.8-.7,1-1.8.7-2.8,1.1.3-1.3-2.7-1.2-.6-2.1-.5-2.8-4.6.6-4.6-2.3-.5.9-3.5.4-4.7,1.9-.3-1.2,1.6-.9,1.6-1.7l-1.4.4v-.8c-2.7-.7-3.1,2.7-4.7,3.3l.1-.3-1.1.5,1.3-2.3c-1.7.3-2.6,2.4-4.5,2.8l-.2-.7-1.1.8a.48.48,0,0,0,.1-.7c-1.1,2.2-3.5,1.3-4.5,3.1-.8-.3-1.4-3-2.4-1.2l.2-2.7c2.5-.3.9,1.9,3.6.9-2-3.4-7.4-3-11.1-2.8-3,1.8-7.8-1.1-9.1,2.9l.3-1.6-5-1.4c-4.2.7-8.6-.6-11.8,1.6l-.9-1.4c-3.3,4.6-11.3,1.9-13.5,7.4-1.9-1.2.6-2.1.8-3.1-1.4-.4-3.7,3.1-5,.7,0-.8,2-.8,1.1-1.3-1-1.6-1.4,1.6-2.6-.2.5,1.6-1.8,3.5-3.5,3.8.3.1.3.1.4.3.2,1.2-1,1-1.7,1.2a1.46,1.46,0,0,1,.3-.5c-8.7,2.1-18.8,3.1-28,1.5l1.7-1.2c-1.3.9-3.7.3-4.4-.1l.2-.1c-2.5-2.5-2.8,2.5-4.7-.5l.4-.3c-3,.1-4.7-2.7-7.6-1.2-2.3-1-2-2.3-3.6-3.4-1.3.1-1.9,1.6-2,2l.6.1c.7,1.5-1.4,1.2-2.3,1.9.7,2.3.3,6,3,8.4,2-.8,1.9,3.8,4.1,3.4,1.3-3.1,3.2,2.3,5.2-.5-1.1,2.1,2.4,1.2.6,3.5.8,1.7,4.3-1.8,5.9.2-.3.5-.2,1-.6,1.2,2.2-1.2,1.5,1.5,3.2,1.5L80,53.2c.6-.7.8.8,1.4.5-.4-.3-1.4-1.3-.9-2.2.8-.5,1.4-1.2,2.2-1.2a2.05,2.05,0,0,1-.9,1.5s1.8.2,1.9,1.2c-.6.7-1.4.7-2,2,2.3.6.2.7,1.3,2.5-.3-2.6,2-1.1,3.3-1.7.1,1-.9.3-1.2,1.1,2.4,4.6,3.6-.8,6.7.2a1.41,1.41,0,0,1-.6.7c1.5-.7,2.5,1.7,3.4.2,1.4.5.3,2.9,2.4,2.9-.6-2.7,2.5.5,2.6-2.3l1.6,1.7c1.5-1.6-.4-4.8,2.4-5.1,2.6,1-.2,4.7,1.3,6.2l.6-1.6,1.3,1.1-.2.1c.8-.5,2.1-.1,2.1.8-.1.7-.9.7-1.1,1.3,1.3-1.4,5,3.9,6.3-.4.7.8,2.3.7,2.1,2.1.7-1.9,3.4.6,4.4-.6-.1.7.8,1.7,1.6,1.2-1-.7-.4-1.4.3-2.5.9,1.4,3.4.2,3.8,2.5,1.4-1.2.9-2.9,1.2-4.5.9,1.4,3.7,1.1,3.2,3.7-.8-.3-2.5-.8-2.1.9,1.4,1,.6-.7,1.8-1-.1.5.8,1.6.6,2.4a3.27,3.27,0,0,1,2.7.2c-1.6-1.2,1-1.8.1-2.9l-1.5,1.9c-1.8.1-.4-1.4-1.1-2.1,3.2-.5,2.6-3.2,5.6-4.4a6.27,6.27,0,0,0,1.9,1.2c-1,.1-.8,2.5-.2,3,1.7-2,3,1.3,4.4,1.8-1.2-.6-.6-2.1-.1-2.7,2.9-1.4,1.1.9,2.4,2,4.5-.3,7.3,2.9,10.9,1.2l-1.7-2.2-.6,2.1c-1.3-1.6.2-4.7,1-6.1.2.7,2.4.3,1.5,1.5l2.1-.9c-.3-.9-1.7-.5-.7-1.5.7.7,2.9,1.1,1.5,2.3,1.1.1,2.6-.7,2.3-1.9,1.8-.1-.2,2.7-1,3.5,1.4.1,1.3,1.9.8,2.5l2-.3c-.4.6-.4,1.4-.9,2,1.3.8,2.3-1.6,3.4.2l.5-1.8c3.7,1.4,3.3,1.7,6.7,1.9l-.6-1.3c2.6-2.3,1.9,2.1,5.4,1.1,2-.8,3.2-1.4,3-3.5,1.1-.8,1.4.5,1.9,1.2.9-1.2,2.8-3.3,4.2-2a11.59,11.59,0,0,1-2.6,1.5c.3,2.1,3,.4,4.5,1.4,1-1,4.3-3.5,6.1-5.4a5.52,5.52,0,0,1,1.1-5.9c-.3,1.3,2.2,1.3,3.3,2.2-.6,1.2,2.5,3,.1,3.6-.7-.6-1-2.4-2-1.8a12.41,12.41,0,0,0,3.7,4,1.94,1.94,0,0,1-1.8,1.5C199.5,63.5,199.2,63.2,199.2,62.6Z" transform="translate(-58.2 -7.49)"/><path class="cls-3" d="M427,36.6c-.1,0-.2-.1-.3-.1l.3.5Z" transform="translate(-58.2 -7.49)"/><path class="cls-3" d="M248.3,63.4a1.18,1.18,0,0,0,.4-.7A1.61,1.61,0,0,0,248.3,63.4Z" transform="translate(-58.2 -7.49)"/><path class="cls-3" d="M282.6,62a.75.75,0,0,0-.1-.5A1.34,1.34,0,0,0,282.6,62Z" transform="translate(-58.2 -7.49)"/><path class="cls-3" d="M429.2,51.3l-.6.4C428.8,51.7,428.9,51.5,429.2,51.3Z" transform="translate(-58.2 -7.49)"/><line class="cls-2" x1="383.8" y1="168.01" x2="0.5" y2="168.01"/><path class="cls-3" d="M62.4,185.3l1-.1C63.3,185.1,63.1,185.1,62.4,185.3Z" transform="translate(-58.2 -7.49)"/><path class="cls-3" d="M61.6,183.5Z" transform="translate(-58.2 -7.49)"/><path class="cls-3" d="M370.1,154.3a1,1,0,0,0,.8-.6A1.07,1.07,0,0,0,370.1,154.3Z" transform="translate(-58.2 -7.49)"/><path class="cls-3" d="M313.2,191.6v-.5C313.2,191.2,313.1,191.4,313.2,191.6Z" transform="translate(-58.2 -7.49)"/><path class="cls-3" d="M73.7,184.5c-.1,0-.3-.1-.4-.1C73.2,184.8,73.6,184.8,73.7,184.5Z" transform="translate(-58.2 -7.49)"/><path class="cls-3" d="M384.8,156.4a4.33,4.33,0,0,0,.1-.5A.9.9,0,0,0,384.8,156.4Z" transform="translate(-58.2 -7.49)"/><path class="cls-3" d="M108.6,193.3c.1-.1.3-.1.4-.2C108.8,193.1,108.7,193.1,108.6,193.3Z" transform="translate(-58.2 -7.49)"/><path class="cls-3" d="M301.8,153.2a2.09,2.09,0,0,0-.4.6A.68.68,0,0,0,301.8,153.2Z" transform="translate(-58.2 -7.49)"/><path class="cls-3" d="M301.6,158.4c2.9-1.5-.6-3-.2-4.6-.8.4-2.4.1-1.6,1.3-1.5-3.2-4.6,1.8-6.2-.8-.1.3.9,1.4-.3,2.2-1.7.3-1.6-1.2-2.3-1.8-.5.9-3.1,1.6-2.8,1.1-1.1.8,1.2,3.1-.4,4.5-1.1,2.1-2.5.3-3.8.9-1.5-1.5,1.5-1,2.1-1.8l-4.3,1c-1.3-1.1.6-2.1,1.8-1.8-1.7-1.4-3.9-.1-4.4,1.6-1.1-.4-1.6,0-2.6-.7,1-1,.9-4,2.5-4.6,2.6.2-.9,2.3,1.3,2.8l.2-1.8c.9,1,1.7-.3,2.7-.5.6.5-.1.7-.5.9,1.8-.1,3.3.8,4.7-1.2-2.5-1.7-6.2.6-7.3-1.5l-4.9,2.5c0,.8,1.7,2.2.3,3.5a4.69,4.69,0,0,0-3.9-3.5c.7,2.3-3,2.1-2.1,4,.9-1.2,1.3.8,1.4,1-1.8.1-.2,2.2-1.3,2.3-3.3-.5.1-1.5-3.2-2.3a16,16,0,0,1,4.3-4.4c-.1-1-1.8.1-2.6-1,1.1,1.2-.8,2.2.1,2.7-2.6,1-5.7,3.4-8.9,3.9.5-3.5,5.4-2.6,4.4-6.7-1.6.5-1.6,2.2-2.8,2-1.1-2.1-3.7-.3-5.9-.2l.9,1c-.8.9-2.3.2-3.3,0l.2-.5-.9.7c-.1-.1-.2-.2-.2-.3-1,1.1-3.7,0-5.6.7,0,1.7,2,.1,2.9.3.3.4,2.1,1.1,1.2,2.3-2.4,0-4.2,2-6.9,2l.9.5c-.9,1.2-2.1.6-3.4.7-2.4-1.2,1.8-2.4.3-3.3.9-1.5,2.6.2,2.8-2l-1.5-2.3c-1.3,1.4-2.7-.7-3.5-.4l.9,1c-.2,1.8-1.1.5-1.5.2l.6,2.7c1.4.5,2.3-1.9,3.3-.3-2.5.9-1.9,3-4.8,3.1-.1-1,.6-.4.9-1.2-1-.7-2.1,1.4-3.7.6.9-.7,2.5-1.7,1.3-3.1l-.9,2c-.8-.3-.4-1.1-.8-1.2-1.1-.4.2,2.1-1.5,1.6-.3-.4-.8-.8-.6-1.3-2-.1-.9.7-2.8,1.6,1.6,0,1.7,3.1,0,3.4-2.4-.3-4,1.4-5.7-1.2l-1.1,1.3c.7-1.9-1.5-.7-2.3-1-.3-2.1,3.6.1,3.6-3.3-1.6-.3-.9-1.4-.4-2.3-1.7.3-.6,2.4-1.4,3.8,0-.8-2.9-.3-1.9-2.1-1.4-.1-1.7,2-2.8,1.6a9.45,9.45,0,0,0,.2-3c-.1.7-1.5-.2-1.8-.2.3.4-.5,1.8.8,1.2-.3,1.6-3,.1-2.9,1.4-.1-1.9-2.7-.4-4-1.2.1,4.4,2.5-1.7,2.9,2-1.8,1.5-5.9.1-8.8,2.1-2.5-.8,0-1.7-.5-3.3,2.3-.7,2.8.6,4.8-.2-2.1-.8-5.7-.3-7.2,1.1-2.3.2-2.6-4.4-5.4-3.3.4,1.4.3,1.8,1.2,2.3-.8.5-1.6,0-2.5,0-.5.9,1.3,1.1.1,1.9-.4-.3-1.4-.5-1.2-1.4l.2-.1c-2.7,1.3-2-3.5-4.3-.7.2.7.7-.2,1.3.3.4,1.1-1,2.7-2.1,3.1.2-1-.9-.2-1.7-.5-.5-1.6,1.9-.5,2.3-1.6l-2.1-.3.4.3-2.3,1.6c1.6-.5.8,2,.1,2.2-1.6-.3-3.1-.6-3-2.5-.2,1.8-2.1,1.8-3.5,2.2,1.5.7.2,1.6-.2,2.2l-2.3-1.8c2.4-.5-.5-1.6.1-2.9.7-1.9,2.1-.9,3.4-.7-2.5-3.4-3.5,1.8-5.6.2,0-.8.2-1.8,1.1-1.6-.4-.6-2,1.6-3.4.7.4.6,1.2,2.3-.2,3l-1.9-2.1c-2.2-.5-.8,2.2-2.6,3.2l1.2,1.4c-.2,1.8-2.5,0-2.5,2,1.1.1,1.8-1.5,3-.9.4,2-1.5,1-2.2,2.1-2.5-.8-2-.9-3.8-2.5-.1-3.1,3-3.8,2.6-7.8-2.4.5-5.9,1.5-7.4.3-2.1.9-1.9,3.3-1.6,5.1a1.64,1.64,0,0,1-1.9-.4l1-1c-2.6,1-4.2,2-6.9,2-1.6.5-.9,2.4-.6,3.8l-1.7.3.3.4c-.4,2-1.9,1.3-3,1.2,0-.8.7-1,.6-1.6a2.7,2.7,0,0,0-3.3.3c0-.8.7-2.7,1.9-2.2.1.2.1.5.2.7l2-1.1c-2.3,1-3.7-1.1-3.7-3.1-2.3,1,1.9,2.1-.9,2.9-3.7-4-6.9,1.1-9-4.5-1.7,1.2-3.7,3.1-6.4,3.3,0,1.7-1.8.7-1.5,2.7,2.5,2.2,4.7-3.3,6.7-.1,1.1-.8.7-2.2,1.3-3.1,1-.1,1.9.1,2.1,1.1-2.3,1-.6,4.1-3.6,4.2.4,1.4,2.8.9,3.8,1.3a2.09,2.09,0,0,0,.7,2.3c-.8,1.4-2.5,2.5-3.3,3.7.3-.8-.3-1.2,0-1.7l-3.1,2.4a2.89,2.89,0,0,1-.7-3.2c-1.7-.5-4.6,1.8-4.6-.8-2.2.4.7,1.5.9,2.2l-.2.1,2.3-.2c.3,2.9-2.6-.7-3,2.1-.4,5.3-3.3-1.7-4.9-.8l1.9-3.8-1.6.8c.9-1.5.9-4,2.4-5.6-2.3-.1-5.5-1.3-6.9-.6a6.39,6.39,0,0,1-.6-3.8c-2.3,2.4-3.5-1.2-5.5-1.3-2.1,1.4,2.1,2,.6,3.8-.6-1-1.8-.2-2.3.2.6-.7,2.8.6,4.3,1.2-1.1-.1-1,1.8-1.3,2.6l1.9.4c-.1,2.3-2.3.2-3.2,1.4.6-2.1.3-2.2.8-4.2a5.42,5.42,0,0,1-5.5-.4c-.8-.8.7-1,1.1-1.6-.4-1.4-1.6.9-2-.9.3-1.3,1-.1,1.6-.5l-4.8-.6c0-.8,1.2-1.1,1.9-.8-1.5-1-2.5-.5-4.2,2.4-1.6-.8-3.5-2.1-3-3.3-.8.5-.3,1.3-.2,2.2-2.2-.5-2.5,2.5-3.8,2.6l1,1.6c-2.1-1.6-.5,2.6-2.4,1.4a15.81,15.81,0,0,0-.1-5.3c-.3,1.6-1.5.2-2.3.2.5,1.6-1.8,1.5-.4,3.1-1.9,1.3-2.8-.9-4.2,1.2.9.5-1.6,1.7-.9,2.9a2.76,2.76,0,0,1-2.6-3.6c.6.1,1.6.8,1.6-.5l-3.3.3c-.8-.8-1.9-1.2-2-3.1-1.1,2.2-3.1-1.5-4,1,1.1-1.6,2,.6,2.5.8l-.5.4a.37.37,0,0,1,.3.1l-1.4,3.3c1.4,1.3.2-2.1,2.2-2.1,1.7,3.1-3.8,4.6-2.1,6.5,1.4,1,1.2-2,2.4-3.1l-.3-.1,2.7-1.3a2.86,2.86,0,0,1-.7,1.9c3.3,0,3.8,1.6,7.3,2-.3-.4-.9-3.6.6-4.1,1.1-.8,1.3,1.1,2.2,1.3-.6.4-1.1,2.2-1.8,1l.1,2.2c-2.6,2.7-1.3,4.8-4.8,5.6-.2,1.6-2.8,2.5-4.7,2l.9,1.5c-2,2.8-.4-2.3-3,.1-1.1-2.9-3-6.4-1.6-8.8-1.8-.7-2.5.9-4.1.9-1-2.4.5-2.6.3-5-1.2.3-2.7,1.3-1.8,2.7l-2.3-1c-.1-.5.8-.5,1.1-.5-.9-.5-2.6.7-3.1,1.6.2-.1.8-.5,1-.1-.9.6-2.6,1.8-2.8,2.5,1.4-1.2,1.5,1.5,3-.1-.1.6-.4,2-1.1,1.6,1.2,1.4,2.4,1.2,2.9,2.8-1-1.2-1.7.5-1.9.8a3.3,3.3,0,0,0,3.3-.7c.1,2.7,3.5-.5,2.3,2.3.2-1,1.5-1,2.2-.4-.1,1.2-1.8,1.8-2.6,3.2-3.5,1.3.1-2-.8-2.9l-2.7.2c.3.4-1.1,1.9.7,1.8-.8,1.7-2.5,2.9-3.9,1.6-.3.8.7.7,1,.7-.3.8-2,3.7.2,4.1-.6-.1,1.1-1.3-.1-2.2.9-.3,3.3.8,2.3,2.3,1.1-.5,3.1-1.6,4-1.9.3,1.2-.8.5-1.2,1.1l3.1-.7-.9-1.4c2.3,1,3.7-2.3,5.5-3.3-.3,2.2-1.8,2.4-3,3.5,1.1,2.6.8-1.4,2.6-1a2.05,2.05,0,0,1,.2,1.6l1.5-1.9a.46.46,0,0,1,0,.8c2.6-2.4-.1-3.1,3.4-4-2.1-1.1-1.8,1.5-3.5,1.3-1-1.6,2-2.8,2.5-3.7,1.7.5,1.9,3.8,4,2-1.5,1-.1,2-2.2,2.1-1.2,1.1.6,1,.9,2.2.6-.4-.4-2.3,1.2-2l-.1.3,2.6-2.3c2.4,1.2,5.4-2.6,7.1-.1l-.4-2.3a27.63,27.63,0,0,0,4.7-.7c-.2,1.3-1.3,1.4-2.3,1.9,2.7.4,5.1-1,6.9-2.8a13.29,13.29,0,0,0-2.8-2.6c1.8-3.2,2.1,2,4.4.4.1,2.2-.7,1.9-.1,4,.9-1.5,2.5-1.2,3.6-2.5.6,2.2-.4,4-2.8,4.2-1.8-1.9-3.7,1.4-5.2-.4l.9,1.4c-1.8.7-2.8.3-4.3,1.3l.1-.3-.8,2.2h.8c-.6,1.2-2.3,3.3-2.8,3.3,2.5-.3,2.7-3.8,3.9-5.8,2.3.1,3.2,4,4.7,2.1.1,1.1,1.4,2.2.4,3.1-1.3.6-2.1-.8-2.3.7,1.3-.1.8.8,2.8.6a12.19,12.19,0,0,1,3.3-5.4,5,5,0,0,1,4.7-.4c-1.5.2-3,2.1-2.6,3.5.9-2,3,1.6,2.5-1.2,1.8.2,4.7.1,4.9,2.5-1.7.9-3.3-.6-4.7-.1a.85.85,0,0,1,.5,1.2l-2.1-.3c1.6,1.2,1.3,2,3.3,1.7-.1-.2-.4-.6-.2-.7.5-.1,1.1.1,1.6,0l.1,2.2c1.5-1,4.4,1.8,7.2.1l-.2.5c2.2.5,2.4-3.9,4.8-4.4-.7,1-.4,2-.3,3,1.2-1.1,1.8.7,3,1.3-1.4-1.3.9-2.3-.1-3.1-.1-2.2,2.4-2.2,3.7-2,.8,2.9-3.9,1.6-2,4.5,1.3.3,1.6-1.4.7-1.9,1.6.3,4,.6,5.1,2.4,1.9-2.2,2.6-1,3.8-3.8-1,.1-1.1,2.2-2.3,1l1.4-2.1c1.8-.1,3.3,1.7,4.5,1.9l-1.3.9.1-.3c-.5.9-2.2.4-2,2,1.2-2,2.1-.1,3.7-1.4l-.1.3c2.8-1.6,4.8,3.2,6.5-.9-.5.1-1.5-1.5-1.2-2.3.6,1,2.3.6,2.3,1.8l-.6.4c1.6.3,2.5.5,3.1.1.4-1.4,0-2.5,1.1-3.3,2.8.9-1.1,3.3.8,4.6l2.6-1.5.6,1.3c3.8,1.3,6.8-3,10.9-3,.1,2.2-2.9,3.1-3.9,3.3,1.3,2,3.1-.7,4.8.6,1.6.3,2.8-1.6,2.5-2.9,1.9-.8,1.4,1.3,1.6,1.7.6-2.4,3.1-1.6,4.7-2.1l.1,1.4,2.5-1.7c-.6-.1-.1-1.4-.1-2.2l.6.1c-2.4-3.7-5.4,2.6-7.9-1.6.8-.5-.3-1.2.5-1.8.6.1.8.3.8.9.4-1.1,1.4-2.1.1-2,.1-2.9,2.7-2.2,4.5-3.1,1.5,1.8-1.5,2.7-2.3,4.1.7-.2,1.3-1.4,2.3-.7l-.2,2.1c2.5-1.2.7-1.9,1.3-4,.7-2.7,2.3.1,3-.1l-.1.5c2,.9,2.4-1.4,4.2-1.2l.8,1.7c-2.2-2.2-2.7,3-4,1.9,3.2,2-.7,4.4-1.7,6.3a2.9,2.9,0,0,1,3.4,1c2-2.8,4.2,1,6.2-2.3,1.1.4-.9,1.5.2,1.6a9.82,9.82,0,0,0,6.5-1.4c1.1.1.9,1,1.3,1.9,5.5,1.3,7.6-3.9,13.6-2.6l-.9,1.2c1.3.3,2.3.7,3-.9,1.6,3.7,5.4-2.3,7.4,1.7,2.6.7,2.8-2.5,4.9-3.1,0,.8-.6,2.4.4,2.8,6.8-1.3,12.9-1.6,20.4-2.2a1.41,1.41,0,0,1-.6.7c4.9.3,9.6-3.3,13.7-2.1.8-.5,3-1.2,2.3-2.7-.9-.2-1.1-2.1-1-3.3,3.6-1.6,1.8,2.7,4.2,2.2.8,2.9-1.5,1.9-1.5,4.4l3.5-1.8c2,.9,3.9-.7,5.6.6-.8-.3-.2,2.1-1.5,1,.2-.1.1-.3.3-.5-2.9-.2-1.6,1.4-4.2,2,2.3-.7,5.4-1.4,7.4-.9-.4-1.9,1.6-.8,2.2-2.1l.1.2c0-.8,1.3-1.4,1.6-1.7l.5,2.5c.9-.3-.3-1.2.6-1.6,1.3-.6,5.7-.9,6,1.7,1.5-.2,2-1.6,3.5-1.3-.1.7-.5.9-.6,1.2,3.3.5,7.4-.3,10.6,1.2,2.6-.7,4.8-1,6.4-2.7-.7.2-2.7-.4-1.4-1.8.7-1,1.8-.7,2.8-1.1-.3,1.3,2.7,1.2.6,2.1.5,2.8,4.6-.6,4.6,2.3.5-.9,3.5-.4,4.7-1.9.3,1.2-1.6.9-1.6,1.7l1.4-.4v.8c2.7.7,3.1-2.7,4.7-3.3l-.1.3,1.1-.5-1.3,2.3c1.7-.3,2.6-2.4,4.5-2.8l.2.7,1.1-.8a.48.48,0,0,0-.1.7c1.1-2.2,3.5-1.3,4.5-3.1.8.3,1.4,3,2.4,1.2l-.2,2.7c-2.5.3-.9-1.9-3.6-.9,2,3.4,7.4,3,11.1,2.8,3-1.8,7.8,1.1,9.1-2.9l-.3,1.6,5,1.4c4.2-.7,8.6.6,11.8-1.6l.9,1.4c3.3-4.6,11.3-1.9,13.5-7.4,1.9,1.2-.6,2.1-.8,3.1,1.4.4,3.7-3.1,5-.7,0,.8-2,.8-1.1,1.3,1,1.6,1.4-1.6,2.6.2-.5-1.6,1.8-3.5,3.5-3.8-.3-.1-.3-.1-.4-.3-.2-1.2,1-1,1.7-1.2a1.46,1.46,0,0,1-.3.5c8.7-2.1,18.8-3.1,28-1.5l-1.7,1.2c1.3-.9,3.7-.3,4.4.1l-.2.1c2.5,2.5,2.8-2.5,4.7.5l-.4.3c3-.1,4.7,2.7,7.6,1.2,2.3,1,2,2.3,3.6,3.4,1.3-.1,1.9-1.6,2-2l-.6-.1c-.7-1.5,1.4-1.2,2.3-1.9-.7-2.3-.3-6-3-8.4-2,.8-1.9-3.8-4.1-3.4-1.3,3.1-3.2-2.3-5.2.5,1.1-2.1-2.4-1.2-.6-3.5-.8-1.7-4.3,1.8-5.9-.2.3-.5.2-1,.6-1.2-2.2,1.2-1.5-1.5-3.2-1.5l.1,2.2c-.6.7-.8-.8-1.4-.5.4.3,1.4,1.3.9,2.2-.8.5-1.4,1.2-2.2,1.2a2.05,2.05,0,0,1,.9-1.5s-1.8-.2-1.9-1.2c.6-.7,1.4-.7,2-2-2.3-.6-.2-.7-1.3-2.5.3,2.6-2,1.1-3.3,1.7-.1-1,.9-.3,1.2-1.1-2.4-4.6-3.6.8-6.7-.2a1.41,1.41,0,0,1,.6-.7c-1.5.7-2.5-1.7-3.4-.2-1.4-.5-.3-2.9-2.4-2.9.6,2.7-2.5-.5-2.6,2.3l-1.6-1.7c-1.5,1.6.4,4.8-2.4,5.1-2.6-1,.2-4.7-1.3-6.2l-.6,1.6-1.3-1.1.2-.1c-.8.5-2.1.1-2.1-.8.1-.7.9-.7,1.1-1.3-1.3,1.4-5-3.9-6.3.4-.7-.8-2.3-.7-2.1-2.1-.7,1.9-3.4-.6-4.4.6.1-.7-.8-1.7-1.6-1.2,1,.7.4,1.4-.3,2.5-.9-1.4-3.4-.2-3.8-2.5-1.4,1.2-.9,2.9-1.2,4.5-.9-1.4-3.7-1.1-3.2-3.7.8.3,2.5.8,2.1-.9-1.4-1-.6.7-1.8,1,.1-.5-.8-1.6-.6-2.4a3.27,3.27,0,0,1-2.7-.2c1.6,1.2-1,1.8-.1,2.9l1.5-1.9c1.8-.1.4,1.4,1.1,2.1-3.2.5-2.6,3.2-5.6,4.4a6.27,6.27,0,0,0-1.9-1.2c1-.1.8-2.5.2-3-1.7,2-3-1.3-4.4-1.8,1.2.6.6,2.1.1,2.7-2.9,1.4-1.1-.9-2.4-2-4.5.3-7.3-2.9-10.9-1.2l1.7,2.2.6-2.1c1.3,1.6-.2,4.7-1,6.1-.2-.7-2.4-.3-1.5-1.5l-2.1.9c.3.9,1.7.5.7,1.5-.7-.7-2.9-1.1-1.5-2.3-1.1-.1-2.6.7-2.3,1.9-1.8.1.2-2.7,1-3.5-1.4-.1-1.3-1.9-.8-2.5l-2,.3c.4-.6.4-1.4.9-2-1.3-.8-2.3,1.6-3.4-.2l-.5,1.8c-3.7-1.4-3.3-1.7-6.7-1.9l.6,1.3c-2.6,2.3-1.9-2.1-5.4-1.1-2,.8-3.2,1.4-3,3.5-1.1.8-1.4-.5-1.9-1.2-.9,1.2-2.8,3.3-4.2,2a11.59,11.59,0,0,1,2.6-1.5c-.3-2.1-3-.4-4.5-1.4-1,1-4.3,3.5-6.1,5.4a5.52,5.52,0,0,1-1.1,5.9c.3-1.3-2.2-1.3-3.3-2.2.6-1.2-2.5-3-.1-3.6.7.6,1,2.4,2,1.8a12.41,12.41,0,0,0-3.7-4,1.94,1.94,0,0,1,1.8-1.5C301.3,157.5,301.5,157.9,301.6,158.4Z" transform="translate(-58.2 -7.49)"/><path class="cls-3" d="M73.7,184.5c.1,0,.2.1.3.1l-.3-.5C73.8,184.3,73.8,184.4,73.7,184.5Z" transform="translate(-58.2 -7.49)"/><path class="cls-3" d="M252.4,157.6a1.18,1.18,0,0,0-.4.7A1,1,0,0,0,252.4,157.6Z" transform="translate(-58.2 -7.49)"/><path class="cls-3" d="M218.1,159.1a.75.75,0,0,0,.1.5A1.09,1.09,0,0,0,218.1,159.1Z" transform="translate(-58.2 -7.49)"/><path class="cls-3" d="M71.5,169.8l.6-.4C71.9,169.3,71.8,169.6,71.5,169.8Z" transform="translate(-58.2 -7.49)"/><line class="cls-2" x1="0.5" y1="298.01" x2="383.8" y2="298.01"/><path class="cls-3" d="M438.3,295.7l-1,.1C437.4,295.9,437.7,295.9,438.3,295.7Z" transform="translate(-58.2 -7.49)"/><path class="cls-3" d="M439.1,297.6Z" transform="translate(-58.2 -7.49)"/><path class="cls-3" d="M130.6,326.7a1,1,0,0,0-.8.6C130.3,327.2,130.6,327,130.6,326.7Z" transform="translate(-58.2 -7.49)"/><path class="cls-3" d="M187.5,289.4v.5A.45.45,0,0,0,187.5,289.4Z" transform="translate(-58.2 -7.49)"/><path class="cls-3" d="M427,296.6c.1,0,.3.1.4.1C427.5,296.2,427.1,296.3,427,296.6Z" transform="translate(-58.2 -7.49)"/><path class="cls-3" d="M115.9,324.7a4.33,4.33,0,0,0-.1.5A1.09,1.09,0,0,0,115.9,324.7Z" transform="translate(-58.2 -7.49)"/><path class="cls-3" d="M392.2,287.8c-.1.1-.3.1-.4.2C391.9,288,392,287.9,392.2,287.8Z" transform="translate(-58.2 -7.49)"/><path class="cls-3" d="M199,327.8a2.09,2.09,0,0,0,.4-.6A.55.55,0,0,0,199,327.8Z" transform="translate(-58.2 -7.49)"/><path class="cls-3" d="M199.2,322.6c-2.9,1.5.6,3,.2,4.6.8-.4,2.4-.1,1.6-1.3,1.5,3.2,4.6-1.8,6.2.8.1-.3-.9-1.4.3-2.2,1.7-.3,1.6,1.2,2.3,1.8.5-.9,3.1-1.6,2.8-1.1,1.1-.8-1.2-3.1.4-4.5,1.1-2.1,2.5-.3,3.8-.9,1.5,1.5-1.5,1-2.1,1.8l4.3-1c1.3,1.1-.6,2.1-1.8,1.8,1.7,1.4,3.9.1,4.4-1.6,1.1.4,1.6,0,2.6.7-1,1-.9,4-2.5,4.6-2.6-.2.9-2.3-1.3-2.8l-.2,1.8c-.9-1-1.7.3-2.7.5-.6-.5.1-.7.5-.9-1.8.1-3.3-.8-4.7,1.2,2.5,1.7,6.2-.6,7.3,1.5l4.9-2.5c0-.8-1.7-2.2-.3-3.5a4.69,4.69,0,0,0,3.9,3.5c-.7-2.3,3-2.1,2.1-4-.9,1.2-1.3-.8-1.4-1,1.8-.1.2-2.2,1.3-2.3,3.3.5-.1,1.5,3.2,2.3a16,16,0,0,1-4.3,4.4c.1,1,1.8-.1,2.6,1-1.1-1.2.8-2.2-.1-2.7,2.6-1,5.7-3.4,8.9-3.9-.5,3.5-5.4,2.6-4.4,6.7,1.6-.5,1.6-2.2,2.8-2,1.1,2.1,3.7.3,5.9.2l-.9-1c.8-.9,2.3-.2,3.3,0l-.2.5.9-.7c.1.1.2.2.2.3,1-1.1,3.7,0,5.6-.7,0-1.7-2-.1-2.9-.3-.3-.4-2.1-1.1-1.2-2.3,2.4,0,4.2-2,6.9-2l-.9-.5c.9-1.2,2.1-.6,3.4-.7,2.4,1.2-1.8,2.4-.3,3.3-.9,1.5-2.6-.2-2.8,2l1.5,2.3c1.3-1.4,2.7.7,3.5.4l-.9-1c.2-1.8,1.1-.5,1.5-.2l-.6-2.7c-1.4-.5-2.3,1.9-3.3.3,2.5-.9,1.9-3,4.8-3.1.1,1-.6.4-.9,1.2,1,.7,2.1-1.4,3.7-.6-.9.7-2.5,1.7-1.3,3.1l.9-2c.8.3.4,1.1.8,1.2,1.1.4-.2-2.1,1.5-1.6.3.4.8.8.6,1.3,2,.1.9-.7,2.8-1.6-1.6,0-1.7-3.1,0-3.4,2.4.3,4-1.4,5.7,1.2l1.1-1.3c-.7,1.9,1.5.7,2.3,1,.3,2.1-3.6-.1-3.6,3.3,1.6.3.9,1.4.4,2.3,1.7-.3.6-2.4,1.4-3.8,0,.8,2.9.3,1.9,2.1,1.4.1,1.7-2,2.8-1.6a9.45,9.45,0,0,0-.2,3c.1-.7,1.5.2,1.8.2-.3-.4.5-1.8-.8-1.2.3-1.6,3-.1,2.9-1.4.1,1.9,2.7.4,4,1.2-.1-4.4-2.5,1.7-2.9-2,1.8-1.5,5.9-.1,8.8-2.1,2.5.8,0,1.7.5,3.3-2.3.7-2.8-.6-4.8.2,2.1.8,5.7.3,7.2-1.1,2.3-.2,2.6,4.4,5.4,3.3-.4-1.4-.3-1.8-1.2-2.3.8-.5,1.6,0,2.5,0,.5-.9-1.3-1.1-.1-1.9.4.3,1.4.5,1.2,1.4l-.2.1c2.7-1.3,2,3.5,4.3.7-.2-.7-.7.2-1.3-.3-.4-1.1,1-2.7,2.1-3.1-.2,1,.9.2,1.7.5.5,1.6-1.9.5-2.3,1.6l2.1.3-.4-.3,2.3-1.6c-1.6.5-.8-2-.1-2.2,1.6.3,3.1.6,3,2.5.2-1.8,2.1-1.8,3.5-2.2-1.5-.7-.2-1.6.2-2.2l2.3,1.8c-2.4.5.5,1.6-.1,2.9-.7,1.9-2.1.9-3.4.7,2.5,3.4,3.5-1.8,5.6-.2,0,.8-.2,1.8-1.1,1.6.4.6,2-1.6,3.4-.7-.4-.6-1.2-2.3.2-3l1.9,2.1c2.2.5.8-2.2,2.6-3.2l-1.2-1.4c.2-1.8,2.5,0,2.5-2-1.1-.1-1.8,1.5-3,.9-.4-2,1.5-1,2.2-2.1,2.5.8,2,.9,3.8,2.5.1,3.1-3,3.8-2.6,7.8,2.4-.5,5.9-1.5,7.4-.3,2.1-.9,1.9-3.3,1.6-5.1a1.64,1.64,0,0,1,1.9.4l-1,1c2.6-1,4.2-2,6.9-2,1.6-.5.9-2.4.6-3.8l1.7-.3-.3-.4c.4-2,1.9-1.3,3-1.2,0,.8-.7,1-.6,1.6a2.7,2.7,0,0,0,3.3-.3c0,.8-.7,2.7-1.9,2.2-.1-.2-.1-.5-.2-.7l-2,1.1c2.3-1,3.7,1.1,3.7,3.1,2.3-1-1.9-2.1.9-2.9,3.7,4,6.9-1.1,9,4.5,1.7-1.2,3.7-3.1,6.4-3.3,0-1.7,1.8-.7,1.5-2.7-2.5-2.2-4.7,3.3-6.7.1-1.1.8-.7,2.2-1.3,3.1-1,.1-1.9-.1-2.1-1.1,2.3-1,.6-4.1,3.6-4.2-.4-1.4-2.8-.9-3.8-1.3a2.09,2.09,0,0,0-.7-2.3c.8-1.4,2.5-2.5,3.3-3.7-.3.8.3,1.2,0,1.7l3.1-2.4a2.89,2.89,0,0,1,.7,3.2c1.7.5,4.6-1.8,4.6.8,2.2-.4-.7-1.5-.9-2.2l.2-.1-2.3.2c-.3-2.9,2.6.7,3-2.1.4-5.3,3.3,1.7,4.9.8l-1.9,3.8,1.6-.8c-.9,1.5-.9,4-2.4,5.6,2.3.1,5.5,1.3,6.9.6a6.39,6.39,0,0,1,.6,3.8c2.3-2.4,3.5,1.2,5.5,1.3,2.1-1.4-2.1-2-.6-3.8.6,1,1.8.2,2.3-.2-.6.7-2.8-.6-4.3-1.2,1.1.1,1-1.8,1.3-2.6l-1.9-.4c.1-2.3,2.3-.2,3.2-1.4-.6,2.1-.3,2.2-.8,4.2a5.42,5.42,0,0,1,5.5.4c.8.8-.7,1-1.1,1.6.4,1.4,1.6-.9,2,.9-.3,1.3-1,.1-1.6.5l4.8.6c0,.8-1.2,1.1-1.9.8,1.5,1,2.5.5,4.2-2.4,1.6.8,3.5,2.1,3,3.3.8-.5.3-1.3.2-2.2,2.2.5,2.5-2.5,3.8-2.6l-1-1.6c2.1,1.6.5-2.6,2.4-1.4a15.81,15.81,0,0,0,.1,5.3c.3-1.6,1.5-.2,2.3-.2-.5-1.6,1.8-1.5.4-3.1,1.9-1.3,2.8.9,4.2-1.2-.9-.5,1.6-1.7.9-2.9a2.76,2.76,0,0,1,2.6,3.6c-.6-.1-1.6-.8-1.6.5l3.3-.3c.8.8,1.9,1.2,2,3.1,1.1-2.2,3.1,1.5,4-1-1.1,1.6-2-.6-2.5-.8l.5-.4a.37.37,0,0,1-.3-.1l1.4-3.3c-1.4-1.3-.2,2.1-2.2,2.1-1.7-3.1,3.8-4.6,2.1-6.5-1.4-1-1.2,2-2.4,3.1l.3.1-2.7,1.3a2.86,2.86,0,0,1,.7-1.9c-3.3,0-3.8-1.6-7.3-2,.3.4.9,3.6-.6,4.1-1.1.8-1.3-1.1-2.2-1.3.6-.4,1.1-2.2,1.8-1l-.1-2.2c2.6-2.7,1.3-4.8,4.8-5.6.2-1.6,2.8-2.5,4.7-2l-.9-1.5c2-2.8.4,2.3,3-.1,1.1,2.9,3,6.4,1.6,8.8,1.8.7,2.5-.9,4.1-.9,1,2.4-.5,2.6-.3,5,1.2-.3,2.7-1.3,1.8-2.7l2.3,1c.1.5-.8.5-1.1.5.9.5,2.6-.7,3.1-1.6-.2.1-.8.5-1,.1.9-.6,2.6-1.8,2.8-2.5-1.4,1.2-1.5-1.5-3,.1.1-.6.4-2,1.1-1.6-1.2-1.4-2.4-1.2-2.9-2.8,1,1.2,1.7-.5,1.9-.8a3.3,3.3,0,0,0-3.3.7c-.1-2.7-3.5.5-2.3-2.3-.2,1-1.5,1-2.2.4.1-1.2,1.8-1.8,2.6-3.2,3.5-1.3-.1,2,.8,2.9l2.7-.2c-.3-.4,1.1-1.9-.7-1.8.8-1.7,2.5-2.9,3.9-1.6.3-.8-.7-.7-1-.7.3-.8,2-3.7-.2-4.1.6.1-1.1,1.3.1,2.2-.9.3-3.3-.8-2.3-2.3-1.1.5-3.1,1.6-4,1.9-.3-1.2.8-.5,1.2-1.1l-3.1.7.9,1.4c-2.3-1-3.7,2.3-5.5,3.3.3-2.2,1.8-2.4,3-3.5-1.1-2.6-.8,1.4-2.6,1a2.05,2.05,0,0,1-.2-1.6L426,291a.46.46,0,0,1,0-.8c-2.6,2.4.1,3.1-3.4,4,2.1,1.1,1.8-1.5,3.5-1.3,1,1.6-2,2.8-2.5,3.7-1.7-.5-1.9-3.8-4-2,1.5-1,.1-2,2.2-2.1,1.2-1.1-.6-1-.9-2.2-.6.4.4,2.3-1.2,2l.1-.3-2.6,2.3c-2.4-1.2-5.4,2.6-7.1.1l.4,2.3a27.63,27.63,0,0,0-4.7.7c.2-1.3,1.3-1.4,2.3-1.9-2.7-.4-5.1,1-6.9,2.8a13.29,13.29,0,0,0,2.8,2.6c-1.8,3.2-2.1-2-4.4-.4-.1-2.2.7-1.9.1-4-.9,1.5-2.5,1.2-3.6,2.5-.6-2.2.4-4,2.8-4.2,1.8,1.9,3.7-1.4,5.2.4l-.9-1.4c1.8-.7,2.8-.3,4.3-1.3l-.1.3.8-2.2h-.8c.6-1.2,2.3-3.3,2.8-3.3-2.5.3-2.7,3.8-3.9,5.8-2.3-.1-3.2-4-4.7-2.1-.1-1.1-1.4-2.2-.4-3.1,1.3-.6,2.1.8,2.3-.7-1.3.1-.8-.8-2.8-.6a12.19,12.19,0,0,1-3.3,5.4,5,5,0,0,1-4.7.4c1.5-.2,3-2.1,2.6-3.5-.9,2-3-1.6-2.5,1.2-1.8-.2-4.7-.1-4.9-2.5,1.7-.9,3.3.6,4.7.1a.85.85,0,0,1-.5-1.2l2.1.3c-1.6-1.2-1.3-2-3.3-1.7.1.2.4.6.2.7-.5.1-1.1-.1-1.6,0l-.1-2.2c-1.5,1-4.4-1.8-7.2-.1l.2-.5c-2.2-.5-2.4,3.9-4.8,4.4.7-1,.4-2,.3-3-1.2,1.1-1.8-.7-3-1.3,1.4,1.3-.9,2.3.1,3.1.1,2.2-2.4,2.2-3.7,2-.8-2.9,3.9-1.6,2-4.5-1.3-.3-1.6,1.4-.7,1.9-1.6-.3-4-.6-5.1-2.4-1.9,2.2-2.6,1-3.8,3.8,1-.1,1.1-2.2,2.3-1l-1.4,2.1c-1.8.1-3.3-1.7-4.5-1.9l1.3-.9-.1.3c.5-.9,2.2-.4,2-2-1.2,1.9-2.1.1-3.7,1.4l.1-.3c-2.8,1.6-4.8-3.2-6.5.9.5-.1,1.5,1.5,1.2,2.3-.6-1-2.3-.6-2.3-1.8l.6-.4c-1.6-.3-2.5-.5-3.1-.1-.4,1.4,0,2.5-1.1,3.3-2.8-.9,1.1-3.3-.8-4.6l-2.6,1.5-.6-1.3c-3.8-1.3-6.8,3-10.9,3-.1-2.2,2.9-3.1,3.9-3.3-1.3-2-3.1.7-4.8-.6-1.6-.3-2.8,1.6-2.5,2.9-1.9.8-1.4-1.3-1.6-1.7-.6,2.4-3.1,1.6-4.7,2.1l-.1-1.4-2.5,1.7c.6.1.1,1.4.1,2.2l-.6-.1c2.4,3.7,5.4-2.6,7.9,1.6-.8.5.3,1.2-.5,1.8-.6-.1-.8-.3-.8-.9-.4,1.1-1.4,2.1-.1,2-.1,2.9-2.7,2.2-4.5,3.1-1.5-1.8,1.5-2.7,2.3-4.1-.7.2-1.3,1.4-2.3.7l.2-2.1c-2.5,1.2-.7,1.9-1.3,4-.7,2.7-2.3-.1-3,.1l.8-.5c-2-.9-2.4,1.4-4.2,1.2l-.8-1.7c2.2,2.2,2.7-3,4-1.9-3.2-2,.7-4.4,1.7-6.3a2.9,2.9,0,0,1-3.4-1c-2,2.8-4.2-1-6.2,2.3-1.1-.4.9-1.5-.2-1.6a9.82,9.82,0,0,0-6.5,1.4c-1.1-.1-.9-1-1.3-1.9-5.5-1.3-7.6,3.9-13.6,2.6l.9-1.2c-1.3-.3-2.3-.7-3,.9-1.6-3.7-5.4,2.3-7.4-1.7-2.6-.7-2.8,2.5-4.9,3.1,0-.8.6-2.4-.4-2.8-6.8,1.3-12.9,1.6-20.4,2.2a1.41,1.41,0,0,1,.6-.7c-4.9-.3-9.6,3.3-13.7,2.1-.8.5-3,1.2-2.3,2.7.9.2,1.1,2.1,1,3.3-3.6,1.6-1.8-2.7-4.2-2.2-.8-2.9,1.5-1.9,1.5-4.4l-3.5,1.8c-2-.9-3.9.7-5.6-.6.8.3.2-2.1,1.5-1-.2.1-.1.3-.3.5,2.9.2,1.6-1.4,4.2-2-2.3.7-5.4,1.4-7.4.9.4,1.9-1.6.8-2.2,2.1l-.1-.2c0,.8-1.3,1.4-1.6,1.7l-.5-2.5c-.9.3.3,1.2-.6,1.6-1.3.6-5.7.9-6-1.7-1.5.2-2,1.6-3.5,1.3.1-.7.5-.9.6-1.2-3.3-.5-7.4.3-10.6-1.2-2.6.7-4.8,1-6.4,2.7.7-.2,2.7.4,1.4,1.8-.7,1-1.8.7-2.8,1.1.3-1.3-2.7-1.2-.6-2.1-.5-2.8-4.6.6-4.6-2.3-.5.9-3.5.4-4.7,1.9-.3-1.2,1.6-.9,1.6-1.7l-1.4.4v-.8c-2.7-.7-3.1,2.7-4.7,3.3l.1-.3-1.1.5,1.3-2.3c-1.7.3-2.6,2.4-4.5,2.8l-.2-.7-1.1.8a.48.48,0,0,0,.1-.7c-1.1,2.2-3.5,1.3-4.5,3.1-.8-.3-1.4-3-2.4-1.2l.2-2.7c2.5-.3.9,1.9,3.6.9-2-3.4-7.4-3-11.1-2.8-3,1.8-7.8-1.1-9.1,2.9l.3-1.6-5-1.4c-4.2.7-8.6-.6-11.8,1.6l-.9-1.4c-3.3,4.6-11.3,1.9-13.5,7.4-1.9-1.2.6-2.1.8-3.1-1.4-.4-3.7,3.1-5,.7,0-.8,2-.8,1.1-1.3-1-1.6-1.4,1.6-2.6-.2.5,1.6-1.8,3.5-3.5,3.8.3.1.3.1.4.3.2,1.2-1,1-1.7,1.2a1.46,1.46,0,0,1,.3-.5c-8.7,2.1-18.8,3.1-28,1.5l1.7-1.2c-1.3.9-3.7.3-4.4-.1l.2-.1c-2.5-2.5-2.8,2.5-4.7-.5l.4-.3c-3,.1-4.7-2.7-7.6-1.2-2.3-1-2-2.3-3.6-3.4-1.3.1-1.9,1.6-2,2l.6.1c.7,1.5-1.4,1.2-2.3,1.9.7,2.3.3,6,3,8.4,2-.8,1.9,3.8,4.1,3.4,1.3-3.1,3.2,2.3,5.2-.5-1.1,2.1,2.4,1.2.6,3.5.8,1.7,4.3-1.8,5.9.2-.3.5-.2,1-.6,1.2,2.2-1.2,1.5,1.5,3.2,1.5l-.1-2.2c.6-.7.8.8,1.4.5-.4-.3-1.4-1.3-.9-2.2.8-.5,1.4-1.2,2.2-1.2a2.05,2.05,0,0,1-.9,1.5s1.8.2,1.9,1.2c-.6.7-1.4.7-2,2,2.3.6.2.7,1.3,2.5-.3-2.6,2-1.1,3.3-1.7.1,1-.9.3-1.2,1.1,2.4,4.6,3.6-.8,6.7.2a1.41,1.41,0,0,1-.6.7c1.5-.7,2.5,1.7,3.4.2,1.4.5.3,2.9,2.4,2.9-.6-2.7,2.5.5,2.6-2.3l1.6,1.7c1.5-1.6-.4-4.8,2.4-5.1,2.6,1-.2,4.7,1.3,6.2l.6-1.6,1.3,1.1-.2.1c.8-.5,2.1-.1,2.1.8-.1.7-.9.7-1.1,1.3,1.3-1.4,5,3.9,6.3-.4.7.8,2.3.7,2.1,2.1.7-1.9,3.4.6,4.4-.6-.1.7.8,1.7,1.6,1.2-1-.7-.4-1.4.3-2.5.9,1.4,3.4.2,3.8,2.5,1.4-1.2.9-2.9,1.2-4.5.9,1.4,3.7,1.1,3.2,3.7-.8-.3-2.5-.8-2.1.9,1.4,1,.6-.7,1.8-1-.1.5.8,1.6.6,2.4a3.27,3.27,0,0,1,2.7.2c-1.6-1.2,1-1.8.1-2.9l-1.5,1.9c-1.8.1-.4-1.4-1.1-2.1,3.2-.5,2.6-3.2,5.6-4.4a6.27,6.27,0,0,0,1.9,1.2c-1,.1-.8,2.5-.2,3,1.7-2,3,1.3,4.4,1.8-1.2-.6-.6-2.1-.1-2.7,2.9-1.4,1.1.9,2.4,2,4.5-.3,7.3,2.9,10.9,1.2l-1.7-2.2-.6,2.1c-1.3-1.6.2-4.7,1-6.1.2.7,2.4.3,1.5,1.5l2.1-.9c-.3-.9-1.7-.5-.7-1.5.7.7,2.9,1.1,1.5,2.3,1.1.1,2.6-.7,2.3-1.9,1.8-.1-.2,2.7-1,3.5,1.4.1,1.3,1.9.8,2.5l2-.3c-.4.6-.4,1.4-.9,2,1.3.8,2.3-1.6,3.4.2l.5-1.8c3.7,1.4,3.3,1.7,6.7,1.9l-.6-1.3c2.6-2.3,1.9,2.1,5.4,1.1,2-.8,3.2-1.4,3-3.5,1.1-.8,1.4.5,1.9,1.2.9-1.2,2.8-3.3,4.2-2a11.59,11.59,0,0,1-2.6,1.5c.3,2.1,3,.4,4.5,1.4,1-1,4.3-3.5,6.1-5.4a5.52,5.52,0,0,1,1.1-5.9c-.3,1.3,2.2,1.3,3.3,2.2-.6,1.2,2.5,3,.1,3.6-.7-.6-1-2.4-2-1.8a12.41,12.41,0,0,0,3.7,4,1.94,1.94,0,0,1-1.8,1.5A2.51,2.51,0,0,1,199.2,322.6Z" transform="translate(-58.2 -7.49)"/><path class="cls-3" d="M427,296.6c-.1,0-.2-.1-.3-.1l.3.5Z" transform="translate(-58.2 -7.49)"/><path class="cls-3" d="M248.3,323.4a1.18,1.18,0,0,0,.4-.7A1.61,1.61,0,0,0,248.3,323.4Z" transform="translate(-58.2 -7.49)"/><path class="cls-3" d="M282.6,322a.75.75,0,0,0-.1-.5A1.34,1.34,0,0,0,282.6,322Z" transform="translate(-58.2 -7.49)"/><path class="cls-3" d="M429.2,311.3l-.6.4C428.8,311.7,428.9,311.5,429.2,311.3Z" transform="translate(-58.2 -7.49)"/></svg>