<?xml version="1.0" encoding="utf-8"?>
<!-- Generator: Adobe Illustrator 24.0.2, SVG Export Plug-In . SVG Version: 6.00 Build 0)  -->
<svg version="1.1" id="レイヤー_1" xmlns="http://www.w3.org/2000/svg" xmlns:xlink="http://www.w3.org/1999/xlink" x="0px"
	 y="0px" viewBox="0 0 500.7 351.1" style="enable-background:new 0 0 500.7 351.1;" xml:space="preserve">
<style type="text/css">
	.st0{fill:#FFFFFF;stroke:#FFFFFF;stroke-miterlimit:10;}
	.st1{fill:#FFFFFF;}
</style>
<title>menu_hamburger</title>
<path class="st0" d="M102.6,8.9c-0.1,0-0.3-0.1-0.4-0.2C102.2,8.9,102.5,8.9,102.6,8.9z"/>
<polygon class="st0" points="98.1,146 98.3,146.2 98.8,145.5 "/>
<path class="st0" d="M101.3,144.3c-0.1-0.1,0-0.4-0.1-0.5l-1.9,2.1C100.1,147.1,100.8,143.6,101.3,144.3z"/>
<path class="st0" d="M101.9,144.6c0.7,0.5,1-0.5,1.2-0.8C102.8,144.5,101.7,143.5,101.9,144.6z"/>
<path class="st0" d="M102.6,281.6c-0.1,0-0.3-0.1-0.4-0.2C102.2,281.6,102.5,281.5,102.6,281.6z"/>
<g>
	<g>
		<line class="st1" x1="58.7" y1="45.5" x2="442" y2="45.5"/>
		<g>
			<g>
				<g>
					<g>
						<path class="st1" d="M438.3,35.7l-1,0.1C437.4,35.9,437.7,35.9,438.3,35.7z"/>
						<path class="st1" d="M439.1,37.6C439.2,37.6,439.2,37.6,439.1,37.6C439.2,37.5,439.2,37.5,439.1,37.6z"/>
						<path class="st1" d="M130.6,66.7c-0.4,0.1-0.7,0.3-0.8,0.6C130.3,67.2,130.6,67,130.6,66.7z"/>
						<path class="st1" d="M187.5,29.4c0,0.2,0,0.4,0,0.5C187.6,29.8,187.6,29.6,187.5,29.4z"/>
						<path class="st1" d="M427,36.6c0.1,0,0.3,0.1,0.4,0.1C427.5,36.2,427.1,36.3,427,36.6z"/>
						<path class="st1" d="M115.9,64.7c0,0.1-0.1,0.3-0.1,0.5C115.9,65,115.9,64.8,115.9,64.7z"/>
						<path class="st1" d="M392.2,27.8c-0.1,0.1-0.3,0.1-0.4,0.2C391.9,28,392,27.9,392.2,27.8z"/>
						<path class="st1" d="M199,67.8c0.2-0.2,0.3-0.4,0.4-0.6C199.1,67.3,199,67.5,199,67.8z"/>
						<path class="st1" d="M199.2,62.6c-2.9,1.5,0.6,3,0.2,4.6c0.8-0.4,2.4-0.1,1.6-1.3c1.5,3.2,4.6-1.8,6.2,0.8
							c0.1-0.3-0.9-1.4,0.3-2.2c1.7-0.3,1.6,1.2,2.3,1.8c0.5-0.9,3.1-1.6,2.8-1.1c1.1-0.8-1.2-3.1,0.4-4.5c1.1-2.1,2.5-0.3,3.8-0.9
							c1.5,1.5-1.5,1-2.1,1.8l4.3-1c1.3,1.1-0.6,2.1-1.8,1.8c1.7,1.4,3.9,0.1,4.4-1.6c1.1,0.4,1.6,0,2.6,0.7c-1,1-0.9,4-2.5,4.6
							c-2.6-0.2,0.9-2.3-1.3-2.8l-0.2,1.8c-0.9-1-1.7,0.3-2.7,0.5c-0.6-0.5,0.1-0.7,0.5-0.9c-1.8,0.1-3.3-0.8-4.7,1.2
							c2.5,1.7,6.2-0.6,7.3,1.5l4.9-2.5c0-0.8-1.7-2.2-0.3-3.5c0.6,2.1,2,3.1,3.9,3.5c-0.7-2.3,3-2.1,2.1-4c-0.9,1.2-1.3-0.8-1.4-1
							c1.8-0.1,0.2-2.2,1.3-2.3c3.3,0.5-0.1,1.5,3.2,2.3c-0.7,1-2.5,3.4-4.3,4.4c0.1,1,1.8-0.1,2.6,1c-1.1-1.2,0.8-2.2-0.1-2.7
							c2.6-1,5.7-3.4,8.9-3.9c-0.5,3.5-5.4,2.6-4.4,6.7c1.6-0.5,1.6-2.2,2.8-2c1.1,2.1,3.7,0.3,5.9,0.2l-0.9-1
							c0.8-0.9,2.3-0.2,3.3,0l-0.2,0.5l0.9-0.7c0.1,0.1,0.2,0.2,0.2,0.3c1-1.1,3.7,0,5.6-0.7c0-1.7-2-0.1-2.9-0.3
							c-0.3-0.4-2.1-1.1-1.2-2.3c2.4,0,4.2-2,6.9-2l-0.9-0.5c0.9-1.2,2.1-0.6,3.4-0.7c2.4,1.2-1.8,2.4-0.3,3.3
							c-0.9,1.5-2.6-0.2-2.8,2L258,64c1.3-1.4,2.7,0.7,3.5,0.4l-0.9-1c0.2-1.8,1.1-0.5,1.5-0.2l-0.6-2.7c-1.4-0.5-2.3,1.9-3.3,0.3
							c2.5-0.9,1.9-3,4.8-3.1c0.1,1-0.6,0.4-0.9,1.2c1,0.7,2.1-1.4,3.7-0.6c-0.9,0.7-2.5,1.7-1.3,3.1l0.9-2c0.8,0.3,0.4,1.1,0.8,1.2
							c1.1,0.4-0.2-2.1,1.5-1.6c0.3,0.4,0.8,0.8,0.6,1.3c2,0.1,0.9-0.7,2.8-1.6c-1.6,0-1.7-3.1,0-3.4c2.4,0.3,4-1.4,5.7,1.2l1.1-1.3
							c-0.7,1.9,1.5,0.7,2.3,1c0.3,2.1-3.6-0.1-3.6,3.3c1.6,0.3,0.9,1.4,0.4,2.3c1.7-0.3,0.6-2.4,1.4-3.8c0,0.8,2.9,0.3,1.9,2.1
							c1.4,0.1,1.7-2,2.8-1.6c-0.2,0.8-0.3,1.9-0.2,3c0.1-0.7,1.5,0.2,1.8,0.2c-0.3-0.4,0.5-1.8-0.8-1.2c0.3-1.6,3-0.1,2.9-1.4
							c0.1,1.9,2.7,0.4,4,1.2c-0.1-4.4-2.5,1.7-2.9-2c1.8-1.5,5.9-0.1,8.8-2.1c2.5,0.8,0,1.7,0.5,3.3c-2.3,0.7-2.8-0.6-4.8,0.2
							c2.1,0.8,5.7,0.3,7.2-1.1c2.3-0.2,2.6,4.4,5.4,3.3c-0.4-1.4-0.3-1.8-1.2-2.3c0.8-0.5,1.6,0,2.5,0c0.5-0.9-1.3-1.1-0.1-1.9
							c0.4,0.3,1.4,0.5,1.2,1.4l-0.2,0.1c2.7-1.3,2,3.5,4.3,0.7c-0.2-0.7-0.7,0.2-1.3-0.3c-0.4-1.1,1-2.7,2.1-3.1
							c-0.2,1,0.9,0.2,1.7,0.5c0.5,1.6-1.9,0.5-2.3,1.6l2.1,0.3l-0.4-0.3l2.3-1.6c-1.6,0.5-0.8-2-0.1-2.2c1.6,0.3,3.1,0.6,3,2.5
							c0.2-1.8,2.1-1.8,3.5-2.2c-1.5-0.7-0.2-1.6,0.2-2.2l2.3,1.8c-2.4,0.5,0.5,1.6-0.1,2.9c-0.7,1.9-2.1,0.9-3.4,0.7
							c2.5,3.4,3.5-1.8,5.6-0.2c0,0.8-0.2,1.8-1.1,1.6c0.4,0.6,2-1.6,3.4-0.7c-0.4-0.6-1.2-2.3,0.2-3l1.9,2.1
							c2.2,0.5,0.8-2.2,2.6-3.2l-1.2-1.4c0.2-1.8,2.5,0,2.5-2c-1.1-0.1-1.8,1.5-3,0.9c-0.4-2,1.5-1,2.2-2.1c2.5,0.8,2,0.9,3.8,2.5
							c0.1,3.1-3,3.8-2.6,7.8c2.4-0.5,5.9-1.5,7.4-0.3c2.1-0.9,1.9-3.3,1.6-5.1c0.9-0.3,1.3-0.1,1.9,0.4l-1,1c2.6-1,4.2-2,6.9-2
							c1.6-0.5,0.9-2.4,0.6-3.8l1.7-0.3l-0.3-0.4c0.4-2,1.9-1.3,3-1.2c0,0.8-0.7,1-0.6,1.6c1,0.7,2.5,0.5,3.3-0.3
							c0,0.8-0.7,2.7-1.9,2.2c-0.1-0.2-0.1-0.5-0.2-0.7l-2,1.1c2.3-1,3.7,1.1,3.7,3.1c2.3-1-1.9-2.1,0.9-2.9c3.7,4,6.9-1.1,9,4.5
							c1.7-1.2,3.7-3.1,6.4-3.3c0-1.7,1.8-0.7,1.5-2.7c-2.5-2.2-4.7,3.3-6.7,0.1c-1.1,0.8-0.7,2.2-1.3,3.1c-1,0.1-1.9-0.1-2.1-1.1
							c2.3-1,0.6-4.1,3.6-4.2c-0.4-1.4-2.8-0.9-3.8-1.3c0.3-0.8,0-1.7-0.7-2.3c0.8-1.4,2.5-2.5,3.3-3.7c-0.3,0.8,0.3,1.2,0,1.7
							l3.1-2.4c0.9,1,1.2,2.3,0.7,3.2c1.7,0.5,4.6-1.8,4.6,0.8c2.2-0.4-0.7-1.5-0.9-2.2l0.2-0.1l-2.3,0.2c-0.3-2.9,2.6,0.7,3-2.1
							c0.4-5.3,3.3,1.7,4.9,0.8l-1.9,3.8l1.6-0.8c-0.9,1.5-0.9,4-2.4,5.6c2.3,0.1,5.5,1.3,6.9,0.6c0.6,1.3,0.8,2.5,0.6,3.8
							c2.3-2.4,3.5,1.2,5.5,1.3c2.1-1.4-2.1-2-0.6-3.8c0.6,1,1.8,0.2,2.3-0.2c-0.6,0.7-2.8-0.6-4.3-1.2c1.1,0.1,1-1.8,1.3-2.6
							l-1.9-0.4c0.1-2.3,2.3-0.2,3.2-1.4c-0.6,2.1-0.3,2.2-0.8,4.2c1.6-0.8,4.1-0.8,5.5,0.4c0.8,0.8-0.7,1-1.1,1.6
							c0.4,1.4,1.6-0.9,2,0.9c-0.3,1.3-1,0.1-1.6,0.5l4.8,0.6c0,0.8-1.2,1.1-1.9,0.8c1.5,1,2.5,0.5,4.2-2.4c1.6,0.8,3.5,2.1,3,3.3
							c0.8-0.5,0.3-1.3,0.2-2.2c2.2,0.5,2.5-2.5,3.8-2.6l-1-1.6c2.1,1.6,0.5-2.6,2.4-1.4c-0.3,1.6-0.2,3.5,0.1,5.3
							c0.3-1.6,1.5-0.2,2.3-0.2c-0.5-1.6,1.8-1.5,0.4-3.1c1.9-1.3,2.8,0.9,4.2-1.2c-0.9-0.5,1.6-1.7,0.9-2.9
							c1.8-0.1,3.1,1.8,2.6,3.6c-0.6-0.1-1.6-0.8-1.6,0.5l3.3-0.3c0.8,0.8,1.9,1.2,2,3.1c1.1-2.2,3.1,1.5,4-1
							c-1.1,1.6-2-0.6-2.5-0.8l0.5-0.4c-0.1,0-0.2,0-0.3-0.1l1.4-3.3c-1.4-1.3-0.2,2.1-2.2,2.1c-1.7-3.1,3.8-4.6,2.1-6.5
							c-1.4-1-1.2,2-2.4,3.1l0.3,0.1l-2.7,1.3c-0.1-1,0.7-1.9,0.7-1.9c-3.3,0-3.8-1.6-7.3-2c0.3,0.4,0.9,3.6-0.6,4.1
							c-1.1,0.8-1.3-1.1-2.2-1.3c0.6-0.4,1.1-2.2,1.8-1l-0.1-2.2c2.6-2.7,1.3-4.8,4.8-5.6c0.2-1.6,2.8-2.5,4.7-2l-0.9-1.5
							c2-2.8,0.4,2.3,3-0.1c1.1,2.9,3,6.4,1.6,8.8c1.8,0.7,2.5-0.9,4.1-0.9c1,2.4-0.5,2.6-0.3,5c1.2-0.3,2.7-1.3,1.8-2.7l2.3,1
							c0.1,0.5-0.8,0.5-1.1,0.5c0.9,0.5,2.6-0.7,3.1-1.6c-0.2,0.1-0.8,0.5-1,0.1c0.9-0.6,2.6-1.8,2.8-2.5c-1.4,1.2-1.5-1.5-3,0.1
							c0.1-0.6,0.4-2,1.1-1.6c-1.2-1.4-2.4-1.2-2.9-2.8c1,1.2,1.7-0.5,1.9-0.8c-0.9-0.5-2.7,0-3.3,0.7c-0.1-2.7-3.5,0.5-2.3-2.3
							c-0.2,1-1.5,1-2.2,0.4c0.1-1.2,1.8-1.8,2.6-3.2c3.5-1.3-0.1,2,0.8,2.9l2.7-0.2c-0.3-0.4,1.1-1.9-0.7-1.8
							c0.8-1.7,2.5-2.9,3.9-1.6c0.3-0.8-0.7-0.7-1-0.7c0.3-0.8,2-3.7-0.2-4.1c0.6,0.1-1.1,1.3,0.1,2.2c-0.9,0.3-3.3-0.8-2.3-2.3
							c-1.1,0.5-3.1,1.6-4,1.9c-0.3-1.2,0.8-0.5,1.2-1.1l-3.1,0.7l0.9,1.4c-2.3-1-3.7,2.3-5.5,3.3c0.3-2.2,1.8-2.4,3-3.5
							c-1.1-2.6-0.8,1.4-2.6,1c-0.3-0.4-0.3-0.9-0.2-1.6l-1.5,1.9c-0.4-0.3-0.2-0.7,0-0.8c-2.6,2.4,0.1,3.1-3.4,4
							c2.1,1.1,1.8-1.5,3.5-1.3c1,1.6-2,2.8-2.5,3.7c-1.7-0.5-1.9-3.8-4-2c1.5-1,0.1-2,2.2-2.1c1.2-1.1-0.6-1-0.9-2.2
							c-0.6,0.4,0.4,2.3-1.2,2l0.1-0.3l-2.6,2.3c-2.4-1.2-5.4,2.6-7.1,0.1l0.4,2.3c-1.5,0.2-3.7,0.3-4.7,0.7
							c0.2-1.3,1.3-1.4,2.3-1.9c-2.7-0.4-5.1,1-6.9,2.8c1.3,1.6,1.5,1.5,2.8,2.6c-1.8,3.2-2.1-2-4.4-0.4c-0.1-2.2,0.7-1.9,0.1-4
							c-0.9,1.5-2.5,1.2-3.6,2.5c-0.6-2.2,0.4-4,2.8-4.2c1.8,1.9,3.7-1.4,5.2,0.4l-0.9-1.4c1.8-0.7,2.8-0.3,4.3-1.3l-0.1,0.3
							l0.8-2.2h-0.8c0.6-1.2,2.3-3.3,2.8-3.3c-2.5,0.3-2.7,3.8-3.9,5.8c-2.3-0.1-3.2-4-4.7-2.1c-0.1-1.1-1.4-2.2-0.4-3.1
							c1.3-0.6,2.1,0.8,2.3-0.7c-1.3,0.1-0.8-0.8-2.8-0.6c-0.4,2-1.9,3.9-3.3,5.4c-1.5,1-3.5,1-4.7,0.4c1.5-0.2,3-2.1,2.6-3.5
							c-0.9,2-3-1.6-2.5,1.2c-1.8-0.2-4.7-0.1-4.9-2.5c1.7-0.9,3.3,0.6,4.7,0.1c-0.4-0.1-0.8-0.7-0.5-1.2l2.1,0.3
							c-1.6-1.2-1.3-2-3.3-1.7c0.1,0.2,0.4,0.6,0.2,0.7c-0.5,0.1-1.1-0.1-1.6,0l-0.1-2.2c-1.5,1-4.4-1.8-7.2-0.1l0.2-0.5
							c-2.2-0.5-2.4,3.9-4.8,4.4c0.7-1,0.4-2,0.3-3c-1.2,1.1-1.8-0.7-3-1.3c1.4,1.3-0.9,2.3,0.1,3.1c0.1,2.2-2.4,2.2-3.7,2
							c-0.8-2.9,3.9-1.6,2-4.5c-1.3-0.3-1.6,1.4-0.7,1.9c-1.6-0.3-4-0.6-5.1-2.4c-1.9,2.2-2.6,1-3.8,3.8c1-0.1,1.1-2.2,2.3-1
							l-1.4,2.1c-1.8,0.1-3.3-1.7-4.5-1.9l1.3-0.9l-0.1,0.3c0.5-0.9,2.2-0.4,2-2c-1.2,1.9-2.1,0.1-3.7,1.4l0.1-0.3
							c-2.8,1.6-4.8-3.2-6.5,0.9c0.5-0.1,1.5,1.5,1.2,2.3c-0.6-1-2.3-0.6-2.3-1.8l0.6-0.4c-1.6-0.3-2.5-0.5-3.1-0.1
							c-0.4,1.4,0,2.5-1.1,3.3c-2.8-0.9,1.1-3.3-0.8-4.6l-2.6,1.5l-0.6-1.3c-3.8-1.3-6.8,3-10.9,3c-0.1-2.2,2.9-3.1,3.9-3.3
							c-1.3-2-3.1,0.7-4.8-0.6c-1.6-0.3-2.8,1.6-2.5,2.9c-1.9,0.8-1.4-1.3-1.6-1.7c-0.6,2.4-3.1,1.6-4.7,2.1l-0.1-1.4l-2.5,1.7
							c0.6,0.1,0.1,1.4,0.1,2.2l-0.6-0.1c2.4,3.7,5.4-2.6,7.9,1.6c-0.8,0.5,0.3,1.2-0.5,1.8c-0.6-0.1-0.8-0.3-0.8-0.9
							c-0.4,1.1-1.4,2.1-0.1,2c-0.1,2.9-2.7,2.2-4.5,3.1c-1.5-1.8,1.5-2.7,2.3-4.1c-0.7,0.2-1.3,1.4-2.3,0.7l0.2-2.1
							c-2.5,1.2-0.7,1.9-1.3,4c-0.7,2.7-2.3-0.1-3,0.1l0.8-0.5c-2-0.9-2.4,1.4-4.2,1.2l-0.8-1.7c2.2,2.2,2.7-3,4-1.9
							c-3.2-2,0.7-4.4,1.7-6.3c-1.4,0.4-2.6,0.1-3.4-1c-2,2.8-4.2-1-6.2,2.3c-1.1-0.4,0.9-1.5-0.2-1.6c-2.1-0.3-4.3,0.1-6.5,1.4
							c-1.1-0.1-0.9-1-1.3-1.9c-5.5-1.3-7.6,3.9-13.6,2.6l0.9-1.2c-1.3-0.3-2.3-0.7-3,0.9c-1.6-3.7-5.4,2.3-7.4-1.7
							c-2.6-0.7-2.8,2.5-4.9,3.1c0-0.8,0.6-2.4-0.4-2.8c-6.8,1.3-12.9,1.6-20.4,2.2c0.1-0.3,0.4-0.6,0.6-0.7
							c-4.9-0.3-9.6,3.3-13.7,2.1c-0.8,0.5-3,1.2-2.3,2.7c0.9,0.2,1.1,2.1,1,3.3c-3.6,1.6-1.8-2.7-4.2-2.2c-0.8-2.9,1.5-1.9,1.5-4.4
							l-3.5,1.8c-2-0.9-3.9,0.7-5.6-0.6c0.8,0.3,0.2-2.1,1.5-1c-0.2,0.1-0.1,0.3-0.3,0.5c2.9,0.2,1.6-1.4,4.2-2
							c-2.3,0.7-5.4,1.4-7.4,0.9c0.4,1.9-1.6,0.8-2.2,2.1l-0.1-0.2c0,0.8-1.3,1.4-1.6,1.7l-0.5-2.5c-0.9,0.3,0.3,1.2-0.6,1.6
							c-1.3,0.6-5.7,0.9-6-1.7c-1.5,0.2-2,1.6-3.5,1.3c0.1-0.7,0.5-0.9,0.6-1.2c-3.3-0.5-7.4,0.3-10.6-1.2c-2.6,0.7-4.8,1-6.4,2.7
							c0.7-0.2,2.7,0.4,1.4,1.8c-0.7,1-1.8,0.7-2.8,1.1c0.3-1.3-2.7-1.2-0.6-2.1c-0.5-2.8-4.6,0.6-4.6-2.3c-0.5,0.9-3.5,0.4-4.7,1.9
							c-0.3-1.2,1.6-0.9,1.6-1.7l-1.4,0.4v-0.8c-2.7-0.7-3.1,2.7-4.7,3.3l0.1-0.3l-1.1,0.5l1.3-2.3c-1.7,0.3-2.6,2.4-4.5,2.8
							l-0.2-0.7l-1.1,0.8c0.2-0.1,0.3-0.5,0.1-0.7c-1.1,2.2-3.5,1.3-4.5,3.1c-0.8-0.3-1.4-3-2.4-1.2l0.2-2.7
							c2.5-0.3,0.9,1.9,3.6,0.9c-2-3.4-7.4-3-11.1-2.8c-3,1.8-7.8-1.1-9.1,2.9l0.3-1.6l-5-1.4c-4.2,0.7-8.6-0.6-11.8,1.6l-0.9-1.4
							c-3.3,4.6-11.3,1.9-13.5,7.4c-1.9-1.2,0.6-2.1,0.8-3.1c-1.4-0.4-3.7,3.1-5,0.7c0-0.8,2-0.8,1.1-1.3c-1-1.6-1.4,1.6-2.6-0.2
							c0.5,1.6-1.8,3.5-3.5,3.8c0.3,0.1,0.3,0.1,0.4,0.3c0.2,1.2-1,1-1.7,1.2c0,0,0.1-0.3,0.3-0.5c-8.7,2.1-18.8,3.1-28,1.5l1.7-1.2
							c-1.3,0.9-3.7,0.3-4.4-0.1l0.2-0.1c-2.5-2.5-2.8,2.5-4.7-0.5l0.4-0.3c-3,0.1-4.7-2.7-7.6-1.2c-2.3-1-2-2.3-3.6-3.4
							c-1.3,0.1-1.9,1.6-2,2l0.6,0.1c0.7,1.5-1.4,1.2-2.3,1.9c0.7,2.3,0.3,6,3,8.4c2-0.8,1.9,3.8,4.1,3.4c1.3-3.1,3.2,2.3,5.2-0.5
							c-1.1,2.1,2.4,1.2,0.6,3.5c0.8,1.7,4.3-1.8,5.9,0.2c-0.3,0.5-0.2,1-0.6,1.2c2.2-1.2,1.5,1.5,3.2,1.5L80,53.2
							c0.6-0.7,0.8,0.8,1.4,0.5c-0.4-0.3-1.4-1.3-0.9-2.2c0.8-0.5,1.4-1.2,2.2-1.2c0,0.8-0.6,1.2-0.9,1.5c0,0,1.8,0.2,1.9,1.2
							c-0.6,0.7-1.4,0.7-2,2c2.3,0.6,0.2,0.7,1.3,2.5c-0.3-2.6,2-1.1,3.3-1.7c0.1,1-0.9,0.3-1.2,1.1c2.4,4.6,3.6-0.8,6.7,0.2
							c-0.1,0.3-0.4,0.6-0.6,0.7c1.5-0.7,2.5,1.7,3.4,0.2c1.4,0.5,0.3,2.9,2.4,2.9c-0.6-2.7,2.5,0.5,2.6-2.3l1.6,1.7
							c1.5-1.6-0.4-4.8,2.4-5.1c2.6,1-0.2,4.7,1.3,6.2l0.6-1.6l1.3,1.1l-0.2,0.1c0.8-0.5,2.1-0.1,2.1,0.8c-0.1,0.7-0.9,0.7-1.1,1.3
							c1.3-1.4,5,3.9,6.3-0.4c0.7,0.8,2.3,0.7,2.1,2.1c0.7-1.9,3.4,0.6,4.4-0.6c-0.1,0.7,0.8,1.7,1.6,1.2c-1-0.7-0.4-1.4,0.3-2.5
							c0.9,1.4,3.4,0.2,3.8,2.5c1.4-1.2,0.9-2.9,1.2-4.5c0.9,1.4,3.7,1.1,3.2,3.7c-0.8-0.3-2.5-0.8-2.1,0.9c1.4,1,0.6-0.7,1.8-1
							c-0.1,0.5,0.8,1.6,0.6,2.4c0.7-0.3,1.7-0.3,2.7,0.2c-1.6-1.2,1-1.8,0.1-2.9l-1.5,1.9c-1.8,0.1-0.4-1.4-1.1-2.1
							c3.2-0.5,2.6-3.2,5.6-4.4c0.6,0.5,1.6,1.2,1.9,1.2c-1,0.1-0.8,2.5-0.2,3c1.7-2,3,1.3,4.4,1.8c-1.2-0.6-0.6-2.1-0.1-2.7
							c2.9-1.4,1.1,0.9,2.4,2c4.5-0.3,7.3,2.9,10.9,1.2l-1.7-2.2l-0.6,2.1c-1.3-1.6,0.2-4.7,1-6.1c0.2,0.7,2.4,0.3,1.5,1.5l2.1-0.9
							c-0.3-0.9-1.7-0.5-0.7-1.5c0.7,0.7,2.9,1.1,1.5,2.3c1.1,0.1,2.6-0.7,2.3-1.9c1.8-0.1-0.2,2.7-1,3.5c1.4,0.1,1.3,1.9,0.8,2.5
							l2-0.3c-0.4,0.6-0.4,1.4-0.9,2c1.3,0.8,2.3-1.6,3.4,0.2l0.5-1.8c3.7,1.4,3.3,1.7,6.7,1.9l-0.6-1.3c2.6-2.3,1.9,2.1,5.4,1.1
							c2-0.8,3.2-1.4,3-3.5c1.1-0.8,1.4,0.5,1.9,1.2c0.9-1.2,2.8-3.3,4.2-2c-0.9,0.6-1.7,1.2-2.6,1.5c0.3,2.1,3,0.4,4.5,1.4
							c1-1,4.3-3.5,6.1-5.4c-0.8-1.7-0.5-4.2,1.1-5.9c-0.3,1.3,2.2,1.3,3.3,2.2c-0.6,1.2,2.5,3,0.1,3.6c-0.7-0.6-1-2.4-2-1.8
							c0.6,1.3,2.1,2.8,3.7,4c-0.1,0.7-0.9,1.5-1.8,1.5C199.5,63.5,199.2,63.2,199.2,62.6z"/>
						<path class="st1" d="M427,36.6c-0.1,0-0.2-0.1-0.3-0.1l0.3,0.5C427,36.8,427,36.7,427,36.6z"/>
						<path class="st1" d="M248.3,63.4c0.1-0.1,0.4-0.4,0.4-0.7C248.5,62.9,248.4,63.1,248.3,63.4z"/>
						<path class="st1" d="M282.6,62c0-0.2,0-0.4-0.1-0.5C282.5,61.6,282.5,61.7,282.6,62z"/>
						<path class="st1" d="M429.2,51.3l-0.6,0.4C428.8,51.7,428.9,51.5,429.2,51.3z"/>
					</g>
				</g>
			</g>
		</g>
	</g>
	<g>
		<line class="st1" x1="442" y1="175.5" x2="58.7" y2="175.5"/>
		<g>
			<g>
				<g>
					<g>
						<path class="st1" d="M62.4,185.3l1-0.1C63.3,185.1,63.1,185.1,62.4,185.3z"/>
						<path class="st1" d="M61.6,183.5C61.6,183.5,61.5,183.5,61.6,183.5C61.5,183.5,61.5,183.5,61.6,183.5z"/>
						<path class="st1" d="M370.1,154.3c0.4-0.1,0.7-0.3,0.8-0.6C370.4,153.8,370.2,154.1,370.1,154.3z"/>
						<path class="st1" d="M313.2,191.6c0-0.2,0-0.4,0-0.5C313.2,191.2,313.1,191.4,313.2,191.6z"/>
						<path class="st1" d="M73.7,184.5c-0.1,0-0.3-0.1-0.4-0.1C73.2,184.8,73.6,184.8,73.7,184.5z"/>
						<path class="st1" d="M384.8,156.4c0-0.1,0.1-0.3,0.1-0.5C384.8,156.1,384.8,156.2,384.8,156.4z"/>
						<path class="st1" d="M108.6,193.3c0.1-0.1,0.3-0.1,0.4-0.2C108.8,193.1,108.7,193.1,108.6,193.3z"/>
						<path class="st1" d="M301.8,153.2c-0.2,0.2-0.3,0.4-0.4,0.6C301.6,153.7,301.8,153.5,301.8,153.2z"/>
						<path class="st1" d="M301.6,158.4c2.9-1.5-0.6-3-0.2-4.6c-0.8,0.4-2.4,0.1-1.6,1.3c-1.5-3.2-4.6,1.8-6.2-0.8
							c-0.1,0.3,0.9,1.4-0.3,2.2c-1.7,0.3-1.6-1.2-2.3-1.8c-0.5,0.9-3.1,1.6-2.8,1.1c-1.1,0.8,1.2,3.1-0.4,4.5
							c-1.1,2.1-2.5,0.3-3.8,0.9c-1.5-1.5,1.5-1,2.1-1.8l-4.3,1c-1.3-1.1,0.6-2.1,1.8-1.8c-1.7-1.4-3.9-0.1-4.4,1.6
							c-1.1-0.4-1.6,0-2.6-0.7c1-1,0.9-4,2.5-4.6c2.6,0.2-0.9,2.3,1.3,2.8l0.2-1.8c0.9,1,1.7-0.3,2.7-0.5c0.6,0.5-0.1,0.7-0.5,0.9
							c1.8-0.1,3.3,0.8,4.7-1.2c-2.5-1.7-6.2,0.6-7.3-1.5l-4.9,2.5c0,0.8,1.7,2.2,0.3,3.5c-0.6-2.1-2-3.1-3.9-3.5
							c0.7,2.3-3,2.1-2.1,4c0.9-1.2,1.3,0.8,1.4,1c-1.8,0.1-0.2,2.2-1.3,2.3c-3.3-0.5,0.1-1.5-3.2-2.3c0.7-1,2.5-3.4,4.3-4.4
							c-0.1-1-1.8,0.1-2.6-1c1.1,1.2-0.8,2.2,0.1,2.7c-2.6,1-5.7,3.4-8.9,3.9c0.5-3.5,5.4-2.6,4.4-6.7c-1.6,0.5-1.6,2.2-2.8,2
							c-1.1-2.1-3.7-0.3-5.9-0.2l0.9,1c-0.8,0.9-2.3,0.2-3.3,0l0.2-0.5l-0.9,0.7c-0.1-0.1-0.2-0.2-0.2-0.3c-1,1.1-3.7,0-5.6,0.7
							c0,1.7,2,0.1,2.9,0.3c0.3,0.4,2.1,1.1,1.2,2.3c-2.4,0-4.2,2-6.9,2l0.9,0.5c-0.9,1.2-2.1,0.6-3.4,0.7c-2.4-1.2,1.8-2.4,0.3-3.3
							c0.9-1.5,2.6,0.2,2.8-2l-1.5-2.3c-1.3,1.4-2.7-0.7-3.5-0.4l0.9,1c-0.2,1.8-1.1,0.5-1.5,0.2l0.6,2.7c1.4,0.5,2.3-1.9,3.3-0.3
							c-2.5,0.9-1.9,3-4.8,3.1c-0.1-1,0.6-0.4,0.9-1.2c-1-0.7-2.1,1.4-3.7,0.6c0.9-0.7,2.5-1.7,1.3-3.1l-0.9,2
							c-0.8-0.3-0.4-1.1-0.8-1.2c-1.1-0.4,0.2,2.1-1.5,1.6c-0.3-0.4-0.8-0.8-0.6-1.3c-2-0.1-0.9,0.7-2.8,1.6c1.6,0,1.7,3.1,0,3.4
							c-2.4-0.3-4,1.4-5.7-1.2l-1.1,1.3c0.7-1.9-1.5-0.7-2.3-1c-0.3-2.1,3.6,0.1,3.6-3.3c-1.6-0.3-0.9-1.4-0.4-2.3
							c-1.7,0.3-0.6,2.4-1.4,3.8c0-0.8-2.9-0.3-1.9-2.1c-1.4-0.1-1.7,2-2.8,1.6c0.2-0.8,0.3-1.9,0.2-3c-0.1,0.7-1.5-0.2-1.8-0.2
							c0.3,0.4-0.5,1.8,0.8,1.2c-0.3,1.6-3,0.1-2.9,1.4c-0.1-1.9-2.7-0.4-4-1.2c0.1,4.4,2.5-1.7,2.9,2c-1.8,1.5-5.9,0.1-8.8,2.1
							c-2.5-0.8,0-1.7-0.5-3.3c2.3-0.7,2.8,0.6,4.8-0.2c-2.1-0.8-5.7-0.3-7.2,1.1c-2.3,0.2-2.6-4.4-5.4-3.3c0.4,1.4,0.3,1.8,1.2,2.3
							c-0.8,0.5-1.6,0-2.5,0c-0.5,0.9,1.3,1.1,0.1,1.9c-0.4-0.3-1.4-0.5-1.2-1.4l0.2-0.1c-2.7,1.3-2-3.5-4.3-0.7
							c0.2,0.7,0.7-0.2,1.3,0.3c0.4,1.1-1,2.7-2.1,3.1c0.2-1-0.9-0.2-1.7-0.5c-0.5-1.6,1.9-0.5,2.3-1.6l-2.1-0.3l0.4,0.3l-2.3,1.6
							c1.6-0.5,0.8,2,0.1,2.2c-1.6-0.3-3.1-0.6-3-2.5c-0.2,1.8-2.1,1.8-3.5,2.2c1.5,0.7,0.2,1.6-0.2,2.2l-2.3-1.8
							c2.4-0.5-0.5-1.6,0.1-2.9c0.7-1.9,2.1-0.9,3.4-0.7c-2.5-3.4-3.5,1.8-5.6,0.2c0-0.8,0.2-1.8,1.1-1.6c-0.4-0.6-2,1.6-3.4,0.7
							c0.4,0.6,1.2,2.3-0.2,3l-1.9-2.1c-2.2-0.5-0.8,2.2-2.6,3.2l1.2,1.4c-0.2,1.8-2.5,0-2.5,2c1.1,0.1,1.8-1.5,3-0.9
							c0.4,2-1.5,1-2.2,2.1c-2.5-0.8-2-0.9-3.8-2.5c-0.1-3.1,3-3.8,2.6-7.8c-2.4,0.5-5.9,1.5-7.4,0.3c-2.1,0.9-1.9,3.3-1.6,5.1
							c-0.9,0.3-1.3,0.1-1.9-0.4l1-1c-2.6,1-4.2,2-6.9,2c-1.6,0.5-0.9,2.4-0.6,3.8l-1.7,0.3l0.3,0.4c-0.4,2-1.9,1.3-3,1.2
							c0-0.8,0.7-1,0.6-1.6c-1-0.7-2.5-0.5-3.3,0.3c0-0.8,0.7-2.7,1.9-2.2c0.1,0.2,0.1,0.5,0.2,0.7l2-1.1c-2.3,1-3.7-1.1-3.7-3.1
							c-2.3,1,1.9,2.1-0.9,2.9c-3.7-4-6.9,1.1-9-4.5c-1.7,1.2-3.7,3.1-6.4,3.3c0,1.7-1.8,0.7-1.5,2.7c2.5,2.2,4.7-3.3,6.7-0.1
							c1.1-0.8,0.7-2.2,1.3-3.1c1-0.1,1.9,0.1,2.1,1.1c-2.3,1-0.6,4.1-3.6,4.2c0.4,1.4,2.8,0.9,3.8,1.3c-0.3,0.8,0,1.7,0.7,2.3
							c-0.8,1.4-2.5,2.5-3.3,3.7c0.3-0.8-0.3-1.2,0-1.7l-3.1,2.4c-0.9-1-1.2-2.3-0.7-3.2c-1.7-0.5-4.6,1.8-4.6-0.8
							c-2.2,0.4,0.7,1.5,0.9,2.2l-0.2,0.1l2.3-0.2c0.3,2.9-2.6-0.7-3,2.1c-0.4,5.3-3.3-1.7-4.9-0.8l1.9-3.8l-1.6,0.8
							c0.9-1.5,0.9-4,2.4-5.6c-2.3-0.1-5.5-1.3-6.9-0.6c-0.6-1.3-0.8-2.5-0.6-3.8c-2.3,2.4-3.5-1.2-5.5-1.3c-2.1,1.4,2.1,2,0.6,3.8
							c-0.6-1-1.8-0.2-2.3,0.2c0.6-0.7,2.8,0.6,4.3,1.2c-1.1-0.1-1,1.8-1.3,2.6l1.9,0.4c-0.1,2.3-2.3,0.2-3.2,1.4
							c0.6-2.1,0.3-2.2,0.8-4.2c-1.6,0.8-4.1,0.8-5.5-0.4c-0.8-0.8,0.7-1,1.1-1.6c-0.4-1.4-1.6,0.9-2-0.9c0.3-1.3,1-0.1,1.6-0.5
							l-4.8-0.6c0-0.8,1.2-1.1,1.9-0.8c-1.5-1-2.5-0.5-4.2,2.4c-1.6-0.8-3.5-2.1-3-3.3c-0.8,0.5-0.3,1.3-0.2,2.2
							c-2.2-0.5-2.5,2.5-3.8,2.6l1,1.6c-2.1-1.6-0.5,2.6-2.4,1.4c0.3-1.6,0.2-3.5-0.1-5.3c-0.3,1.6-1.5,0.2-2.3,0.2
							c0.5,1.6-1.8,1.5-0.4,3.1c-1.9,1.3-2.8-0.9-4.2,1.2c0.9,0.5-1.6,1.7-0.9,2.9c-1.8,0.1-3.1-1.8-2.6-3.6
							c0.6,0.1,1.6,0.8,1.6-0.5l-3.3,0.3c-0.8-0.8-1.9-1.2-2-3.1c-1.1,2.2-3.1-1.5-4,1c1.1-1.6,2,0.6,2.5,0.8l-0.5,0.4
							c0.1,0,0.2,0,0.3,0.1l-1.4,3.3c1.4,1.3,0.2-2.1,2.2-2.1c1.7,3.1-3.8,4.6-2.1,6.5c1.4,1,1.2-2,2.4-3.1l-0.3-0.1l2.7-1.3
							c0.1,1-0.7,1.9-0.7,1.9c3.3,0,3.8,1.6,7.3,2c-0.3-0.4-0.9-3.6,0.6-4.1c1.1-0.8,1.3,1.1,2.2,1.3c-0.6,0.4-1.1,2.2-1.8,1
							l0.1,2.2c-2.6,2.7-1.3,4.8-4.8,5.6c-0.2,1.6-2.8,2.5-4.7,2l0.9,1.5c-2,2.8-0.4-2.3-3,0.1c-1.1-2.9-3-6.4-1.6-8.8
							c-1.8-0.7-2.5,0.9-4.1,0.9c-1-2.4,0.5-2.6,0.3-5c-1.2,0.3-2.7,1.3-1.8,2.7l-2.3-1c-0.1-0.5,0.8-0.5,1.1-0.5
							c-0.9-0.5-2.6,0.7-3.1,1.6c0.2-0.1,0.8-0.5,1-0.1c-0.9,0.6-2.6,1.8-2.8,2.5c1.4-1.2,1.5,1.5,3-0.1c-0.1,0.6-0.4,2-1.1,1.6
							c1.2,1.4,2.4,1.2,2.9,2.8c-1-1.2-1.7,0.5-1.9,0.8c0.9,0.5,2.7,0,3.3-0.7c0.1,2.7,3.5-0.5,2.3,2.3c0.2-1,1.5-1,2.2-0.4
							c-0.1,1.2-1.8,1.8-2.6,3.2c-3.5,1.3,0.1-2-0.8-2.9l-2.7,0.2c0.3,0.4-1.1,1.9,0.7,1.8c-0.8,1.7-2.5,2.9-3.9,1.6
							c-0.3,0.8,0.7,0.7,1,0.7c-0.3,0.8-2,3.7,0.2,4.1c-0.6-0.1,1.1-1.3-0.1-2.2c0.9-0.3,3.3,0.8,2.3,2.3c1.1-0.5,3.1-1.6,4-1.9
							c0.3,1.2-0.8,0.5-1.2,1.1l3.1-0.7l-0.9-1.4c2.3,1,3.7-2.3,5.5-3.3c-0.3,2.2-1.8,2.4-3,3.5c1.1,2.6,0.8-1.4,2.6-1
							c0.3,0.4,0.3,0.9,0.2,1.6l1.5-1.9c0.4,0.3,0.2,0.7,0,0.8c2.6-2.4-0.1-3.1,3.4-4c-2.1-1.1-1.8,1.5-3.5,1.3
							c-1-1.6,2-2.8,2.5-3.7c1.7,0.5,1.9,3.8,4,2c-1.5,1-0.1,2-2.2,2.1c-1.2,1.1,0.6,1,0.9,2.2c0.6-0.4-0.4-2.3,1.2-2l-0.1,0.3
							l2.6-2.3c2.4,1.2,5.4-2.6,7.1-0.1l-0.4-2.3c1.5-0.2,3.7-0.3,4.7-0.7c-0.2,1.3-1.3,1.4-2.3,1.9c2.7,0.4,5.1-1,6.9-2.8
							c-1.3-1.6-1.5-1.5-2.8-2.6c1.8-3.2,2.1,2,4.4,0.4c0.1,2.2-0.7,1.9-0.1,4c0.9-1.5,2.5-1.2,3.6-2.5c0.6,2.2-0.4,4-2.8,4.2
							c-1.8-1.9-3.7,1.4-5.2-0.4l0.9,1.4c-1.8,0.7-2.8,0.3-4.3,1.3l0.1-0.3l-0.8,2.2h0.8c-0.6,1.2-2.3,3.3-2.8,3.3
							c2.5-0.3,2.7-3.8,3.9-5.8c2.3,0.1,3.2,4,4.7,2.1c0.1,1.1,1.4,2.2,0.4,3.1c-1.3,0.6-2.1-0.8-2.3,0.7c1.3-0.1,0.8,0.8,2.8,0.6
							c0.4-2,1.9-3.9,3.3-5.4c1.5-1,3.5-1,4.7-0.4c-1.5,0.2-3,2.1-2.6,3.5c0.9-2,3,1.6,2.5-1.2c1.8,0.2,4.7,0.1,4.9,2.5
							c-1.7,0.9-3.3-0.6-4.7-0.1c0.4,0.1,0.8,0.7,0.5,1.2l-2.1-0.3c1.6,1.2,1.3,2,3.3,1.7c-0.1-0.2-0.4-0.6-0.2-0.7
							c0.5-0.1,1.1,0.1,1.6,0l0.1,2.2c1.5-1,4.4,1.8,7.2,0.1l-0.2,0.5c2.2,0.5,2.4-3.9,4.8-4.4c-0.7,1-0.4,2-0.3,3
							c1.2-1.1,1.8,0.7,3,1.3c-1.4-1.3,0.9-2.3-0.1-3.1c-0.1-2.2,2.4-2.2,3.7-2c0.8,2.9-3.9,1.6-2,4.5c1.3,0.3,1.6-1.4,0.7-1.9
							c1.6,0.3,4,0.6,5.1,2.4c1.9-2.2,2.6-1,3.8-3.8c-1,0.1-1.1,2.2-2.3,1l1.4-2.1c1.8-0.1,3.3,1.7,4.5,1.9l-1.3,0.9l0.1-0.3
							c-0.5,0.9-2.2,0.4-2,2c1.2-2,2.1-0.1,3.7-1.4l-0.1,0.3c2.8-1.6,4.8,3.2,6.5-0.9c-0.5,0.1-1.5-1.5-1.2-2.3
							c0.6,1,2.3,0.6,2.3,1.8l-0.6,0.4c1.6,0.3,2.5,0.5,3.1,0.1c0.4-1.4,0-2.5,1.1-3.3c2.8,0.9-1.1,3.3,0.8,4.6l2.6-1.5l0.6,1.3
							c3.8,1.3,6.8-3,10.9-3c0.1,2.2-2.9,3.1-3.9,3.3c1.3,2,3.1-0.7,4.8,0.6c1.6,0.3,2.8-1.6,2.5-2.9c1.9-0.8,1.4,1.3,1.6,1.7
							c0.6-2.4,3.1-1.6,4.7-2.1l0.1,1.4l2.5-1.7c-0.6-0.1-0.1-1.4-0.1-2.2l0.6,0.1c-2.4-3.7-5.4,2.6-7.9-1.6
							c0.8-0.5-0.3-1.2,0.5-1.8c0.6,0.1,0.8,0.3,0.8,0.9c0.4-1.1,1.4-2.1,0.1-2c0.1-2.9,2.7-2.2,4.5-3.1c1.5,1.8-1.5,2.7-2.3,4.1
							c0.7-0.2,1.3-1.4,2.3-0.7l-0.2,2.1c2.5-1.2,0.7-1.9,1.3-4c0.7-2.7,2.3,0.1,3-0.1L182,186c2,0.9,2.4-1.4,4.2-1.2l0.8,1.7
							c-2.2-2.2-2.7,3-4,1.9c3.2,2-0.7,4.4-1.7,6.3c1.4-0.4,2.6-0.1,3.4,1c2-2.8,4.2,1,6.2-2.3c1.1,0.4-0.9,1.5,0.2,1.6
							c2.1,0.3,4.3-0.1,6.5-1.4c1.1,0.1,0.9,1,1.3,1.9c5.5,1.3,7.6-3.9,13.6-2.6l-0.9,1.2c1.3,0.3,2.3,0.7,3-0.9
							c1.6,3.7,5.4-2.3,7.4,1.7c2.6,0.7,2.8-2.5,4.9-3.1c0,0.8-0.6,2.4,0.4,2.8c6.8-1.3,12.9-1.6,20.4-2.2c-0.1,0.3-0.4,0.6-0.6,0.7
							c4.9,0.3,9.6-3.3,13.7-2.1c0.8-0.5,3-1.2,2.3-2.7c-0.9-0.2-1.1-2.1-1-3.3c3.6-1.6,1.8,2.7,4.2,2.2c0.8,2.9-1.5,1.9-1.5,4.4
							l3.5-1.8c2,0.9,3.9-0.7,5.6,0.6c-0.8-0.3-0.2,2.1-1.5,1c0.2-0.1,0.1-0.3,0.3-0.5c-2.9-0.2-1.6,1.4-4.2,2
							c2.3-0.7,5.4-1.4,7.4-0.9c-0.4-1.9,1.6-0.8,2.2-2.1l0.1,0.2c0-0.8,1.3-1.4,1.6-1.7l0.5,2.5c0.9-0.3-0.3-1.2,0.6-1.6
							c1.3-0.6,5.7-0.9,6,1.7c1.5-0.2,2-1.6,3.5-1.3c-0.1,0.7-0.5,0.9-0.6,1.2c3.3,0.5,7.4-0.3,10.6,1.2c2.6-0.7,4.8-1,6.4-2.7
							c-0.7,0.2-2.7-0.4-1.4-1.8c0.7-1,1.8-0.7,2.8-1.1c-0.3,1.3,2.7,1.2,0.6,2.1c0.5,2.8,4.6-0.6,4.6,2.3c0.5-0.9,3.5-0.4,4.7-1.9
							c0.3,1.2-1.6,0.9-1.6,1.7l1.4-0.4v0.8c2.7,0.7,3.1-2.7,4.7-3.3l-0.1,0.3l1.1-0.5l-1.3,2.3c1.7-0.3,2.6-2.4,4.5-2.8l0.2,0.7
							l1.1-0.8c-0.2,0.1-0.3,0.5-0.1,0.7c1.1-2.2,3.5-1.3,4.5-3.1c0.8,0.3,1.4,3,2.4,1.2l-0.2,2.7c-2.5,0.3-0.9-1.9-3.6-0.9
							c2,3.4,7.4,3,11.1,2.8c3-1.8,7.8,1.1,9.1-2.9l-0.3,1.6l5,1.4c4.2-0.7,8.6,0.6,11.8-1.6l0.9,1.4c3.3-4.6,11.3-1.9,13.5-7.4
							c1.9,1.2-0.6,2.1-0.8,3.1c1.4,0.4,3.7-3.1,5-0.7c0,0.8-2,0.8-1.1,1.3c1,1.6,1.4-1.6,2.6,0.2c-0.5-1.6,1.8-3.5,3.5-3.8
							c-0.3-0.1-0.3-0.1-0.4-0.3c-0.2-1.2,1-1,1.7-1.2c0,0-0.1,0.3-0.3,0.5c8.7-2.1,18.8-3.1,28-1.5l-1.7,1.2
							c1.3-0.9,3.7-0.3,4.4,0.1l-0.2,0.1c2.5,2.5,2.8-2.5,4.7,0.5l-0.4,0.3c3-0.1,4.7,2.7,7.6,1.2c2.3,1,2,2.3,3.6,3.4
							c1.3-0.1,1.9-1.6,2-2l-0.6-0.1c-0.7-1.5,1.4-1.2,2.3-1.9c-0.7-2.3-0.3-6-3-8.4c-2,0.8-1.9-3.8-4.1-3.4
							c-1.3,3.1-3.2-2.3-5.2,0.5c1.1-2.1-2.4-1.2-0.6-3.5c-0.8-1.7-4.3,1.8-5.9-0.2c0.3-0.5,0.2-1,0.6-1.2c-2.2,1.2-1.5-1.5-3.2-1.5
							l0.1,2.2c-0.6,0.7-0.8-0.8-1.4-0.5c0.4,0.3,1.4,1.3,0.9,2.2c-0.8,0.5-1.4,1.2-2.2,1.2c0-0.8,0.6-1.2,0.9-1.5
							c0,0-1.8-0.2-1.9-1.2c0.6-0.7,1.4-0.7,2-2c-2.3-0.6-0.2-0.7-1.3-2.5c0.3,2.6-2,1.1-3.3,1.7c-0.1-1,0.9-0.3,1.2-1.1
							c-2.4-4.6-3.6,0.8-6.7-0.2c0.1-0.3,0.4-0.6,0.6-0.7c-1.5,0.7-2.5-1.7-3.4-0.2c-1.4-0.5-0.3-2.9-2.4-2.9
							c0.6,2.7-2.5-0.5-2.6,2.3l-1.6-1.7c-1.5,1.6,0.4,4.8-2.4,5.1c-2.6-1,0.2-4.7-1.3-6.2l-0.6,1.6l-1.3-1.1l0.2-0.1
							c-0.8,0.5-2.1,0.1-2.1-0.8c0.1-0.7,0.9-0.7,1.1-1.3c-1.3,1.4-5-3.9-6.3,0.4c-0.7-0.8-2.3-0.7-2.1-2.1
							c-0.7,1.9-3.4-0.6-4.4,0.6c0.1-0.7-0.8-1.7-1.6-1.2c1,0.7,0.4,1.4-0.3,2.5c-0.9-1.4-3.4-0.2-3.8-2.5c-1.4,1.2-0.9,2.9-1.2,4.5
							c-0.9-1.4-3.7-1.1-3.2-3.7c0.8,0.3,2.5,0.8,2.1-0.9c-1.4-1-0.6,0.7-1.8,1c0.1-0.5-0.8-1.6-0.6-2.4c-0.7,0.3-1.7,0.3-2.7-0.2
							c1.6,1.2-1,1.8-0.1,2.9l1.5-1.9c1.8-0.1,0.4,1.4,1.1,2.1c-3.2,0.5-2.6,3.2-5.6,4.4c-0.6-0.5-1.6-1.2-1.9-1.2
							c1-0.1,0.8-2.5,0.2-3c-1.7,2-3-1.3-4.4-1.8c1.2,0.6,0.6,2.1,0.1,2.7c-2.9,1.4-1.1-0.9-2.4-2c-4.5,0.3-7.3-2.9-10.9-1.2
							l1.7,2.2l0.6-2.1c1.3,1.6-0.2,4.7-1,6.1c-0.2-0.7-2.4-0.3-1.5-1.5l-2.1,0.9c0.3,0.9,1.7,0.5,0.7,1.5c-0.7-0.7-2.9-1.1-1.5-2.3
							c-1.1-0.1-2.6,0.7-2.3,1.9c-1.8,0.1,0.2-2.7,1-3.5c-1.4-0.1-1.3-1.9-0.8-2.5l-2,0.3c0.4-0.6,0.4-1.4,0.9-2
							c-1.3-0.8-2.3,1.6-3.4-0.2l-0.5,1.8c-3.7-1.4-3.3-1.7-6.7-1.9l0.6,1.3c-2.6,2.3-1.9-2.1-5.4-1.1c-2,0.8-3.2,1.4-3,3.5
							c-1.1,0.8-1.4-0.5-1.9-1.2c-0.9,1.2-2.8,3.3-4.2,2c0.9-0.6,1.7-1.2,2.6-1.5c-0.3-2.1-3-0.4-4.5-1.4c-1,1-4.3,3.5-6.1,5.4
							c0.8,1.7,0.5,4.2-1.1,5.9c0.3-1.3-2.2-1.3-3.3-2.2c0.6-1.2-2.5-3-0.1-3.6c0.7,0.6,1,2.4,2,1.8c-0.6-1.3-2.1-2.8-3.7-4
							c0.1-0.7,0.9-1.5,1.8-1.5C301.3,157.5,301.5,157.9,301.6,158.4z"/>
						<path class="st1" d="M73.7,184.5c0.1,0,0.2,0.1,0.3,0.1l-0.3-0.5C73.8,184.3,73.8,184.4,73.7,184.5z"/>
						<path class="st1" d="M252.4,157.6c-0.1,0.1-0.4,0.4-0.4,0.7C252.2,158.1,252.4,157.9,252.4,157.6z"/>
						<path class="st1" d="M218.1,159.1c0,0.2,0,0.4,0.1,0.5C218.2,159.5,218.2,159.3,218.1,159.1z"/>
						<path class="st1" d="M71.5,169.8l0.6-0.4C71.9,169.3,71.8,169.6,71.5,169.8z"/>
					</g>
				</g>
			</g>
		</g>
	</g>
	<g>
		<line class="st1" x1="58.7" y1="305.5" x2="442" y2="305.5"/>
		<g>
			<g>
				<g>
					<g>
						<path class="st1" d="M438.3,295.7l-1,0.1C437.4,295.9,437.7,295.9,438.3,295.7z"/>
						<path class="st1" d="M439.1,297.6C439.2,297.6,439.2,297.6,439.1,297.6C439.2,297.5,439.2,297.5,439.1,297.6z"/>
						<path class="st1" d="M130.6,326.7c-0.4,0.1-0.7,0.3-0.8,0.6C130.3,327.2,130.6,327,130.6,326.7z"/>
						<path class="st1" d="M187.5,289.4c0,0.2,0,0.4,0,0.5C187.6,289.8,187.6,289.6,187.5,289.4z"/>
						<path class="st1" d="M427,296.6c0.1,0,0.3,0.1,0.4,0.1C427.5,296.2,427.1,296.3,427,296.6z"/>
						<path class="st1" d="M115.9,324.7c0,0.1-0.1,0.3-0.1,0.5C115.9,325,115.9,324.8,115.9,324.7z"/>
						<path class="st1" d="M392.2,287.8c-0.1,0.1-0.3,0.1-0.4,0.2C391.9,288,392,287.9,392.2,287.8z"/>
						<path class="st1" d="M199,327.8c0.2-0.2,0.3-0.4,0.4-0.6C199.1,327.3,199,327.5,199,327.8z"/>
						<path class="st1" d="M199.2,322.6c-2.9,1.5,0.6,3,0.2,4.6c0.8-0.4,2.4-0.1,1.6-1.3c1.5,3.2,4.6-1.8,6.2,0.8
							c0.1-0.3-0.9-1.4,0.3-2.2c1.7-0.3,1.6,1.2,2.3,1.8c0.5-0.9,3.1-1.6,2.8-1.1c1.1-0.8-1.2-3.1,0.4-4.5c1.1-2.1,2.5-0.3,3.8-0.9
							c1.5,1.5-1.5,1-2.1,1.8l4.3-1c1.3,1.1-0.6,2.1-1.8,1.8c1.7,1.4,3.9,0.1,4.4-1.6c1.1,0.4,1.6,0,2.6,0.7c-1,1-0.9,4-2.5,4.6
							c-2.6-0.2,0.9-2.3-1.3-2.8l-0.2,1.8c-0.9-1-1.7,0.3-2.7,0.5c-0.6-0.5,0.1-0.7,0.5-0.9c-1.8,0.1-3.3-0.8-4.7,1.2
							c2.5,1.7,6.2-0.6,7.3,1.5l4.9-2.5c0-0.8-1.7-2.2-0.3-3.5c0.6,2.1,2,3.1,3.9,3.5c-0.7-2.3,3-2.1,2.1-4c-0.9,1.2-1.3-0.8-1.4-1
							c1.8-0.1,0.2-2.2,1.3-2.3c3.3,0.5-0.1,1.5,3.2,2.3c-0.7,1-2.5,3.4-4.3,4.4c0.1,1,1.8-0.1,2.6,1c-1.1-1.2,0.8-2.2-0.1-2.7
							c2.6-1,5.7-3.4,8.9-3.9c-0.5,3.5-5.4,2.6-4.4,6.7c1.6-0.5,1.6-2.2,2.8-2c1.1,2.1,3.7,0.3,5.9,0.2l-0.9-1
							c0.8-0.9,2.3-0.2,3.3,0l-0.2,0.5l0.9-0.7c0.1,0.1,0.2,0.2,0.2,0.3c1-1.1,3.7,0,5.6-0.7c0-1.7-2-0.1-2.9-0.3
							c-0.3-0.4-2.1-1.1-1.2-2.3c2.4,0,4.2-2,6.9-2l-0.9-0.5c0.9-1.2,2.1-0.6,3.4-0.7c2.4,1.2-1.8,2.4-0.3,3.3
							c-0.9,1.5-2.6-0.2-2.8,2l1.5,2.3c1.3-1.4,2.7,0.7,3.5,0.4l-0.9-1c0.2-1.8,1.1-0.5,1.5-0.2l-0.6-2.7c-1.4-0.5-2.3,1.9-3.3,0.3
							c2.5-0.9,1.9-3,4.8-3.1c0.1,1-0.6,0.4-0.9,1.2c1,0.7,2.1-1.4,3.7-0.6c-0.9,0.7-2.5,1.7-1.3,3.1l0.9-2c0.8,0.3,0.4,1.1,0.8,1.2
							c1.1,0.4-0.2-2.1,1.5-1.6c0.3,0.4,0.8,0.8,0.6,1.3c2,0.1,0.9-0.7,2.8-1.6c-1.6,0-1.7-3.1,0-3.4c2.4,0.3,4-1.4,5.7,1.2l1.1-1.3
							c-0.7,1.9,1.5,0.7,2.3,1c0.3,2.1-3.6-0.1-3.6,3.3c1.6,0.3,0.9,1.4,0.4,2.3c1.7-0.3,0.6-2.4,1.4-3.8c0,0.8,2.9,0.3,1.9,2.1
							c1.4,0.1,1.7-2,2.8-1.6c-0.2,0.8-0.3,1.9-0.2,3c0.1-0.7,1.5,0.2,1.8,0.2c-0.3-0.4,0.5-1.8-0.8-1.2c0.3-1.6,3-0.1,2.9-1.4
							c0.1,1.9,2.7,0.4,4,1.2c-0.1-4.4-2.5,1.7-2.9-2c1.8-1.5,5.9-0.1,8.8-2.1c2.5,0.8,0,1.7,0.5,3.3c-2.3,0.7-2.8-0.6-4.8,0.2
							c2.1,0.8,5.7,0.3,7.2-1.1c2.3-0.2,2.6,4.4,5.4,3.3c-0.4-1.4-0.3-1.8-1.2-2.3c0.8-0.5,1.6,0,2.5,0c0.5-0.9-1.3-1.1-0.1-1.9
							c0.4,0.3,1.4,0.5,1.2,1.4l-0.2,0.1c2.7-1.3,2,3.5,4.3,0.7c-0.2-0.7-0.7,0.2-1.3-0.3c-0.4-1.1,1-2.7,2.1-3.1
							c-0.2,1,0.9,0.2,1.7,0.5c0.5,1.6-1.9,0.5-2.3,1.6l2.1,0.3l-0.4-0.3l2.3-1.6c-1.6,0.5-0.8-2-0.1-2.2c1.6,0.3,3.1,0.6,3,2.5
							c0.2-1.8,2.1-1.8,3.5-2.2c-1.5-0.7-0.2-1.6,0.2-2.2l2.3,1.8c-2.4,0.5,0.5,1.6-0.1,2.9c-0.7,1.9-2.1,0.9-3.4,0.7
							c2.5,3.4,3.5-1.8,5.6-0.2c0,0.8-0.2,1.8-1.1,1.6c0.4,0.6,2-1.6,3.4-0.7c-0.4-0.6-1.2-2.3,0.2-3l1.9,2.1
							c2.2,0.5,0.8-2.2,2.6-3.2l-1.2-1.4c0.2-1.8,2.5,0,2.5-2c-1.1-0.1-1.8,1.5-3,0.9c-0.4-2,1.5-1,2.2-2.1c2.5,0.8,2,0.9,3.8,2.5
							c0.1,3.1-3,3.8-2.6,7.8c2.4-0.5,5.9-1.5,7.4-0.3c2.1-0.9,1.9-3.3,1.6-5.1c0.9-0.3,1.3-0.1,1.9,0.4l-1,1c2.6-1,4.2-2,6.9-2
							c1.6-0.5,0.9-2.4,0.6-3.8l1.7-0.3l-0.3-0.4c0.4-2,1.9-1.3,3-1.2c0,0.8-0.7,1-0.6,1.6c1,0.7,2.5,0.5,3.3-0.3
							c0,0.8-0.7,2.7-1.9,2.2c-0.1-0.2-0.1-0.5-0.2-0.7l-2,1.1c2.3-1,3.7,1.1,3.7,3.1c2.3-1-1.9-2.1,0.9-2.9c3.7,4,6.9-1.1,9,4.5
							c1.7-1.2,3.7-3.1,6.4-3.3c0-1.7,1.8-0.7,1.5-2.7c-2.5-2.2-4.7,3.3-6.7,0.1c-1.1,0.8-0.7,2.2-1.3,3.1c-1,0.1-1.9-0.1-2.1-1.1
							c2.3-1,0.6-4.1,3.6-4.2c-0.4-1.4-2.8-0.9-3.8-1.3c0.3-0.8,0-1.7-0.7-2.3c0.8-1.4,2.5-2.5,3.3-3.7c-0.3,0.8,0.3,1.2,0,1.7
							l3.1-2.4c0.9,1,1.2,2.3,0.7,3.2c1.7,0.5,4.6-1.8,4.6,0.8c2.2-0.4-0.7-1.5-0.9-2.2l0.2-0.1l-2.3,0.2c-0.3-2.9,2.6,0.7,3-2.1
							c0.4-5.3,3.3,1.7,4.9,0.8l-1.9,3.8l1.6-0.8c-0.9,1.5-0.9,4-2.4,5.6c2.3,0.1,5.5,1.3,6.9,0.6c0.6,1.3,0.8,2.5,0.6,3.8
							c2.3-2.4,3.5,1.2,5.5,1.3c2.1-1.4-2.1-2-0.6-3.8c0.6,1,1.8,0.2,2.3-0.2c-0.6,0.7-2.8-0.6-4.3-1.2c1.1,0.1,1-1.8,1.3-2.6
							l-1.9-0.4c0.1-2.3,2.3-0.2,3.2-1.4c-0.6,2.1-0.3,2.2-0.8,4.2c1.6-0.8,4.1-0.8,5.5,0.4c0.8,0.8-0.7,1-1.1,1.6
							c0.4,1.4,1.6-0.9,2,0.9c-0.3,1.3-1,0.1-1.6,0.5l4.8,0.6c0,0.8-1.2,1.1-1.9,0.8c1.5,1,2.5,0.5,4.2-2.4c1.6,0.8,3.5,2.1,3,3.3
							c0.8-0.5,0.3-1.3,0.2-2.2c2.2,0.5,2.5-2.5,3.8-2.6l-1-1.6c2.1,1.6,0.5-2.6,2.4-1.4c-0.3,1.6-0.2,3.5,0.1,5.3
							c0.3-1.6,1.5-0.2,2.3-0.2c-0.5-1.6,1.8-1.5,0.4-3.1c1.9-1.3,2.8,0.9,4.2-1.2c-0.9-0.5,1.6-1.7,0.9-2.9
							c1.8-0.1,3.1,1.8,2.6,3.6c-0.6-0.1-1.6-0.8-1.6,0.5l3.3-0.3c0.8,0.8,1.9,1.2,2,3.1c1.1-2.2,3.1,1.5,4-1
							c-1.1,1.6-2-0.6-2.5-0.8l0.5-0.4c-0.1,0-0.2,0-0.3-0.1l1.4-3.3c-1.4-1.3-0.2,2.1-2.2,2.1c-1.7-3.1,3.8-4.6,2.1-6.5
							c-1.4-1-1.2,2-2.4,3.1l0.3,0.1l-2.7,1.3c-0.1-1,0.7-1.9,0.7-1.9c-3.3,0-3.8-1.6-7.3-2c0.3,0.4,0.9,3.6-0.6,4.1
							c-1.1,0.8-1.3-1.1-2.2-1.3c0.6-0.4,1.1-2.2,1.8-1l-0.1-2.2c2.6-2.7,1.3-4.8,4.8-5.6c0.2-1.6,2.8-2.5,4.7-2l-0.9-1.5
							c2-2.8,0.4,2.3,3-0.1c1.1,2.9,3,6.4,1.6,8.8c1.8,0.7,2.5-0.9,4.1-0.9c1,2.4-0.5,2.6-0.3,5c1.2-0.3,2.7-1.3,1.8-2.7l2.3,1
							c0.1,0.5-0.8,0.5-1.1,0.5c0.9,0.5,2.6-0.7,3.1-1.6c-0.2,0.1-0.8,0.5-1,0.1c0.9-0.6,2.6-1.8,2.8-2.5c-1.4,1.2-1.5-1.5-3,0.1
							c0.1-0.6,0.4-2,1.1-1.6c-1.2-1.4-2.4-1.2-2.9-2.8c1,1.2,1.7-0.5,1.9-0.8c-0.9-0.5-2.7,0-3.3,0.7c-0.1-2.7-3.5,0.5-2.3-2.3
							c-0.2,1-1.5,1-2.2,0.4c0.1-1.2,1.8-1.8,2.6-3.2c3.5-1.3-0.1,2,0.8,2.9l2.7-0.2c-0.3-0.4,1.1-1.9-0.7-1.8
							c0.8-1.7,2.5-2.9,3.9-1.6c0.3-0.8-0.7-0.7-1-0.7c0.3-0.8,2-3.7-0.2-4.1c0.6,0.1-1.1,1.3,0.1,2.2c-0.9,0.3-3.3-0.8-2.3-2.3
							c-1.1,0.5-3.1,1.6-4,1.9c-0.3-1.2,0.8-0.5,1.2-1.1l-3.1,0.7l0.9,1.4c-2.3-1-3.7,2.3-5.5,3.3c0.3-2.2,1.8-2.4,3-3.5
							c-1.1-2.6-0.8,1.4-2.6,1c-0.3-0.4-0.3-0.9-0.2-1.6l-1.5,1.9c-0.4-0.3-0.2-0.7,0-0.8c-2.6,2.4,0.1,3.1-3.4,4
							c2.1,1.1,1.8-1.5,3.5-1.3c1,1.6-2,2.8-2.5,3.7c-1.7-0.5-1.9-3.8-4-2c1.5-1,0.1-2,2.2-2.1c1.2-1.1-0.6-1-0.9-2.2
							c-0.6,0.4,0.4,2.3-1.2,2l0.1-0.3l-2.6,2.3c-2.4-1.2-5.4,2.6-7.1,0.1l0.4,2.3c-1.5,0.2-3.7,0.3-4.7,0.7
							c0.2-1.3,1.3-1.4,2.3-1.9c-2.7-0.4-5.1,1-6.9,2.8c1.3,1.6,1.5,1.5,2.8,2.6c-1.8,3.2-2.1-2-4.4-0.4c-0.1-2.2,0.7-1.9,0.1-4
							c-0.9,1.5-2.5,1.2-3.6,2.5c-0.6-2.2,0.4-4,2.8-4.2c1.8,1.9,3.7-1.4,5.2,0.4l-0.9-1.4c1.8-0.7,2.8-0.3,4.3-1.3l-0.1,0.3
							l0.8-2.2h-0.8c0.6-1.2,2.3-3.3,2.8-3.3c-2.5,0.3-2.7,3.8-3.9,5.8c-2.3-0.1-3.2-4-4.7-2.1c-0.1-1.1-1.4-2.2-0.4-3.1
							c1.3-0.6,2.1,0.8,2.3-0.7c-1.3,0.1-0.8-0.8-2.8-0.6c-0.4,2-1.9,3.9-3.3,5.4c-1.5,1-3.5,1-4.7,0.4c1.5-0.2,3-2.1,2.6-3.5
							c-0.9,2-3-1.6-2.5,1.2c-1.8-0.2-4.7-0.1-4.9-2.5c1.7-0.9,3.3,0.6,4.7,0.1c-0.4-0.1-0.8-0.7-0.5-1.2l2.1,0.3
							c-1.6-1.2-1.3-2-3.3-1.7c0.1,0.2,0.4,0.6,0.2,0.7c-0.5,0.1-1.1-0.1-1.6,0l-0.1-2.2c-1.5,1-4.4-1.8-7.2-0.1l0.2-0.5
							c-2.2-0.5-2.4,3.9-4.8,4.4c0.7-1,0.4-2,0.3-3c-1.2,1.1-1.8-0.7-3-1.3c1.4,1.3-0.9,2.3,0.1,3.1c0.1,2.2-2.4,2.2-3.7,2
							c-0.8-2.9,3.9-1.6,2-4.5c-1.3-0.3-1.6,1.4-0.7,1.9c-1.6-0.3-4-0.6-5.1-2.4c-1.9,2.2-2.6,1-3.8,3.8c1-0.1,1.1-2.2,2.3-1
							l-1.4,2.1c-1.8,0.1-3.3-1.7-4.5-1.9l1.3-0.9l-0.1,0.3c0.5-0.9,2.2-0.4,2-2c-1.2,1.9-2.1,0.1-3.7,1.4l0.1-0.3
							c-2.8,1.6-4.8-3.2-6.5,0.9c0.5-0.1,1.5,1.5,1.2,2.3c-0.6-1-2.3-0.6-2.3-1.8l0.6-0.4c-1.6-0.3-2.5-0.5-3.1-0.1
							c-0.4,1.4,0,2.5-1.1,3.3c-2.8-0.9,1.1-3.3-0.8-4.6l-2.6,1.5l-0.6-1.3c-3.8-1.3-6.8,3-10.9,3c-0.1-2.2,2.9-3.1,3.9-3.3
							c-1.3-2-3.1,0.7-4.8-0.6c-1.6-0.3-2.8,1.6-2.5,2.9c-1.9,0.8-1.4-1.3-1.6-1.7c-0.6,2.4-3.1,1.6-4.7,2.1l-0.1-1.4l-2.5,1.7
							c0.6,0.1,0.1,1.4,0.1,2.2l-0.6-0.1c2.4,3.7,5.4-2.6,7.9,1.6c-0.8,0.5,0.3,1.2-0.5,1.8c-0.6-0.1-0.8-0.3-0.8-0.9
							c-0.4,1.1-1.4,2.1-0.1,2c-0.1,2.9-2.7,2.2-4.5,3.1c-1.5-1.8,1.5-2.7,2.3-4.1c-0.7,0.2-1.3,1.4-2.3,0.7l0.2-2.1
							c-2.5,1.2-0.7,1.9-1.3,4c-0.7,2.7-2.3-0.1-3,0.1l0.8-0.5c-2-0.9-2.4,1.4-4.2,1.2l-0.8-1.7c2.2,2.2,2.7-3,4-1.9
							c-3.2-2,0.7-4.4,1.7-6.3c-1.4,0.4-2.6,0.1-3.4-1c-2,2.8-4.2-1-6.2,2.3c-1.1-0.4,0.9-1.5-0.2-1.6c-2.1-0.3-4.3,0.1-6.5,1.4
							c-1.1-0.1-0.9-1-1.3-1.9c-5.5-1.3-7.6,3.9-13.6,2.6l0.9-1.2c-1.3-0.3-2.3-0.7-3,0.9c-1.6-3.7-5.4,2.3-7.4-1.7
							c-2.6-0.7-2.8,2.5-4.9,3.1c0-0.8,0.6-2.4-0.4-2.8c-6.8,1.3-12.9,1.6-20.4,2.2c0.1-0.3,0.4-0.6,0.6-0.7
							c-4.9-0.3-9.6,3.3-13.7,2.1c-0.8,0.5-3,1.2-2.3,2.7c0.9,0.2,1.1,2.1,1,3.3c-3.6,1.6-1.8-2.7-4.2-2.2c-0.8-2.9,1.5-1.9,1.5-4.4
							l-3.5,1.8c-2-0.9-3.9,0.7-5.6-0.6c0.8,0.3,0.2-2.1,1.5-1c-0.2,0.1-0.1,0.3-0.3,0.5c2.9,0.2,1.6-1.4,4.2-2
							c-2.3,0.7-5.4,1.4-7.4,0.9c0.4,1.9-1.6,0.8-2.2,2.1l-0.1-0.2c0,0.8-1.3,1.4-1.6,1.7l-0.5-2.5c-0.9,0.3,0.3,1.2-0.6,1.6
							c-1.3,0.6-5.7,0.9-6-1.7c-1.5,0.2-2,1.6-3.5,1.3c0.1-0.7,0.5-0.9,0.6-1.2c-3.3-0.5-7.4,0.3-10.6-1.2c-2.6,0.7-4.8,1-6.4,2.7
							c0.7-0.2,2.7,0.4,1.4,1.8c-0.7,1-1.8,0.7-2.8,1.1c0.3-1.3-2.7-1.2-0.6-2.1c-0.5-2.8-4.6,0.6-4.6-2.3c-0.5,0.9-3.5,0.4-4.7,1.9
							c-0.3-1.2,1.6-0.9,1.6-1.7l-1.4,0.4v-0.8c-2.7-0.7-3.1,2.7-4.7,3.3l0.1-0.3l-1.1,0.5l1.3-2.3c-1.7,0.3-2.6,2.4-4.5,2.8
							l-0.2-0.7l-1.1,0.8c0.2-0.1,0.3-0.5,0.1-0.7c-1.1,2.2-3.5,1.3-4.5,3.1c-0.8-0.3-1.4-3-2.4-1.2l0.2-2.7
							c2.5-0.3,0.9,1.9,3.6,0.9c-2-3.4-7.4-3-11.1-2.8c-3,1.8-7.8-1.1-9.1,2.9l0.3-1.6l-5-1.4c-4.2,0.7-8.6-0.6-11.8,1.6l-0.9-1.4
							c-3.3,4.6-11.3,1.9-13.5,7.4c-1.9-1.2,0.6-2.1,0.8-3.1c-1.4-0.4-3.7,3.1-5,0.7c0-0.8,2-0.8,1.1-1.3c-1-1.6-1.4,1.6-2.6-0.2
							c0.5,1.6-1.8,3.5-3.5,3.8c0.3,0.1,0.3,0.1,0.4,0.3c0.2,1.2-1,1-1.7,1.2c0,0,0.1-0.3,0.3-0.5c-8.7,2.1-18.8,3.1-28,1.5l1.7-1.2
							c-1.3,0.9-3.7,0.3-4.4-0.1l0.2-0.1c-2.5-2.5-2.8,2.5-4.7-0.5l0.4-0.3c-3,0.1-4.7-2.7-7.6-1.2c-2.3-1-2-2.3-3.6-3.4
							c-1.3,0.1-1.9,1.6-2,2l0.6,0.1c0.7,1.5-1.4,1.2-2.3,1.9c0.7,2.3,0.3,6,3,8.4c2-0.8,1.9,3.8,4.1,3.4c1.3-3.1,3.2,2.3,5.2-0.5
							c-1.1,2.1,2.4,1.2,0.6,3.5c0.8,1.7,4.3-1.8,5.9,0.2c-0.3,0.5-0.2,1-0.6,1.2c2.2-1.2,1.5,1.5,3.2,1.5l-0.1-2.2
							c0.6-0.7,0.8,0.8,1.4,0.5c-0.4-0.3-1.4-1.3-0.9-2.2c0.8-0.5,1.4-1.2,2.2-1.2c0,0.8-0.6,1.2-0.9,1.5c0,0,1.8,0.2,1.9,1.2
							c-0.6,0.7-1.4,0.7-2,2c2.3,0.6,0.2,0.7,1.3,2.5c-0.3-2.6,2-1.1,3.3-1.7c0.1,1-0.9,0.3-1.2,1.1c2.4,4.6,3.6-0.8,6.7,0.2
							c-0.1,0.3-0.4,0.6-0.6,0.7c1.5-0.7,2.5,1.7,3.4,0.2c1.4,0.5,0.3,2.9,2.4,2.9c-0.6-2.7,2.5,0.5,2.6-2.3l1.6,1.7
							c1.5-1.6-0.4-4.8,2.4-5.1c2.6,1-0.2,4.7,1.3,6.2l0.6-1.6l1.3,1.1l-0.2,0.1c0.8-0.5,2.1-0.1,2.1,0.8c-0.1,0.7-0.9,0.7-1.1,1.3
							c1.3-1.4,5,3.9,6.3-0.4c0.7,0.8,2.3,0.7,2.1,2.1c0.7-1.9,3.4,0.6,4.4-0.6c-0.1,0.7,0.8,1.7,1.6,1.2c-1-0.7-0.4-1.4,0.3-2.5
							c0.9,1.4,3.4,0.2,3.8,2.5c1.4-1.2,0.9-2.9,1.2-4.5c0.9,1.4,3.7,1.1,3.2,3.7c-0.8-0.3-2.5-0.8-2.1,0.9c1.4,1,0.6-0.7,1.8-1
							c-0.1,0.5,0.8,1.6,0.6,2.4c0.7-0.3,1.7-0.3,2.7,0.2c-1.6-1.2,1-1.8,0.1-2.9l-1.5,1.9c-1.8,0.1-0.4-1.4-1.1-2.1
							c3.2-0.5,2.6-3.2,5.6-4.4c0.6,0.5,1.6,1.2,1.9,1.2c-1,0.1-0.8,2.5-0.2,3c1.7-2,3,1.3,4.4,1.8c-1.2-0.6-0.6-2.1-0.1-2.7
							c2.9-1.4,1.1,0.9,2.4,2c4.5-0.3,7.3,2.9,10.9,1.2l-1.7-2.2l-0.6,2.1c-1.3-1.6,0.2-4.7,1-6.1c0.2,0.7,2.4,0.3,1.5,1.5l2.1-0.9
							c-0.3-0.9-1.7-0.5-0.7-1.5c0.7,0.7,2.9,1.1,1.5,2.3c1.1,0.1,2.6-0.7,2.3-1.9c1.8-0.1-0.2,2.7-1,3.5c1.4,0.1,1.3,1.9,0.8,2.5
							l2-0.3c-0.4,0.6-0.4,1.4-0.9,2c1.3,0.8,2.3-1.6,3.4,0.2l0.5-1.8c3.7,1.4,3.3,1.7,6.7,1.9l-0.6-1.3c2.6-2.3,1.9,2.1,5.4,1.1
							c2-0.8,3.2-1.4,3-3.5c1.1-0.8,1.4,0.5,1.9,1.2c0.9-1.2,2.8-3.3,4.2-2c-0.9,0.6-1.7,1.2-2.6,1.5c0.3,2.1,3,0.4,4.5,1.4
							c1-1,4.3-3.5,6.1-5.4c-0.8-1.7-0.5-4.2,1.1-5.9c-0.3,1.3,2.2,1.3,3.3,2.2c-0.6,1.2,2.5,3,0.1,3.6c-0.7-0.6-1-2.4-2-1.8
							c0.6,1.3,2.1,2.8,3.7,4c-0.1,0.7-0.9,1.5-1.8,1.5C199.5,323.5,199.2,323.2,199.2,322.6z"/>
						<path class="st1" d="M427,296.6c-0.1,0-0.2-0.1-0.3-0.1l0.3,0.5C427,296.8,427,296.7,427,296.6z"/>
						<path class="st1" d="M248.3,323.4c0.1-0.1,0.4-0.4,0.4-0.7C248.5,322.9,248.4,323.1,248.3,323.4z"/>
						<path class="st1" d="M282.6,322c0-0.2,0-0.4-0.1-0.5C282.5,321.6,282.5,321.7,282.6,322z"/>
						<path class="st1" d="M429.2,311.3l-0.6,0.4C428.8,311.7,428.9,311.5,429.2,311.3z"/>
					</g>
				</g>
			</g>
		</g>
	</g>
</g>
</svg>
