<svg id="レイヤー_1" data-name="レイヤー 1" xmlns="http://www.w3.org/2000/svg" viewBox="0 0 1562.95 215.73"><defs><style>.cls-1{fill:#0f0e0a;stroke:#0f0e0a;stroke-miterlimit:10;}.cls-2{fill:none;}.cls-3{fill:#282724;}</style></defs><title>mokuzi_hamburger</title><path class="cls-1" d="M51.41,199.39a102.88,102.88,0,0,1-.7-11.1c-.2-3.7,0-8.7-.2-12a22,22,0,0,0-.3-7.5l-1.5-.5a36.86,36.86,0,0,1-6.5,1.3c-2.1.3-4.8.9-7.3,1.2s-8.8.8-10.6,1.5c-1.9-.5-4.3.4-6,.8-.8.8-.6,3.3-.4,6.4,0,8.8-.3,11.8-.9,14.8a18,18,0,0,1-4.4,8.41l-2.8.69L7.61,201a44.29,44.29,0,0,0-.91-4.7,21,21,0,0,1-.3-5c.3-4.7.71-14.8,1-19.9,0-4.6,0-9.3.21-14.3v-14.4c-.21-1.7-.21-3.7-.5-5.4A29.65,29.65,0,0,1,6.3,132l.1-.7a18.77,18.77,0,0,1,5.31-1.3,16.26,16.26,0,0,1,4.4-.4,3.83,3.83,0,0,1,2.8,2.7v4.4a9.57,9.57,0,0,0-1,4v4.7a24,24,0,0,1,.7,5.6c0,7.1,0,9.1.3,10.8l1.1.3c4.9-.3,7.3,0,9.8-.3l16.2-2,4.2-.7c.6-6.4.9-8.1.9-10.1v-4c0-2.3.7-3.8.3-6.4a44.5,44.5,0,0,1-.2-7.3c1-1.7,4.2-1.7,6.6-1.7,1.6.4,4.5,1.4,5.6,2.7a72.55,72.55,0,0,1,1.4,7.6l-.6,4.4c-.3,3.4-.9,9.4-1.2,15.8a160.76,160.76,0,0,0-1,16.7c-.3,11.9-.9,18.3-2.5,24.3l-.8,2-1.4,1.2-3.4-.59A9.14,9.14,0,0,1,51.41,199.39Z" transform="translate(-5.8 -0.01)"/><path class="cls-1" d="M77.4,201.59a33.22,33.22,0,0,1-2.2-7.3,27.53,27.53,0,0,1-1.3-7.2,30.68,30.68,0,0,1,2-8.6,43.06,43.06,0,0,1,3.2-7.8,29.57,29.57,0,0,1,4.7-7.3c1.4-1.1,2.91-2.2,4.41-3.5,1.4-1.1,2.9-1.9,4.5-3.1a11.8,11.8,0,0,1,6-.7c1,1.3,2.2,1.3,3.5,2.5,1.4.3,2.5,1.3,3.8,2.1a5.79,5.79,0,0,1,1.5,4.4l-.3,4.4.5,6c.3,3.9.8,6.4,1,9a63,63,0,0,0,1.5,8.3c1.1-.5,1.8-2,3.6-4.4a33.25,33.25,0,0,1,3.4-6.8l2.3-.1,2.1,1.6.7,6.4a15.79,15.79,0,0,1-2.4,5.7,38.06,38.06,0,0,0-3.1,5.5,7,7,0,0,1-4.6,2.1,18.36,18.36,0,0,1-4.9.41,6.85,6.85,0,0,1-4.5-3.91,32.52,32.52,0,0,1-1.6-4.5s-.9,1.5-1.7,2.8c-1.3,2-3,2.7-4.3,3.7-1.9,1.5-4.6,2-7.2,2.2-2.31.21-4.31.1-6.51.4C79.2,203.79,77.4,201.59,77.4,201.59Zm15.91-14.9c.8-2,1.3-4.4,2.1-6.4a36.1,36.1,0,0,0,.7-7.4l-.4-3-2.3-.9a14.36,14.36,0,0,1-2.6,1.7,10.44,10.44,0,0,0-2.41,3.7,52.36,52.36,0,0,0-2.7,8.1,46.35,46.35,0,0,0-1.19,9.6c.89,2.8,2,3.6,3.8,2.8l2.1-2.1a37,37,0,0,0,2.9-6.1Z" transform="translate(-5.8 -0.01)"/><path class="cls-1" d="M135.4,203.39a18.34,18.34,0,0,1-2.6-5.9,41.5,41.5,0,0,1-1.3-7,59.26,59.26,0,0,1-.3-7.3c.3-3.4.6-6.7.9-10.1.4-3,.7-6.3,1.4-9.3a52.41,52.41,0,0,0,.3-9.7l2.7-.4c2,.4,3.9.7,6.1,1a17.7,17.7,0,0,1,5.6,2l1,2.7-.3,1.3,1.1.4a23.71,23.71,0,0,1,6.6-3.7,17.69,17.69,0,0,1,7.51-.7l3.7,2.4,1.2,3,1.6.3a47.77,47.77,0,0,0,4.7-3.7c1.7-1,3.3-2,5-3a16.3,16.3,0,0,1,5.7-1,18.82,18.82,0,0,1,4.4,1.7,16.37,16.37,0,0,1,3.6,3.3c.3,3.4,1,6.7,1.3,10.1.3,3.7.3,7,.7,10.3.3,3.7.6,7.1,1,10.4l-.1,4.9-.4,3.5-2.3,4.4-3.4.6a13.73,13.73,0,0,1-5-6c-.1-6-1.1-9.7-1.4-13.4s-.7-7.7-1-11.4-.7-7.7-1.3-11.3l-1.2-.4a59.08,59.08,0,0,0-5.7,8.4,51.88,51.88,0,0,0-3.8,9.3c-1.1,3.4-1.2,12.2-2.4,15.9v4.3a8.38,8.38,0,0,1-1.61,4.1l-4,1a11.21,11.21,0,0,1-5-6.1,13.74,13.74,0,0,1-1-7.3V182.2c.3-2.4.7-4.7,1-7.1v-7l-1.7-3.7-1.1-.3-2.8,1.7c-1.7,2.3-3.3,4.6-4.9,7a16.25,16.25,0,0,0-2.5,7.7,30.31,30.31,0,0,1-2.1,8.1,57.62,57.62,0,0,0-.6,8.3,11,11,0,0,1-2.6,7.2l-2.3.7Z" transform="translate(-5.8 -0.01)"/><path class="cls-1" d="M206.8,198.69a25.75,25.75,0,0,1-.4-6.2s.8-23.4,1-28.4c.4-5,.5-13.3,1.7-18.4a148.13,148.13,0,0,0,.3-14.9l-.3-5.8,1.1-.3a8.37,8.37,0,0,1,4.6,3.6,13.08,13.08,0,0,1,2.5,4.3,45.19,45.19,0,0,0,.8,5.3,32,32,0,0,0,.5,5.7,20.63,20.63,0,0,1,.5,5.7l-.4,7.3.6,2a19.25,19.25,0,0,1,7.5-3.2,47.38,47.38,0,0,1,6.3-.3c2.5.3,4.8.7,7.3,1,2,.7,3.81,3.1,5.51,4.8,1.7,4.6,3.2,5.8,3.5,8.2,1.7,4.1,2.1,8.3,2.4,13.8.5,4.5-.3,7.2.1,9.5a9,9,0,0,1-2.7,4.4c-1.4,1.3-2.7,2.7-4.2,4a23.25,23.25,0,0,1-5.11,2.3,11.44,11.44,0,0,1-5.9.7c-2.5-.3-5.7.41-8.4,0a12.33,12.33,0,0,1-8.5-3.2l-.9.8c-.3,1.6-1.6,2.31-3.1,3.6l-3,1A13,13,0,0,1,206.8,198.69Zm33.33-16.8c0-3.4-1.31-8.3-2.6-11.7a10.14,10.14,0,0,0-3.61-4.5,8.89,8.89,0,0,0-6.1-1,12.25,12.25,0,0,0-6.7,4.2c-1.7,1.6-2.8,6.1-3,11.1,0,4.8-.6,7.9-.8,11.4,3.5-.4,6.9.7,9.2,0,2.6-.5,5.4-.8,7.3-1.3a7.17,7.17,0,0,0,5.6-4.8Z" transform="translate(-5.8 -0.01)"/><path class="cls-1" d="M299,200.89c-.8-1.6-1.7-3.1-1.7-3.1h-.17a14.27,14.27,0,0,1-4.8,4,15.65,15.65,0,0,1-5.7,2,19.65,19.65,0,0,1-6.4.3,18.37,18.37,0,0,1-8.1-2.2,19.2,19.2,0,0,1-6-5.8,29.87,29.87,0,0,1-3.5-6.3c-.5-2.7-1.3-5.1-1.6-7.7a39.65,39.65,0,0,1-.3-7.7l.3-16.1-.6-2.3a5.69,5.69,0,0,1,4.7-1.4,7,7,0,0,0,4.4,1.4c1.4.3,3.1.4,3.9,2.2,0,4-.8,8.2-1.2,12.3a41.15,41.15,0,0,0,.5,9.6v8c.7,2.3,1.9,4.6,3.2,5.6a20.2,20.2,0,0,0,4,.7,15.93,15.93,0,0,0,5.1-3,16.93,16.93,0,0,0,4.5-4.7,23.89,23.89,0,0,0,2.4-5.6c.3-2,.9-4.1,1.2-6.4l.5-8,.2-2a19.28,19.28,0,0,1-1.4-4.4c-.2-1.3-.5-2.7-.8-4.3a4.18,4.18,0,0,1,4-1.4,17.23,17.23,0,0,0,3.7,1.7,9.57,9.57,0,0,1,4,2.3A6.91,6.91,0,0,1,305,164l-.6,4s.6,7,.6,11.4a80.88,80.88,0,0,0,1,13c.9,4.4.8,6.5,1.5,10.9l-1.7,2h-2.4A7.91,7.91,0,0,1,299,200.89Z" transform="translate(-5.8 -0.01)"/><path class="cls-1" d="M318.7,201a26.28,26.28,0,0,1-1.7-6.7,28,28,0,0,1-.8-7v-7.4c.2-2.6.8-5.3,1.1-8.3.2-2.7.7-5.4,1.3-9.1a75.11,75.11,0,0,1,1.5-8l2.1-.4s2.4.7,3.9,1,2.4,1.7,3.5,2.4l.7,2.8s3.5-2.3,5-3a20.91,20.91,0,0,1,4.8-1.3,30.14,30.14,0,0,1,5.2-.3c1.3.3,3,.3,4.7.6a15,15,0,0,1,5.3,2.8l1.7,3.7a10.41,10.41,0,0,1-7.4,2.6l-2.5.6a36.24,36.24,0,0,1-5.7.3,12.29,12.29,0,0,0-5.2,1.7c-2,1-3.3,2.3-4.5,5.6a18.8,18.8,0,0,0-2.6,5.3c-.7,2-1.1,3.5-1.7,5.8a57.42,57.42,0,0,0-1.2,6.3c-.3,2.3-.6,4.3-.8,6.7a38.71,38.71,0,0,1-1.3,6.3l-2.5.3Z" transform="translate(-5.8 -0.01)"/><path class="cls-1" d="M378.4,213.7c-1.7-1-2.9-2.1-4.6-3.3L372.7,208a34.34,34.34,0,0,1,1.2-4.9A36.43,36.43,0,0,1,377,199a19.31,19.31,0,0,1,3.7-3.8,38.93,38.93,0,0,1,5-3c1.7-.9,3.4-1.4,4.8-2.1v-1.8l-2-.2-4.6.6a32.77,32.77,0,0,1-8-1.8c-2.3-.9-4.7-2.1-7.1-3.2a42.45,42.45,0,0,1-2.5-5.7,20.14,20.14,0,0,0-2.3-5.3v-3.8a21.68,21.68,0,0,0-.2-3.6c.6-1.1,1.7-2,2.7-4a24.19,24.19,0,0,0,3.6-1.8c2.5-.9,5.2-1.8,7.7-2.7a24.58,24.58,0,0,1,7.8-1.2c2.3-.9,4.9-.9,7.8-1.2a14.31,14.31,0,0,1,6.3,2.3,21,21,0,0,1,2.1,5.1,41.43,41.43,0,0,1,2.5,4.7v2.1a36.87,36.87,0,0,1-1,5c-.3,1.8-.6,3.5-1,5-.2,1.8-.8,4.8-.5,6.5l4.7-1,4.6-.1,1.1,1.5c-1,3.1-2.4,3.9-4.1,5.4-1.7.6-5.5,1.7-6.3,3.1,0,0-.8,3.2-1.2,5.8a21.16,21.16,0,0,1-2.2,7.11,34.24,34.24,0,0,1-5.1,6.4,9.28,9.28,0,0,1-4.5,1.5,11.58,11.58,0,0,1-4.9.3A11.25,11.25,0,0,1,378.4,213.7Zm13.5-40.11v-3.5c-.9-.9-1.9-1.8-2.9-2.7a5.59,5.59,0,0,0-3.7-1.5l-5.5,2.7a5.47,5.47,0,0,0-1.6,3.8,17.59,17.59,0,0,1-.7,4.5,7.54,7.54,0,0,0,3.9,2,14.22,14.22,0,0,0,5.2.3A13.94,13.94,0,0,0,391.9,173.59Zm-1.4,28.6a9.59,9.59,0,0,0,.4-4.6l-1.3-.3c-1.2.8-2.2,1.6-3.2,2.4a8.23,8.23,0,0,0-2.3,2.9v2.3l1.8,1.6h.8l.9-.4a10.41,10.41,0,0,0,2.9-3.89Z" transform="translate(-5.8 -0.01)"/><path class="cls-1" d="M428.6,202.7a22.4,22.4,0,0,1-4.8-2.51,11,11,0,0,1-3.1-4.6c-1.9-3.3-1.5-8.4-1.7-9.6,0-2.4.5-4.5.7-6.9a17.1,17.1,0,0,1,2.5-6.8c1-1.7,1.9-3.8,3.2-6.1a23.12,23.12,0,0,1,5.3-5.1,73.79,73.79,0,0,1,6.5-4.3,14.49,14.49,0,0,1,7.5-2.3,21.57,21.57,0,0,1,6.8,1.2c1.9,1.2,4.2,1.7,6.2,3.3s2.2,2.9,2.8,4.3a20.36,20.36,0,0,1,.9,6.2,15,15,0,0,1-2.9,8.1,25.68,25.68,0,0,1-5.9,5.3,30.91,30.91,0,0,1-7,2.5,37.75,37.75,0,0,1-8.1,1.4l-8.4-1.7a9.21,9.21,0,0,0-.8,4.3l.4,2.1s1.5,2.6,3,3.4c3,.5,6.4,0,11.9-.8,2-.6,4.1-.6,6.1-1.3A16.86,16.86,0,0,0,455,190a25.51,25.51,0,0,1,5.7-2.9l.8,2.2-1.5,4.6a20.46,20.46,0,0,1-5.7,4.9,45.44,45.44,0,0,1-6,2.8c-2.6,1.4-5.5,2.7-13.5,2.8C432.5,204.59,430.13,203.39,428.6,202.7Zm19.7-35.41c-.7-1.2-1.4-1.5-2.6-.9a20,20,0,0,0-4.9,1,14.8,14.8,0,0,0-4.7,2.3,9.67,9.67,0,0,0-3.9,5.3l-.5,1.8.3,1a12,12,0,0,0,6.6.4c1.4-.3,2.5-1.3,3.9-1.9s3.5-1.1,4.3-2.4A15.88,15.88,0,0,0,448.3,167.29Z" transform="translate(-5.8 -0.01)"/><path class="cls-1" d="M473.7,201a26.28,26.28,0,0,1-1.7-6.7,28,28,0,0,1-.8-7v-7.4c.2-2.6.8-5.3,1.1-8.3.2-2.7.7-5.4,1.3-9.1a75.11,75.11,0,0,1,1.5-8l2.1-.4s2.4.7,3.9,1,2.4,1.7,3.5,2.4l.7,2.8s3.5-2.3,5-3a20.91,20.91,0,0,1,4.8-1.3,30.14,30.14,0,0,1,5.2-.3c1.3.3,3,.3,4.7.6a15,15,0,0,1,5.3,2.8l1.7,3.7a10.41,10.41,0,0,1-7.4,2.6l-2.5.6a36.24,36.24,0,0,1-5.7.3,12.29,12.29,0,0,0-5.2,1.7c-2,1-3.3,2.3-4.5,5.6a18.8,18.8,0,0,0-2.6,5.3c-.7,2-1.1,3.5-1.7,5.8a57.42,57.42,0,0,0-1.2,6.3c-.3,2.3-.6,4.3-.8,6.7a38.71,38.71,0,0,1-1.3,6.3l-2.5.3Z" transform="translate(-5.8 -0.01)"/><line class="cls-2" x1="553.45" y1="186.38" x2="1562.95" y2="186.38"/><polygon class="cls-3" points="1562.95 181.71 1562.47 181.44 1561.24 182.16 1562.95 181.71"/><path class="cls-3" d="M1560.62,183.33c.24.13.13.35.37.48l4.77-2.07C1563.63,180.56,1562,184.11,1560.62,183.33Z" transform="translate(-5.8 -0.01)"/><path class="cls-3" d="M1559.22,183.12a2.91,2.91,0,0,0-3,.82C1556.82,183.2,1559.62,184.2,1559.22,183.12Z" transform="translate(-5.8 -0.01)"/><path class="cls-3" d="M1396.13,183.6l.57-.06A.93.93,0,0,0,1396.13,183.6Z" transform="translate(-5.8 -0.01)"/><path class="cls-3" d="M1353.63,186.91l-.45.78c7.94-1.39,16.89,0,25.29-.58l-.57.27c21.3.3,41-1,62.08-1.59-.33.09-.44.31-.78.41a10.59,10.59,0,0,1,3.29-.71c.3.18-.32.36-.68.44,4.46,1.29,13.11-.81,15.9.18,1.25-.14,1.81-.67,1.11-1.08,16.54-.33,34.24-.57,51.08-1.58.81.17,1,.52.74,1,14.4-2.09,29.49-1.26,44.23-.92.56-.55-1.51-.58,0-1.15-4.74-.69-8.68,1.34-13,.35l.55-.53c-3.12-.34-.63,1.33-3.87.65-1.28-.44.32-.68-.28-.71-6.64.21-13.57-.26-19.83,1-1.54-1.15-7.14,0-9.59-1.14-1.72.46-3.45.34-4.1,1.1-23.26-.6-47,.51-70.84.42-11.14,2.22-24.49-.43-37.72.32-.1-.08-.08-.16,0-.23a96.36,96.36,0,0,1-15.75.53l-4.36.94c-31-1.93-62.64-.57-94.1-1.37-35.76-.56-67.08-2.16-101.9.77,0-.22-.24-.34.66-.43-10,.45-19.2-.35-28.66.12V184c-23.49,1.83-48.88-.25-71.52,1.73-27.55-.2-58.71,0-87.88.56l.07-.44c-23.34.93-45.9-1.4-69.19-.7-24-1-49.25,2.52-73.4,1.19-14.94-2.17-34.57,2.47-48.61.23-28.84-3.38-56.82-1.21-85.65.82-26.59-1.2-53.15,1.88-78.91-.57-12.2,1.57-25.68-2-39.27-1.49l.49.54c-4.88-1.65-10.86,2.32-13.91-.14l.52-.11c-2.58-1.25-6,2.94-7.57,1.45l-.41.62c-3.13.18-.37-.7-2.79-.95-.9.08-.34,1.13-2.23.77-.41-2.52-7.66.55-7.87-2.29,1.71,0-2.68-1.09,1.16-1.69-1.1-.29-6.33-.15-5.86,1.06-.45,1.27-2.5,2.38.69,3.37l.64-.93c1.07.93.81.47,1.19,1.16,4.16.13,4.72,1.48,7.7,2a.06.06,0,0,1,0-.1c2-1.11,4.86-.45,6.47-.29l.65.51c1,1.09,4.73-2.11,3.46-.25,8.46-.47,18.15-.44,27.6-.47,1.32-.7,7.23.07,5.17-1.29,2.36,1.55,9.39,1.94,12,1.88-.09.15-.2.31-.61.25,5.06,2,6-1.86,10.75.6.74-1.73,8.62.56,11.3-1.49q.88.58.57,1c8.54,0,18,.67,25.21.74,6.18-1.52,15,.69,20.27-1.41,4.4.44,11.52,1.32,17.67.48l-.6.26c6.94-.13,15.6-.24,20.35-1.56,2,2,5,1.61,8,2.26,4.63-.94,14-.66,21-1.51,1.08.93,5.82-.4,6.19,1,19.79-2.61,44.25-1.7,65.38.27l-.31.1c2.75-.75,5.91-2.38,8.7-3.34.27.12.24.34-.35.33,3.86-.25,7.47,1.08,11.33.83,0,.23,0,.23-.66.44,3.62-.6,7.48,1.08,11.75,0l.23.36,2.72-.5c-.07.45-.17,1.12-1.62,1,33.13.44,67.33-1.88,101.34-1.54l-1.24.42,6.59-.76c0,.23-.35.34-.66.44,8.4.76,17.12-.51,25.31-.32,0,.22-1.28.65-.13.9,6.06-1.22,9.73,1.58,12.77-1a.48.48,0,0,1,.22.63.48.48,0,0,1-.37.26c16.87-.84,34.18-.79,51.17-.38,14.15-2.29,30-.21,44.66-2l-.07.45c19-1.6,39.21.11,58.93-.21,8.19.19,13.73-.35,22-.38l.21.57c13.85-2.17,29.12,1.94,43.57-.44l-1,.77c2.24-1.2,8.74.42,7.89-1.63l2.55.62c9.82-2.71,17.87,1.26,29.9-.5l-.79.48c3.2-.38,6.93-.68,9.3-.23-.37.07-.2.22-1,.34,10,1.93,21.17-.2,31.74-.12l-1.2.9c5.11-1.06,14.48-.07,21.2-.56l-.41.43,3.4-.6.09.86C1336.87,187.75,1345.13,187,1353.63,186.91Z" transform="translate(-5.8 -0.01)"/><path class="cls-3" d="M1441.81,185.93h-.1C1441.45,186,1441.58,186,1441.81,185.93Z" transform="translate(-5.8 -0.01)"/><path class="cls-3" d="M570.55,190.34c-.4-.05-.73-.1-1.07-.17C569.56,190.34,570.21,190.31,570.55,190.34Z" transform="translate(-5.8 -0.01)"/><path class="cls-1" d="M1466.54.84l.24-.06c.82-.57,1.65-.09,2.47,0,1.73.23,3.47.41,5.19.71.87.16,1.93-.21,2.51,1,.21.45,1.16.27,1.6-.36-.15-.5.35-.26.49-.43,3.81-1.14,7.18.9,10.74,1.51a30.59,30.59,0,0,1,8,2.71c1.28.61,2.93.39,4.24,1.13,2.21,1.24,4.87,1.41,6.94,2.91s4.45,2.12,6.39,3.53,4.15,2.22,6.07,3.58c.33.24.76.36,1,.65,2.06,2.41,5,3.64,7.43,5.49.57.43,1.14.79,1,1.71-.08.59.38.83,1,.47l.63.3c.66.33.61.84.39,1.4l.12.26a.4.4,0,0,1,.19.15c.45.92.61,2,1.69,2.55.3.15.23.56.13.88l.14.26a2,2,0,0,1,.77,1.67c.14.67.87.37,1.2.72a1.9,1.9,0,0,1,.7,1.3.11.11,0,0,0,0,.13,3.48,3.48,0,0,1,1.66,3.6c.07.94.92,1.44,1.25,2.21.47,1.12.79,2.31,1.18,3.47.23.67.48,1.33.72,2,.14.47.6.89.25,1.44-.07.76.24,1.53-.28,2.27-.22.31,0,.75.25,1.09a1,1,0,0,1-.11,1.4c-.3.59.26.59.54.78s.46.13.3.46a.81.81,0,0,0,0,.22,5.4,5.4,0,0,1,.06,1.39,8.06,8.06,0,0,1-1,3.59c-.24.42-.62.65-.85,1l-.22.48c.09,1.09-.74,1.43-1.48,1.84l-.2.3c-.06.53-.51.89-.56,1.46s-.47.55-.91.41a2.11,2.11,0,0,0-.9.8c.12.54-.3.82-.63,1a2.82,2.82,0,0,0-.87,1,23.48,23.48,0,0,1-8,3.67c1.52-.34,3-.85,4.52-1.16a19.89,19.89,0,0,1,4.75-.24,4.66,4.66,0,0,0,1.53-.19c1,.51,1.85,1.42,3.14,1,.1,0,.23.19.34.3l.46.25h0l.29.4h0l.64,1c.28.44,1,.71.52,1.43v1c.85,1.81.46,3.65.13,5.48a1.1,1.1,0,0,1-.68.85c-1.73,1.37-3.8,1.54-5.88,1.55a.87.87,0,0,0-.81.38c-.14.32-.58.3-.71.63a.47.47,0,0,1-.13.45c-.85.63-1.88.1-2.79.42-.47.17-1,.09-1.41.55s-.9.07-1.35.14c-3.66-.26-7.28.33-10.91.66-.47.05-1,.14-1.32-.3a.71.71,0,0,1-.13-.31c.58-1.86.6-1.89,2.43-2a.57.57,0,0,0,.52-.18c.13-.18,0-.23,0-.34-.07-.68,0-1.25.85-1.38,2.79-.41,5.61-.46,8.41-.7a1,1,0,0,1,.46.1l.24.27A2.32,2.32,0,0,0,1534,81a2.53,2.53,0,0,1,1.78-.51,17.73,17.73,0,0,0,1.78-.12,2,2,0,0,0,1.34-.39c.56-.34,1.46-.4,1.09-1.47,0-.12.28-.35.42-.53a3.86,3.86,0,0,0,.6-3.53c-.24-.94-.94-1.22-1.73-.61a2.93,2.93,0,0,1-2.23.61c-.93-.1-1.72.54-2.69.43-1.39-.15-1.55-.25-1.28-1.61,0-.26.16-.55-.22-.67l-.64-.14c-1,.13-.86.83-.7,1.5.3,1.31,0,1.66-1.34,1.28a5.2,5.2,0,0,0-2.71-.12,7.68,7.68,0,0,1-2.48-.22.45.45,0,0,1-.44-.35c-.27-1.46-1.17-.42-1.8-.46-.39,0-.32.24-.21.44.46.89-.14,1.21-.8,1.31a5.14,5.14,0,0,1-3.41-.84c-.47-.27-.35-.7,0-1a4.91,4.91,0,0,1,1-.62c.13-.08-.15-.12,0,0s0,.08-.07.1c-.69.19-1.07.81-1.62,1.18s-.81.36-1.13,0c-.72-.91-1.55-.7-2.35-.24a6.33,6.33,0,0,1-3.76,1c-1.08-.09-2.07.53-3.16.44a2.42,2.42,0,0,0-.76,0c-.36,0-.62.3-1,.26a19.19,19.19,0,0,0-6.41.36c-2.54.55-5.08.05-7.62,0a5,5,0,0,0-2.22.3,1.9,1.9,0,0,1-.57.18c-4.1.51-8.2,1.14-12.35.66-2.22-.17-4.42-.52-6.67-.52-2.87,0-5.75-.09-8.62-.14a4.2,4.2,0,0,0-1.49.21c-2.14,0-4.28.28-6.43.12-1-.08-1.93-.39-2.91-.52a2.53,2.53,0,0,0-.51-.28,5,5,0,0,0-3.4.31,3.88,3.88,0,0,1-2.33.27,22.11,22.11,0,0,0-6.08-.18c-.56-.12-.52-.55-.42-.94s.47-.36.79-.37a2.16,2.16,0,0,0,1.6-.31,9.78,9.78,0,0,0-1.53-.26c-.16,0-.35-.11-.47,0-1.43.92-3.1.84-4.66,1.22l-.3.17a2.17,2.17,0,0,1-2.47-.17,1.46,1.46,0,0,1-.21-.28c-.41-1.19-1.22-.51-1.91-.41a6.79,6.79,0,0,1-1.09.31c-.55.14-1-.28-1.57-.23-.37.06-.57.47-1,.45a6.77,6.77,0,0,1-.89-.21,62.35,62.35,0,0,0-8.2.14,9,9,0,0,1-3.87,0,3,3,0,0,0-1.19,0,2.15,2.15,0,0,1-.62,0,2.42,2.42,0,0,0-2.61-.34,2.53,2.53,0,0,1-1.49.14.63.63,0,0,1-.51-.49c-.69-.59-.68-.58-1.36.05a.86.86,0,0,1-.61.25,10.76,10.76,0,0,1-3.15-.17c-.21,0-.43-.08-.64-.14a8.77,8.77,0,0,0-2.23.17,1.14,1.14,0,0,0-1.08,1.1c0,.69.49,1,1,1.09a7.4,7.4,0,0,0,1.87.26c.3,0,.56,0,.65.38a.91.91,0,0,0,.31.86c.28.66.92.38,1.39.52.77.25.89-.56,1.35-.81a8.76,8.76,0,0,1,6.07,2c.5.44,1.24,1,1.75-.1a.5.5,0,0,1,.48-.27,6.91,6.91,0,0,1,4.31.65,2.67,2.67,0,0,0,1.68.53c2.24-.33,4.32.5,6.47.8,5.25.72,10.51,1.36,15.8,1.83a12.83,12.83,0,0,1,2.29.59c2.56.7,5.07,1.75,7.81,1.46a1.82,1.82,0,0,1,.57,0,72.06,72.06,0,0,0,11.7,2.48,10.25,10.25,0,0,1,2.32.52c1.16.66,2.62.69,3.6,1.78.45.5,1,.93.76,1.66s-.94.76-1.59.85c-1.44.2-2.83-.4-4.27-.25a4.68,4.68,0,0,1-1.12,0c-.36,0-.42-.43-.65-.62-2.24-1.16-4.72-1.4-7.15-1.82-3.81-.66-7.68-1-11.45-2a2.93,2.93,0,0,0-1.5,0,2.21,2.21,0,0,1-2.21-.48c-.15-.11-.41-.27-.53-.22-2,.84-3.7-.35-5.52-.63-2.47-.38-4.92-.87-7.39-1.23-1.27-.19-2.79-.28-3.71-1.54a.48.48,0,0,0-.43-.13c-2.28.59-4.51-.06-6.75-.34-1.77-.22-3.52-.72-5.28-1.06a3,3,0,0,0-1.93.13,2.59,2.59,0,0,1-2.27-.36,4.76,4.76,0,0,0-2.26-.47,9.88,9.88,0,0,1-2.4-.51c-.61-.23-1.08-.61-1.71-.09-.27.22-.62.07-.93,0-.7-.13-1.4-.34-2.1-.46-2.65-.47-3-1.42-3.43-4.13-.06-.38.06-.83-.38-1.07a.27.27,0,0,1,.23-.29h0a11.63,11.63,0,0,1,1.11-3.39c-.14-.3,0-.44.29-.43,1-1,2.32-.4,3.48-.62a6.44,6.44,0,0,1,1.64.1c.67.26,1.38,0,2,.2l.41.06c.46.36.9.55,1.29-.08.43-.31.5-.95,1-1.13a1.94,1.94,0,0,0,.68,0c.33,0,.6-.22.93-.23a3.87,3.87,0,0,0,2.36.42.73.73,0,0,1,.71-.35,2.85,2.85,0,0,1,1.09.09c1.69.44,3.42-.14,5.1.12,3.06.47,6.1.11,9.15.14l.46-.12a7.6,7.6,0,0,0,2.93.06c1.14-.2,2.34.35,3.55.1.24,0,.58.35.77.67a9.29,9.29,0,0,0,3.36-.22,2,2,0,0,1,1.49-.52c1.72.37,3.38-.11,5.07-.21a7.11,7.11,0,0,1,2.72.1,6.78,6.78,0,0,0,3.71-.16,8.8,8.8,0,0,0,1.26-.26c1.35,0,2.68-.46,4.06-.23.34.56.89.15,1.33.27a11.14,11.14,0,0,0,2.19,1.46c.41.09.85,0,1.22.25.1.16.36.44.24.46-1.08.25-.87,2-2.2,1.89a.46.46,0,0,0-.5.42h0c-.22.63.29.69.66.72a3.43,3.43,0,0,0,1-.21c.7.11.4-.72.81-.89a2.55,2.55,0,0,1,1.88.11c.39.44.91.27,1.39.28a6.41,6.41,0,0,0,2.79.12,1.12,1.12,0,0,0,.9-.33c.1,0,.2-.09.3-.15l-.21.12c-.2.08-.33.26-.53.32a.86.86,0,0,1-.32,0,8.51,8.51,0,0,1-3.1-.12c-.25,0-.5.06-.75,0a2.07,2.07,0,0,0-1.55-.57,3.76,3.76,0,0,1-1-.13c-.34-.12-.67-.31-.65-.73s.32-.44.6-.57a10.39,10.39,0,0,0,1.5-.73,1.46,1.46,0,0,0,1-.53c1.28.46,2.61.09,3.92.24.26.16.53,0,.8,0a2.58,2.58,0,0,1,1,.09l2.45-.33a3.42,3.42,0,0,0,1.85,0h0a1.22,1.22,0,0,1,.45-.36,5.45,5.45,0,0,1,1.92-.27h.79a5.56,5.56,0,0,1,1,0c.56.2,1,.76,1.67.63.76.14,1.56.4,1.9-.67.39-.83,1.11-.89,1.88-.75a6.13,6.13,0,0,0,1.19.24,11.36,11.36,0,0,0,1.43,0c.44.21,1.17-.65,1.38.38a17.15,17.15,0,0,0-3,2.71,21.16,21.16,0,0,1,3.07-2.76c.07-.15.17-.31.34-.27,1.28.33,2.6,0,3.9.26a21,21,0,0,0,3.88-.06,2.41,2.41,0,0,1,2,0,6,6,0,0,0,3.42.29,25.12,25.12,0,0,1,5.2-.24,4.3,4.3,0,0,1,1.29.14c.57.69,1.15,0,1.73,0a2.46,2.46,0,0,1,2.3,0,2.53,2.53,0,0,0,.67.1,40.78,40.78,0,0,0,5.73-.71,4.63,4.63,0,0,0,1.66,0c1.38.33,2.64-.32,4-.47h.68c.73,1.19.88,1.22,2.07.26.43-.34.84-.71,1.24-1.08a1.11,1.11,0,0,1,.3-.17,1.56,1.56,0,0,1,1.15-.38c1.84,0,3.17-1.3,4.83-1.78.75-.72,1.93-.08,2.67-.82a1.28,1.28,0,0,0,1-.26,2.39,2.39,0,0,1,1.42-2.09c.65-.41,1.55-.75,1.47-1.88,0-.44,1.3-1.13,1.66-.87.84.61,1-.09,1.12-.58a5.6,5.6,0,0,0,.24-1.15,4.2,4.2,0,0,0,0-2.28,31.87,31.87,0,0,1,.76-5.32c.45-1.85-.15-3.61-.7-5.31a12,12,0,0,0-.48-1.88l-.21-.12a1.28,1.28,0,0,0,0-1.38,3.47,3.47,0,0,1-.65-1.32,2.76,2.76,0,0,0-1.65-2.81,2.11,2.11,0,0,1-.89-1c-.77-1.42-1.62-2.78-2.38-4.2l-.26-.44c-.14-.14-.33-.16-.49-.25a.67.67,0,0,0-.28-.06.83.83,0,0,1-.58,0c-.14-.22-.35-.42-.23-.72v-.32c.06-.87-.66-1.08-1.21-1.41-.24-.13-.58-.09-.7-.42a2.23,2.23,0,0,0-.31-.64c-1-1-1.39-2.47-2.78-3.08l-.29-.17a.62.62,0,0,1-.41-.24,4.68,4.68,0,0,0-.43-.46,2,2,0,0,0-.49-.37c-.17-.22-.55-.07-.67-.36a1.9,1.9,0,0,0-.21-.43,1.69,1.69,0,0,0-.24-.41.65.65,0,0,0-.2,0c-.27-.26-.69-.35-.83-.76l-.08-.13a6,6,0,0,0-.8-1l-.44-.25c-.47-.42-1.26-.47-1.46-1.22a1.72,1.72,0,0,0-1.18-.7,9.25,9.25,0,0,1-2.92-1.86h-.72a1.32,1.32,0,0,1-1-.27c-.27-.59-.86-.45-1.3-.48a1.8,1.8,0,0,1-1-.3c-.24-.14-.4-.4-.69-.46s-.75-.61-1.28-.54c-.19,0-.27-.19-.36-.33a4.75,4.75,0,0,0-.64-1.17c-.91-.38-2-.19-2.84-.76-.21-.13-.54-.26-.6-.41-.35-.89-.8-1-1.58-.45-.47.37-.78,0-1.06-.4a1.85,1.85,0,0,0-1.45-.78c-1-.07-2.08-.21-2.59-1.33l-.49-.22a3.49,3.49,0,0,1-1.6-.2c-.91-.17-1.79-.46-2.71-.6a2,2,0,0,1-1.2-.61,11.26,11.26,0,0,1-2.15-.31c-.25,0-.45-.24-.72-.22a8.18,8.18,0,0,0-1.37-.3c-1,0-1.7-.77-2.62-1-.36-.48-.87-.41-1.38-.36a11.14,11.14,0,0,0-2-.12c-.32,0-.63.11-1,.09a1.81,1.81,0,0,0-.68-.22s-.09,0-.09-.07c0-.51-.07-.53-.56-.29h-.48a21,21,0,0,1-6-.73c-.51-.18-1,0-1.57-.17-1.17.81-2.55.59-3.85.76-.38.08-.73.37-1.14.15-1.08-.25-2.3-.14-3-1.22a1.66,1.66,0,0,0-.11-.38.46.46,0,0,1,.22-.6h0c1.06-.41,1.29-1.85,2.54-2A1.14,1.14,0,0,1,1466.54.84Z" transform="translate(-5.8 -0.01)"/><path class="cls-1" d="M1392.67,130.8l.4-.5c-.12-.34.12-.38.36-.44.52-.16.78-.63,1.16-1,.6-.32.64-1.43,1.64-1.2l.73-.49a4.69,4.69,0,0,0-.24-.75c-.21-.27-.52-.47-.44-.91a.54.54,0,0,0-.52-.65c-1.29.37-1.17-.65-1.39-1.33-.36-1.17-.3-2.43-1.09-3.54-.57-.8-.16-1.93,0-2.91-.1-.32-.09-.7-.42-.93v-1a1.86,1.86,0,0,1,0-1.19l.24-3.37c.06-.65-.61-1.22-.22-1.91a12.23,12.23,0,0,1,1.22-2.89c.42-1.12.52-2.47,2-2.84.89-.16,1.4-1.07,2.31-1.19h.3a1.06,1.06,0,0,1,.68,1.34v0a44.42,44.42,0,0,0-3.3,4.73c-.72,1.36-1.6,2.8-.53,4.6.55.93-.08,2.29.22,3.46a17.05,17.05,0,0,1,.22,2.14c0,.34-.18.9.53.81.06,0,.18.08.17.09-.59,1.91,1.65,2.09,2.09,3.4.25.74,1.29.88,1.82,1.47l.3-.09c.51-.15.93-.08,1.14.48a35.67,35.67,0,0,0,12.92,1.26.92.92,0,0,1,.22,1.28l-.09.11a2.71,2.71,0,0,1-1,1.12c-.19.63-.75,1-1,1.61-.06.1-.14.25-.24.25-2.7,0-5.39.44-8.09-.19a8.43,8.43,0,0,0-5.07,0,12.83,12.83,0,0,0-2.24,1.56c-1.73,1.06-2.66,2.31-1.61,4.37.16.31,0,.7,0,1.06s0,1,.36,1.23c.76.48,1.34,1.32,2.1,1.62,1.06.42,1.9,1.15,2.88,1.65.47.24.91.58,1.5.37a2.92,2.92,0,0,0,2.21-.42c.68.23,1.77-.23,1.86,1h0a2.14,2.14,0,0,1,1.82-.67,27,27,0,0,1,3.92.14,1.74,1.74,0,0,0,1.06,0,13.63,13.63,0,0,1,3.94-.77,3.41,3.41,0,0,1,2.25.91,5,5,0,0,0,3.38,1.54c.66-.26,1.38-.41,1.72-1.16l.8-.77c.22-.2.34-.52.66-.6a.52.52,0,0,1,.55-.06,1.19,1.19,0,0,0,.74.28c3.1-.14,6.21.52,9.31-.11a12.44,12.44,0,0,1,5.32.44,5.4,5.4,0,0,0,2.82-.11,3.59,3.59,0,0,1,2.8.16l.32.08a8.51,8.51,0,0,0,2.14,0,5.1,5.1,0,0,1,1.94.23,6.51,6.51,0,0,0,3.58-.16,8,8,0,0,1,3.11-.43,8.37,8.37,0,0,1,1-.05,4.91,4.91,0,0,1,2.23.7c1.17.64,1.16.64,1.79-.52a.83.83,0,0,1,.41-.07,33.52,33.52,0,0,0,4.91.11,51.55,51.55,0,0,1,6.57.45,76.23,76.23,0,0,0,8,.09,15.22,15.22,0,0,1,1.91,0,4,4,0,0,0,1.42.11c3-.55,6-.08,8.94-.33.82-.07.86.55,1.18,1s.21.95.74,1.34c1,.76,1,1-.22,1.59a2.77,2.77,0,0,1-1.45.19c-1.89.13-3.78-.15-5.67,0a27.48,27.48,0,0,1-2.87,0c-.34-.09-.52-.53-.93-.44-1.16.25-2.34,0-3.51.16a1.22,1.22,0,0,1-1,.15c-.31,0-.47.22-.7.33-1-.05-1.91-.92-3-.24a.49.49,0,0,1,0,.17,2.12,2.12,0,0,1-1.84,0h-.48c-.09.09-.17.09-.25,0l-.71-.45c-.25.17-.49.37-.73,0a2.7,2.7,0,0,0-1.49.38,3.32,3.32,0,0,0-1.92.17,1.28,1.28,0,0,1-1.38-.37l-.25-.09v.3a1.2,1.2,0,0,1-1.42.08,4.38,4.38,0,0,1-2.77-.18,5.75,5.75,0,0,0-1.55,0l-.08.08c-.28.38.57.76.08,1s-1-.11-1.42-.5a3.18,3.18,0,0,0-2.11-.09,3.74,3.74,0,0,1-1.76,0c-.62.36-1.13.77-1.74-.2-.42-.67-2-.17-2.67.7-.61.29-1.18.76-1.93.44-.35-.11-.71-.26-1.07-.34-.89-.19-.92-.59-.34-1.2.08-.11.14.15,0,0a0,0,0,0,0-.07,0,1.34,1.34,0,0,1-1.73.67,2.59,2.59,0,0,0-1.65,0,1.84,1.84,0,0,1-.66.12,1.46,1.46,0,0,1-.41-.29c-1.43-.26-2.87.49-4.3-.06a4,4,0,0,0-.73-.4c-1.2.09-2.38.5-3.59.11-.48-.15-.87-.26-1.27.35-.27.42-1,.27-1.55,0,0-.34-.11-.52-.46-.27-.24.43-.79.12-1.07.46-.08.1-.15.1-.22,0a.89.89,0,0,0,0-.23c-.07-.23.12-.53-.2-.69l-.26.13c-.17.23-.36.45-.7.37h-.24c-.36.07-.71.14-1-.23a22.13,22.13,0,0,1-7.08-.05,5.65,5.65,0,0,0-1.3,0,.54.54,0,0,1-.72.23l-.25.06a1,1,0,0,0-.55,0c-.7.17-1.39-.14-2.08-.06s-1.38.72-2.14.17l-.27-.19c-.42-.25-.93-.11-1.38-.3-.85-.67-1.53,0-2.26.28h0c-2.1.89-4.15.24-6.22-.19a.89.89,0,0,0-.79.12c-.26.12-.32.35-.6.28s-.84.19-1.22-.13a5.48,5.48,0,0,0-2.91.67c-1.45,1-1.47,1-1.18,2.42,0,.4-.1.85.24,1.19a11.8,11.8,0,0,1,.51,2.19,3.58,3.58,0,0,1-.49,2.85c-.06.27-.14.6.09.78s.33-.1.41-.28c.75-.21.78.41.64.75a4.32,4.32,0,0,0-.16,2.75.94.94,0,0,1-.47,1.08c-.58.22-1.51,0-1.3,1.15a1.4,1.4,0,0,0,.09.29c.43.75,1.24.92,1.94,1.26s1.78.14,2.59.56a10.14,10.14,0,0,0,2.4.06c.15-.15.31-.23.48,0,.57,0,1.09.36,1.68.24a6.61,6.61,0,0,1,1.29-.8,2.13,2.13,0,0,1,2.33.18l.7-.29c.22-.36.46-.38.72-.05h1.89c.29-.16.55,0,.82.05.69.58,1.63-.12,2.33.45.48,0,.91-.34,1.41-.2.27.28.68.29,1,.49h.24c.08-.08.19-.17.19-.28,0-.41-.13-1,.46-1s1.17,0,1.26.79h3.84a.7.7,0,0,1,.77-.25,2.52,2.52,0,0,0,1.81-.17c.06,0,.19-.14.27-.11,1.25.54,2.46,0,3.69-.1.66,0,1.41.37,1.83.32,1.74-.22,3.38.71,5.09.27a1.7,1.7,0,0,1,1,0,5.13,5.13,0,0,0,1.81.7c.91-.56,2,.11,2.89-.4.15-.2.3-.21.46,0,.4.87.92,1.15,1.77.47.66-.52,1.39,0,2.09,0,.29-.46.63-.83,1.26-.67a.49.49,0,0,0,.66,0l1.16.05a.79.79,0,0,1,.75.15c.43.31.71.08,1-.26.83-.42,1.56-.65,2.33.26a1.09,1.09,0,0,0,1.54.1,1.54,1.54,0,0,0,.17-.19l.36-.18a1.9,1.9,0,0,1,1.35.3c.31.1.53.62,1,.22.26-.15.47-.49.84-.22.38.59,1,.24,1.5.38a19.13,19.13,0,0,1,2.56.73.49.49,0,0,0,.24,0c-.13.09,0-.14,0,0s-.18,0-.19-.08c-.09-.48-.08-.48.88-.58,1.92.08,3.88-.34,5.75.44h1.2c.4,0,.46.2.69.33,0,0-.06,0-.13-.09-.42-.29-.18-.5.07-.71a7.08,7.08,0,0,0,4.1-.17c1-.41,1.88-.58,2.65.45.33.45.93.09,1.4.13s.83-.27,1.28-.18a3.3,3.3,0,0,1,2.65,0c.64.38,1.27-.4,1.91,0,1.07.07,2.16.07,3.21.24s2-.43,3-.49c2.67-.17,5.34-.13,8-.17a2.79,2.79,0,0,0,1.63-.24c.07-.53.47-.57.87-.6a5.06,5.06,0,0,1,2.11.27,2.58,2.58,0,0,0,2,.15c.55-.22.86.32,1.21.63a16.12,16.12,0,0,0,5,0c.12.2.22.14.3,0,1.26-.41,2.51,0,3.76,0a69.21,69.21,0,0,0,8.76.19,15.55,15.55,0,0,1,2.36.2,3.62,3.62,0,0,1,1.46-.16h.69a4.68,4.68,0,0,1,1,.44l.49.15c.15-.11.28-.25.49-.23a1.19,1.19,0,0,1,.7.77v.21a2.83,2.83,0,0,1-3.12,1.26h-2.4c-.32.14-.74,0-1,.37-1.68.34-3.32-.35-5-.15a.6.6,0,0,1-.83.17.55.55,0,0,1-.17-.17,31,31,0,0,0-6.67,0c-.67.06-1.32-.23-2,0a1.65,1.65,0,0,1-1.69,0c-1.34-.08-2.68-.15-4-.25a2.39,2.39,0,0,0-1.26.23,2.87,2.87,0,0,1-1,.28c-.61.19-1.11-.25-1.69-.28-.36-.1-.58.35-1,.26h-2.41a4.58,4.58,0,0,1-2.38-.09,2.36,2.36,0,0,0-.46-.1c-2.27,0-4.54-.05-6.8,0a3.72,3.72,0,0,0-.92.21,4.08,4.08,0,0,1-1.86-.28l-1.75-.42c-.45-.29-.81,0-1.21.16a5.4,5.4,0,0,0-2.62.06c-1.81.75-3.66.31-5.5.19a6,6,0,0,0-2.46,0,.26.26,0,0,1-.3.08c-3.32,1.22-6.76.5-10.15.69a28.44,28.44,0,0,0-4.88.22.73.73,0,0,1-.78.14,16.18,16.18,0,0,1-4-1l-2.17,0c-.09.1-.17.11-.25,0h-1.2a4.31,4.31,0,0,1-2.88,0,3.88,3.88,0,0,0-1.6-.42c-.7-.09-1.59.25-1.9-.8h-.34a2,2,0,0,1-1,.29c0,.51-.29.61-.78.85-1.74.86-3.46.53-5.22.43a35.74,35.74,0,0,0-5.76-.07,1.48,1.48,0,0,1-1.2,0,12.22,12.22,0,0,0-3.36-.26c-.8-.18-1.59.35-2.39,0a35.11,35.11,0,0,0-6.72.21c-.08.11-.14.1-.19,0a5.78,5.78,0,0,0-2.68,0c-.5.24-.66-.27-1-.43l-4.56.27c-.17.15-.31.1-.42-.08-.33-.43-.66-.4-1,0h0a8.51,8.51,0,0,0-3.37.25,9.6,9.6,0,0,1-4.59-.63c-.3.23-.67,0-1,.16l-2.37-.7c-.4.31-.74.15-1.09-.12a2.88,2.88,0,0,0-1.15-.8c-.53-.14-.48-.9-.64-1.41a2.51,2.51,0,0,1,.78-3c-.32-.41-.78-.78-.49-1.41.09-1.07.85-1.89,1.13-2.89l.22-1.69a4,4,0,0,1,.28-1.67c-.76-.39-.41-1.1-.49-1.68a7.81,7.81,0,0,1,.27-4.31l.18-.72a5,5,0,0,0-1.4-2.54c-.45-.34-.42-1.07-.71-1.58-.12-.29-.31,0-.47-.07-.58-.55-1.62-.59-1.79-1.62a.79.79,0,0,1,0-.43c-.31-1.28-1.24-2.41-.92-3.84-.62-1.18.16-2.24.29-3.35a3.23,3.23,0,0,0,.1-1.92C1392.5,130.91,1392.54,130.83,1392.67,130.8Z" transform="translate(-5.8 -0.01)"/><path class="cls-1" d="M1499.18,126.74a2.45,2.45,0,0,1,2.48-.51,7.49,7.49,0,0,0,1.77,0,2.28,2.28,0,0,0,2.21-.76c.12-.23.32-.21.53-.19a3.35,3.35,0,0,0,3.54.15,2.13,2.13,0,0,1,1.52-.25,1.78,1.78,0,0,1,.77.94c.15.62-.51.77-.72,1.18s-.71.69-.38,1.3,0,.88-.51,1.07c-1.41-.35-2.64.39-4,.61a72.55,72.55,0,0,0-9.09,0,6.64,6.64,0,0,1-1.78-.16,23.83,23.83,0,0,0-6.9-.25c-2.66.23-5.34.06-8,.06a7.12,7.12,0,0,0-2.47.32,5.14,5.14,0,0,1-2.83.05,4.9,4.9,0,0,0-2.93.21,1.21,1.21,0,0,1-.38,0,4.86,4.86,0,0,0-1.86-.15,4.33,4.33,0,0,1-.72,0c-5.8.13-11.57-.34-17.36-.56a3.62,3.62,0,0,0-1.31.1c-2.24.73-4.58.52-6.87.72-.93.08-1.83-.22-2.75-.22h-2.24a.64.64,0,0,1-.7-.4,5.39,5.39,0,0,0-.7-2.35,1.24,1.24,0,0,1,.21-1.74,1.28,1.28,0,0,1,.25-.15,7.71,7.71,0,0,1,2.25,0c.62.22.67-.41,1-.67s.37-.35.56.2c.1.29.29.22.45.21,2.34-.23,4.7.34,7-.2,1.6-.38,3.18.15,4.76.31a16.71,16.71,0,0,0,3.46-.26c3.4-.4,6.75-1.12,10.28-.6a50.79,50.79,0,0,0,6.86.47c2.48,0,5,0,7.47,0,2.15.08,4.27-.52,6.45-.22,1.06.14,1.79,1.14,2.94.9a4.66,4.66,0,0,1,1.18,0c.22-.11.54-.17.64,0,.35.65.88.43,1.39.37a10.87,10.87,0,0,0,2.28-.11c.37-.2.7-.29,1,.1A1.41,1.41,0,0,0,1499.18,126.74Z" transform="translate(-5.8 -0.01)"/><path class="cls-1" d="M1535.89,83.76v-.48c.27-.7.75-.42,1.1-.17a3,3,0,0,0,1.36.66c.73.1.5.94,1,1.3-.48-.75-.39-1,.62-1.43.3.12.57.28.86.41a5.22,5.22,0,0,1,3.24,5.46c-.09,1.42-.24,2.83-.2,4.27a5.41,5.41,0,0,1-1.32,3.5,1.28,1.28,0,0,1-1.57.43l-1.44.67-.17.23c-.18.16-.45.12-.64.25h-.14l-1.27.67c0,.13-.08.15-.17.07l-1.47.84a3.82,3.82,0,0,1-3.41.9,7,7,0,0,0-3,.39h-.7c-.36-.16-.73.13-1.09,0a10.29,10.29,0,0,0-1.57-.14c-.46-.77-1-.11-1.44,0-2.09.84-4.16.18-6.23-.06a5,5,0,0,0-1.93-.16,5.53,5.53,0,0,1-4.35-.09,2.51,2.51,0,0,0-2.45.32c-.41.27-.81.63-1.37.41l-1.91-.18c-.22.09-.45.23-.61-.08l-4.19-.15c-.34.16-.67.29-.94-.11l-.49-.12c-.66.52-1-.13-1.48-.37l-.69.3c0,.17-.13.19-.23,0l-.78.18c-.94.46-1.88.1-2.82,0a5.74,5.74,0,0,0-2.64,0c-.33.18-.59.18-.69-.26-.75-.53-1.47-.09-2.2,0a4,4,0,0,1-3.15.37,1,1,0,0,0-.76,0,1.17,1.17,0,0,1-.88-.25,8.44,8.44,0,0,0-2.47-2.81A.46.46,0,0,1,1481,98a.5.5,0,0,1,.15-.17,4.4,4.4,0,0,1,2.41-.55c2.28.12,4.43-.86,6.7-.85.28,0,.55,0,.65.34.25.69.53.7,1.26.41a5.76,5.76,0,0,1,3.49-.53,13.64,13.64,0,0,0,5.25,0,7.91,7.91,0,0,1,3.77.31c.38.13.82.35,1.16.18,1.78-.88,3.55,0,5.31,0a18,18,0,0,0,3.74-.2,1.89,1.89,0,0,0,.8.23,1.7,1.7,0,0,0,1.08-.37,2,2,0,0,1,1.79.67c.24.23.41.53.8.29a2.34,2.34,0,0,1,.86-.7,1.68,1.68,0,0,1,1.46.23,2,2,0,0,0,1.75.26c.34,0,.42.27.58.47s.5.48.85.14a5.35,5.35,0,0,1,.87-.63c1.43-.1,2.88-.36,4.13.64a1.29,1.29,0,0,1,.17.16h0a.35.35,0,0,1-.1-.14c0-.76.41-1,1.08-.88,1.2.24,2.37-.27,3.57-.1a.63.63,0,0,0,.56-.15c.88-1,2.15-1.31,3.25-1.92a2.06,2.06,0,0,0,1-2,25.29,25.29,0,0,0-.33-3.68c-.25-1.61-1.64-2.46-2.76-3.46-.28-.25-.78-.3-.75-.83A2,2,0,0,1,1535.89,83.76Z" transform="translate(-5.8 -0.01)"/><path class="cls-1" d="M1399.35,103.2l-1-1.19a.68.68,0,0,0,.29-.83,1,1,0,0,0-1.33-.47.51.51,0,0,0-.16.09c-1.12-.3-1.71-1.34-2.65-1.89-.1-.18-.24-.37,0-.54h.69c.12-.12.2-.34.44-.19l.25.24c.19.79,1.1.61,1.49,1.12.58,0,1.26.51,1.57-.53.11-.39.62-.11.94,0a5.17,5.17,0,0,0,2.59.1c2-.09,3.82-1,5.87-.55a21.72,21.72,0,0,0,4.56,0c2,0,4,.44,6.06-.17.46-.13,1.06.32,1.59.32s1.36.63,1.38-.58c0-.06.22-.17.27-.15,1.1.64,2.29-.13,3.41.23h.22a1.83,1.83,0,0,0,2.27.28c.19-.12.5-.25.4-.51s-.43,0-.65-.11-.13-.19,0-.29c1-.89,1.57.23,2.35.44,0,.52-.69.46-.68.93a.69.69,0,0,0,.68,0c.69-.34,1.31-.89,2.11-.06.25.26.88,0,1.31-.28a2.84,2.84,0,0,1,2.61-.45c1.15.32,2.35,0,3.51.32.31.09.18-.54.57-.46a.85.85,0,0,1,1.07.22c.77-.48,1.54-.06,2.32,0a24.71,24.71,0,0,0,4.63-.09,17.38,17.38,0,0,1,5.29.09,3.13,3.13,0,0,0,1.72-.38c.22.41.56.23.87.2a6.1,6.1,0,0,0,1,.56c.54.15,1.2.28.53,1.07-.13.14.12.31.2.46.47,1,.29,1.27-.84,1.51a21.82,21.82,0,0,1-4.57,0c-.32-.18-.63-.42-1-.19h-.91c-.5,0-.75.2-.7.71-1.38.89-2.69.35-4-.23a.32.32,0,0,1-.24-.21c-.31-1-.43-1-1.37-.37a3.64,3.64,0,0,1-.62.32c-.88-.19-1.86.17-2.66-.45-1.08,0-2,.61-3.13.62s-2.47-.3-3.69-.41c-.74-.07-.49.55-.85.52-.17,0-.2-.18-.33-.24l-5.58.17a2.71,2.71,0,0,1-1.06-.06c-2.23-.81-4.3-.07-6.42.52a6.21,6.21,0,0,1-2.84.21c-1.4-.3-2.85-.18-4.2-.69a1.39,1.39,0,0,0-.7-.1,39.8,39.8,0,0,1-6.08.1,1.16,1.16,0,0,0-.68.15c-1.48,1.22-3.38.92-5,1.43-.72.23-.37-.33-.43-.59a.28.28,0,0,0,.13-.24h-.06v.08h.07Z" transform="translate(-5.8 -0.01)"/><path class="cls-1" d="M1447.39,115.5c-.76.44-1.29,1.48-2.49.78-.33-.19-.39.46-.4.76,0,.68-.2,1.08-1,.76-.32-.17-.65-.37-.92.09-.12.15-.28.44-.37.42-1.31-.3-2.45.72-3.74.47-.35-.16-.74,0-1.09-.18a1,1,0,0,1-.36-.3c0-1-1.27-.61-1.46-1.38-.15-.12-.32-.21-.34-.4h0c.08.34-.16.46-.38.59s-.7.27-.74,0c-.21-1.53-1.71-1.23-2.54-1.85-.42-.32-.53-.57-.32-1-.2-.4-.65,0-.89-.29-.72-.62-1.6-.38-2.41-.48-.25-.34-.65-.34-1-.45a.72.72,0,0,1-.75,0,.4.4,0,0,0-.54,0c-.21.08-.33.42-.63.22l-.37-.22a14.44,14.44,0,0,0-2.23,2.87c-.38.8-1,.26-1.43.71-.89,1-2.24,1-3.43,1.32a1,1,0,0,1-1.14-.37,2.21,2.21,0,0,1-.48-1.91,1.27,1.27,0,0,1,1.2-.62,2.77,2.77,0,0,0,2.47-1.41,4.16,4.16,0,0,1,2.24-1.62c1.23-.3,2-1.22,3.21-1.62a6.38,6.38,0,0,1,4.41-.29,2.19,2.19,0,0,1,1.19.73c.12.16.33.5.57.27,1.38-1.37,1.83.37,2.58.83,1.38.84,2.41,2.21,4.09,2.59.15,0,.28.15.43,0,.87-.53,1,0,1.16.72s.64.64,1.17.5c.82-.22,1.91.08,2.15-1.19a.35.35,0,0,1,.23-.2c1.85.18,3-1.26,4.48-1.94,0-.49.64-.6.74-1l-.13-.16.38-.13a2.18,2.18,0,0,1,1.81,1.52,1.1,1.1,0,0,1-.09.62c-.09.27-.72,0-.52.58v.48l.16.11-.18.05-1.13.08a2.22,2.22,0,0,0-.33.28,1,1,0,0,0-.49.29A1.1,1.1,0,0,0,1447.39,115.5Z" transform="translate(-5.8 -0.01)"/><path class="cls-1" d="M1509.49,145.9h-1.67c-.14.16-.27.22-.4,0a8.81,8.81,0,0,0-2.51-.17c-.81-.39-1.68.07-2.5-.15-.2-1,.56-1.52,1.14-2.13a7.8,7.8,0,0,0,1.31-1.06c.13-.23.28-.44.6-.4,1.51-.06,3,.53,4.52.12l.48-.21c.46-.4,1-.11,1.43-.08h.72c.41-.65,1.09,0,1.56-.31a.74.74,0,0,1,.76,0c1.51,1.07,3.29.4,4.9.75.61.14,1-.62,1.64-.51l.38-.07c1.2,0,2.47-.37,3.46.69l.71.17a.89.89,0,0,1,.56-.24,2.71,2.71,0,0,1,1.59.15,7.4,7.4,0,0,0,4.65-.19,1.87,1.87,0,0,1,.66-.11,1.25,1.25,0,0,1,1-.13l.27-.11c.11-.24.27-.22.46-.11A9.81,9.81,0,0,0,1538,141a3.38,3.38,0,0,1,3.18.58c0,.4,0,.82-.39,1-1.76.68-3.07,2.33-5.12,2.41-1.62.74-3.35.41-5,.49a6.73,6.73,0,0,1-3.85-.05h-.48a.28.28,0,0,1-.38.1.32.32,0,0,1-.1-.1h-1c-.54.2-1.14,0-1.67.38-.33.21-.54-.13-.73-.36h-5.35c-.63,0-1.27.38-1.88-.06a2.08,2.08,0,0,0-1.71.07c-.09.11-.17.1-.25,0l-1.2.49c-.76-.14-1.52-.53-2.24.11C1509.8,146.14,1509.59,146,1509.49,145.9Z" transform="translate(-5.8 -0.01)"/><path class="cls-1" d="M1457.19,101.75c.72-1.18.47-1.68-1-2,.16-.36.6-.28.87-.48l-1.06-.6a.66.66,0,0,1,.11-.49,2.26,2.26,0,0,1,.57-.4,1.82,1.82,0,0,1,.65-.2c.34,0,.67-.08,1-.14a41,41,0,0,1,12.26-.3,5,5,0,0,0,1.76-.14,6.28,6.28,0,0,1,4.19.14,3.35,3.35,0,0,0,1.48.41h.33a6.89,6.89,0,0,0,2-.49.42.42,0,0,1,.33.08c.22.25.69.33.54.82-.22.28-.13.49.14.69.56.44,1,1,1.56,1.47a1,1,0,0,1,.46,1.34l0,.07a16.85,16.85,0,0,0-5.74.64.76.76,0,0,1-1-.29c-.1-.17-.24-.45-.39-.24-.8,1.18-1.17,0-1.61-.32a7.32,7.32,0,0,0-4-.54,8,8,0,0,1-2.58,0c-.55,0-1.09-.27-1.5.34-.18.27-.52.2-.78.14a3.22,3.22,0,0,0-2.3.29,2.41,2.41,0,0,1-2.06-.19c-.72-.31-1.46-.18-2.12-.48a.63.63,0,0,0-.08-.23l-.11-.05H1459c-.67.29-.36,1.09-.8,1.5S1457.48,102,1457.19,101.75Z" transform="translate(-5.8 -0.01)"/><path class="cls-1" d="M1473.27,116.71c-1,.05-1.61,1-2.71,1.09-2,.17-2,.32-2.62-1.64-.09-.38-.27-.79.31-1a4.74,4.74,0,0,0,3.89-1.9,7.77,7.77,0,0,1,2.5-1.61,8,8,0,0,0,2.86-1.71c.35-.44.72.25,1-.09s.68,0,1-.24a5.06,5.06,0,0,1,3.34,1.24c.13.14.3.36.49.2,1.52-1.28,1.89.53,2.74,1,1.42.79,2.46,2.2,4.15,2.55a2.58,2.58,0,0,0,.57-.13c.32.14.47.33.12.6h.06c.43.41.18,1.11.75,1.53.27.19.11,1.1-.31,1-.75-.1-.6.74-1.09.79l-.49-.25a.73.73,0,0,1-.73,0c-.24-.94-1.07-1-1.79-1.07a1.8,1.8,0,0,0-1,.11c-.41-.05-.64-.39-.94-.62a1.14,1.14,0,0,1-.34-.54c-.39-.35-.71-.8-1.28-.9s-.59-.47-.44-.92c-.18-.46-.69,0-.92-.34-.46-.25-.9-1.07-1.39,0a3.63,3.63,0,0,1-1-.64c-.32-.08-.54-.5-1-.29a.63.63,0,0,1-.72,0c-.34-.21-.46.19-.69.24a2.36,2.36,0,0,0-2.22,1.49,14.48,14.48,0,0,1-1.38,1.84C1473.73,116.43,1473.51,116.62,1473.27,116.71Z" transform="translate(-5.8 -0.01)"/><path class="cls-1" d="M1539.72,120.63l.51-.33a.71.71,0,0,1,1,0l0,0c.32.24.15.62,0,.91-.91,1.52-1.28,3.54-3.53,3.82-1,0-.72,1-1.2,1.47-.21.46-.31,1-.94,1.12-1.26.16-2.49.52-3.77.58l-6.24,1.19c-.15.2-.31.13-.48,0h-1a15,15,0,0,0-3.72.53,2.91,2.91,0,0,1-2-.35c-.16-.16-.34-.3-.33-.55a.68.68,0,0,1,.42-.59c.23-.2.58-.25.74-.55a1.09,1.09,0,0,1,.19-1.52c.28-.24.5-.56.92-.58a3.64,3.64,0,0,0,2.54-.1,1.13,1.13,0,0,1,1.15,0,3.73,3.73,0,0,0,1.55.47h.25c.29-.11.53-.39.89-.23a7,7,0,0,0,1.63-.33,16.94,16.94,0,0,0,1.89-.32,2,2,0,0,0,1-.26c.29-.12.6-.22.89-.35,1-.06,1.72-.8,2.63-1.08l.74-.48c.11-.93.86-.62,1.4-.73a1.6,1.6,0,0,0,1.18-1.21A1.58,1.58,0,0,1,1539.72,120.63Z" transform="translate(-5.8 -0.01)"/><path class="cls-1" d="M1490.06,115.43l.72-.9c.71-.41.67.19.74.58.13.75.47,1,1.17.58a5.89,5.89,0,0,1,2.13-1.22l1.47-.24c.2-.6.66-.82,1.21-1.07a3.08,3.08,0,0,0,1.73-1.5,1.4,1.4,0,0,1,1.63-.84h.46c.29,0,.64-.14.79.28,0,.19.09.42-.11.53-.65.35-.18.71,0,1.07a3.52,3.52,0,0,1,.37,1.09c-.07.32-.34.47-.57.65l-.67-.2c-.26.23-.64.32-.82.66a.63.63,0,0,1-.38.21,1.08,1.08,0,0,0-.49.32l-2.16,1.71a.79.79,0,0,0-.67.45.51.51,0,0,1-.47.43c-.29-.19-.58.28-.86,0l-.13-.06a.75.75,0,0,0-.49.11c-.13.11-.06.09-.08.08-1.3-.19-2.44.94-3.77.46a.36.36,0,0,1-.51,0v-.08l-.41-1.73c.44-.14.64.41,1.12.23-.11-.64,0-1.41-1-1.57Z" transform="translate(-5.8 -0.01)"/><path class="cls-1" d="M1450,112.55a3.82,3.82,0,0,1-1.43-1.5c.81-.37,1.4-1.33,2.5-.92,0,0,.16,0,.19-.1.9-1.69,2.14-1.43,3.56-.72a3.73,3.73,0,0,0,2.31.14,1.21,1.21,0,0,1,1.25.46c.1.34.27.47.61.26s.42-.24.62,0c.11.44.49.59.92.82l-.89.35c-.32.25-.4,0-.52-.23a.76.76,0,0,0-.68.41c-.36,1-.9.54-1.49.2.23-.42.89-.7.44-1.44-.52.77-1.9-.06-2.11,1.28a.26.26,0,0,1-.21.26c-.5-.08-.91-.67-1.49-.24-.09.26-.26.49-.36.75v.28c-.33.35-.6.44-.73-.13h0c0,.3.41.69-.24.72a1.41,1.41,0,0,1-.86,0c-.55-.18-.32.15-.12.37s0,.45-.26.5a.74.74,0,0,1-.49-.54C1450,113.31,1450.5,112.68,1450,112.55Z" transform="translate(-5.8 -0.01)"/><path class="cls-1" d="M1501.79,111.33l-.47-.5c.25-.36.44-.79,1-.89h0c.53.31,1,.38,1.32-.29a5.11,5.11,0,0,1,.88-.92c.39-.52.76-.5,1.12,0,.55.06.88.71,1.51.57,1-.55,2-.19,3-.33a2.73,2.73,0,0,0,1.53,1.07,1.23,1.23,0,0,1,1,.82c-.2.37-.61.33-.93.47a.16.16,0,0,1-.22,0,.12.12,0,0,1,0,0,.54.54,0,0,0-.75,0,.59.59,0,0,0-.13.19c-.56,1.18-1.15.43-1.74.09.1-.26.61-.31.39-.72-.08-.15-.27-.09-.41,0-1-.52-1.27.2-1.45,1q-.11.15-.21,0c-.79-.43-1.49-.49-1.86.53-.74.1-.27-.55-.49-.77s-.25-.57-.59-.43-.1.41-.13.63c-.08.52.89,1.08-.07,1.55a2.76,2.76,0,0,1-1,0,1.14,1.14,0,0,1-.63-.07c-.37-.49-.18-1.16-.55-1.65A1.66,1.66,0,0,1,1501.79,111.33Z" transform="translate(-5.8 -0.01)"/><path class="cls-1" d="M1497.48,142.74h.51c.49-.1.59-.61.91-.88,1,0,1.72.66,2.56,1,.63.33.71.76.35,1.38s-.22,1.4-1,1.67a1.28,1.28,0,0,1-.34.07,2.19,2.19,0,0,0-1.13-.19l-.38-.35h-1.18c.54-1.36-.78-1.39-1.41-2,.26-.21.64-.32.67-.72a.27.27,0,0,1,.39,0S1497.47,142.72,1497.48,142.74Z" transform="translate(-5.8 -0.01)"/><path class="cls-1" d="M1494.36,126.76c-1.45.54-1.45.54-1.73-.8.5-.43,1.38.12,1.72-.68-.06-.07-.08-.13,0-.18s0-.09.07-.09c1.66-.19,3.27.54,4.94.26a7.12,7.12,0,0,0,1.52-.2c.19.13.19.27,0,.4-.69.15-1.39.29-2.08.46-.51.11-.23.34,0,.54-.55.84-1.11.08-1.66,0a4.66,4.66,0,0,0-2-.07c-.22.11-.52,0-.7.21A.14.14,0,0,0,1494.36,126.76Z" transform="translate(-5.8 -0.01)"/><path class="cls-1" d="M1413.76,127.43a.88.88,0,0,0,.71-.73c0-.61.49-.89,1-1.14a.86.86,0,0,1,.23,0,.82.82,0,0,1,.57-.12c1.17,0,1.09,0,.73,1a6.15,6.15,0,0,1-2.59,2.93c-.31.23-.6.43-1,.19a.9.9,0,0,1-.33-1C1413.13,128.09,1413.2,127.6,1413.76,127.43Z" transform="translate(-5.8 -0.01)"/><path class="cls-1" d="M1413.76,127.43a4.65,4.65,0,0,0-.32.63c-.12.35-.21.75.2.94s.57-.17.73-.44a9.34,9.34,0,0,1,1.71-2c.25-.24.7-.44.55-.83s-.64-.19-1-.26l.25-.23h1.69c.5-.16,1-.43.94.51-.28.87-1.17,1.09-1.75,1.65a5.63,5.63,0,0,0-1.78,2.42,1,1,0,0,1-.58.17,2.56,2.56,0,0,1-1.29,0c-.36-.06-.56-.22-.35-.62C1413,128.64,1412.67,127.68,1413.76,127.43Z" transform="translate(-5.8 -0.01)"/><path class="cls-1" d="M1460.33,100.08c-.08.63-.61.63-1,.75a1,1,0,0,0-.47.85c0,.42-.27.5-.63.34-.26-1.1,0-1.77.89-1.94a1,1,0,0,1,1-.21Z" transform="translate(-5.8 -0.01)"/><path class="cls-1" d="M1438,125.75c-.09.69.35,1.2.55,1.79a3.25,3.25,0,0,1,0,2,.3.3,0,0,1-.31.22c-.24-.06-.29-.26-.32-.47a4,4,0,0,0-1.32-3c-.29-.25-.61-.56-.23-1v-.1C1436.94,125.14,1437.41,125.61,1438,125.75Z" transform="translate(-5.8 -0.01)"/><path class="cls-1" d="M1483.34,101.5c-.38-1.42-1.89-2-2.39-3.38.1-.07.17,0,.23.07l2,1.86a1.51,1.51,0,0,1,.42,1.42Z" transform="translate(-5.8 -0.01)"/><path class="cls-1" d="M1487.9,145.38l-.72.07c-.36,0-.83-.14-1,0-.82.63-1.56.2-2.32,0-.25.08-.51.2-.72-.08A12.11,12.11,0,0,1,1487.9,145.38Z" transform="translate(-5.8 -0.01)"/><path class="cls-1" d="M1499.42,115.44l.26-.49c.11-.2.21-.4.45-.48s.57-.51,1-.22A1.48,1.48,0,0,1,1499.42,115.44Z" transform="translate(-5.8 -0.01)"/><path class="cls-1" d="M1400.7,124.08a.5.5,0,0,1-.13-.19c.26-.51-.13-.89-.34-1.45a4.4,4.4,0,0,1,1.56,1.14C1401.7,124.33,1401,123.78,1400.7,124.08Z" transform="translate(-5.8 -0.01)"/><path class="cls-1" d="M1447.39,115.5l.24-.56a.7.7,0,0,1,.41-.46h.53C1448.85,115.62,1447.79,115.2,1447.39,115.5Z" transform="translate(-5.8 -0.01)"/><path class="cls-1" d="M1497,126.2c.53.29,1,.61,1.67.26l.48.27a3,3,0,0,1-2.18,0C1496.82,126.51,1496.83,126.36,1497,126.2Z" transform="translate(-5.8 -0.01)"/><path class="cls-1" d="M1459.61,112.89c.38-.34.62-.67,1-.33a.31.31,0,0,1,0,.42C1460.25,113.42,1460,113,1459.61,112.89Z" transform="translate(-5.8 -0.01)"/><path class="cls-1" d="M1441.13,102.47c.25-.83.65-.83,1.18-.24A1.64,1.64,0,0,1,1441.13,102.47Z" transform="translate(-5.8 -0.01)"/><path class="cls-1" d="M1451.29,101.78a.6.6,0,0,0,.31-.47,1.35,1.35,0,0,1,1,.43Z" transform="translate(-5.8 -0.01)"/><path class="cls-1" d="M1512.87,112.55c-.11.71-.52.62-1,.42.21-.59.58-.63,1-.41Z" transform="translate(-5.8 -0.01)"/><path class="cls-1" d="M1536.85,127.2l-1.44-.23a1.92,1.92,0,0,1,1.11-.48l.34.46C1537,127,1537,127.09,1536.85,127.2Z" transform="translate(-5.8 -0.01)"/><path class="cls-1" d="M1447.84,146.64c-.34.36-.77.21-1.17.21-.38-.55.11-.54.41-.66C1447.33,146.35,1447.87,146,1447.84,146.64Z" transform="translate(-5.8 -0.01)"/><path class="cls-1" d="M1447.84,146.64l-.8-.3a.33.33,0,0,1-.19-.21l.56-.18,1.33.61Z" transform="translate(-5.8 -0.01)"/><path class="cls-1" d="M1415.43,125.56l-1,1.14c-.15-.51.23-.8.46-1.16Z" transform="translate(-5.8 -0.01)"/><path class="cls-1" d="M1448.27,111.42c-.14.43-.23.89-.74,1C1447.21,111.72,1447.83,111.64,1448.27,111.42Z" transform="translate(-5.8 -0.01)"/><path class="cls-1" d="M1502.8,114v-.2c-.11-.24-.27-.49.2-.47.08.47.37.27.62.19-.23.25.09.76-.39.85C1503.13,114.35,1502.93,114.1,1502.8,114Z" transform="translate(-5.8 -0.01)"/><path class="cls-1" d="M1514.05,124c.19,0,.39,0,.49.24s0,.23-.13.22c-.33,0-.73.07-.82-.42Z" transform="translate(-5.8 -0.01)"/><path class="cls-1" d="M1434.85,117.2c.14-.34.17-.75.49-1h0l.24.77C1435.31,116.92,1435.18,117.36,1434.85,117.2Z" transform="translate(-5.8 -0.01)"/><path class="cls-1" d="M1533.19,141.86c-.34.27-.77.19-1.16.24C1532.27,141.31,1532.8,141.92,1533.19,141.86Z" transform="translate(-5.8 -0.01)"/><path class="cls-1" d="M1459.07,111.13l.52.23c0,.22.16.55-.22.52S1459.22,111.36,1459.07,111.13Z" transform="translate(-5.8 -0.01)"/><path class="cls-1" d="M1415,145.9c0,.45-.34.46-.76.37.14-.41.47-.34.75-.37Z" transform="translate(-5.8 -0.01)"/><path class="cls-1" d="M1455,111.84l.21-.26c.06.23.46.2.39.48a.39.39,0,0,1-.34.21C1455,112.26,1455.05,112,1455,111.84Z" transform="translate(-5.8 -0.01)"/><path class="cls-1" d="M1543,140.62c-.87-.22-.22-.6-.1-.93.27-.13.32.09.41.26C1543.21,140.2,1543.29,140.49,1543,140.62Z" transform="translate(-5.8 -0.01)"/><path class="cls-1" d="M1430.36,114c.33,0,.78-.38.89.29C1431,113.93,1430.41,114.8,1430.36,114Z" transform="translate(-5.8 -0.01)"/><path class="cls-1" d="M1504.75,111.59l.49.77c-.06.14-.17.35-.31.26C1504.51,112.36,1504.79,111.94,1504.75,111.59Z" transform="translate(-5.8 -0.01)"/><path class="cls-1" d="M1450.91,114.05l.26-.5a.46.46,0,0,1,.16.63.29.29,0,0,1-.1.12C1451,114.51,1451,114.2,1450.91,114.05Z" transform="translate(-5.8 -0.01)"/><path class="cls-1" d="M1482.38,114a.83.83,0,0,1,.92.34C1483,114.12,1482.44,114.77,1482.38,114Z" transform="translate(-5.8 -0.01)"/><path class="cls-1" d="M1541.65,119v-.92l.48.21h0C1542.13,118.66,1542.13,119,1541.65,119Z" transform="translate(-5.8 -0.01)"/><path class="cls-1" d="M1527.72,124.82l-.21-.27.49-.23c.2.21.69,0,.69.5h-.22a.53.53,0,0,1-.75,0Z" transform="translate(-5.8 -0.01)"/><path class="cls-1" d="M1518.63,141.78h-1.19a.81.81,0,0,1,0-.22h0l1-.2C1518.57,141.47,1518.71,141.56,1518.63,141.78Z" transform="translate(-5.8 -0.01)"/><path class="cls-1" d="M1526.53,142l.41.18-.32.33h-.6Z" transform="translate(-5.8 -0.01)"/><path class="cls-1" d="M1415.65,145.9a1.52,1.52,0,0,1,1-.2v.37C1416.3,146.09,1415.94,146.2,1415.65,145.9Z" transform="translate(-5.8 -0.01)"/><path class="cls-1" d="M1500.83,125.47v-.4c.23,0,.59,0,.57.27S1501,125.47,1500.83,125.47Z" transform="translate(-5.8 -0.01)"/><path class="cls-1" d="M1506.13,125.35V125h1.38v.19C1507.13,126.05,1506.61,125.56,1506.13,125.35Z" transform="translate(-5.8 -0.01)"/><path class="cls-1" d="M1538.33,164.4l-.06.42c-.18,0-.4.14-.5-.09s.24-.36.28-.59C1538.32,164.05,1538.39,164.2,1538.33,164.4Z" transform="translate(-5.8 -0.01)"/><path class="cls-1" d="M1538.28,151c-.06.46.25,1-.19,1.39C1538,151.88,1537.87,151.39,1538.28,151Z" transform="translate(-5.8 -0.01)"/><path class="cls-1" d="M1453.13,112.35a.73.73,0,0,1,.36-.75C1453.54,111.91,1453.55,112.2,1453.13,112.35Z" transform="translate(-5.8 -0.01)"/><path class="cls-1" d="M1511.4,111.35h.27c0,.2,0,.56-.28.49S1511.28,111.52,1511.4,111.35Z" transform="translate(-5.8 -0.01)"/><path class="cls-1" d="M1437.51,118.32v.7c.07.06.08.11,0,.16a.11.11,0,0,1-.09.06c-.37-.2-.4-.58-.45-.94Z" transform="translate(-5.8 -0.01)"/><path class="cls-1" d="M1433.13,101.78l.33.24-.13.4c-.14-.06-.32-.09-.4-.19S1433.07,102,1433.13,101.78Z" transform="translate(-5.8 -0.01)"/><path class="cls-1" d="M1507.13,111.83h.21l.34.08a.24.24,0,0,1-.12.17C1507.29,112.2,1507.13,112.05,1507.13,111.83Z" transform="translate(-5.8 -0.01)"/><path class="cls-1" d="M1452.13,163.69c0-.18-.22-.36,0-.55l.25.06C1452.38,163.4,1452.61,163.71,1452.13,163.69Z" transform="translate(-5.8 -0.01)"/><path class="cls-1" d="M1512.88,111.84l.44-.21a1.18,1.18,0,0,1-.45.92h0Z" transform="translate(-5.8 -0.01)"/><path class="cls-1" d="M1518.63,141.78l-.22-.39.9.2C1519.13,142,1518.87,141.75,1518.63,141.78Z" transform="translate(-5.8 -0.01)"/><path class="cls-1" d="M1489.13,118.62c.63-.13.33.37.41.61Z" transform="translate(-5.8 -0.01)"/><path class="cls-1" d="M1540.27,105.62c.3-.13.44.13.63.26C1540.49,106.28,1540.35,106,1540.27,105.62Z" transform="translate(-5.8 -0.01)"/><path class="cls-1" d="M1425.5,112.8l.23.46c-.24,0-.46.41-.7,0Z" transform="translate(-5.8 -0.01)"/><path class="cls-1" d="M1536.85,127.2V127l.93.33c.09,0,.12.07.1.11s0,.06-.08.06A1.67,1.67,0,0,1,1536.85,127.2Z" transform="translate(-5.8 -0.01)"/><path class="cls-1" d="M1537.81,127.41a.49.49,0,0,1,0-.17l1,.24v.15l-.22.11A1,1,0,0,1,1537.81,127.41Z" transform="translate(-5.8 -0.01)"/><path class="cls-1" d="M1467.77,163.91a2.06,2.06,0,0,1-1.22-.22C1467,163.78,1467.42,163.52,1467.77,163.91Z" transform="translate(-5.8 -0.01)"/><path class="cls-1" d="M1463.9,3.62v.32c-.2.24-.2.62-.53.78s-.48,0-.72,0c-1.37.93-2.86.42-4.31.38a1.83,1.83,0,0,0-1.44.23,1.55,1.55,0,0,1-1.84-.5c-.92-.74-1.7-.36-2.45.28l-.4.42a3.09,3.09,0,0,1-1.9.42c-.59-.13-1.15.25-1.74.14h-.73a6,6,0,0,1-2.15,0l-.87-.07c-.57-.25-1,.2-1.42.37A2.33,2.33,0,0,0,1442,7c-.29.18-.28.58-.55.78s-.82,0-1.13.33a1.75,1.75,0,0,1-1,.63,1.54,1.54,0,0,0-1,.38,10.49,10.49,0,0,0-3.3.36,1.85,1.85,0,0,0-1,.58c-.15.15-.29.32-.44.47a.8.8,0,0,1-.27.18c-.23.13-.46.28-.68.42h-.8a3.26,3.26,0,0,0-2.91.77,1.24,1.24,0,0,1-1.18.65,15.49,15.49,0,0,0-6,3.54c-.08.56-.42.67-.91.54l-1.7,1.1a25.44,25.44,0,0,1-5,4.08c-.62.36-1,1-1.7,1.24-.32,0-.47.59-.91.32-.6.42-.8,1.15-1.45,1.6a3.59,3.59,0,0,1-1.66.78l-.56.41c.15.32.11.67-.22.77a3.35,3.35,0,0,0-2,2,1,1,0,0,1-.59.44c-.55,0-.91.24-.88.86a.58.58,0,0,1-.3.18c-.49.06-.88-.31-1.35-.32a1.45,1.45,0,0,1-.38-.4c-.16-.43.17-.51.43-.61h-.08c-.85,0-.71-.44-.32-.89.21-.24.63-.34.48-.8l.5-.71c0-.41.43-.43.58-.7l.69-.65a.51.51,0,0,1,.48-.54h0l.22-.2c.3-1.37.47-1.51,1.67-1.46.56-.56,1.57-.67,1.67-1.69.12-.37.46-.53.73-.74.27-.71.94-.85,1.54-1.1.38-.16.85-.18,1.1-.59-.26-.27-.44-.64-.11-.9.83-.65,1.41-1.75,2.72-1.57l1.72-1c.09-.13-.07,0,.06-.1,1.56-.89,2.6-2.72,4.7-2.67.42-.4,1.14-.11,1.5-.65-.23-1.12.87-.87,1.35-1.24a1.2,1.2,0,0,1,.75,0l.73-.46a.79.79,0,0,1,.72-.2,2.14,2.14,0,0,0,1.26-.46c.35-.75,1.12-.65,1.74-.75l1.11-.18,1.17-.52c.7-1.2,1.88-1.4,3.11-1.48l.51-.21a2.33,2.33,0,0,1,2.61-.78l.26-.14a1.87,1.87,0,0,1,1.66-.55l4.32-.94c.44-.27.76-.69,1.22-.93a9.78,9.78,0,0,1,3.6-.5,2.81,2.81,0,0,0,2.14-.49.15.15,0,0,1,.21,0l0,0h.27c.12,0,.26.07.35,0a2.72,2.72,0,0,1,3-.61,1.06,1.06,0,0,0,1-.27c.65-.63,1.53-.36,2.33-.29a23.37,23.37,0,0,0,3.92-.21c.85-.55,1.71-.13,2.56,0h1.2l.73.19c.35.44-.09.51-.32.67A5.85,5.85,0,0,0,1463.9,3.62Z" transform="translate(-5.8 -0.01)"/><path class="cls-1" d="M1402.23,29.53l.24.24c1,.8,1,1,.32,1.87a24.41,24.41,0,0,1-2,1.89l-.15-.12h0c.18.18.31.37.17.63l-.07.24c.08.33-.2.39-.4.51l-1.16,1.71a1.09,1.09,0,0,1-.68,1.37l-.08,0-.68,1c.13.32-.09.49-.28.68a1.63,1.63,0,0,0-.42,1,1.29,1.29,0,0,1-.52,1.68l-.64,1.45a11.82,11.82,0,0,0-.49,2.83c-.07.4-.06.81-.69.87a1.24,1.24,0,0,0-.88.81,1.27,1.27,0,0,1-1.47.9c-.16-.14-.4-.19-.46-.43-.14-1.31-.37-2.64.6-3.77l.21-.49c0-.25,0-.51.26-.64l.41-.81c-.11-.3.07-.51.24-.72a2.07,2.07,0,0,1,0-1.69c-.1-.75.45-1.15.86-1.64a2.21,2.21,0,0,0,.61-1,2.8,2.8,0,0,1,1.09-2.4,4.65,4.65,0,0,0,1.16-2c.17-.71,1-.77,1.2-1.37.83-1.19,2.36-1.61,3.17-2.83C1401.8,29.1,1402.05,29.38,1402.23,29.53Z" transform="translate(-5.8 -0.01)"/><path class="cls-1" d="M1489.82,31l.2.27a.68.68,0,0,1,.38.53,3.75,3.75,0,0,1,0,.67.58.58,0,0,1-.19.27l-.42.21a2.27,2.27,0,0,0-.89.82,2.54,2.54,0,0,0-.16.28c-.16.22-.18.51-.41.67a1.09,1.09,0,0,0-.75.91c-.06.38-.06.79-.45,1s-.88-.08-1.32,0a3,3,0,0,1-2-1.81c0-.46.18-.9.17-1.37-.17-.74.32-1.15.8-1.57a4.92,4.92,0,0,0,.23-.6c.32-.43.35-1,.88-1.35.47-.14,1.09.29,1.41-.38h.39C1488.65,29.6,1489.51,29.85,1489.82,31Z" transform="translate(-5.8 -0.01)"/><path class="cls-1" d="M1455.75,17.82l.71.2a4.17,4.17,0,0,1,2.45,1.76c0,.91-1,1-1.34,1.71-.22.5-.85.65-1,1.2a.56.56,0,0,1-.36.33c-.24.08-.52-.12-.74.12a3.08,3.08,0,0,1-.33.55c-.31.31.12.92-.45,1.12a1.19,1.19,0,0,1-.53,0l-.71-.16a.9.9,0,0,1-.3-.21,7.39,7.39,0,0,0-.56-3.44c-.26-.8.45-1.39.48-2.18,0-.44,1-.51,1.61-.58a.27.27,0,0,1,.14-.07C1455,17.76,1455.33,17.59,1455.75,17.82Z" transform="translate(-5.8 -0.01)"/><path class="cls-1" d="M1458.61,72.29l-1.47,1c.59.93,2,.35,2.44,1.37,0,.09-.11.1-.18,0a2.12,2.12,0,0,0-1.74.2c-.37.46-1,.25-1.41.46a2.7,2.7,0,0,1-.56.14c-.53-.13-1.26,0-1.35-.81-.34-.47,0-.68.36-.78a6.46,6.46,0,0,0,2.49-1.9l.93.06a.72.72,0,0,1,.41,0A.31.31,0,0,1,1458.61,72.29Z" transform="translate(-5.8 -0.01)"/><path class="cls-1" d="M1398.7,32.2l1.6-2.44.42-.47c-.33-.79.71-.67.8-1.19l.9-.73c.35.27.3.57.06.88s-.09.48.23.57h0l-.48.72c-.63,1.41-2.38,1.61-3.12,2.92C1399,32.66,1398.82,32.33,1398.7,32.2Z" transform="translate(-5.8 -0.01)"/><path class="cls-1" d="M1403.65,30c-.41.31.21.63,0,.94h0a3.15,3.15,0,0,1-1.47,1.68l-1.39,1.45-.23-.7h0c.49-.5,1-1,1.47-1.5a1.72,1.72,0,0,0,.45-2.1A1.78,1.78,0,0,1,1403.65,30Z" transform="translate(-5.8 -0.01)"/><path class="cls-1" d="M1393.37,95.51c-.72-.55-1.22-1.17-.75-2.14,0-.32-.47-.25-.57-.53.74-.4,1.3-.4,1.07.66C1393,94.2,1393.85,94.77,1393.37,95.51Z" transform="translate(-5.8 -0.01)"/><path class="cls-1" d="M1526,25.45c0,.31.16.75-.14.88s-.68-.29-1-.48c.06-.3-.2-.42-.32-.63s0-.33.27-.25l.49.24c.38-.3.55,0,.73.26Z" transform="translate(-5.8 -0.01)"/><path class="cls-1" d="M1521.48,69.36h.5c.51.84-.26,1.1-.71,1.29s-1.13.29-1-.63a1.26,1.26,0,0,1,.32-.33l.44-.12C1521.13,69.4,1521.35,69.5,1521.48,69.36Z" transform="translate(-5.8 -0.01)"/><path class="cls-1" d="M1443.9,7.2H1442a.34.34,0,0,1,0-.37,3.53,3.53,0,0,1,1.54-.55.43.43,0,0,1,.42.31Z" transform="translate(-5.8 -0.01)"/><path class="cls-1" d="M1452.33,22.84v-.29l.12-.19c1,0,1.21.25.91,1.32-.37.43-.74.52-1.12,0A1.52,1.52,0,0,1,1452.33,22.84Z" transform="translate(-5.8 -0.01)"/><path class="cls-1" d="M1391.65,90.51l-.4.56c-.06-.49-.39-.87,0-1.24.22-.21.51-.1.73.11C1391.88,90.14,1392,90.44,1391.65,90.51Z" transform="translate(-5.8 -0.01)"/><path class="cls-1" d="M1393.13,98.14l.24-.25c.36-.32.58-.16.74.22l.47.25v.54C1394,98.74,1393.7,98.2,1393.13,98.14Z" transform="translate(-5.8 -0.01)"/><path class="cls-1" d="M1392.05,92.84l.57.53c-.2-.16-.39-.23-.53.08s-.36.33-.61.09-.27-.54.19-.63Z" transform="translate(-5.8 -0.01)"/><path class="cls-1" d="M1433.27,97.78c0,.32-.22.39-.46.38s-.36-.09-.36-.15a.49.49,0,0,1,.38-.5.34.34,0,0,1,.43.24Z" transform="translate(-5.8 -0.01)"/><path class="cls-1" d="M1390.4,88c-.21-.59-.27-.88,0-1.11,0,0,.19,0,.19,0A8.1,8.1,0,0,1,1390.4,88Z" transform="translate(-5.8 -0.01)"/><path class="cls-1" d="M1441.43,98.36l-1.07-.22C1440.8,97.8,1441.3,97.2,1441.43,98.36Z" transform="translate(-5.8 -0.01)"/><path class="cls-1" d="M1391.35,88.2c-.29-.27-.19-.53-.1-.84C1391.8,87.66,1391.23,87.92,1391.35,88.2Z" transform="translate(-5.8 -0.01)"/><path class="cls-1" d="M1391.65,90.51a.54.54,0,0,1,.33-.57c.2.21.31.48.12.71S1391.77,90.68,1391.65,90.51Z" transform="translate(-5.8 -0.01)"/><path class="cls-1" d="M1394.31,97.67l-.68-.25c-.07-.22-.15-.45.2-.51C1394.07,97.11,1394.34,97.3,1394.31,97.67Z" transform="translate(-5.8 -0.01)"/><path class="cls-1" d="M1427.9,97.66V98a.8.8,0,0,1-.87.14C1427.25,97.77,1427.6,97.76,1427.9,97.66Z" transform="translate(-5.8 -0.01)"/><path class="cls-1" d="M1396.24,63.86c.47-.14.59.39.94.49v.46A2.32,2.32,0,0,1,1396.24,63.86Z" transform="translate(-5.8 -0.01)"/><path class="cls-1" d="M1395.69,98.2l-.44.19a2,2,0,0,1-.13-.48C1395.42,97.74,1395.59,97.9,1395.69,98.2Z" transform="translate(-5.8 -0.01)"/><path class="cls-1" d="M1392,49.13l.21-.4.22.18v.54Z" transform="translate(-5.8 -0.01)"/><path class="cls-1" d="M1463.9,3.62a.76.76,0,0,1,.29-1c.65-.52,1.26-1.09,1.88-1.64l.47-.11c0,.16.08.42,0,.46C1465.54,1.93,1465.05,3.2,1463.9,3.62Z" transform="translate(-5.8 -0.01)"/><path class="cls-1" d="M1535.89,85.2a25.38,25.38,0,0,1-5.27-.76c1-.4,2.34,0,3.06-1.2.18-.31.48.07.73.13.49.14,1,.26,1.48.39A2,2,0,0,1,1535.89,85.2Z" transform="translate(-5.8 -0.01)"/><path class="cls-1" d="M1536.61,82.56a6.73,6.73,0,0,1,3.12,1.69c-.36.71.23,1.12.72,1.79-1.47-.57-2.29-1.67-3.44-2.29-.36-.19-.61-.63-1.12-.47-.27-.11-.45-.25-.06-.44A6.55,6.55,0,0,1,1536.61,82.56Z" transform="translate(-5.8 -0.01)"/><path class="cls-1" d="M1482.92,71l-4,3.77-.24-.28c1.36-1.23,2.22-3,4.25-3.49Z" transform="translate(-5.8 -0.01)"/><path class="cls-1" d="M1401.46,79.89l-.16-.7a.48.48,0,0,1,.67-.09.76.76,0,0,1,.09.09l.9,0A1.42,1.42,0,0,1,1401.46,79.89Z" transform="translate(-5.8 -0.01)"/><path class="cls-1" d="M1473,4.54l-.69-.44c-.14-.35-.46-.15-.69-.22.73-.53,1.19,0,1.68.43Z" transform="translate(-5.8 -0.01)"/><path class="cls-1" d="M1406.13,75.09a2.89,2.89,0,0,1-1.46-.08c.38-.53.85-.24,1.23-.32Z" transform="translate(-5.8 -0.01)"/><path class="cls-1" d="M1507.39,75.4c-.08.94-.65.44-1.07.39,0-.41.6-.24.5-.66Z" transform="translate(-5.8 -0.01)"/><path class="cls-1" d="M1540.84,71.07c-.48.07-.74.08-1-.21C1540.22,70.57,1540.46,70.79,1540.84,71.07Z" transform="translate(-5.8 -0.01)"/><path class="cls-1" d="M1532,81.32h-1.17V81.1a3.67,3.67,0,0,1,1.43-.27c.16,0,.32,0,.28.18S1532.19,81.2,1532,81.32Z" transform="translate(-5.8 -0.01)"/><path class="cls-1" d="M1429.13,75.84a1.87,1.87,0,0,1,1.4-.43v.15C1430,75.43,1429.72,76.26,1429.13,75.84Z" transform="translate(-5.8 -0.01)"/><path class="cls-1" d="M1400.57,74.64c-.55.08-.83-.07-.58-.68A.82.82,0,0,1,1400.57,74.64Z" transform="translate(-5.8 -0.01)"/><path class="cls-1" d="M1533,72.2l-.43.58-.08-.79Z" transform="translate(-5.8 -0.01)"/><path class="cls-1" d="M1477.7,73.69a.69.69,0,0,1-.13.11h-.08a1,1,0,0,1,0-.16Z" transform="translate(-5.8 -0.01)"/><path class="cls-1" d="M1518.61,85.2l-.68.32c-.22,0-.53.2-.48-.27l1.16-.27Z" transform="translate(-5.8 -0.01)"/><path class="cls-1" d="M1531.81,31.93c-.17.13.1.7-.45.45C1531.52,32.2,1531.51,31.93,1531.81,31.93Z" transform="translate(-5.8 -0.01)"/><path class="cls-1" d="M1540.52,53.77l.14-.13a.46.46,0,0,1,.07.16l-.06.08Z" transform="translate(-5.8 -0.01)"/><path class="cls-1" d="M1424.66,142.27l.36,0c-.24.72-.9,1-1.44,1.41-1.32.74-2.82.06-3.54-1.6a2.3,2.3,0,0,1,2.23.07.92.92,0,0,0,1.19-.2C1424.06,141.3,1424.34,141.85,1424.66,142.27Z" transform="translate(-5.8 -0.01)"/><path class="cls-1" d="M1402.26,163.43H1401a3.52,3.52,0,0,0-1.18-.45c-.87,0-1-.54-1-1.27a.24.24,0,0,1,.31.1c0-.06,0-.07-.07-.09s-.13-.06-.19,0h0c-.71-1.16-.71-1.16,1.18-1.88-.13.56.17,1.19-.25,1.7a.74.74,0,0,0,0,.93C1400.92,162.14,1401.52,162.94,1402.26,163.43Z" transform="translate(-5.8 -0.01)"/><path class="cls-1" d="M1424.66,142.27c-.08,0-.18-.08-.23,0-1.38.77-2.79.11-4.19.09a1.33,1.33,0,0,1-.75-.23c-.64-.53-1.45-.36-2.18-.51a6.52,6.52,0,0,1,1.7-.24c.29-.65,1-.3,1.4-.55s.61.15.77.41c.39.64.8.5,1.4.26s1.41-.76,2,.21Z" transform="translate(-5.8 -0.01)"/><path class="cls-1" d="M1419.49,142.08a.76.76,0,0,1,.75.23,3.05,3.05,0,0,0,3.34,1.42c0,.66-.49.45-.81.47C1421.18,144.28,1420.33,143.2,1419.49,142.08Z" transform="translate(-5.8 -0.01)"/><path class="cls-1" d="M1453.56,146.41l1.7-.06c.07,0,.09.11.07.16s0,.09-.08.09a3,3,0,0,1-2.21.48c-.45,0-.75-.17-.75-.68A1.52,1.52,0,0,0,1453.56,146.41Z" transform="translate(-5.8 -0.01)"/><path class="cls-1" d="M1399.44,154.47a2.37,2.37,0,0,1-1.34,1.26A2.25,2.25,0,0,1,1399.44,154.47Z" transform="translate(-5.8 -0.01)"/><path class="cls-1" d="M1440.33,163.39a2.5,2.5,0,0,1,2.17,0c-.44.39-.82.19-1.17.2Z" transform="translate(-5.8 -0.01)"/><path class="cls-1" d="M1478.5,164.8l-.09,0v-.15h.09S1478.5,164.77,1478.5,164.8Z" transform="translate(-5.8 -0.01)"/><path class="cls-1" d="M1510.71,126.71a1.44,1.44,0,0,0,.93-.74h0c.6-.15,1.21-.51,1.79,0,.47.94-.45,1.32-.8,1.92-.25,0-.14.39-.39.4a1.38,1.38,0,0,1-1,.52,1.36,1.36,0,0,1-1.27-.7c-.28-.5.24-.68.43-1A2.38,2.38,0,0,1,1510.71,126.71Z" transform="translate(-5.8 -0.01)"/><path class="cls-1" d="M1510.71,126.71c-.08.53-.92,1-.29,1.55s1-.36,1.48-.6c.74-.12.51.5.34.65-.35.3-.52.71-.83,1h-.76q-.14.13-.24,0c-.07-.09,0-.34-.14-.44C1509.31,127.91,1509.73,127.26,1510.71,126.71Z" transform="translate(-5.8 -0.01)"/><path class="cls-1" d="M1437.73,129.81h-1.6a1.33,1.33,0,0,1-.76.3.41.41,0,0,1-.28-.23c.39-1,.58-2.14,1-3.17l.25-.22c1.06.13,1.21,1,1.45,1.8a6.54,6.54,0,0,1,.13.75.73.73,0,0,0,.3.48h.33l.77.09Z" transform="translate(-5.8 -0.01)"/><path class="cls-1" d="M1510.41,129.3h.24v.45h-.24c-.62,0-1.25-.36-1.86,0h-.74l-1.29-.22a7.45,7.45,0,0,0,2.18-.51A2.43,2.43,0,0,1,1510.41,129.3Z" transform="translate(-5.8 -0.01)"/><path class="cls-1" d="M1481.9,126.94a6.91,6.91,0,0,0-1.92.22.09.09,0,0,1-.08-.14s0-.07.07-.07l.19-.19.5-.24c.22-.28.47-.18.73-.08Z" transform="translate(-5.8 -0.01)"/><path class="cls-1" d="M1450.92,126.2l-.17.13a.46.46,0,0,1-.07-.16s.07-.07.09-.06Z" transform="translate(-5.8 -0.01)"/><path class="cls-1" d="M1441.13,129.78l-1.54-.16A3,3,0,0,1,1441.13,129.78Z" transform="translate(-5.8 -0.01)"/><path class="cls-1" d="M1472.3,129.8c-.11.27-.28.3-.58.12l.61-.3A.57.57,0,0,1,1472.3,129.8Z" transform="translate(-5.8 -0.01)"/><path class="cls-1" d="M1514.87,97.7c.59-.87.8-.9,1.53-.28-.13.28-.46,0-.62.23Z" transform="translate(-5.8 -0.01)"/><path class="cls-1" d="M1435.34,116.2l.77-.84C1436.17,116.08,1435.76,116.14,1435.34,116.2Z" transform="translate(-5.8 -0.01)"/><path class="cls-1" d="M1502.55,145.36h-.49c-.67-.32-.56-.86-.27-1.32.19-.3.34-.61.55-.89a1.73,1.73,0,0,1,1.15-.84,4.82,4.82,0,0,1,1.93,0l-.25.49A1.9,1.9,0,0,1,1504,144,5.87,5.87,0,0,0,1502.55,145.36Z" transform="translate(-5.8 -0.01)"/><path class="cls-1" d="M1504,144l1.21-1.2C1505.13,143.51,1504.94,144.2,1504,144Z" transform="translate(-5.8 -0.01)"/><path class="cls-1" d="M1460.13,100.08a1.23,1.23,0,0,1-.57-.68.91.91,0,0,1,.79.68Z" transform="translate(-5.8 -0.01)"/><path class="cls-1" d="M1456.44,98.59l.44-.23C1456.91,98.77,1456.67,98.67,1456.44,98.59Z" transform="translate(-5.8 -0.01)"/><path class="cls-1" d="M1457.42,98.2h1C1458.07,98.38,1457.75,98.54,1457.42,98.2Z" transform="translate(-5.8 -0.01)"/><path class="cls-1" d="M1490.06,115.43c-.2,0-.39,0-.48-.2v-.1l.45.3Z" transform="translate(-5.8 -0.01)"/><path class="cls-1" d="M1515,126.2h1.22c.09.22.27.21.45.19l2.86.09h1l-1,.32c-.28.13-.64.25-.47.64.07.17.18.45.46.44s.45-.36.53-.65c.71-.09.64.35.41.72a1.37,1.37,0,0,1-1.61.71.44.44,0,0,0-.48.24v.45h-.49a14.22,14.22,0,0,0-2.75-2c-.33-.24-.82-.39-.69-1a.48.48,0,0,1,.23-.31A.3.3,0,0,1,1515,126.2Z" transform="translate(-5.8 -0.01)"/><path class="cls-1" d="M1520.05,127.2c0,.57-.18,1-.78.91s-1.1-.5-1-1,.8-.28,1.25-.31C1519.52,127.13,1519.52,127.48,1520.05,127.2Z" transform="translate(-5.8 -0.01)"/><path class="cls-1" d="M1518.37,128.87a3.44,3.44,0,0,1-.12-.64c.35-.13.41.23.6.4Z" transform="translate(-5.8 -0.01)"/><path class="cls-1" d="M1501.59,112.83c-.1-.49-.9.18-.85-.47s.56-.83,1-1l.07.06a1,1,0,0,1,.12,1.6A.49.49,0,0,1,1501.59,112.83Z" transform="translate(-5.8 -0.01)"/><path class="cls-1" d="M1437.5,129.53c-.42,0-.69-.12-.52-.63a1.77,1.77,0,0,0-.67-2c-.75-.19-1.44-.43-1.21-1.44a2.41,2.41,0,0,1,1.22-.18c1.15,1,2.16,2.08,1.89,3.79C1438.13,129.46,1437.74,129.39,1437.5,129.53Z" transform="translate(-5.8 -0.01)"/><path class="cls-1" d="M1435.13,125.5l1.21,1.44h0c-.88.48-2,0-2.67-1.22l1-.25Z" transform="translate(-5.8 -0.01)"/><path class="cls-1" d="M1539.21,103.46c0,.47.54.65.67,1.36l-1.55-1.46c.39-.26.61.16.89.11Z" transform="translate(-5.8 -0.01)"/><path class="cls-1" d="M1516.7,126.39c0,.17.3.43.09.47-.46.09-.52-.3-.54-.66l.4.06A.69.69,0,0,1,1516.7,126.39Z" transform="translate(-5.8 -0.01)"/><path class="cls-1" d="M1452.62,111.35l-.29-.37c.08-.09.19-.2.26-.07A.92.92,0,0,1,1452.62,111.35Z" transform="translate(-5.8 -0.01)"/><path class="cls-1" d="M1502.48,113.49l.09-.48.39-.23v.52l-.2.47Z" transform="translate(-5.8 -0.01)"/><path class="cls-1" d="M1508.55,129.79c.61-.65,1.24-.26,1.86,0Z" transform="translate(-5.8 -0.01)"/><path class="cls-1" d="M1455.25,146.6v-.25a1.33,1.33,0,0,1,1.18-.1A1.91,1.91,0,0,1,1455.25,146.6Z" transform="translate(-5.8 -0.01)"/><path class="cls-1" d="M1514.71,126.43c1.24.77,2.94,1,3.18,2.9l-1.46.07v-.06a2,2,0,0,0-2.41,0l-1,.49c-.58-.18-1.12-.41-1.17-1.12a.4.4,0,0,1,.19-.28,11.14,11.14,0,0,0,1.74-2.3A.76.76,0,0,1,1514.71,126.43Z" transform="translate(-5.8 -0.01)"/><path class="cls-1" d="M1511.41,129.33c-.2-.66.45-1.08.49-1.67l.23-.23a4.56,4.56,0,0,1,.65-.51c.25-.17.56-.5.82-.2a.8.8,0,0,1,0,1.13h0c-.34.32-.56.76-1,1h0c-.39.08-.22.54-.49.71Z" transform="translate(-5.8 -0.01)"/><path class="cls-1" d="M1514.05,129.35c1.18-1.08,1.41-1.08,2.41,0Z" transform="translate(-5.8 -0.01)"/><path class="cls-1" d="M1512.13,129.58a1.19,1.19,0,0,1,.49-.71c-.08.44.2.71.48,1A.91.91,0,0,1,1512.13,129.58Z" transform="translate(-5.8 -0.01)"/><path class="cls-1" d="M1399.86,162.45c-.08-.31-.46-.61,0-.93Z" transform="translate(-5.8 -0.01)"/><path class="cls-1" d="M1499.13,142.76c-.23-.66.34-.37.57-.48.48-.22.89-.61,1.47-.56a7.31,7.31,0,0,0,1.32-.08c.26.05.39.28.56.44h0l.49.26-.72.92c-.48.42-1,.16-1.44,0C1500.61,143,1499.93,142.5,1499.13,142.76Z" transform="translate(-5.8 -0.01)"/><path class="cls-1" d="M1501.33,143.27h1.44a2.45,2.45,0,0,0-.71,2.13,2.9,2.9,0,0,0-1.23.24c-.08.12-.15.11-.22,0C1501,144.87,1501.68,144.2,1501.33,143.27Z" transform="translate(-5.8 -0.01)"/><path class="cls-1" d="M1514.72,125.3a2.42,2.42,0,0,1-2.07,0A2.49,2.49,0,0,1,1514.72,125.3Z" transform="translate(-5.8 -0.01)"/><path class="cls-1" d="M1419.28,129.56a12.38,12.38,0,0,0-4.58-.19,5.89,5.89,0,0,1,3.39-3.63l2.79.2c.22-.08.45,0,.48.17a5,5,0,0,1-1.85,3.43A.58.58,0,0,1,1419.28,129.56Z" transform="translate(-5.8 -0.01)"/><path class="cls-1" d="M1437.5,129.53l.71-.42v.41Z" transform="translate(-5.8 -0.01)"/><path class="cls-1" d="M1512.13,125.75h1.4c.18.18.24.35,0,.53a.42.42,0,0,1-.31,0l-1.61-.31Z" transform="translate(-5.8 -0.01)"/><path class="cls-1" d="M1404.64,29.06c0,.68-.49.8-1,.94,0-.37-.44-.78,0-1.1S1404.33,28.83,1404.64,29.06Z" transform="translate(-5.8 -0.01)"/><path class="cls-1" d="M1455.22,4.84l-.13-.52,2.14.29A5.69,5.69,0,0,1,1455.22,4.84Z" transform="translate(-5.8 -0.01)"/><path class="cls-1" d="M1441.65,6.53c-.39.6.18.4.4.48v.15l-.94.29C1441.07,7,1441.13,6.62,1441.65,6.53Z" transform="translate(-5.8 -0.01)"/><path class="cls-1" d="M1452.13,4.58h.68c.08.24.5.34.28.7a1.2,1.2,0,0,1-1.25-.43Z" transform="translate(-5.8 -0.01)"/><path class="cls-1" d="M1402.71,28.81l.57-.93C1403.4,28.47,1403,28.62,1402.71,28.81Z" transform="translate(-5.8 -0.01)"/><path class="cls-1" d="M1478.32,97.88l-.07-.42c.09-.29.27-.41.57-.29.4.67-.26.53-.53.69Z" transform="translate(-5.8 -0.01)"/><path class="cls-1" d="M1478.82,97.2l-.57.29c-.17-.09-.48-.26-.38-.36C1478.13,96.81,1478.51,97,1478.82,97.2Z" transform="translate(-5.8 -0.01)"/><path class="cls-1" d="M1400.55,33.37c-.18-.5-.3-1,.31-1.42Z" transform="translate(-5.8 -0.01)"/><path class="cls-1" d="M1486.43,36.67c-.36.08-.69.09-.68-.43l1.1-.27Z" transform="translate(-5.8 -0.01)"/><path class="cls-1" d="M1538.23,60l-.25.65c-.37-.37-.1-.63.06-.89A.24.24,0,0,1,1538.23,60Z" transform="translate(-5.8 -0.01)"/><path class="cls-1" d="M1538.23,60l-.19-.24v-.44c.33-.05.37.16.36.42Z" transform="translate(-5.8 -0.01)"/><path class="cls-1" d="M1452.42,22.58a1.37,1.37,0,0,0-.19-1l-.13-.21c.12-.61.63-.4,1-.49.11,1.13,1.09,2.12.49,3.35-.75.19-.77-.15-.51-.7S1452.87,22.75,1452.42,22.58Z" transform="translate(-5.8 -0.01)"/><path class="cls-1" d="M1454.78,18.74l.71-.25c.09.25.26.57-.09.69S1455,18.94,1454.78,18.74Z" transform="translate(-5.8 -0.01)"/><path class="cls-1" d="M1454.34,24.35c0,.19-.07.41-.28.43-.38,0-.33-.34-.46-.54Z" transform="translate(-5.8 -0.01)"/><path class="cls-1" d="M1508.53,14.2l.24.49h-.24l-.74-.18C1508,14.2,1508.32,14.34,1508.53,14.2Z" transform="translate(-5.8 -0.01)"/><path class="cls-1" d="M1463.91,30h.47c.7.33,1.1,1,1.7,1.44l.42.71c-.18.48-.88.45-1,1-.5.45-1.23.75-1.18,1.61h0c-.16.24-.54,0-.66.3s-.33.09-.51,0c-.39.36,0,.94-.36,1.3-.85.46-1.47,0-1.64-1.33a.41.41,0,0,1,0-.22c.14-.57-.68-1.13,0-1.7l.19-.2a.62.62,0,0,0,.09-.26,2.68,2.68,0,0,0,.13-.56,1.4,1.4,0,0,1,1.49-1.1c.3,0,.74,0,.6-.51a.37.37,0,0,1,.23-.47Z" transform="translate(-5.8 -0.01)"/><path class="cls-1" d="M1461.52,33.2a1.25,1.25,0,0,0,.27,1c.43.73,0,.71-.55.65a1.78,1.78,0,0,1-.71-.73l.07-.46C1460.84,33.34,1460.94,32.76,1461.52,33.2Z" transform="translate(-5.8 -0.01)"/><path class="cls-1" d="M1463.72,30.49c.38.61,0,.81-.51.8a1.55,1.55,0,0,0-1.46.87l-.1.18-.1-.18c0-.91.46-1.32,1.29-1.41A1.47,1.47,0,0,0,1463.72,30.49Z" transform="translate(-5.8 -0.01)"/><path class="cls-1" d="M1461.55,32.2h.2v.73a.16.16,0,0,1,.06.17s-.06.07-.08.07h-.22l-.92.45c-.1-.28-.7-.68.17-.73C1461.24,32.87,1461.37,32.48,1461.55,32.2Z" transform="translate(-5.8 -0.01)"/><path class="cls-1" d="M1515,70.35c-.32.34-.59.14-.86-.08l.17-.17.48.17A.54.54,0,0,0,1515,70.35Z" transform="translate(-5.8 -0.01)"/><path class="cls-1" d="M1456.06,74.91l.42.7a.67.67,0,0,1-.76-.41Z" transform="translate(-5.8 -0.01)"/><path class="cls-1" d="M1481.64,16.86c.31.38-.31.73,0,1.11-.49,0-.93,0-.68.73a2.08,2.08,0,0,0-.64.25,11.73,11.73,0,0,1-1.87,1.43c-.14.07,0,.35.12.52-.23.36.08,1-.49,1.17-1,.23-1.39-.15-1.49-1.39-.09-.29,0-.61-.16-.88-.08-.64-.46-1.34.45-1.76a.65.65,0,0,0,0-.75,2.36,2.36,0,0,1,.47-1.17h0l1-.08c.37-.65.77-1.27,1.67-.74a.3.3,0,0,0,.19.1c.71.11,1,.65,1.24,1.22Z" transform="translate(-5.8 -0.01)"/><path class="cls-1" d="M1476.89,17.29c.72.9-.48,1.57-.28,2.41-.43.13-.64-.08-.72-.48s-.4-1.07.5-1.2C1476.69,18,1476.83,17.61,1476.89,17.29Z" transform="translate(-5.8 -0.01)"/><path class="cls-1" d="M1461.22,35c.63.32.74,1.35,1.7,1.21.08-.16.14-.16.2,0s-.46.37-.43.71l-.25.22c-.7.4-.86-.29-1.2-.59.09-.49-.85-.46-.52-1.06C1460.8,35.29,1460.92,35.07,1461.22,35Z" transform="translate(-5.8 -0.01)"/><path class="cls-1" d="M1538.86,58.54c0,.22-.12.35-.31.31s-.14-.18-.12-.25a.35.35,0,0,1,.21-.23C1538.7,58.36,1538.8,58.49,1538.86,58.54Z" transform="translate(-5.8 -0.01)"/><path class="cls-1" d="M1463.13,36.26h-.2c0-.43-.15-.87.3-1.18Z" transform="translate(-5.8 -0.01)"/><path class="cls-1" d="M1514.79,84.29c-.56.89-1.56.35-2.28.71l-.09.07.13.16a.25.25,0,0,1,.18.24c-.13.26-.37.19-.59.19-.4-.23-.79-.52-.59-1s.58-.41.94-.35c.83.12,1.47-.58,2.29-.48C1515,84,1514.92,84.12,1514.79,84.29Z" transform="translate(-5.8 -0.01)"/><path class="cls-1" d="M1508.29,87.07c-.39.09-.73.1-.68-.45s.46-.66.9-.71.64.07.32.51C1508.63,86.62,1508.49,86.87,1508.29,87.07Z" transform="translate(-5.8 -0.01)"/><path class="cls-1" d="M1524.05,74.46c-.37.29-.74.54-1.24.28C1523.13,74.2,1523.64,74.44,1524.05,74.46Z" transform="translate(-5.8 -0.01)"/><path class="cls-1" d="M1539,79.51h-1a2.65,2.65,0,0,1,1.76-.64C1539.72,79.42,1539.31,79.39,1539,79.51Z" transform="translate(-5.8 -0.01)"/><path class="cls-1" d="M1515.5,74.9a.75.75,0,0,1-.93.17c-.4-.22-.21-.39.14-.45S1515.44,74.25,1515.5,74.9Z" transform="translate(-5.8 -0.01)"/><path class="cls-1" d="M1512.65,85.42c.21,0,.48-.14.57.13,0,.08-.21.26-.33.39s-.22.14-.33,0l-.42-.29Z" transform="translate(-5.8 -0.01)"/><path class="cls-1" d="M1517.31,84.61c.37-.46.68-.4,1.12-.35A1,1,0,0,1,1517.31,84.61Z" transform="translate(-5.8 -0.01)"/><path class="cls-1" d="M1491.94,90.33a.74.74,0,0,1-1,0C1491.3,90.2,1491.54,89.92,1491.94,90.33Z" transform="translate(-5.8 -0.01)"/><path class="cls-1" d="M1481.7,90.6c-.29.13-.54.36-.93.17C1481,90.3,1481.4,90.52,1481.7,90.6Z" transform="translate(-5.8 -0.01)"/><path class="cls-1" d="M1505.61,88.52c-.3,0-.56.34-.89.17-.1,0-.34-.11-.23-.3s.27-.08.42-.12S1505.57,87.9,1505.61,88.52Z" transform="translate(-5.8 -0.01)"/><path class="cls-1" d="M1515.5,74.9l-.79-.28a.87.87,0,0,1,1,0C1516.13,75,1515.59,74.81,1515.5,74.9Z" transform="translate(-5.8 -0.01)"/><path class="cls-1" d="M1508.29,87.07a1.24,1.24,0,0,1,.54-.65c.15.26.42.19.65.24.07.06.09.11,0,.14a.17.17,0,0,1-.1,0Z" transform="translate(-5.8 -0.01)"/><path class="cls-1" d="M1512.56,86h.33v.45l-.75.24C1512,86.2,1512.51,86.2,1512.56,86Z" transform="translate(-5.8 -0.01)"/><path class="cls-1" d="M1483.81,90a.74.74,0,0,1,0,.21l-.8.05C1483.28,89.91,1483.57,90,1483.81,90Z" transform="translate(-5.8 -0.01)"/><path class="cls-1" d="M1489.65,90.05c-.14.07-.23.16-.32.16s-.34,0-.23-.25a.37.37,0,0,1,.29-.14C1489.47,89.83,1489.54,89.94,1489.65,90.05Z" transform="translate(-5.8 -0.01)"/><path class="cls-1" d="M1484.89,89.46a2,2,0,0,1-.35.06c-.11,0-.27-.06-.13-.21s.23,0,.34,0S1484.83,89.39,1484.89,89.46Z" transform="translate(-5.8 -0.01)"/><path class="cls-1" d="M1514.79,84.29V83.8c.19-.06.5-.14.54,0C1515.41,84.2,1515,84.2,1514.79,84.29Z" transform="translate(-5.8 -0.01)"/><path class="cls-1" d="M1504,86.34v.28h-.6v-.15Z" transform="translate(-5.8 -0.01)"/><path class="cls-1" d="M1524.82,97.71c-.18.26-.4.38-.7.2A.66.66,0,0,1,1524.82,97.71Z" transform="translate(-5.8 -0.01)"/><path class="cls-1" d="M1497.3,89.2H1497a.38.38,0,0,1,0-.15,1,1,0,0,1,.29-.1A1.07,1.07,0,0,1,1497.3,89.2Z" transform="translate(-5.8 -0.01)"/><path class="cls-1" d="M1400.31,79l-.39-.43c.7.25,1.62-.19,2.14.65h-.76C1401,78.89,1400.65,79,1400.31,79Z" transform="translate(-5.8 -0.01)"/><path class="cls-1" d="M1423.82,75.81h.19a1.1,1.1,0,0,1-1.54-.12v0C1423,75.42,1423.39,75.76,1423.82,75.81Z" transform="translate(-5.8 -0.01)"/><path class="cls-1" d="M1409.3,80.61c.1-.14.16-.28.23-.29a.34.34,0,0,1,.42.21s0,0,0,.07-.15.21-.21.2A1.79,1.79,0,0,1,1409.3,80.61Z" transform="translate(-5.8 -0.01)"/><path class="cls-1" d="M1438.7,74.85l1.22.11c-.8.22-1.25.38-1.66-.06Z" transform="translate(-5.8 -0.01)"/><path class="cls-1" d="M1426.13,75.86l.08-.24c.23,0,.58.11.49.34S1426.34,76.09,1426.13,75.86Z" transform="translate(-5.8 -0.01)"/><path class="cls-1" d="M1403,141.1c.16.16.49.36.46.46-.12.46-.6.4-1,.51-.14-.3-.29-.6-.43-.91C1402.33,141,1402.64,141.12,1403,141.1Z" transform="translate(-5.8 -0.01)"/><path class="cls-1" d="M1399.26,162.12c-.28-.08-.44-.3-.33-.48s.27,0,.33.15A.91.91,0,0,1,1399.26,162.12Z" transform="translate(-5.8 -0.01)"/><path class="cls-1" d="M1512.61,128.87a4.21,4.21,0,0,0,.29-.51c.19-.39.81-.76.4-1.2s-.76.21-1.17.27c.24-.51.74-.77,1.1-1.16h.1c.28-.1.51-.11.49.29C1514.24,127.73,1513.56,128.37,1512.61,128.87Z" transform="translate(-5.8 -0.01)"/><path class="cls-1" d="M1433.9,129.62c-1.77,0-3.52-.91-5.29-.06-.18.18-.31.43-.59.5-.64,0-.52-.55-.55-.87a2.44,2.44,0,0,0-2.3-2.44c-.87-.16-.94-.49-.38-1.27a59.44,59.44,0,0,0,7.06.27h1.78c1.1-.06,1.71,1,2.67,1.22a3.72,3.72,0,0,0,.08.57c.46,1.37.3,1.68-1.09,2.1A2.35,2.35,0,0,1,1433.9,129.62Z" transform="translate(-5.8 -0.01)"/><path class="cls-1" d="M1424.79,125.48c.19.7.84.63,1.34.8,1.59.54,2.35,1.93,1.77,3.27a.5.5,0,0,1-.38.58h-.19c-2.13-.14-4.24.37-6.37.09a2.41,2.41,0,0,1-1.2-.5,3.91,3.91,0,0,1,2.12-3.89.53.53,0,0,1,.31.13h.91c.43-.08,1,0,1-.66A.76.76,0,0,1,1424.79,125.48Z" transform="translate(-5.8 -0.01)"/><path class="cls-1" d="M1422.19,126a4.23,4.23,0,0,0-2.43,3.59c-.14.22-.32.15-.51.08v-.07a10.24,10.24,0,0,1,1.6-3.62C1421.32,125.81,1421.77,125.2,1422.19,126Z" transform="translate(-5.8 -0.01)"/><path class="cls-1" d="M1419.25,125.2c-.08,0-.26,0-.18-.14s.22-.17.35-.23.14.08.14.12C1419.56,125.2,1419.4,125.2,1419.25,125.2Z" transform="translate(-5.8 -0.01)"/><path class="cls-1" d="M1501.33,142.34l1.2-.08a1.09,1.09,0,0,1-1.2.47C1501,142.65,1501.22,142.47,1501.33,142.34Z" transform="translate(-5.8 -0.01)"/><path class="cls-1" d="M1421.82,141.2a.6.6,0,0,1-.25.13c-.09,0-.25,0-.17-.18a.28.28,0,0,1,.18-.14C1421.7,141,1421.81,141,1421.82,141.2Z" transform="translate(-5.8 -0.01)"/><path class="cls-1" d="M1461.74,33.13a1,1,0,0,1,0-.24c.07.16.15.32.23.48C1461.75,33.45,1461.81,33.2,1461.74,33.13Z" transform="translate(-5.8 -0.01)"/></svg>