<svg id="レイヤー_1" data-name="レイヤー 1" xmlns="http://www.w3.org/2000/svg" viewBox="0 0 1558.97 216.95"><defs><style>.cls-1{fill:#0f0e0a;}.cls-2{fill:none;}.cls-3{fill:#1b1b1b;}</style></defs><title>mokuzi_drink</title><path class="cls-1" d="M8.8,214.1c-1.4-1-3.29-1.41-2.19-9.11l.69-6.6L7,193.29l.79-46.5-1.1-4a2,2,0,0,1,2.61-1c1.7.4,4.5-.2,12.6,1.5l6.8.9a25.69,25.69,0,0,1,11.5,3.3,73.34,73.34,0,0,1,9.8,7c3,3.1,6,5.7,8.9,8.7a21.13,21.13,0,0,1,4.5,9.1,81.65,81.65,0,0,0,1.6,10.3c.5,3.7.9,7.1,1.3,10.7-1.1,2-2,4.1-3,5.7a33.14,33.14,0,0,1-4.4,5.41c-1.6,1.59-5.4,4.59-12.4,6-4.5.9-8,.79-11.5,1.79a64.8,64.8,0,0,1-10.8,1.91,82.42,82.42,0,0,0-11.5,2.6A7.9,7.9,0,0,1,8.8,214.1Zm45.33-26.81-.2-7.7c-.2-2-.9-4.1-1.4-6.5a21.14,21.14,0,0,0-2.9-5.6c-1.7-1.7-3.1-3.5-4.8-5.2a50.78,50.78,0,0,0-5.4-4.3c-2-1-4-2-6.1-3a25.52,25.52,0,0,0-6.4-1.8,15.58,15.58,0,0,1-4.3.4,5.53,5.53,0,0,0-3.7,2.4l-1,6.7.7,3.1-.7,19.5.4,7.1-.2,9.2,1,1.4c3.6.41,7.4-1.9,11.4-2.9,3.4-1,6.9-1.3,10.9-2.4,4.3-1.1,6.6-3.7,10.2-5.5Z" transform="translate(-6.28 -0.04)"/><path class="cls-1" d="M78.2,212.9a26.35,26.35,0,0,1-1.7-6.71,28,28,0,0,1-.8-7v-7.4c.2-2.6.8-5.3,1.1-8.3.2-2.7.7-5.4,1.3-9.1a75.11,75.11,0,0,1,1.5-8l2.1-.4s2.41.7,3.91,1,2.4,1.7,3.5,2.4l.7,2.8s3.5-2.3,5-3a20.91,20.91,0,0,1,4.8-1.3,30.14,30.14,0,0,1,5.2-.3c1.3.3,3,.3,4.7.6a15,15,0,0,1,5.3,2.8l1.7,3.7a10.41,10.41,0,0,1-7.4,2.6l-2.5.6a36.24,36.24,0,0,1-5.7.3,12.29,12.29,0,0,0-5.2,1.7c-2,1-3.3,2.3-4.5,5.6a18.8,18.8,0,0,0-2.6,5.3c-.71,2-1.1,3.5-1.71,5.8a54.74,54.74,0,0,0-1.19,6.31c-.31,2.29-.6,4.29-.81,6.7a37.68,37.68,0,0,1-1.3,6.3l-2.5.3Z" transform="translate(-6.28 -0.04)"/><path class="cls-1" d="M131,212.6l-.5-27.21c0-15-.7-16-.9-17.7a3.78,3.78,0,0,1,3.8-1,21.82,21.82,0,0,0,4.5,1.7,10.22,10.22,0,0,1,4,2.3,14,14,0,0,1,2.5,6.7,13,13,0,0,0-2.2,4.4,39.75,39.75,0,0,0-.5,5l.3,3.6c-.3,3.1-.6,6.4-.6,9.4,0,0-.3,3.8-.6,6.81a24,24,0,0,1-3.5,8.4,3.81,3.81,0,0,1-3.71,1A6.55,6.55,0,0,1,131,212.6Zm1.7-62c-1.8-1.1-2.2-3.6-2.5-5.6a7.08,7.08,0,0,1,1.1-6.5c2.6,1,5.31,1.1,7.91,1.5,0,0,3.3,1.2,5.7,2.2l.6,3c-1.1.7-1.7,2.9-2.7,3.9-.9,1.3-2,2.4-5.3,2.8Z" transform="translate(-6.28 -0.04)"/><path class="cls-1" d="M164,214.69a12.62,12.62,0,0,1-3-6.7,27.83,27.83,0,0,1-1-7.7,29.8,29.8,0,0,1,1-9.4,54.58,54.58,0,0,0,1.2-7.4,70.7,70.7,0,0,1,.3-7.7,16.12,16.12,0,0,1-.3-3.1,28.67,28.67,0,0,0-1.2-5l.4-.7,1.7-.3c3.1,1.3,6,2.1,7.3,5.5a31.43,31.43,0,0,1,1.6,7.3,29.84,29.84,0,0,1,5.4-4.3c2-1.7,4-3.7,6.2-5.4,1.91-1.7,4-2,6.41-2.6s4.5-1.1,6.8-.7l2.3,1.3a35.92,35.92,0,0,1,4.1,9.4,58.61,58.61,0,0,1,1.9,10c.3,3.7.7,7.4.7,11l-.4,5.9.4,4a7.41,7.41,0,0,0-1.7,3.7,5.62,5.62,0,0,1-2.7,3.7l-2.2,1-3-1.7a22.54,22.54,0,0,1-2.3-6.31c-.3-2.39-.6-4.7-1-7.1a13.1,13.1,0,0,1-.3-4.5l.3-4.7a41.48,41.48,0,0,1-.3-6.3l-.9-6c-.3-2.1-1.2-4.6-3.4-5.7a38.66,38.66,0,0,1-5.81,5.7,20,20,0,0,0-5.6,6,36.35,36.35,0,0,0-4.1,7L171.1,207l.4,6.61a5,5,0,0,1-4.1,3.4Z" transform="translate(-6.28 -0.04)"/><path class="cls-1" d="M219.9,213.4a24.91,24.91,0,0,1-3.1-7.3,28.81,28.81,0,0,1-.9-8.11c.2-6,.9-12,1.3-18.4.3-6,.5-12,.9-18.3s.6-12.4,1-18.4l-.4-2.7c.6-.7,2.4-1.4,4.3-1.7a39.63,39.63,0,0,0,4.4-1.3l6,2.3a4.83,4.83,0,0,1,.8,4,12.43,12.43,0,0,0-2.9,6.4c.2,2.3-.2,5-.2,7.3a44.56,44.56,0,0,1-1.3,7.7l.8,14.4,1.3.7a71,71,0,0,1,8.5-5.4c2.2-1,3.9-2.3,6.2-3.6a45,45,0,0,0,6.3-4.1l7,4.7.31,2.7-2.31,2.4c-1.79,1.8-3.39,3.7-5.4,4.4-2.2,1-4,1.7-5.9,2.7s-3.3,2.9-4.8,4.5l-.4,1.2c2.1,2.7,5.1,5.2,7.4,7.5,2.1,2.4,4.3,4.7,6.5,7.1s4,4.6,6.41,7v1.7a9.16,9.16,0,0,1-6.61,1.3,13,13,0,0,1-5.2-2.3c-1.5-1-2.8-2.4-4.4-3.7-2.2-2.31-5.9-6.81-7.8-8.81a43.67,43.67,0,0,0-5.9-4.6l-2.1.2c-.4,2.3-1,5-1.4,7.4-.2,2.3-.5,5-.9,7.31a11.67,11.67,0,0,1-2.2,6.2l-2.1.3C221.4,215.8,219.7,215.1,219.9,213.4Z" transform="translate(-6.28 -0.04)"/><line class="cls-2" x1="316.97" y1="187.25" x2="1558.97" y2="187.25"/><polygon class="cls-3" points="1558.97 182.57 1558.38 182.3 1556.86 183.03 1558.97 182.57"/><path class="cls-3" d="M1555.25,184.23c.29.13.15.35.45.48l5.87-2.07C1559,181.46,1557,185,1555.25,184.23Z" transform="translate(-6.28 -0.04)"/><path class="cls-3" d="M1553.52,184a4.07,4.07,0,0,0-3.75.82C1550.57,184.08,1554,185.07,1553.52,184Z" transform="translate(-6.28 -0.04)"/><path class="cls-3" d="M1352.92,184.5c.24,0,.47,0,.71-.06A1.43,1.43,0,0,0,1352.92,184.5Z" transform="translate(-6.28 -0.04)"/><path class="cls-3" d="M1300.58,187.81l-.54.78c9.76-1.39,20.78,0,31.1-.58l-.69.27c26.2.3,50.37-1,76.37-1.59-.4.09-.54.32-1,.41a15.57,15.57,0,0,1,4.06-.7c.36.17-.4.36-.85.43,5.49,1.29,16.13-.81,19.56.18,1.54-.14,2.23-.67,1.37-1.08,20.35-.33,42.12-.57,62.85-1.58,1,.17,1.18.52.9,1,17.72-2.09,36.29-1.26,54.42-.92.69-.55-1.85-.58-.07-1.15-5.82-.68-10.67,1.34-16,.35l.68-.53c-3.84-.34-.78,1.33-4.77.65-1.57-.44.4-.67-.34-.71-8.17.21-16.7-.26-24.39,1-1.91-1.15-8.79,0-11.81-1.13-2.11.45-4.24.33-5,1.09-28.61-.6-57.84.51-87.15.42-13.71,2.22-30.14-.43-46.42.32-.11-.08-.09-.16,0-.23a145.66,145.66,0,0,1-19.37.53l-5.37.94c-38.11-1.93-77.06-.57-115.77-1.37-44-.56-82.53-2.16-125.37.77.06-.22-.29-.34.82-.43-12.37.45-23.63-.35-35.28.12v-.22c-28.89,1.83-60.13-.25-88,1.73-33.91-.2-72.24,0-108.13.56l.09-.44c-28.72.93-56.47-1.4-85.12-.7-29.47-1-60.59,2.52-90.31,1.19-18.39-2.17-42.54,2.47-59.81.23-35.48-3.38-69.89-1.2-105.37.82-32.72-1.2-65.39,1.89-97.08-.57-15,1.57-31.6-1.95-48.31-1.49l.59.54c-6-1.65-13.36,2.32-17.11-.14l.64-.11c-3.18-1.25-7.38,2.94-9.31,1.45l-.51.62c-3.85.18-.46-.7-3.42-.95-1.12.08-.43,1.13-2.76.77-.5-2.52-9.42.55-9.68-2.28,2.1,0-3.3-1.1,1.43-1.7-1.35-.29-7.79-.15-7.21,1.06-.55,1.27-3.07,2.39.84,3.37l.79-.93c1.32.93,1,.47,1.48,1.17,5.11.12,5.8,1.47,9.47,2,0,0-.08,0,0-.1,2.51-1.11,6-.45,8-.29l.8.51c1.2,1.09,5.82-2.11,4.26-.25,10.41-.47,22.33-.44,34-.47,1.62-.7,8.89.07,6.35-1.29,2.91,1.55,11.56,1.94,14.78,1.88-.12.15-.26.31-.76.26,6.23,2,7.38-1.87,13.22.59.91-1.73,10.61.56,13.91-1.49.72.39,1,.74.7,1,10.51,0,22.12.67,31,.74,7.6-1.52,18.4.7,24.94-1.41,5.41.45,14.17,1.32,21.73.48l-.73.26c8.53-.13,19.18-.24,25-1.56,2.53,2,6.21,1.61,9.9,2.26,5.69-.94,17.19-.66,25.88-1.51,1.33.93,7.17-.4,7.61,1,24.35-2.61,54.45-1.7,80.44.27l-.37.1c3.37-.74,7.26-2.38,10.69-3.34.34.12.3.34-.42.33,4.75-.25,9.19,1.08,13.93.83,0,.23,0,.23-.81.44,4.45-.6,9.2,1.08,14.45,0l.3.36,3.34-.5c-.08.45-.21,1.12-2,1,40.76.44,82.84-1.88,124.69-1.54L819,190l8.11-.76c0,.23-.43.34-.82.44,10.34.76,21.07-.51,31.14-.31,0,.21-1.57.64-.16.89,7.45-1.22,12,1.58,15.71-.95.35.12.58.69-.18.89,20.75-.83,42.06-.79,63-.38,17.41-2.29,36.86-.21,54.94-2l-.09.45c23.41-1.6,48.25.11,72.51-.21,10.08.19,16.88-.35,27-.38l.25.57c17-2.17,35.82,1.94,53.6-.44l-1.22.77c2.75-1.2,10.75.43,9.7-1.63l3.14.63c12.08-2.72,22,1.25,36.78-.51l-1,.48c3.94-.38,8.53-.68,11.44-.23-.45.07-.24.22-1.18.34,12.33,1.93,26-.2,39.06-.12l-1.48.9c6.29-1.06,17.82-.07,26.08-.56l-.5.43,4.18-.6.11.86C1280,188.65,1290.13,187.91,1300.58,187.81Z" transform="translate(-6.28 -0.04)"/><path class="cls-3" d="M1409.07,186.83H1409C1408.63,186.88,1408.79,186.87,1409.07,186.83Z" transform="translate(-6.28 -0.04)"/><path class="cls-3" d="M337.13,191.25c-.5-.06-.91-.11-1.32-.18C335.94,191.25,336.73,191.21,337.13,191.25Z" transform="translate(-6.28 -0.04)"/><path class="cls-1" d="M1484.07,110.24c-6.43.3-12.87.5-19.31.49l-16.08-.06H1448a15.82,15.82,0,0,0-2.92,0,3.85,3.85,0,0,1-1-.93,1.89,1.89,0,0,0-2.13-.55,1.88,1.88,0,0,1-1.65-.17,2.31,2.31,0,0,0-2.66.39c-.2.08-.54,0-.51.37a.76.76,0,0,1-.36.37c-.42.16-.82-.24-1.24,0h0c-.4-.44-1-.16-1.45-.37a1.69,1.69,0,0,0-1.76,0c-.3.18-.58,0-.85.07a127.62,127.62,0,0,1-15.7-2c-.06-.38.36-.39.48-.62a.64.64,0,0,1,.45-.1.51.51,0,0,0-.51.17,3.42,3.42,0,0,1-2.48,0,8.12,8.12,0,0,0-2.19-.33,26.37,26.37,0,0,1-4.21-.93,1,1,0,0,0-.24-.16c-.18-.13-.6.08-.55-.33s.37-.27.61-.3h.38a4.68,4.68,0,0,1,1.12,0,12.43,12.43,0,0,0,2.58.28h.24a13.5,13.5,0,0,0,2,.25l.23,0c1,.27,1.9-.13,2.86-.16,2.34-.21,4.69-.45,7-.64,3-.26,6-.43,9.09-.49a6.36,6.36,0,0,0,.75-.08,1.1,1.1,0,0,1,.64-.15c2.67,0,5.32-.4,8-.23a2.66,2.66,0,0,1,1.78.55c.25.28.6.2.91.21,1.23,0,2.46-.06,3.68.06a1.19,1.19,0,0,1,.26.11,1.71,1.71,0,0,0,1,.13h19.49a2,2,0,0,0,1-.11,1.15,1.15,0,0,1,.25-.12c1.23-.14,2.46,0,3.69-.07.31,0,.66.08.92-.2a2.3,2.3,0,0,1,.87-.36c1.3-.09,2.6,0,3.91,0a4.66,4.66,0,0,0,1.12-.08c1.33.11,2.68,0,4,.09a1.13,1.13,0,0,1,.41,0,2.83,2.83,0,0,0,.82.09,79.09,79.09,0,0,1,8.29.44,12.16,12.16,0,0,0,1.35,0h.26a2.56,2.56,0,0,0,1,.12h.47a7.26,7.26,0,0,0,1.54.16c.42.11.86.09,1.28.18a1.57,1.57,0,0,1,.42.18c.28.26.7.16,1,.36.14.42-.39.45-.44.75a2.12,2.12,0,0,1-.38.47,3.79,3.79,0,0,0-1.38,2.12c-.47.07-.93.35-1.41,0l-7.65.52a19.26,19.26,0,0,1-2.4.09.92.92,0,0,1-.52,0,2.06,2.06,0,0,0-1.81.09h-.15A8.39,8.39,0,0,0,1484.07,110.24Z" transform="translate(-6.28 -0.04)"/><path class="cls-1" d="M1461.54,71.45c-1.79-4.22-5.3-6.67-9.09-8.83a68.93,68.93,0,0,0-6.67-3.31,2,2,0,0,0-.35-.11,2.11,2.11,0,0,1-.86-.36,10.49,10.49,0,0,1-1-1,.75.75,0,0,1,.22-1,.81.81,0,0,1,1-.08c.47.22.93.5,1.45.15a2.76,2.76,0,0,0,.65-.36c.76-.55.82-1.09.12-1.7-.4-.34-.29-.57,0-.84a1.47,1.47,0,0,0,.56-1.17c0-.37-.14-.55-.48-.21a6.47,6.47,0,0,1-.87.94.68.68,0,0,1-1,.1l-.1-.1a.62.62,0,0,1,0-1l.37-.38c.61-.63.61-.63-.09-1.15,0-.54.35-.51.71-.49l.21.06c.3.12.6.26.84-.1s-.12-.52-.24-.75c-.19-.77.44-1.08.9-1.37a1.49,1.49,0,0,0,.68-.91c.08-.15.31-.18.33-.39a8.41,8.41,0,0,1,2-1.76,4.38,4.38,0,0,1,1-.82,12.35,12.35,0,0,0,2.6-2.06,1.18,1.18,0,0,0,.28-.5,1.22,1.22,0,0,1,.7-.62l.19-.15c.21-.13.39-.32.6-.45a1.79,1.79,0,0,0,.76-.6,6.12,6.12,0,0,1,1.83-1.49h0a3.38,3.38,0,0,1,1.19-.93h0l.14-.12a.55.55,0,0,0,.34-.27.78.78,0,0,1,.42-.36h0a1.35,1.35,0,0,1,.44-.45,11.24,11.24,0,0,0,1.71-2c.61-.25.71-.83.86-1.37h0a2,2,0,0,0,.59-1.26.71.71,0,0,1,.23-.55c.28-.22.44,0,.63.16a16.16,16.16,0,0,1,1.86,1.84c.19.25.58.36.5.78a11.67,11.67,0,0,1-1.7,3.38c-.13.36-.23.74-.68.83a6.46,6.46,0,0,0-1.5,1.45c-.25.27-.67.47-.69.93a8.73,8.73,0,0,1-1.35,1.5c-.55.26-.73.89-1.21,1.21a2.09,2.09,0,0,0-1.17,1.42.08.08,0,0,1-.06.09,2.26,2.26,0,0,0-.43.67c0,.28-.26.4-.46.54s-.15.15-.16.26a.37.37,0,0,1-.13.17,2.14,2.14,0,0,0-1.06,1.57c0,.31-.28.49-.46.72a1.13,1.13,0,0,0-.35.58.41.41,0,0,1-.22.33.09.09,0,0,0,0,.1c-.08.22,0,.51-.29.64h0a5.75,5.75,0,0,1-.86,1.8,6.25,6.25,0,0,0-.66,4.34,2.39,2.39,0,0,0,1,1.56l1.32,1.21a2.45,2.45,0,0,0,1.36,1.07,10.4,10.4,0,0,1,1.66,1.52c.15.62.69.93,1.1,1.33.18.26.17.65.54.78a.73.73,0,0,0,.32.48,2.94,2.94,0,0,0,.6,1.18,15,15,0,0,1,1.43,7.74,27.18,27.18,0,0,1-1.61,7.71c-.08.23-.11.5-.38.62a.93.93,0,0,1-.5-1.07,2.37,2.37,0,0,1,.3-1,8.26,8.26,0,0,0,.81-4,12.77,12.77,0,0,0-.39-4.35C1461.73,71.25,1461.58,71.59,1461.54,71.45Z" transform="translate(-6.28 -0.04)"/><path class="cls-1" d="M1468.51,175.19h-.41c-.17-.31-.44-.15-.66-.11l-2.4.36a93.74,93.74,0,0,1-9.48.48q-6.64.15-13.27-.29a2.82,2.82,0,0,1-1-.15,1.45,1.45,0,0,0-.58-.46c-.46-.18-.53-.56-.1-.8a.9.9,0,0,0,.52-.82c0-.36.31-.47.58-.62.63-.35,1.33-.61,1.54-1.44.07-.29.12-.53-.1-.76a.4.4,0,0,1,0-.65c.57-.22,1.18,0,1.76-.18a9.44,9.44,0,0,0,1.68.06,6.39,6.39,0,0,1,1.38.07,1.11,1.11,0,0,0,.44.08c1.83-.08,3.65.24,5.48.16,2-.08,4,.31,5.93.14,2.22-.19,4.45-.06,6.67-.21a3.19,3.19,0,0,0,1.27,0c2.5-.17,5-.28,7.51-.51,3.13-.29,6.24-.65,9.36-1,1.65-.19,3.29-.43,4.93-.65.23-.06.43-.07.33.26a1.19,1.19,0,0,1-.41.53,2.49,2.49,0,0,0-.94,3.15.83.83,0,0,1-.68.78c-.21.06-.45.06-.58.28a1.11,1.11,0,0,1-.29.14l-2.79.34c-2.44.13-4.86.55-7.29.83-1,.11-1.9.12-2.83.26C1472.27,174.8,1470.36,174.78,1468.51,175.19Z" transform="translate(-6.28 -0.04)"/><path class="cls-1" d="M1406.18,122.63c.8,1.49,1.59,3,2.4,4.49a85.22,85.22,0,0,0,6.3,9.74c.14.44.18.95.78,1l.6.88c.1.2,0,.34-.15.46-1.32,1.31-2.61,2.65-4,3.93a1.14,1.14,0,0,1-.38.23h-.21a8.92,8.92,0,0,1-2-1.88,1.36,1.36,0,0,1-.63-.87,3,3,0,0,0-.87-1.1h0c-.12-.35.13-.93-.59-.9,0,0-.06,0,0-.08a.74.74,0,0,0-.32-.5,37.3,37.3,0,0,1-3.61-6.92c-.15-.12.19-.18,0-.44a1.39,1.39,0,0,1-.3-1.52.75.75,0,0,0,.09-.62,1,1,0,0,1,0,.53c-.16.22-.29.37-.43,0-.36-.94-.7-1.88-1.12-2.79a29.05,29.05,0,0,1-1.51-5.72,50.61,50.61,0,0,1-.74-13.57c.07-1,.21-1.9.29-2.85a.92.92,0,0,1,.42-.66,8.78,8.78,0,0,1,3.13-1.41,43.89,43.89,0,0,1,7.94-1.63c.47.06,1-.12,1.34.42s.45.5-.23.68a14.86,14.86,0,0,1-2.83.2c-.33,0-.28.15-.25.35a44.88,44.88,0,0,0-5.86,1.24c-.24.13-.58,0-.77.3h0a.82.82,0,0,0-.62.44,22.66,22.66,0,0,0-.06,4.51,28.58,28.58,0,0,0,1.82,8.1,2.22,2.22,0,0,1,.09.37,2.42,2.42,0,0,0,.61,1.64h0c.19.34-.09.86.41,1.09a.49.49,0,0,1,.18.4c.09.22,0,.5.3.64h0A5.26,5.26,0,0,0,1406.18,122.63Z" transform="translate(-6.28 -0.04)"/><path class="cls-1" d="M1411.72,143.34l4.54-4.56a27.58,27.58,0,0,1,2,2.37c.17.18.27.43.52.53a1,1,0,0,1,.45.6.79.79,0,0,0,.45.46c.61.24.83.84,1.18,1.31a2.17,2.17,0,0,0,1.08,1.26h0a1.92,1.92,0,0,0,.57.6l.64.65a3.74,3.74,0,0,0,.87.86,6.66,6.66,0,0,1,1.26,1.17c0,.11,0,.19-.09.23a.17.17,0,0,1-.1,0c.15.09.41-.07.59.12l.18.17c.2.27.22.76.75.61a.45.45,0,0,1,.17.11h0a.66.66,0,0,1,.12.17.66.66,0,0,0,.66.68h.07a.28.28,0,0,1,.16.12,5.38,5.38,0,0,0,2.32,1.9h0c.1.32.36.4.65.45a64.49,64.49,0,0,0,10.52,6.4c.5.65,1.31.73,2,1a15.09,15.09,0,0,1,2.87,1.29,15,15,0,0,1-2,2.28.83.83,0,0,1-.35.06,14.34,14.34,0,0,1-1.58-.47h0a1.4,1.4,0,0,1-.77-.26l-2.58-.88a2.3,2.3,0,0,0-1.61-.52.46.46,0,0,1-.19-.08c.06-.22.06-.22-.48-.24a.33.33,0,0,1-.15-.11c-.15-.37-.36.08-.53,0-.41,0-.72-.31-1.1-.42-.88-.42-1.74-.89-2.64-1.22a6,6,0,0,1-1-.45,2.55,2.55,0,0,1-1.06-.57,32.18,32.18,0,0,1-3.64-2.11,6.84,6.84,0,0,0-1.82-1.08l-.27-.19a1,1,0,0,0-.79-.55h0a2.52,2.52,0,0,0-1.07-.78l-.3-.26c-.18-.19-.43-.29-.62-.46a37,37,0,0,1-2.74-2.56c-2.18-2.33-4.52-4.52-6.75-6.8C1411.93,143.92,1411.63,143.73,1411.72,143.34Z" transform="translate(-6.28 -0.04)"/><path class="cls-1" d="M1414,170.4a72.57,72.57,0,0,1-7.24-3c-.17-.09-.32-.2-.49-.3a.87.87,0,0,0-.47-.3h0c-.13-.28-.41-.22-.62-.31a.08.08,0,0,1-.11,0,.92.92,0,0,0-.77-.54.47.47,0,0,1-.46-.3c-.16-.06.31-.28-.12-.33s-.68-.4-1.07-.52a2.66,2.66,0,0,1-.91-3.12.08.08,0,0,0,0-.11c.13-.18,0-.47.24-.59a.9.9,0,0,0,.63-.54,3.44,3.44,0,0,1,2.44-.27,33.44,33.44,0,0,0,6-.31c.2,0,.45-.22.49.18a7,7,0,0,0-1.82,1.52,1.49,1.49,0,0,0,.21,2.1l.11.08a6.4,6.4,0,0,0,2.34,1.29c.26.12.6,0,.78.32h0a2.94,2.94,0,0,1,1.54.53c1.57.55,3.23.79,4.83,1.24a9.55,9.55,0,0,0,4.09.73l6.14.86c.62.09,1.24.15,1.86.22,0,.41-.4.11-.5.25,1.81-.19,3.58.29,5.37.36.1.42-.22.45-.49.48a3.54,3.54,0,0,0-1.16.25,5.4,5.4,0,0,1,1.27,0,.61.61,0,0,1,.64.54.63.63,0,0,1-.49.68c-.5.11-.64.51-.92.86a2.85,2.85,0,0,1-2.2,1.33c-.49,0-1.07-.21-1.43.38a.48.48,0,0,1-.2.14,3.06,3.06,0,0,1-1.61-.2c-1.18-.38-2.43-.25-3.6-.62-.26-.08-.59.05-.76-.32-.07-.17,0,.06-.1.09a.89.89,0,0,1-.78,0,22.22,22.22,0,0,1-3.33-.73,6.16,6.16,0,0,0-2.89-.69c0-.25-.17-.26-.39-.32a2.82,2.82,0,0,0-1.32-.12A11.48,11.48,0,0,1,1414,170.4Z" transform="translate(-6.28 -0.04)"/><path class="cls-1" d="M1509,132.47l-1.6,2.39a.81.81,0,0,1-.54.77l-4.38,5.72a3.26,3.26,0,0,1-.31.33,8.7,8.7,0,0,0-2.14,2.5c-.15.32-.52.47-.64.82a1.31,1.31,0,0,1-.71.89l-.14.15a1.15,1.15,0,0,1-.42.48h0a2.85,2.85,0,0,0-.42.43l-.17.18a1.29,1.29,0,0,0-.58.62c-.16.41-.64.58-.78,1-.38.33-.7.72-1.08,1.06h0a1.16,1.16,0,0,1-.57.43,2,2,0,0,0-1.2,1.16,44.55,44.55,0,0,1-3.83,3.44c-.16.12-.36.19-.43.4a5.24,5.24,0,0,1-2.09,1.57c-1.09.74-2.19,1.49-3.3,2.23a1.41,1.41,0,0,1-.72.36c-.63,0-.79-.63-1.2-.91a2.39,2.39,0,0,1-.86-1.1,8,8,0,0,1,1.85-1.19,12.1,12.1,0,0,0,3.33-2.39h0l.18-.11a2.79,2.79,0,0,0,1-.58,7.38,7.38,0,0,1,1.44-1.17c.24-.11.21-.38.26-.59a1.11,1.11,0,0,1,.79-.71c.33-.09.76-.06.75-.58a.72.72,0,0,1,.32-.25c.54,0,.72-.42.84-.86a32.34,32.34,0,0,1,2.69-2.8c.29-.27.57-.55.85-.84.67-.54,1-1.41,1.8-1.81a8.63,8.63,0,0,0,1.93-2.07,1,1,0,0,0,.35-.57.29.29,0,0,1,.13-.14c.41-.34.92-.59,1.06-1.17a.24.24,0,0,1,.12-.14c.36-.18.67-.4.61-.88a3.36,3.36,0,0,1,.6-.7,26.7,26.7,0,0,0,1.83-2.27.38.38,0,0,1,.22-.32c1.2-1.53,2.4-3.05,3.59-4.58.24-.32.46-.66.67-1,.1-.13.14-.33.34-.38a1.49,1.49,0,0,1,1.16.71c.09.09.16.28.1.34-.47.41-.21,1.4-1.14,1.45-.07,0-.13.08-.17.16C1508.48,132.18,1508.9,132.17,1509,132.47Z" transform="translate(-6.28 -0.04)"/><path class="cls-1" d="M1529.81,127.27c0-1.65.16-3.3.09-5a31.35,31.35,0,0,0-1-6.6c.3-.36.2-.82-.27-1.25-.64-.58-.58-1.13.22-1.62a6.7,6.7,0,0,1-1,0c-.37-.06-.71-.26-.72-.65s.38-.3.63-.37c.07,0,.15,0,.18-.11-.2-.16-.43-.06-.64-.07s-.38,0-.41-.13a1.14,1.14,0,0,0-.91-1c-.09,0-.09-.18,0-.26a.51.51,0,0,1,.46-.2c.24,0,.3-.1.22-.3.29-.39.75-.44,1.16-.6a4.34,4.34,0,0,1,4.53,1.36,2,2,0,0,1,.11.72.74.74,0,0,1,0,.21c-.1.46.2.71.53.91a1,1,0,0,1,.49.94,5.3,5.3,0,0,0,.63,2.37c.17.33.29.62-.22.73s-.41.33-.4.62c0,2.39-.09,4.78.06,7.16a19,19,0,0,1-.1,4.94,1.48,1.48,0,0,1-.66,1,.88.88,0,0,0-.46,1c0,.43.13.86-.38,1.1-.13.06-.11.2-.13.33-.08.49.18,1.25-.83,1.08-.16,0-.15.28-.23.42-.18.34.4.73-.09,1h0c.48.32.48.33.11.76a5.61,5.61,0,0,1-1.43,1.32c-.12,0-.33,0-.26.22-.34.48-.62,1-1.29,1.12a1.71,1.71,0,0,1,.07-1.64,4.7,4.7,0,0,0,.54-1.86.52.52,0,0,1,.15-.46,1.38,1.38,0,0,0,.44-.84,26.86,26.86,0,0,0,.63-4,.08.08,0,0,1,0-.11.19.19,0,0,1,.28,0c.08.08.14.17.23.25-.08-.16-.25-.22-.32-.37A9.84,9.84,0,0,1,1529.81,127.27Z" transform="translate(-6.28 -0.04)"/><path class="cls-1" d="M1480.86,157.4l2.06,2a24.87,24.87,0,0,1-3.84,2.22,8.33,8.33,0,0,1-.82.34c-.22.1-.5.1-.66.31h0a7.84,7.84,0,0,0-2.13.9,30,30,0,0,1-4.9,1.65,45,45,0,0,1-12.33,1.35,10.24,10.24,0,0,1-2.82,0q-.68-.07-1.35-.09a3.48,3.48,0,0,1-.79,0c-1.28-.23-2.58-.3-3.85-.56a3.74,3.74,0,0,1-1.23-.33c-.12-.13-.21-.3-.43-.35s-.33-.34-.24-.62a1.27,1.27,0,0,1,.18-.27c.42-.34.83-.73,1.3-.56a4.74,4.74,0,0,0-1.76.13.66.66,0,0,1-.19.09c-.2,0-.43.08-.41.38a.7.7,0,0,1-.2.22.54.54,0,0,1-.76-.05l0,0c-.12-.15-.19-.35.08-.39s-.07-.22,0-.29a.56.56,0,0,1,.39-.37.75.75,0,0,0,.5-.11c.88-1,1.88-.53,2.86-.26a2.38,2.38,0,0,0,.37.06,43.12,43.12,0,0,0,5.06.73h.56a22,22,0,0,0,4.13.39,7.8,7.8,0,0,0,2.53-.46c.34-.06.68,0,1-.07a8.94,8.94,0,0,0,2.36-.25c.68-.2,1.38.09,2.09,0-.35,0-.71.21-1-.17a.39.39,0,0,1,.31-.17,7.72,7.72,0,0,0,3.63-.78h0a5.76,5.76,0,0,0,2.28-.73c1-.45,2.07-.94,3.14-1.33.56-.21,1-.58,1.55-.8a.93.93,0,0,0,1-.52,5,5,0,0,1,2-1.12Z" transform="translate(-6.28 -0.04)"/><path class="cls-1" d="M1503.25,106a2.53,2.53,0,0,0,2,.13,22,22,0,0,0,2.51-.76c.29-.48.93-.41,1.26-.82s-.07-.85-.47-1.08a1.59,1.59,0,0,1-.64-.48,34,34,0,0,0-7.18-1.57c-3-.39-6-.77-9.07-.87-1.32-.12-2.66,0-4-.22a4.77,4.77,0,0,0-1.92,0,1.18,1.18,0,0,1-1-.15,1,1,0,0,0-.66-.31c-1.56.06-3.08-.42-4.65-.33-.88.05-1.23-.74-1.72-1.29,0-.18,0-.35.29-.27,2.25-.06,4.49.15,6.73.31a20.16,20.16,0,0,0,2.2.16h.52c.28.18.64-.06,1,.21-.32.34-.63.18-.93.14,1.48.11,3-.33,4.44-.07a40.52,40.52,0,0,1,4.91.44,3,3,0,0,0,1.38.28c2.15.13,4.28.43,6.41.69l3.11.41a2.21,2.21,0,0,0,.88.15c.28.28.88.11,1,.68a1.51,1.51,0,0,1-.52.72.65.65,0,0,0-.19.9.58.58,0,0,0,.19.19c1,.88,1,1.08.12,2.08a.61.61,0,0,0-.23.37,3.65,3.65,0,0,0,2.17,0,4.51,4.51,0,0,1,2.86,0,1.76,1.76,0,0,0,1.37.1.75.75,0,0,1,.65.1.53.53,0,0,1,.19.41c-.4.53-1,.36-1.58.55h0a6.79,6.79,0,0,1-2.46.6c-1.72.27-3.45.52-5.17.82-1.31.23-2.64.31-4,.44-.43-.06-.17-.28-.12-.46.41-1,.91-1.19,2.14-.82a2.37,2.37,0,0,1-1.42-.63.8.8,0,0,0-1.13-.09h0c-.34.29-.64-.18-1-.15-.16,0-.32.1-.48,0,0-.4.45-.35.6-.6.35-.23.75,0,1.11-.13A.45.45,0,0,1,1503.25,106Z" transform="translate(-6.28 -0.04)"/><path class="cls-1" d="M1467.13,33.53c-.66-.65-1.32-1.3-2-2a.51.51,0,0,0-.39-.15c1.91-5.39,1.71-11,1.52-16.55-.06-1.69-.28-3.36-.2-5a12.37,12.37,0,0,0,0-2.72,14.84,14.84,0,0,1,.54-4.4c.64.06.52.58.54,1a11.58,11.58,0,0,0,.26,2.69v.25a1.8,1.8,0,0,0,.11,1c.5,4.81,1.4,9.57,1.61,14.42a48.59,48.59,0,0,1-.22,8,.86.86,0,0,1-.17.56,2.94,2.94,0,0,0-.42,1.28A2.32,2.32,0,0,1,1467.13,33.53Z" transform="translate(-6.28 -0.04)"/><path class="cls-1" d="M1501.13,165.86h.83c1-.06,1.89-.44,2.86-.51a1.64,1.64,0,0,0,.81-.38.06.06,0,0,1,.08,0l0,0c.41-.11.87,0,1.25-.26a3.08,3.08,0,0,1,1.19-.34c.35-.11.79.08,1.06-.31h0c.67-.19,1.45,0,2-.59a51.83,51.83,0,0,0,6.35-2.53c.46-.25.9-.54,1.35-.81a.81.81,0,0,1,.41.32,3.68,3.68,0,0,1-1.6,3c-.25.13-.53.19-.78.32s.16.18,0,.26l-.19.15c-.3,0-.41.24-.56.43a.1.1,0,0,1-.11,0,7.45,7.45,0,0,0-2.16,1.18h0a19.17,19.17,0,0,0-2.72,1.26c-.84.13-1.58.59-2.44.64a.66.66,0,0,0-.48.33,25.07,25.07,0,0,1-3.76,1.24.76.76,0,0,1-.9-.13c-.88-.89-1.82-1.74-2.64-2.69a.51.51,0,0,1-.16-.48C1500.87,165.89,1501.05,165.94,1501.13,165.86Z" transform="translate(-6.28 -0.04)"/><path class="cls-1" d="M1412.32,101.49c.11-.16.31-.12.45-.17a2.5,2.5,0,0,0-1.5-.88,57.07,57.07,0,0,1,6.52-.89l1.34-.15a.83.83,0,0,0,.75,0c1.87-.2,3.73-.46,5.6-.59,6.44-.43,12.89-.8,19.34-1h.6c2.08,0,4.16.08,6.25-.07a2.23,2.23,0,0,1,.89.06c0,.38.17.17.33.16a8.44,8.44,0,0,1,1.42.06.41.41,0,0,1,.44.35c0,.23-.25.31-.43.31-1.13,0-2.25.2-3.38.12a6.82,6.82,0,0,0-.9-.07c-3.34,0-6.68-.18-9.4-.09h4.87c.29,0,.72-.13.69.43-.25.28-.59.22-.91.22h-2.91a1.31,1.31,0,0,0-.8.13,3.45,3.45,0,0,0-.26.28h-.19c-1.18.09-2.37-.32-3.52,0s-2.37,0-3.51.34l-7,.43c-.7,0-1.39.12-2.09.19a11.39,11.39,0,0,0-2,.31c-.65.22-1.33-.29-2,0-1.63,0-3.23.34-4.86.34-.45.17-1-.09-1.4.16a5.24,5.24,0,0,1-1.63.13A1,1,0,0,1,1412.32,101.49Z" transform="translate(-6.28 -0.04)"/><path class="cls-1" d="M1529.13,137.15a11.08,11.08,0,0,0,1.86-2c-.41-.14-.53.18-.74.3v-.14c.54-.34.25-.86.27-1.31,0-.28,0-.53.33-.69s.38,0,.4.31c.16-.46.61-.78.22-1.28-.11-.14,0-.36.24-.37.49,0,.43-.25.42-.64s-.47-1.25.65-1.45c.41-.08.69-1.09.58-1.63-.17-.78.31-1.43.17-2.16-.58-3-.15-6-.29-8.94,0-.61,0-1.18.94-1-.52-.35-.47-.91-.74-1.33a2.54,2.54,0,0,1-.2-1.56.65.65,0,0,0-.4-.77c-.42-.24-.94-.6-.5-1.26,0,.1-.09,0,0,0s0,0,0,0c0-.26-.21-.51,0-.76a8.31,8.31,0,0,1,2.11,4.68,30.5,30.5,0,0,1-.08,9,4.38,4.38,0,0,1-.2,1.48c-.23.12-.06.28,0,.42a53.58,53.58,0,0,1-1.8,7.71,1.79,1.79,0,0,1-.34,1h0a2.67,2.67,0,0,1-.62,1.52h0a8.71,8.71,0,0,1-1.53,3,20.71,20.71,0,0,1-1.74,2.3c-.21.12-.45.13-.64.38a1.76,1.76,0,0,1-1.12.89c-.31,0-.64-.09-.62.37s-.55.06-.65.51-.7.19-1.06.34-.74-.17-1-.45a.39.39,0,0,1-.12-.34c.25-.5.75-.74,1.14-1.1.72-.56,1.09-1.42,1.81-2,.46-.43.82-.93,1.26-1.37.19-.2.35-.48.71-.44l1.21-1.21A.13.13,0,0,1,1529.13,137.15Z" transform="translate(-6.28 -0.04)"/><path class="cls-1" d="M1526.66,109.81c0,.2.13.3.4.35-.41.2-.78,0-1.13.24.25.24.52.11.74.17s.55.25.27.56,0,.38.21.39a3.3,3.3,0,0,0,.75,0c.25,0,.41,0,.4.32s-.19.27-.37.28l-.76.05a.81.81,0,0,0,1,.57h0a8,8,0,0,1,1.2,0c-.06.36-.31.26-.49.31-.57.17-.76.61-.41,1.09a6,6,0,0,0,.88.94c.11.11.17.21.12.31s-.26.51-.62.38a9.94,9.94,0,0,0-1.48-2.59c-.25-.24-.51-.46-.77-.69s.37-.42,0-.61-.52.15-.77.29a5,5,0,0,0-3.85,1.65c-.46.42-.87.89-1.3,1.33a1.69,1.69,0,0,0-.56.63l-2.46,3.6c-.42.08-.41.49-.55.77a.17.17,0,0,1,0,.14c-.16.19-.4.34-.42.63l-3.8,6a.8.8,0,0,1-.3.44c-.67.18-.73.91-1.16,1.31a1.61,1.61,0,0,0-.62,1.23,21.85,21.85,0,0,1-1.81,2.66c-.28-.12-.55-.26-.83-.35s-.14-.18-.07-.26.36-.48.72-.46.5-.13.39-.32c-.25-.44-.32-.68.32-.71.09,0,0-.27-.09-.38a2.28,2.28,0,0,0-1-.7c-.11-.49.44-.56.57-.89h0a3.19,3.19,0,0,1,.93-1.19h0a2.65,2.65,0,0,1,.92-1.22l3.25-4.26c.53.16.07-.41.33-.45l2.44-3.26a.91.91,0,0,1,.29-.51l.29-.31a4.6,4.6,0,0,1,1-1.2l2.91-3.1a1.53,1.53,0,0,1,.57-.53l.31-.31a1.13,1.13,0,0,1,.59-.44l.17-.15c.14-.1.29-.21.44-.3h0a4,4,0,0,1,1.66-1h.12C1525.76,110.1,1526.13,109.63,1526.66,109.81Z" transform="translate(-6.28 -0.04)"/><path class="cls-1" d="M1516.13,106c-1.25.46-2.38-.36-3.61-.32a14.46,14.46,0,0,1-2.63.35,1.85,1.85,0,0,1-1.28-.51,1.84,1.84,0,0,0,.86-.7c.51-.8.5-.85-.34-1.37a.85.85,0,0,1-.39-1.14.92.92,0,0,1,.29-.33c.22-.2.4-.44.6-.66a.41.41,0,0,1,.33-.25c.68-.11,1.3.38,2,.22.84.29,1.75.25,2.6.56a17.21,17.21,0,0,1,3.4,1.35c.47.29,1.08.61,1,1.3a1.62,1.62,0,0,1-1.26,1.25C1517.13,105.75,1516.66,106.31,1516.13,106Z" transform="translate(-6.28 -0.04)"/><path class="cls-1" d="M1451,98.63c1.21-.11,2.41-.2,3.64-.24a6.07,6.07,0,0,0-2.32-.24l.34-.27c.23-.14.48-.06.73-.06a7.79,7.79,0,0,0,1.93,0,.82.82,0,0,1,.44,0c.43.4-.21.41-.24.65.31.14.62.07.66-.24s-.35-.32-.58-.44a27.65,27.65,0,0,1-4.64-.09,42.91,42.91,0,0,1,4.81-.11c6,0,11.9,0,17.84.16,1.5,0,3,.16,4.49.24a.32.32,0,0,0-.21.33c-.34.46-.85.38-1.31.38h-7.45c-.36,0-.84-.15-1,.39a.49.49,0,0,1-.25.33h-11.65a3.75,3.75,0,0,0-.82,0h-.16l-.11-.1c-.12-.07-.22.08-.33,0l-.2-.09c-1.14-.15-2.28,0-3.41-.11A.61.61,0,0,1,1451,99,.38.38,0,0,1,1451,98.63Z" transform="translate(-6.28 -0.04)"/><path class="cls-1" d="M1424.7,173.1c1.44-.41,2.78.43,4.23.37.86,0,1.76.6,2.81.59a12.86,12.86,0,0,0,2.15,0c-.81-.5-1.53.39-2.15,0-.14-.51,0-.71.51-.67a9.37,9.37,0,0,0,1.06,0c.33,0,.72.11.81-.42,0-.21.3-.12.44-.19.33-.18.74-.28.74-.81a.65.65,0,0,1,.59-.69h.15a.54.54,0,0,0,.59-.49v0c0-.26-.31-.39-.63-.39a5.64,5.64,0,0,1-1.83-.13c.6-.17,1.12-.58,1.79-.48.22,0,.48,0,.53-.27a.7.7,0,0,1,.66,0h1a.18.18,0,0,1,.2,0c.19.32.37.51.81.29a1.2,1.2,0,0,1,1.44.08.41.41,0,0,1,0,.22c-.08.26-.62.45-.3.71s.43-.31.67-.46l.12-.1a.66.66,0,0,1,.19-.09c.44-.08.88-.11,1.11.38s-.14.79-.41,1.11-.65.48-.66,1a5.61,5.61,0,0,0,2-1.93c.5-.2.32.12.28.36a2.75,2.75,0,0,1-1.86,2c-.15.07-.37.05-.39.28,0,.47,0,1-.67,1-.07,0-.17.26-.16.38s.2.13.31.12c.49,0,.53.26.5.62h-1.47c-.24-.12-.51,0-.76-.08-.09-.5.38-.64.62-.92a3.28,3.28,0,0,0,.83-1.12c-.51,0-.66.37-.93.57s-.53.63-1,.34-.32-.72-.12-1.13.23-.55.33-.84c.2-.57-.12-.92-.52-1.21a.9.9,0,0,0-1.18,0,5,5,0,0,0-1.12,1.22c.51,0,.67-.32.91-.52s.68-.6,1.12-.26a.8.8,0,0,1,.1,1.1,1.64,1.64,0,0,0,.09,2.2.25.25,0,0,1,0,.35.2.2,0,0,1-.12.08.83.83,0,0,1-.54,0,3.81,3.81,0,0,1-1.33-1.06c-.28-.26-.53-.54-.81-.8s-.44-.26-.64,0,0,.43.27.53a1.41,1.41,0,0,1,.7.55c.13.18.19.37-.1.47a.76.76,0,0,1-.42-.09c-3.27-.35-6.5-1-9.73-1.58A1.88,1.88,0,0,1,1424.7,173.1Z" transform="translate(-6.28 -0.04)"/><path class="cls-1" d="M1461.54,71.45c.14.21.18-.8.36,0,.26,1.17.86,2.29.4,3.56-.11.29.08.69.12,1,.09.79-.42,1.48-.16,2.31.2.61-.53,1.09-.8,1.66a1.86,1.86,0,0,0,.14,1.94c.14.22-.08.42-.06.63a.78.78,0,0,1-.29.66h0c-.19.33,0,.83-.47,1.05a58.21,58.21,0,0,1-3.76,6.49,8.35,8.35,0,0,1-1.24,1.66,3.55,3.55,0,0,0-.86,1c-.28.28-.36.87-1,.67-.07-.16,0-.3,0-.44.72-1.17,1.45-2.33,2.17-3.51.25-.42.48-.86.72-1.29.14-.72.76-1.17,1-1.8.6-1.11,1.25-2.19,1.78-3.33,1.45-3.15,2.66-6.36,2.31-9.94A21.87,21.87,0,0,0,1461.54,71.45Z" transform="translate(-6.28 -0.04)"/><path class="cls-1" d="M1411.72,143.34a33.21,33.21,0,0,0,3.31,3.4,53.24,53.24,0,0,1,3.94,4.15c0,.27-.08.37-.34.34h0a2.53,2.53,0,0,0-1.3-1.11h-.14a1.88,1.88,0,0,1-1-.86,57.82,57.82,0,0,1-4.83-5.31c-.17-.26-.07-.45.15-.61Z" transform="translate(-6.28 -0.04)"/><path class="cls-1" d="M1446.91,52.55c.08-.41.42-.3.66-.27s.16.35.17.5a1.58,1.58,0,0,1-.64,1.42c-.2.16-.43.3.06.54a1,1,0,0,1,.38,1.45.89.89,0,0,1-.21.26,1.76,1.76,0,0,1-1,.64c-.86-.65-2-1-2.28-2.25-.11-.4-.73-.48-1.06-.78,0-.11-.07-.22.09-.26l.81-1.1a.18.18,0,0,1,.2,0c.24,1.54,1.6,2.22,2.52,3.25a.3.3,0,0,0,.41,0c.17-.16.06-.32,0-.47a3.26,3.26,0,0,0-.31-.33c-.65-.66-.65-.76,0-1.46C1447,53.4,1447.44,53.09,1446.91,52.55Z" transform="translate(-6.28 -0.04)"/><path class="cls-1" d="M1518.66,143.79a7.21,7.21,0,0,0,3.91-.63.29.29,0,0,1,.23.21c0,.53-.44.73-.72,1a5.28,5.28,0,0,1-.63.62,6.49,6.49,0,0,1-1.31.2,3.64,3.64,0,0,1-2.08-.55h0a1.75,1.75,0,0,1-1-.53c-.16-.33,0-.43.31-.49A6.16,6.16,0,0,1,1518.66,143.79Z" transform="translate(-6.28 -0.04)"/><path class="cls-1" d="M1468.51,175.19a.85.85,0,0,1,.53-.27l3.88-.44c.29,0,.57.22.88.08,0-.16-.23-.06-.29-.19s.22-.07.31-.06a17.15,17.15,0,0,0,3.91-.35,23.39,23.39,0,0,0,3.13-.33,18.39,18.39,0,0,1,3.4-.22c-1.51.38-3.07.42-4.6.66-3.4.52-6.83.76-10.25,1.1C1469.11,175.19,1468.81,175.2,1468.51,175.19Z" transform="translate(-6.28 -0.04)"/><path class="cls-1" d="M1488.46,171.87c-.72-1.44-.07-2.46,1-3.37.11-.09.7-.23.16-.57a9.89,9.89,0,0,1,1.71-.31v.1c-.24.67-.84,1-1.31,1.51-1.25,1.3-1.25,2,.08,3.26a.26.26,0,0,1-.16.26,1.73,1.73,0,0,1-.45.1,4.94,4.94,0,0,1-.77.12.77.77,0,0,1-.42-.1C1488.13,172.5,1488.83,172.25,1488.46,171.87Z" transform="translate(-6.28 -0.04)"/><path class="cls-1" d="M1449.78,162.82c-.53,0-1-.42-1.57-.31s-1-.25-1.26.52c-.07.26-.53.15-.82.08a2.66,2.66,0,0,0,0-1.19c-1.47-.73-3-1.24-4.54-1.83-.19-.07-.71-.1-.3-.55h.1a2.5,2.5,0,0,1,1.39.63,18.87,18.87,0,0,0,3.17,1.18,2.33,2.33,0,0,1,1.7.55l2.1.65a.19.19,0,0,1,0,.27Z" transform="translate(-6.28 -0.04)"/><path class="cls-1" d="M1521.37,145c.24-.54.75-.82,1.12-1.23a.58.58,0,0,0,.24-.43.11.11,0,0,1,.15,0c.35.47.64,1.06,1.39.5.13-.1.42,0,.63,0,.09-.22-.26-.26-.16-.46.5.19.5.19.7-.4,0-.14.56-.22.77-.11s.27.15.34.3-.06.24-.21.24-.26.29-.43.38a.72.72,0,0,1-.49.24h0a2.38,2.38,0,0,1-1.93.84,3.56,3.56,0,0,1-1.33.28C1521.91,145.07,1521.58,145.3,1521.37,145Z" transform="translate(-6.28 -0.04)"/><path class="cls-1" d="M1499.77,166.14h.31c.26,0,.46-.35.75-.13a9.35,9.35,0,0,0,1.62,1.82c.34.37.72.7,1,1.07a1.14,1.14,0,0,0,1,.44l-.31.17a1.52,1.52,0,0,1-.81.35H1503a.28.28,0,0,1-.16-.12,2.69,2.69,0,0,0-.8-1c-.88-.84-1.69-1.75-2.64-2.52A.21.21,0,0,1,1499.77,166.14Z" transform="translate(-6.28 -0.04)"/><path class="cls-1" d="M1507.81,100.59a19.15,19.15,0,0,1-5-.57h-.14c-1.51.17-3-.47-4.47-.32a1.41,1.41,0,0,1-1.29-.47c3.59.26,7.15.69,10.7,1.27A.72.72,0,0,1,1507.81,100.59Z" transform="translate(-6.28 -0.04)"/><path class="cls-1" d="M1467.45,6.4c-.09-.15-.26-.29-.26-.44a13.24,13.24,0,0,1-.2-2.35.83.83,0,0,0-.34-.86l.06-.41c.13-.3,0-.66.31-.92h0a1.87,1.87,0,0,1,.89-1.38c.18,0,.16.16.12.28a13.7,13.7,0,0,0-.57,5.47C1467.46,6,1467.45,6.15,1467.45,6.4Z" transform="translate(-6.28 -0.04)"/><path class="cls-1" d="M1518.66,143.79c-.46,0-.93.05-1.39.05-.3,0-.14.16-.13.28a.18.18,0,0,1-.25,0l0,0h0c-.18-.15-.49-.06-.6-.34a15.38,15.38,0,0,1-2-1.87c0-.32.19-.32.41-.32a.94.94,0,0,1,.22.12A8.4,8.4,0,0,0,1518.66,143.79Z" transform="translate(-6.28 -0.04)"/><path class="cls-1" d="M1527.72,138.51l-1.31,1.38c-.18.19-.34.43-.66.43l.75-1.53a1.31,1.31,0,0,1,.31-.43h0a4.85,4.85,0,0,1,.29-.61,16.12,16.12,0,0,0,1.19-2.73,2.06,2.06,0,0,1-.17,1.4A3.31,3.31,0,0,0,1527.72,138.51Z" transform="translate(-6.28 -0.04)"/><path class="cls-1" d="M1455.26,58.29c-.55,0-.66-.48-.9-.79A2.3,2.3,0,0,1,1454,56a6.84,6.84,0,0,1,.61-3.51c.08-.15.15-.24.32-.25a.23.23,0,0,1,0,.29v.15a1.73,1.73,0,0,1-.3,1.06h0a8.31,8.31,0,0,0,0,2.9A4.8,4.8,0,0,0,1455.26,58.29Z" transform="translate(-6.28 -0.04)"/><path class="cls-1" d="M1462.13,163.46c-2.22,1.1-4.43.55-6.65,0a39.25,39.25,0,0,0,4.34.12c.72,0,1.44-.11,2.16-.16C1462.13,163.4,1462.13,163.4,1462.13,163.46Z" transform="translate(-6.28 -0.04)"/><path class="cls-1" d="M1514.74,141.67c-.19,0-.38,0-.49.2-1.31-1.22-2.13-3-1.87-4.11a6.78,6.78,0,0,0,1.54,2.88C1514.27,140.93,1514.72,141.13,1514.74,141.67Z" transform="translate(-6.28 -0.04)"/><path class="cls-1" d="M1467.13,33.53v-.07a4.48,4.48,0,0,0,1.35-2.92c.08-.41.2,0,.3,0a11.82,11.82,0,0,1-1,3.69Z" transform="translate(-6.28 -0.04)"/><path class="cls-1" d="M1416.25,107.24c0,.32-.37.34-.45.58a30.5,30.5,0,0,1-4.25-.87,3,3,0,0,1,2.22.19,6.1,6.1,0,0,0,2.48.1Z" transform="translate(-6.28 -0.04)"/><path class="cls-1" d="M1401.74,126.28c.2-.09.25,0,.33.19.23.72.25,1.56,1,2.06.13.08,0,.27-.06.4-.09.28,0,.3.26.21h0a3,3,0,0,0,.41,1.59c.15.27-.13.27-.13.42A23.37,23.37,0,0,1,1401.74,126.28Z" transform="translate(-6.28 -0.04)"/><path class="cls-1" d="M1418.63,151.23l.34-.34a11.27,11.27,0,0,1,2,1.84,4.15,4.15,0,0,1,.73.72.2.2,0,0,1-.16.12c-.54-.27-.9-.81-1.47-1a4.85,4.85,0,0,1-1.41-1.18A.22.22,0,0,1,1418.63,151.23Z" transform="translate(-6.28 -0.04)"/><path class="cls-1" d="M1455.82,97.88h-.45a6.1,6.1,0,0,1-2,0h-7.24a6.17,6.17,0,0,1-.74-.07c1.84-.13,3.69-.14,5.53-.09h4.1c.26,0,.55-.1.77.15Z" transform="translate(-6.28 -0.04)"/><path class="cls-1" d="M1529.51,129.7a17,17,0,0,1-.46,4.27.55.55,0,0,1-.61.59C1528.91,133,1529.18,131.33,1529.51,129.7Z" transform="translate(-6.28 -0.04)"/><path class="cls-1" d="M1437.13,169.45h-.66c-1.82.1-3.6-.38-5.55-.3.28-.26.6-.08.72-.33Z" transform="translate(-6.28 -0.04)"/><path class="cls-1" d="M1499.34,145c0-.71.56-1.19.88-1.6a5.83,5.83,0,0,1,1.49-1.6.88.88,0,0,1,.47-.16l-.9,1.2c-.06.45-.44.66-.74.92h0a2.83,2.83,0,0,1-1.06,1.21h0a.1.1,0,0,1-.14,0Z" transform="translate(-6.28 -0.04)"/><path class="cls-1" d="M1454.92,42c.2.58-.4.74-.64,1-.71.63-1.33,1.46-2.38,1.6a16.46,16.46,0,0,1,1.5-1.39,2.66,2.66,0,0,1,.58-.58l.15-.23C1454.46,42.4,1454.5,41.84,1454.92,42Z" transform="translate(-6.28 -0.04)"/><path class="cls-1" d="M1492,98.77a10.85,10.85,0,0,0-3.06.28,2.32,2.32,0,0,1-1.67-.22l1.06-.08c-.25-.23-.59,0-.79-.26A39.12,39.12,0,0,1,1492,98.77Z" transform="translate(-6.28 -0.04)"/><path class="cls-1" d="M1448.55,47.53a.93.93,0,0,1-.52,1c-.46.29-1,.59-1,1.3.13.11.31.19.35.37s0,.32-.16.24c-.32-.2-.91,0-1-.59.15-.57.71-.81,1-1.23l.34-.33a1.5,1.5,0,0,1,.49-.51Z" transform="translate(-6.28 -0.04)"/><path class="cls-1" d="M1412.32,101.49h.8l-3.82.58-.54-.38v-.22Z" transform="translate(-6.28 -0.04)"/><path class="cls-1" d="M1444.06,52.72h-.21a18.26,18.26,0,0,1,2.29-2.75.69.69,0,0,1,.17.81c-.34,0-.81-.16-.75.47A2,2,0,0,1,1444.06,52.72Z" transform="translate(-6.28 -0.04)"/><path class="cls-1" d="M1423.66,167.78c-.62.4-1.3.06-2,.19,0-.24.23-.1.27-.28a6.19,6.19,0,0,1-1.36-.11c-.36-.1-.83-.1-1-.53Z" transform="translate(-6.28 -0.04)"/><path class="cls-1" d="M1449.78,162.82v-.29l5.18.88a10.56,10.56,0,0,1-4.1-.52A4.91,4.91,0,0,0,1449.78,162.82Z" transform="translate(-6.28 -0.04)"/><path class="cls-1" d="M1431.5,109.84a4.38,4.38,0,0,1,2.07-.49c.23,0,.47,0,.5.31,0,.69-.42.29-.69.31A5.17,5.17,0,0,1,1431.5,109.84Z" transform="translate(-6.28 -0.04)"/><path class="cls-1" d="M1411.57,143.34l-.15.61a8.25,8.25,0,0,1-1.81-2.42A11.6,11.6,0,0,1,1411.57,143.34Z" transform="translate(-6.28 -0.04)"/><path class="cls-1" d="M1405.13,105.1l2.37.21a.21.21,0,0,0,.06.1l-.86.07c0,.5.76-.06.66.54a23.74,23.74,0,0,1-2.87-.75C1404.6,104.88,1404.88,105.09,1405.13,105.1Z" transform="translate(-6.28 -0.04)"/><path class="cls-1" d="M1510.82,129.81a1,1,0,0,1,.28-1.13,2.69,2.69,0,0,0,.81-1.16c.11-.33.37-.37.67-.34a2.55,2.55,0,0,1-.92,1.49C1511.27,129,1511.24,129.53,1510.82,129.81Z" transform="translate(-6.28 -0.04)"/><path class="cls-1" d="M1486,153.79a1.07,1.07,0,0,1-.71.93,4.36,4.36,0,0,0-1.43.93,1.41,1.41,0,0,1-1.19.53Z" transform="translate(-6.28 -0.04)"/><path class="cls-1" d="M1446.31,50.76a1.52,1.52,0,0,1-.17-.81.24.24,0,0,1,0-.12q.06-.09.12,0c.21.42.74.2,1,.56.09-.29-.19-.36-.22-.55.54.1.56.45.33.82A.63.63,0,0,1,1446.31,50.76Z" transform="translate(-6.28 -0.04)"/><path class="cls-1" d="M1430.13,152.7a3,3,0,0,1-1.84-1.1c-.2-.3-.68-.4-.56-.9a.77.77,0,0,1,.55.39Z" transform="translate(-6.28 -0.04)"/><path class="cls-1" d="M1470.61,161.9c0,.44-.5.53-.76.57a7.43,7.43,0,0,1-2.89.33,7.4,7.4,0,0,1,2.17-.57Z" transform="translate(-6.28 -0.04)"/><path class="cls-1" d="M1505.67,164.94a.65.65,0,0,1-.62.55c-1-.08-2,.53-3,.34C1503.2,165.45,1504.44,165.2,1505.67,164.94Z" transform="translate(-6.28 -0.04)"/><path class="cls-1" d="M1466.7,162.83c.3.31.74,0,1.17.31-1.66-.15-3.14.51-4.69.27,0-.12,0-.21.19-.13h.31a9.74,9.74,0,0,1,2.57-.43h0a.31.31,0,0,1,.44,0Z" transform="translate(-6.28 -0.04)"/><path class="cls-1" d="M1503.13,108.3c.06.16-.16.35.06.48a.21.21,0,0,1,0,.11,5.51,5.51,0,0,1-1.32.31,1.09,1.09,0,0,1-.73-.07c-.16-.16,0-.28.09-.34a4.91,4.91,0,0,0,.91-.66C1502.44,107.8,1502.81,107.79,1503.13,108.3Z" transform="translate(-6.28 -0.04)"/><path class="cls-1" d="M1508.23,168.09c-.23-.65.55-.34.64-.68.55.28,1-.17,1.42-.28a3.57,3.57,0,0,1,.8-.09v.08c-.06.21-.26.14-.4.21h0c-.45.49-1.1.41-1.66.6C1508.73,168,1508.51,168.17,1508.23,168.09Z" transform="translate(-6.28 -0.04)"/><path class="cls-1" d="M1465,175.48a11.71,11.71,0,0,1,2.93-.58c.53,0-.12.3.13.33A14.27,14.27,0,0,1,1465,175.48Z" transform="translate(-6.28 -0.04)"/><path class="cls-1" d="M1418.41,171.56a6.41,6.41,0,0,1,2.34.32,1.36,1.36,0,0,1,.62.49c-.81,0-1.55-.5-2.38-.49-.19-.16-.46,0-.65-.16A.14.14,0,0,1,1418.41,171.56Z" transform="translate(-6.28 -0.04)"/><path class="cls-1" d="M1526.48,143.18c-.19,0-.27-.11-.27-.29a2.24,2.24,0,0,0,1.06-.91c.24-.37.46-.33.77-.29a12,12,0,0,1-1.24,1.33C1526.72,143.13,1526.68,143.31,1526.48,143.18Z" transform="translate(-6.28 -0.04)"/><path class="cls-1" d="M1511.13,167a5.21,5.21,0,0,1,2.78-1.18l-.35.31a1.54,1.54,0,0,1-.61.28h0c-.41.43-1,.42-1.51.6h0a.2.2,0,0,1-.28,0h0Z" transform="translate(-6.28 -0.04)"/><path class="cls-1" d="M1433.38,110c.26,0,.61.13.69-.31.51.13,1.21-.33,1.49.48A8.88,8.88,0,0,1,1433.38,110Z" transform="translate(-6.28 -0.04)"/><path class="cls-1" d="M1514,165.83c.61-.59,1.17-1.28,2.16-1.18A8.56,8.56,0,0,1,1514,165.83Z" transform="translate(-6.28 -0.04)"/><path class="cls-1" d="M1525.89,112.11a.52.52,0,0,1,.53-.58.65.65,0,0,1,.51.25c0,.13-.16.45-.29.65Z" transform="translate(-6.28 -0.04)"/><path class="cls-1" d="M1526.66,109.81c-.48,0-.85.57-1.39.29a6.15,6.15,0,0,1,2.45-.9Z" transform="translate(-6.28 -0.04)"/><path class="cls-1" d="M1485.73,110.12c.73-.86,1.55-.18,2.32-.14A10.61,10.61,0,0,1,1485.73,110.12Z" transform="translate(-6.28 -0.04)"/><path class="cls-1" d="M1511.26,163.4c.11.2,0,.31-.17.38a3,3,0,0,1-1.82.21A12.62,12.62,0,0,1,1511.26,163.4Z" transform="translate(-6.28 -0.04)"/><path class="cls-1" d="M1459.48,44.92a1.22,1.22,0,0,1,1-1.4l.17,0Z" transform="translate(-6.28 -0.04)"/><path class="cls-1" d="M1457.94,60.57c-.52.22-.84,0-1.08-.48a6.36,6.36,0,0,1-.28-.59A3.32,3.32,0,0,1,1457.94,60.57Z" transform="translate(-6.28 -0.04)"/><path class="cls-1" d="M1511.91,101.32a1.21,1.21,0,0,1-1,.08,6.81,6.81,0,0,0-1-.2.19.19,0,0,1,0-.27h0A6.53,6.53,0,0,1,1511.91,101.32Z" transform="translate(-6.28 -0.04)"/><path class="cls-1" d="M1472.88,161.17a2.55,2.55,0,0,1-2.28.73A16.36,16.36,0,0,1,1472.88,161.17Z" transform="translate(-6.28 -0.04)"/><path class="cls-1" d="M1457.05,48.22a1.84,1.84,0,0,1,1.19-1.7.89.89,0,0,1-.51.88.49.49,0,0,0-.25.33C1457.39,47.94,1457.39,48.23,1457.05,48.22Z" transform="translate(-6.28 -0.04)"/><path class="cls-1" d="M1464,33.23c.1.94-.16,1.34-.86,1.37A6.71,6.71,0,0,1,1464,33.23Z" transform="translate(-6.28 -0.04)"/><path class="cls-1" d="M1475.47,163.15l-.16-.3c.87.18,1.42-.83,2.29-.6A9.09,9.09,0,0,1,1475.47,163.15Z" transform="translate(-6.28 -0.04)"/><path class="cls-1" d="M1424.68,155.74c.28-.21.46,0,.66.15.38.2.66.54,1.17.55s0,.25,0,.38A8.64,8.64,0,0,1,1424.68,155.74Z" transform="translate(-6.28 -0.04)"/><path class="cls-1" d="M1417.94,171.57l-1.09-.42c.63-.46,1.13.09,1.69.23l-.13.18h0a.22.22,0,0,1-.3,0h-.17Z" transform="translate(-6.28 -0.04)"/><path class="cls-1" d="M1460.64,63.45c-.38-.29-.88-.43-1.09-.94a.51.51,0,0,1,0-.42,4.53,4.53,0,0,1,1,1.22s.06.07,0,.1S1460.66,63.45,1460.64,63.45Z" transform="translate(-6.28 -0.04)"/><path class="cls-1" d="M1417.34,150.13c.26-.13.46-.25.66.15s.77.4.64,1A7.49,7.49,0,0,1,1417.34,150.13Z" transform="translate(-6.28 -0.04)"/><path class="cls-1" d="M1404.51,118.69c-.58-.3-.92-1.22-.61-1.64Z" transform="translate(-6.28 -0.04)"/><path class="cls-1" d="M1407.51,138.65c.2-.12.33-.3.62-.06.46.38,0,.65,0,1Z" transform="translate(-6.28 -0.04)"/><path class="cls-1" d="M1529.83,129.6h-.29a11.31,11.31,0,0,1,.27-2.32A12.84,12.84,0,0,1,1529.83,129.6Z" transform="translate(-6.28 -0.04)"/><path class="cls-1" d="M1493.29,151.4a1.2,1.2,0,0,1,1.17-1.23h.09a.19.19,0,0,1,0,.15h0a1.88,1.88,0,0,1-.45.44Z" transform="translate(-6.28 -0.04)"/><path class="cls-1" d="M1520.49,145.29l-.18-.12a1.7,1.7,0,0,1,1.06-.17c.27,0,.57-.09.79.17C1521.62,145.4,1521,145.19,1520.49,145.29Z" transform="translate(-6.28 -0.04)"/><path class="cls-1" d="M1517.3,106l-1,.33a.31.31,0,0,1-.18-.33c.52,0,1-.5,1.53-.25Z" transform="translate(-6.28 -0.04)"/><path class="cls-1" d="M1420.79,144.07l.74.66.45.58C1421.18,145.28,1420.94,144.71,1420.79,144.07Z" transform="translate(-6.28 -0.04)"/><path class="cls-1" d="M1437.19,161.94a1.46,1.46,0,0,1,1.7.63l-1.21-.34C1437.57,162,1437.22,162.26,1437.19,161.94Z" transform="translate(-6.28 -0.04)"/><path class="cls-1" d="M1415.66,137.9c-1,.19-.89-.42-.78-1Z" transform="translate(-6.28 -0.04)"/><path class="cls-1" d="M1522.88,143.34h-.15l-.16-.18a5.59,5.59,0,0,1,1.37-.87A3.92,3.92,0,0,1,1522.88,143.34Z" transform="translate(-6.28 -0.04)"/><path class="cls-1" d="M1406.18,122.63c-.74-.4-.69-1.13-.79-1.81A9.11,9.11,0,0,1,1406.18,122.63Z" transform="translate(-6.28 -0.04)"/><path class="cls-1" d="M1509.89,100.92v.28l-.3.15c-.23-.3-.72-.23-.9-.61A2.15,2.15,0,0,1,1509.89,100.92Z" transform="translate(-6.28 -0.04)"/><path class="cls-1" d="M1403.27,165.24l-.52-.58c.54-.09.8.43,1.23.59.2.08-.13.19-.13.33Z" transform="translate(-6.28 -0.04)"/><path class="cls-1" d="M1478.48,158.6h.16c-.25.61-.64.77-1.07.42,0-.17.23-.06.3-.16.13-.26.39-.22.61-.28Z" transform="translate(-6.28 -0.04)"/><path class="cls-1" d="M1466.13,7.1a5.69,5.69,0,0,1,0,2.72A20.57,20.57,0,0,1,1466.13,7.1Z" transform="translate(-6.28 -0.04)"/><path class="cls-1" d="M1422.56,154.23a.87.87,0,0,1,1,.64.68.68,0,0,1,0,.14A2.52,2.52,0,0,1,1422.56,154.23Z" transform="translate(-6.28 -0.04)"/><path class="cls-1" d="M1426.7,149.82c-.72.26-.82-.14-.79-.71l.27.14C1426.45,149.4,1426.67,149.5,1426.7,149.82Z" transform="translate(-6.28 -0.04)"/><path class="cls-1" d="M1517.13,120.09l-.26-.11c.38-.1.23-.54.48-.75s.23.06.33.09Z" transform="translate(-6.28 -0.04)"/><path class="cls-1" d="M1464.56,32c0,.53.1,1.07-.59,1.26A3.55,3.55,0,0,1,1464.56,32Z" transform="translate(-6.28 -0.04)"/><path class="cls-1" d="M1462.13,65.86c-.6-.19-.59-.69-.6-1.18A2.34,2.34,0,0,1,1462.13,65.86Z" transform="translate(-6.28 -0.04)"/><path class="cls-1" d="M1408.13,139.56c.61.11.79.57.87,1.1A3,3,0,0,1,1408.13,139.56Z" transform="translate(-6.28 -0.04)"/><path class="cls-1" d="M1517,164c.16-.17-.68,0-.11-.37a1.39,1.39,0,0,1,.89-.21A1.8,1.8,0,0,1,1517,164Z" transform="translate(-6.28 -0.04)"/><path class="cls-1" d="M1454,94.12c-.22.23-.33.62-.76.58a3.41,3.41,0,0,1,.73-1.1Z" transform="translate(-6.28 -0.04)"/><path class="cls-1" d="M1404.91,119.78c-.29.15-.42,0-.43-.27s0-.55,0-.82C1404.79,119,1404.77,119.4,1404.91,119.78Z" transform="translate(-6.28 -0.04)"/><path class="cls-1" d="M1487,98.47c-.73-.06-1.49.2-2.2-.16A7.07,7.07,0,0,1,1487,98.47Z" transform="translate(-6.28 -0.04)"/><path class="cls-1" d="M1460.64,63.45a.33.33,0,0,0,0-.14,1.73,1.73,0,0,1,.59.89c-.1,0-.16.35-.28,0S1460.59,63.78,1460.64,63.45Z" transform="translate(-6.28 -0.04)"/><path class="cls-1" d="M1424.07,147.4c-.59,0-.68-.48-.87-.86A2,2,0,0,1,1424.07,147.4Z" transform="translate(-6.28 -0.04)"/><path class="cls-1" d="M1404.31,165.88c.48-.15.81-.07.77.54A2.44,2.44,0,0,1,1404.31,165.88Z" transform="translate(-6.28 -0.04)"/><path class="cls-1" d="M1436.79,110.25h-.45l-.77-.15c.39-.54.82.09,1.23,0a.07.07,0,0,1,0,.09S1436.8,110.25,1436.79,110.25Z" transform="translate(-6.28 -0.04)"/><path class="cls-1" d="M1509.27,164c.2.38-.14.27-.3.36s-.51,0-.76-.05A2.65,2.65,0,0,1,1509.27,164Z" transform="translate(-6.28 -0.04)"/><path class="cls-1" d="M1500.83,138.94l.45-.44c.26.72-.32.75-.75.91a.38.38,0,0,1,0-.15Z" transform="translate(-6.28 -0.04)"/><path class="cls-1" d="M1484.07,110.24a2,2,0,0,1,1.51-.12A4.5,4.5,0,0,1,1484.07,110.24Z" transform="translate(-6.28 -0.04)"/><path class="cls-1" d="M1423.62,155c.44-.06.81,0,.79.55A2.17,2.17,0,0,1,1423.62,155Z" transform="translate(-6.28 -0.04)"/><path class="cls-1" d="M1411.58,160c-.12-.19-.33-.12-.49-.18l1.08-.29c.09.05.1.12,0,.19Z" transform="translate(-6.28 -0.04)"/><path class="cls-1" d="M1405.13,105.1c-.21.1-.47,0-.64.17l-.6-.15a.09.09,0,0,1,0-.1V105A3.7,3.7,0,0,1,1405.13,105.1Z" transform="translate(-6.28 -0.04)"/><path class="cls-1" d="M1507,164.66c-.33.48-.82.23-1.25.26A4.1,4.1,0,0,1,1507,164.66Z" transform="translate(-6.28 -0.04)"/><path class="cls-1" d="M1430.8,153.14c-.36.06-.69.08-.65-.45A1.19,1.19,0,0,1,1430.8,153.14Z" transform="translate(-6.28 -0.04)"/><path class="cls-1" d="M1519.37,160.4c-.22,0-.41,0-.41-.32a.2.2,0,0,1,.23-.16l.06,0C1519.46,160.05,1519.39,160.24,1519.37,160.4Z" transform="translate(-6.28 -0.04)"/><path class="cls-1" d="M1402.67,103.63c0-.65.52-.18.77-.3A1.21,1.21,0,0,1,1402.67,103.63Z" transform="translate(-6.28 -0.04)"/><path class="cls-1" d="M1496.91,147.73c0-.41.15-.63.58-.62A1.21,1.21,0,0,1,1496.91,147.73Z" transform="translate(-6.28 -0.04)"/><path class="cls-1" d="M1414.75,101.4c.43-.36.93-.11,1.4-.16A3.69,3.69,0,0,1,1414.75,101.4Z" transform="translate(-6.28 -0.04)"/><path class="cls-1" d="M1467.59,7.56a.66.66,0,0,1-.16-.93.18.18,0,0,1,0-.07A1.8,1.8,0,0,1,1467.59,7.56Z" transform="translate(-6.28 -0.04)"/><path class="cls-1" d="M1516.24,164.6c.09-.26,0-.81.56-.43C1516.7,164.4,1516.45,164.49,1516.24,164.6Z" transform="translate(-6.28 -0.04)"/><path class="cls-1" d="M1436.82,161.9l-.35-.26a2.91,2.91,0,0,1,.59,0c.43,0,0,.19,0,.29a.11.11,0,0,1-.16,0h0Z" transform="translate(-6.28 -0.04)"/><path class="cls-1" d="M1422.56,145.91c-.44.05-.46-.32-.57-.6C1422.22,145.48,1422.49,145.6,1422.56,145.91Z" transform="translate(-6.28 -0.04)"/><path class="cls-1" d="M1421.54,153.57l.16-.12a.9.9,0,0,1,.56.52A2,2,0,0,1,1421.54,153.57Z" transform="translate(-6.28 -0.04)"/><path class="cls-1" d="M1520.18,115.72a.61.61,0,0,1,.56-.63A1.49,1.49,0,0,1,1520.18,115.72Z" transform="translate(-6.28 -0.04)"/><path class="cls-1" d="M1459.43,45.12l-.57.54a.62.62,0,0,1,.56-.65A.41.41,0,0,1,1459.43,45.12Z" transform="translate(-6.28 -0.04)"/><path class="cls-1" d="M1516.7,120.86c-.16-.41.16-.5.42-.63A1.13,1.13,0,0,1,1516.7,120.86Z" transform="translate(-6.28 -0.04)"/><path class="cls-1" d="M1405.19,166.47c.18.15.7-.39.62.31Z" transform="translate(-6.28 -0.04)"/><path class="cls-1" d="M1405.39,120.82c-.65.05-.17-.44-.3-.64A1.57,1.57,0,0,1,1405.39,120.82Z" transform="translate(-6.28 -0.04)"/><path class="cls-1" d="M1403.86,105v.16h-.3l-.36-.26C1403.48,104.79,1403.69,104.77,1403.86,105Z" transform="translate(-6.28 -0.04)"/><path class="cls-1" d="M1534.05,126.12c-.17-.12-.15-.31-.2-.47s0-.21.16-.15,0,.13.07.2Z" transform="translate(-6.28 -0.04)"/><path class="cls-1" d="M1412.21,159.69v-.19a.58.58,0,0,1,.55-.12A.51.51,0,0,1,1412.21,159.69Z" transform="translate(-6.28 -0.04)"/><path class="cls-1" d="M1514.43,121.28c0,.21.09.44-.1.61l-.23-.16Z" transform="translate(-6.28 -0.04)"/><path class="cls-1" d="M1425.73,148.94h-.58l.18-.3A.57.57,0,0,1,1425.73,148.94Z" transform="translate(-6.28 -0.04)"/><path class="cls-1" d="M1402.05,104.07c0-.4.28-.48.62-.44Z" transform="translate(-6.28 -0.04)"/><path class="cls-1" d="M1477.6,162.25c0-.46.43-.23.66-.31C1478.05,162.07,1477.88,162.27,1477.6,162.25Z" transform="translate(-6.28 -0.04)"/><path class="cls-1" d="M1497.66,146.93a.44.44,0,0,1,.42-.43C1498,146.67,1497.88,146.87,1497.66,146.93Z" transform="translate(-6.28 -0.04)"/><path class="cls-1" d="M1405.8,166.77c.24,0,.47,0,.47.3A.71.71,0,0,1,1405.8,166.77Z" transform="translate(-6.28 -0.04)"/><path class="cls-1" d="M1419.88,99.4a.51.51,0,0,1-.72,0l0,0Z" transform="translate(-6.28 -0.04)"/><path class="cls-1" d="M1407.13,138.07c.37,0,.34.25.32.5A.84.84,0,0,1,1407.13,138.07Z" transform="translate(-6.28 -0.04)"/><path class="cls-1" d="M1442.18,104.4a36.18,36.18,0,0,1,4.29-.14q9.77-.23,19.54-.12c3.22,0,6.44.11,9.66.17a3.11,3.11,0,0,1,.44.08c-.2.2-.45,0-.67.11a.37.37,0,0,1,.32.06c-.13.25-.47.06-.6.31a1.18,1.18,0,0,1-.8.14h-3.23a1.07,1.07,0,0,0-.8.15,1.4,1.4,0,0,1-1,.14h-20a1.18,1.18,0,0,1-.8-.14c-.23-.21-.52-.15-.79-.15h-3.24a1.17,1.17,0,0,1-.8-.14A2.43,2.43,0,0,0,1442.18,104.4Z" transform="translate(-6.28 -0.04)"/><path class="cls-1" d="M1448.57,105.13h21.75c0,.37-.34.3-.58.3h-20.61C1448.92,105.4,1448.63,105.5,1448.57,105.13Z" transform="translate(-6.28 -0.04)"/><path class="cls-1" d="M1436.79,110.25a.33.33,0,0,0,0-.14l.29-.3c.15-.16.25-.37.48-.44a2.24,2.24,0,0,1,3.12-.33,1.17,1.17,0,0,0,1,.06c1.41-.52,2.21-.15,3.26,1.44h-1.08a1.79,1.79,0,0,0-2.17-.47,1.25,1.25,0,0,1-1.17-.08,1.88,1.88,0,0,0-2.64.33l0,0Z" transform="translate(-6.28 -0.04)"/><path class="cls-1" d="M1499.93,109.22h-.31a.92.92,0,0,1,.24-1.2c.42-.45.85-.9,1.28-1.34l.44-.13c.56.4.59.69,0,1.2a1.65,1.65,0,0,0-.78,1.41A.83.83,0,0,1,1499.93,109.22Z" transform="translate(-6.28 -0.04)"/><path class="cls-1" d="M1470.32,105.13c.07-.42.41-.3.65-.3h4.19c-.08.41-.41.29-.66.29Z" transform="translate(-6.28 -0.04)"/><path class="cls-1" d="M1443.74,104.83h4.18c.25,0,.58-.12.65.3h-4.18C1444.13,105.12,1443.81,105.24,1443.74,104.83Z" transform="translate(-6.28 -0.04)"/><path class="cls-1" d="M1475.76,104.52h-.42v-.12l.78-.06a39.77,39.77,0,0,1,4.76.11C1479.13,104.6,1477.46,104.48,1475.76,104.52Z" transform="translate(-6.28 -0.04)"/><path class="cls-1" d="M1502.8,106.05c-.36.27-.71,0-1.06,0s-.81.16-1.06-.3a.41.41,0,0,1,.58.07l0,.05a.17.17,0,0,0,.14,0A1,1,0,0,1,1502.8,106.05Z" transform="translate(-6.28 -0.04)"/><path class="cls-1" d="M1416.25,107.24c.18-.49.5-.28.94-.19C1416.83,107.33,1416.52,107.2,1416.25,107.24Z" transform="translate(-6.28 -0.04)"/><path class="cls-1" d="M1437.57,109.4c-.13.18-.18.44-.48.44C1436.93,109.33,1437.22,109.32,1437.57,109.4Z" transform="translate(-6.28 -0.04)"/><path class="cls-1" d="M1467.91,99.09c-.08-.53.2-.62.66-.62h8.12a4,4,0,0,0,1.19-.16c.13.06.32.08.38.18a2.05,2.05,0,0,0,2.2.88c1.36-.1,2.66.46,4,.31.21,0,.31.11.33.32a6.16,6.16,0,0,1-2.83.13,65.31,65.31,0,0,0-8.62-.22,1.66,1.66,0,0,1-1.23-.23l-2.59-.15a.18.18,0,0,1,.07-.23,15.3,15.3,0,0,1,2.62-.08h3.63c-2,0-4.43-.08-6.88,0A1.38,1.38,0,0,1,1467.91,99.09Z" transform="translate(-6.28 -0.04)"/><path class="cls-1" d="M1441.32,99.71V99.4a.93.93,0,0,1,.65-.15c2.72,0,5.45-.11,8.17-.06a1.44,1.44,0,0,1,.74.11.27.27,0,0,1,.12.26c-2.63.16-5.25.11-7.88.16Z" transform="translate(-6.28 -0.04)"/><path class="cls-1" d="M1434.07,100a.28.28,0,0,1,.35-.3c1.49.19,2.93-.31,4.4-.33.8,0,1.5.39,2.28.33C1438.76,99.85,1436.42,100,1434.07,100Z" transform="translate(-6.28 -0.04)"/><path class="cls-1" d="M1469.56,99.4v.16h-13.88a1.36,1.36,0,0,1-.29-.06c.24-.18.53-.1.8-.1h11.73A2,2,0,0,1,1469.56,99.4Z" transform="translate(-6.28 -0.04)"/><path class="cls-1" d="M1451,99.55V99.4l.11-.09a13.67,13.67,0,0,1,3.67.08h.15a.21.21,0,0,1,.29,0v.12C1453.81,99.61,1452.41,99.58,1451,99.55Z" transform="translate(-6.28 -0.04)"/><path class="cls-1" d="M1444.06,52.72a7.06,7.06,0,0,0,1.5-1.49c.24-.21.44-.16.63.08a.4.4,0,0,1,0,.57l0,0a11.44,11.44,0,0,1-1,1,.37.37,0,0,0-.12.51.34.34,0,0,0,.12.12c.21.19.42.42.7.15s.68-.72,1-1.09c.61.16.78.44.24.91l-.1.11c-.86.87-.86.87,0,1.77.24.26.46.48.11.82s-.54.12-.77-.11c-.65-.66-1.32-1.31-2-2A1.11,1.11,0,0,1,1444.06,52.72Z" transform="translate(-6.28 -0.04)"/><path class="cls-1" d="M1443,54.06a1.79,1.79,0,0,1,1.65,1.55c.07.43.38.43.63.62s1.11.08,1,.86c-.59.62-1.09.11-1.6-.13a.64.64,0,0,0-.81.06.56.56,0,0,0-.18.77l0,.06c-.67.06-1.09-.31-1.28-1.13,0-.13.18-.14.29-.19.84-.41.92-.79.33-1.51-.07-.32-.08-.65-.13-1Z" transform="translate(-6.28 -0.04)"/><path class="cls-1" d="M1442.53,56.65a1.69,1.69,0,0,0,1.21,1.2c.31.3.7.51.9.92a4.77,4.77,0,0,1-2.11-1.22.79.79,0,0,1-.34-1.06v0C1442.37,56.4,1442.54,56.4,1442.53,56.65Z" transform="translate(-6.28 -0.04)"/><path class="cls-1" d="M1465.36,38.4a18.33,18.33,0,0,1-2.29,2.37c-.07-.68.59-.89.9-1.3s.92-.91,1.34-1.5Z" transform="translate(-6.28 -0.04)"/><path class="cls-1" d="M1460.19,37.76a.54.54,0,0,1,.45-.34C1460.65,37.75,1460.43,37.77,1460.19,37.76Z" transform="translate(-6.28 -0.04)"/><path class="cls-1" d="M1443.31,170.68c-.17,1.07-1.15,1.46-1.8,2.13-.17.18-.3-.07-.42-.17a.26.26,0,0,1-.08-.36l.08-.08c.23-.23.47-.45.69-.7s.65-.47.46-.93-.66-.33-1-.33c-.32-.28-.19-.41.16-.4a17.22,17.22,0,0,0,1.76,0,.13.13,0,0,1,0,.2h0Z" transform="translate(-6.28 -0.04)"/><path class="cls-1" d="M1488.29,172.77a2.64,2.64,0,0,1-1,.18c0-.39.16-.47.49-.46a.67.67,0,0,0,.72-.6v0C1489,172.28,1488.79,172.55,1488.29,172.77Z" transform="translate(-6.28 -0.04)"/><path class="cls-1" d="M1443.13,170.08a.17.17,0,0,1,0-.14.57.57,0,0,1,.59,0l1.18.09A8.07,8.07,0,0,1,1443.13,170.08Z" transform="translate(-6.28 -0.04)"/><path class="cls-1" d="M1403.26,129.14v-.67C1403.48,128.77,1403.44,129,1403.26,129.14Z" transform="translate(-6.28 -0.04)"/><path class="cls-1" d="M1446.13,161.92c.52.41.34.8,0,1.19l-.29.3c-.32.23-.35.63-.55.94a.34.34,0,0,1-.2,0c-.19-.44-.58-.34-.92-.36A9,9,0,0,1,1446.13,161.92Z" transform="translate(-6.28 -0.04)"/><path class="cls-1" d="M1426.84,150l.92.75C1427,150.91,1426.86,150.82,1426.84,150Z" transform="translate(-6.28 -0.04)"/><path class="cls-1" d="M1444.13,164c.42-.21.91-.59.93.33a.29.29,0,0,1-.41,0l0,0c-.21-.24-.58,0-.8-.28Z" transform="translate(-6.28 -0.04)"/><path class="cls-1" d="M1436.47,161.64a.57.57,0,0,1-.45-.12c.15-.27.39-.22.63-.17Z" transform="translate(-6.28 -0.04)"/><path class="cls-1" d="M1402,161c.16-.22.3-.45.61-.49C1402.73,161,1402.39,161,1402,161Z" transform="translate(-6.28 -0.04)"/><path class="cls-1" d="M1486.13,153.75c.9-.88,1.92-1.63,2.9-2.42,0,.24.16.49-.17.65a20.48,20.48,0,0,0-2.15,1.69A1,1,0,0,1,1486.13,153.75Z" transform="translate(-6.28 -0.04)"/><path class="cls-1" d="M1498.62,141.55l.39-.34a.11.11,0,0,1,0,.11v.07c-.26,1.06-1.36,1.41-1.89,2.24,0,.05-.08-.13-.11-.21Z" transform="translate(-6.28 -0.04)"/><path class="cls-1" d="M1499.34,140.78a.29.29,0,0,1,0-.13c.52-.29.69-.92,1.18-1.24.35.61-.44.65-.56,1.05C1499.93,140.61,1499.56,140.68,1499.34,140.78Z" transform="translate(-6.28 -0.04)"/><path class="cls-1" d="M1490.81,149.81a3.81,3.81,0,0,1,1-.92C1491.72,149.49,1491.53,149.92,1490.81,149.81Z" transform="translate(-6.28 -0.04)"/><path class="cls-1" d="M1489.74,150.72c.28-.23.47-.57.83-.7C1490.68,150.71,1490.2,150.7,1489.74,150.72Z" transform="translate(-6.28 -0.04)"/><path class="cls-1" d="M1499,141.4v-.18a.65.65,0,0,1,.32-.42A.4.4,0,0,1,1499,141.4Z" transform="translate(-6.28 -0.04)"/><path class="cls-1" d="M1530.25,130.76a1.46,1.46,0,0,1,0,1.35A2,2,0,0,1,1530.25,130.76Z" transform="translate(-6.28 -0.04)"/><path class="cls-1" d="M1530.42,129.87c0,.17-.06.29-.24.31a.33.33,0,0,1-.34-.36c0-.22-.1-.26.14-.23S1530.39,129.59,1530.42,129.87Z" transform="translate(-6.28 -0.04)"/><path class="cls-1" d="M1529.13,137.15l-.15.15c-.15,0-.3-.06-.28-.25s.07-.14.12-.14A.81.81,0,0,1,1529.13,137.15Z" transform="translate(-6.28 -0.04)"/><path class="cls-1" d="M1528.33,137.32c-.07-.11-.13-.16-.14-.22s0-.19.13-.19,0,.11.06.17A1,1,0,0,1,1528.33,137.32Z" transform="translate(-6.28 -0.04)"/><path class="cls-1" d="M1447.07,164.77h-.17a1.31,1.31,0,0,1-1.22-.23c.12-.38.59-.28.78-.56l.15-.15c.07-.24.27-.34.46-.45h0c.55-.19.82,0,.72.59l-.14.15A1.27,1.27,0,0,1,1447.07,164.77Z" transform="translate(-6.28 -0.04)"/><path class="cls-1" d="M1447.79,164c-.1-.37-.3-.62-.72-.59.71-.65,1.48-.23,2.24-.13A3.11,3.11,0,0,0,1447.79,164Z" transform="translate(-6.28 -0.04)"/><path class="cls-1" d="M1446.46,164a.73.73,0,0,1-.77.46c-.2.12-.38.16-.45-.14a.92.92,0,0,1,.6-.94,1.24,1.24,0,0,1,.18.22c.12.23-.6-.1-.22.35C1446,164.26,1446.24,164,1446.46,164Z" transform="translate(-6.28 -0.04)"/><path class="cls-1" d="M1447.07,164.77a1.64,1.64,0,0,1,.58-.59c0,.2-.16.51.28.46.25,0,.28.1.19.3h-.58Z" transform="translate(-6.28 -0.04)"/><path class="cls-1" d="M1447.07,163.4a.92.92,0,0,1-.46.45c-.07-.09-.21-.23-.19-.27S1446.84,163.45,1447.07,163.4Z" transform="translate(-6.28 -0.04)"/><path class="cls-1" d="M1500.84,109c-.27-.21-.39-.39-.13-.73a4.12,4.12,0,0,1,.8-.76c.41-.34.46-.67.07-1,.2-.28.34-.06.47.07a.41.41,0,0,0,.58,0c.22-.19,1.36-.14,1.46.2a.67.67,0,0,0,.71.47,1.41,1.41,0,0,1,.56.21c.15.07.37.17.25.38s-.3,0-.44,0a1.3,1.3,0,0,0-1.75.12c-.16.19-.15.23.15.48-.2.12-.33-.07-.49-.1a.65.65,0,0,0-.93-.08.61.61,0,0,0-.18.24c-.24.36-.66.39-1,.58a.1.1,0,0,1-.13-.06Z" transform="translate(-6.28 -0.04)"/><path class="cls-1" d="M1511.41,106.94c-.55.22-1.13.3-1.67.54-.86.36-1.49,0-2.11-1a1.09,1.09,0,0,1,.9.06,1.59,1.59,0,0,0,1.44,0C1510.67,106.13,1511,106.47,1511.41,106.94Z" transform="translate(-6.28 -0.04)"/><path class="cls-1" d="M1506.48,106.8c-.32.14-.62.24-.89,0,0,0,.07-.26.16-.29C1506.05,106.4,1506.23,106.69,1506.48,106.8Z" transform="translate(-6.28 -0.04)"/><path class="cls-1" d="M1512.63,106.71h1.11C1513.37,107,1513,106.69,1512.63,106.71Z" transform="translate(-6.28 -0.04)"/><path class="cls-1" d="M1507.64,106.47l-1-.41C1507.13,106,1507.47,106,1507.64,106.47Z" transform="translate(-6.28 -0.04)"/><path class="cls-1" d="M1506.13,108.1c.21-.28.38-.29.59-.19A.54.54,0,0,1,1506.13,108.1Z" transform="translate(-6.28 -0.04)"/><path class="cls-1" d="M1511.39,107l.74-.16a.48.48,0,0,1-.66.21Z" transform="translate(-6.28 -0.04)"/><path class="cls-1" d="M1507.27,107.55s.12.08.13.13a.1.1,0,0,1-.13.1c-.07,0-.09-.1-.14-.15Z" transform="translate(-6.28 -0.04)"/><path class="cls-1" d="M1467.6,25.68V23.26h0c.46-.09.3-.47.3-.73v-5.7c0-.24-.06-.49.29-.72a18.94,18.94,0,0,1,0,2.61,10.9,10.9,0,0,0,0,1.4V29c0,.35,0,.73-.4.88-.16.05-.41.05-.45-.15a1.09,1.09,0,0,1,.12-1.06c.8-.9.36-1.93.32-2.92C1467.8,25.73,1467.67,25.71,1467.6,25.68Z" transform="translate(-6.28 -0.04)"/><path class="cls-1" d="M1467.6,23.26c-.16,0-.31-.1-.28-.28.19-1.33-.49-2.59-.31-3.91a10.8,10.8,0,0,0,.31-2.19c-.06-.81-.52-1.56-.32-2.4.08-.3-.23-.84.32-.83s.27.51.27.79v8.82Z" transform="translate(-6.28 -0.04)"/><path class="cls-1" d="M1466.77,28a3.1,3.1,0,0,0,.23-1.73c0-.27,0-.59.38-.59s.19.36.21.53a8,8,0,0,1,0,1.2C1467.59,28.13,1467.59,28.13,1466.77,28Z" transform="translate(-6.28 -0.04)"/><path class="cls-1" d="M1466.77,6.5a3.44,3.44,0,0,1,.1,2.15A5.37,5.37,0,0,1,1466.77,6.5Z" transform="translate(-6.28 -0.04)"/><path class="cls-1" d="M1451,98.63v.46a.67.67,0,0,1-.56.14h-3.72a.64.64,0,0,1-.55-.15c-.1-.45-.47-.29-.74-.29h-5.64a1.37,1.37,0,0,1-.8-.1c.11-.26.31-.2.46-.2h11C1450.63,98.48,1450.84,98.4,1451,98.63Z" transform="translate(-6.28 -0.04)"/><path class="cls-1" d="M1446.13,99.08H1451a.2.2,0,0,1,0,.28l0,0h-9.67c.08-.42.41-.3.66-.3Z" transform="translate(-6.28 -0.04)"/><path class="cls-1" d="M1414.8,100.32a.94.94,0,0,0,1-.15c.25-.17.42-.09.66.2s.65-.22,1.08,0c-.17-.3-.4-.11-.7-.45,1.43.25,2.63-.2,3.88-.24-.13.56-.53.61-1,.69a16,16,0,0,1-4.53.25A.52.52,0,0,1,1414.8,100.32Z" transform="translate(-6.28 -0.04)"/><path class="cls-1" d="M1423.62,100.47c-.46-.09-.8-.36-1.11,0-.12.15-.31-.08-.41-.22s.07-.46.16-.68.24-.2.43-.11C1423.07,99.69,1423.27,100,1423.62,100.47Z" transform="translate(-6.28 -0.04)"/><path class="cls-1" d="M1533.88,119.94a.51.51,0,0,1,.06.7C1533.7,120.4,1533.73,120.23,1533.88,119.94Z" transform="translate(-6.28 -0.04)"/><path class="cls-1" d="M1534,114.84v.84C1533.87,115.4,1533.75,115.16,1534,114.84Z" transform="translate(-6.28 -0.04)"/><path class="cls-1" d="M1532.25,111.32c.18.1.33.21.26.47C1532.16,111.79,1532.29,111.5,1532.25,111.32Z" transform="translate(-6.28 -0.04)"/><path class="cls-1" d="M1533.64,127.2v-.67C1533.81,126.72,1533.77,126.87,1533.64,127.2Z" transform="translate(-6.28 -0.04)"/><path class="cls-1" d="M1469.56,99.4h-1.65v-.29h9.56v.3Z" transform="translate(-6.28 -0.04)"/><path class="cls-1" d="M1451,99.4v-.3h3.14c.25,0,.58-.12.66.29Z" transform="translate(-6.28 -0.04)"/><path class="cls-1" d="M1455.82,97.88c.19.11.47-.26.63.14s-.23.55-.41.7c-.39.35-.56-.2-.87-.26C1455.32,98.13,1455.82,98.29,1455.82,97.88Z" transform="translate(-6.28 -0.04)"/><path class="cls-1" d="M1453.41,97.88h2A2.76,2.76,0,0,1,1453.41,97.88Z" transform="translate(-6.28 -0.04)"/><path class="cls-1" d="M1455.21,99.4h-.29c0-.15,0-.35.21-.32S1455.21,99.26,1455.21,99.4Z" transform="translate(-6.28 -0.04)"/><path class="cls-1" d="M1439.07,175.34a1.78,1.78,0,0,1-.94-.11l.08-.12a1.76,1.76,0,0,1-.24-2.48l.06-.07a.63.63,0,0,0,0-.88h0c-.35-.25-.6,0-.83.27s-.44.41-.64.63-.36.24-.57,0a.37.37,0,0,1,0-.57c.37-.35.7-.73,1.08-1.05a1,1,0,0,1,1.39,0c.45.35.92.74.6,1.44-.17.37-.3.75-.48,1.11a.53.53,0,0,0,.17.72h0c.27.21.4-.06.55-.2s.46-.47.7-.69.31-.48.61-.21.15.49-.06.76A14,14,0,0,1,1439.07,175.34Z" transform="translate(-6.28 -0.04)"/><path class="cls-1" d="M1437.13,175.19c-.44-.27-1,0-1.41-.25,0-.51-.33-.69-.74-.79-.26-.06-.52-.17-.53-.44s.31-.5.55-.66.4.08.55.22a25.78,25.78,0,0,0,2,1.91m0,.07a.31.31,0,0,1-.42-.06Z" transform="translate(-6.28 -0.04)"/><path class="cls-1" d="M1443.76,169.9h-.59a2.88,2.88,0,0,1-1.79.06c-.32,0-.28,0-.19.24h0c-.32.12-.57.08-.62-.32a1.57,1.57,0,0,0-1.58.12c-.55.37-.62-.15-.69-.54a3.85,3.85,0,0,0,1.22.08.79.79,0,0,1,.51-.16,13.93,13.93,0,0,1,2.81.34h.9A.37.37,0,0,0,1443.76,169.9Z" transform="translate(-6.28 -0.04)"/><path class="cls-1" d="M1431.65,174.1c.87.05,1.81-1,2.78.18A8.13,8.13,0,0,1,1431.65,174.1Z" transform="translate(-6.28 -0.04)"/><path class="cls-1" d="M1440.56,169.92a.94.94,0,0,0,.62.32c-.19.22-.4.44-.58.68s-.34.24-.56.06-.26-.36,0-.57Z" transform="translate(-6.28 -0.04)"/><path class="cls-1" d="M1437.87,110.4a1.46,1.46,0,0,1,2.27-.75,2.12,2.12,0,0,0,2,.13c.75-.33,1.36,0,1.74.8h-2.15a8.3,8.3,0,0,1-1.41,0,9.89,9.89,0,0,0-2.24-.13.24.24,0,0,1-.23,0Z" transform="translate(-6.28 -0.04)"/><path class="cls-1" d="M1500.81,170.4c-.86,0-1.65.47-2.51.48a.45.45,0,0,1-.36,0,3.94,3.94,0,0,1-.62-1.44c-.14-.93-.48-1.25-1.42-1.26h-1.72c-.93,0-.93,0-1,.94a4.46,4.46,0,0,0-.66,2.85.51.51,0,0,1-.27.23l-2.09.32a1.82,1.82,0,0,1-1-2.36,2.38,2.38,0,0,1,.23-.41c.65-.7,1.32-1.37,2-2.06a8.27,8.27,0,0,0,1.56-.3.61.61,0,0,1,.45-.24c1.7-.3,3.39-.65,5.11-.89a1.31,1.31,0,0,1,.59.05h.44a1.05,1.05,0,0,1,.72.33c.85.84,1.72,1.65,2.56,2.5.15.15.41.33.2.63s-.62.19-.93.3h0C1501.68,170.4,1501.2,170.2,1500.81,170.4Z" transform="translate(-6.28 -0.04)"/><path class="cls-1" d="M1442.38,55.59a6.15,6.15,0,0,1,.3-1.06l.27-.48a.74.74,0,0,1,.18.93C1443,55.32,1442.82,55.62,1442.38,55.59Z" transform="translate(-6.28 -0.04)"/><path class="cls-1" d="M1442.38,55.59l.75-.61c.42.2.8.53.52,1s-.44,1-1.12.7a.28.28,0,0,0-.28-.17A1,1,0,0,1,1442.38,55.59Z" transform="translate(-6.28 -0.04)"/><path class="cls-1" d="M1440.27,110.4H1438A4.37,4.37,0,0,1,1440.27,110.4Z" transform="translate(-6.28 -0.04)"/><path class="cls-1" d="M1443.75,110.54a6.71,6.71,0,0,1-2-.1A5,5,0,0,1,1443.75,110.54Z" transform="translate(-6.28 -0.04)"/><path class="cls-1" d="M1498.13,171a2.36,2.36,0,0,0-1.25.25,2.62,2.62,0,0,1-2,.4c-.23-.32,0-.45.23-.56a3.39,3.39,0,0,1,1.21-.32,1.36,1.36,0,0,0,.86-.18c.38-.31.63-.09.85.22h.33Z" transform="translate(-6.28 -0.04)"/><path class="cls-1" d="M1498,170.82c-.31-.15-.57-.37-.87.09-.1.14-.57,0-.86.08-.52.09-1.12.06-1.44.63s-.66.31-1,.44a7,7,0,0,0-.79.08.45.45,0,0,1-.32-.07h-.3a3.23,3.23,0,0,1,.59-2.89,1.81,1.81,0,0,1,1.74-1.05c1.2-.06,2.25.13,2.8,1.38C1497.58,170,1498,170.32,1498,170.82Z" transform="translate(-6.28 -0.04)"/><path class="cls-1" d="M1497.51,169.48a3.39,3.39,0,0,0-2-1.23,2.9,2.9,0,0,0-2.56.91,3.38,3.38,0,0,0,0-.45c-.09-.59.15-.8.75-.76s1.49,0,2.24,0a1.33,1.33,0,0,1,1.56,1.07A1.42,1.42,0,0,1,1497.51,169.48Z" transform="translate(-6.28 -0.04)"/></svg>