<svg id="レイヤー_1" data-name="レイヤー 1" xmlns="http://www.w3.org/2000/svg" viewBox="0 0 99.68 44.65"><defs><style>.cls-1{fill:#0f0e0a;}</style></defs><title>mokuzi_tea</title><path class="cls-1" d="M177.81,86.12a6.27,6.27,0,0,1-1.56-3.78c-.18-1.44-.36-3.06-.54-4.44l.18-2a24.38,24.38,0,0,1-.36-3.78,15.71,15.71,0,0,0-.3-3.83l.3-8.23a7.25,7.25,0,0,1,0-3.6,7.73,7.73,0,0,0-.72-3.17l-1-.42c-.84.17-3.78.24-5.7.36a6.63,6.63,0,0,1-3.9-.3c-1.08-.6-1.74-1.86-2.52-2.89a3.91,3.91,0,0,1-.84-2.81l.54-1.62,1.38-.36c1.86.84,5.76.78,7.56.78,2.88-.3,6.3-.6,8.88-.6h12.36A6.18,6.18,0,0,1,195.75,47l.48,1.62L194.67,50c-1.8,0-4.86,1.87-6.6,1.87a12.78,12.78,0,0,0-4.26,1,3.11,3.11,0,0,0-.72,2.4V58l.18,14.46.18,2c-.18,1.8-.36,3.42-.48,5a14,14,0,0,0-.42,5.22,9.25,9.25,0,0,1-1.26,4.8h-1.08C179.13,88.52,178.77,87.32,177.81,86.12Z" transform="translate(-160.87 -45.21)"/><path class="cls-1" d="M207.33,88.82a13.25,13.25,0,0,1-2.88-1.5,6.55,6.55,0,0,1-1.86-2.76c-1.14-2-.9-5-1-5.76,0-1.44.3-2.7.42-4.13a10.29,10.29,0,0,1,1.5-4.09c.6-1,1.14-2.28,1.92-3.66a13.92,13.92,0,0,1,3.18-3.06,41.68,41.68,0,0,1,3.9-2.57,8.5,8.5,0,0,1,4.5-1.38,12.94,12.94,0,0,1,4.08.72c1.14.71,2.52,1,3.72,2a4.66,4.66,0,0,1,1.68,2.58,12.18,12.18,0,0,1,.54,3.73,9,9,0,0,1-1.74,4.85,15.33,15.33,0,0,1-3.54,3.18,18.05,18.05,0,0,1-4.2,1.5,22.29,22.29,0,0,1-4.86.84l-5-1a5.49,5.49,0,0,0-.48,2.58l.24,1.26a6.5,6.5,0,0,0,1.8,2c1.8.3,3.84,0,7.14-.48,1.2-.36,2.46-.36,3.66-.78a10.1,10.1,0,0,0,3.18-1.68,15.19,15.19,0,0,1,3.42-1.74l.48,1.32-.9,2.76a12.22,12.22,0,0,1-3.42,2.94,27.4,27.4,0,0,1-3.6,1.68c-1.56.84-3.3,1.62-8.1,1.68A7.75,7.75,0,0,1,207.33,88.82Zm11.82-21.24c-.42-.72-.84-.9-1.56-.54a12.55,12.55,0,0,0-2.94.6A9,9,0,0,0,211.83,69a5.87,5.87,0,0,0-2.34,3.18l-.3,1.08.18.6a7.2,7.2,0,0,0,4,.24A14,14,0,0,0,215.67,73c.9-.36,2.1-.65,2.58-1.44A9.51,9.51,0,0,0,219.15,67.58Z" transform="translate(-160.87 -45.21)"/><path class="cls-1" d="M233.61,88.16a19.88,19.88,0,0,1-1.32-4.38,16.7,16.7,0,0,1-.78-4.32,18.5,18.5,0,0,1,1.2-5.16,26,26,0,0,1,1.92-4.68,17.58,17.58,0,0,1,2.82-4.37c.84-.67,1.74-1.33,2.64-2.1s1.74-1.15,2.7-1.86a6.94,6.94,0,0,1,3.6-.42c.6.78,1.32.78,2.1,1.5a7.58,7.58,0,0,1,2.28,1.26,3.45,3.45,0,0,1,.9,2.63l-.18,2.65.3,3.59c.18,2.34.48,3.84.6,5.4a37.89,37.89,0,0,0,.9,5c.66-.3,1.08-1.2,2.16-2.64a19.6,19.6,0,0,1,2-4.07l1.38-.07,1.26,1,.42,3.84a9.48,9.48,0,0,1-1.44,3.42,22.9,22.9,0,0,0-1.86,3.3,4.17,4.17,0,0,1-2.76,1.26,11.22,11.22,0,0,1-2.94.24,4.09,4.09,0,0,1-2.7-2.34,19.27,19.27,0,0,1-1-2.7s-.54.9-1,1.68A8.51,8.51,0,0,1,244.29,88,8,8,0,0,1,240,89.3c-1.38.12-2.58.06-3.9.24A3.94,3.94,0,0,1,233.61,88.16Zm9.54-8.94c.48-1.2.78-2.64,1.26-3.84a21.68,21.68,0,0,0,.42-4.44l-.24-1.8-1.38-.54a8.71,8.71,0,0,1-1.56,1,6.19,6.19,0,0,0-1.44,2.22,30.78,30.78,0,0,0-1.62,4.86,28,28,0,0,0-.72,5.76c.54,1.68,1.2,2.16,2.28,1.68l1.26-1.26A22.62,22.62,0,0,0,243.15,79.22Z" transform="translate(-160.87 -45.21)"/></svg>