<svg id="レイヤー_1" data-name="レイヤー 1" xmlns="http://www.w3.org/2000/svg" viewBox="0 0 157.2 48"><defs><style>.cls-1{fill:#0f0e0a;}</style></defs><title>mokuzi_shake</title><path class="cls-1" d="M143,89.4c-1.26-.24-2.52-.72-3.78-1a5.91,5.91,0,0,1-3.48-1.8c-1-1-1.08-2.94-1.56-4.32a31.14,31.14,0,0,1-1.32-4.2,12,12,0,0,1-.72-4.38l1.38-.24A7.38,7.38,0,0,1,136,76.38c.54,1,1.2,2.94,2,3.9a13.42,13.42,0,0,0,2.7,2.34l3.78,1.08a11.75,11.75,0,0,0,4.32-1.08,31.91,31.91,0,0,1,3.72-1.5c1.26-.42,2.22-1.26,2.94-3.6l.36-1.2-1.08-2.1a9.78,9.78,0,0,0-2.88-3.12c-1-.48-2-.54-3.3-1.2-1.08-.24-2.46-.42-3.66-.6a5.44,5.44,0,0,1-3.6-1.44A33.12,33.12,0,0,1,138.35,65a20.75,20.75,0,0,1-1.74-5.28,11.1,11.1,0,0,1-.48-4.8,29.37,29.37,0,0,1,1.26-3.66,20.07,20.07,0,0,1,1.68-3.18,17.92,17.92,0,0,1,2.76-1.68,11.35,11.35,0,0,1,2.94-1,14.21,14.21,0,0,1,3.24-.24c1.2.24,2.4.66,3.48.84a11.24,11.24,0,0,1,3.54,1.2,13.42,13.42,0,0,1,3.12,2.46,11.51,11.51,0,0,1,1.2,4.08L158,55.08h-1.26c-.9-1.56-1.74-2.22-2.7-2.46s-2-.6-3-.78a7.38,7.38,0,0,0-3.24,0c-1.08.18-2.46.6-3.6.78a11.08,11.08,0,0,0-3.42,1.86l-.84,4.8a5.21,5.21,0,0,0,1.86,2.58,19.72,19.72,0,0,0,6.06,2.7,40.85,40.85,0,0,1,6.42,2.28c2,1,4.32,2.4,5.64,4.38a18.6,18.6,0,0,1,2.28,3.9,9.45,9.45,0,0,1,1.44,4.32,16.93,16.93,0,0,1-1,4.08,5.46,5.46,0,0,1-2.1,3.24,7.37,7.37,0,0,1-4.32,2.1c-1.68.12-3.06.54-4.62.54a11.8,11.8,0,0,0-4.68.66A23.66,23.66,0,0,1,143,89.4Z" transform="translate(-132.11 -42.18)"/><path class="cls-1" d="M169.61,88.5l-.54-10.26V71a63.41,63.41,0,0,1,1.2-10c-.06-1.26.3-4,.48-7.38s.48-6.66.66-10l.48-1.2,1.14-.24,5.22,1.62a4.52,4.52,0,0,1,1,3.6,13.66,13.66,0,0,0-1.56,4c-.12,1.62-.3,3.24-.3,4.62l-.48,4.86,1.32.6a9.59,9.59,0,0,1,3.48-1.2,21.94,21.94,0,0,1,4-.24l3.78,1.62a10.78,10.78,0,0,0,1.68,2.22,5.28,5.28,0,0,1,.6,2.58,27.2,27.2,0,0,0,.18,5.64c.24,1.62.48,3.24.78,7.32.24,1.62.66,3.24.9,4.86-.24,1-.24,1.8-.54,2.76a7.14,7.14,0,0,1-1,2.64l-3.3.42A2.76,2.76,0,0,1,187,87.9a30.2,30.2,0,0,1-1.26-7c-.42-4.92-.84-6.48-1.2-8.94a69,69,0,0,0-1.56-6.78l-1.38-.42A15.29,15.29,0,0,0,179,66.12a12.61,12.61,0,0,0-2.16,2.22,8.41,8.41,0,0,0-.9,4,17.68,17.68,0,0,1-.18,4.68l.3,3.84c0,1.38-.18,3-.3,4.38a37.31,37.31,0,0,1-1.14,4.26,5.5,5.5,0,0,1-3.6.6Z" transform="translate(-132.11 -42.18)"/><path class="cls-1" d="M199.85,88.44a19.88,19.88,0,0,1-1.32-4.38,16.7,16.7,0,0,1-.78-4.32,18.5,18.5,0,0,1,1.2-5.16,25.66,25.66,0,0,1,1.92-4.68,17.64,17.64,0,0,1,2.82-4.38c.84-.66,1.74-1.32,2.64-2.1s1.74-1.14,2.7-1.86a7,7,0,0,1,3.6-.42c.6.78,1.32.78,2.1,1.5A7.81,7.81,0,0,1,217,63.9a3.48,3.48,0,0,1,.9,2.64l-.18,2.64.3,3.6c.18,2.34.48,3.84.6,5.4a37.89,37.89,0,0,0,.9,5c.66-.3,1.08-1.2,2.16-2.64a19.94,19.94,0,0,1,2-4.08l1.38-.06,1.26,1,.42,3.84a9.48,9.48,0,0,1-1.44,3.42,22.9,22.9,0,0,0-1.86,3.3,4.17,4.17,0,0,1-2.76,1.26,11.22,11.22,0,0,1-2.94.24,4.09,4.09,0,0,1-2.7-2.34,19.27,19.27,0,0,1-1-2.7s-.54.9-1,1.68a8.51,8.51,0,0,1-2.58,2.22,8,8,0,0,1-4.32,1.32c-1.38.12-2.58.06-3.9.24A3.94,3.94,0,0,1,199.85,88.44Zm9.54-8.94c.48-1.2.78-2.64,1.26-3.84a21.83,21.83,0,0,0,.42-4.44l-.24-1.8-1.38-.54a8.71,8.71,0,0,1-1.56,1,6.19,6.19,0,0,0-1.44,2.22A30.78,30.78,0,0,0,204.83,77a28,28,0,0,0-.72,5.76c.54,1.68,1.2,2.16,2.28,1.68l1.26-1.26A22.62,22.62,0,0,0,209.39,79.5Z" transform="translate(-132.11 -42.18)"/><path class="cls-1" d="M234.65,88.38A14.83,14.83,0,0,1,232.79,84a17.22,17.22,0,0,1-.54-4.86c.12-3.6.54-7.2.78-11,.18-3.6.3-7.2.54-11s.36-7.44.6-11l-.24-1.62a5,5,0,0,1,2.58-1,23.66,23.66,0,0,0,2.64-.78l3.6,1.38a2.9,2.9,0,0,1,.48,2.4,7.47,7.47,0,0,0-1.74,3.84c.12,1.38-.12,3-.12,4.38a26.48,26.48,0,0,1-.78,4.62l.48,8.64.78.42A43.41,43.41,0,0,1,247,65.1c1.32-.6,2.34-1.38,3.72-2.16a26.65,26.65,0,0,0,3.78-2.46l4.2,2.82.18,1.62-1.38,1.44A10,10,0,0,1,254.21,69c-1.32.6-2.4,1-3.54,1.62a13.53,13.53,0,0,0-2.88,2.7l-.24.72a52.49,52.49,0,0,0,4.44,4.5c1.26,1.44,2.58,2.82,3.9,4.26s2.4,2.76,3.84,4.2v1a5.49,5.49,0,0,1-4,.78,7.77,7.77,0,0,1-3.12-1.38c-.9-.6-1.68-1.44-2.64-2.22-1.32-1.38-3.54-4.08-4.68-5.28a26.4,26.4,0,0,0-3.54-2.76l-1.26.12c-.24,1.38-.6,3-.84,4.44s-.3,3-.54,4.38a7,7,0,0,1-1.32,3.72l-1.26.18C235.55,89.82,234.53,89.4,234.65,88.38Z" transform="translate(-132.11 -42.18)"/><path class="cls-1" d="M269.57,89.1a13.25,13.25,0,0,1-2.88-1.5,6.55,6.55,0,0,1-1.86-2.76c-1.14-2-.9-5-1-5.76,0-1.44.3-2.7.42-4.14a10.19,10.19,0,0,1,1.5-4.08c.6-1,1.14-2.28,1.92-3.66a13.92,13.92,0,0,1,3.18-3.06,43.86,43.86,0,0,1,3.9-2.58,8.68,8.68,0,0,1,4.5-1.38,12.94,12.94,0,0,1,4.08.72c1.14.72,2.52,1,3.72,2a4.63,4.63,0,0,1,1.68,2.58,12.11,12.11,0,0,1,.54,3.72A9,9,0,0,1,287.51,74,15.56,15.56,0,0,1,284,77.22a18.52,18.52,0,0,1-4.2,1.5,22.29,22.29,0,0,1-4.86.84l-5-1a5.49,5.49,0,0,0-.48,2.58l.24,1.26a6.5,6.5,0,0,0,1.8,2c1.8.3,3.84,0,7.14-.48,1.2-.36,2.46-.36,3.66-.78a10.1,10.1,0,0,0,3.18-1.68,15.19,15.19,0,0,1,3.42-1.74l.48,1.32-.9,2.76A12.22,12.22,0,0,1,285,86.76a27.4,27.4,0,0,1-3.6,1.68c-1.56.84-3.3,1.62-8.1,1.68A7.75,7.75,0,0,1,269.57,89.1Zm11.82-21.24c-.42-.72-.84-.9-1.56-.54a12.06,12.06,0,0,0-2.94.6,8.84,8.84,0,0,0-2.82,1.38,5.83,5.83,0,0,0-2.34,3.18l-.3,1.08.18.6a7.2,7.2,0,0,0,4,.24,14,14,0,0,0,2.34-1.14c.9-.36,2.1-.66,2.58-1.44A9.51,9.51,0,0,0,281.39,67.86Z" transform="translate(-132.11 -42.18)"/></svg>