<svg id="レイヤー_1" data-name="レイヤー 1" xmlns="http://www.w3.org/2000/svg" viewBox="0 0 192.01 48.9"><defs><style>.cls-1{fill:#0f0e0a;}</style></defs><title>mokuzi_coffee</title><path class="cls-1" d="M126.72,90.18a9.87,9.87,0,0,1-3.06-1.38c-.78-.6-1.8-1.26-2.88-2.22a34,34,0,0,0-3.06-4.38,18.15,18.15,0,0,1-2.4-4.68,13.73,13.73,0,0,1-.6-5.22,30.74,30.74,0,0,1,1.5-7.92,36.12,36.12,0,0,1,3.42-7,21.25,21.25,0,0,1,4.92-6.06A10.86,10.86,0,0,1,128,48.66a32,32,0,0,1,3.78-1.38,12.38,12.38,0,0,1,4.08-.66,12.94,12.94,0,0,1,3.66,1.44c1.14.6,2.16,1.44,3.42,2.28l1.38,3.42-1.32,1-3.48,1-1.08-.18c-1.62.18-3.12.18-4.56.42s-3.06.66-4.62.84a7.38,7.38,0,0,0-3.54,2.58c-.9,1.44-1.74,2.88-2.7,4.26a9.07,9.07,0,0,0-1.74,4.62c-.18,1.86-.3,3.42-.54,5.28a17.69,17.69,0,0,0,1.14,4,6.61,6.61,0,0,0,2,3.6,9.14,9.14,0,0,0,2.58,1.44,16.32,16.32,0,0,0,3.06.78,8.28,8.28,0,0,0,3,.18c1.5-.42,3.18-.72,4.74-1.32a19.07,19.07,0,0,0,4.56-2.28c1.44-.84,2.88-1.62,5-2.64l.24,3.42a7.07,7.07,0,0,1-1.5,2.82,10.2,10.2,0,0,1-2.16,2.7,41,41,0,0,1-4.08,2.58A34.58,34.58,0,0,1,135,90.42a12.47,12.47,0,0,1-5.16.6C128.82,90.78,127.74,90.42,126.72,90.18Z" transform="translate(-114.7 -43.08)"/><path class="cls-1" d="M160,91a12.78,12.78,0,0,1-3.66-1.74,14,14,0,0,1-2.46-4,21.05,21.05,0,0,1-1.2-4.74,21.43,21.43,0,0,1-.18-4.86,19.15,19.15,0,0,1,1.38-5.22,18.52,18.52,0,0,1,2.52-5,32.29,32.29,0,0,1,3.48-4.2l2.64-1.38c3.18,0,4.14.66,6.18,1.38a15.72,15.72,0,0,1,4.5,1.74c1.26.9,2.22,1.32,3.3,2a12.43,12.43,0,0,1,2.76,3,22.11,22.11,0,0,1,2,5c.24,3.54-1.5,6.6-2.4,8.28s-1.92,3.36-2.82,4.8a11.93,11.93,0,0,1-4.38,4.08,14.92,14.92,0,0,1-3.6,1.2,10.67,10.67,0,0,1-8-.36ZM170.34,82a16.36,16.36,0,0,0,2.16-3.18l.42-1.5c.42-2.64.36-4.08-.6-4.86-1-1.2-2.4-1.26-3.42-2.28a5,5,0,0,0-4.14-1.5h-.84a44.92,44.92,0,0,0-4,3.24A12,12,0,0,0,158,74.64a10.85,10.85,0,0,0-.6,2.58A6.12,6.12,0,0,0,157.2,80a6.82,6.82,0,0,0,1.08,2.34,4.73,4.73,0,0,0,1.5,2.22,6.05,6.05,0,0,0,2.28,1,6.12,6.12,0,0,0,2.52.18l2.76-1.2A19.61,19.61,0,0,0,170.34,82Z" transform="translate(-114.7 -43.08)"/><path class="cls-1" d="M195.6,87.48a36,36,0,0,1-1.08-6.6,63.12,63.12,0,0,1-.84-6.66c-.18-1.44-.6-3.48-1.08-5.7v-.18a31.09,31.09,0,0,1-5.82-2.22,5.57,5.57,0,0,1-1.8-3.18c1.2-.18,3.66-1,4.5-1.2,2.52-.24,3.3,0,3.9-.6a17.26,17.26,0,0,0,1.44-3.54c.54-1.5,1.32-3.72,2.28-5.88a21.49,21.49,0,0,1,3.6-5.82,7.63,7.63,0,0,1,2.88-2.22,9.53,9.53,0,0,1,3.54-.6,19.06,19.06,0,0,0,2.4,1,5.71,5.71,0,0,1,2.4,1.38,25.26,25.26,0,0,1,2.1,7l-.78,1.62c-1,.18-2,.6-3.06.78a2.28,2.28,0,0,1-1.92-.66c-.84-.9-.48-2.46-.78-2.7-1.92-.3-3.66,1.8-3.66,1.8a8.19,8.19,0,0,0-2.28,3.42l-1.74,2.82-.12,1.62c.9.6,4.86.84,6.24,1.08,1.74-.18,2.76,1.14,4.26,1.56l.84,2.34a8.58,8.58,0,0,1-3.9,1.44c-1.08.18-2,.42-3.18.6l-1.32.18H200.7l-.78.84-.18,5c.18,1.86.54,3.42.66,5.22s.36,3.42.66,5c.12,1.8.48,3.42.66,5.22-.66,1.2-1.8,1.62-3.72,1.2A4.84,4.84,0,0,1,195.6,87.48Z" transform="translate(-114.7 -43.08)"/><path class="cls-1" d="M228.6,87.48a36,36,0,0,1-1.08-6.6,63.12,63.12,0,0,1-.84-6.66c-.18-1.44-.6-3.48-1.08-5.7v-.18a31.09,31.09,0,0,1-5.82-2.22,5.57,5.57,0,0,1-1.8-3.18c1.2-.18,3.66-1,4.5-1.2,2.52-.24,3.3,0,3.9-.6a17.26,17.26,0,0,0,1.44-3.54c.54-1.5,1.32-3.72,2.28-5.88a21.49,21.49,0,0,1,3.6-5.82,7.63,7.63,0,0,1,2.88-2.22,9.53,9.53,0,0,1,3.54-.6,19.06,19.06,0,0,0,2.4,1,5.71,5.71,0,0,1,2.4,1.38,25.26,25.26,0,0,1,2.1,7l-.78,1.62c-1,.18-2,.6-3.06.78a2.28,2.28,0,0,1-1.92-.66c-.84-.9-.48-2.46-.78-2.7-1.92-.3-3.66,1.8-3.66,1.8a8.19,8.19,0,0,0-2.28,3.42l-1.74,2.82-.12,1.62c.9.6,4.86.84,6.24,1.08,1.74-.18,2.76,1.14,4.26,1.56l.84,2.34a8.58,8.58,0,0,1-3.9,1.44c-1.08.18-2,.42-3.18.6l-1.32.18H233.7l-.78.84-.18,5c.18,1.86.54,3.42.66,5.22s.36,3.42.66,5c.12,1.8.48,3.42.66,5.22-.66,1.2-1.8,1.62-3.72,1.2A4.84,4.84,0,0,1,228.6,87.48Z" transform="translate(-114.7 -43.08)"/><path class="cls-1" d="M257,90a13.25,13.25,0,0,1-2.88-1.5,6.55,6.55,0,0,1-1.86-2.76c-1.14-2-.9-5-1-5.76,0-1.44.3-2.7.42-4.14a10.19,10.19,0,0,1,1.5-4.08c.6-1,1.14-2.28,1.92-3.66A13.92,13.92,0,0,1,258.24,65a43.86,43.86,0,0,1,3.9-2.58,8.68,8.68,0,0,1,4.5-1.38,12.94,12.94,0,0,1,4.08.72c1.14.72,2.52,1,3.72,2a4.63,4.63,0,0,1,1.68,2.58,12.11,12.11,0,0,1,.54,3.72,9,9,0,0,1-1.74,4.86,15.56,15.56,0,0,1-3.54,3.18,18.52,18.52,0,0,1-4.2,1.5,22.29,22.29,0,0,1-4.86.84l-5-1A5.49,5.49,0,0,0,256.8,82l.24,1.26a6.5,6.5,0,0,0,1.8,2c1.8.3,3.84,0,7.14-.48,1.2-.36,2.46-.36,3.66-.78a10.1,10.1,0,0,0,3.18-1.68,15.19,15.19,0,0,1,3.42-1.74l.48,1.32-.9,2.76a12.22,12.22,0,0,1-3.42,2.94,27.4,27.4,0,0,1-3.6,1.68c-1.56.84-3.3,1.62-8.1,1.68A7.75,7.75,0,0,1,257,90ZM268.8,68.76c-.42-.72-.84-.9-1.56-.54a12.06,12.06,0,0,0-2.94.6,8.84,8.84,0,0,0-2.82,1.38,5.83,5.83,0,0,0-2.34,3.18l-.3,1.08.18.6a7.2,7.2,0,0,0,4,.24,14,14,0,0,0,2.34-1.14c.9-.36,2.1-.66,2.58-1.44A9.51,9.51,0,0,0,268.8,68.76Z" transform="translate(-114.7 -43.08)"/><path class="cls-1" d="M287,90a13.25,13.25,0,0,1-2.88-1.5,6.55,6.55,0,0,1-1.86-2.76c-1.14-2-.9-5-1-5.76,0-1.44.3-2.7.42-4.14a10.19,10.19,0,0,1,1.5-4.08c.6-1,1.14-2.28,1.92-3.66A13.92,13.92,0,0,1,288.24,65a43.86,43.86,0,0,1,3.9-2.58,8.68,8.68,0,0,1,4.5-1.38,12.94,12.94,0,0,1,4.08.72c1.14.72,2.52,1,3.72,2a4.63,4.63,0,0,1,1.68,2.58,12.11,12.11,0,0,1,.54,3.72,9,9,0,0,1-1.74,4.86,15.56,15.56,0,0,1-3.54,3.18,18.52,18.52,0,0,1-4.2,1.5,22.29,22.29,0,0,1-4.86.84l-5-1A5.49,5.49,0,0,0,286.8,82l.24,1.26a6.5,6.5,0,0,0,1.8,2c1.8.3,3.84,0,7.14-.48,1.2-.36,2.46-.36,3.66-.78a10.1,10.1,0,0,0,3.18-1.68,15.19,15.19,0,0,1,3.42-1.74l.48,1.32-.9,2.76a12.22,12.22,0,0,1-3.42,2.94,27.4,27.4,0,0,1-3.6,1.68c-1.56.84-3.3,1.62-8.1,1.68A7.75,7.75,0,0,1,287,90ZM298.8,68.76c-.42-.72-.84-.9-1.56-.54a12.06,12.06,0,0,0-2.94.6,8.84,8.84,0,0,0-2.82,1.38,5.83,5.83,0,0,0-2.34,3.18l-.3,1.08.18.6a7.2,7.2,0,0,0,4,.24,14,14,0,0,0,2.34-1.14c.9-.36,2.1-.66,2.58-1.44A9.51,9.51,0,0,0,298.8,68.76Z" transform="translate(-114.7 -43.08)"/></svg>