<svg id="レイヤー_1" data-name="レイヤー 1" xmlns="http://www.w3.org/2000/svg" viewBox="0 0 142.5 47.22"><defs><style>.cls-1{fill:#0f0e0a;}</style></defs><title>mokuzi_juice</title><path class="cls-1" d="M153.35,89a21.37,21.37,0,0,1-4.08-1,10.57,10.57,0,0,1-3.36-2.1c-1.32-1-1.8-2.16-2.7-3.84-1.14-.9-1.74-2.52-2.28-4.14s-1.14-3-1.62-4.86l1-.18c1.56.48,3,1.44,5,4.08.6.84,3.24,3.72,5,4.38a9.23,9.23,0,0,0,5.7.6c1.08,0,1.86-.6,2.58-1.86,1-1.38,1.68-3.18,2-7.56.12-1.8.3-3.78.54-5.76V60.66a26,26,0,0,1-.42-4c-.12-1.8-.36-3.54-.36-5.34a10.63,10.63,0,0,0-1-5.1,2.53,2.53,0,0,1,2.34-.78c.9.18,1.62.36,2.52.6a12.86,12.86,0,0,1,2.28,1.56c.48.84,1.26,1.38,1.38,3,0,.9-.72,1.86-.9,2.82a19.83,19.83,0,0,0-.36,3.24l-.06,16.68a21.38,21.38,0,0,0-.36,4.5,7.43,7.43,0,0,1-1,3.9,8.84,8.84,0,0,1-1.86,3.84c-.9,1.2-2.16,2.22-3.12,3.42l-2.64.84A33.43,33.43,0,0,1,153.35,89Z" transform="translate(-139.31 -43.44)"/><path class="cls-1" d="M196.31,88c-.48-1-1-1.86-1-1.86h-.12a8.57,8.57,0,0,1-2.88,2.4,9.29,9.29,0,0,1-3.42,1.2,11.82,11.82,0,0,1-3.84.18,11.14,11.14,0,0,1-4.86-1.32,11.59,11.59,0,0,1-3.6-3.48,17.89,17.89,0,0,1-2.1-3.78c-.3-1.62-.78-3.06-1-4.62a23.46,23.46,0,0,1-.18-4.62l.18-9.66-.36-1.38a3.42,3.42,0,0,1,2.82-.84,4.2,4.2,0,0,0,2.64.84c.84.18,1.86.24,2.34,1.32,0,2.4-.48,4.92-.72,7.38a24.55,24.55,0,0,0,.3,5.76v4.8a7.2,7.2,0,0,0,1.92,3.36,11.87,11.87,0,0,0,2.4.42,9.53,9.53,0,0,0,3.06-1.8,10.19,10.19,0,0,0,2.7-2.82,14.18,14.18,0,0,0,1.44-3.36c.18-1.2.54-2.46.72-3.84l.3-4.8.12-1.2a11.35,11.35,0,0,1-.84-2.64c-.12-.78-.3-1.62-.48-2.58a2.52,2.52,0,0,1,2.4-.84,10.32,10.32,0,0,0,2.22,1,5.71,5.71,0,0,1,2.4,1.38,4.15,4.15,0,0,1,1,3.24l-.36,2.4s.36,4.2.36,6.84a48.79,48.79,0,0,0,.6,7.8c.54,2.64.48,3.9.9,6.54l-1,1.2H199A4.75,4.75,0,0,1,196.31,88Z" transform="translate(-139.31 -43.44)"/><path class="cls-1" d="M209.81,87.9l-.3-16.32c0-9-.42-9.6-.54-10.62a2.27,2.27,0,0,1,2.28-.6,13.21,13.21,0,0,0,2.7,1,6.1,6.1,0,0,1,2.4,1.38,8.46,8.46,0,0,1,1.5,4,7.8,7.8,0,0,0-1.32,2.64,24.19,24.19,0,0,0-.3,3l.18,2.16c-.18,1.86-.36,3.84-.36,5.64,0,0-.18,2.28-.36,4.08a14.48,14.48,0,0,1-2.1,5,2.28,2.28,0,0,1-2.22.6A3.93,3.93,0,0,1,209.81,87.9Zm1-37.2c-1.08-.66-1.32-2.16-1.5-3.36a4.25,4.25,0,0,1,.66-3.9,22,22,0,0,0,4.74.9s2,.72,3.42,1.32l.36,1.8c-.66.42-1,1.74-1.62,2.34-.54.78-1.2,1.44-3.18,1.68Z" transform="translate(-139.31 -43.44)"/><path class="cls-1" d="M231.11,89.34a12.1,12.1,0,0,1-2.88-2.46,9.75,9.75,0,0,1-1.62-4.2,24.62,24.62,0,0,1-.36-4.44,33.93,33.93,0,0,1,.72-4.86,17.3,17.3,0,0,1,1.2-4.26A34.65,34.65,0,0,1,230,65a12.59,12.59,0,0,1,4-3,10.8,10.8,0,0,1,4.5-1.5,33.13,33.13,0,0,1,4.8-.42,7.68,7.68,0,0,1,4,1.74c.54.78,1,1.5,1.56,2.22a4.24,4.24,0,0,1,.48,3.06,5.76,5.76,0,0,1-3.42.9,12.62,12.62,0,0,0-2.4-1.08c-.9-.3-1.32-.84-2.46-.54s-2.16,1.32-3.36,2a30.14,30.14,0,0,0-3.54,2.34,4.83,4.83,0,0,0-1,1.92c-.24.9-.36,2.1-.66,3.6a19.15,19.15,0,0,0,.18,4.68,3.88,3.88,0,0,0,1.08,2.28c1.14.9,2.34,1.26,6.84,1.38a7,7,0,0,0,2.88-1.08A10.46,10.46,0,0,0,246.17,82a9.9,9.9,0,0,0,2.4-2.16l1.56-1.56,1.26-.72.84,2.4a10.32,10.32,0,0,1-3.06,6,22.36,22.36,0,0,1-3.42,2.4A8.92,8.92,0,0,1,242,90.06a32.89,32.89,0,0,1-7.5.18A9.2,9.2,0,0,1,231.11,89.34Z" transform="translate(-139.31 -43.44)"/><path class="cls-1" d="M262.07,89.1a13.25,13.25,0,0,1-2.88-1.5,6.55,6.55,0,0,1-1.86-2.76c-1.14-2-.9-5-1-5.76,0-1.44.3-2.7.42-4.14a10.19,10.19,0,0,1,1.5-4.08c.6-1,1.14-2.28,1.92-3.66a13.92,13.92,0,0,1,3.18-3.06,43.86,43.86,0,0,1,3.9-2.58,8.68,8.68,0,0,1,4.5-1.38,12.94,12.94,0,0,1,4.08.72c1.14.72,2.52,1,3.72,2a4.63,4.63,0,0,1,1.68,2.58,12.11,12.11,0,0,1,.54,3.72A9,9,0,0,1,280,74a15.56,15.56,0,0,1-3.54,3.18,18.52,18.52,0,0,1-4.2,1.5,22.29,22.29,0,0,1-4.86.84l-5-1a5.49,5.49,0,0,0-.48,2.58l.24,1.26a6.5,6.5,0,0,0,1.8,2c1.8.3,3.84,0,7.14-.48,1.2-.36,2.46-.36,3.66-.78a10.1,10.1,0,0,0,3.18-1.68,15.19,15.19,0,0,1,3.42-1.74l.48,1.32-.9,2.76a12.22,12.22,0,0,1-3.42,2.94,27.4,27.4,0,0,1-3.6,1.68c-1.56.84-3.3,1.62-8.1,1.68A7.75,7.75,0,0,1,262.07,89.1Zm11.82-21.24c-.42-.72-.84-.9-1.56-.54a12.06,12.06,0,0,0-2.94.6,8.84,8.84,0,0,0-2.82,1.38,5.83,5.83,0,0,0-2.34,3.18l-.3,1.08.18.6a7.2,7.2,0,0,0,4,.24,14,14,0,0,0,2.34-1.14c.9-.36,2.1-.66,2.58-1.44A9.51,9.51,0,0,0,273.89,67.86Z" transform="translate(-139.31 -43.44)"/></svg>