<svg id="レイヤー_1" data-name="レイヤー 1" xmlns="http://www.w3.org/2000/svg" viewBox="0 0 1561.76 180.57"><defs><style>.cls-1{fill:#0f0e0a;}.cls-2{fill:none;}.cls-3{fill:#1b1b1b;}</style></defs><title>mokuzi_side</title><path class="cls-1" d="M22.11,178.88c-2.1-.4-4.21-1.2-6.31-1.6a9.85,9.85,0,0,1-5.8-3c-1.7-1.7-1.8-4.9-2.6-7.2a52.11,52.11,0,0,1-2.2-7,20,20,0,0,1-1.2-7.3l2.3-.4a12.37,12.37,0,0,1,4.1,4.8c.9,1.6,2,4.9,3.4,6.5a22.08,22.08,0,0,0,4.51,3.9l6.3,1.8a19.74,19.74,0,0,0,7.2-1.8c1.9-.7,3.8-1.9,6.2-2.5,2.1-.7,3.7-2.1,4.9-6l.6-2-1.8-3.5c-1.3-2.1-3.3-4.4-4.8-5.2-1.7-.8-3.4-.9-5.5-2-1.8-.4-4.1-.7-6.1-1a9.08,9.08,0,0,1-6-2.4,57,57,0,0,1-4.91-4.8,34.56,34.56,0,0,1-2.9-8.8,18.56,18.56,0,0,1-.8-8,50.48,50.48,0,0,1,2.13-6.09,33.12,33.12,0,0,1,2.8-5.3,29.72,29.72,0,0,1,4.61-2.81,19,19,0,0,1,4.9-1.7,24.43,24.43,0,0,1,5.4-.39c2,.39,4,1.09,5.8,1.39a18.4,18.4,0,0,1,5.9,2,22.2,22.2,0,0,1,5.2,4.1,19.27,19.27,0,0,1,2,6.8l-2.3,2.3H45c-1.5-2.6-2.9-3.7-4.5-4.1s-3.3-1-5-1.3a12.3,12.3,0,0,0-5.4,0c-1.8.3-4.1,1-6,1.3a18.64,18.64,0,0,0-5.71,3.1l-1.4,8c.31,1.8,1.81,3,3.1,4.3a32.92,32.92,0,0,0,10.11,4.5,68.38,68.38,0,0,1,10.7,3.8c3.3,1.7,7.2,4,9.4,7.3a30.89,30.89,0,0,1,3.8,6.5,15.8,15.8,0,0,1,2.4,7.2,28.4,28.4,0,0,1-1.6,6.8c-.7,2.1-1.2,3.7-3.5,5.4s-4.2,3.3-7.2,3.5c-2.8.2-5.1.9-7.7.9a19.7,19.7,0,0,0-7.8,1.1A40.06,40.06,0,0,1,22.11,178.88Z" transform="translate(-3.99 -0.01)"/><path class="cls-1" d="M71,176.38l-.5-27.2c0-15-.7-16-.9-17.7a3.78,3.78,0,0,1,3.8-1,21.82,21.82,0,0,0,4.5,1.7,10.22,10.22,0,0,1,4,2.3,14,14,0,0,1,2.5,6.7,13,13,0,0,0-2.2,4.4,39.75,39.75,0,0,0-.5,5l.3,3.6c-.3,3.1-.6,6.4-.6,9.4,0,0-.3,3.8-.6,6.8a24,24,0,0,1-3.5,8.4,3.79,3.79,0,0,1-3.7,1A6.57,6.57,0,0,1,71,176.38Zm1.7-62c-1.8-1.1-2.2-3.61-2.5-5.61a7.08,7.08,0,0,1,1.1-6.5c2.6,1,5.3,1.1,7.9,1.5,0,0,3.3,1.2,5.7,2.2l.6,3c-1.1.69-1.7,2.89-2.7,3.89-.9,1.3-2,2.41-5.3,2.8Z" transform="translate(-3.99 -0.01)"/><path class="cls-1" d="M101.4,175.88a14.8,14.8,0,0,1-2.1-5.4,12.5,12.5,0,0,1-.7-6v-6c.9-2.3,1.6-5,2.5-7.7a34.8,34.8,0,0,1,2.9-7,21.69,21.69,0,0,1,5.1-6.4,39.05,39.05,0,0,0,4.8-3.7,25.83,25.83,0,0,1,4.9-2.6,10.83,10.83,0,0,1,5.9-.7l1.7.7c.8-2.7,1.7-5.7,2.4-8.7.3-3,1.2-5.71,2.6-9.9.9-2.71.5-6.11,1.6-9.9a6.45,6.45,0,0,1,5.5-1.51,11.78,11.78,0,0,1,4.9,1,7.91,7.91,0,0,1,4.41,3.5l-.3,1.79-3.2,6.5c-2,6.21-4,11.81-5,16.81a158.78,158.78,0,0,0-2.2,15.8,97.57,97.57,0,0,0-.6,16.3l2.2,5c2.1.8,2.2,2.4,2.5,4v3.4a10.44,10.44,0,0,1-5.9,3,9.53,9.53,0,0,1-6.5-3.6l-1.7-3.6a18.05,18.05,0,0,1-5,4.5,26.9,26.9,0,0,1-6.4,3.5l-8.2.2A10.6,10.6,0,0,1,101.4,175.88Zm15.9-11.4a32.28,32.28,0,0,0,4-5.7c.9-2,2.3-4,3.1-6v-3.7a7,7,0,0,0-1.2-4l-4.6-1a7.53,7.53,0,0,0-3.6,2,14.54,14.54,0,0,0-3.1,3.4,32.23,32.23,0,0,0-3.4,6.7c-.8,2.3-1.8,4.6-2.4,7a17.65,17.65,0,0,0,2.2,6.7l2.7.6,1.5-1A28.75,28.75,0,0,0,117.3,164.48Z" transform="translate(-3.99 -0.01)"/><path class="cls-1" d="M163.1,178.38a21.7,21.7,0,0,1-4.8-2.5,11,11,0,0,1-3.1-4.6c-1.9-3.3-1.5-8.4-1.7-9.6,0-2.4.5-4.5.7-6.9a17.1,17.1,0,0,1,2.5-6.8c1-1.7,1.9-3.8,3.2-6.1a23.12,23.12,0,0,1,5.3-5.1,73.79,73.79,0,0,1,6.5-4.3,14.49,14.49,0,0,1,7.5-2.3,21.57,21.57,0,0,1,6.8,1.2c1.9,1.2,4.2,1.7,6.2,3.3s2.2,2.9,2.8,4.3a20.36,20.36,0,0,1,.9,6.2,15,15,0,0,1-2.9,8.1,25.68,25.68,0,0,1-5.9,5.3,30.91,30.91,0,0,1-7,2.5,37.75,37.75,0,0,1-8.1,1.4l-8.4-1.7a9.21,9.21,0,0,0-.8,4.3l.4,2.1s1.5,2.6,3,3.4c3,.5,6.4,0,11.9-.8,2-.6,4.1-.6,6.1-1.3a16.86,16.86,0,0,0,5.3-2.8,25.51,25.51,0,0,1,5.7-2.9l.8,2.2-1.5,4.6a20.46,20.46,0,0,1-5.7,4.9,45.44,45.44,0,0,1-6,2.8c-2.6,1.4-5.5,2.7-13.5,2.8C167,180.29,164.6,179.08,163.1,178.38ZM182.8,143c-.7-1.2-1.4-1.5-2.6-.9a20,20,0,0,0-4.9,1,14.8,14.8,0,0,0-4.7,2.3,9.67,9.67,0,0,0-3.9,5.3l-.5,1.8.3,1a12,12,0,0,0,6.6.4c1.4-.3,2.5-1.3,3.9-1.9s3.5-1.1,4.3-2.4a15.87,15.87,0,0,0,1.53-6.6Z" transform="translate(-3.99 -0.01)"/><path class="cls-1" d="M258.83,177.88c-1.4-1-3.3-1.4-2.2-9.1l.7-6.6-.3-5.1.8-46.5-1.1-4a2,2,0,0,1,2.6-1c1.7.39,4.5-.21,12.6,1.5l6.8.9a25.55,25.55,0,0,1,11.5,3.29,73.34,73.34,0,0,1,9.8,7c3,3.1,6,5.7,8.9,8.7a21.13,21.13,0,0,1,4.5,9.1,81.65,81.65,0,0,0,1.6,10.3c.5,3.7.9,7.1,1.3,10.7-1.1,2-2,4.1-3,5.7a32.56,32.56,0,0,1-4.4,5.4c-1.6,1.6-5.4,4.6-12.4,6-4.5.9-8,.8-11.5,1.8a63.77,63.77,0,0,1-10.8,1.9,85.37,85.37,0,0,0-11.5,2.6A7.9,7.9,0,0,1,258.83,177.88Zm45.3-26.8-.2-7.7c-.2-2-.9-4.1-1.4-6.5a21.14,21.14,0,0,0-2.9-5.6c-1.7-1.7-3.1-3.5-4.8-5.2a50.78,50.78,0,0,0-5.4-4.3c-2-1-4-2-6.1-3a25.52,25.52,0,0,0-6.4-1.8,15.58,15.58,0,0,1-4.3.4,5.53,5.53,0,0,0-3.7,2.4l-1,6.7.7,3.1-.7,19.5.4,7.1-.2,9.2,1,1.4c3.6.4,7.4-1.9,11.4-2.9,3.4-1,6.9-1.3,10.9-2.4,4.3-1.1,6.6-3.7,10.2-5.5Z" transform="translate(-3.99 -0.01)"/><path class="cls-1" d="M331,176.38l-.5-27.2c0-15-.7-16-.9-17.7a3.78,3.78,0,0,1,3.8-1,21.82,21.82,0,0,0,4.5,1.7,10.22,10.22,0,0,1,4,2.3,14,14,0,0,1,2.5,6.7,13,13,0,0,0-2.2,4.4,39.75,39.75,0,0,0-.5,5l.3,3.6c-.3,3.1-.6,6.4-.6,9.4,0,0-.3,3.8-.6,6.8a24,24,0,0,1-3.5,8.4,3.79,3.79,0,0,1-3.7,1A6.57,6.57,0,0,1,331,176.38Zm1.7-62c-1.8-1.1-2.2-3.61-2.5-5.61a7.08,7.08,0,0,1,1.1-6.5c2.6,1,5.3,1.1,7.9,1.5,0,0,3.3,1.2,5.7,2.2l.6,3c-1.1.69-1.7,2.89-2.7,3.89-.9,1.3-2,2.41-5.3,2.8Z" transform="translate(-3.99 -0.01)"/><path class="cls-1" d="M377.1,178.48a80.7,80.7,0,0,1-8.1-2.2,21.51,21.51,0,0,1-7.6-4.1,6.33,6.33,0,0,1-1.4-5.1l.7-1.9,1.3-.3a24.26,24.26,0,0,0,4.9,2.8c1.3.7,5.1.8,8,1.2a28.35,28.35,0,0,0,11.8-.8c1.4-1.7.4-4.5.4-4.5a30.2,30.2,0,0,0-6.5-3.2,19,19,0,0,0-7.2-1.6,9.08,9.08,0,0,1-7-3c-1.1-1.9-2-3.7-3.1-6a25.71,25.71,0,0,1-2.3-5.9,15.84,15.84,0,0,1-.7-6.8c.3-1.5,2.5-4.4,3.8-5.5a29.64,29.64,0,0,1,11.8-1.2c3.9.4,6.6,1.6,9.9,1.9a38.89,38.89,0,0,1,10,2.6,5.85,5.85,0,0,1,1.3,4.6l-1.8,1.7h-3.9s-7.8-1.4-9.9-1.4c-3.4.7-7.4,1.5-8.5,3.5a36.75,36.75,0,0,0-1,3.7l1,2.5a33.16,33.16,0,0,0,8.9,2.8,51.17,51.17,0,0,1,8.5,3.5,39.13,39.13,0,0,1,7.8,5.8c.9,1.5,1.9,3.1,2.6,4.6a43.37,43.37,0,0,1,.7,5.9c-.4,2.2-1.8,3.7-3.6,5.3a16.74,16.74,0,0,1-6.1,2.3,25,25,0,0,1-6.6.9A68.3,68.3,0,0,1,377.1,178.48Z" transform="translate(-3.99 -0.01)"/><path class="cls-1" d="M411.5,177.38l-.9-17.1v-12a105.32,105.32,0,0,1,2-16.7c-.1-2.1.5-6.6.8-12.3s.8-11.11,1.1-16.7l.8-2,1.9-.4,8.7,2.7a7.58,7.58,0,0,1,1.7,6,22.87,22.87,0,0,0-2.6,6.71c-.2,2.7-.5,5.4-.5,7.7l-.8,8.1,2.2,1a16.21,16.21,0,0,1,5.8-2,36.41,36.41,0,0,1,6.6-.4l6.3,2.7a18,18,0,0,0,2.8,3.7,8.81,8.81,0,0,1,1,4.3,44.75,44.75,0,0,0,.3,9.4c.4,2.7.8,5.4,1.3,12.2.4,2.7,1.1,5.4,1.5,8.1-.4,1.6-.4,3-.9,4.6a12,12,0,0,1-1.7,4.4l-5.5.7c-1.9-1-2.8-2-3-3.7a50.52,50.52,0,0,1-2.1-11.7c-.7-8.2-1.4-10.8-2-14.9a114.84,114.84,0,0,0-2.6-11.3l-2.3-.7a26.12,26.12,0,0,0-4.3,2.3,20.67,20.67,0,0,0-3.6,3.7,14,14,0,0,0-1.5,6.7c0,2.3.4,5.3-.3,7.8l.5,6.4c0,2.3-.3,5-.5,7.3a62.45,62.45,0,0,1-1.9,7.1,9.14,9.14,0,0,1-6,1Z" transform="translate(-3.99 -0.01)"/><line class="cls-2" x1="495.26" y1="147.07" x2="1561.76" y2="147.07"/><polygon class="cls-3" points="1561.76 142.38 1561.26 142.12 1559.94 142.85 1561.76 142.38"/><path class="cls-3" d="M1557.16,144c.26.13.13.35.39.49l5-2.08C1560.34,141.29,1558.65,144.8,1557.16,144Z" transform="translate(-3.99 -0.01)"/><path class="cls-3" d="M1555.68,143.8a3.16,3.16,0,0,0-3.22.82C1553.14,143.87,1556.1,144.85,1555.68,143.8Z" transform="translate(-3.99 -0.01)"/><path class="cls-3" d="M1383.42,144.29c.2,0,.41,0,.61-.07A1,1,0,0,0,1383.42,144.29Z" transform="translate(-3.99 -0.01)"/><path class="cls-3" d="M1338.48,147.6l-.47.77c8.39-1.38,17.85,0,26.71-.58l-.6.28c22.51.3,43.26-1,65.59-1.59-.35.08-.46.31-.82.4a11.71,11.71,0,0,1,3.47-.7c.32.17-.33.36-.72.44,4.71,1.28,13.85-.82,16.8.17,1.32-.13,1.91-.67,1.17-1.08,17.47-.32,36.17-.57,54-1.58.86.18,1,.53.78,1,15.21-2.08,31.16-1.25,46.72-.92.6-.54-1.59-.58,0-1.15-5-.68-9.17,1.35-13.71.35l.58-.53c-3.3-.34-.66,1.33-4.09.65-1.35-.44.34-.67-.29-.71-7,.22-14.34-.26-21,1-1.64-1.15-7.54,0-10.14-1.14-1.82.45-3.64.34-4.33,1.1-24.57-.61-49.66.5-74.83.42-11.78,2.22-25.88-.43-39.86.31-.1-.08-.08-.16,0-.22a109.94,109.94,0,0,1-16.63.53l-4.61.94c-32.73-1.93-66.17-.58-99.41-1.38-37.78-.55-70.87-2.15-107.66.77,0-.21-.25-.33.7-.42-10.61.45-20.29-.35-30.28.11v-.22c-24.81,1.83-51.64-.24-75.55,1.73-29.12-.2-62,0-92.85.57l.07-.44c-24.66.93-48.48-1.41-73.09-.7-25.3-1-52,2.52-77.55,1.18-15.78-2.16-36.52,2.47-51.35.23-30.47-3.37-60-1.2-90.48.82-28.1-1.2-56.16,1.89-83.37-.57C568.49,149,554.24,145.5,539.9,146l.51.55c-5.15-1.66-11.48,2.31-14.69-.15l.54-.11c-2.73-1.25-6.33,2.94-8,1.46l-.43.59c-3.3.18-.39-.7-2.94-.94-1,.07-.36,1.12-2.36.77-.44-2.53-8.09.54-8.32-2.29,1.81,0-2.83-1.1,1.23-1.69-1.16-.29-6.69-.15-6.2,1-.47,1.28-2.63,2.39.73,3.38l.68-.93c1.13.93.86.46,1.27,1.16,4.39.12,5,1.47,8.13,2a.06.06,0,0,1,0-.1c2.16-1.11,5.14-.45,6.84-.29l.68.52c1,1.08,5-2.12,3.67-.26,8.93-.46,19.17-.44,29.15-.46,1.4-.71,7.64.06,5.46-1.3,2.5,1.55,9.93,2,12.69,1.89a.58.58,0,0,1-.66.25c5.35,2,6.35-1.86,11.36.6.78-1.74,9.11.55,11.94-1.49.62.39.83.73.6,1,9,0,19,.67,26.64.75,6.53-1.53,15.8.69,21.41-1.42,4.65.45,12.18,1.33,18.67.48l-.67.37c7.32-.12,16.47-.23,21.5-1.56,2.16,2,5.33,1.62,8.49,2.26,4.89-.93,14.76-.66,22.22-1.51,1.15.93,6.16-.39,6.54,1,20.91-2.61,46.76-1.7,69.08.28l-.32.09c2.89-.74,6.23-2.38,9.18-3.34.29.12.25.35-.36.34,4.07-.25,7.89,1.07,12,.83,0,.22,0,.22-.7.43,3.83-.6,7.9,1.08,12.41,0l.26.36L821,150c-.07.44-.18,1.11-1.71,1,35,.43,71.13-1.88,107.07-1.55l-1.32.42,7-.75c0,.22-.37.33-.7.43,8.87.76,18.09-.5,26.74-.31,0,.22-1.35.65-.14.89,6.4-1.21,10.28,1.59,13.49-.94.3.12.5.68-.15.89,17.81-.84,36.11-.79,54.06-.38,14.94-2.29,31.65-.22,47.18-2l-.08.46c20.1-1.6,41.43.11,62.26-.21,8.65.18,14.5-.36,23.19-.39l.22.57c14.63-2.17,30.76,2,46-.44l-1.06.78c2.37-1.2,9.24.42,8.34-1.63l2.69.62c10.37-2.71,18.88,1.25,31.59-.51l-.84.49c3.38-.38,7.32-.68,9.83-.23-.39.07-.21.21-1,.34,10.58,1.93,22.36-.2,33.53-.13l-1.27.91c5.4-1.07,15.3-.08,22.4-.56l-.43.42,3.59-.6.09.86C1320.83,148.44,1329.47,147.7,1338.48,147.6Z" transform="translate(-3.99 -0.01)"/><path class="cls-3" d="M1431.64,146.62h-.1C1431.26,146.67,1431.4,146.66,1431.64,146.62Z" transform="translate(-3.99 -0.01)"/><path class="cls-3" d="M511.19,151c-.42-.05-.78-.11-1.13-.18C510.14,151,510.83,151,511.19,151Z" transform="translate(-3.99 -0.01)"/><path class="cls-1" d="M1532,20.84a12,12,0,0,1,2.24,2.38,29.94,29.94,0,0,1,6.26,12.62,25.49,25.49,0,0,1-1.57,15.37,41.46,41.46,0,0,1-14.11,17.41,47.4,47.4,0,0,1-14.4,7.39.76.76,0,0,0-.36.06c-.71.19-1-.22-1.25-.81.23-.45.72-.44,1.1-.6s.55-.2.81-.32c.43-.14.85-.33,1.27-.49s1.07-.45,1.6-.69a.88.88,0,0,1,.39-.11.86.86,0,0,0,1.07-.46,2.08,2.08,0,0,1,.75-.56,28.79,28.79,0,0,0,4.92-3.08.84.84,0,0,1,.61-.19c.53,0,.76-.45,1-.8.73-.79,1.68-1.3,2.45-2a2.09,2.09,0,0,1,.22-.2,5,5,0,0,0,.83-.7,7.45,7.45,0,0,1,.65-.6c.32-.18.53-.5.88-.62a.55.55,0,0,0,.49-.5c.27-.6.89-.91,1.2-1.47.76-.9,1.61-1.72,2.32-2.68a30.31,30.31,0,0,0,2-2.89c.21-.3.41-.61.61-.92a40.11,40.11,0,0,0,1.94-3.74,15.23,15.23,0,0,0,.64-1.75l.07-.18a5.24,5.24,0,0,0,.29-.64,13,13,0,0,0,.49-1.61c.29-1,.45-2,.73-2.92a2.22,2.22,0,0,0,.1-1.17V39.93a16.4,16.4,0,0,0-.15-1.72,3.75,3.75,0,0,0-.09-.57,23.18,23.18,0,0,0-1.84-6.2,32.53,32.53,0,0,0-2.3-4.22c-.14-.25-.33-.46-.48-.7a.81.81,0,0,1,0-.31c.21-.66-.18-.89-.72-1-.72-.33-1-1-1.5-1.62a1.42,1.42,0,0,1-.08-.18c0-.43-.3-.48-.58-.6a.35.35,0,0,1-.13-.37A4.18,4.18,0,0,1,1532,20.84Z" transform="translate(-3.99 -0.01)"/><path class="cls-1" d="M1398.62,101.67a38.73,38.73,0,0,1-1.66-4,63.09,63.09,0,0,1-3.37-10.93c-1.71-9,.27-17.28,5.32-24.87.35-.53.71-1,1.07-1.57a8.2,8.2,0,0,1,1.1-1.39c.31.1.35-.18.48-.34.62-.41,1.09-.24,1.32.48a.44.44,0,0,1-.07.19,1.88,1.88,0,0,1-.64.26l-.27.09c-.16,0-.3.12-.15.28s.13-.13.25-.1a.36.36,0,0,1,.2.06.46.46,0,0,1,.08.19,3,3,0,0,1-.68,1.27,35.7,35.7,0,0,0-4.19,8.63c-.13.39-.32.76-.48,1.14a1,1,0,0,0-.11.56c-.14.34-.06.79-.48,1a.19.19,0,0,1-.12-.15c-.08.09,0,.13.06.18a.65.65,0,0,1,.16.21,19.72,19.72,0,0,1-.42,2.86,7.46,7.46,0,0,1-.14.93,2.28,2.28,0,0,0-.09.86,26.94,26.94,0,0,0-.07,5c.13.54,0,1.1.15,1.63a49.63,49.63,0,0,0,1.5,7.23c.25.91.51,1.82.82,2.72.19.67.48,1.32.63,2a.67.67,0,0,1,0,.2,2.63,2.63,0,0,1-.26,1.38c.21.23.49,0,.68.17a1.23,1.23,0,0,1,.4.65,6.61,6.61,0,0,1,.42,1.86C1399.66,100.83,1399.43,101.56,1398.62,101.67Z" transform="translate(-3.99 -0.01)"/><path class="cls-1" d="M1461,134.53a21.47,21.47,0,0,1-4.27.89,59.63,59.63,0,0,1-12.45.6,53.76,53.76,0,0,1-21.31-5.52c-.13-.07-.27-.11-.32-.27.16-.72.81-1,1.27-1.5a.69.69,0,0,1,.54-.1,50.41,50.41,0,0,0,6.75,2.46,46.69,46.69,0,0,0,6.08,1.43,6.72,6.72,0,0,0,1,.16,51.3,51.3,0,0,0,5.79.66c.5,0,1-.17,1.48.24,0,.17-.1.18-.22.2h-.14a.85.85,0,0,1,.22.09c1.64.12,3.29,0,4.94,0a.9.9,0,0,0,.72-.42,17.85,17.85,0,0,1,2.3-.29,5.09,5.09,0,0,0,1.35-.09,9.27,9.27,0,0,0,1.18-.14,7.4,7.4,0,0,1,.81-.08,11.31,11.31,0,0,1,1.3-.19,5.6,5.6,0,0,0,.81-.1h.2a.76.76,0,0,1,.3,0,1.35,1.35,0,0,1,.26.15c.38.34.72.72,1.1,1C1460.83,134,1461.06,134.19,1461,134.53Z" transform="translate(-3.99 -0.01)"/><path class="cls-1" d="M1447.22,6.7a75.49,75.49,0,0,1,8.4-4.18,34.89,34.89,0,0,1,11-2.38,72.54,72.54,0,0,1,15.51.73,40.38,40.38,0,0,1,5.22,1,.32.32,0,0,1-.14.14,2.61,2.61,0,0,0-1.48.43,1.89,1.89,0,0,1-.88-.2.8.8,0,0,0-.42-.13c-2.21.07-4.38-.41-6.6-.34a29.73,29.73,0,0,0-3.13-.07c-2.1.3-4.21-.13-6.31.34-1,.23-2.18,0-3.2.5a4.45,4.45,0,0,1-1.48.35,38.18,38.18,0,0,0-12.06,4.4c-.32.17-.64.35-1,.51-1.52.8-3,1.7-4.42,2.62a2.17,2.17,0,0,1-.9.44,5.33,5.33,0,0,1-1.41-1.09c0-.3.19-.43.37-.59a19.87,19.87,0,0,0,2-2A1.46,1.46,0,0,1,1447.22,6.7Z" transform="translate(-3.99 -0.01)"/><path class="cls-1" d="M1499,4.36a59.58,59.58,0,0,1,9.55,2.57A69.74,69.74,0,0,1,1522,13a50.52,50.52,0,0,1,6.22,4.34c.27.22.51.5.77.75s.24.24.06.4a1.74,1.74,0,0,1-.67.39h-.12c0,.11.1.07.16.1a.34.34,0,0,1,.2.19.42.42,0,0,0,.26.33c1,.4,1.15.6.92,1.66a.53.53,0,0,1-.47.25.39.39,0,0,1-.27-.18.58.58,0,0,1,0-.32c0-.21.31-.4,0-.62a.19.19,0,0,0-.27,0,.17.17,0,0,0-.06.1c-.18.18-.36.08-.55,0a.77.77,0,0,1-.37-.34c-.26-.34-.44-.77-.94-.85a.36.36,0,0,1-.16-.11,2.64,2.64,0,0,0-1.7-1.32,11.86,11.86,0,0,1-2-1.38c-1.13-.77-2.35-1.42-3.43-2.27-.1-.2-.22-.36-.48-.32a.31.31,0,0,1-.27-.24c0-.14.12-.16.16-.25-.14,0-.19.11-.29.16a3.55,3.55,0,0,1-1.58-.68,5.9,5.9,0,0,0-1.1-.54,3.09,3.09,0,0,1-1-.71,8.45,8.45,0,0,0-4.34-1.93c-1.92-.69-3.81-1.47-5.74-2.15a66,66,0,0,0-7.45-2l-.21-.11a.84.84,0,0,1-.23-.23,2.9,2.9,0,0,0-.6-.79c-.18-.16-.37-.36,0-.54a1.23,1.23,0,0,1,.66,0,.91.91,0,0,1,.38.19c.32.28.56.77,1.11.31C1498.68,4.18,1498.83,4.29,1499,4.36Z" transform="translate(-3.99 -0.01)"/><path class="cls-1" d="M1444,9.79a3.15,3.15,0,0,1,1.28,1c0,.42-.35.47-.64.58a.48.48,0,0,0-.56.39v0c-.84.87-1.89,1.47-2.8,2.25a14.25,14.25,0,0,1-1.93,1.53c-.42.25-.89.46-1.09,1a3.08,3.08,0,0,1-.65.79,1.69,1.69,0,0,1-.67.48c-.16,0-.38,0-.45.18-.38.79-1.2,1.23-1.54,2-.3.37-.85.54-.85,1.13a12.92,12.92,0,0,0-1.72,2.37.23.23,0,0,1-.2.2c-.52,0-.39.35-.34.65a1.78,1.78,0,0,1,0,.65,19,19,0,0,0-1.19,3.26,48.77,48.77,0,0,0-1.53,7.66,3.71,3.71,0,0,1-.32,1.35c-.22.24-.42.33-.42-.11a32.24,32.24,0,0,1,0-3.26,25.61,25.61,0,0,1,5.14-15.26c1.3-1.72,2.8-3.27,4.24-4.87a.34.34,0,0,1,.19-.09,2.1,2.1,0,0,0,2.68-.76c.75-.88,1.66-1.61,2.44-2.48A1.56,1.56,0,0,1,1444,9.79Z" transform="translate(-3.99 -0.01)"/><path class="cls-1" d="M1461,134.53c-.39-.73-1.14-1.12-1.65-1.74,0-.19.16-.24.31-.28a1.47,1.47,0,0,0,.71-.18,12.78,12.78,0,0,1,1.5-.41,20.83,20.83,0,0,0,3-.83,38.38,38.38,0,0,0,12.35-6.12c.47-.27.82-.73,1.37-.88.57-.45,1.12-.14,1.67,0,0,0,.06.08,0,.11s0,.06,0,.06a40.52,40.52,0,0,1-18.87,10.19A1.8,1.8,0,0,1,1461,134.53Z" transform="translate(-3.99 -0.01)"/><path class="cls-1" d="M1424,128.83l-1.39,1.4a12,12,0,0,1-2.81-1.49,27.22,27.22,0,0,1-8.58-7.68,13,13,0,0,1-1.34-2.24,1.06,1.06,0,0,1,0-.61c-.11.07-.07.29-.26.25h-.06c-.31-.14-.38-.47-.55-.73-.3-.6-.58-1.22-.88-1.84a4.61,4.61,0,0,0-.42-1,5.39,5.39,0,0,1-.3-.52,2,2,0,0,1-.21-.67,1.71,1.71,0,0,0-.24-.65,22.39,22.39,0,0,1-.89-2.36.66.66,0,0,1,.41-.6c.4,0,.45.4.59.65.83,1.48,1.55,3,2.37,4.48a1,1,0,0,1,.11.17,7.21,7.21,0,0,0,.71,1.31,1.56,1.56,0,0,1,.2.56c.1.21-.15.64.37.59.77.71,1.17,1.71,1.89,2.46.34.54.88.91,1.18,1.48,0,.54.48.61.85.78s.72.68,1.15.93.78.61,1.18.88a19.41,19.41,0,0,0,2,1.35l.16.12a1.29,1.29,0,0,1,.34.36c.34.41.58,1,1.31.75a1.85,1.85,0,0,1,.88.33.53.53,0,0,1,.19.25.27.27,0,0,1-.08.19c-.1.1-.27.09-.38.27.29,0,.33-.24.46-.36.72-.14,1.17.45,1.77.64C1423.93,128.41,1424.09,128.56,1424,128.83Z" transform="translate(-3.99 -0.01)"/><path class="cls-1" d="M1493,81.76q.57,3.63.78,7.31a4.45,4.45,0,0,1,.19,1.58,47.7,47.7,0,0,1-.3,7.27,10.87,10.87,0,0,1-.49,2.71,56.55,56.55,0,0,1-1.63,6c-.4-.11-.3-.45-.32-.72s0-.63,0-.94c0-.72.27-1.4.31-2.12a7.5,7.5,0,0,0,.15-.93c.19-1.11.28-2.24.43-3.36a.92.92,0,0,1,.09-.23c.26-.44.11-.93.15-1.4a2.33,2.33,0,0,1,.12-.91,1.52,1.52,0,0,0,.17-.91V91.48a7.53,7.53,0,0,0-.15-2.32c-.22-.61,0-1.34-.6-1.83a.61.61,0,0,1-.07-.35,5.22,5.22,0,0,0-.24-2.57,2.54,2.54,0,0,1,.57-2.43.25.25,0,0,1,.19.12.44.44,0,0,1,.09.27,7.65,7.65,0,0,0,.26,3.12,6.33,6.33,0,0,1,0-3.4C1492.74,81.93,1492.77,81.77,1493,81.76Z" transform="translate(-3.99 -0.01)"/><path class="cls-1" d="M1492.46,79.29a4.17,4.17,0,0,1,.27,1.26c.08.16,0,.32,0,.47-.09.44-.28.33-.48.07-.28,0-.2.49-.54.39s-.06-.49-.36-.56a.3.3,0,0,0-.43,0c-.15,0-.2-.17-.25-.3-.09-.32-.16-.64-.26-1-.3-1.15-.64-2.28-1-3.41-.28-.69-.46-1.41-.75-2.09a18.71,18.71,0,0,1-.91-2.54,3.51,3.51,0,0,1,.37-1.56c.31-.33.1-.82.34-1.17s.49,0,.72.16a6.56,6.56,0,0,1,1,2.06,32.9,32.9,0,0,1,1.78,5.29,2.7,2.7,0,0,1,.08.41,3.08,3.08,0,0,0,.18.66,2.29,2.29,0,0,0,.08.64c.06.19.14.37.19.56A.65.65,0,0,1,1492.46,79.29Z" transform="translate(-3.99 -0.01)"/><path class="cls-1" d="M1422.2,42.29a29.83,29.83,0,0,1,6.15-2.63c.2,0,.32-.23.49-.32a10.47,10.47,0,0,1,1.88-.58,4.26,4.26,0,0,1,1-.16c1.13.47,2.33.08,3.48.28.43.08.78-.18,1.17-.27h2a1.5,1.5,0,0,0,.9-.2,6.08,6.08,0,0,1,2.25,0c.2.1.54.1.48.42s-.31.38-.55.44a6.1,6.1,0,0,1-2,0c-.12,0-.23-.08-.35-.08.14,0,.21.1.15.26a1.34,1.34,0,0,1-1,.29,37.22,37.22,0,0,0-5.86.53c-.55-.15-1.17,0-1.67-.35,0,0,0-.14-.07,0-.07.43-.14.47-.63.51a3.47,3.47,0,0,0-1.39.26c-.22.11,0,.2-.07.26-.2.29-.53.31-.82.4-1.22.41-2.44.8-3.62,1.29a1.61,1.61,0,0,1-.91.21c-.29-.18-.53-.5-1-.34C1422.27,42.5,1422.14,42.42,1422.2,42.29Z" transform="translate(-3.99 -0.01)"/><path class="cls-1" d="M1398.62,101.67c.59-.3.83-1,1.35-1.33a2.62,2.62,0,0,1,.78,2.12c-.07.23-.37,0-.39.13s-.37.61-.12.81.23-.16.27-.32a.64.64,0,0,0,0-.28.64.64,0,0,1,.13-.26c.32-.07.3.22.41.37a1.29,1.29,0,0,1,.17.39c.56,1.37,1.14,2.73,1.82,4a2.11,2.11,0,0,1,.35.94c-.14.41-.37.81,0,1.22.14.15.06.37,0,.55a.2.2,0,0,1-.15.12,36.18,36.18,0,0,1-4.63-8.22A.94.94,0,0,1,1398.62,101.67Z" transform="translate(-3.99 -0.01)"/><path class="cls-1" d="M1508.83,75.29c.42.22.58.87,1.21.75l-1.06.4c-.42.22-.9.26-1.33.45-1.11.13-2.15.59-3.28.65-.37.07-.79-.18-1.14.14a20.61,20.61,0,0,1-2.35.41,9.4,9.4,0,0,1-1.3,0h-2.11a1,1,0,0,1-.81-.24.39.39,0,0,1,0-.26c.37-.32.84-.17,1.26-.25.74-.13,1.49-.21,2.23-.33a8,8,0,0,0,1.08-.14,57.17,57.17,0,0,0,5.62-1.3,5,5,0,0,0,.55-.16C1507.83,75.39,1508.28,75,1508.83,75.29Z" transform="translate(-3.99 -0.01)"/><path class="cls-1" d="M1480.27,124.29v-.12c-.32-.24-1-.2-.7-.93.28-.53.88-.74,1.22-1.22,1.43-1.33,2.79-2.75,4.13-4.17.18-.19.33-.43.61-.5s.38.24.33.51a1.59,1.59,0,0,1-.07.2,7.09,7.09,0,0,1-1.66,2A40.68,40.68,0,0,1,1480.27,124.29Z" transform="translate(-3.99 -0.01)"/><path class="cls-1" d="M1422.2,42.29c.34.16,1-.3,1,.47,0,.35-.32.41-.55.51a53.07,53.07,0,0,0-7.81,4.32,1.5,1.5,0,0,1-.86.35.16.16,0,0,1-.16-.23A46.53,46.53,0,0,1,1422.2,42.29Z" transform="translate(-3.99 -0.01)"/><path class="cls-1" d="M1529.25,21.36l.48-.16c.6-.91.43-1.43-.58-1.81-.2-.08-.43-.06-.59-.24h-.3a.2.2,0,0,1,0-.28h0c.19-.3.79-.19.73-.74a12.32,12.32,0,0,1,3,2.72,13.18,13.18,0,0,1-1.53,1.55.16.16,0,0,1-.17-.06c0-.58-.32-.75-.83-.74A.24.24,0,0,1,1529.25,21.36Z" transform="translate(-3.99 -0.01)"/><path class="cls-1" d="M1405.63,113.23a22.24,22.24,0,0,1-2.34-3h0c.37-.06.33-.66.79-.59a12.61,12.61,0,0,1,1.72,3C1405.83,112.76,1406.1,113.12,1405.63,113.23Z" transform="translate(-3.99 -0.01)"/><path class="cls-1" d="M1491.43,3.34h1.11c.19.14.44,0,.63.12,0,.46-.31.64-.62.85a.9.9,0,0,1-.46,0c-.67-.11-1.35-.2-2-.27h-.23c-.47-.17-1.08,0-1.42-.49,0-.4.34-.37.59-.35C1489.83,3.29,1490.63,3.29,1491.43,3.34Z" transform="translate(-3.99 -0.01)"/><path class="cls-1" d="M1489.62,110.84l.61-2a14.62,14.62,0,0,1,.32-1.46c.18-.52.3-1.06.43-1.59.13-.24,0-.64.4-.74.16.53-.17,1.1.15,1.62a22.41,22.41,0,0,1-1.76,4.38C1489.64,111,1489.55,111,1489.62,110.84Z" transform="translate(-3.99 -0.01)"/><path class="cls-1" d="M1491.5,2.94c-.27.26-.55,0-.81,0-1.29-.18-2.57-.39-3.86-.59.23-.06.15-.43.44-.44h.08A24.68,24.68,0,0,1,1491.5,2.94Z" transform="translate(-3.99 -0.01)"/><path class="cls-1" d="M1428.83,39.49c-.13.12-.24.28-.44.13.17-.24,0-.51,0-.77a32.09,32.09,0,0,1,.08-5V37c0,.35.09.31.28.11.28.24.22.56.16.86C1428.83,38.5,1428.9,39,1428.83,39.49Z" transform="translate(-3.99 -0.01)"/><path class="cls-1" d="M1405.63,113.23c.21-.25,0-.53.06-.79a.34.34,0,0,1,.2,0,12.43,12.43,0,0,1,1,1.41c.18.44.59.75.68,1.24a.34.34,0,0,1-.09.19c-.73,0-.79-.69-1.17-1.06Z" transform="translate(-3.99 -0.01)"/><path class="cls-1" d="M1485.7,117.91c0-.18.19-.47-.21-.48a.37.37,0,0,1,0-.29c.27-.27.43-.67.82-.82l.72-.9c.13-.2.21-.45.52-.42a13.48,13.48,0,0,1-1.12,2C1486.26,117.37,1486.23,117.83,1485.7,117.91Z" transform="translate(-3.99 -0.01)"/><path class="cls-1" d="M1492.28,80.88l.22.31.23-.63a3.52,3.52,0,0,1,.25,1.2l-.12.29a.41.41,0,0,1-.58,0h0A.92.92,0,0,1,1492.28,80.88Z" transform="translate(-3.99 -0.01)"/><path class="cls-1" d="M1498.1,4.1c.23.18.51.1.76.12l.17.14a1.05,1.05,0,0,0-.43,0c-.64.75-.88.09-1.21-.32a.47.47,0,0,1,.66,0Z" transform="translate(-3.99 -0.01)"/><path class="cls-1" d="M1409.67,118.46c.18-.16,0-.41.17-.62.31.32.15.65,0,1Z" transform="translate(-3.99 -0.01)"/><path class="cls-1" d="M1489.62,110.84l.15.17c-.16.27-.07.73-.56.74Z" transform="translate(-3.99 -0.01)"/><path class="cls-1" d="M1413.83,47.67l.18.16c-.06.35-.34.42-.62.5-.11,0-.19-.08-.14-.22Z" transform="translate(-3.99 -0.01)"/><path class="cls-1" d="M1413.28,48.11l.16.15c0,.08,0,.13-.09.14l-.51.23C1412.83,48.29,1413.1,48.29,1413.28,48.11Z" transform="translate(-3.99 -0.01)"/><path class="cls-1" d="M1416.63,72.55a2.1,2.1,0,0,1,1.2-1.85,1.16,1.16,0,0,1,1.45.06c.45.28.31.73.24,1.11a2,2,0,0,1-.7,1.3,1.61,1.61,0,0,1-.61.38C1417.13,74.07,1416.66,73.77,1416.63,72.55Z" transform="translate(-3.99 -0.01)"/><path class="cls-1" d="M1405.07,55l.16-.14c.16-.07.4,0,.4-.31a22.77,22.77,0,0,1,2.93-2.34c.23-.1.38,0,.41.22a.28.28,0,0,1-.23.23c-.28.26-.64.44-.74.85s-.24.38-.46.46l-.13.13a1.44,1.44,0,0,1-.73.75l-.3.28a8.66,8.66,0,0,1-1.52,1.68.39.39,0,0,1-.25-.1c-.26-.23-.07.16-.18.14-.22.23-.4.14-.52-.08a.48.48,0,0,1,.15-.65,1.43,1.43,0,0,0,.58-.7l.14-.13A.32.32,0,0,0,1405.07,55Z" transform="translate(-3.99 -0.01)"/><path class="cls-1" d="M1472.83,82.08a1.42,1.42,0,0,1,1.46.11c.21.07.36.19.3.45a.91.91,0,0,1-.31.72c-.25.19-.3.81-.76.55s-.1-.65,0-1a.31.31,0,0,0,0-.23c-.39.52-.15,1.26-.61,1.75a.43.43,0,0,1-.55-.25,1.32,1.32,0,0,1,0-1.58A1.08,1.08,0,0,0,1472.83,82.08Z" transform="translate(-3.99 -0.01)"/><path class="cls-1" d="M1416.05,60.52a.82.82,0,0,1-.72.47c-.18-.43.3-.73.2-1.21s-.11-.69-.73-.46c-.15.06-.33.08-.42.26v.19c-.16.48-.36,1,.51.82.24,0,.32.26.48.4v.1c-.67.53-1,.49-1.43-.15-.49-1.33,0-2.14,1.41-2.28C1416.41,58.9,1416.47,59.05,1416.05,60.52Z" transform="translate(-3.99 -0.01)"/><path class="cls-1" d="M1473,84.44c.11-.55.21-1.11.31-1.66a.69.69,0,0,1,.2-.45s.17,0,.23.1a.43.43,0,0,1,.1.53V83c-.26.23-.45.64-.18.78s.42-.24.5-.57.18,0,.21.13a.66.66,0,0,1-.14.49c-.17.23-.31.51-.59.63S1473.13,84.79,1473,84.44Z" transform="translate(-3.99 -0.01)"/><path class="cls-1" d="M1485,82.05a.13.13,0,0,1,0,.12c-.28.75-.53.92-1.21.81-.21-.23-.35-.48-.12-.78l.29-.45C1484.4,81.46,1484.71,81.66,1485,82.05Z" transform="translate(-3.99 -0.01)"/><path class="cls-1" d="M1442.83,87c.26.38,0,.77,0,1.15-.57-.12-.51-.66-.7-1a3.53,3.53,0,0,1,0-.46c0-.2,0-.41.19-.52.44-.06.44.29.52.56C1442.75,86.84,1442.62,87,1442.83,87Z" transform="translate(-3.99 -0.01)"/><path class="cls-1" d="M1461.52,86.14l-.64.17a.15.15,0,0,1-.13,0c.11-.28,0-.47-.21-.66a.81.81,0,0,1,.22,0H1462C1462,86.05,1461.69,86,1461.52,86.14Z" transform="translate(-3.99 -0.01)"/><path class="cls-1" d="M1485,82.05c-.33-.14-.63-.39-1-.3a.63.63,0,0,1,.74-.41C1485,81.43,1485,81.77,1485,82.05Z" transform="translate(-3.99 -0.01)"/><path class="cls-1" d="M1485,82.67c-.21.14-.43.27-.63.42a.3.3,0,0,1-.51-.17c.6.08.79-.46,1.15-.75C1485.51,82.35,1484.93,82.5,1485,82.67Z" transform="translate(-3.99 -0.01)"/><path class="cls-1" d="M1460.53,85.78c.32,0,.53.16.35.53a.38.38,0,1,1-.6-.47C1460.35,85.77,1460.39,85.56,1460.53,85.78Z" transform="translate(-3.99 -0.01)"/><path class="cls-1" d="M1472.83,82.08c.09.41,0,.48-.46.55C1472.37,82.29,1472.57,82.18,1472.83,82.08Z" transform="translate(-3.99 -0.01)"/><path class="cls-1" d="M1459.93,86.15c.13-.14.24-.29.46-.3v.57a.36.36,0,0,1-.45-.22A.43.43,0,0,1,1459.93,86.15Z" transform="translate(-3.99 -0.01)"/><path class="cls-1" d="M1442.83,87a.27.27,0,0,1-.13.2s-.14-.09-.15-.18a.26.26,0,0,1,.18-.32h.08Z" transform="translate(-3.99 -0.01)"/><path class="cls-1" d="M1484.67,78.54c0-.29.23-.3.44-.29A.45.45,0,0,1,1484.67,78.54Z" transform="translate(-3.99 -0.01)"/><path class="cls-1" d="M1533,25.59l-.32-.58c.85.07,1.19.52.89,1.19Z" transform="translate(-3.99 -0.01)"/><path class="cls-1" d="M1512.48,74.81c-.36.32-.72.19-1.27.21C1511.72,74.58,1512.12,74.83,1512.48,74.81Z" transform="translate(-3.99 -0.01)"/><path class="cls-1" d="M1513.94,73.16l1.15-.53C1514.92,73.29,1514.52,73.42,1513.94,73.16Z" transform="translate(-3.99 -0.01)"/><path class="cls-1" d="M1538.94,45.68a1.27,1.27,0,0,1,0-1.11A1.06,1.06,0,0,1,1538.94,45.68Z" transform="translate(-3.99 -0.01)"/><path class="cls-1" d="M1521.37,68.82l1-.77C1522.18,68.47,1522,68.91,1521.37,68.82Z" transform="translate(-3.99 -0.01)"/><path class="cls-1" d="M1538.93,36.8a.59.59,0,0,1,0,.77A.62.62,0,0,1,1538.93,36.8Z" transform="translate(-3.99 -0.01)"/><path class="cls-1" d="M1531.2,23.38l-.6-.72C1531.05,22.69,1531.42,22.8,1531.2,23.38Z" transform="translate(-3.99 -0.01)"/><path class="cls-1" d="M1527.34,63.9l.62-.62C1528,63.75,1527.83,64,1527.34,63.9Z" transform="translate(-3.99 -0.01)"/><path class="cls-1" d="M1538.33,44.58a3,3,0,0,1,.16-1.18C1538.44,43.79,1538.68,44.23,1538.33,44.58Z" transform="translate(-3.99 -0.01)"/><path class="cls-1" d="M1403.32,58.63l-.56.62c-.09-.69-.53-.91-1.18-.6a.1.1,0,0,1-.12,0l0,0,.15-.29.85-.79c.51,0,.63-.39.77-.77a4.45,4.45,0,0,1,1.44-1.39.77.77,0,0,1-.44.79.4.4,0,0,0-.18.54h0c.07.15.22.17.33,0s.13-.22.28-.15l.17.18c-.17.34-.6.47-.73.86A1.58,1.58,0,0,1,1403.32,58.63Z" transform="translate(-3.99 -0.01)"/><path class="cls-1" d="M1399.88,62.38a.89.89,0,0,1,.25-1c.26-.28.81-.47.38-1-.09-.12.14-.22.27-.28s.18.06.23.17a1.11,1.11,0,0,1-.1,1.16A2.85,2.85,0,0,1,1399.88,62.38Z" transform="translate(-3.99 -0.01)"/><path class="cls-1" d="M1395.14,74.15c.5-.32.51-.3.59.16.12.65-.46,1.13-.31,1.79-.33-.08-.25-.31-.28-.48A1.72,1.72,0,0,1,1395.14,74.15Z" transform="translate(-3.99 -0.01)"/><path class="cls-1" d="M1399.2,97.85c-.81.11-.8.11-.57-.83a3.39,3.39,0,0,0,0-.78A1.39,1.39,0,0,1,1399.2,97.85Z" transform="translate(-3.99 -0.01)"/><path class="cls-1" d="M1395.14,74.15v1.47c-.1,0-.23.34-.27,0a5.6,5.6,0,0,1,0-1.53C1394.91,73.81,1395,74.18,1395.14,74.15Z" transform="translate(-3.99 -0.01)"/><path class="cls-1" d="M1402.16,59.81c-.31,0-.31.34-.5.48-.14-.84-.13-.86.5-.91a.29.29,0,0,1,0,.41Z" transform="translate(-3.99 -0.01)"/><path class="cls-1" d="M1395.28,86.77a1.6,1.6,0,0,1-.07-1.12C1395.48,86,1395.48,86,1395.28,86.77Z" transform="translate(-3.99 -0.01)"/><path class="cls-1" d="M1402.16,59.81v-.43c.19-.09.35-.34.6-.13a2.27,2.27,0,0,1-.58.76Z" transform="translate(-3.99 -0.01)"/><path class="cls-1" d="M1396.32,72.55a.38.38,0,0,1,0,.15c-.44-.21-.26-.5-.17-.85C1396.41,72.08,1396.26,72.34,1396.32,72.55Z" transform="translate(-3.99 -0.01)"/><path class="cls-1" d="M1401.43,58.64h.15c0,.21,0,.43-.23.52s-.18-.09-.21-.2Z" transform="translate(-3.99 -0.01)"/><path class="cls-1" d="M1449.83,133.69a4.26,4.26,0,0,1,1.18-.07c0,.37-.1.52-.49.52h-4.87c-.22,0-.45,0-.49-.29,1.27-.16,2.55,0,3.82-.08A1.75,1.75,0,0,0,1449.83,133.69Z" transform="translate(-3.99 -0.01)"/><path class="cls-1" d="M1449.83,133.69c-.18.23-.44.14-.67.14h-4s-.06-.06,0-.09h.34Z" transform="translate(-3.99 -0.01)"/><path class="cls-1" d="M1428.16,130.72c0,.1-.06.13-.08.13-.35,0-.76.25-1-.15s.22-.57.53-.33A3.94,3.94,0,0,0,1428.16,130.72Z" transform="translate(-3.99 -0.01)"/><path class="cls-1" d="M1429.22,131.18l-.75-.08C1428.83,130.8,1429,131,1429.22,131.18Z" transform="translate(-3.99 -0.01)"/><path class="cls-1" d="M1453.38,133.4c.43-.29.9-.09,1.35-.13A3.63,3.63,0,0,1,1453.38,133.4Z" transform="translate(-3.99 -0.01)"/><path class="cls-1" d="M1445.18,133.71v.13h-1v-.13Z" transform="translate(-3.99 -0.01)"/><path class="cls-1" d="M1455.88,133.13c.25-.33.55-.16.83-.09Z" transform="translate(-3.99 -0.01)"/><path class="cls-1" d="M1458.06,132.83c.25-.3.58-.11.88-.15A1.49,1.49,0,0,1,1458.06,132.83Z" transform="translate(-3.99 -0.01)"/><path class="cls-1" d="M1440.66,11.29c1.74-1.3,3.47-2.62,5.31-3.76.16-.1.34-.18.51-.27a15.49,15.49,0,0,1-2,2.05c-.16.15-.37.24-.44.46-1.24,1.25-2.47,2.52-3.73,3.75-.71.69-1.28.71-2.3.19l.6-.56c1.08,0,1.65-.53,1.67-1.46C1440.3,11.48,1440.39,11.29,1440.66,11.29Z" transform="translate(-3.99 -0.01)"/><path class="cls-1" d="M1465.61,2.45h-.54a2.55,2.55,0,0,1,1.62-.54c2.39-.17,4.78-.37,7.19-.37a4.68,4.68,0,0,0,2.43-.2h.33c.18.39.52.23.76.21,2.4-.18,4.75.37,7.14.31.21,0,.39,0,.42.28l-7.5-.36a79.55,79.55,0,0,0-11.65.56A.56.56,0,0,0,1465.61,2.45Z" transform="translate(-3.99 -0.01)"/><path class="cls-1" d="M1487.27,1.9c-.16.14-.06.52-.44.44l-1-.07C1486.22,1.74,1486.75,1.86,1487.27,1.9Z" transform="translate(-3.99 -0.01)"/><path class="cls-1" d="M1483.16,1.67a1,1,0,0,1-.72,0A.83.83,0,0,1,1483.16,1.67Z" transform="translate(-3.99 -0.01)"/><path class="cls-1" d="M1496.33,3.81v.12c.08.49.79.59.73,1.17a.6.6,0,0,1-.56.14c-.4-.11-.83-.1-1.23-.25s-.66-.08-1-.26a.21.21,0,0,1-.08-.19c.23-.29.27-.68.5-1a.83.83,0,0,1,.86.18h.3C1496.08,3.68,1496.22,3.66,1496.33,3.81Z" transform="translate(-3.99 -0.01)"/><path class="cls-1" d="M1510.83,9.65l-.16-.15a6.32,6.32,0,0,1,2.71.84c.6.31,1.36.48,1.69,1.2l-.27-.06a.42.42,0,0,1-.46-.23h0c-.41-.13-.9-.12-1.17-.57a1.22,1.22,0,0,1-.75-.3A4.69,4.69,0,0,1,1510.83,9.65Z" transform="translate(-3.99 -0.01)"/><path class="cls-1" d="M1528.56,19.15a1.52,1.52,0,0,1,1.6.86c.3.6.14,1-.43,1.19a4.2,4.2,0,0,0-.06-1,.65.65,0,0,0-.74-.45C1528.38,19.81,1528.23,19.63,1528.56,19.15Z" transform="translate(-3.99 -0.01)"/><path class="cls-1" d="M1525.35,18l-.3-.34a2,2,0,0,1,1.75,1.41Z" transform="translate(-3.99 -0.01)"/><path class="cls-1" d="M1528.7,20.29c-.19-.51.24-.17.34-.22s.35.08.38.29a.45.45,0,0,1-.27.51A.75.75,0,0,1,1528.7,20.29Z" transform="translate(-3.99 -0.01)"/><path class="cls-1" d="M1528.7,20.29c.16.19.41.3.45.58v.31l-.93-.87C1528.38,20.29,1528.55,20.48,1528.7,20.29Z" transform="translate(-3.99 -0.01)"/><path class="cls-1" d="M1528,20.1a5.87,5.87,0,0,1-1-.93C1527.62,19.07,1527.72,19.65,1528,20.1Z" transform="translate(-3.99 -0.01)"/><path class="cls-1" d="M1518.89,13.62l-.15-.11c0-.72.44,0,.61-.18C1519.23,13.5,1519,13.4,1518.89,13.62Z" transform="translate(-3.99 -0.01)"/><path class="cls-1" d="M1528.27,18.86v.29c-.19-.12-.41-.27-.19-.5S1528.24,18.74,1528.27,18.86Z" transform="translate(-3.99 -0.01)"/><path class="cls-1" d="M1519.62,14.05l-.49-.29C1519.45,13.6,1519.63,13.68,1519.62,14.05Z" transform="translate(-3.99 -0.01)"/><path class="cls-1" d="M1432,24.71l-.29.3a2.26,2.26,0,0,0-.33-1.46.8.8,0,0,0,1-.42,4.52,4.52,0,0,1,1.63-1.94v.08c0,.5-.43.8-.64,1.21-.51.69-.81,1.52-1.35,2.19Z" transform="translate(-3.99 -0.01)"/><path class="cls-1" d="M1436.63,18.29c-.41.59-1.07,1-1.4,1.62-.06.08-.11.17-.22.19h-.09a.86.86,0,0,1,.28-.71,3.48,3.48,0,0,0,1-1.28.66.66,0,0,1,.81-.33A.71.71,0,0,1,1436.63,18.29Z" transform="translate(-3.99 -0.01)"/><path class="cls-1" d="M1434,21.19c-.15-.73.38-.94.88-1.17h0a1.47,1.47,0,0,1-.89,1.16Z" transform="translate(-3.99 -0.01)"/><path class="cls-1" d="M1439.31,15.49c-.07.36-.47.44-.62.74-.18.1-.35.21-.52.32C1438.28,15.91,1438.83,15.72,1439.31,15.49Z" transform="translate(-3.99 -0.01)"/><path class="cls-1" d="M1444.65,11.29a1.52,1.52,0,0,1-.63.46C1444,11.29,1444.26,11.18,1444.65,11.29Z" transform="translate(-3.99 -0.01)"/><path class="cls-1" d="M1478.65,124.14a5.53,5.53,0,0,1,1-.87c0,.3-.19.67.39.57.15,0,.19.18.19.34-.29,0-.6.19-.81-.19-.1-.18-.23-.06-.35,0S1478.83,124.37,1478.65,124.14Z" transform="translate(-3.99 -0.01)"/><path class="cls-1" d="M1460.31,133.11a1.18,1.18,0,0,1,1.15,0A1.36,1.36,0,0,1,1460.31,133.11Z" transform="translate(-3.99 -0.01)"/><path class="cls-1" d="M1459.6,132.65a1.46,1.46,0,0,1,.77-.15C1460.16,132.79,1459.83,132.63,1459.6,132.65Z" transform="translate(-3.99 -0.01)"/><path class="cls-1" d="M1406.26,110.73l-.29-.45-1.34-2.88c-.06-.14,0-.2.13-.23.43.11.47.51.61.83l1.18,2.15C1406.46,110.35,1406.24,110.48,1406.26,110.73Z" transform="translate(-3.99 -0.01)"/><path class="cls-1" d="M1420,126.48l.92.61c-.63.28-1,.08-1.5-.88C1419.71,126.11,1419.83,126.29,1420,126.48Z" transform="translate(-3.99 -0.01)"/><path class="cls-1" d="M1421.92,127.68a.4.4,0,0,1-.09.52.46.46,0,0,1-.48,0c-.14,0-.16-.17-.15-.29s.19-.25.37-.25h.36Z" transform="translate(-3.99 -0.01)"/><path class="cls-1" d="M1413.83,121.89l.86.83C1414.33,122.56,1413.88,122.45,1413.83,121.89Z" transform="translate(-3.99 -0.01)"/><path class="cls-1" d="M1410.38,117.29l.41.65c-.23.17-.39.15-.43-.16A2.68,2.68,0,0,1,1410.38,117.29Z" transform="translate(-3.99 -0.01)"/><path class="cls-1" d="M1408.46,114.82a.83.83,0,0,1,.08.22.15.15,0,0,1-.09.1c-.1,0-.13,0-.12-.11S1408.39,114.92,1408.46,114.82Z" transform="translate(-3.99 -0.01)"/><path class="cls-1" d="M1438.61,13.05a1.12,1.12,0,0,0,.57-.48.39.39,0,0,1,.33-.28c.18-.06.15-.35.39-.35.1-.16.2-.31.42-.27.5.58,0,.89-.36,1.18s-.76.85-1.36.32A.17.17,0,0,0,1438.61,13.05Z" transform="translate(-3.99 -0.01)"/><path class="cls-1" d="M1491.12,82.22v-.17a1.39,1.39,0,0,1-.14-1.14c0-.12-.06-.34.11-.34s.23.2.34.31c.29.31.06.7.16,1a.42.42,0,0,1,.13-.42,1.28,1.28,0,0,0,.31-.64c.09-.29.17.08.28.05V82a2.57,2.57,0,0,0-.52,2.2,2,2,0,0,1,.23,1.09,1.22,1.22,0,0,0,.2.89c.29.34-.22.53-.22.83a2.85,2.85,0,0,1-.42-1.53,10.67,10.67,0,0,0-.14-1.59,1.22,1.22,0,0,0-.14-.77C1491.05,82.88,1491.3,82.51,1491.12,82.22Z" transform="translate(-3.99 -0.01)"/><path class="cls-1" d="M1492.28,82.05h.58a2.59,2.59,0,0,1-.24,1.4,1,1,0,0,0,0,.91,3.6,3.6,0,0,1,.05,2.27A13.58,13.58,0,0,1,1492.28,82.05Z" transform="translate(-3.99 -0.01)"/><path class="cls-1" d="M1492.83,91.41v4c0,.24.12.56-.29.63a.34.34,0,0,1-.13-.25q-.08-2.17.06-4.35a.24.24,0,0,1,.34,0S1492.82,91.4,1492.83,91.41Z" transform="translate(-3.99 -0.01)"/><path class="cls-1" d="M1492.57,91.41v6.46c0,.23.07.5-.27.57V97.29a45.28,45.28,0,0,0,0-5.21V91.4a.18.18,0,0,1,.17-.06Z" transform="translate(-3.99 -0.01)"/><path class="cls-1" d="M1492,87.91v-.62c.83.37.52,1.13.58,1.75v.1c-.14.26,0,.6-.29.82-.17-.29-.07-.62-.14-.92a5.16,5.16,0,0,0-.12-.89Z" transform="translate(-3.99 -0.01)"/><path class="cls-1" d="M1492.83,91.41h-.29a4.09,4.09,0,0,1,0-2.35h0c.35,0,.29.33.29.55Z" transform="translate(-3.99 -0.01)"/><path class="cls-1" d="M1487.3,70.64v-.26a.29.29,0,0,1,.13-.14c.19-.09.25-.24.14-.41a12,12,0,0,1-.94-2.46c-.31-.55-.42-1.17-.78-1.71s-.08-.75.46-.77a5.26,5.26,0,0,1,1.08,2c.1.3.52.35.44.76a1.37,1.37,0,0,0,.34,1.08,1.18,1.18,0,0,1,0,1.3c.1.58-.46,1-.31,1.64-.22,0-.18-.25-.34-.31A1,1,0,0,1,1487.3,70.64Z" transform="translate(-3.99 -0.01)"/><path class="cls-1" d="M1488.18,70.06c0-.55.11-1.14-.47-1.52a.33.33,0,0,1-.1-.25c.11-1-.71-1.69-1-2.56a2.48,2.48,0,0,0-.32-.79c.18-.4.39-.16.6,0a8,8,0,0,1,1,1.89c.14.55.46,1,.57,1.61,0,.17.14.32,0,.48C1488.35,69.29,1488.77,69.79,1488.18,70.06Z" transform="translate(-3.99 -0.01)"/><path class="cls-1" d="M1488.48,68.89a7.22,7.22,0,0,1-.58-2.09,11.39,11.39,0,0,1,1.16,2.38Z" transform="translate(-3.99 -0.01)"/><path class="cls-1" d="M1491.69,81.47v1.08h-.21a7.7,7.7,0,0,1-.08-1.66c0-.2.14-.38.27-.06A2,2,0,0,1,1491.69,81.47Z" transform="translate(-3.99 -0.01)"/><path class="cls-1" d="M1490.17,74.36c-.37-.17-.66-.36-.44-.77.07-.13.23-.31.33-.23C1490.44,73.63,1490.11,74,1490.17,74.36Z" transform="translate(-3.99 -0.01)"/><path class="cls-1" d="M1445.17,37.87l2,.22c-.36.42-.9.41-1.37.54-.32.09-.66.14-1,.24a8.59,8.59,0,0,0,1.75-.25,4,4,0,0,1,2.15.44c0,.62-.13.87-.7.74a13.47,13.47,0,0,0-3.17-.23c-.27,0-.5.32-.77.07l-4.79-.29c-.08-.18-.29-.12-.55-.31h2.21a1.47,1.47,0,0,0,.74-.17c.5-.27-.05-.28-.06-.41a.3.3,0,0,0,.08-.08,3.63,3.63,0,0,1,1.35-.12,1.33,1.33,0,0,0,.76-.11,1.24,1.24,0,0,1,.2-.1,2,2,0,0,1,.92,0C1445.14,38.07,1445.17,38,1445.17,37.87Z" transform="translate(-3.99 -0.01)"/><path class="cls-1" d="M1437,37.85a28.09,28.09,0,0,1,6.08-.19,6.2,6.2,0,0,1,1.87.19c-.23.32-.67,0-.92.32h0a1.51,1.51,0,0,1-1.31,0,.81.81,0,0,0-1,.27h-2.34l-.09-.06c-.35-.45-.8-.36-1.24-.2a1.42,1.42,0,0,1-.91.1C1436.83,38.22,1436.75,38.06,1437,37.85Z" transform="translate(-3.99 -0.01)"/><path class="cls-1" d="M1432.34,38.47l1.39-.17a.38.38,0,0,1,.21,0,3.52,3.52,0,0,0,2.31,0,.69.69,0,0,1,.69.11c.1.55-.45.1-.54.35a2,2,0,0,1-1.72.22,1.88,1.88,0,0,0-.91.07,5,5,0,0,1-2.1-.31C1431.83,38.35,1432.15,38.65,1432.34,38.47Z" transform="translate(-3.99 -0.01)"/><path class="cls-1" d="M1432.29,40l-3.6.82c-.08-.1-.29-.09,0-.31.62-.53,1.4-.1,2.06-.48-.19-.23-.53,0-.74-.35C1430.83,39.55,1431.53,40,1432.29,40Z" transform="translate(-3.99 -0.01)"/><path class="cls-1" d="M1436.4,38.75c.12-.23.45,0,.58-.29a3.06,3.06,0,0,1,2.34,0c0,.35-.32.29-.55.29Z" transform="translate(-3.99 -0.01)"/><path class="cls-1" d="M1403.38,108.37a4.91,4.91,0,0,1,.65,1.19c-.06.4-.18.71-.69.57-.06-.22.14-.45-.1-.67C1402.83,109.06,1403,108.69,1403.38,108.37Z" transform="translate(-3.99 -0.01)"/><path class="cls-1" d="M1400.71,102.52v.87c0,.29-.06.32-.22.35a.45.45,0,0,1-.45-.17c-.3-.41.15-.69.22-1s.32.11.49,0Z" transform="translate(-3.99 -0.01)"/><path class="cls-1" d="M1493.16,78l2.33-.19c.38-.31.77-.09,1.16,0,.45.36,1,.13,1.46.17s1,0,1.52,0a8.39,8.39,0,0,1-1.8.18l-4.67-.06s-.07,0,0-.07S1493.14,78,1493.16,78Z" transform="translate(-3.99 -0.01)"/><path class="cls-1" d="M1496.65,77.78h-1.16a.29.29,0,0,1,0-.13.81.81,0,0,1,.87,0h.31Z" transform="translate(-3.99 -0.01)"/><path class="cls-1" d="M1503.54,77.57h-.25c.29-.36.68-.09,1-.16C1504.08,77.56,1503.83,77.47,1503.54,77.57Z" transform="translate(-3.99 -0.01)"/><path class="cls-1" d="M1491.43,3.34h-2.3c-.24,0-.56-.13-.66.26a.51.51,0,0,1-.6.15,26.73,26.73,0,0,0-3.89-.41c-.35-.15-.82,0-1.09-.36a4,4,0,0,1,2-.11A53,53,0,0,1,1491.43,3.34Z" transform="translate(-3.99 -0.01)"/><path class="cls-1" d="M1484.83,2.89c-.64.15-1.31-.12-1.94.14-.42.34-.8.14-1.18-.08-.16-.09-.39.07-.56-.21h1.73A16,16,0,0,1,1484.83,2.89Z" transform="translate(-3.99 -0.01)"/><path class="cls-1" d="M1410.64,50.88l-.28.33-1.47,1.26c0-.2-.15-.26-.33-.28a16.24,16.24,0,0,1,2.09-1.5.12.12,0,0,1,0,.17Z" transform="translate(-3.99 -0.01)"/><path class="cls-1" d="M1403.2,56.79c.44.5-.31.54-.35.9s-.33.13-.42-.13C1402.67,57.29,1402.83,57,1403.2,56.79Z" transform="translate(-3.99 -0.01)"/><path class="cls-1" d="M1405.63,54.53c.08.33,0,.4-.4.31Z" transform="translate(-3.99 -0.01)"/><path class="cls-1" d="M1405.07,55c0,.1.16.21,0,.32s-.22,0-.33,0Z" transform="translate(-3.99 -0.01)"/><path class="cls-1" d="M1530.31,22.35l-.58-.44-.31-.41C1530.37,21.44,1530.37,21.44,1530.31,22.35Z" transform="translate(-3.99 -0.01)"/><path class="cls-1" d="M1492.83,4.37l-.31-.16.59-.7h.3l.75.15a1.2,1.2,0,0,1-.78.77h-.27A.21.21,0,0,1,1492.83,4.37Z" transform="translate(-3.99 -0.01)"/><path class="cls-1" d="M1468.83,107.52v.27a.26.26,0,0,1,0,.21,2.57,2.57,0,0,1-.25.9c-.23.44-.63.36-1,.26a.45.45,0,0,1-.4-.5.47.47,0,0,1,.09-.22c.49-.53,0-1.16.18-1.63-.1.44.18,1-.1,1.53a.77.77,0,0,1-.22.22.2.2,0,0,1-.18-.06c-.63-.86-.08-1.74,0-2.6,0-.16.15-.34-.13-.39l-.07-.06a3,3,0,0,1,2.94-1.73.47.47,0,0,1,.12.45.45.45,0,0,0,0,.5,1,1,0,0,1,0,.49.49.49,0,0,1-.15.27l-.29.35c-.17.16-.18.48-.47.54a.25.25,0,0,0-.13.27A1.48,1.48,0,0,0,1468.83,107.52Z" transform="translate(-3.99 -0.01)"/><path class="cls-1" d="M1468.83,108v-.16l.15.15c.14.07.25.15.24.31a5.26,5.26,0,0,0,1.65,1.32c.33.3.73.2,1.11.2s.5.11.46.47c-.19.38-.43.68-.92.59a3.24,3.24,0,0,0-2.41-.06.34.34,0,0,1-.31,0,3.9,3.9,0,0,1-2.48-3.18,1.25,1.25,0,0,1,0-.81,1.8,1.8,0,0,1,.44-1.29h0a1.06,1.06,0,0,1,0,1.11,1.76,1.76,0,0,0,.23,2h0a1,1,0,0,0,1.11.87h0c.55,0,.74-.28.61-.83A.71.71,0,0,1,1468.83,108Z" transform="translate(-3.99 -0.01)"/><path class="cls-1" d="M1405.39,91.19c-.21.42-.79.42-1.25.52s-1-.59-1-1.1a1.1,1.1,0,0,1,1.09-1.11h0C1405.1,89.49,1405.41,89.91,1405.39,91.19Z" transform="translate(-3.99 -0.01)"/><path class="cls-1" d="M1424.83,110.14h.83a1.43,1.43,0,0,0,.27.09c.32.08.62.22.59.61a.61.61,0,0,1-.63.59h-.07l-.28.19c-.94.11-1.54-.27-1.56-1C1424.13,110.19,1424.53,110.29,1424.83,110.14Z" transform="translate(-3.99 -0.01)"/><path class="cls-1" d="M1414.27,92c-.65-.13-.89-.66-1.16-1.18.15-.25.15-.25.77-.18.57.27,1.26.43,1.13,1.31C1414.77,92.17,1414.51,92,1414.27,92Z" transform="translate(-3.99 -0.01)"/><path class="cls-1" d="M1473.83,112v-.62c0-.66.51-.61.9-.68a1.4,1.4,0,0,1,1.62.68.36.36,0,0,0,.09.28,2.93,2.93,0,0,1,0,1.38.2.2,0,0,1-.25.09h0c-.21-.18-.18-.43-.19-.67-.07-.87-.15-1-1-1-.18,0-.35-.2-.54,0s-.11.54-.17.81a.47.47,0,0,1-.16.27C1473.74,112.48,1474,112.11,1473.83,112Z" transform="translate(-3.99 -0.01)"/><path class="cls-1" d="M1410.47,84.37a5.44,5.44,0,0,0-1.27.15c-.17-.17-.5-.09-.62-.37-.27-.91-.16-1.06.74-1.07.19,0,.25.14.31.28s-.06.31-.13.46c.15,0,.19-.14.29-.18Z" transform="translate(-3.99 -0.01)"/><path class="cls-1" d="M1403.33,98.44a.29.29,0,0,1-.13,0c-.34-.4-.32-.74.13-.93a1.47,1.47,0,0,1,1.31-.05c.23.16.47.32.69.49s.33.31,0,.49A1.38,1.38,0,0,0,1403.33,98.44Z" transform="translate(-3.99 -0.01)"/><path class="cls-1" d="M1471.5,110.72a.81.81,0,0,0,.88-.44.26.26,0,0,1,0,.33,3.15,3.15,0,0,1-3.55.12h.32C1470,110.39,1470.73,110.76,1471.5,110.72Z" transform="translate(-3.99 -0.01)"/><path class="cls-1" d="M1430.39,104.29c.22.24.8,0,.78.44s-.56.21-.81.42a2.69,2.69,0,0,1-1.58-.44A2.69,2.69,0,0,1,1430.39,104.29Z" transform="translate(-3.99 -0.01)"/><path class="cls-1" d="M1469.75,105.17v-.59a.3.3,0,0,1,.3-.06,1.21,1.21,0,0,0,.72.16,3.26,3.26,0,0,1,1.46.4c.18.07.29.17.15.38a3.58,3.58,0,0,1-1.49-.14C1470.54,105.07,1470.1,105.41,1469.75,105.17Z" transform="translate(-3.99 -0.01)"/><path class="cls-1" d="M1403.33,98.44c.94-1,.75-1,2,0a.17.17,0,0,1-.1,0,3.07,3.07,0,0,1-1.94,0Z" transform="translate(-3.99 -0.01)"/><path class="cls-1" d="M1472.38,105.46a2.63,2.63,0,0,0-1.75-.59.23.23,0,0,1-.06-.27c.07-.13.27-.16.26-.34a.25.25,0,0,1,.09-.23c.69.23,1.11.83,1.7,1.19.07,0,.2.13.1.21S1472.49,105.45,1472.38,105.46Z" transform="translate(-3.99 -0.01)"/><path class="cls-1" d="M1472.4,110.61v-.33c0-.42-.24-.4-.54-.44s-.74.24-.92-.27c.49.09,1,.33,1.45,0,.18-.16.22-.44.49-.53h.07c.17.28.3.56,0,.87S1472.71,110.45,1472.4,110.61Z" transform="translate(-3.99 -0.01)"/><path class="cls-1" d="M1455,92.59l.3-.15.19.6a8.18,8.18,0,0,1,0,1.4c-.51.53-.52,0-.68-.31A8.88,8.88,0,0,1,1455,92.59Z" transform="translate(-3.99 -0.01)"/><path class="cls-1" d="M1492.57,89.07v2.35h-.25l-.06-1.43C1492.39,89.69,1492,89.23,1492.57,89.07Z" transform="translate(-3.99 -0.01)"/><path class="cls-1" d="M1403.33,98.44h1.94v.13A1.62,1.62,0,0,1,1403.33,98.44Z" transform="translate(-3.99 -0.01)"/><path class="cls-1" d="M1409.32,83.08c-.65.09-.83.48-.74,1.07l-.29-.34a.43.43,0,0,1,0-.58h0c.13-.35.35-.52.73-.34Z" transform="translate(-3.99 -0.01)"/><path class="cls-1" d="M1469.75,104.29v-.57c.37-.16.57.23.87.3a.38.38,0,0,1-.32.4A.61.61,0,0,1,1469.75,104.29Z" transform="translate(-3.99 -0.01)"/><path class="cls-1" d="M1470.33,104.29l.29-.27h.3v.27c0,.14-.21.18-.29.29v.29c-.23,0-.54.1-.59-.29C1470.09,104.44,1470.25,104.4,1470.33,104.29Z" transform="translate(-3.99 -0.01)"/><path class="cls-1" d="M1469.75,105.17H1471v0l-.16.09-1.14.11Z" transform="translate(-3.99 -0.01)"/><path class="cls-1" d="M1413.88,90.67c-.22.22-.58-.15-.77.18C1413.17,90.47,1413.23,90.45,1413.88,90.67Z" transform="translate(-3.99 -0.01)"/><path class="cls-1" d="M1414.27,92c.23-.2.5,0,.74,0C1414.83,92.29,1414.53,92.19,1414.27,92Z" transform="translate(-3.99 -0.01)"/><path class="cls-1" d="M1492,88.18a1.6,1.6,0,0,1,.12.89C1491.88,88.8,1492,88.48,1492,88.18Z" transform="translate(-3.99 -0.01)"/><path class="cls-1" d="M1466.37,106.74v.8A.81.81,0,0,1,1466.37,106.74Z" transform="translate(-3.99 -0.01)"/><path class="cls-1" d="M1486.88,64.91c-.19.13-.41-.22-.6,0-.49.2-.56.44-.17.86a3.42,3.42,0,0,1,.61,1.62.41.41,0,0,1-.33.13c-.38-.26-.38-.26-.4-1.25-.1.34.18.77-.32.9a.25.25,0,0,1-.19-.09c-.16-.36-.16-.82-.59-1a3.27,3.27,0,0,1-1-1.45l-.16-.42c-.11-.35-.15-.75-.57-.9l-1-1.47c-.06-.4.07-.94-.64-.86a70.57,70.57,0,0,0-4.89-5.48,67.28,67.28,0,0,0-6.94-5.78c-.1-.3-.38-.34-.62-.44a73.64,73.64,0,0,0-6.78-3.92l-2-1c-.18-.32-.51-.3-.8-.38a10.48,10.48,0,0,1-2.45-1.13c0-.65.73-.77,1-1.26a5,5,0,0,1,.51-.4.63.63,0,0,1,.87.18l4.36,2c.21.1.48.07.62.31h0c.44.12.77.47,1.24.53a.87.87,0,0,1,.41.27c.08.19.38.13.42.37l.84.46a.7.7,0,0,1,.42.18,6.75,6.75,0,0,1,.82.48,4.75,4.75,0,0,1,1,.73l.42.34c-.06.66.42.18.62.3a.32.32,0,0,1,.25.15h0a.59.59,0,0,1,.39.41c.08.16.38.23.17.49-.05.07-.15.09-.17.19l.22-.24a.38.38,0,0,1,.39-.11.76.76,0,0,1,.19.12h0a3.57,3.57,0,0,1,.65.51.91.91,0,0,0,.37.24l.15.1c.65.62,1.46,1.06,2.06,1.75a10.23,10.23,0,0,0,1.72,1.5h0a.72.72,0,0,0,.65.46,2.08,2.08,0,0,1,.66.66c.37.71.69,1.45,1.53,1.75,1.07,1.17,2.14,2.34,3.11,3.59.15.19.32.36.48.54a4.16,4.16,0,0,1,1.17,1.64l.33.68c0,.08-.13.07-.2.11.1,0,.14-.06.2-.11l.29.41a.61.61,0,0,0,.53.58.4.4,0,0,1,.17.33,1.06,1.06,0,0,0,.5.93c.19.08.14.29.25.4Z" transform="translate(-3.99 -0.01)"/><path class="cls-1" d="M1458.65,41.34a.48.48,0,0,1-.46.34c-.25,0-.47-.17-.77.11s-.73.08-1.1,0a.67.67,0,0,1-.15-.14c-.32-.49-.75-.39-1.14-.15a1.61,1.61,0,0,1-1.64.09c-.55-.26-1.16-.33-1.71-.57-.12,0-.28-.13-.37.07-2.38-.58-4.78-1-7.2-1.42a8.15,8.15,0,0,1,2.86-.32c.42,0,.66.35,1.08.33s.71-.1.63-.61.44-.33.59-.57l1.75.29c.21.17.5,0,.71.15a1,1,0,0,0,.61.15,2.1,2.1,0,0,1,1.08.16,7.17,7.17,0,0,1,2,.73,1.75,1.75,0,0,0,.83.28c.13.09.34,0,.45.15a.39.39,0,0,0,.35.13,6.27,6.27,0,0,1,1.21.29C1458.46,40.92,1458.77,41,1458.65,41.34Z" transform="translate(-3.99 -0.01)"/><path class="cls-1" d="M1451.31,41.06c.15-.25.36-.36.6-.21.52.32,1.14.37,1.68.64a1.12,1.12,0,0,0,1.31-.21c.57-.45,1.31-.23,1.39.4h0c.41-.13.9.26,1.28-.3.17-.27.42.16.62.3-.1.62-.79.74-1,1.23-.34.15-.6-.11-.88-.21C1454.64,42.06,1453,41.63,1451.31,41.06Z" transform="translate(-3.99 -0.01)"/><path class="cls-1" d="M1444.32,44.59c.8.73.73,1-.48,1.86a.33.33,0,0,0-.14,0,1.37,1.37,0,0,1-1.5-.45c-.36-.45-.07-1,.16-1.42h0A2.47,2.47,0,0,1,1444.32,44.59Z" transform="translate(-3.99 -0.01)"/><path class="cls-1" d="M1463.57,49.29a3.17,3.17,0,0,1,0-1.78.36.36,0,0,1,.39-.37c.24,0,.28.28.3.49A2.69,2.69,0,0,1,1463.57,49.29Z" transform="translate(-3.99 -0.01)"/><path class="cls-1" d="M1465.49,69a1.34,1.34,0,0,1-.82,1.3.38.38,0,0,1-.54-.09l0,0c-.17-.28.08-.37.26-.48Z" transform="translate(-3.99 -0.01)"/><path class="cls-1" d="M1442.36,44.57s.07.1.06.14c-.32,1.45-.27,1.52,1.22,1.66a.5.5,0,0,1,.2.08,1.75,1.75,0,0,1-2-.5A1.1,1.1,0,0,1,1442.36,44.57Z" transform="translate(-3.99 -0.01)"/><path class="cls-1" d="M1459.83,70.11a2,2,0,0,1-1.68,0c-.24-.07-.46-.24-.2-.54A1.52,1.52,0,0,1,1459.83,70.11Z" transform="translate(-3.99 -0.01)"/><path class="cls-1" d="M1444.32,44.59h-2a1.31,1.31,0,0,1,1.85-.15A1.06,1.06,0,0,1,1444.32,44.59Z" transform="translate(-3.99 -0.01)"/><path class="cls-1" d="M1481.57,61c.19-.12.43-.47.58-.25a1,1,0,0,1,.06,1.11A3.16,3.16,0,0,1,1481.57,61Z" transform="translate(-3.99 -0.01)"/><path class="cls-1" d="M1483.21,63.29c.79-.09.55.5.57.9Z" transform="translate(-3.99 -0.01)"/><path class="cls-1" d="M1459.59,44c.3,0,.77-.25.8.38Z" transform="translate(-3.99 -0.01)"/><path class="cls-1" d="M1469.12,49.29c.33,0,.67-.08.62.44Z" transform="translate(-3.99 -0.01)"/><path class="cls-1" d="M1409.83,83.64c0,.2,0,.45-.33.45a.31.31,0,0,1-.31-.25c-.08-.38.23-.24.4-.3s.06-.12.08-.18S1409.83,83.51,1409.83,83.64Z" transform="translate(-3.99 -0.01)"/><path class="cls-1" d="M1487,70.06v-.29c.6-.11.49.22.36.57h0Z" transform="translate(-3.99 -0.01)"/><path class="cls-1" d="M1404.64,56.59l-.28.15v-.45C1404.57,56.29,1404.58,56.48,1404.64,56.59Z" transform="translate(-3.99 -0.01)"/><path class="cls-1" d="M1487.32,70.34c0-.24.06-.57-.36-.57a.92.92,0,0,1-.26-.52,4.35,4.35,0,0,0-.33-1,.75.75,0,0,1,.06-.88h.29c.16,0,.3.1.28.27-.09.81.45,1.39.74,2,.08.19.19.35.09.54S1487.49,70.29,1487.32,70.34Z" transform="translate(-3.99 -0.01)"/><path class="cls-1" d="M1486.43,67.42c-.17.65.38,1.19.27,1.83-.33-.39-.36-1-.81-1.27a1,1,0,0,0-.33-.72v-.13c.51-.14.13-.61.33-.88.27.17.23.44.23.68S1486.11,67.39,1486.43,67.42Z" transform="translate(-3.99 -0.01)"/><path class="cls-1" d="M1415.34,61c-.31,0-.58-.55-.94-.1-.16-.22-.49-.39-.3-.73.09-.17,0-.33.06-.49.24-.2.35.11.54.13-.12-.21-.38-.15-.54-.28a1.49,1.49,0,0,1,1.23-.53c.18,0,.45.14.37.59a2.37,2.37,0,0,1-.43,1.41Z" transform="translate(-3.99 -0.01)"/><path class="cls-1" d="M1414.16,59.52a.81.81,0,0,1,.22,0c.23,0,.56-.14.64.26,0,.15,0,.32-.16.36-.33.07-.37-.23-.5-.41s-.13,0-.2-.07Z" transform="translate(-3.99 -0.01)"/><path class="cls-1" d="M1528.83,37c.21-.49.68-.7,1.07-1a4.56,4.56,0,0,1,1.89-.41.56.56,0,0,1,.59.14c.24.21.66.2.73.67a3.77,3.77,0,0,0-2,.92.26.26,0,0,1-.11.14c-.17.11-.19.3-.26.46l-.09.17a2.75,2.75,0,0,0-.4,1.77.9.9,0,0,0,.44.83,1.58,1.58,0,0,1,.36.37c.2.45.51.4.85.18,0,0,.13.12.11,0a3.43,3.43,0,0,1-.07-.56c0-.19,0-.42.29-.43a.49.49,0,0,1,.44.34,4,4,0,0,1,.45,1.86c.2.85-.62.81-1,1.16h0c-.55-.08-.81-.56-1.13-.91a11.22,11.22,0,0,1-2.14-2.32,7.87,7.87,0,0,0,.79-2.46.61.61,0,0,1,.26-.42c.11-.09.27-.19.19-.35s-.31,0-.46,0a1.34,1.34,0,0,0-.63,0,.16.16,0,0,1-.17-.15Z" transform="translate(-3.99 -0.01)"/><path class="cls-1" d="M1528.83,40.36l3.21,3.21c-.4.28-.84.09-1.27.13a3.72,3.72,0,0,1-1.51-.85c-.08-.36-.42-.6-.46-1,0-.2-.21-.29-.43-.28a2.36,2.36,0,0,1-.32-2C1528.57,39.61,1528.71,40,1528.83,40.36Z" transform="translate(-3.99 -0.01)"/><path class="cls-1" d="M1440.91,31.74c.37.29.88.47.76,1.1.22.42.17.71-.35.79a.75.75,0,0,0-.54.44.15.15,0,0,1-.13,0c-.18-.1-.38.12-.56,0s0-.29-.18-.35c-.89-.27-1.1-.67-.87-1.68.32-.36.78-.21,1.17-.3h0a.49.49,0,0,1,.69,0Z" transform="translate(-3.99 -0.01)"/><path class="cls-1" d="M1519,36.39l-.29.6c-.3,0-.25.14-.09.3.42.4.16.55-.24.65a3.22,3.22,0,0,1-1.09-2.44,2,2,0,0,1,1.28-1.21c.54.34.13.64-.06,1,.21.15.52,0,.71.22a.4.4,0,0,1,.09.2A.82.82,0,0,1,1519,36.39Z" transform="translate(-3.99 -0.01)"/><path class="cls-1" d="M1449.27,38.47c0,.41-.62.15-.59.57a2.28,2.28,0,0,1-1.38-.24.91.91,0,0,0-.85,0,4.17,4.17,0,0,1-2.52.06l3.26-.79A10.61,10.61,0,0,1,1449.27,38.47Z" transform="translate(-3.99 -0.01)"/><path class="cls-1" d="M1439.32,38.46H1437a3.34,3.34,0,0,0-1.4.24c-.64.3-1.21-.34-1.85-.4.27-.24.66,0,.93-.27s.71,0,1-.14h1.27c.12.67.61.33.82.19.37-.24.74-.13,1.11-.16S1439.32,38.16,1439.32,38.46Z" transform="translate(-3.99 -0.01)"/><path class="cls-1" d="M1499.43,48.55c-.33.07-.65.15-1,.2a1.08,1.08,0,0,1-1.13-.59.65.65,0,0,1,.13-.9.68.68,0,0,1,.21-.1.27.27,0,0,1,.22.29c0,.16-.19.32,0,.5l.13.12c.3.13.59.22.83-.09a.49.49,0,0,1,.18-.22Z" transform="translate(-3.99 -0.01)"/><path class="cls-1" d="M1479.89,55.4c-.46.19-.78.31-.88-.44-.06-.46-.87-.63-.78-1.29.58.14.86.62,1.16,1.07Z" transform="translate(-3.99 -0.01)"/><path class="cls-1" d="M1474.4,37.29a3.9,3.9,0,0,1,0,2.57A3.46,3.46,0,0,1,1474.4,37.29Z" transform="translate(-3.99 -0.01)"/><path class="cls-1" d="M1499,47.81v.32a1.22,1.22,0,0,1-1.17,0h0a.42.42,0,0,1,0-.59l-.18-.32h0a.66.66,0,0,1,.76,0l.29.17c.12.12.15.31.3.41Z" transform="translate(-3.99 -0.01)"/><path class="cls-1" d="M1513.72,59.54c.19-.41-.24-1,.34-1.31,0,.44.09.88.13,1.31a1.32,1.32,0,0,0-.1.68c0,.24-.11.29-.3.17S1513.74,59.82,1513.72,59.54Z" transform="translate(-3.99 -0.01)"/><path class="cls-1" d="M1517.54,37.91c-.4-.17-.48-.59-.71-.91a.66.66,0,0,1,0-.94c.21-.08.45,0,.46.19,0,.57.42,1,.48,1.54A.29.29,0,0,1,1517.54,37.91Z" transform="translate(-3.99 -0.01)"/><path class="cls-1" d="M1477,52.51c-.88-.15-1.29-.84-1.72-1.5l.85.62a1.21,1.21,0,0,1,.6.56Z" transform="translate(-3.99 -0.01)"/><path class="cls-1" d="M1441.83,32.91l-.14,1.45c-.17-.46-.44-.63-.88-.29,0-.28,0-.62.4-.58s.48-.32.5-.65Z" transform="translate(-3.99 -0.01)"/><path class="cls-1" d="M1533,42.39l.16.17c.19.89-.49.89-1,1,0-.2,0-.44.27-.41C1533,43.21,1533,42.83,1533,42.39Z" transform="translate(-3.99 -0.01)"/><path class="cls-1" d="M1518.32,38.17l-.75-.15v-.11l.07,0a.53.53,0,0,1,.71,0c.41,0,.47-.24.3-.58.38,0,.4.15.26.44S1518.49,38,1518.32,38.17Z" transform="translate(-3.99 -0.01)"/><path class="cls-1" d="M1444,38.17c.16-.54.63-.17.92-.32h.25c0,.1.38.25,0,.29A11.43,11.43,0,0,1,1444,38.17Z" transform="translate(-3.99 -0.01)"/><path class="cls-1" d="M1470.65,47.52c-.11,0-.26.11-.34.07s-.36.38-.53,0,.13-.37.26-.53a.44.44,0,0,1,.39.14C1470.55,47.29,1470.69,47.34,1470.65,47.52Z" transform="translate(-3.99 -0.01)"/><path class="cls-1" d="M1477.47,52.81l.17.28c-.43.06-.63-.12-.59-.56Z" transform="translate(-3.99 -0.01)"/><path class="cls-1" d="M1471.5,48l.43.41h-.43l-.27-.51a.11.11,0,0,1,.13,0Z" transform="translate(-3.99 -0.01)"/><path class="cls-1" d="M1485.55,62.59l.13.33c-.42,0-.43-.34-.41-.66Z" transform="translate(-3.99 -0.01)"/><path class="cls-1" d="M1466.07,44.61h.17c.13.08.55-.11.29.32Z" transform="translate(-3.99 -0.01)"/><path class="cls-1" d="M1440.09,34.07c.19,0,.4-.28.56,0A.4.4,0,0,1,1440.09,34.07Z" transform="translate(-3.99 -0.01)"/><path class="cls-1" d="M1499,47.82c-.28,0-.3-.2-.3-.41a.35.35,0,0,1,.31.37A.06.06,0,0,0,1499,47.82Z" transform="translate(-3.99 -0.01)"/><path class="cls-1" d="M1497.7,47.09h.71v.2h-.76A.46.46,0,0,1,1497.7,47.09Z" transform="translate(-3.99 -0.01)"/><path class="cls-1" d="M1528.83,40.36l-.78-.75a3.14,3.14,0,0,1,.74-2.66V37a.4.4,0,0,1,.12.4,11.28,11.28,0,0,0-.33,2,1,1,0,0,0,.3-.93,1.92,1.92,0,0,1,.49-1.46c.28,0,.44-.47.77-.21.15.11.1.31.09.48a.3.3,0,0,1-.25.31c-.15,0-.34.09-.29.25.19.63-.38,1.1-.33,1.7C1529.47,40,1528.93,40,1528.83,40.36Z" transform="translate(-3.99 -0.01)"/><path class="cls-1" d="M1520.66,33l.27.13a.11.11,0,0,0,0,.08c-.46.75-1.06,1.42-1.45,2.22h0c-.1.1,0,.34-.26.36v-.21a.6.6,0,0,1-.06-.74A3.92,3.92,0,0,1,1520.66,33Z" transform="translate(-3.99 -0.01)"/><path class="cls-1" d="M1528.39,41.57c.3-.58.51,0,.57.11.15.34.15.76.52,1l-.2.18A2.26,2.26,0,0,1,1528.39,41.57Z" transform="translate(-3.99 -0.01)"/><path class="cls-1" d="M1399.48,97.29c-.32-.23-.24-.57-.24-.89.18-.2.23-.51.53-.61.51-.14,1-.24,1.39.31h0C1401.09,97.39,1400.72,97.66,1399.48,97.29Z" transform="translate(-3.99 -0.01)"/><path class="cls-1" d="M1401.16,96.09c-.41-.37-.92-.27-1.39-.31l.35-.24C1400.57,95.54,1401,95.57,1401.16,96.09Z" transform="translate(-3.99 -0.01)"/><path class="cls-1" d="M1404.49,106.78l.29.44-.15.18a.72.72,0,0,1-.28-.46C1404.28,106.78,1404.36,106.76,1404.49,106.78Z" transform="translate(-3.99 -0.01)"/><path class="cls-1" d="M1404.49,106.78l-.14.16c-.16-.2-.35-.39-.29-.68A1.21,1.21,0,0,1,1404.49,106.78Z" transform="translate(-3.99 -0.01)"/><path class="cls-1" d="M1399.48,97.29a2,2,0,0,1,.35,0c1,.2,1.13-.51,1.32-1.19.4.5-.11.89-.16,1.34a.42.42,0,0,1-.31.27c-.23,0-.47.22-.7,0h0C1399.83,97.54,1399.57,97.51,1399.48,97.29Z" transform="translate(-3.99 -0.01)"/><path class="cls-1" d="M1494.29,31.41a1.24,1.24,0,0,1-.64-.28c-.16,0-.12-.19-.18-.29l-.17-.57a1.73,1.73,0,0,0,.31-.64c.13-.31.31-.48.65-.44s.46.3.51.61,0,.67.08,1A.63.63,0,0,1,1494.29,31.41Z" transform="translate(-3.99 -0.01)"/><path class="cls-1" d="M1470.09,15.77c.17.1.59-.2.46.28s.2,1-.45,1a.81.81,0,0,1-.86-.76v-.05C1469.21,15.68,1469.77,15.88,1470.09,15.77Z" transform="translate(-3.99 -0.01)"/><path class="cls-1" d="M1512.49,26.47l0,.4a2.15,2.15,0,0,1-1-1.3c0-.23-.11-.51.16-.64s.48.11.63.33a2.94,2.94,0,0,1,.21.36A.64.64,0,0,1,1512.49,26.47Z" transform="translate(-3.99 -0.01)"/><path class="cls-1" d="M1494.83,30.87c-.33-.29-.16-.68-.17-1s-.1-.44-.38-.5-.39.1-.47.36-.13.53-.48.56c-.11-.38.11-.65.29-.93.34-.53.78-.54,1.14,0a4.63,4.63,0,0,1,.36.7,9.69,9.69,0,0,1,0,1.32.16.16,0,0,1-.14.16C1494.68,31.35,1494.83,31.09,1494.83,30.87Z" transform="translate(-3.99 -0.01)"/><path class="cls-1" d="M1486.41,10.38l.21-.57a.74.74,0,0,1,.64-.15l.4.4c-.24.3-.79,0-.91.49a.29.29,0,0,1-.31,0,.11.11,0,0,1,0-.11S1486.4,10.38,1486.41,10.38Z" transform="translate(-3.99 -0.01)"/><path class="cls-1" d="M1451,8.88c0,.1,0,.21-.12.23s-.14-.09-.15-.18,0-.21.11-.23S1451,8.79,1451,8.88Z" transform="translate(-3.99 -0.01)"/><path class="cls-1" d="M1504.83,23.29a1.3,1.3,0,0,1,0-1.09A1.84,1.84,0,0,1,1504.83,23.29Z" transform="translate(-3.99 -0.01)"/><path class="cls-1" d="M1513.64,33.05c-.21.08-.34.31-.59.29a.65.65,0,0,1,.59-.43Z" transform="translate(-3.99 -0.01)"/><path class="cls-1" d="M1488.61,10.66c0-.24-.1-.51.15-.7v.71h0C1488.7,10.73,1488.65,10.73,1488.61,10.66Z" transform="translate(-3.99 -0.01)"/><path class="cls-1" d="M1495,31.45l.06.12v.16l-.11.4-.09-.41a.2.2,0,0,1,0-.28h0Z" transform="translate(-3.99 -0.01)"/><path class="cls-1" d="M1519.23,32.77c.25,0,.52-.14.74.1a3,3,0,0,1-1.36,1.49,3.13,3.13,0,0,0-1.17,1.17c-.14.24-.29.46-.6.47s-.07-.29-.12-.44c.3-.77.47-1.61,1.26-2.09.23-.1.52-.12.62-.42Z" transform="translate(-3.99 -0.01)"/><path class="cls-1" d="M1454.38,25.89a2.47,2.47,0,0,1-2.33,0Z" transform="translate(-3.99 -0.01)"/><path class="cls-1" d="M1450.47,32.89V31.3c.18-.09.21.06.27.17v1C1450.58,32.6,1450.83,32.89,1450.47,32.89Z" transform="translate(-3.99 -0.01)"/><path class="cls-1" d="M1518.6,33.05c0,.52-.32.43-.62.42A1.07,1.07,0,0,1,1518.6,33.05Z" transform="translate(-3.99 -0.01)"/><path class="cls-1" d="M1494.29,4.55h-.84a.21.21,0,0,0,0-.11,2.72,2.72,0,0,1,.78-.77h.56C1494.83,4.07,1494.83,4.47,1494.29,4.55Z" transform="translate(-3.99 -0.01)"/><path class="cls-1" d="M1493.16,78v.1h-.88C1492.55,77.87,1492.83,78,1493.16,78Z" transform="translate(-3.99 -0.01)"/><path class="cls-1" d="M1441.66,38.46c.07-.55.46-.82,1-.53a2.7,2.7,0,0,0,1.37.24c0,.35-.32.29-.55.29Z" transform="translate(-3.99 -0.01)"/><path class="cls-1" d="M1468.83,108a1,1,0,0,0,.09.41c.37.53.26.93-.32,1.19a1.18,1.18,0,0,1-1.47-.52,1.4,1.4,0,0,1,0-.5l.29-.15h0c0,.36,0,.64.51.66s.66,0,.7-.52A.71.71,0,0,1,1468.83,108Z" transform="translate(-3.99 -0.01)"/><path class="cls-1" d="M1467.12,108.53a1.39,1.39,0,0,1-.54-1.69,3.07,3.07,0,0,0,.26-1.37c.2,0,.26-.28.51-.2A6.13,6.13,0,0,0,1467.12,108.53Z" transform="translate(-3.99 -0.01)"/><path class="cls-1" d="M1467.41,108.38v-2c0-.16,0-.31.17-.32s.15.16.16.28a3.5,3.5,0,0,0,.18,1.55c.08.14-.21.4-.47.44Z" transform="translate(-3.99 -0.01)"/><path class="cls-1" d="M1468.35,104.38l.74-.26c0,.09.07.2,0,.26-.19.36-.48.14-.73.18Z" transform="translate(-3.99 -0.01)"/><path class="cls-1" d="M1470.33,104.29c0,.19-.1.28-.29.29h-.29c-.08,0-.21-.06-.22-.11s.12-.16.22-.18Z" transform="translate(-3.99 -0.01)"/><path class="cls-1" d="M1471.5,110.72c-.77.47-1.55-.12-2.33,0A2,2,0,0,1,1471.5,110.72Z" transform="translate(-3.99 -0.01)"/><path class="cls-1" d="M1404.08,90.17a1.25,1.25,0,0,1,0,.93C1403.83,90.81,1403.89,90.58,1404.08,90.17Z" transform="translate(-3.99 -0.01)"/><path class="cls-1" d="M1425.39,110.45c.18,0,.1.23.12.37s-.12.19-.24.18a.31.31,0,0,1-.27-.33C1425,110.48,1425.14,110.44,1425.39,110.45Z" transform="translate(-3.99 -0.01)"/><path class="cls-1" d="M1476.18,113.07h0a3.66,3.66,0,0,1-1.4,0c-.11,0-.22,0-.27-.16a.6.6,0,0,0-.31-.42h0v-.32c.25-.24,0-.64.28-.87,0-.09-.09-.17,0-.26.38.44.94-.09,1.37.28s.37.94.38,1.45C1476.22,112.87,1476.2,113,1476.18,113.07Z" transform="translate(-3.99 -0.01)"/><path class="cls-1" d="M1474.43,111.29c-.1.29.24.72-.28.87C1474.23,111.89,1473.9,111.46,1474.43,111.29Z" transform="translate(-3.99 -0.01)"/><path class="cls-1" d="M1430.9,104.67a1.51,1.51,0,0,1-1.56.09A2.27,2.27,0,0,1,1430.9,104.67Z" transform="translate(-3.99 -0.01)"/><path class="cls-1" d="M1470.63,104.58a.26.26,0,0,1,.23-.29h.06c.1,0,.28,0,.2.18S1470.83,104.55,1470.63,104.58Z" transform="translate(-3.99 -0.01)"/><path class="cls-1" d="M1474.69,113.08h1.4c-.38.24-.81.12-1.22.15Z" transform="translate(-3.99 -0.01)"/><path class="cls-1" d="M1474.11,112.5c.32,0,.32.2.31.42A.54.54,0,0,1,1474.11,112.5Z" transform="translate(-3.99 -0.01)"/><path class="cls-1" d="M1482.57,60.12c-.33-.25-.61-.38-.47-.75a.22.22,0,0,1,.31-.11h0C1482.76,59.44,1482.6,59.74,1482.57,60.12Z" transform="translate(-3.99 -0.01)"/><path class="cls-1" d="M1471.5,48.41c0,.23.1.57-.33.56a.22.22,0,0,1-.23-.21v0c0-.43.33-.3.56-.33Z" transform="translate(-3.99 -0.01)"/><path class="cls-1" d="M1486.41,63.92l.06.27a.75.75,0,0,1-.67-.81,1.33,1.33,0,0,1,0-.19Z" transform="translate(-3.99 -0.01)"/><path class="cls-1" d="M1485.53,67a3.59,3.59,0,0,1-.62-1C1485.47,66.12,1485.58,66.52,1485.53,67Z" transform="translate(-3.99 -0.01)"/><path class="cls-1" d="M1485,61.85c0,.06,0,.15-.07.19a.3.3,0,0,1-.42,0l0,0a.26.26,0,0,1,0-.33c.23-.24.33.24.55.12Z" transform="translate(-3.99 -0.01)"/><path class="cls-1" d="M1472.68,49c.23,0,.34.15.48.28C1472.93,49.29,1472.7,49.29,1472.68,49Z" transform="translate(-3.99 -0.01)"/><path class="cls-1" d="M1456.29,41.68c0,.24-.16.32-.38.26,0,0-.12-.11-.11-.13C1455.91,41.59,1456.12,41.71,1456.29,41.68Z" transform="translate(-3.99 -0.01)"/><path class="cls-1" d="M1529.44,37c-.5.86,0,2-.73,2.82-.45-1,0-1.89.15-2.81C1529.05,37.07,1529.24,36.53,1529.44,37Z" transform="translate(-3.99 -0.01)"/><path class="cls-1" d="M1530.62,37.88a5,5,0,0,0,0,2.92,1.93,1.93,0,0,1-.46-2.28C1530.27,38.29,1530.19,37.89,1530.62,37.88Z" transform="translate(-3.99 -0.01)"/><path class="cls-1" d="M1531,37.29l-.35.57C1530.62,37.63,1530.51,37.29,1531,37.29Z" transform="translate(-3.99 -0.01)"/><path class="cls-1" d="M1531.9,41.19V40.8l.12-.07v.57l-.08.07Z" transform="translate(-3.99 -0.01)"/><path class="cls-1" d="M1518.61,34.36a13.74,13.74,0,0,1,1.36-1.49c.25-.18.46,0,.69.08-.3.51-.77.88-1.07,1.4a2.29,2.29,0,0,0-.4,1.18,3.56,3.56,0,0,1-1.08-.07C1518.16,35,1519,35,1518.61,34.36Z" transform="translate(-3.99 -0.01)"/><path class="cls-1" d="M1516.83,36l.6-.47c0,.52.37,1,.33,1.48a.3.3,0,0,0,.27.33h0c.36,0,.34.27.24.53h-.71c-.43-.51-.29-1.28-.78-1.76A.41.41,0,0,1,1516.83,36Z" transform="translate(-3.99 -0.01)"/><path class="cls-1" d="M1491.41,52.49l-.57-.31V52c.19-.28.44-.13.69-.08-.14-.18-.59-.12-.38-.52.54-.1.83.28,1.15.59C1492.32,52.67,1491.83,52.49,1491.41,52.49Z" transform="translate(-3.99 -0.01)"/><path class="cls-1" d="M1491.1,51.35c0,.35.41.2.54.39s.36.19.21.39a.26.26,0,0,1-.37,0l0,0a.69.69,0,0,0-.67-.16h0a.47.47,0,0,1,0-.59Z" transform="translate(-3.99 -0.01)"/><path class="cls-1" d="M1490.83,51.34v.59a1.05,1.05,0,0,1-.51-.53A.52.52,0,0,1,1490.83,51.34Z" transform="translate(-3.99 -0.01)"/><path class="cls-1" d="M1497.83,48.11H1499C1498.6,48.58,1498.22,48.59,1497.83,48.11Z" transform="translate(-3.99 -0.01)"/><path class="cls-1" d="M1497.83,47.53v.59a.26.26,0,0,1-.29-.26.28.28,0,0,1,.23-.33Z" transform="translate(-3.99 -0.01)"/><path class="cls-1" d="M1488,11.67h-.13a.19.19,0,0,1-.18,0,.5.5,0,0,0-.61-.1.45.45,0,0,1-.28-.07l-.25-.18a.41.41,0,0,1-.28-.3.81.81,0,0,1,0-.31.36.36,0,0,1,.17-.26h.27c.52-.41,1-.1,1.43.14A1.82,1.82,0,0,1,1488,11.67Z" transform="translate(-3.99 -0.01)"/><path class="cls-1" d="M1488.15,10.66a6.87,6.87,0,0,0-1.43-.14c0-.88.6-.35.94-.46C1487.75,10.29,1488.2,10.29,1488.15,10.66Z" transform="translate(-3.99 -0.01)"/><path class="cls-1" d="M1488.61,10.66h.14v1.08A1.51,1.51,0,0,1,1488.61,10.66Z" transform="translate(-3.99 -0.01)"/><path class="cls-1" d="M1487.83,12a1.11,1.11,0,0,1-1-.27v-.12h.33a.63.63,0,0,1,.59.12h.15Z" transform="translate(-3.99 -0.01)"/><path class="cls-1" d="M1487.75,11.67l-.59-.12C1487.44,11.18,1487.61,11.36,1487.75,11.67Z" transform="translate(-3.99 -0.01)"/></svg>