<svg id="レイヤー_1" data-name="レイヤー 1" xmlns="http://www.w3.org/2000/svg" viewBox="0 0 1568.75 217.39"><defs><style>.cls-1{opacity:0.19;font-size:100px;font-family:RiiTegakiFude-90ms-RKSJ-H, RiiTegakiFude;}.cls-1,.cls-2,.cls-3{fill:#0f0e0a;}.cls-1,.cls-2{stroke:#0f0e0a;stroke-miterlimit:10;}.cls-4{fill:#282724;}</style></defs><title>mokuzi_hamburger</title><text class="cls-1" transform="translate(0.5 204.59)">Hamburger</text><path class="cls-2" d="M159.28,279.19a103.36,103.36,0,0,1-.7-11.1c-.2-3.7,0-8.7-.2-12a22.11,22.11,0,0,0-.3-7.5l-1.5-.5a37.33,37.33,0,0,1-6.5,1.3c-2.1.3-4.8.9-7.3,1.2s-8.8.8-10.6,1.5c-1.9-.5-4.3.4-6,.8-.8.8-.6,3.3-.4,6.4,0,8.8-.3,11.8-.9,14.8a18,18,0,0,1-4.4,8.41l-2.8.69-2.2-2.4a43.09,43.09,0,0,0-.91-4.7,20.71,20.71,0,0,1-.3-5c.3-4.7.71-14.8,1-19.9,0-4.6,0-9.3.21-14.3v-14.4c-.21-1.7-.21-3.7-.5-5.4a29.86,29.86,0,0,1-.81-5.3l.1-.7a18.77,18.77,0,0,1,5.31-1.3,16.41,16.41,0,0,1,4.4-.4,3.83,3.83,0,0,1,2.8,2.7v4.4a9.46,9.46,0,0,0-1,4v4.7a23.81,23.81,0,0,1,.7,5.6c0,7.1,0,9.1.3,10.8l1.1.3c4.9-.3,7.3,0,9.8-.3l16.2-2,4.2-.7c.6-6.4.9-8.1.9-10.1v-4c0-2.3.7-3.8.3-6.4a44.23,44.23,0,0,1-.2-7.3c1-1.7,4.2-1.7,6.6-1.7,1.6.4,4.5,1.4,5.6,2.7a70.65,70.65,0,0,1,1.4,7.6l-.6,4.4c-.3,3.4-.9,9.4-1.2,15.8a159.84,159.84,0,0,0-1,16.7c-.3,11.9-.9,18.3-2.5,24.3l-.8,2-1.4,1.2-3.4-.59A9.12,9.12,0,0,1,159.28,279.19Z" transform="translate(-107.87 -79.8)"/><path class="cls-2" d="M185.27,281.39a33.14,33.14,0,0,1-2.2-7.3,27.83,27.83,0,0,1-1.3-7.2,30.83,30.83,0,0,1,2-8.6,42.77,42.77,0,0,1,3.2-7.8,29.4,29.4,0,0,1,4.7-7.3c1.4-1.1,2.91-2.2,4.41-3.5,1.4-1.1,2.9-1.9,4.5-3.1a11.74,11.74,0,0,1,6-.7c1,1.3,2.2,1.3,3.5,2.5,1.4.3,2.5,1.3,3.8,2.1a5.8,5.8,0,0,1,1.5,4.4l-.3,4.4.5,6c.3,3.9.8,6.4,1,9a63.15,63.15,0,0,0,1.5,8.3c1.1-.5,1.8-2,3.6-4.4a33.23,33.23,0,0,1,3.4-6.8l2.3-.1,2.1,1.6.7,6.4a15.79,15.79,0,0,1-2.4,5.7,38.17,38.17,0,0,0-3.1,5.5,7,7,0,0,1-4.6,2.1,18.26,18.26,0,0,1-4.9.41,6.85,6.85,0,0,1-4.5-3.91,32.12,32.12,0,0,1-1.6-4.5s-.9,1.5-1.7,2.8c-1.3,2-3,2.7-4.3,3.7-1.9,1.5-4.6,2-7.2,2.2-2.31.21-4.31.1-6.51.4C187.07,283.59,185.27,281.39,185.27,281.39Zm15.91-14.9c.8-2,1.3-4.4,2.1-6.4a36.38,36.38,0,0,0,.7-7.4l-.4-3-2.3-.9a14.52,14.52,0,0,1-2.6,1.7,10.46,10.46,0,0,0-2.41,3.7,52.35,52.35,0,0,0-2.7,8.1,46,46,0,0,0-1.19,9.6c.89,2.8,2,3.6,3.8,2.8l2.1-2.1A37.7,37.7,0,0,0,201.18,266.49Z" transform="translate(-107.87 -79.8)"/><path class="cls-2" d="M243.27,283.19a18.38,18.38,0,0,1-2.6-5.9,41.13,41.13,0,0,1-1.3-7,59.42,59.42,0,0,1-.3-7.3c.3-3.4.6-6.7.9-10.1.4-3,.7-6.3,1.4-9.3a51.92,51.92,0,0,0,.3-9.7l2.7-.4c2,.4,3.9.7,6.1,1a17.82,17.82,0,0,1,5.6,2l1,2.7-.3,1.3,1.1.4a23.82,23.82,0,0,1,6.6-3.7,17.82,17.82,0,0,1,7.51-.7l3.7,2.4,1.2,3,1.6.3a47.21,47.21,0,0,0,4.7-3.7c1.7-1,3.3-2,5-3a16.14,16.14,0,0,1,5.7-1,19.18,19.18,0,0,1,4.4,1.7,16.27,16.27,0,0,1,3.6,3.3c.3,3.4,1,6.7,1.3,10.1.3,3.7.3,7,.7,10.3.3,3.7.6,7.1,1,10.4l-.1,4.9-.4,3.5-2.3,4.4-3.4.6a13.74,13.74,0,0,1-5-6c-.1-6-1.1-9.7-1.4-13.4s-.7-7.7-1-11.4-.7-7.7-1.3-11.3l-1.2-.4a59.11,59.11,0,0,0-5.7,8.4,52,52,0,0,0-3.8,9.3c-1.1,3.4-1.2,12.2-2.4,15.9v4.3a8.34,8.34,0,0,1-1.61,4.1l-4,1a11.23,11.23,0,0,1-5-6.1,13.73,13.73,0,0,1-1-7.3V262c.3-2.4.7-4.7,1-7.1v-7l-1.7-3.7-1.1-.3-2.8,1.7c-1.7,2.3-3.3,4.6-4.9,7a16.32,16.32,0,0,0-2.5,7.7,30.14,30.14,0,0,1-2.1,8.1,57.93,57.93,0,0,0-.6,8.3,11,11,0,0,1-2.6,7.2l-2.3.7Z" transform="translate(-107.87 -79.8)"/><path class="cls-2" d="M314.67,278.49a25.63,25.63,0,0,1-.4-6.2s.8-23.4,1-28.4c.4-5,.5-13.3,1.7-18.4a145.79,145.79,0,0,0,.3-14.9l-.3-5.8,1.1-.3a8.39,8.39,0,0,1,4.6,3.6,13.14,13.14,0,0,1,2.5,4.3,45.06,45.06,0,0,0,.8,5.3,31.8,31.8,0,0,0,.5,5.7,20.89,20.89,0,0,1,.5,5.7l-.4,7.3.6,2a19.32,19.32,0,0,1,7.5-3.2,46.45,46.45,0,0,1,6.3-.3c2.5.3,4.8.7,7.3,1,2,.7,3.81,3.1,5.51,4.8,1.7,4.6,3.2,5.8,3.5,8.2,1.7,4.1,2.1,8.3,2.4,13.8.5,4.5-.3,7.2.1,9.5a9,9,0,0,1-2.7,4.4c-1.4,1.3-2.7,2.7-4.2,4a23.3,23.3,0,0,1-5.11,2.3,11.36,11.36,0,0,1-5.9.7c-2.5-.3-5.7.41-8.4,0a12.36,12.36,0,0,1-8.5-3.2l-.9.8c-.3,1.6-1.6,2.31-3.1,3.6l-3,1A13,13,0,0,1,314.67,278.49ZM348,261.69c0-3.4-1.31-8.3-2.6-11.7a10.11,10.11,0,0,0-3.61-4.5,8.88,8.88,0,0,0-6.1-1,12.25,12.25,0,0,0-6.7,4.2c-1.7,1.6-2.8,6.1-3,11.1,0,4.8-.6,7.9-.8,11.4,3.5-.4,6.9.7,9.2,0,2.6-.5,5.4-.8,7.3-1.3a7.17,7.17,0,0,0,5.6-4.8Z" transform="translate(-107.87 -79.8)"/><path class="cls-2" d="M406.87,280.69c-.8-1.6-1.7-3.1-1.7-3.1H405a14.29,14.29,0,0,1-4.8,4,15.48,15.48,0,0,1-5.7,2,19.7,19.7,0,0,1-6.4.3,18.43,18.43,0,0,1-8.1-2.2,19.31,19.31,0,0,1-6-5.8,29.82,29.82,0,0,1-3.5-6.3c-.5-2.7-1.3-5.1-1.6-7.7a39.09,39.09,0,0,1-.3-7.7l.3-16.1-.6-2.3a5.7,5.7,0,0,1,4.7-1.4,7,7,0,0,0,4.4,1.4c1.4.3,3.1.4,3.9,2.2,0,4-.8,8.2-1.2,12.3a40.92,40.92,0,0,0,.5,9.6v8c.7,2.3,1.9,4.6,3.2,5.6a19.79,19.79,0,0,0,4,.7,15.88,15.88,0,0,0,5.1-3,17,17,0,0,0,4.5-4.7,23.64,23.64,0,0,0,2.4-5.6c.3-2,.9-4.1,1.2-6.4l.5-8,.2-2a18.91,18.91,0,0,1-1.4-4.4c-.2-1.3-.5-2.7-.8-4.3a4.19,4.19,0,0,1,4-1.4,17.2,17.2,0,0,0,3.7,1.7,9.52,9.52,0,0,1,4,2.3,6.91,6.91,0,0,1,1.7,5.4l-.6,4s.6,7,.6,11.4a81.32,81.32,0,0,0,1,13c.9,4.4.8,6.5,1.5,10.9l-1.7,2h-2.4A7.92,7.92,0,0,1,406.87,280.69Z" transform="translate(-107.87 -79.8)"/><path class="cls-2" d="M426.57,280.79a26.39,26.39,0,0,1-1.7-6.7,27.87,27.87,0,0,1-.8-7v-7.4c.2-2.6.8-5.3,1.1-8.3.2-2.7.7-5.4,1.3-9.1a75,75,0,0,1,1.5-8l2.1-.4s2.4.7,3.9,1,2.4,1.7,3.5,2.4l.7,2.8s3.5-2.3,5-3a20.94,20.94,0,0,1,4.8-1.3,30.25,30.25,0,0,1,5.2-.3c1.3.3,3,.3,4.7.6a15.16,15.16,0,0,1,5.3,2.8l1.7,3.7a10.38,10.38,0,0,1-7.4,2.6l-2.5.6a36.94,36.94,0,0,1-5.7.3,12.3,12.3,0,0,0-5.2,1.7c-2,1-3.3,2.3-4.5,5.6a18.57,18.57,0,0,0-2.6,5.3c-.7,2-1.1,3.5-1.7,5.8s-.9,4.3-1.2,6.3c-.3,2.3-.6,4.3-.8,6.7a39,39,0,0,1-1.3,6.3l-2.5.3Z" transform="translate(-107.87 -79.8)"/><path class="cls-2" d="M486.27,293.5c-1.7-1-2.9-2.1-4.6-3.3l-1.1-2.41a35.11,35.11,0,0,1,1.2-4.9,36.82,36.82,0,0,1,3.1-4.1,19,19,0,0,1,3.7-3.8,38.87,38.87,0,0,1,5-3c1.7-.9,3.4-1.4,4.8-2.1v-1.8l-2-.2-4.6.6a32.67,32.67,0,0,1-8-1.8c-2.3-.9-4.7-2.1-7.1-3.2a42.56,42.56,0,0,1-2.5-5.7,20.3,20.3,0,0,0-2.3-5.3v-3.8a21.74,21.74,0,0,0-.2-3.6c.6-1.1,1.7-2,2.7-4a24,24,0,0,0,3.6-1.8c2.5-.9,5.2-1.8,7.7-2.7a24.72,24.72,0,0,1,7.8-1.2c2.3-.9,4.9-.9,7.8-1.2a14.29,14.29,0,0,1,6.3,2.3,21,21,0,0,1,2.1,5.1,42.3,42.3,0,0,1,2.5,4.7v2.1a36.77,36.77,0,0,1-1,5c-.3,1.8-.6,3.5-1,5-.2,1.8-.8,4.8-.5,6.5l4.7-1,4.6-.1,1.1,1.5c-1,3.1-2.4,3.9-4.1,5.4-1.7.6-5.5,1.7-6.3,3.1,0,0-.8,3.2-1.2,5.8a21.28,21.28,0,0,1-2.2,7.11,34.46,34.46,0,0,1-5.1,6.4,9.26,9.26,0,0,1-4.5,1.5,11.53,11.53,0,0,1-4.9.3A11.24,11.24,0,0,1,486.27,293.5Zm13.5-40.11v-3.5c-.9-.9-1.9-1.8-2.9-2.7a5.58,5.58,0,0,0-3.7-1.5l-5.5,2.7a5.46,5.46,0,0,0-1.6,3.8,17.56,17.56,0,0,1-.7,4.5,7.58,7.58,0,0,0,3.9,2,14.14,14.14,0,0,0,5.2.3A14,14,0,0,0,499.77,253.39Zm-1.4,28.6a9.55,9.55,0,0,0,.4-4.6l-1.3-.3c-1.2.8-2.2,1.6-3.2,2.4a8.23,8.23,0,0,0-2.3,2.9v2.3l1.8,1.6h.8l.9-.4A10.46,10.46,0,0,0,498.37,282Z" transform="translate(-107.87 -79.8)"/><path class="cls-2" d="M536.47,282.5a22.58,22.58,0,0,1-4.8-2.51,10.92,10.92,0,0,1-3.1-4.6c-1.9-3.3-1.5-8.4-1.7-9.6,0-2.4.5-4.5.7-6.9a17,17,0,0,1,2.5-6.8c1-1.7,1.9-3.8,3.2-6.1a23.21,23.21,0,0,1,5.3-5.1,73.1,73.1,0,0,1,6.5-4.3,14.47,14.47,0,0,1,7.5-2.3,21.57,21.57,0,0,1,6.8,1.2c1.9,1.2,4.2,1.7,6.2,3.3s2.2,2.9,2.8,4.3a20.18,20.18,0,0,1,.9,6.2,15,15,0,0,1-2.9,8.1,25.93,25.93,0,0,1-5.9,5.3,30.87,30.87,0,0,1-7,2.5,37.14,37.14,0,0,1-8.1,1.4l-8.4-1.7a9.16,9.16,0,0,0-.8,4.3l.4,2.1s1.5,2.6,3,3.4c3,.5,6.4,0,11.9-.8,2-.6,4.1-.6,6.1-1.3a16.83,16.83,0,0,0,5.3-2.8,25.32,25.32,0,0,1,5.7-2.9l.8,2.2-1.5,4.6a20.37,20.37,0,0,1-5.7,4.9,45.66,45.66,0,0,1-6,2.8c-2.6,1.4-5.5,2.7-13.5,2.8C540.37,284.39,538,283.19,536.47,282.5Zm19.7-35.41c-.7-1.2-1.4-1.5-2.6-.9a20.09,20.09,0,0,0-4.9,1,14.73,14.73,0,0,0-4.7,2.3,9.72,9.72,0,0,0-3.9,5.3l-.5,1.8.3,1a12,12,0,0,0,6.6.4c1.4-.3,2.5-1.3,3.9-1.9s3.5-1.1,4.3-2.4A15.86,15.86,0,0,0,556.17,247.09Z" transform="translate(-107.87 -79.8)"/><path class="cls-2" d="M581.57,280.79a26.39,26.39,0,0,1-1.7-6.7,27.87,27.87,0,0,1-.8-7v-7.4c.2-2.6.8-5.3,1.1-8.3.2-2.7.7-5.4,1.3-9.1a75,75,0,0,1,1.5-8l2.1-.4s2.4.7,3.9,1,2.4,1.7,3.5,2.4l.7,2.8s3.5-2.3,5-3a20.94,20.94,0,0,1,4.8-1.3,30.25,30.25,0,0,1,5.2-.3c1.3.3,3,.3,4.7.6a15.16,15.16,0,0,1,5.3,2.8l1.7,3.7a10.38,10.38,0,0,1-7.4,2.6l-2.5.6a36.94,36.94,0,0,1-5.7.3,12.3,12.3,0,0,0-5.2,1.7c-2,1-3.3,2.3-4.5,5.6a18.57,18.57,0,0,0-2.6,5.3c-.7,2-1.1,3.5-1.7,5.8s-.9,4.3-1.2,6.3c-.3,2.3-.6,4.3-.8,6.7a39,39,0,0,1-1.3,6.3l-2.5.3Z" transform="translate(-107.87 -79.8)"/><line class="cls-3" x1="559.25" y1="186.39" x2="1568.75" y2="186.39"/><polygon class="cls-4" points="1568.75 181.71 1568.27 181.44 1567.04 182.17 1568.75 181.71"/><path class="cls-4" d="M1668.49,263.13c.24.13.13.35.37.48l4.77-2.07C1671.5,260.36,1669.9,263.91,1668.49,263.13Z" transform="translate(-107.87 -79.8)"/><path class="cls-4" d="M1667.09,262.92a2.9,2.9,0,0,0-3,.82C1664.69,263,1667.49,264,1667.09,262.92Z" transform="translate(-107.87 -79.8)"/><path class="cls-4" d="M1504,263.4a3.68,3.68,0,0,0,.57-.06A1,1,0,0,0,1504,263.4Z" transform="translate(-107.87 -79.8)"/><path class="cls-4" d="M1461.5,266.71l-.45.78c7.94-1.39,16.89,0,25.29-.58l-.57.27c21.3.3,41-1,62.08-1.59-.33.09-.44.31-.78.41a10.62,10.62,0,0,1,3.29-.71c.3.18-.32.36-.68.44,4.46,1.29,13.11-.81,15.9.18,1.25-.14,1.81-.67,1.11-1.08,16.54-.33,34.24-.57,51.08-1.58.81.17,1,.52.74,1,14.4-2.09,29.49-1.26,44.23-.92.56-.55-1.51-.58,0-1.15-4.74-.69-8.68,1.34-13,.35l.55-.53c-3.12-.34-.63,1.33-3.87.65-1.28-.44.32-.68-.28-.71-6.64.21-13.57-.26-19.83,1-1.54-1.15-7.14,0-9.59-1.14-1.72.46-3.45.34-4.1,1.1-23.26-.6-47,.51-70.84.42-11.14,2.22-24.49-.43-37.72.32-.1-.08-.08-.16,0-.23a96.52,96.52,0,0,1-15.75.53l-4.36.94c-31-1.93-62.64-.57-94.1-1.37-35.76-.56-67.08-2.16-101.9.77,0-.22-.24-.34.66-.43-10,.45-19.2-.35-28.66.12l0-.22c-23.49,1.83-48.88-.25-71.52,1.73-27.55-.2-58.71,0-87.88.56l.07-.44c-23.34.93-45.9-1.4-69.19-.7-24-1-49.25,2.52-73.4,1.19-14.94-2.17-34.57,2.47-48.61.23-28.84-3.38-56.82-1.21-85.65.82-26.59-1.2-53.15,1.88-78.91-.57-12.2,1.57-25.68-1.95-39.27-1.49l.49.54c-4.88-1.65-10.86,2.32-13.91-.14l.52-.11c-2.58-1.25-6,2.94-7.57,1.45l-.41.62c-3.13.18-.37-.7-2.79-.95-.9.08-.34,1.13-2.23.77-.41-2.52-7.66.55-7.87-2.29,1.71,0-2.68-1.09,1.16-1.69-1.1-.29-6.33-.15-5.86,1.06-.45,1.27-2.5,2.38.69,3.37l.64-.93c1.07.93.81.47,1.19,1.16,4.16.13,4.72,1.48,7.7,2,0,0-.06-.05,0-.1,2-1.11,4.86-.45,6.47-.29l.65.51c1,1.09,4.73-2.11,3.46-.25,8.46-.47,18.15-.44,27.6-.47,1.32-.7,7.23.07,5.17-1.29,2.36,1.55,9.39,1.94,12,1.88-.09.15-.2.31-.61.25,5.06,2,6-1.86,10.75.6.74-1.73,8.62.56,11.3-1.49q.89.58.57,1.05c8.54,0,18,.67,25.21.74,6.18-1.52,15,.69,20.27-1.41,4.4.44,11.52,1.32,17.67.48l-.6.26c6.94-.13,15.6-.24,20.35-1.56,2,2,5,1.61,8,2.26,4.63-.94,14-.66,21-1.51,1.08.93,5.82-.4,6.19,1,19.79-2.61,44.25-1.7,65.38.27l-.31.1c2.75-.75,5.91-2.38,8.7-3.34.27.12.24.34-.35.33,3.86-.25,7.47,1.08,11.33.83,0,.23,0,.23-.66.44,3.62-.6,7.48,1.08,11.75,0l.23.36,2.72-.5c-.07.45-.17,1.12-1.62,1,33.13.44,67.33-1.88,101.34-1.54l-1.24.42,6.59-.76c0,.23-.35.34-.66.44,8.4.76,17.12-.51,25.31-.32,0,.22-1.28.65-.13.9,6.06-1.22,9.73,1.58,12.77-1a.47.47,0,0,1-.15.89c16.87-.84,34.18-.79,51.17-.38,14.15-2.29,30-.21,44.66-2l-.07.45c19-1.6,39.21.11,58.93-.21,8.19.19,13.73-.35,22-.38l.21.57c13.85-2.17,29.12,1.94,43.57-.44l-1,.77c2.24-1.2,8.74.42,7.89-1.63l2.55.62c9.82-2.71,17.87,1.26,29.9-.5l-.79.48c3.2-.38,6.93-.68,9.3-.23-.37.07-.2.22-1,.34,10,1.93,21.17-.2,31.74-.12l-1.2.9c5.11-1.06,14.48-.07,21.2-.56l-.41.43,3.4-.6.09.86C1444.74,267.55,1453,266.81,1461.5,266.71Z" transform="translate(-107.87 -79.8)"/><path class="cls-4" d="M1549.68,265.73l-.1,0C1549.32,265.78,1549.45,265.77,1549.68,265.73Z" transform="translate(-107.87 -79.8)"/><path class="cls-4" d="M678.42,270.14c-.4-.05-.73-.1-1.07-.17C677.43,270.14,678.08,270.11,678.42,270.14Z" transform="translate(-107.87 -79.8)"/><path class="cls-2" d="M1574.41,80.64l.24-.06c.82-.57,1.65-.09,2.47,0,1.73.23,3.47.41,5.19.71.87.16,1.93-.21,2.51,1,.21.45,1.16.27,1.6-.36-.15-.5.35-.26.49-.43,3.81-1.14,7.18.9,10.74,1.51a30.59,30.59,0,0,1,8,2.71c1.28.61,2.93.39,4.24,1.13,2.21,1.24,4.87,1.41,6.94,2.91s4.45,2.12,6.39,3.53,4.15,2.22,6.07,3.58c.33.24.76.36,1,.65,2.06,2.41,5,3.64,7.43,5.49.57.43,1.14.79,1,1.71-.08.59.38.83,1,.47l.63.3c.66.33.61.84.39,1.4l.12.26a.47.47,0,0,1,.19.15c.45.92.61,2,1.69,2.55.3.15.23.56.13.88l.14.26a2,2,0,0,1,.77,1.67c.14.67.87.37,1.2.72a1.9,1.9,0,0,1,.7,1.3.12.12,0,0,0,0,.13,3.49,3.49,0,0,1,1.66,3.6c.07.94.92,1.44,1.25,2.21.47,1.12.79,2.31,1.18,3.47.23.67.48,1.33.72,2,.14.47.6.89.25,1.44-.07.76.24,1.53-.28,2.27-.22.31,0,.75.25,1.09s.39,1-.11,1.4c-.3.59.26.59.54.78s.46.13.3.46a.57.57,0,0,0,0,.22,5.4,5.4,0,0,1,.06,1.39,8.13,8.13,0,0,1-1,3.59c-.24.42-.62.65-.85,1l-.22.48c.09,1.09-.74,1.43-1.48,1.84l-.2.3c-.06.53-.51.89-.56,1.46s-.47.55-.91.41a2.11,2.11,0,0,0-.9.8c.12.54-.3.82-.63,1a2.81,2.81,0,0,0-.87.95,23.44,23.44,0,0,1-8,3.67c1.52-.34,3-.85,4.52-1.16a20,20,0,0,1,4.75-.24,4.6,4.6,0,0,0,1.53-.19c1,.51,1.85,1.42,3.14,1,.1,0,.23.19.34.3l.46.25h0l.29.4,0,0,.64,1c.28.44,1,.71.52,1.43l0,1c.85,1.81.46,3.65.13,5.48a1.1,1.1,0,0,1-.68.85c-1.73,1.37-3.8,1.54-5.88,1.55a.86.86,0,0,0-.81.38c-.14.32-.58.3-.71.63a.47.47,0,0,1-.13.45c-.85.63-1.88.1-2.79.42-.47.17-1,.09-1.41.55s-.9.07-1.35.14c-3.66-.26-7.28.33-10.91.66-.47.05-1,.14-1.32-.3a.71.71,0,0,1-.13-.31c.58-1.86.6-1.89,2.43-2,.19,0,.39,0,.52-.18s0-.23,0-.34c-.07-.68,0-1.25.85-1.38,2.79-.41,5.61-.46,8.41-.7a1.09,1.09,0,0,1,.46.1l.24.27a2.32,2.32,0,0,0,2.88.11,2.55,2.55,0,0,1,1.78-.51,17.54,17.54,0,0,0,1.78-.12,2,2,0,0,0,1.34-.39c.56-.34,1.46-.4,1.09-1.47,0-.12.28-.35.42-.53a3.86,3.86,0,0,0,.6-3.53c-.24-.94-.94-1.22-1.73-.61a2.9,2.9,0,0,1-2.23.61c-.93-.1-1.72.54-2.69.43-1.39-.15-1.55-.25-1.28-1.61,0-.26.16-.55-.22-.67l-.64-.14c-1,.13-.86.83-.7,1.5.3,1.31,0,1.66-1.34,1.28a5.2,5.2,0,0,0-2.71-.12,7.68,7.68,0,0,1-2.48-.22.45.45,0,0,1-.44-.35c-.27-1.46-1.17-.42-1.8-.46-.39,0-.32.24-.21.44.46.89-.14,1.21-.8,1.31a5.1,5.1,0,0,1-3.41-.84c-.47-.27-.35-.7,0-1a5,5,0,0,1,1-.62c.13-.08-.15-.12,0,0s0,.08-.07.1c-.69.19-1.07.81-1.62,1.18s-.81.36-1.13,0c-.72-.91-1.55-.7-2.35-.24a6.33,6.33,0,0,1-3.76,1c-1.08-.09-2.07.53-3.16.44a2.75,2.75,0,0,0-.76,0c-.36,0-.62.3-1,.26a19.2,19.2,0,0,0-6.41.36c-2.54.55-5.08.05-7.62,0a4.91,4.91,0,0,0-2.22.3,2.23,2.23,0,0,1-.57.18c-4.1.51-8.2,1.14-12.35.66-2.22-.17-4.42-.52-6.67-.52-2.87,0-5.75-.09-8.62-.14a4.27,4.27,0,0,0-1.49.21c-2.14,0-4.28.28-6.43.12-1-.08-1.93-.39-2.91-.52a2.53,2.53,0,0,0-.51-.28,5,5,0,0,0-3.4.31,3.87,3.87,0,0,1-2.33.27,22.11,22.11,0,0,0-6.08-.18c-.56-.12-.52-.55-.42-.94s.47-.36.79-.37c.55,0,1.12.11,1.6-.31a10,10,0,0,0-1.53-.26c-.16,0-.35-.11-.47,0-1.43.92-3.1.84-4.66,1.22a2.91,2.91,0,0,1-.3.17,2.17,2.17,0,0,1-2.47-.17,1.46,1.46,0,0,1-.21-.28c-.41-1.19-1.22-.51-1.91-.41a6.79,6.79,0,0,1-1.09.31c-.55.14-1-.28-1.57-.23-.37.06-.57.47-1,.45a8.86,8.86,0,0,1-.89-.21,62.32,62.32,0,0,0-8.2.14,8.87,8.87,0,0,1-3.87,0,3,3,0,0,0-1.19,0,2.14,2.14,0,0,1-.62,0,2.41,2.41,0,0,0-2.61-.34,2.53,2.53,0,0,1-1.49.14.63.63,0,0,1-.51-.49c-.69-.59-.68-.58-1.36.05a.89.89,0,0,1-.61.25,10.74,10.74,0,0,1-3.15-.17c-.21-.05-.43-.08-.64-.14a8.77,8.77,0,0,0-2.23.17,1.14,1.14,0,0,0-1.08,1.1c0,.69.49.95,1.05,1.09a7.4,7.4,0,0,0,1.87.26c.3,0,.56,0,.65.38a.89.89,0,0,0,.31.86c.28.66.92.38,1.39.52.77.25.89-.56,1.35-.81a8.77,8.77,0,0,1,6.07,2c.5.44,1.24,1,1.75-.1a.5.5,0,0,1,.48-.27,6.9,6.9,0,0,1,4.31.65,2.66,2.66,0,0,0,1.68.53c2.24-.33,4.32.5,6.47.8,5.25.72,10.51,1.36,15.8,1.83a13.06,13.06,0,0,1,2.29.59c2.56.7,5.07,1.75,7.81,1.46a1.82,1.82,0,0,1,.57,0,72.67,72.67,0,0,0,11.7,2.48,10.25,10.25,0,0,1,2.32.52c1.16.66,2.62.69,3.6,1.78.45.5,1,.93.76,1.66s-.94.76-1.59.85c-1.44.2-2.83-.4-4.27-.25a4.65,4.65,0,0,1-1.12-.05c-.36-.05-.42-.43-.65-.62-2.24-1.16-4.72-1.4-7.15-1.82-3.81-.66-7.68-1-11.45-2a2.84,2.84,0,0,0-1.5,0,2.21,2.21,0,0,1-2.21-.48c-.15-.11-.41-.27-.53-.22-2,.84-3.7-.35-5.52-.63-2.47-.38-4.92-.87-7.39-1.23-1.27-.19-2.79-.28-3.71-1.54a.47.47,0,0,0-.43-.13c-2.28.59-4.51-.06-6.75-.34-1.77-.22-3.52-.72-5.28-1.06a3,3,0,0,0-1.93.13,2.57,2.57,0,0,1-2.27-.36,4.79,4.79,0,0,0-2.26-.47,9.88,9.88,0,0,1-2.4-.51c-.61-.23-1.08-.61-1.71-.09-.27.22-.62.07-.93,0-.7-.13-1.4-.34-2.1-.46-2.65-.47-3-1.42-3.43-4.13-.06-.38.06-.83-.38-1.07a.26.26,0,0,1,.24-.29,11.63,11.63,0,0,1,1.11-3.39c-.14-.3,0-.44.29-.43,1-1,2.32-.4,3.48-.62a6.52,6.52,0,0,1,1.64.1c.67.26,1.38,0,2.05.2l.41.06c.46.36.9.55,1.29-.08.43-.31.5-.95,1.05-1.13a1.94,1.94,0,0,0,.68,0c.33,0,.6-.22.93-.23a3.87,3.87,0,0,0,2.36.42.73.73,0,0,1,.71-.35,2.87,2.87,0,0,1,1.09.09c1.69.44,3.42-.14,5.1.12,3.06.47,6.1.11,9.15.14l.46-.12a7.79,7.79,0,0,0,2.93.06c1.14-.2,2.34.35,3.55.1.24,0,.58.35.77.67a9.27,9.27,0,0,0,3.36-.22,2.05,2.05,0,0,1,1.49-.52c1.72.37,3.38-.11,5.07-.21a7.1,7.1,0,0,1,2.72.1,6.78,6.78,0,0,0,3.71-.16,9.09,9.09,0,0,0,1.26-.26c1.35,0,2.68-.46,4.06-.23.34.56.89.15,1.33.27a11,11,0,0,0,2.19,1.46c.41.09.85,0,1.22.25.1.16.36.44.24.46-1.08.25-.87,2-2.2,1.89a.46.46,0,0,0-.5.42c-.22.63.29.69.66.72a3.56,3.56,0,0,0,1-.21c.7.11.4-.72.81-.89a2.55,2.55,0,0,1,1.88.11c.39.44.91.27,1.39.28a6.42,6.42,0,0,0,2.79.12,1.11,1.11,0,0,0,.9-.33c.1,0,.2-.09.3-.15l-.21.12c-.2.08-.33.26-.53.32a.85.85,0,0,1-.32,0,8.5,8.5,0,0,1-3.1-.12c-.25,0-.5.06-.75.05a2.07,2.07,0,0,0-1.55-.57,3.53,3.53,0,0,1-1-.13c-.34-.12-.67-.31-.65-.73s.32-.44.6-.57a10.39,10.39,0,0,0,1.5-.73,1.45,1.45,0,0,0,1-.53c1.28.46,2.61.09,3.92.24.26.16.53,0,.8,0a2.6,2.6,0,0,1,1,.09l2.45-.33a3.42,3.42,0,0,0,1.85,0h0a1.2,1.2,0,0,1,.45-.36,5.45,5.45,0,0,1,1.92-.27h.79c.32,0,.65-.06,1,0,.56.2,1,.76,1.67.63.76.14,1.56.4,1.9-.67.39-.83,1.11-.89,1.88-.75a6,6,0,0,0,1.19.24c.48,0,1,.06,1.43,0,.44.21,1.17-.65,1.38.38a17.53,17.53,0,0,0-3,2.71,21.39,21.39,0,0,1,3.07-2.76c.07-.15.17-.31.34-.27,1.28.33,2.6,0,3.9.26a21,21,0,0,0,3.88-.06,2.38,2.38,0,0,1,2,0,5.9,5.9,0,0,0,3.42.29,25.12,25.12,0,0,1,5.2-.24,4.3,4.3,0,0,1,1.29.14c.57.69,1.15,0,1.73,0a2.46,2.46,0,0,1,2.3,0,2.47,2.47,0,0,0,.67.1,40.78,40.78,0,0,0,5.73-.71,4.42,4.42,0,0,0,1.66,0c1.38.33,2.64-.32,4-.47.22,0,.45,0,.68,0,.73,1.19.88,1.22,2.07.26.43-.34.84-.71,1.24-1.08a1.11,1.11,0,0,1,.3-.17,1.55,1.55,0,0,1,1.15-.38c1.84,0,3.17-1.3,4.83-1.78.75-.72,1.93-.08,2.67-.82a1.29,1.29,0,0,0,1-.26c0-1,.58-1.57,1.42-2.09.65-.41,1.55-.75,1.47-1.88,0-.44,1.3-1.13,1.66-.87.84.61,1-.09,1.12-.58a6.18,6.18,0,0,0,.24-1.15,4.3,4.3,0,0,0,0-2.28,31.72,31.72,0,0,1,.76-5.32c.45-1.85-.15-3.61-.7-5.31a11.51,11.51,0,0,0-.48-1.88l-.21-.12a1.28,1.28,0,0,0,0-1.38,3.47,3.47,0,0,1-.65-1.32,2.76,2.76,0,0,0-1.65-2.81,2.12,2.12,0,0,1-.89-1c-.77-1.42-1.62-2.78-2.38-4.2l-.26-.44c-.14-.14-.33-.16-.49-.25a.67.67,0,0,0-.28-.06.83.83,0,0,1-.58,0c-.14-.22-.35-.42-.23-.72l0-.32c.06-.87-.66-1.08-1.21-1.41-.24-.13-.58-.09-.7-.42a2.23,2.23,0,0,0-.31-.64c-1-1-1.39-2.47-2.78-3.08l-.29-.17a.6.6,0,0,1-.41-.24,4.68,4.68,0,0,0-.43-.46,2.18,2.18,0,0,0-.49-.37c-.17-.22-.55-.07-.67-.36a2.14,2.14,0,0,0-.21-.43,2.1,2.1,0,0,0-.24-.41.65.65,0,0,0-.2-.05c-.27-.26-.69-.35-.83-.76l-.08-.13a5.62,5.62,0,0,0-.8-1l-.44-.25c-.47-.42-1.26-.47-1.46-1.22a1.72,1.72,0,0,0-1.18-.7,9.32,9.32,0,0,1-2.92-1.86l-.72,0a1.3,1.3,0,0,1-1-.27c-.27-.59-.86-.45-1.3-.48a1.79,1.79,0,0,1-1-.3c-.24-.14-.4-.4-.69-.46s-.75-.61-1.28-.54c-.19,0-.27-.19-.36-.33a4.75,4.75,0,0,0-.64-1.17c-.91-.38-2-.19-2.84-.76-.21-.13-.54-.26-.6-.41-.35-.89-.8-1-1.58-.45-.47.37-.78,0-1.06-.4a1.86,1.86,0,0,0-1.45-.78c-1-.07-2.08-.21-2.59-1.33l-.49-.22a3.49,3.49,0,0,1-1.6-.2c-.91-.17-1.79-.46-2.71-.6a2,2,0,0,1-1.2-.61,11,11,0,0,1-2.15-.31c-.25,0-.45-.24-.72-.22a9,9,0,0,0-1.37-.3c-1,0-1.7-.77-2.62-1-.36-.48-.87-.41-1.38-.36a12,12,0,0,0-2-.12c-.32,0-.63.11-1,.09a1.81,1.81,0,0,0-.68-.22s-.09,0-.09-.07c-.05-.51-.07-.53-.56-.29h-.48a21,21,0,0,1-6-.73c-.51-.18-1,0-1.57-.17-1.17.81-2.55.59-3.85.76-.38.08-.73.37-1.14.15-1.08-.25-2.3-.14-3-1.22,0-.13-.08-.26-.11-.38a.45.45,0,0,1,.23-.6c1.06-.41,1.29-1.85,2.54-2C1574.24,81,1574.29,80.75,1574.41,80.64Z" transform="translate(-107.87 -79.8)"/><path class="cls-2" d="M1500.54,210.6l.4-.5c-.12-.34.12-.38.36-.44.52-.16.78-.63,1.16-1,.6-.32.64-1.43,1.64-1.2l.73-.49a5,5,0,0,0-.24-.75c-.21-.27-.52-.47-.44-.91s-.35-.7-.52-.65c-1.29.37-1.17-.65-1.39-1.33-.36-1.17-.3-2.43-1.09-3.54-.57-.8-.16-1.93,0-2.91-.1-.32-.09-.7-.42-.93l0-1a1.86,1.86,0,0,1,0-1.19l.24-3.37c.06-.65-.61-1.22-.22-1.91a12.06,12.06,0,0,1,1.22-2.89c.42-1.12.52-2.47,2-2.84.89-.16,1.4-1.07,2.31-1.19l.3,0a1.06,1.06,0,0,1,.67,1.36,44.12,44.12,0,0,0-3.3,4.73c-.72,1.36-1.6,2.8-.53,4.6.55.93-.08,2.29.22,3.46a16.86,16.86,0,0,1,.22,2.14c.05.34-.18.9.53.81.06,0,.18.08.17.09-.59,1.91,1.65,2.09,2.09,3.4.25.74,1.29.88,1.82,1.47l.3-.09c.51-.15.93-.08,1.14.48a35.69,35.69,0,0,0,12.92,1.26.92.92,0,0,1,.13,1.39,2.78,2.78,0,0,1-1,1.12c-.19.63-.75,1-1,1.61-.06.1-.14.25-.24.25-2.7,0-5.39.44-8.09-.19a8.51,8.51,0,0,0-5.07,0,13.34,13.34,0,0,0-2.24,1.56c-1.73,1.06-2.66,2.31-1.61,4.37.16.31-.05.7-.05,1.06s0,1,.36,1.23c.76.48,1.34,1.32,2.1,1.62,1.06.42,1.9,1.15,2.88,1.65.47.24.91.58,1.5.37a2.92,2.92,0,0,0,2.21-.42c.68.23,1.77-.23,1.86,1,0,0,0,0,0,0a2.12,2.12,0,0,1,1.82-.67,27,27,0,0,1,3.92.14,1.74,1.74,0,0,0,1.06,0,13.31,13.31,0,0,1,3.94-.77,3.41,3.41,0,0,1,2.25.91,5,5,0,0,0,3.38,1.54c.66-.26,1.38-.41,1.72-1.16l.8-.77c.22-.2.34-.52.66-.6a.52.52,0,0,1,.55-.06,1.18,1.18,0,0,0,.74.28c3.1-.14,6.21.52,9.31-.11a12.46,12.46,0,0,1,5.32.44,5.39,5.39,0,0,0,2.82-.11,3.59,3.59,0,0,1,2.8.16l.32.08a9,9,0,0,0,2.14,0,5.12,5.12,0,0,1,1.94.23,6.5,6.5,0,0,0,3.58-.16,8,8,0,0,1,3.11-.43,9.05,9.05,0,0,1,1-.05,4.91,4.91,0,0,1,2.23.7c1.17.64,1.16.64,1.79-.52a.85.85,0,0,1,.41-.07,33.58,33.58,0,0,0,4.91.11,51.55,51.55,0,0,1,6.57.45,76.23,76.23,0,0,0,8,.09,13.57,13.57,0,0,1,1.91,0,4,4,0,0,0,1.42.11c3-.55,6-.08,8.94-.33.82-.07.86.55,1.18,1s.21.95.74,1.34c1.05.76,1,1-.22,1.59a2.77,2.77,0,0,1-1.45.19c-1.89.13-3.78-.15-5.67,0a27.44,27.44,0,0,1-2.87,0c-.34-.09-.52-.53-.93-.44-1.16.25-2.34,0-3.51.16a1.23,1.23,0,0,1-1,.15c-.31,0-.47.22-.7.33-1-.05-1.91-.92-3-.24a.49.49,0,0,1,0,.17,2.12,2.12,0,0,1-1.84.05l-.48,0c-.09.09-.17.09-.25,0l-.71-.45c-.25.17-.49.37-.73,0a2.7,2.7,0,0,0-1.49.38,3.32,3.32,0,0,0-1.92.17,1.29,1.29,0,0,1-1.38-.37l-.25-.09v.3a1.2,1.2,0,0,1-1.42.08,4.39,4.39,0,0,1-2.77-.18,5.71,5.71,0,0,0-1.55,0l-.08.08c-.28.38.57.76.08,1s-1-.11-1.42-.5a3.19,3.19,0,0,0-2.11-.09,3.87,3.87,0,0,1-1.76,0c-.62.36-1.13.77-1.74-.2-.42-.67-2-.17-2.67.7-.61.29-1.18.76-1.93.44-.35-.11-.71-.26-1.07-.34-.89-.19-.92-.59-.34-1.2.08-.11.14.15,0,0a.05.05,0,0,0-.07,0,1.34,1.34,0,0,1-1.73.67,2.65,2.65,0,0,0-1.65,0,1.68,1.68,0,0,1-.66.12,1.33,1.33,0,0,1-.41-.29c-1.43-.26-2.87.49-4.3-.06a4.33,4.33,0,0,0-.73-.4c-1.2.09-2.38.5-3.59.11-.48-.15-.87-.26-1.27.35-.27.42-1,.27-1.55,0,0-.34-.11-.52-.46-.27-.24.43-.79.12-1.07.46-.08.1-.15.1-.22,0a1.55,1.55,0,0,0,0-.23c-.07-.23.12-.53-.2-.69l-.26.13c-.17.23-.36.45-.7.37h-.24c-.36.07-.71.14-1-.23a22.13,22.13,0,0,1-7.08-.05,6.28,6.28,0,0,0-1.3,0,.55.55,0,0,1-.72.23l-.25.06a1,1,0,0,0-.55,0c-.7.17-1.39-.14-2.08-.06s-1.38.72-2.14.17l-.27-.19c-.42-.25-.93-.11-1.38-.3-.85-.67-1.53,0-2.26.28h0c-2.1.89-4.15.24-6.22-.19-.29-.13-.53,0-.79.12s-.32.35-.6.28-.84.19-1.22-.13a5.48,5.48,0,0,0-2.91.67c-1.45,1-1.47,1-1.18,2.42,0,.4-.1.85.24,1.19a11.8,11.8,0,0,1,.51,2.19,3.58,3.58,0,0,1-.49,2.85c-.06.27-.14.6.09.78s.33-.1.41-.28c.75-.21.78.41.64.75a4.33,4.33,0,0,0-.16,2.75.94.94,0,0,1-.47,1.08c-.58.22-1.51,0-1.3,1.15a2.46,2.46,0,0,0,.09.29c.43.75,1.24.92,1.94,1.26s1.78.14,2.59.56a10.14,10.14,0,0,0,2.4.06c.15-.15.31-.23.48,0,.57,0,1.09.36,1.68.24a6.54,6.54,0,0,1,1.29-.8,2.13,2.13,0,0,1,2.33.18l.7-.29c.22-.36.46-.38.72-.05h1.89c.29-.16.55,0,.82.05.69.58,1.63-.12,2.33.45.48,0,.91-.34,1.41-.2.27.28.68.29,1,.49l.24,0c.08-.08.19-.17.19-.28,0-.41-.13-1,.46-1s1.17,0,1.26.79h3.84a.71.71,0,0,1,.77-.25,2.49,2.49,0,0,0,1.81-.17c.06,0,.19-.14.27-.11,1.25.54,2.46,0,3.69-.1.66,0,1.41.37,1.83.32,1.74-.22,3.38.71,5.09.27a1.64,1.64,0,0,1,1,0,5.13,5.13,0,0,0,1.81.7c.91-.56,2,.11,2.89-.4.15-.2.3-.21.46,0,.4.87.92,1.15,1.77.47.66-.52,1.39.05,2.09,0,.29-.46.63-.83,1.26-.67a.5.5,0,0,0,.66,0l1.16.05a.79.79,0,0,1,.75.15c.43.31.71.08,1-.26.83-.42,1.56-.65,2.33.26a1.09,1.09,0,0,0,1.71-.09l.36-.18a1.89,1.89,0,0,1,1.35.3c.31.1.53.62,1,.22.26-.15.47-.49.84-.22.38.59,1,.24,1.5.38a19.13,19.13,0,0,1,2.56.73.48.48,0,0,0,.24,0c-.13.09,0-.14,0,0s-.18,0-.19-.08c-.09-.48-.08-.48.88-.58,1.92.08,3.88-.34,5.75.44.4,0,.8,0,1.2,0s.46.2.69.33c0,0-.06,0-.13-.09-.42-.29-.18-.5.07-.71a7.07,7.07,0,0,0,4.1-.17c1-.41,1.88-.58,2.65.45.33.45.93.09,1.4.13s.83-.27,1.28-.18a3.3,3.3,0,0,1,2.65,0c.64.38,1.27-.4,1.91,0,1.07.07,2.16.07,3.21.24s2-.43,3-.49c2.67-.17,5.34-.13,8-.17a2.79,2.79,0,0,0,1.63-.24c.07-.53.47-.57.87-.6a5.06,5.06,0,0,1,2.11.27,2.59,2.59,0,0,0,2,.15c.55-.22.86.32,1.21.63a16.31,16.31,0,0,0,5,0c.12.2.22.14.3,0,1.26-.41,2.51,0,3.76.05a69.21,69.21,0,0,0,8.76.19,15.66,15.66,0,0,1,2.36.2,3.62,3.62,0,0,1,1.46-.16l.69,0a4.64,4.64,0,0,1,1,.44l.49.15c.15-.11.28-.25.49-.23a1.19,1.19,0,0,1,.7.77v.21a2.84,2.84,0,0,1-3.12,1.26h-2.4c-.32.14-.74,0-1,.37-1.68.34-3.32-.35-5-.15a.6.6,0,0,1-1,0,31,31,0,0,0-6.67,0c-.67.06-1.32-.23-2,0a1.65,1.65,0,0,1-1.69,0c-1.34-.08-2.68-.15-4-.25a2.37,2.37,0,0,0-1.26.23,2.82,2.82,0,0,1-1,.28c-.61.19-1.11-.25-1.69-.28-.36-.1-.58.35-1,.26h-2.41a4.58,4.58,0,0,1-2.38-.09,2.72,2.72,0,0,0-.46-.1c-2.27,0-4.54-.05-6.8,0a3.82,3.82,0,0,0-.92.21,4.08,4.08,0,0,1-1.86-.28l-1.75-.42c-.45-.29-.81,0-1.21.16a5.4,5.4,0,0,0-2.62.06c-1.81.75-3.66.31-5.5.19a6,6,0,0,0-2.46,0,.26.26,0,0,1-.3.08c-3.32,1.22-6.76.5-10.15.69a28.4,28.4,0,0,0-4.88.22.73.73,0,0,1-.78.14,16.08,16.08,0,0,1-4-1l-2.17-.05c-.09.1-.17.11-.25,0l-1.2,0a4.31,4.31,0,0,1-2.88,0,3.88,3.88,0,0,0-1.6-.42c-.7-.09-1.59.25-1.9-.8,0,0-.22,0-.34,0-.31.11-.59.34-1,.29,0,.51-.29.61-.78.85-1.74.86-3.46.53-5.22.43a35.74,35.74,0,0,0-5.76-.07,1.48,1.48,0,0,1-1.2,0,12.25,12.25,0,0,0-3.36-.26c-.8-.18-1.59.35-2.39,0a35.11,35.11,0,0,0-6.72.21c-.08.11-.14.1-.19,0a5.65,5.65,0,0,0-2.68,0c-.5.24-.66-.27-1-.43l-4.56.27c-.17.15-.31.1-.42-.08-.33-.43-.66-.4-1,0h0a8.51,8.51,0,0,0-3.37.25,9.65,9.65,0,0,1-4.59-.63c-.3.23-.67,0-1,.16l-2.37-.7c-.4.31-.74.15-1.09-.12a2.86,2.86,0,0,0-1.15-.8c-.53-.14-.48-.9-.64-1.41a2.51,2.51,0,0,1,.78-3c-.32-.41-.78-.78-.49-1.41.09-1.07.85-1.89,1.13-2.89l.22-1.69a4,4,0,0,1,.28-1.67c-.76-.39-.41-1.1-.49-1.68a7.81,7.81,0,0,1,.27-4.31l.18-.72a5,5,0,0,0-1.4-2.54c-.45-.34-.42-1.07-.71-1.58-.12-.29-.31,0-.47-.07-.58-.55-1.62-.59-1.79-1.62a.85.85,0,0,1,0-.43c-.31-1.28-1.24-2.41-.92-3.84-.62-1.18.16-2.24.29-3.35a3.23,3.23,0,0,0,.1-1.92C1500.37,210.71,1500.41,210.63,1500.54,210.6Z" transform="translate(-107.87 -79.8)"/><path class="cls-2" d="M1607.05,206.54a2.45,2.45,0,0,1,2.48-.51,7.45,7.45,0,0,0,1.77,0,2.27,2.27,0,0,0,2.21-.76c.12-.23.32-.21.53-.19a3.35,3.35,0,0,0,3.54.15,2.13,2.13,0,0,1,1.52-.25,1.79,1.79,0,0,1,.77.94c.15.62-.51.77-.72,1.18s-.71.69-.38,1.3,0,.88-.51,1.07c-1.41-.35-2.64.39-4,.61a72.56,72.56,0,0,0-9.09,0,6.6,6.6,0,0,1-1.78-.16,23.81,23.81,0,0,0-6.9-.25c-2.66.23-5.34.06-8,.06a7.18,7.18,0,0,0-2.47.32,5.14,5.14,0,0,1-2.83.05,4.88,4.88,0,0,0-2.93.21,1.58,1.58,0,0,1-.38,0,4.85,4.85,0,0,0-1.86-.15,5.77,5.77,0,0,1-.72,0c-5.8.13-11.57-.34-17.36-.56a3.6,3.6,0,0,0-1.31.1c-2.24.73-4.58.52-6.87.72-.93.08-1.83-.22-2.75-.22l-1.61,0-.63,0c-.29,0-.58-.06-.7-.4a5.32,5.32,0,0,0-.7-2.35,1.24,1.24,0,0,1,.46-1.89,7.38,7.38,0,0,1,2.25,0c.62.22.67-.41,1-.67s.37-.35.56.2c.1.29.29.22.45.21,2.34-.23,4.7.34,7-.2,1.6-.38,3.18.15,4.76.31a16.66,16.66,0,0,0,3.46-.26c3.4-.4,6.75-1.12,10.28-.6a51.53,51.53,0,0,0,6.86.47c2.48,0,5-.05,7.47,0,2.15.08,4.27-.52,6.45-.22,1.06.14,1.79,1.14,2.94.9a4.69,4.69,0,0,1,1.18,0c.22-.11.54-.17.64,0,.35.65.88.43,1.39.37a10.87,10.87,0,0,0,2.28-.11c.37-.2.7-.29,1,.1A1.39,1.39,0,0,0,1607.05,206.54Z" transform="translate(-107.87 -79.8)"/><path class="cls-2" d="M1643.76,163.56v-.48c.27-.7.75-.42,1.1-.17a3,3,0,0,0,1.36.66c.73.1.5.94,1,1.3-.48-.75-.39-1,.62-1.43.3.12.57.28.86.41a5.21,5.21,0,0,1,3.24,5.46c-.09,1.42-.24,2.83-.2,4.27a5.43,5.43,0,0,1-1.32,3.5,1.27,1.27,0,0,1-1.57.43l-1.44.67-.17.23c-.18.16-.45.12-.64.25l-.14,0-1.27.67c0,.13-.08.15-.17.07l-1.47.84a3.83,3.83,0,0,1-3.41.9,6.88,6.88,0,0,0-3,.39l-.7,0c-.36-.16-.73.13-1.09,0a10.29,10.29,0,0,0-1.57-.14c-.46-.77-1-.11-1.44,0-2.09.84-4.16.18-6.23-.06a5,5,0,0,0-1.93-.16,5.52,5.52,0,0,1-4.35-.09,2.49,2.49,0,0,0-2.45.32c-.41.27-.81.63-1.37.41l-1.91-.18c-.22.09-.45.23-.61-.08l-4.19-.15c-.34.16-.67.29-.94-.11l-.49-.12c-.66.52-1-.13-1.48-.37l-.69.3c0,.17-.13.19-.23,0l-.78.18c-.94.46-1.88.1-2.82,0s-1.76-.31-2.64,0c-.33.18-.59.18-.69-.26-.75-.53-1.47-.09-2.2.05a4,4,0,0,1-3.15.37,1,1,0,0,0-.76,0,1.16,1.16,0,0,1-.88-.25,8.44,8.44,0,0,0-2.47-2.81.46.46,0,0,1-.06-.79,4.4,4.4,0,0,1,2.41-.55c2.28.12,4.43-.86,6.7-.85.28,0,.55,0,.65.34.25.69.53.7,1.26.41a5.75,5.75,0,0,1,3.49-.53,13.63,13.63,0,0,0,5.25,0,7.89,7.89,0,0,1,3.77.31c.38.13.82.35,1.16.18,1.78-.88,3.55,0,5.31,0a18,18,0,0,0,3.74-.2,1.89,1.89,0,0,0,.8.23,1.69,1.69,0,0,0,1.08-.37,2,2,0,0,1,1.79.67c.24.23.41.53.8.29a2.34,2.34,0,0,1,.86-.7,1.68,1.68,0,0,1,1.46.23,2,2,0,0,0,1.75.26c.34,0,.42.27.58.47s.5.48.85.14a5.35,5.35,0,0,1,.87-.63c1.43-.1,2.88-.36,4.13.64a1.33,1.33,0,0,1,.17.16s0,0,0,0,0,0,0,0-.09-.08-.1-.14c0-.76.41-1,1.08-.88,1.2.24,2.37-.27,3.57-.1a.65.65,0,0,0,.56-.15c.88-1,2.15-1.31,3.25-1.92a2.07,2.07,0,0,0,1-2,25.17,25.17,0,0,0-.33-3.68c-.25-1.61-1.64-2.46-2.76-3.46-.28-.25-.78-.3-.75-.83A2,2,0,0,1,1643.76,163.56Z" transform="translate(-107.87 -79.8)"/><path class="cls-2" d="M1507.22,183l-1-1.19a.67.67,0,0,0,.29-.83,1,1,0,0,0-1.49-.38c-1.12-.3-1.71-1.34-2.65-1.89-.1-.18-.24-.37,0-.54h.69c.12-.12.2-.34.44-.19l.25.24c.19.79,1.1.61,1.49,1.12.58,0,1.26.51,1.57-.53.11-.39.62-.11.94,0a5.16,5.16,0,0,0,2.59.1c2-.09,3.82-1,5.87-.55a21.69,21.69,0,0,0,4.56.05c2-.05,4,.44,6.06-.17.46-.13,1.06.32,1.59.32s1.36.63,1.38-.58c0-.06.22-.17.27-.15,1.1.64,2.29-.13,3.41.23.07,0,.18,0,.22,0a1.83,1.83,0,0,0,2.27.28c.19-.12.5-.25.4-.51s-.43-.05-.65-.11-.13-.19,0-.29c1-.89,1.57.23,2.35.44,0,.52-.69.46-.68.93a.69.69,0,0,0,.68,0c.69-.34,1.31-.89,2.11-.06.25.26.88.05,1.31-.28a2.83,2.83,0,0,1,2.61-.45c1.15.32,2.35,0,3.51.32.31.09.18-.54.57-.46a.85.85,0,0,1,1.07.22c.77-.48,1.54-.06,2.32,0a24.71,24.71,0,0,0,4.63-.09,17.38,17.38,0,0,1,5.29.09,3.15,3.15,0,0,0,1.72-.38c.22.41.56.23.87.2a6.15,6.15,0,0,0,1,.56c.54.15,1.2.28.53,1.07-.13.14.12.31.2.46.47,1,.29,1.27-.84,1.51a21.81,21.81,0,0,1-4.57,0c-.32-.18-.63-.42-1-.19-.3,0-.61,0-.91,0-.5,0-.75.2-.7.71-1.38.89-2.69.35-4-.23-.09,0-.22-.12-.24-.21-.31-1-.43-1-1.37-.37a3.64,3.64,0,0,1-.62.32c-.88-.19-1.86.17-2.66-.45-1.08,0-2,.61-3.13.62s-2.47-.3-3.69-.41c-.74-.07-.49.55-.85.52-.17,0-.2-.18-.33-.24l-5.58.17a2.88,2.88,0,0,1-1.06-.06c-2.23-.81-4.3-.07-6.42.52a6.13,6.13,0,0,1-2.84.21c-1.4-.3-2.85-.18-4.2-.69a1.42,1.42,0,0,0-.7-.1,39.84,39.84,0,0,1-6.08.1,1.16,1.16,0,0,0-.68.15c-1.48,1.22-3.38.92-5.05,1.43-.72.23-.37-.33-.43-.59a.27.27,0,0,0,.13-.24s-.06,0-.06,0a.69.69,0,0,0,0,.08H1508Z" transform="translate(-107.87 -79.8)"/><path class="cls-2" d="M1555.26,195.3c-.76.44-1.29,1.48-2.49.78-.33-.19-.39.46-.4.76,0,.68-.2,1.08-1,.76-.32-.17-.65-.37-.92.09-.12.15-.28.44-.37.42-1.31-.3-2.45.72-3.74.47-.35-.16-.74,0-1.09-.18a1,1,0,0,1-.36-.3c0-1-1.27-.61-1.46-1.38-.15-.12-.32-.21-.34-.4,0,0,0,0,0,0,.08.34-.16.46-.38.59s-.7.27-.74,0c-.21-1.53-1.71-1.23-2.54-1.85-.42-.32-.53-.57-.32-1-.2-.4-.65,0-.89-.29-.72-.62-1.6-.38-2.41-.48-.25-.34-.65-.34-1-.45a.72.72,0,0,1-.75,0,.41.41,0,0,0-.54,0c-.21.08-.33.42-.63.22a3.6,3.6,0,0,0-.37-.22,14.69,14.69,0,0,0-2.23,2.87c-.38.8-1,.26-1.43.71-.89,1-2.24,1-3.43,1.32a1,1,0,0,1-1.14-.37,2.21,2.21,0,0,1-.48-1.91,1.28,1.28,0,0,1,1.2-.62,2.79,2.79,0,0,0,2.47-1.41,4.16,4.16,0,0,1,2.24-1.62c1.23-.3,2-1.22,3.21-1.62a6.41,6.41,0,0,1,4.41-.29,2.19,2.19,0,0,1,1.19.73c.12.16.33.5.57.27,1.38-1.37,1.83.37,2.58.83,1.38.84,2.41,2.21,4.09,2.59.15,0,.28.15.43,0,.87-.53,1,0,1.16.72s.64.64,1.17.5c.82-.22,1.91.08,2.15-1.19a.35.35,0,0,1,.23-.2c1.85.18,3-1.26,4.48-1.94,0-.49.64-.6.74-1.05L1556,191l.38-.13a2.18,2.18,0,0,1,1.81,1.52,1.1,1.1,0,0,1-.09.62c-.09.27-.72,0-.52.58v.48l.16.11-.18.05-1.13.08a2.88,2.88,0,0,0-.33.28,1,1,0,0,0-.49.29A1.11,1.11,0,0,0,1555.26,195.3Z" transform="translate(-107.87 -79.8)"/><path class="cls-2" d="M1617.36,225.7l-1.67,0c-.14.16-.27.22-.4,0a8.81,8.81,0,0,0-2.51-.17c-.81-.39-1.68.07-2.5-.15-.2-1,.56-1.52,1.14-2.13a7.8,7.8,0,0,0,1.31-1.06c.13-.23.28-.44.6-.4,1.51-.06,3,.53,4.52.12l.48-.21c.46-.4,1-.11,1.43-.08h.72c.41-.65,1.09,0,1.56-.31a.72.72,0,0,1,.76,0c1.51,1.07,3.29.4,4.9.75.61.14,1-.62,1.64-.51l.38-.07c1.2,0,2.47-.37,3.46.69l.71.17a.92.92,0,0,1,.56-.24,2.71,2.71,0,0,1,1.59.15,7.4,7.4,0,0,0,4.65-.19,1.83,1.83,0,0,1,.66-.11,1.28,1.28,0,0,1,1-.13l.27-.11c.11-.24.27-.22.46-.11a9.81,9.81,0,0,0,2.81-.79,3.36,3.36,0,0,1,3.18.58c0,.4,0,.82-.39,1-1.76.68-3.07,2.33-5.12,2.41-1.62.74-3.35.41-5,.49a6.73,6.73,0,0,1-3.85-.05h-.48a.28.28,0,0,1-.48,0l-1,0c-.54.2-1.14,0-1.67.38-.33.21-.54-.13-.73-.36H1625c-.63,0-1.27.38-1.88-.06a2.08,2.08,0,0,0-1.71.07c-.09.11-.17.1-.25,0l-1.2.49c-.76-.14-1.52-.53-2.24.11C1617.67,225.94,1617.46,225.83,1617.36,225.7Z" transform="translate(-107.87 -79.8)"/><path class="cls-2" d="M1565.06,181.55c.72-1.18.47-1.68-1-2,.16-.36.6-.28.87-.48l-1.06-.6a.66.66,0,0,1,.11-.49,2.09,2.09,0,0,1,.57-.4,1.82,1.82,0,0,1,.65-.2,9.44,9.44,0,0,0,1-.14,41,41,0,0,1,12.26-.3,5,5,0,0,0,1.76-.14,6.28,6.28,0,0,1,4.19.14,3.45,3.45,0,0,0,1.48.41l.33,0a7,7,0,0,0,2-.49.43.43,0,0,1,.33.08c.22.25.69.33.54.82-.22.28-.13.49.14.69.56.44,1,1.05,1.56,1.47a1,1,0,0,1,.42,1.41,16.88,16.88,0,0,0-5.74.64.76.76,0,0,1-1-.29c-.1-.17-.24-.45-.39-.24-.8,1.18-1.17,0-1.61-.32a7.3,7.3,0,0,0-4-.54,8,8,0,0,1-2.58,0c-.55-.05-1.09-.27-1.5.34-.18.27-.52.2-.78.14a3.23,3.23,0,0,0-2.3.29,2.42,2.42,0,0,1-2.06-.19c-.72-.31-1.46-.18-2.12-.48a.57.57,0,0,0-.08-.23l-.11-.05s-.11,0-.11,0c-.67.29-.36,1.09-.8,1.5S1565.35,181.78,1565.06,181.55Z" transform="translate(-107.87 -79.8)"/><path class="cls-2" d="M1581.14,196.51c-1,.05-1.61,1-2.71,1.09-2,.17-2,.32-2.62-1.64-.09-.38-.27-.79.31-1a4.73,4.73,0,0,0,3.89-1.9,7.81,7.81,0,0,1,2.5-1.61,8.05,8.05,0,0,0,2.86-1.71c.35-.44.72.25,1-.09s.68,0,.95-.24a5.06,5.06,0,0,1,3.34,1.24c.13.14.3.36.49.2,1.52-1.28,1.89.53,2.74,1,1.42.79,2.46,2.2,4.15,2.55.17,0,.38-.08.57-.13.32.14.47.33.12.6h.06c.43.41.18,1.11.75,1.53.27.19.11,1.1-.31,1-.75-.1-.6.74-1.09.79l-.49-.25a.73.73,0,0,1-.73,0c-.24-.94-1.07-1-1.79-1.07a1.77,1.77,0,0,0-1,.11c-.41-.05-.64-.39-.94-.62a1.14,1.14,0,0,1-.34-.54c-.39-.35-.71-.8-1.28-.9s-.59-.47-.44-.92c-.18-.46-.69,0-.92-.34-.46-.25-.9-1.07-1.39,0a3.56,3.56,0,0,1-1-.64c-.32-.08-.54-.5-.95-.29a.63.63,0,0,1-.72,0c-.34-.21-.46.19-.69.24a2.36,2.36,0,0,0-2.22,1.49,15,15,0,0,1-1.38,1.84C1581.6,196.23,1581.38,196.42,1581.14,196.51Z" transform="translate(-107.87 -79.8)"/><path class="cls-2" d="M1647.59,200.43l.51-.33a.71.71,0,0,1,1.05,0c.32.24.15.62,0,.91-.91,1.52-1.28,3.54-3.53,3.82-1,0-.72,1-1.2,1.47-.21.46-.31,1-.94,1.12-1.26.16-2.49.52-3.77.58l-6.24,1.19c-.15.2-.31.13-.48,0l-1,0a14.85,14.85,0,0,0-3.72.53,2.91,2.91,0,0,1-2-.35c-.16-.16-.34-.3-.33-.55a.66.66,0,0,1,.42-.59c.23-.2.58-.25.74-.55a1.09,1.09,0,0,1,.19-1.52c.28-.24.5-.56.92-.58a3.64,3.64,0,0,0,2.54-.1,1.12,1.12,0,0,1,1.15,0,3.77,3.77,0,0,0,1.55.47h.25c.29-.11.53-.39.89-.23a6.94,6.94,0,0,0,1.63-.33,17.34,17.34,0,0,0,1.89-.32,2,2,0,0,0,1-.26c.29-.12.6-.22.89-.35,1-.06,1.72-.8,2.63-1.08l.74-.48c.11-.93.86-.62,1.4-.73a1.6,1.6,0,0,0,1.18-1.21A1.58,1.58,0,0,1,1647.59,200.43Z" transform="translate(-107.87 -79.8)"/><path class="cls-2" d="M1597.93,195.23l.72-.9c.71-.41.67.19.74.58.13.75.47,1,1.17.58a5.89,5.89,0,0,1,2.13-1.22l1.47-.24c.2-.6.66-.82,1.21-1.07a3.1,3.1,0,0,0,1.73-1.5,1.4,1.4,0,0,1,1.63-.84h.46c.29,0,.64-.14.79.28,0,.19.09.42-.11.53-.65.35-.18.71,0,1.07a3.52,3.52,0,0,1,.37,1.09c-.07.32-.34.47-.57.65l-.67-.2c-.26.23-.64.32-.82.66a.61.61,0,0,1-.38.21,1,1,0,0,0-.49.32l-2.16,1.71a.79.79,0,0,0-.67.45.51.51,0,0,1-.47.43c-.29-.19-.58.28-.86,0l-.13-.06c-.17,0-.36,0-.49.11s-.06.09-.08.08c-1.3-.19-2.44.94-3.77.46a.37.37,0,0,1-.51,0l0-.08-.41-1.73c.44-.14.64.41,1.12.23-.11-.64,0-1.41-1-1.57Z" transform="translate(-107.87 -79.8)"/><path class="cls-2" d="M1557.82,192.35a3.82,3.82,0,0,1-1.43-1.5c.81-.37,1.4-1.33,2.5-.92,0,0,.16,0,.19-.1.9-1.69,2.14-1.43,3.56-.72a3.79,3.79,0,0,0,2.31.14,1.2,1.2,0,0,1,1.25.46c.1.34.27.47.61.26s.42-.24.62,0c.11.44.49.59.92.82l-.89.35c-.32.25-.4,0-.52-.23a.76.76,0,0,0-.68.41c-.36,1-.9.54-1.49.2.23-.42.89-.7.44-1.44-.52.77-1.9-.06-2.11,1.28a.26.26,0,0,1-.21.26c-.5-.08-.91-.67-1.49-.24-.09.26-.26.49-.36.75l0,.28c-.33.35-.6.44-.73-.13,0,0,0,0,0,0,0,.3.41.69-.24.72a1.42,1.42,0,0,1-.86-.05c-.55-.18-.32.15-.12.37s0,.45-.26.5a.73.73,0,0,1-.49-.54C1557.9,193.11,1558.37,192.48,1557.82,192.35Z" transform="translate(-107.87 -79.8)"/><path class="cls-2" d="M1609.66,191.13l-.47-.5c.25-.36.44-.79,1-.89h0c.53.31,1,.38,1.32-.29a4.77,4.77,0,0,1,.88-.92c.39-.52.76-.5,1.12,0,.55.06.88.71,1.51.57,1-.55,2-.19,3-.33a2.73,2.73,0,0,0,1.53,1.07,1.24,1.24,0,0,1,1,.82c-.2.37-.61.33-.93.47a.16.16,0,0,1-.27,0,.53.53,0,0,0-.88.15c-.56,1.18-1.15.43-1.74.09.1-.26.61-.31.39-.72-.08-.15-.27-.09-.41,0-1.05-.52-1.27.2-1.45,1-.07.1-.14.1-.21,0-.79-.43-1.49-.49-1.86.53-.74.1-.27-.55-.49-.77s-.25-.57-.59-.43-.1.41-.13.63c-.08.52.89,1.08-.07,1.55-.31.11-.64,0-.95,0a1.13,1.13,0,0,1-.63-.07c-.37-.49-.18-1.16-.55-1.65A1.17,1.17,0,0,1,1609.66,191.13Z" transform="translate(-107.87 -79.8)"/><path class="cls-2" d="M1605.35,222.54h.51c.49-.1.59-.61.91-.88,1,0,1.72.66,2.56,1,.63.33.71.76.35,1.38s-.22,1.4-1,1.67a1.28,1.28,0,0,1-.34.07,2.19,2.19,0,0,0-1.13-.19,4.14,4.14,0,0,0-.38-.35l-1.18,0c.54-1.36-.78-1.39-1.41-2,.26-.21.64-.32.67-.72A.28.28,0,0,1,1605.35,222.54Z" transform="translate(-107.87 -79.8)"/><path class="cls-2" d="M1602.23,206.56c-1.45.54-1.45.54-1.73-.8.5-.43,1.38.12,1.72-.68-.06-.07-.08-.13,0-.18s0-.09.07-.09c1.66-.19,3.27.54,4.94.26a7.12,7.12,0,0,0,1.52-.2c.19.13.19.27,0,.4-.69.15-1.39.29-2.08.46-.51.11-.23.34,0,.54-.55.84-1.11.08-1.66,0a4.61,4.61,0,0,0-2-.07c-.22.11-.52,0-.7.21C1602.22,206.47,1602.23,206.52,1602.23,206.56Z" transform="translate(-107.87 -79.8)"/><path class="cls-2" d="M1521.63,207.23a.89.89,0,0,0,.71-.73c.05-.61.49-.89,1-1.14a1,1,0,0,1,.23-.05.82.82,0,0,1,.57-.12c1.17,0,1.09,0,.73,1.05a6.17,6.17,0,0,1-2.59,2.93c-.31.23-.6.43-1,.19a.9.9,0,0,1-.33-1C1521,207.89,1521.07,207.4,1521.63,207.23Z" transform="translate(-107.87 -79.8)"/><path class="cls-2" d="M1521.63,207.23a4.15,4.15,0,0,0-.32.63c-.12.35-.21.75.2.94s.57-.17.73-.44a9.41,9.41,0,0,1,1.71-2c.25-.24.7-.44.55-.83s-.64-.19-1-.26l.25-.23,1.69,0c.5-.16,1-.43.94.51-.28.87-1.17,1.09-1.75,1.65a5.63,5.63,0,0,0-1.78,2.42,1,1,0,0,1-.58.17,2.57,2.57,0,0,1-1.29,0c-.36-.06-.56-.22-.35-.62C1520.85,208.44,1520.54,207.48,1521.63,207.23Z" transform="translate(-107.87 -79.8)"/><path class="cls-2" d="M1568.2,179.88c-.08.63-.61.63-1,.75a1,1,0,0,0-.47.85c0,.42-.27.5-.63.34-.26-1.1,0-1.77.89-1.94a1.05,1.05,0,0,1,1-.21Z" transform="translate(-107.87 -79.8)"/><path class="cls-2" d="M1545.85,205.55c-.09.69.35,1.2.55,1.79a3.22,3.22,0,0,1,0,2,.3.3,0,0,1-.31.22c-.24-.06-.29-.26-.32-.47a4,4,0,0,0-1.32-3c-.29-.25-.61-.56-.23-1l0-.1C1544.81,204.94,1545.28,205.41,1545.85,205.55Z" transform="translate(-107.87 -79.8)"/><path class="cls-2" d="M1591.21,181.3c-.38-1.42-1.89-2-2.39-3.38.1-.07.17,0,.23.07.66.62,1.33,1.23,2,1.86a1.5,1.5,0,0,1,.42,1.42Z" transform="translate(-107.87 -79.8)"/><path class="cls-2" d="M1595.77,225.18l-.72.07c-.36,0-.83-.14-1,0-.82.63-1.56.2-2.32,0-.25.08-.51.2-.72-.08A12,12,0,0,1,1595.77,225.18Z" transform="translate(-107.87 -79.8)"/><path class="cls-2" d="M1607.29,195.24l.26-.49c.11-.2.21-.4.45-.48s.57-.51,1-.22A1.48,1.48,0,0,1,1607.29,195.24Z" transform="translate(-107.87 -79.8)"/><path class="cls-2" d="M1508.57,203.88a.5.5,0,0,1-.13-.19c.26-.51-.13-.89-.34-1.45a4.27,4.27,0,0,1,1.56,1.14C1509.57,204.13,1508.87,203.58,1508.57,203.88Z" transform="translate(-107.87 -79.8)"/><path class="cls-2" d="M1555.26,195.3l.24-.56a.68.68,0,0,1,.41-.46h.53C1556.72,195.42,1555.66,195,1555.26,195.3Z" transform="translate(-107.87 -79.8)"/><path class="cls-2" d="M1604.9,206c.53.29,1,.61,1.67.26l.48.27a3,3,0,0,1-2.18,0C1604.69,206.31,1604.7,206.16,1604.9,206Z" transform="translate(-107.87 -79.8)"/><path class="cls-2" d="M1567.48,192.69c.38-.34.62-.67,1-.33a.3.3,0,0,1,0,.42C1568.12,193.22,1567.86,192.82,1567.48,192.69Z" transform="translate(-107.87 -79.8)"/><path class="cls-2" d="M1549,182.27c.25-.83.65-.83,1.18-.24A1.64,1.64,0,0,1,1549,182.27Z" transform="translate(-107.87 -79.8)"/><path class="cls-2" d="M1559.16,181.58a.6.6,0,0,0,.31-.47,1.36,1.36,0,0,1,1,.43Z" transform="translate(-107.87 -79.8)"/><path class="cls-2" d="M1620.74,192.35c-.11.71-.52.62-1,.42.21-.59.58-.63,1-.41Z" transform="translate(-107.87 -79.8)"/><path class="cls-2" d="M1644.72,207l-1.44-.23a1.92,1.92,0,0,1,1.11-.48l.34.46C1644.89,206.8,1644.89,206.89,1644.72,207Z" transform="translate(-107.87 -79.8)"/><path class="cls-2" d="M1555.71,226.44c-.34.36-.77.21-1.17.21-.38-.55.11-.54.41-.66C1555.2,226.15,1555.74,225.82,1555.71,226.44Z" transform="translate(-107.87 -79.8)"/><path class="cls-2" d="M1555.71,226.44l-.8-.3a.31.31,0,0,1-.19-.21l.56-.18,1.33.61Z" transform="translate(-107.87 -79.8)"/><path class="cls-2" d="M1523.3,205.36l-1,1.14c-.15-.51.23-.8.46-1.16Z" transform="translate(-107.87 -79.8)"/><path class="cls-2" d="M1556.14,191.22c-.14.43-.23.89-.74,1.05C1555.08,191.52,1555.7,191.44,1556.14,191.22Z" transform="translate(-107.87 -79.8)"/><path class="cls-2" d="M1610.67,193.77a1.42,1.42,0,0,1,0-.2c-.11-.24-.27-.49.2-.47.08.47.37.27.62.19-.23.25.09.76-.39.85C1611,194.15,1610.8,193.9,1610.67,193.77Z" transform="translate(-107.87 -79.8)"/><path class="cls-2" d="M1621.92,203.84c.19,0,.39,0,.49.24s0,.23-.13.22c-.33,0-.73.07-.82-.42Z" transform="translate(-107.87 -79.8)"/><path class="cls-2" d="M1542.72,197c.14-.34.17-.75.49-1h0l.24.77C1543.18,196.72,1543.05,197.16,1542.72,197Z" transform="translate(-107.87 -79.8)"/><path class="cls-2" d="M1641.06,221.66c-.34.27-.77.19-1.16.24C1640.14,221.11,1640.67,221.72,1641.06,221.66Z" transform="translate(-107.87 -79.8)"/><path class="cls-2" d="M1566.94,190.93l.52.23c0,.22.16.55-.22.52S1567.09,191.16,1566.94,190.93Z" transform="translate(-107.87 -79.8)"/><path class="cls-2" d="M1522.83,225.7c0,.45-.34.46-.76.37.14-.41.47-.34.75-.37Z" transform="translate(-107.87 -79.8)"/><path class="cls-2" d="M1562.89,191.64l.21-.26c.06.23.46.2.39.48a.4.4,0,0,1-.34.21C1562.9,192.06,1562.92,191.82,1562.89,191.64Z" transform="translate(-107.87 -79.8)"/><path class="cls-2" d="M1650.84,220.42c-.87-.22-.22-.6-.1-.93.27-.13.32.09.41.26C1651.08,220,1651.16,220.29,1650.84,220.42Z" transform="translate(-107.87 -79.8)"/><path class="cls-2" d="M1538.23,193.77c.33,0,.78-.38.89.29C1538.9,193.73,1538.28,194.6,1538.23,193.77Z" transform="translate(-107.87 -79.8)"/><path class="cls-2" d="M1612.62,191.39l.49.77c-.06.14-.17.35-.31.26C1612.38,192.16,1612.66,191.74,1612.62,191.39Z" transform="translate(-107.87 -79.8)"/><path class="cls-2" d="M1558.78,193.85l.26-.5a.46.46,0,0,1,.06.75C1558.91,194.31,1558.83,194,1558.78,193.85Z" transform="translate(-107.87 -79.8)"/><path class="cls-2" d="M1590.25,193.79a.82.82,0,0,1,.92.34C1590.89,193.92,1590.31,194.57,1590.25,193.79Z" transform="translate(-107.87 -79.8)"/><path class="cls-2" d="M1649.52,198.81v-.92l.48.21h0C1650,198.46,1650,198.82,1649.52,198.81Z" transform="translate(-107.87 -79.8)"/><path class="cls-2" d="M1635.59,204.62l-.21-.27.49-.23c.2.21.69,0,.69.5a.86.86,0,0,0-.22,0A.53.53,0,0,1,1635.59,204.62Z" transform="translate(-107.87 -79.8)"/><path class="cls-2" d="M1626.5,221.58l-1.19,0a.55.55,0,0,1,0-.22h0l1-.2C1626.44,221.27,1626.58,221.36,1626.5,221.58Z" transform="translate(-107.87 -79.8)"/><path class="cls-2" d="M1634.4,221.8l.41.18-.32.33-.6,0Z" transform="translate(-107.87 -79.8)"/><path class="cls-2" d="M1523.52,225.7a1.58,1.58,0,0,1,1-.2v.37C1524.17,225.89,1523.81,226,1523.52,225.7Z" transform="translate(-107.87 -79.8)"/><path class="cls-2" d="M1608.7,205.27v-.4c.23,0,.59,0,.57.27S1608.91,205.27,1608.7,205.27Z" transform="translate(-107.87 -79.8)"/><path class="cls-2" d="M1614,205.15l0-.31,1.38,0c0,.07,0,.13,0,.19C1615,205.85,1614.48,205.36,1614,205.15Z" transform="translate(-107.87 -79.8)"/><path class="cls-2" d="M1646.2,244.2l-.06.42c-.18,0-.4.14-.5-.09s.24-.36.28-.59C1646.19,243.85,1646.26,244,1646.2,244.2Z" transform="translate(-107.87 -79.8)"/><path class="cls-2" d="M1646.15,230.77c-.06.46.25,1-.19,1.39C1645.89,231.68,1645.74,231.19,1646.15,230.77Z" transform="translate(-107.87 -79.8)"/><path class="cls-2" d="M1561,192.15a.73.73,0,0,1,.36-.75C1561.41,191.71,1561.42,192,1561,192.15Z" transform="translate(-107.87 -79.8)"/><path class="cls-2" d="M1619.27,191.15h.27c0,.2,0,.56-.28.49S1619.15,191.32,1619.27,191.15Z" transform="translate(-107.87 -79.8)"/><path class="cls-2" d="M1545.38,198.12l0,.7c.07.06.08.11,0,.16a.12.12,0,0,1-.09.06c-.37-.2-.4-.58-.45-.94Z" transform="translate(-107.87 -79.8)"/><path class="cls-2" d="M1541,181.58l.33.24-.13.4c-.14-.06-.32-.09-.4-.19S1540.94,181.75,1541,181.58Z" transform="translate(-107.87 -79.8)"/><path class="cls-2" d="M1615,191.63h.21l.34.08c0,.06-.07.15-.12.17C1615.16,192,1615,191.85,1615,191.63Z" transform="translate(-107.87 -79.8)"/><path class="cls-2" d="M1560,243.49c0-.18-.22-.36,0-.55l.25.06C1560.25,243.2,1560.48,243.51,1560,243.49Z" transform="translate(-107.87 -79.8)"/><path class="cls-2" d="M1620.75,191.64l.44-.21a1.18,1.18,0,0,1-.45.92h0Z" transform="translate(-107.87 -79.8)"/><path class="cls-2" d="M1626.5,221.58l-.22-.39.9.2C1627,221.75,1626.74,221.55,1626.5,221.58Z" transform="translate(-107.87 -79.8)"/><path class="cls-2" d="M1597,198.42c.63-.13.33.37.41.61Z" transform="translate(-107.87 -79.8)"/><path class="cls-2" d="M1648.14,185.42c.3-.13.44.13.63.26C1648.36,186.08,1648.22,185.82,1648.14,185.42Z" transform="translate(-107.87 -79.8)"/><path class="cls-2" d="M1533.37,192.6l.23.46c-.24,0-.46.41-.7,0Z" transform="translate(-107.87 -79.8)"/><path class="cls-2" d="M1644.72,207v-.25l.93.33c.09,0,.12.07.1.11s0,.06-.08.06A1.69,1.69,0,0,1,1644.72,207Z" transform="translate(-107.87 -79.8)"/><path class="cls-2" d="M1645.68,207.21a.88.88,0,0,1,0-.17l1,.24a.75.75,0,0,0,0,.15l-.22.11A1,1,0,0,1,1645.68,207.21Z" transform="translate(-107.87 -79.8)"/><path class="cls-2" d="M1575.64,243.71a2.06,2.06,0,0,1-1.22-.22C1574.82,243.58,1575.29,243.32,1575.64,243.71Z" transform="translate(-107.87 -79.8)"/><path class="cls-2" d="M1571.77,83.42l0,.32c-.2.24-.2.62-.53.78s-.48,0-.72,0c-1.37.93-2.86.42-4.31.38a1.83,1.83,0,0,0-1.44.23,1.56,1.56,0,0,1-1.84-.5c-.92-.74-1.7-.36-2.45.28l-.4.42a3.07,3.07,0,0,1-1.9.42c-.59-.13-1.15.25-1.74.14l-.73,0a6,6,0,0,1-2.15,0l-.87-.07c-.57-.25-1,.2-1.42.37a2.33,2.33,0,0,0-1.43.64c-.29.18-.28.58-.55.78s-.82,0-1.13.33a1.77,1.77,0,0,1-1,.63,1.54,1.54,0,0,0-1,.38,10.49,10.49,0,0,0-3.3.36,1.86,1.86,0,0,0-1,.58c-.15.15-.29.32-.44.47a.8.8,0,0,1-.27.18c-.23.13-.46.28-.68.42h-.8a3.26,3.26,0,0,0-2.91.77,1.24,1.24,0,0,1-1.18.65,15.43,15.43,0,0,0-6,3.54c-.08.56-.42.67-.91.54l-1.7,1.1a25.73,25.73,0,0,1-5.05,4.08c-.62.36-1,1-1.7,1.24-.32,0-.47.59-.91.32-.6.42-.8,1.15-1.45,1.6a3.63,3.63,0,0,1-1.66.78l-.56.41c.15.32.11.67-.22.77a3.38,3.38,0,0,0-2,2,1,1,0,0,1-.59.44c-.55,0-.91.24-.88.86a.58.58,0,0,1-.3.18c-.49.06-.88-.31-1.35-.32a1.45,1.45,0,0,1-.38-.4c-.16-.43.17-.51.43-.61l-.08,0c-.85,0-.71-.44-.32-.89.21-.24.63-.34.48-.8l.5-.71c0-.41.43-.43.58-.7l.69-.65a.51.51,0,0,1,.49-.54l.22-.2c.3-1.37.47-1.51,1.67-1.46.56-.56,1.57-.67,1.67-1.69.12-.37.46-.53.73-.74.27-.71.94-.85,1.54-1.1.38-.16.85-.18,1.1-.59-.26-.27-.44-.64-.11-.9.83-.65,1.41-1.75,2.72-1.57l1.72-1c.09-.13-.07,0,.06-.1,1.56-.89,2.6-2.72,4.7-2.67.42-.4,1.14-.11,1.5-.65-.23-1.12.87-.87,1.35-1.24a1.18,1.18,0,0,1,.75,0l.73-.46a.78.78,0,0,1,.72-.2,2.14,2.14,0,0,0,1.26-.46c.35-.75,1.12-.65,1.74-.75l1.11-.18,1.17-.52c.7-1.2,1.88-1.4,3.11-1.48l.51-.21a2.33,2.33,0,0,1,2.61-.78l.26-.14a1.86,1.86,0,0,1,1.66-.55l4.32-.94c.44-.27.76-.69,1.22-.93a9.7,9.7,0,0,1,3.6-.5,2.82,2.82,0,0,0,2.14-.49.15.15,0,0,1,.24,0l.27,0c.12,0,.26.07.35,0a2.74,2.74,0,0,1,3-.61,1.07,1.07,0,0,0,1-.27c.65-.63,1.53-.36,2.33-.29a23.37,23.37,0,0,0,3.92-.21c.85-.55,1.71-.13,2.56,0h1.2l.73.19c.35.44-.09.51-.32.67A5.81,5.81,0,0,0,1571.77,83.42Z" transform="translate(-107.87 -79.8)"/><path class="cls-2" d="M1510.1,109.33l.24.24c1,.8,1.05,1,.32,1.87a24.54,24.54,0,0,1-2.05,1.89.88.88,0,0,1-.15-.12s0,0,0,0c.18.18.31.37.17.63l-.07.24c.08.33-.2.39-.4.51L1507,116.3a1.08,1.08,0,0,1-.76,1.39l-.68,1c.13.32-.09.49-.28.68a1.67,1.67,0,0,0-.42,1,1.29,1.29,0,0,1-.52,1.68l-.64,1.45a11.82,11.82,0,0,0-.49,2.83c-.07.4-.06.81-.69.87a1.23,1.23,0,0,0-.88.81,1.26,1.26,0,0,1-1.47.9c-.16-.14-.4-.19-.46-.43-.14-1.31-.37-2.64.6-3.77l.21-.49c0-.25,0-.51.26-.64l.41-.81c-.11-.3.07-.51.24-.72a2.07,2.07,0,0,1,0-1.69c-.1-.75.45-1.15.86-1.64a2.26,2.26,0,0,0,.61-1,2.81,2.81,0,0,1,1.09-2.4,4.69,4.69,0,0,0,1.16-2c.17-.71,1-.77,1.2-1.37.83-1.19,2.36-1.61,3.17-2.83C1509.67,108.9,1509.92,109.18,1510.1,109.33Z" transform="translate(-107.87 -79.8)"/><path class="cls-2" d="M1597.69,110.77l.2.27a.68.68,0,0,1,.38.53,3,3,0,0,1,0,.67.64.64,0,0,1-.19.27l-.42.21a2.27,2.27,0,0,0-.89.82,2.54,2.54,0,0,0-.16.28c-.16.22-.18.51-.41.67a1.09,1.09,0,0,0-.75.91c-.06.38-.06.79-.45,1s-.88-.08-1.32,0a3,3,0,0,1-2-1.81c0-.46.18-.9.17-1.37-.17-.74.32-1.15.8-1.57a5.33,5.33,0,0,0,.23-.6c.32-.43.35-1,.88-1.35.47-.14,1.09.29,1.41-.38h.39C1596.52,109.4,1597.38,109.65,1597.69,110.77Z" transform="translate(-107.87 -79.8)"/><path class="cls-2" d="M1563.62,97.62l.71.2a4.17,4.17,0,0,1,2.45,1.76c0,.91-1,1-1.34,1.71-.22.5-.85.65-1,1.2a.56.56,0,0,1-.36.33c-.24.08-.52-.12-.74.12a3.08,3.08,0,0,1-.33.55c-.31.31.12.92-.45,1.12a1.18,1.18,0,0,1-.53,0l-.71-.16a.81.81,0,0,1-.3-.21,7.37,7.37,0,0,0-.56-3.44c-.26-.8.45-1.39.48-2.18,0-.44,1-.51,1.61-.58a.23.23,0,0,1,.14-.07C1562.91,97.56,1563.2,97.39,1563.62,97.62Z" transform="translate(-107.87 -79.8)"/><path class="cls-2" d="M1566.48,152.09l-1.47,1c.59.93,2,.35,2.44,1.37,0,.09-.11.1-.18,0a2.12,2.12,0,0,0-1.74.2c-.37.46-1,.25-1.41.46a2.7,2.7,0,0,1-.56.14c-.53-.13-1.26,0-1.35-.81-.34-.47,0-.68.36-.78a6.48,6.48,0,0,0,2.49-1.9l.93.06a.72.72,0,0,1,.41,0A.31.31,0,0,1,1566.48,152.09Z" transform="translate(-107.87 -79.8)"/><path class="cls-2" d="M1506.57,112l1.6-2.44.42-.47c-.33-.79.71-.67.8-1.19l.9-.73c.35.27.3.57.06.88s-.09.48.23.57h0l-.48.72c-.63,1.41-2.38,1.61-3.12,2.92C1506.87,112.46,1506.69,112.13,1506.57,112Z" transform="translate(-107.87 -79.8)"/><path class="cls-2" d="M1511.52,109.8c-.41.31.21.63,0,.94h0a3.11,3.11,0,0,1-1.47,1.68l-1.39,1.45-.23-.7h0c.49-.5.95-1,1.47-1.5a1.72,1.72,0,0,0,.45-2.1A1.74,1.74,0,0,1,1511.52,109.8Z" transform="translate(-107.87 -79.8)"/><path class="cls-2" d="M1501.24,175.31c-.72-.55-1.22-1.17-.75-2.14,0-.32-.47-.25-.57-.53.74-.4,1.3-.4,1.07.66C1500.83,174,1501.72,174.57,1501.24,175.31Z" transform="translate(-107.87 -79.8)"/><path class="cls-2" d="M1633.91,105.25c0,.31.16.75-.14.88s-.68-.29-1-.48c.06-.3-.2-.42-.32-.63s0-.33.27-.25l.49.24c.38-.3.55,0,.73.26Z" transform="translate(-107.87 -79.8)"/><path class="cls-2" d="M1629.35,149.16l.5,0c.51.84-.26,1.1-.71,1.29s-1.13.29-1-.63a1.26,1.26,0,0,1,.32-.33l.44-.12C1629,149.2,1629.22,149.3,1629.35,149.16Z" transform="translate(-107.87 -79.8)"/><path class="cls-2" d="M1551.77,87l-1.86,0a.32.32,0,0,1-.05-.37,3.53,3.53,0,0,1,1.54-.55.43.43,0,0,1,.42.31Z" transform="translate(-107.87 -79.8)"/><path class="cls-2" d="M1560.2,102.64v-.29l.12-.19c1,0,1.21.25.91,1.32-.37.43-.74.52-1.12,0A1.49,1.49,0,0,1,1560.2,102.64Z" transform="translate(-107.87 -79.8)"/><path class="cls-2" d="M1499.52,170.31l-.4.56c-.06-.49-.39-.87,0-1.24.22-.21.51-.1.73.11C1499.75,169.94,1499.85,170.24,1499.52,170.31Z" transform="translate(-107.87 -79.8)"/><path class="cls-2" d="M1501,177.94l.24-.25c.36-.32.58-.16.74.22l.47.25,0,.54C1501.89,178.54,1501.57,178,1501,177.94Z" transform="translate(-107.87 -79.8)"/><path class="cls-2" d="M1499.92,172.64l.57.53c-.2-.16-.39-.23-.53.08s-.36.33-.61.09-.27-.54.19-.63Z" transform="translate(-107.87 -79.8)"/><path class="cls-2" d="M1541.14,177.58c0,.32-.22.39-.46.38s-.36-.09-.36-.15a.49.49,0,0,1,.38-.5A.35.35,0,0,1,1541.14,177.58Z" transform="translate(-107.87 -79.8)"/><path class="cls-2" d="M1498.27,167.81c-.21-.59-.27-.88,0-1.11,0,0,.19,0,.19.05C1498.44,167,1498.39,167.26,1498.27,167.81Z" transform="translate(-107.87 -79.8)"/><path class="cls-2" d="M1549.3,178.16l-1.07-.22C1548.67,177.6,1549.17,177,1549.3,178.16Z" transform="translate(-107.87 -79.8)"/><path class="cls-2" d="M1499.22,168c-.29-.27-.19-.53-.1-.84C1499.67,167.46,1499.1,167.72,1499.22,168Z" transform="translate(-107.87 -79.8)"/><path class="cls-2" d="M1499.52,170.31c0-.25.07-.47.33-.57.2.21.31.48.12.71S1499.64,170.48,1499.52,170.31Z" transform="translate(-107.87 -79.8)"/><path class="cls-2" d="M1502.18,177.47l-.68-.25c-.07-.22-.15-.45.2-.51C1501.94,176.91,1502.21,177.1,1502.18,177.47Z" transform="translate(-107.87 -79.8)"/><path class="cls-2" d="M1535.77,177.46v.29a.79.79,0,0,1-.87.14C1535.12,177.57,1535.47,177.56,1535.77,177.46Z" transform="translate(-107.87 -79.8)"/><path class="cls-2" d="M1504.11,143.66c.47-.14.59.39.94.49v.46A2.29,2.29,0,0,1,1504.11,143.66Z" transform="translate(-107.87 -79.8)"/><path class="cls-2" d="M1503.56,178l-.44.19a2,2,0,0,1-.13-.48C1503.29,177.54,1503.46,177.7,1503.56,178Z" transform="translate(-107.87 -79.8)"/><path class="cls-2" d="M1499.82,128.93l.21-.4.22.18v.54Z" transform="translate(-107.87 -79.8)"/><path class="cls-2" d="M1571.77,83.42a.76.76,0,0,1,.29-1c.65-.52,1.26-1.09,1.88-1.64l.47-.11c0,.16.08.42,0,.46C1573.41,81.73,1572.92,83,1571.77,83.42Z" transform="translate(-107.87 -79.8)"/><path class="cls-2" d="M1643.76,165a25.29,25.29,0,0,1-5.27-.76c1-.4,2.34,0,3.06-1.2.18-.31.48.07.73.13.49.14,1,.26,1.48.39A2,2,0,0,1,1643.76,165Z" transform="translate(-107.87 -79.8)"/><path class="cls-2" d="M1644.48,162.36a6.68,6.68,0,0,1,3.12,1.69c-.36.71.23,1.12.72,1.79-1.47-.57-2.29-1.67-3.44-2.29-.36-.19-.61-.63-1.12-.47-.27-.11-.45-.25-.06-.44A7.25,7.25,0,0,1,1644.48,162.36Z" transform="translate(-107.87 -79.8)"/><path class="cls-2" d="M1590.79,150.81l-4,3.77-.24-.28c1.36-1.23,2.22-3,4.25-3.49Z" transform="translate(-107.87 -79.8)"/><path class="cls-2" d="M1509.33,159.69l-.16-.7a.48.48,0,0,1,.76,0l.9.05A1.41,1.41,0,0,1,1509.33,159.69Z" transform="translate(-107.87 -79.8)"/><path class="cls-2" d="M1580.83,84.34l-.69-.44c-.14-.35-.46-.15-.69-.22.73-.53,1.19,0,1.68.43Z" transform="translate(-107.87 -79.8)"/><path class="cls-2" d="M1514,154.89a2.83,2.83,0,0,1-1.46-.08c.38-.53.85-.24,1.23-.32Z" transform="translate(-107.87 -79.8)"/><path class="cls-2" d="M1615.26,155.2c-.08.94-.65.44-1.07.39,0-.41.6-.24.5-.66Z" transform="translate(-107.87 -79.8)"/><path class="cls-2" d="M1648.71,150.87c-.48.07-.74.08-1-.21C1648.09,150.37,1648.33,150.59,1648.71,150.87Z" transform="translate(-107.87 -79.8)"/><path class="cls-2" d="M1639.89,161.12h-1.17v-.22a3.67,3.67,0,0,1,1.43-.27c.16,0,.32,0,.28.18S1640.06,161,1639.89,161.12Z" transform="translate(-107.87 -79.8)"/><path class="cls-2" d="M1537,155.64a1.88,1.88,0,0,1,1.4-.43v.15C1537.91,155.23,1537.59,156.06,1537,155.64Z" transform="translate(-107.87 -79.8)"/><path class="cls-2" d="M1508.44,154.44c-.55.08-.83-.07-.58-.68A.83.83,0,0,1,1508.44,154.44Z" transform="translate(-107.87 -79.8)"/><path class="cls-2" d="M1640.88,152l-.43.58-.08-.79Z" transform="translate(-107.87 -79.8)"/><path class="cls-2" d="M1585.57,153.49a.69.69,0,0,1-.13.11s-.08,0-.08,0a1,1,0,0,1,.05-.16Z" transform="translate(-107.87 -79.8)"/><path class="cls-2" d="M1626.48,165l-.68.32c-.22,0-.53.2-.48-.27l1.16-.27Z" transform="translate(-107.87 -79.8)"/><path class="cls-2" d="M1639.68,111.73c-.17.13.1.7-.45.45C1639.39,112,1639.38,111.73,1639.68,111.73Z" transform="translate(-107.87 -79.8)"/><path class="cls-2" d="M1648.39,133.57l.14-.13a.46.46,0,0,1,.07.16s-.06.08-.06.08Z" transform="translate(-107.87 -79.8)"/><path class="cls-2" d="M1532.53,222.07l.36.05c-.24.72-.9,1-1.44,1.41-1.32.74-2.82.06-3.54-1.6a2.3,2.3,0,0,1,2.23.07.92.92,0,0,0,1.19-.2C1531.93,221.1,1532.21,221.65,1532.53,222.07Z" transform="translate(-107.87 -79.8)"/><path class="cls-2" d="M1510.13,243.23h-1.22a3.72,3.72,0,0,0-1.18-.45c-.87,0-1-.54-1-1.27a.24.24,0,0,1,.31.1c0-.06,0-.07-.07-.09s-.13-.06-.19,0l0,0c-.71-1.16-.71-1.16,1.18-1.88-.13.56.17,1.19-.25,1.7a.75.75,0,0,0,0,.93C1508.79,241.94,1509.39,242.74,1510.13,243.23Z" transform="translate(-107.87 -79.8)"/><path class="cls-2" d="M1532.53,222.07c-.08,0-.18-.08-.23,0-1.38.77-2.79.11-4.19.09a1.33,1.33,0,0,1-.75-.23c-.64-.53-1.45-.36-2.18-.51a6.52,6.52,0,0,1,1.7-.24c.29-.65,1-.3,1.4-.55s.61.15.77.41c.39.64.8.5,1.4.26s1.41-.76,2,.21Z" transform="translate(-107.87 -79.8)"/><path class="cls-2" d="M1527.36,221.88a.77.77,0,0,1,.75.23,3.05,3.05,0,0,0,3.34,1.42c0,.66-.49.45-.81.47C1529.05,224.08,1528.2,223,1527.36,221.88Z" transform="translate(-107.87 -79.8)"/><path class="cls-2" d="M1561.43,226.21l1.7-.06c.07,0,.09.11.07.16s0,.09-.08.09a3,3,0,0,1-2.21.48c-.45,0-.75-.17-.75-.68A1.52,1.52,0,0,0,1561.43,226.21Z" transform="translate(-107.87 -79.8)"/><path class="cls-2" d="M1507.31,234.27a2.38,2.38,0,0,1-1.34,1.26A2.24,2.24,0,0,1,1507.31,234.27Z" transform="translate(-107.87 -79.8)"/><path class="cls-2" d="M1548.2,243.19a2.5,2.5,0,0,1,2.17,0c-.44.39-.82.19-1.17.2Z" transform="translate(-107.87 -79.8)"/><path class="cls-2" d="M1586.37,244.6l-.09.05v-.15s.07,0,.09,0S1586.37,244.57,1586.37,244.6Z" transform="translate(-107.87 -79.8)"/><path class="cls-2" d="M1618.58,206.51a1.44,1.44,0,0,0,.93-.74h0c.6-.15,1.21-.51,1.79,0,.47.94-.45,1.32-.8,1.92-.25,0-.14.39-.39.4a1.39,1.39,0,0,1-1,.52,1.36,1.36,0,0,1-1.27-.7c-.28-.5.24-.68.43-1A2.33,2.33,0,0,1,1618.58,206.51Z" transform="translate(-107.87 -79.8)"/><path class="cls-2" d="M1618.58,206.51c-.08.53-.92,1-.29,1.55s1-.36,1.48-.6c.74-.12.51.5.34.65-.35.3-.52.71-.83,1h-.76c-.09.09-.17.09-.24,0s0-.34-.14-.44C1617.18,207.71,1617.6,207.06,1618.58,206.51Z" transform="translate(-107.87 -79.8)"/><path class="cls-2" d="M1545.6,209.61H1544a1.33,1.33,0,0,1-.76.3.41.41,0,0,1-.28-.23c.39-1,.58-2.14,1-3.17l.25-.22c1.06.13,1.21,1,1.45,1.8a5.31,5.31,0,0,1,.13.75.71.71,0,0,0,.3.48h.33l.77.09Z" transform="translate(-107.87 -79.8)"/><path class="cls-2" d="M1618.28,209.1l.24,0v.45h-.24c-.62,0-1.25-.36-1.86,0l-.74,0-1.29-.22a7.45,7.45,0,0,0,2.18-.51A2.42,2.42,0,0,1,1618.28,209.1Z" transform="translate(-107.87 -79.8)"/><path class="cls-2" d="M1589.77,206.74a6.91,6.91,0,0,0-1.92.22c-.08,0-.11-.09-.08-.14s0-.07.07-.07l.19-.19.5-.24c.22-.28.47-.18.73-.08Z" transform="translate(-107.87 -79.8)"/><path class="cls-2" d="M1558.79,206l-.17.13a.56.56,0,0,1-.07-.16s.07-.07.09-.06Z" transform="translate(-107.87 -79.8)"/><path class="cls-2" d="M1549,209.58l-1.54-.16A3,3,0,0,1,1549,209.58Z" transform="translate(-107.87 -79.8)"/><path class="cls-2" d="M1580.17,209.6c-.11.27-.28.3-.58.12l.61-.3A.38.38,0,0,1,1580.17,209.6Z" transform="translate(-107.87 -79.8)"/><path class="cls-2" d="M1622.74,177.5c.59-.87.8-.9,1.53-.28-.13.28-.46,0-.62.23Z" transform="translate(-107.87 -79.8)"/><path class="cls-2" d="M1543.21,196l.77-.84c.06.72-.35.78-.77.84Z" transform="translate(-107.87 -79.8)"/><path class="cls-2" d="M1610.42,225.16l-.49,0c-.67-.32-.56-.86-.27-1.32.19-.3.34-.61.55-.89a1.73,1.73,0,0,1,1.15-.84,5,5,0,0,1,1.93,0l-.25.49a1.92,1.92,0,0,1-1.21,1.2A6,6,0,0,0,1610.42,225.16Z" transform="translate(-107.87 -79.8)"/><path class="cls-2" d="M1611.83,223.78l1.21-1.2C1613,223.31,1612.81,224,1611.83,223.78Z" transform="translate(-107.87 -79.8)"/><path class="cls-2" d="M1568,179.88a1.27,1.27,0,0,1-.57-.68.91.91,0,0,1,.79.68H1568Z" transform="translate(-107.87 -79.8)"/><path class="cls-2" d="M1564.31,178.39l.44-.23C1564.78,178.57,1564.54,178.47,1564.31,178.39Z" transform="translate(-107.87 -79.8)"/><path class="cls-2" d="M1565.29,178l1,0C1565.94,178.18,1565.62,178.34,1565.29,178Z" transform="translate(-107.87 -79.8)"/><path class="cls-2" d="M1597.93,195.23c-.2,0-.39,0-.48-.2,0,0,0-.07,0-.1l.45.3Z" transform="translate(-107.87 -79.8)"/><path class="cls-2" d="M1622.9,206h1.22c.09.22.27.21.45.19l2.86.09,1,0-1,.32c-.28.13-.64.25-.47.64.07.17.18.45.46.44s.45-.36.53-.65c.71-.09.64.35.41.72a1.37,1.37,0,0,1-1.61.71.44.44,0,0,0-.48.24v.45h-.49a14.17,14.17,0,0,0-2.75-2c-.33-.24-.82-.39-.69-1a.48.48,0,0,1,.23-.31A.3.3,0,0,1,1622.9,206Z" transform="translate(-107.87 -79.8)"/><path class="cls-2" d="M1627.92,207c0,.57-.18,1-.78.91s-1.1-.5-1-1,.8-.28,1.25-.31C1627.39,206.93,1627.39,207.28,1627.92,207Z" transform="translate(-107.87 -79.8)"/><path class="cls-2" d="M1626.24,208.67a3.19,3.19,0,0,1-.12-.64c.35-.13.41.23.6.4Z" transform="translate(-107.87 -79.8)"/><path class="cls-2" d="M1609.46,192.63c-.1-.49-.9.18-.85-.47s.56-.83,1.05-1l.07.06a1,1,0,0,1,.12,1.6A.49.49,0,0,1,1609.46,192.63Z" transform="translate(-107.87 -79.8)"/><path class="cls-2" d="M1545.37,209.33c-.42,0-.69-.12-.52-.63a1.77,1.77,0,0,0-.67-2c-.75-.19-1.44-.43-1.21-1.44a2.43,2.43,0,0,1,1.22-.18c1.15,1,2.16,2.08,1.89,3.79C1546,209.26,1545.61,209.19,1545.37,209.33Z" transform="translate(-107.87 -79.8)"/><path class="cls-2" d="M1543,205.3l1.21,1.44h0c-.88.48-2.05-.05-2.67-1.22l1-.25Z" transform="translate(-107.87 -79.8)"/><path class="cls-2" d="M1647.08,183.26c0,.47.54.65.67,1.36l-1.55-1.46c.39-.26.61.16.89.11Z" transform="translate(-107.87 -79.8)"/><path class="cls-2" d="M1624.57,206.19c0,.17.3.43.09.47-.46.09-.52-.3-.54-.66l.4.06A.69.69,0,0,1,1624.57,206.19Z" transform="translate(-107.87 -79.8)"/><path class="cls-2" d="M1560.49,191.15l-.29-.37c.08-.09.19-.2.26-.07S1560.49,191,1560.49,191.15Z" transform="translate(-107.87 -79.8)"/><path class="cls-2" d="M1610.35,193.29l.09-.48.39-.23v.52l-.2.47Z" transform="translate(-107.87 -79.8)"/><path class="cls-2" d="M1616.42,209.59c.61-.65,1.24-.26,1.86,0Z" transform="translate(-107.87 -79.8)"/><path class="cls-2" d="M1563.12,226.4v-.25a1.33,1.33,0,0,1,1.18-.1A1.92,1.92,0,0,1,1563.12,226.4Z" transform="translate(-107.87 -79.8)"/><path class="cls-2" d="M1622.58,206.23c1.24.77,2.94,1,3.18,2.9l-1.46.07,0-.06a2,2,0,0,0-2.41,0l-1,.49c-.58-.18-1.12-.41-1.17-1.12a.4.4,0,0,1,.19-.28,11.31,11.31,0,0,0,1.74-2.3A.76.76,0,0,1,1622.58,206.23Z" transform="translate(-107.87 -79.8)"/><path class="cls-2" d="M1619.28,209.13c-.2-.66.45-1.08.49-1.67l.23-.23a4.56,4.56,0,0,1,.65-.51c.25-.17.56-.5.82-.2a.8.8,0,0,1,0,1.14c-.34.32-.56.76-1,1h0c-.39.08-.22.54-.49.71Z" transform="translate(-107.87 -79.8)"/><path class="cls-2" d="M1621.92,209.15c1.18-1.08,1.41-1.08,2.41,0Z" transform="translate(-107.87 -79.8)"/><path class="cls-2" d="M1620,209.38a1.19,1.19,0,0,1,.49-.71c-.08.44.2.71.48,1A.91.91,0,0,1,1620,209.38Z" transform="translate(-107.87 -79.8)"/><path class="cls-2" d="M1507.73,242.25c-.08-.31-.46-.61,0-.93Z" transform="translate(-107.87 -79.8)"/><path class="cls-2" d="M1607,222.56c-.23-.66.34-.37.57-.48.48-.22.89-.61,1.47-.56a7.26,7.26,0,0,0,1.32-.08c.26.05.39.28.56.44h0l.49.26-.72.92c-.48.42-1,.16-1.44,0C1608.48,222.79,1607.8,222.3,1607,222.56Z" transform="translate(-107.87 -79.8)"/><path class="cls-2" d="M1609.2,223.07h1.44a2.45,2.45,0,0,0-.71,2.13,2.9,2.9,0,0,0-1.23.24c-.08.12-.15.11-.22,0C1608.84,224.67,1609.55,224,1609.2,223.07Z" transform="translate(-107.87 -79.8)"/><path class="cls-2" d="M1622.59,205.1a2.42,2.42,0,0,1-2.07,0A2.46,2.46,0,0,1,1622.59,205.1Z" transform="translate(-107.87 -79.8)"/><path class="cls-2" d="M1527.15,209.36a12.39,12.39,0,0,0-4.58-.19,5.89,5.89,0,0,1,3.39-3.63l2.79.2c.22-.08.45,0,.48.17a5,5,0,0,1-1.85,3.43A.58.58,0,0,1,1527.15,209.36Z" transform="translate(-107.87 -79.8)"/><path class="cls-2" d="M1545.37,209.33l.71-.42c0,.13,0,.27,0,.41Z" transform="translate(-107.87 -79.8)"/><path class="cls-2" d="M1620,205.55h1.4c.18.18.24.35,0,.53a.47.47,0,0,1-.31,0l-1.61-.31Z" transform="translate(-107.87 -79.8)"/><path class="cls-2" d="M1512.51,108.86c0,.68-.49.8-1,.94,0-.37-.44-.78,0-1.1S1512.2,108.63,1512.51,108.86Z" transform="translate(-107.87 -79.8)"/><path class="cls-2" d="M1563.09,84.64l-.13-.52,2.14.29A5.69,5.69,0,0,1,1563.09,84.64Z" transform="translate(-107.87 -79.8)"/><path class="cls-2" d="M1549.52,86.33c-.39.6.18.4.4.48a.76.76,0,0,0,0,.15l-.94.29C1548.94,86.82,1549,86.42,1549.52,86.33Z" transform="translate(-107.87 -79.8)"/><path class="cls-2" d="M1560,84.38l.68,0c.08.24.5.34.28.7a1.2,1.2,0,0,1-1.25-.43Z" transform="translate(-107.87 -79.8)"/><path class="cls-2" d="M1510.58,108.61l.57-.93c.12.59-.26.74-.57.93Z" transform="translate(-107.87 -79.8)"/><path class="cls-2" d="M1586.19,177.68l-.07-.42c.09-.29.27-.41.57-.29.4.67-.26.53-.53.69Z" transform="translate(-107.87 -79.8)"/><path class="cls-2" d="M1586.69,177l-.57.29c-.17-.09-.48-.26-.38-.36C1586,176.61,1586.38,176.79,1586.69,177Z" transform="translate(-107.87 -79.8)"/><path class="cls-2" d="M1508.42,113.17c-.18-.5-.3-1,.31-1.42l-.31,1.42Z" transform="translate(-107.87 -79.8)"/><path class="cls-2" d="M1594.3,116.47c-.36.08-.69.09-.68-.43l1.1-.27Z" transform="translate(-107.87 -79.8)"/><path class="cls-2" d="M1646.1,139.79l-.25.65c-.37-.37-.1-.63.06-.89A.24.24,0,0,1,1646.1,139.79Z" transform="translate(-107.87 -79.8)"/><path class="cls-2" d="M1646.1,139.79l-.19-.24,0-.44c.33-.05.37.16.36.42Z" transform="translate(-107.87 -79.8)"/><path class="cls-2" d="M1560.29,102.38c0-.33.07-.7-.19-1l-.13-.21c.12-.61.63-.4,1-.49.11,1.13,1.09,2.12.49,3.35-.75.19-.77-.15-.51-.7S1560.74,102.55,1560.29,102.38Z" transform="translate(-107.87 -79.8)"/><path class="cls-2" d="M1562.65,98.54l.71-.25c.09.25.26.57-.09.69S1562.82,98.74,1562.65,98.54Z" transform="translate(-107.87 -79.8)"/><path class="cls-2" d="M1562.21,104.15c0,.19-.07.41-.28.43-.38,0-.33-.34-.46-.54Z" transform="translate(-107.87 -79.8)"/><path class="cls-2" d="M1616.4,94l.24.49-.24,0-.74-.18C1615.84,94,1616.19,94.14,1616.4,94Z" transform="translate(-107.87 -79.8)"/><path class="cls-2" d="M1571.78,109.79l.47,0c.7.33,1.1,1,1.7,1.44l.42.71c-.18.48-.88.45-1,1-.5.45-1.23.75-1.18,1.61l0,0c-.16.24-.54,0-.66.3s-.33.09-.51,0c-.39.36,0,.94-.36,1.3-.85.46-1.47,0-1.64-1.33a.53.53,0,0,1,0-.22c.14-.57-.68-1.13,0-1.7l.19-.2a.62.62,0,0,0,.09-.26,2.83,2.83,0,0,0,.13-.56,1.41,1.41,0,0,1,1.49-1.1c.3,0,.74,0,.6-.51A.37.37,0,0,1,1571.78,109.79Z" transform="translate(-107.87 -79.8)"/><path class="cls-2" d="M1569.39,113a1.23,1.23,0,0,0,.27,1c.43.73,0,.71-.55.65a1.78,1.78,0,0,1-.71-.73l.07-.46C1568.71,113.14,1568.81,112.56,1569.39,113Z" transform="translate(-107.87 -79.8)"/><path class="cls-2" d="M1571.59,110.29c.38.61,0,.81-.51.8a1.55,1.55,0,0,0-1.46.87l-.1.18-.1-.18c-.05-.91.46-1.32,1.29-1.41A1.52,1.52,0,0,0,1571.59,110.29Z" transform="translate(-107.87 -79.8)"/><path class="cls-2" d="M1569.42,112h.2v.73a.16.16,0,0,1,.06.17s-.06.07-.08.07l-.22,0-.92.45c-.1-.28-.7-.68.17-.73C1569.11,112.67,1569.24,112.28,1569.42,112Z" transform="translate(-107.87 -79.8)"/><path class="cls-2" d="M1622.85,150.15c-.32.34-.59.14-.86-.08l.17-.17.48.17A.54.54,0,0,0,1622.85,150.15Z" transform="translate(-107.87 -79.8)"/><path class="cls-2" d="M1563.93,154.71l.42.7a.67.67,0,0,1-.76-.41Z" transform="translate(-107.87 -79.8)"/><path class="cls-2" d="M1589.51,96.66c.31.38-.31.73,0,1.11-.49,0-.93,0-.68.73a2.14,2.14,0,0,0-.64.25,12,12,0,0,1-1.87,1.43c-.14.07,0,.35.12.52-.23.36.08,1-.49,1.17-1,.23-1.39-.15-1.49-1.39-.09-.29,0-.61-.16-.88-.08-.64-.46-1.34.45-1.76a.63.63,0,0,0,0-.75,2.31,2.31,0,0,1,.47-1.17h0l1-.08c.37-.65.77-1.27,1.67-.74a.3.3,0,0,0,.19.1c.71.11,1,.65,1.24,1.22Z" transform="translate(-107.87 -79.8)"/><path class="cls-2" d="M1584.76,97.09c.72.9-.48,1.57-.28,2.41-.43.13-.64-.08-.72-.48s-.4-1.07.5-1.2C1584.56,97.78,1584.7,97.41,1584.76,97.09Z" transform="translate(-107.87 -79.8)"/><path class="cls-2" d="M1569.09,114.84c.63.32.74,1.35,1.7,1.21.08-.16.14-.16.2,0s-.46.37-.43.71l-.25.22c-.7.4-.86-.29-1.2-.59.09-.49-.85-.46-.52-1.06C1568.67,115.09,1568.79,114.87,1569.09,114.84Z" transform="translate(-107.87 -79.8)"/><path class="cls-2" d="M1646.73,138.34c0,.22-.12.35-.31.31s-.14-.18-.12-.25a.35.35,0,0,1,.21-.23C1646.57,138.16,1646.67,138.29,1646.73,138.34Z" transform="translate(-107.87 -79.8)"/><path class="cls-2" d="M1571,116.06h-.2c0-.43-.15-.87.3-1.18Z" transform="translate(-107.87 -79.8)"/><path class="cls-2" d="M1622.66,164.09c-.56.89-1.56.35-2.28.71l-.09.07.13.16a.24.24,0,0,1,.18.24c-.13.26-.37.19-.59.19-.4-.23-.79-.52-.59-1s.58-.41.94-.35c.83.12,1.47-.58,2.29-.48C1622.83,163.76,1622.79,163.92,1622.66,164.09Z" transform="translate(-107.87 -79.8)"/><path class="cls-2" d="M1616.16,166.87c-.39.09-.73.1-.68-.45s.46-.66.9-.71.64.07.32.51C1616.5,166.42,1616.36,166.67,1616.16,166.87Z" transform="translate(-107.87 -79.8)"/><path class="cls-2" d="M1631.92,154.26c-.37.29-.74.54-1.24.28C1631,154,1631.51,154.24,1631.92,154.26Z" transform="translate(-107.87 -79.8)"/><path class="cls-2" d="M1646.89,159.31h-1a2.67,2.67,0,0,1,1.76-.64C1647.59,159.22,1647.18,159.19,1646.89,159.31Z" transform="translate(-107.87 -79.8)"/><path class="cls-2" d="M1623.37,154.7a.76.76,0,0,1-.93.17c-.4-.22-.21-.39.14-.45S1623.31,154.05,1623.37,154.7Z" transform="translate(-107.87 -79.8)"/><path class="cls-2" d="M1620.52,165.22c.21,0,.48-.14.57.13,0,.08-.21.26-.33.39s-.22.14-.33,0l-.42-.29Z" transform="translate(-107.87 -79.8)"/><path class="cls-2" d="M1625.18,164.41c.37-.46.68-.4,1.12-.35A1,1,0,0,1,1625.18,164.41Z" transform="translate(-107.87 -79.8)"/><path class="cls-2" d="M1599.81,170.13a.73.73,0,0,1-1,0C1599.17,170,1599.41,169.72,1599.81,170.13Z" transform="translate(-107.87 -79.8)"/><path class="cls-2" d="M1589.57,170.4c-.29.13-.54.36-.93.17C1588.9,170.1,1589.27,170.32,1589.57,170.4Z" transform="translate(-107.87 -79.8)"/><path class="cls-2" d="M1613.48,168.32c-.3.05-.56.34-.89.17-.1-.05-.34-.11-.23-.3s.27-.08.42-.12S1613.44,167.7,1613.48,168.32Z" transform="translate(-107.87 -79.8)"/><path class="cls-2" d="M1623.37,154.7l-.79-.28a.88.88,0,0,1,1,0C1624,154.77,1623.46,154.61,1623.37,154.7Z" transform="translate(-107.87 -79.8)"/><path class="cls-2" d="M1616.16,166.87a1.2,1.2,0,0,1,.54-.65c.15.26.42.19.65.24.07.06.09.11.05.14a.13.13,0,0,1-.1,0Z" transform="translate(-107.87 -79.8)"/><path class="cls-2" d="M1620.43,165.75h.33l0,.45-.75.24C1619.86,166,1620.38,166,1620.43,165.75Z" transform="translate(-107.87 -79.8)"/><path class="cls-2" d="M1591.68,169.8a1.48,1.48,0,0,1,0,.21l-.8.05C1591.15,169.71,1591.44,169.83,1591.68,169.8Z" transform="translate(-107.87 -79.8)"/><path class="cls-2" d="M1597.52,169.85c-.14.07-.23.16-.32.16s-.34,0-.23-.25a.34.34,0,0,1,.29-.14C1597.34,169.63,1597.41,169.74,1597.52,169.85Z" transform="translate(-107.87 -79.8)"/><path class="cls-2" d="M1592.76,169.26a1.61,1.61,0,0,1-.35.06c-.11,0-.27-.06-.13-.21s.23,0,.34,0S1592.7,169.19,1592.76,169.26Z" transform="translate(-107.87 -79.8)"/><path class="cls-2" d="M1622.66,164.09v-.49c.19-.06.5-.14.54,0C1623.28,164,1622.89,164,1622.66,164.09Z" transform="translate(-107.87 -79.8)"/><path class="cls-2" d="M1611.84,166.14v.28h-.6v-.15Z" transform="translate(-107.87 -79.8)"/><path class="cls-2" d="M1632.69,177.51c-.18.26-.4.38-.7.2A.65.65,0,0,1,1632.69,177.51Z" transform="translate(-107.87 -79.8)"/><path class="cls-2" d="M1605.17,169a1.73,1.73,0,0,1-.32,0,.42.42,0,0,1,0-.15,1,1,0,0,1,.29-.1A1.41,1.41,0,0,1,1605.17,169Z" transform="translate(-107.87 -79.8)"/><path class="cls-2" d="M1508.18,158.76l-.39-.43c.7.25,1.62-.19,2.14.65h-.76C1508.89,158.69,1508.52,158.79,1508.18,158.76Z" transform="translate(-107.87 -79.8)"/><path class="cls-2" d="M1531.69,155.61a.45.45,0,0,0,.19,0,1.09,1.09,0,0,1-1.55-.14C1530.85,155.22,1531.26,155.56,1531.69,155.61Z" transform="translate(-107.87 -79.8)"/><path class="cls-2" d="M1517.17,160.41c.1-.14.16-.28.23-.29a.33.33,0,0,1,.43.28c0,.06-.15.21-.21.2A2,2,0,0,1,1517.17,160.41Z" transform="translate(-107.87 -79.8)"/><path class="cls-2" d="M1546.57,154.65l1.22.11c-.8.22-1.25.38-1.66-.06Z" transform="translate(-107.87 -79.8)"/><path class="cls-2" d="M1534,155.66l.08-.24c.23,0,.58.11.49.34S1534.21,155.89,1534,155.66Z" transform="translate(-107.87 -79.8)"/><path class="cls-2" d="M1510.82,220.9c.16.16.49.36.46.46-.12.46-.6.4-1,.51-.14-.3-.29-.6-.43-.91C1510.2,220.76,1510.51,220.92,1510.82,220.9Z" transform="translate(-107.87 -79.8)"/><path class="cls-2" d="M1507.13,241.92c-.28-.08-.44-.3-.33-.48s.27,0,.33.15A1.21,1.21,0,0,1,1507.13,241.92Z" transform="translate(-107.87 -79.8)"/><path class="cls-2" d="M1620.48,208.67a5.14,5.14,0,0,0,.29-.51c.19-.39.81-.76.4-1.2s-.76.21-1.17.27c.24-.51.74-.77,1.1-1.16l.1,0c.28-.1.51-.11.49.29C1622.11,207.53,1621.43,208.17,1620.48,208.67Z" transform="translate(-107.87 -79.8)"/><path class="cls-2" d="M1541.77,209.42c-1.77,0-3.52-.91-5.29-.06-.18.18-.31.43-.59.5-.64,0-.52-.55-.55-.87a2.44,2.44,0,0,0-2.3-2.44c-.87-.16-.94-.49-.38-1.27a59.52,59.52,0,0,0,7.06.27c.59,0,1.19,0,1.78,0,1.1-.06,1.71,1,2.67,1.22a3.56,3.56,0,0,0,.08.57c.46,1.37.3,1.68-1.09,2.1A2.35,2.35,0,0,1,1541.77,209.42Z" transform="translate(-107.87 -79.8)"/><path class="cls-2" d="M1532.66,205.28c.19.7.84.63,1.34.8,1.59.54,2.35,1.93,1.77,3.27a.49.49,0,0,1-.57.58c-2.13-.14-4.24.37-6.37.09a2.38,2.38,0,0,1-1.2-.5,3.91,3.91,0,0,1,2.12-3.89c.11,0,.22.06.31.13h.91c.43-.08,1,0,1-.66A.76.76,0,0,1,1532.66,205.28Z" transform="translate(-107.87 -79.8)"/><path class="cls-2" d="M1530.06,205.76a4.24,4.24,0,0,0-2.43,3.59c-.14.22-.32.15-.51.08l0-.07a10.32,10.32,0,0,1,1.6-3.62C1529.19,205.61,1529.64,205,1530.06,205.76Z" transform="translate(-107.87 -79.8)"/><path class="cls-2" d="M1527.12,205c-.08,0-.26,0-.18-.14s.22-.17.35-.23.14.08.14.12C1527.43,205,1527.27,205,1527.12,205Z" transform="translate(-107.87 -79.8)"/><path class="cls-2" d="M1609.2,222.14l1.2-.08a1.09,1.09,0,0,1-1.2.47C1608.84,222.45,1609.09,222.27,1609.2,222.14Z" transform="translate(-107.87 -79.8)"/><path class="cls-2" d="M1529.69,221a.66.66,0,0,1-.25.13c-.09,0-.25,0-.17-.18a.32.32,0,0,1,.18-.14C1529.57,220.76,1529.68,220.78,1529.69,221Z" transform="translate(-107.87 -79.8)"/><path class="cls-2" d="M1569.61,112.93a1.94,1.94,0,0,1,0-.24c.07.16.15.32.23.48C1569.62,113.25,1569.68,113,1569.61,112.93Z" transform="translate(-107.87 -79.8)"/></svg>