<svg id="レイヤー_1" data-name="レイヤー 1" xmlns="http://www.w3.org/2000/svg" viewBox="0 0 1565.75 192.58"><defs><style>.cls-1{opacity:0.19;font-size:100px;font-family:RiiTegakiFude-90ms-RKSJ-H, RiiTegakiFude;}.cls-2{fill:#0f0e0a;}.cls-3{fill:#1b1b1b;}</style></defs><title>mokuzi_side</title><text class="cls-1" transform="translate(0 180.28)">Side Dish</text><path class="cls-2" d="M134.28,253.59c-2.1-.4-4.21-1.2-6.31-1.6a9.86,9.86,0,0,1-5.8-3c-1.7-1.7-1.8-4.9-2.6-7.2a51.9,51.9,0,0,1-2.2-7,20,20,0,0,1-1.2-7.3l2.3-.4a12.3,12.3,0,0,1,4.1,4.8c.9,1.6,2,4.9,3.4,6.5a22.14,22.14,0,0,0,4.51,3.9l6.3,1.8a19.59,19.59,0,0,0,7.2-1.8c1.9-.7,3.8-1.9,6.2-2.5,2.1-.7,3.7-2.1,4.9-6l.6-2-1.8-3.5c-1.3-2.1-3.3-4.4-4.8-5.2-1.7-.8-3.4-.9-5.5-2-1.8-.4-4.1-.7-6.1-1a9.07,9.07,0,0,1-6-2.4,55.3,55.3,0,0,1-4.91-4.8,34.59,34.59,0,0,1-2.9-8.8,18.5,18.5,0,0,1-.8-8A49,49,0,0,1,125,190a33.46,33.46,0,0,1,2.8-5.3,29.74,29.74,0,0,1,4.61-2.81,18.78,18.78,0,0,1,4.9-1.7,24.28,24.28,0,0,1,5.4-.39c2,.39,4,1.09,5.8,1.39a18.51,18.51,0,0,1,5.9,2,22.37,22.37,0,0,1,5.2,4.1,19.18,19.18,0,0,1,2,6.8l-2.3,2.3h-2.1c-1.5-2.6-2.9-3.7-4.5-4.1s-3.3-1-5-1.3a12.3,12.3,0,0,0-5.4,0c-1.8.3-4.1,1-6,1.3a18.63,18.63,0,0,0-5.71,3.1l-1.4,8c.31,1.8,1.81,3,3.1,4.3a33,33,0,0,0,10.11,4.5,68.08,68.08,0,0,1,10.7,3.8c3.3,1.7,7.2,4,9.4,7.3a31,31,0,0,1,3.8,6.5,15.76,15.76,0,0,1,2.4,7.2,28.21,28.21,0,0,1-1.6,6.8c-.7,2.1-1.2,3.7-3.5,5.4s-4.2,3.3-7.2,3.5c-2.8.2-5.1.9-7.7.9a19.67,19.67,0,0,0-7.8,1.1A39.44,39.44,0,0,1,134.28,253.59Z" transform="translate(-112.17 -74.71)"/><path class="cls-2" d="M183.17,251.09l-.5-27.2c0-15-.7-16-.9-17.7a3.78,3.78,0,0,1,3.8-1,22,22,0,0,0,4.5,1.7,10.17,10.17,0,0,1,4,2.3,14.1,14.1,0,0,1,2.5,6.7,13,13,0,0,0-2.2,4.4,40.31,40.31,0,0,0-.5,5l.3,3.6c-.3,3.1-.6,6.4-.6,9.4,0,0-.3,3.8-.6,6.8a24.13,24.13,0,0,1-3.5,8.4,3.79,3.79,0,0,1-3.7,1A6.54,6.54,0,0,1,183.17,251.09Zm1.7-62c-1.8-1.1-2.2-3.61-2.5-5.61a7.08,7.08,0,0,1,1.1-6.5c2.6,1,5.3,1.1,7.9,1.5,0,0,3.3,1.2,5.7,2.2l.6,3c-1.1.69-1.7,2.89-2.7,3.89-.9,1.3-2,2.41-5.3,2.8Z" transform="translate(-112.17 -74.71)"/><path class="cls-2" d="M213.57,250.59a14.84,14.84,0,0,1-2.1-5.4,12.43,12.43,0,0,1-.7-6v-6c.9-2.3,1.6-5,2.5-7.7a34.61,34.61,0,0,1,2.9-7,21.82,21.82,0,0,1,5.1-6.4,38.67,38.67,0,0,0,4.8-3.7,25.7,25.7,0,0,1,4.9-2.6,10.81,10.81,0,0,1,5.9-.7l1.7.7c.8-2.7,1.7-5.7,2.4-8.7.3-3,1.2-5.71,2.6-9.9.9-2.71.5-6.11,1.6-9.9a6.47,6.47,0,0,1,5.5-1.51,11.79,11.79,0,0,1,4.9,1,7.9,7.9,0,0,1,4.41,3.5l-.3,1.79-3.2,6.5c-2,6.21-4,11.81-5,16.81a158.17,158.17,0,0,0-2.2,15.8,97.56,97.56,0,0,0-.6,16.3l2.2,5c2.1.8,2.2,2.4,2.5,4v3.4a10.46,10.46,0,0,1-5.9,3,9.56,9.56,0,0,1-6.5-3.6l-1.7-3.6a18.11,18.11,0,0,1-5,4.5,26.89,26.89,0,0,1-6.4,3.5l-8.2.2A10.54,10.54,0,0,1,213.57,250.59Zm15.9-11.4a32.44,32.44,0,0,0,4-5.7c.9-2,2.3-4,3.1-6v-3.7a7,7,0,0,0-1.2-4l-4.6-1a7.6,7.6,0,0,0-3.6,2,14.46,14.46,0,0,0-3.1,3.4,32.52,32.52,0,0,0-3.4,6.7c-.8,2.3-1.8,4.6-2.4,7a17.65,17.65,0,0,0,2.2,6.7l2.7.6,1.5-1A28.79,28.79,0,0,0,229.47,239.19Z" transform="translate(-112.17 -74.71)"/><path class="cls-2" d="M275.27,253.09a22.08,22.08,0,0,1-4.8-2.5,10.92,10.92,0,0,1-3.1-4.6c-1.9-3.3-1.5-8.4-1.7-9.6,0-2.4.5-4.5.7-6.9a17,17,0,0,1,2.5-6.8c1-1.7,1.9-3.8,3.2-6.1a23.21,23.21,0,0,1,5.3-5.1,73.1,73.1,0,0,1,6.5-4.3,14.47,14.47,0,0,1,7.5-2.3,21.57,21.57,0,0,1,6.8,1.2c1.9,1.2,4.2,1.7,6.2,3.3s2.2,2.9,2.8,4.3a20.18,20.18,0,0,1,.9,6.2,15,15,0,0,1-2.9,8.1,25.93,25.93,0,0,1-5.9,5.3,30.87,30.87,0,0,1-7,2.5,37.14,37.14,0,0,1-8.1,1.4l-8.4-1.7a9.16,9.16,0,0,0-.8,4.3l.4,2.1s1.5,2.6,3,3.4c3,.5,6.4,0,11.9-.8,2-.6,4.1-.6,6.1-1.3a16.83,16.83,0,0,0,5.3-2.8,25.32,25.32,0,0,1,5.7-2.9l.8,2.2-1.5,4.6a20.37,20.37,0,0,1-5.7,4.9,45.66,45.66,0,0,1-6,2.8c-2.6,1.4-5.5,2.7-13.5,2.8C279.17,255,276.77,253.79,275.27,253.09Zm19.7-35.4c-.7-1.2-1.4-1.5-2.6-.9a20.09,20.09,0,0,0-4.9,1,14.73,14.73,0,0,0-4.7,2.3,9.72,9.72,0,0,0-3.9,5.3l-.5,1.8.3,1a12,12,0,0,0,6.6.4c1.4-.3,2.5-1.3,3.9-1.9s3.5-1.1,4.3-2.4A15.86,15.86,0,0,0,295,217.69Z" transform="translate(-112.17 -74.71)"/><path class="cls-2" d="M371,252.59c-1.4-1-3.3-1.4-2.2-9.1l.7-6.6-.3-5.1.8-46.5-1.1-4a2,2,0,0,1,2.6-1c1.7.39,4.5-.21,12.6,1.5l6.8.9a25.55,25.55,0,0,1,11.5,3.29,73.16,73.16,0,0,1,9.8,7c3,3.1,6,5.7,8.9,8.7a21.07,21.07,0,0,1,4.5,9.1,82.13,82.13,0,0,0,1.6,10.3c.5,3.7.9,7.1,1.3,10.7-1.1,2-2,4.1-3,5.7a32.47,32.47,0,0,1-4.4,5.4c-1.6,1.6-5.4,4.6-12.4,6-4.5.9-8,.8-11.5,1.8a64.19,64.19,0,0,1-10.8,1.9,85.08,85.08,0,0,0-11.5,2.6A7.85,7.85,0,0,1,371,252.59Zm45.3-26.8-.2-7.7c-.2-2-.9-4.1-1.4-6.5a21.22,21.22,0,0,0-2.9-5.6c-1.7-1.7-3.1-3.5-4.8-5.2s-3.7-3-5.4-4.3c-2-1-4-2-6.1-3a25.61,25.61,0,0,0-6.4-1.8,15.68,15.68,0,0,1-4.3.4,5.54,5.54,0,0,0-3.7,2.4l-1,6.7.7,3.1-.7,19.5.4,7.1-.2,9.2,1,1.4c3.6.4,7.4-1.9,11.4-2.9,3.4-1,6.9-1.3,10.9-2.4,4.3-1.1,6.6-3.7,10.2-5.5Z" transform="translate(-112.17 -74.71)"/><path class="cls-2" d="M443.17,251.09l-.5-27.2c0-15-.7-16-.9-17.7a3.78,3.78,0,0,1,3.8-1,22,22,0,0,0,4.5,1.7,10.17,10.17,0,0,1,4,2.3,14.1,14.1,0,0,1,2.5,6.7,13,13,0,0,0-2.2,4.4,40.31,40.31,0,0,0-.5,5l.3,3.6c-.3,3.1-.6,6.4-.6,9.4,0,0-.3,3.8-.6,6.8a24.13,24.13,0,0,1-3.5,8.4,3.79,3.79,0,0,1-3.7,1A6.54,6.54,0,0,1,443.17,251.09Zm1.7-62c-1.8-1.1-2.2-3.61-2.5-5.61a7.08,7.08,0,0,1,1.1-6.5c2.6,1,5.3,1.1,7.9,1.5,0,0,3.3,1.2,5.7,2.2l.6,3c-1.1.69-1.7,2.89-2.7,3.89-.9,1.3-2,2.41-5.3,2.8Z" transform="translate(-112.17 -74.71)"/><path class="cls-2" d="M489.27,253.19a81.16,81.16,0,0,1-8.1-2.2,21.55,21.55,0,0,1-7.6-4.1,6.35,6.35,0,0,1-1.4-5.1l.7-1.9,1.3-.3a24.51,24.51,0,0,0,4.9,2.8c1.3.7,5.1.8,8,1.2s6.1.6,11.8-.8c1.4-1.7.4-4.5.4-4.5a30.22,30.22,0,0,0-6.5-3.2,19.11,19.11,0,0,0-7.2-1.6,9.08,9.08,0,0,1-7-3c-1.1-1.9-2-3.7-3.1-6a25.88,25.88,0,0,1-2.3-5.9,15.84,15.84,0,0,1-.7-6.8c.3-1.5,2.5-4.4,3.8-5.5a29.54,29.54,0,0,1,11.8-1.2c3.9.4,6.6,1.6,9.9,1.9a38.8,38.8,0,0,1,10,2.6,5.86,5.86,0,0,1,1.3,4.6l-1.8,1.7h-3.9s-7.8-1.4-9.9-1.4c-3.4.7-7.4,1.5-8.5,3.5a37.41,37.41,0,0,0-1,3.7l1,2.5a33,33,0,0,0,8.9,2.8,50.85,50.85,0,0,1,8.5,3.5,39.49,39.49,0,0,1,7.8,5.8c.9,1.5,1.9,3.1,2.6,4.6a42.9,42.9,0,0,1,.7,5.9c-.4,2.2-1.8,3.7-3.6,5.3a16.74,16.74,0,0,1-6.1,2.3,25,25,0,0,1-6.6.9A68.58,68.58,0,0,1,489.27,253.19Z" transform="translate(-112.17 -74.71)"/><path class="cls-2" d="M523.67,252.09l-.9-17.1V223a105.69,105.69,0,0,1,2-16.7c-.1-2.1.5-6.6.8-12.3s.8-11.11,1.1-16.7l.8-2,1.9-.4,8.7,2.7a7.56,7.56,0,0,1,1.7,6,22.82,22.82,0,0,0-2.6,6.71c-.2,2.7-.5,5.4-.5,7.7l-.8,8.1,2.2,1a16,16,0,0,1,5.8-2,36.57,36.57,0,0,1,6.6-.4l6.3,2.7a18,18,0,0,0,2.8,3.7,8.8,8.8,0,0,1,1,4.3,45.33,45.33,0,0,0,.3,9.4c.4,2.7.8,5.4,1.3,12.2.4,2.7,1.1,5.4,1.5,8.1-.4,1.6-.4,3-.9,4.6a11.9,11.9,0,0,1-1.7,4.4l-5.5.7c-1.9-1-2.8-2-3-3.7a50.34,50.34,0,0,1-2.1-11.7c-.7-8.2-1.4-10.8-2-14.9a115,115,0,0,0-2.6-11.3l-2.3-.7a25.49,25.49,0,0,0-4.3,2.3,21,21,0,0,0-3.6,3.7,14,14,0,0,0-1.5,6.7c0,2.3.4,5.3-.3,7.8l.5,6.4c0,2.3-.3,5-.5,7.3a62.18,62.18,0,0,1-1.9,7.1,9.17,9.17,0,0,1-6,1Z" transform="translate(-112.17 -74.71)"/><line class="cls-2" x1="499.25" y1="147.08" x2="1565.75" y2="147.08"/><polygon class="cls-3" points="1565.75 142.39 1565.25 142.13 1563.94 142.86 1565.75 142.39"/><path class="cls-3" d="M1669.33,218.72c.26.13.13.35.39.49l5-2.08C1672.51,216,1670.82,219.51,1669.33,218.72Z" transform="translate(-112.17 -74.71)"/><path class="cls-3" d="M1667.85,218.51a3.17,3.17,0,0,0-3.22.82C1665.31,218.58,1668.27,219.56,1667.85,218.51Z" transform="translate(-112.17 -74.71)"/><path class="cls-3" d="M1495.59,219a6,6,0,0,0,.61-.07A1,1,0,0,0,1495.59,219Z" transform="translate(-112.17 -74.71)"/><path class="cls-3" d="M1450.65,222.31l-.47.77c8.39-1.38,17.85,0,26.71-.58l-.6.28c22.51.3,43.26-1,65.59-1.59-.35.08-.46.31-.82.4a11.7,11.7,0,0,1,3.47-.7c.32.17-.33.36-.72.44,4.71,1.28,13.85-.82,16.8.17,1.32-.13,1.91-.67,1.17-1.08,17.47-.32,36.17-.57,54-1.58.86.18,1,.53.78,1,15.21-2.08,31.16-1.25,46.72-.92.6-.54-1.59-.58,0-1.15-5-.68-9.17,1.35-13.71.35l.58-.53c-3.3-.34-.66,1.33-4.09.65-1.35-.44.34-.67-.29-.71-7,.22-14.34-.26-21,1-1.64-1.15-7.54,0-10.14-1.14-1.82.45-3.64.34-4.33,1.1-24.57-.61-49.66.5-74.83.42-11.78,2.22-25.88-.43-39.86.31-.1-.08-.08-.16,0-.22a110.12,110.12,0,0,1-16.63.53l-4.61.94c-32.73-1.93-66.17-.58-99.41-1.38-37.78-.55-70.87-2.15-107.66.77,0-.21-.25-.33.7-.42-10.61.45-20.29-.35-30.28.11l0-.22c-24.81,1.83-51.64-.24-75.55,1.73-29.12-.2-62,0-92.85.57l.07-.44c-24.66.93-48.48-1.41-73.09-.7-25.3-1-52,2.52-77.55,1.18-15.78-2.16-36.52,2.47-51.35.23-30.47-3.37-60-1.2-90.48.82-28.1-1.2-56.16,1.89-83.37-.57-12.89,1.58-27.14-1.94-41.48-1.49l.51.55c-5.15-1.66-11.48,2.31-14.69-.15l.54-.11c-2.73-1.25-6.33,2.94-8,1.46L630,223c-3.3.18-.39-.7-2.94-.94-1,.07-.36,1.12-2.36.77-.44-2.53-8.09.54-8.32-2.29,1.81,0-2.83-1.1,1.23-1.69-1.16-.29-6.69-.15-6.2,1-.47,1.28-2.63,2.39.73,3.38l.68-.93c1.13.93.86.46,1.27,1.16,4.39.12,5,1.47,8.13,2,0,0-.06-.05,0-.1,2.16-1.11,5.14-.45,6.84-.29l.68.52c1,1.08,5-2.12,3.67-.26,8.93-.46,19.17-.44,29.15-.46,1.4-.71,7.64.06,5.46-1.3,2.5,1.55,9.93,2,12.69,1.89a.58.58,0,0,1-.66.25c5.35,2,6.35-1.86,11.36.6.78-1.74,9.11.55,11.94-1.49.62.39.83.73.6,1,9,0,19,.67,26.64.75,6.53-1.53,15.8.69,21.41-1.42,4.65.45,12.18,1.33,18.67.48L770,226c7.32-.12,16.47-.23,21.5-1.56,2.16,2,5.33,1.62,8.49,2.26,4.89-.93,14.76-.66,22.22-1.51,1.15.93,6.16-.39,6.54,1,20.91-2.61,46.76-1.7,69.08.28l-.32.09c2.89-.74,6.23-2.38,9.18-3.34.29.12.25.35-.36.34,4.07-.25,7.89,1.07,12,.83,0,.22,0,.22-.7.43,3.83-.6,7.9,1.08,12.41,0l.26.36,2.86-.5c-.07.44-.18,1.11-1.71,1,35,.43,71.13-1.88,107.07-1.55l-1.32.42,7-.75c0,.22-.37.33-.7.43,8.87.76,18.09-.5,26.74-.31,0,.22-1.35.65-.14.89,6.4-1.21,10.28,1.59,13.49-.94.3.12.5.68-.15.89,17.81-.84,36.11-.79,54.06-.38,14.94-2.29,31.65-.22,47.18-2l-.08.46c20.1-1.6,41.43.11,62.26-.21,8.65.18,14.5-.36,23.19-.39l.22.57c14.63-2.17,30.76,1.95,46-.44l-1.06.78c2.37-1.2,9.24.42,8.34-1.63l2.69.62c10.37-2.71,18.88,1.25,31.59-.51l-.84.49c3.38-.38,7.32-.68,9.83-.23-.39.07-.21.21-1,.34,10.58,1.93,22.36-.2,33.53-.13l-1.27.91c5.4-1.07,15.3-.08,22.4-.56l-.43.42,3.59-.6.09.86C1433,223.15,1441.64,222.41,1450.65,222.31Z" transform="translate(-112.17 -74.71)"/><path class="cls-3" d="M1543.81,221.33a.38.38,0,0,1-.1,0C1543.43,221.38,1543.57,221.37,1543.81,221.33Z" transform="translate(-112.17 -74.71)"/><path class="cls-3" d="M623.36,225.74c-.42-.05-.78-.11-1.13-.18C622.31,225.74,623,225.7,623.36,225.74Z" transform="translate(-112.17 -74.71)"/><path class="cls-2" d="M1644.12,95.55a11.75,11.75,0,0,1,2.24,2.38,29.94,29.94,0,0,1,6.26,12.62,25.49,25.49,0,0,1-1.57,15.37c-3,7.21-7.93,12.81-14.11,17.41a47.4,47.4,0,0,1-14.4,7.39c-.12,0-.24,0-.36.06-.71.19-1-.22-1.25-.81.23-.45.72-.44,1.1-.6s.55-.2.81-.32c.43-.14.85-.33,1.27-.49s1.07-.45,1.6-.69a.92.92,0,0,1,.39-.11.86.86,0,0,0,1.07-.46,2.05,2.05,0,0,1,.75-.56,29.18,29.18,0,0,0,4.92-3.08.87.87,0,0,1,.61-.19c.53,0,.76-.45,1-.8.73-.79,1.68-1.3,2.45-2a2.09,2.09,0,0,1,.22-.2,5,5,0,0,0,.83-.7,7.33,7.33,0,0,1,.65-.6c.32-.18.53-.5.88-.62a.55.55,0,0,0,.49-.5c.27-.6.89-.91,1.2-1.47.76-.9,1.61-1.72,2.32-2.68a29.45,29.45,0,0,0,2-2.89c.21-.3.41-.61.61-.92a39,39,0,0,0,1.94-3.74,15.23,15.23,0,0,0,.64-1.75l.07-.18a5.24,5.24,0,0,0,.29-.64,13,13,0,0,0,.49-1.61c.29-1,.45-2,.73-2.92a2.22,2.22,0,0,0,.1-1.17c0-1.15,0-2.3,0-3.44a16.4,16.4,0,0,0-.15-1.72c0-.19-.06-.38-.09-.57a23.18,23.18,0,0,0-1.84-6.2,32.53,32.53,0,0,0-2.3-4.22c-.14-.25-.33-.46-.48-.7a.81.81,0,0,1,0-.31c.21-.66-.18-.89-.72-1-.72-.33-1-1-1.5-1.62a.75.75,0,0,1-.08-.18c0-.43-.3-.48-.58-.6a.35.35,0,0,1-.13-.37A4.19,4.19,0,0,1,1644.12,95.55Z" transform="translate(-112.17 -74.71)"/><path class="cls-2" d="M1510.79,176.38a39.06,39.06,0,0,1-1.66-4,63.09,63.09,0,0,1-3.37-10.93c-1.71-9,.27-17.28,5.32-24.87.35-.53.71-1,1.07-1.57a8.2,8.2,0,0,1,1.1-1.39c.31.1.35-.18.48-.34.62-.41,1.09-.24,1.32.48a.44.44,0,0,1-.07.19,1.88,1.88,0,0,1-.64.26l-.27.09c-.16,0-.3.12-.15.28s.13-.13.25-.1a.36.36,0,0,1,.2.06.46.46,0,0,1,.08.19,2.91,2.91,0,0,1-.68,1.27,35.89,35.89,0,0,0-4.19,8.63c-.13.39-.32.76-.48,1.14a1,1,0,0,0-.11.56c-.14.34-.06.79-.48,1a.19.19,0,0,1-.12-.15c-.08.09,0,.13.06.18a.56.56,0,0,1,.16.21,18.44,18.44,0,0,1-.42,2.86,7.46,7.46,0,0,1-.14.93,2.28,2.28,0,0,0-.09.86,27.5,27.5,0,0,0-.07,5c.13.54,0,1.1.15,1.63a49.63,49.63,0,0,0,1.5,7.23c.25.91.51,1.82.82,2.72.19.67.48,1.32.63,2a1.23,1.23,0,0,1,0,.2,2.63,2.63,0,0,1-.26,1.38c.21.23.49,0,.68.17a1.27,1.27,0,0,1,.4.65,6.61,6.61,0,0,1,.42,1.86C1511.83,175.54,1511.6,176.27,1510.79,176.38Z" transform="translate(-112.17 -74.71)"/><path class="cls-2" d="M1573.14,209.24a21.47,21.47,0,0,1-4.27.89,59.63,59.63,0,0,1-12.45.6,53.76,53.76,0,0,1-21.31-5.52c-.13-.07-.27-.11-.32-.27.16-.72.81-1,1.27-1.5a.68.68,0,0,1,.54-.1,50.41,50.41,0,0,0,6.75,2.46,46.69,46.69,0,0,0,6.08,1.43,7.53,7.53,0,0,0,1,.16,49.09,49.09,0,0,0,5.79.66c.5,0,1-.17,1.48.24,0,.17-.1.18-.22.2-.32,0-.64,0-.81,0a5.71,5.71,0,0,1,.67,0,1,1,0,0,1,.22.09c1.64.12,3.29,0,4.94,0a.89.89,0,0,0,.72-.42,17.63,17.63,0,0,1,2.3-.29,5.09,5.09,0,0,0,1.35-.09c.39-.09.8,0,1.18-.14a7.4,7.4,0,0,1,.81-.08,11.31,11.31,0,0,1,1.3-.19c.27-.06.54,0,.81-.1l.2,0a.77.77,0,0,1,.3,0,1.35,1.35,0,0,1,.26.15c.38.34.72.72,1.1,1.05C1573,208.69,1573.23,208.9,1573.14,209.24Z" transform="translate(-112.17 -74.71)"/><path class="cls-2" d="M1559.39,81.41a74.64,74.64,0,0,1,8.4-4.18,35,35,0,0,1,11-2.38,72.54,72.54,0,0,1,15.51.73,40.35,40.35,0,0,1,5.22,1,.32.32,0,0,1-.14.14,2.66,2.66,0,0,0-1.48.43,1.92,1.92,0,0,1-.88-.2.8.8,0,0,0-.42-.13c-2.21.07-4.38-.41-6.6-.34a29.79,29.79,0,0,0-3.13-.07c-2.1.3-4.21-.13-6.31.34-1,.23-2.18,0-3.2.5a4.45,4.45,0,0,1-1.48.35A38.27,38.27,0,0,0,1563.82,82c-.32.17-.64.35-1,.51-1.52.8-3,1.7-4.42,2.62a2.17,2.17,0,0,1-.9.44,5.5,5.5,0,0,1-1.41-1.09c0-.3.19-.43.37-.59a19.15,19.15,0,0,0,2-2A1.47,1.47,0,0,1,1559.39,81.41Z" transform="translate(-112.17 -74.71)"/><path class="cls-2" d="M1611.2,79.07a58.55,58.55,0,0,1,9.55,2.57,69.74,69.74,0,0,1,13.43,6.1,51.28,51.28,0,0,1,6.22,4.34c.27.22.51.5.77.75s.24.24.06.4a1.82,1.82,0,0,1-.67.39h-.12c0,.11.1.07.16.1a.34.34,0,0,1,.2.19.43.43,0,0,0,.26.33c1,.4,1.15.6.92,1.66a.51.51,0,0,1-.47.25.37.37,0,0,1-.27-.18.51.51,0,0,1,0-.32c0-.21.31-.4,0-.62a.19.19,0,0,0-.33.08c-.18.18-.36.08-.55,0a.81.81,0,0,1-.37-.34c-.26-.34-.44-.77-.94-.85a.42.42,0,0,1-.16-.11,2.61,2.61,0,0,0-1.7-1.32,12.1,12.1,0,0,1-2-1.38c-1.13-.77-2.35-1.42-3.43-2.27-.1-.2-.22-.36-.48-.32a.31.31,0,0,1-.27-.24c0-.14.12-.16.16-.25-.14,0-.19.11-.29.16a3.5,3.5,0,0,1-1.58-.68,6.24,6.24,0,0,0-1.1-.54,3.06,3.06,0,0,1-1-.71,8.45,8.45,0,0,0-4.34-1.93c-1.92-.69-3.81-1.47-5.74-2.15a66.7,66.7,0,0,0-7.45-2l-.21-.11a.84.84,0,0,1-.23-.23,2.9,2.9,0,0,0-.6-.79c-.18-.16-.37-.36,0-.54a1.34,1.34,0,0,1,.66,0,.91.91,0,0,1,.38.19c.32.28.56.77,1.11.31C1610.85,78.89,1611,79,1611.2,79.07Z" transform="translate(-112.17 -74.71)"/><path class="cls-2" d="M1556.2,84.5a3.19,3.19,0,0,1,1.28,1c0,.42-.35.47-.64.58a.48.48,0,0,0-.56.42c-.84.87-1.89,1.47-2.8,2.25a14.25,14.25,0,0,1-1.93,1.53c-.42.25-.89.46-1.09,1a3.3,3.3,0,0,1-.65.79,1.69,1.69,0,0,1-.67.48c-.16,0-.38,0-.45.18-.38.79-1.2,1.23-1.54,2-.3.37-.85.54-.85,1.13a13.26,13.26,0,0,0-1.72,2.37c0,.09-.11.2-.2.2-.52,0-.39.35-.34.65a1.78,1.78,0,0,1,0,.65,19,19,0,0,0-1.19,3.26,48.54,48.54,0,0,0-1.53,7.66A3.71,3.71,0,0,1,1541,112c-.22.24-.42.33-.42-.11a32.19,32.19,0,0,1,.05-3.26,25.57,25.57,0,0,1,5.14-15.26c1.3-1.72,2.8-3.27,4.24-4.87a.37.37,0,0,1,.19-.09,2.1,2.1,0,0,0,2.68-.76c.75-.88,1.66-1.61,2.44-2.48A1.56,1.56,0,0,1,1556.2,84.5Z" transform="translate(-112.17 -74.71)"/><path class="cls-2" d="M1573.14,209.24c-.39-.73-1.14-1.12-1.65-1.74,0-.19.16-.24.31-.28a1.47,1.47,0,0,0,.71-.18,12.78,12.78,0,0,1,1.5-.41,21.22,21.22,0,0,0,3-.83,38.48,38.48,0,0,0,12.35-6.12c.47-.27.82-.73,1.37-.88.57-.45,1.12-.14,1.67,0,0,0,.06.08,0,.11s0,.06,0,.06a40.46,40.46,0,0,1-18.87,10.19A2.09,2.09,0,0,1,1573.14,209.24Z" transform="translate(-112.17 -74.71)"/><path class="cls-2" d="M1536.18,203.54l-1.39,1.4a12.2,12.2,0,0,1-2.81-1.49,27.2,27.2,0,0,1-8.58-7.68,13.68,13.68,0,0,1-1.34-2.24,1,1,0,0,1,0-.61c-.11.07-.07.29-.26.25l-.06,0c-.31-.14-.38-.47-.55-.73-.3-.6-.58-1.22-.88-1.84a4.69,4.69,0,0,0-.42-1,5.39,5.39,0,0,1-.3-.52,2,2,0,0,1-.21-.67,1.71,1.71,0,0,0-.24-.65,23.85,23.85,0,0,1-.89-2.36.66.66,0,0,1,.41-.6c.4,0,.45.4.59.65.83,1.48,1.55,3,2.37,4.48a1,1,0,0,1,.11.17,7.56,7.56,0,0,0,.71,1.31,1.56,1.56,0,0,1,.2.56c.1.21-.15.64.37.59.77.71,1.17,1.71,1.89,2.46.34.54.88.91,1.18,1.48,0,.54.48.61.85.78s.72.68,1.15.93.78.61,1.18.88c.61.51,1.3.9,2,1.35l.16.12a1.3,1.3,0,0,1,.34.36c.34.41.58,1,1.31.75a1.85,1.85,0,0,1,.88.33.51.51,0,0,1,.19.25.27.27,0,0,1-.08.19c-.1.1-.27.09-.38.27.29,0,.33-.24.46-.36.72-.14,1.17.45,1.77.64C1536.1,203.12,1536.26,203.27,1536.18,203.54Z" transform="translate(-112.17 -74.71)"/><path class="cls-2" d="M1605.15,156.47a71.9,71.9,0,0,1,.78,7.31,4.45,4.45,0,0,1,.19,1.58,47.7,47.7,0,0,1-.3,7.27,10.79,10.79,0,0,1-.49,2.71,56.55,56.55,0,0,1-1.63,6c-.4-.11-.3-.45-.32-.72s0-.63,0-.94c0-.72.27-1.4.31-2.12a7.21,7.21,0,0,0,.15-.93c.19-1.11.28-2.24.43-3.36a.92.92,0,0,1,.09-.23c.26-.44.11-.93.15-1.4a2.36,2.36,0,0,1,.12-.91,1.45,1.45,0,0,0,.17-.91v-3.63a7.53,7.53,0,0,0-.15-2.32c-.22-.61,0-1.34-.6-1.83a.61.61,0,0,1-.07-.35,5.21,5.21,0,0,0-.24-2.57,2.54,2.54,0,0,1,.57-2.43.26.26,0,0,1,.19.12.51.51,0,0,1,.09.27,7.78,7.78,0,0,0,.26,3.12,6.3,6.3,0,0,1,0-3.4C1604.91,156.64,1604.94,156.48,1605.15,156.47Z" transform="translate(-112.17 -74.71)"/><path class="cls-2" d="M1604.63,154a4.17,4.17,0,0,1,.27,1.26c.08.16,0,.32,0,.47-.09.44-.28.33-.48.07-.28,0-.2.49-.54.39s-.06-.49-.36-.56a.31.31,0,0,0-.43,0c-.15,0-.2-.17-.25-.3-.09-.32-.16-.64-.26-1-.3-1.15-.64-2.28-1-3.41-.28-.69-.46-1.41-.75-2.09a18.71,18.71,0,0,1-.91-2.54,3.54,3.54,0,0,1,.37-1.56c.31-.33.1-.82.34-1.17s.49,0,.72.16a6.75,6.75,0,0,1,1,2.06,32.9,32.9,0,0,1,1.78,5.29,3.28,3.28,0,0,1,.08.41c0,.23.13.44.18.66a2.29,2.29,0,0,0,.08.64c.06.19.14.37.19.56A.65.65,0,0,1,1604.63,154Z" transform="translate(-112.17 -74.71)"/><path class="cls-2" d="M1534.37,117a29.83,29.83,0,0,1,6.15-2.63c.2,0,.32-.23.49-.32a10.23,10.23,0,0,1,1.88-.58,4.17,4.17,0,0,1,1-.16c1.13.47,2.33.08,3.48.28.43.08.78-.18,1.17-.27.67,0,1.35,0,2,0a1.48,1.48,0,0,0,.9-.2,6.08,6.08,0,0,1,2.25,0c.2.1.54.1.48.42s-.31.38-.55.44a6.16,6.16,0,0,1-2,0c-.12,0-.23-.08-.35-.08.14,0,.21.1.15.26a1.36,1.36,0,0,1-1,.29,37,37,0,0,0-5.86.53c-.55-.15-1.17,0-1.67-.35,0,0,0-.14-.07,0-.07.43-.14.47-.63.51a3.37,3.37,0,0,0-1.39.26c-.22.11,0,.2-.07.26-.2.29-.53.31-.82.4-1.22.41-2.44.8-3.62,1.29a1.59,1.59,0,0,1-.91.21c-.29-.18-.53-.5-1-.34C1534.44,117.21,1534.31,117.13,1534.37,117Z" transform="translate(-112.17 -74.71)"/><path class="cls-2" d="M1510.79,176.38c.59-.3.83-1,1.35-1.33a2.62,2.62,0,0,1,.78,2.12c-.07.23-.37,0-.39.13,0,.28-.37.61-.12.81s.23-.16.27-.32,0-.19,0-.28a.64.64,0,0,1,.13-.26c.32-.07.3.22.41.37s.12.26.17.39c.56,1.37,1.14,2.73,1.82,4.05a2.11,2.11,0,0,1,.35.94c-.14.41-.37.81,0,1.22.14.15.06.37,0,.55a.22.22,0,0,1-.15.12,36,36,0,0,1-4.63-8.22A.92.92,0,0,1,1510.79,176.38Z" transform="translate(-112.17 -74.71)"/><path class="cls-2" d="M1621,150c.42.22.58.87,1.21.75l-1.06.4c-.42.22-.9.26-1.33.45-1.11.13-2.15.59-3.28.65-.37.07-.79-.18-1.14.14a21,21,0,0,1-2.35.41,9.37,9.37,0,0,1-1.3,0h-2.11c-.29,0-.6,0-.81-.24a.39.39,0,0,1,0-.26c.37-.32.84-.17,1.26-.25.74-.13,1.49-.21,2.23-.33a7.78,7.78,0,0,0,1.08-.14,57.17,57.17,0,0,0,5.62-1.3,5.7,5.7,0,0,0,.55-.16C1620,150.1,1620.45,149.74,1621,150Z" transform="translate(-112.17 -74.71)"/><path class="cls-2" d="M1592.44,199v-.12c-.32-.24-1-.2-.7-.93.28-.53.88-.74,1.22-1.22,1.43-1.33,2.79-2.75,4.13-4.17.18-.19.33-.43.61-.5s.38.24.33.51a1.59,1.59,0,0,1-.07.2,7.05,7.05,0,0,1-1.66,2A40.36,40.36,0,0,1,1592.44,199Z" transform="translate(-112.17 -74.71)"/><path class="cls-2" d="M1534.37,117c.34.16,1-.3,1,.47,0,.35-.32.41-.55.51a53.07,53.07,0,0,0-7.81,4.32,1.52,1.52,0,0,1-.86.35c-.12,0-.21-.09-.16-.23A46.22,46.22,0,0,1,1534.37,117Z" transform="translate(-112.17 -74.71)"/><path class="cls-2" d="M1641.42,96.07l.48-.16c.6-.91.43-1.43-.58-1.81-.2-.08-.43-.06-.59-.24h-.3a.2.2,0,0,1,0-.29c.19-.3.79-.19.73-.74a12.32,12.32,0,0,1,2.95,2.72,13.17,13.17,0,0,1-1.53,1.55.16.16,0,0,1-.17-.06c0-.58-.32-.75-.83-.74A.24.24,0,0,1,1641.42,96.07Z" transform="translate(-112.17 -74.71)"/><path class="cls-2" d="M1517.8,187.94a22.42,22.42,0,0,1-2.34-3.05l0,0c.37-.06.33-.66.79-.59a12.57,12.57,0,0,1,1.72,3C1518,187.47,1518.27,187.83,1517.8,187.94Z" transform="translate(-112.17 -74.71)"/><path class="cls-2" d="M1603.6,78.05h.84l.27,0c.19.14.44,0,.63.12,0,.46-.31.64-.62.85a1,1,0,0,1-.46,0c-.67-.11-1.35-.2-2-.27l-.23,0c-.47-.17-1.08,0-1.42-.49,0-.4.34-.37.59-.35C1602,78,1602.8,78,1603.6,78.05Z" transform="translate(-112.17 -74.71)"/><path class="cls-2" d="M1601.79,185.55l.61-2a14.62,14.62,0,0,1,.32-1.46c.18-.52.3-1.06.43-1.59.13-.24,0-.64.4-.74.16.53-.17,1.1.15,1.62a23,23,0,0,1-1.76,4.38C1601.81,185.74,1601.72,185.71,1601.79,185.55Z" transform="translate(-112.17 -74.71)"/><path class="cls-2" d="M1603.67,77.65c-.27.26-.55,0-.81,0-1.29-.18-2.57-.39-3.86-.59.23-.06.15-.43.44-.44l.08,0A24.83,24.83,0,0,1,1603.67,77.65Z" transform="translate(-112.17 -74.71)"/><path class="cls-2" d="M1541,114.2c-.13.12-.24.28-.44.13.17-.24,0-.51,0-.77a31.84,31.84,0,0,1,.08-5c0,1,0,2.11,0,3.16,0,.35.09.31.28.11.28.24.22.56.16.86C1541,113.21,1541.07,113.71,1541,114.2Z" transform="translate(-112.17 -74.71)"/><path class="cls-2" d="M1517.8,187.94c.21-.25,0-.53.06-.79a.28.28,0,0,1,.2,0,12.42,12.42,0,0,1,1,1.41c.18.44.59.75.68,1.24a.34.34,0,0,1-.09.19c-.73,0-.79-.69-1.17-1.06Z" transform="translate(-112.17 -74.71)"/><path class="cls-2" d="M1597.87,192.62c0-.18.19-.47-.21-.48a.33.33,0,0,1,0-.29c.27-.27.43-.67.82-.82l.72-.9c.13-.2.21-.45.52-.42a14,14,0,0,1-1.12,2C1598.43,192.08,1598.4,192.54,1597.87,192.62Z" transform="translate(-112.17 -74.71)"/><path class="cls-2" d="M1604.45,155.59l.22.31.23-.63a3.52,3.52,0,0,1,.25,1.2l-.12.29a.41.41,0,0,1-.58,0h0A.93.93,0,0,1,1604.45,155.59Z" transform="translate(-112.17 -74.71)"/><path class="cls-2" d="M1610.27,78.81c.23.18.51.1.76.12l.17.14c-.15,0-.36,0-.43.05-.64.75-.88.09-1.21-.32A.47.47,0,0,1,1610.27,78.81Z" transform="translate(-112.17 -74.71)"/><path class="cls-2" d="M1521.84,193.17c.18-.16,0-.41.17-.62.31.32.15.65,0,1Z" transform="translate(-112.17 -74.71)"/><path class="cls-2" d="M1601.79,185.55l.15.17c-.16.27-.07.73-.56.74Z" transform="translate(-112.17 -74.71)"/><path class="cls-2" d="M1526,122.38l.18.16c-.06.35-.34.42-.62.5-.11,0-.19-.08-.14-.22Z" transform="translate(-112.17 -74.71)"/><path class="cls-2" d="M1525.45,122.82l.16.15c0,.08,0,.13-.09.14l-.51.23C1525,123,1525.27,123,1525.45,122.82Z" transform="translate(-112.17 -74.71)"/><path class="cls-2" d="M1528.8,147.26a2.09,2.09,0,0,1,1.2-1.85,1.16,1.16,0,0,1,1.45.06c.45.28.31.73.24,1.11a2,2,0,0,1-.7,1.3,1.75,1.75,0,0,1-.61.38C1529.3,148.78,1528.83,148.48,1528.8,147.26Z" transform="translate(-112.17 -74.71)"/><path class="cls-2" d="M1517.24,129.69l.16-.14c.16-.07.4,0,.4-.31a23.67,23.67,0,0,1,2.93-2.34c.23-.1.38-.05.41.22a.28.28,0,0,1-.23.23c-.28.26-.64.44-.74.85s-.24.38-.46.46l-.13.13a1.44,1.44,0,0,1-.73.75l-.3.28a8.66,8.66,0,0,1-1.52,1.68.37.37,0,0,1-.25-.1c-.26-.23-.07.16-.18.14-.22.23-.4.14-.52-.08a.48.48,0,0,1,.15-.65,1.42,1.42,0,0,0,.58-.7l.14-.13A.32.32,0,0,0,1517.24,129.69Z" transform="translate(-112.17 -74.71)"/><path class="cls-2" d="M1585,156.79a1.42,1.42,0,0,1,1.46.11c.21.07.36.19.3.45a.91.91,0,0,1-.31.72c-.25.19-.3.81-.76.55s-.1-.65,0-1a.3.3,0,0,0,0-.23c-.39.52-.15,1.26-.61,1.75a.44.44,0,0,1-.55-.25,1.32,1.32,0,0,1,0-1.58A1.08,1.08,0,0,0,1585,156.79Z" transform="translate(-112.17 -74.71)"/><path class="cls-2" d="M1528.22,135.23a.83.83,0,0,1-.72.47c-.18-.43.3-.73.2-1.21s-.11-.69-.73-.46c-.15.06-.33.08-.42.26l0,.19c-.16.48-.36,1,.51.82.24,0,.32.26.48.4l0,.1c-.67.53-1,.49-1.43-.15-.49-1.33,0-2.14,1.41-2.28C1528.58,133.61,1528.64,133.76,1528.22,135.23Z" transform="translate(-112.17 -74.71)"/><path class="cls-2" d="M1585.12,159.15c.11-.55.21-1.11.31-1.66a.67.67,0,0,1,.2-.45s.17,0,.23.1a.43.43,0,0,1,.1.53s0,.05,0,.06c-.26.23-.45.64-.18.78s.42-.24.5-.57.18,0,.21.13a.71.71,0,0,1-.14.49c-.17.23-.31.51-.59.63S1585.3,159.5,1585.12,159.15Z" transform="translate(-112.17 -74.71)"/><path class="cls-2" d="M1597.14,156.76a.11.11,0,0,1,0,.12c-.28.75-.53.92-1.21.81-.21-.23-.35-.48-.12-.78l.29-.45C1596.57,156.17,1596.88,156.37,1597.14,156.76Z" transform="translate(-112.17 -74.71)"/><path class="cls-2" d="M1555,161.75c.26.38,0,.77,0,1.15-.57-.12-.51-.66-.7-1a2.37,2.37,0,0,1,0-.46c0-.2,0-.41.19-.52.44-.06.44.29.52.56C1554.92,161.55,1554.79,161.66,1555,161.75Z" transform="translate(-112.17 -74.71)"/><path class="cls-2" d="M1573.69,160.85l-.64.17a.13.13,0,0,1-.13,0c.11-.28-.05-.47-.21-.66a.56.56,0,0,1,.22,0c.41,0,.81,0,1.23,0C1574.19,160.76,1573.86,160.72,1573.69,160.85Z" transform="translate(-112.17 -74.71)"/><path class="cls-2" d="M1597.14,156.76c-.33-.14-.63-.39-1-.3a.63.63,0,0,1,.74-.41C1597.21,156.14,1597.15,156.48,1597.14,156.76Z" transform="translate(-112.17 -74.71)"/><path class="cls-2" d="M1597.14,157.38c-.21.14-.43.27-.63.42s-.42.12-.51-.17c.6.08.79-.46,1.15-.75C1597.68,157.06,1597.1,157.21,1597.14,157.38Z" transform="translate(-112.17 -74.71)"/><path class="cls-2" d="M1572.7,160.49c.32,0,.53.16.35.53a.56.56,0,0,1-.5.11.54.54,0,0,1-.1-.58C1572.52,160.48,1572.56,160.27,1572.7,160.49Z" transform="translate(-112.17 -74.71)"/><path class="cls-2" d="M1585,156.79c.09.41,0,.48-.46.55C1584.54,157,1584.74,156.89,1585,156.79Z" transform="translate(-112.17 -74.71)"/><path class="cls-2" d="M1572.1,160.86c.13-.14.24-.29.46-.3,0,.19,0,.38,0,.57A.35.35,0,0,1,1572.1,160.86Z" transform="translate(-112.17 -74.71)"/><path class="cls-2" d="M1555,161.75c0,.07-.08.19-.13.2s-.14-.09-.15-.18a.26.26,0,0,1,.26-.33Z" transform="translate(-112.17 -74.71)"/><path class="cls-2" d="M1596.84,153.25c0-.29.23-.3.44-.29A.45.45,0,0,1,1596.84,153.25Z" transform="translate(-112.17 -74.71)"/><path class="cls-2" d="M1645.12,100.3l-.32-.58c.85.07,1.19.52.89,1.19Z" transform="translate(-112.17 -74.71)"/><path class="cls-2" d="M1624.65,149.52c-.36.32-.72.19-1.27.21C1623.89,149.29,1624.29,149.54,1624.65,149.52Z" transform="translate(-112.17 -74.71)"/><path class="cls-2" d="M1626.11,147.87l1.15-.53C1627.09,148,1626.69,148.13,1626.11,147.87Z" transform="translate(-112.17 -74.71)"/><path class="cls-2" d="M1651.11,120.39a1.26,1.26,0,0,1,0-1.11A1.06,1.06,0,0,1,1651.11,120.39Z" transform="translate(-112.17 -74.71)"/><path class="cls-2" d="M1633.54,143.53l1-.77C1634.35,143.18,1634.15,143.62,1633.54,143.53Z" transform="translate(-112.17 -74.71)"/><path class="cls-2" d="M1651.1,111.51a.6.6,0,0,1,0,.77A.63.63,0,0,1,1651.1,111.51Z" transform="translate(-112.17 -74.71)"/><path class="cls-2" d="M1643.37,98.09l-.6-.72C1643.22,97.4,1643.59,97.51,1643.37,98.09Z" transform="translate(-112.17 -74.71)"/><path class="cls-2" d="M1639.51,138.61l.62-.62C1640.18,138.46,1640,138.67,1639.51,138.61Z" transform="translate(-112.17 -74.71)"/><path class="cls-2" d="M1650.5,119.29a3,3,0,0,1,.16-1.18C1650.61,118.5,1650.85,118.94,1650.5,119.29Z" transform="translate(-112.17 -74.71)"/><path class="cls-2" d="M1515.49,133.34l-.56.62c-.09-.69-.53-.91-1.18-.6a.09.09,0,0,1-.15,0l.15-.29.85-.79c.51,0,.63-.39.77-.77a4.45,4.45,0,0,1,1.44-1.39.78.78,0,0,1-.44.79.4.4,0,0,0-.17.55c.07.15.22.17.33,0s.13-.22.28-.15l.17.18c-.17.34-.6.47-.73.86A1.57,1.57,0,0,1,1515.49,133.34Z" transform="translate(-112.17 -74.71)"/><path class="cls-2" d="M1512.05,137.09a.89.89,0,0,1,.25-1c.26-.28.81-.47.38-1-.09-.12.14-.22.27-.28s.18.06.23.17a1.11,1.11,0,0,1-.1,1.16A2.84,2.84,0,0,1,1512.05,137.09Z" transform="translate(-112.17 -74.71)"/><path class="cls-2" d="M1507.31,148.86c.5-.32.51-.3.59.16.12.65-.46,1.13-.31,1.79-.33-.08-.25-.31-.28-.48A1.72,1.72,0,0,1,1507.31,148.86Z" transform="translate(-112.17 -74.71)"/><path class="cls-2" d="M1511.37,172.56c-.81.11-.8.11-.57-.83a3.38,3.38,0,0,0,0-.78A1.38,1.38,0,0,1,1511.37,172.56Z" transform="translate(-112.17 -74.71)"/><path class="cls-2" d="M1507.31,148.86v1.47c-.1,0-.23.34-.27,0a5.6,5.6,0,0,1,0-1.53C1507.08,148.52,1507.21,148.89,1507.31,148.86Z" transform="translate(-112.17 -74.71)"/><path class="cls-2" d="M1514.33,134.52c-.31,0-.31.34-.5.48-.14-.84-.13-.86.5-.91A.29.29,0,0,1,1514.33,134.52Z" transform="translate(-112.17 -74.71)"/><path class="cls-2" d="M1507.45,161.48a1.58,1.58,0,0,1-.07-1.12C1507.65,160.75,1507.65,160.75,1507.45,161.48Z" transform="translate(-112.17 -74.71)"/><path class="cls-2" d="M1514.33,134.52v-.43c.19-.09.35-.34.6-.13a2.27,2.27,0,0,1-.58.76Z" transform="translate(-112.17 -74.71)"/><path class="cls-2" d="M1508.49,147.26a.4.4,0,0,1,0,.15c-.44-.21-.26-.5-.17-.85C1508.58,146.79,1508.43,147.05,1508.49,147.26Z" transform="translate(-112.17 -74.71)"/><path class="cls-2" d="M1513.6,133.35h.15c0,.21,0,.43-.23.52s-.18-.09-.21-.2Z" transform="translate(-112.17 -74.71)"/><path class="cls-2" d="M1562,208.4a4.24,4.24,0,0,1,1.18-.07c0,.37-.1.52-.49.52-1.62,0-3.24,0-4.87,0-.22,0-.45,0-.49-.29,1.27-.16,2.55,0,3.82-.08A1.74,1.74,0,0,0,1562,208.4Z" transform="translate(-112.17 -74.71)"/><path class="cls-2" d="M1562,208.4c-.18.23-.44.14-.67.14h-4s-.06-.06,0-.09,0,0,0,0l.34,0Z" transform="translate(-112.17 -74.71)"/><path class="cls-2" d="M1540.33,205.43c0,.1-.06.13-.08.13-.35,0-.76.25-1-.15s.22-.57.53-.33A3.31,3.31,0,0,0,1540.33,205.43Z" transform="translate(-112.17 -74.71)"/><path class="cls-2" d="M1541.39,205.89l-.75-.08C1541,205.51,1541.19,205.69,1541.39,205.89Z" transform="translate(-112.17 -74.71)"/><path class="cls-2" d="M1565.55,208.11c.43-.29.9-.09,1.35-.13A3.63,3.63,0,0,1,1565.55,208.11Z" transform="translate(-112.17 -74.71)"/><path class="cls-2" d="M1557.35,208.42s0,.09,0,.13h-1v-.13Z" transform="translate(-112.17 -74.71)"/><path class="cls-2" d="M1568.05,207.84c.25-.33.55-.16.83-.09Z" transform="translate(-112.17 -74.71)"/><path class="cls-2" d="M1570.23,207.54c.25-.3.58-.11.88-.15A1.49,1.49,0,0,1,1570.23,207.54Z" transform="translate(-112.17 -74.71)"/><path class="cls-2" d="M1552.83,86c1.74-1.3,3.47-2.62,5.31-3.76.16-.1.34-.18.51-.27a16.22,16.22,0,0,1-2,2.05c-.16.15-.37.24-.44.46-1.24,1.25-2.47,2.52-3.73,3.75-.71.69-1.28.71-2.3.19l.6-.56c1.08,0,1.65-.53,1.67-1.46C1552.47,86.19,1552.56,86,1552.83,86Z" transform="translate(-112.17 -74.71)"/><path class="cls-2" d="M1577.78,77.16h-.54a2.51,2.51,0,0,1,1.62-.54c2.39-.17,4.78-.37,7.19-.37a4.7,4.7,0,0,0,2.43-.2c.08,0,.31,0,.33,0,.18.39.52.23.76.21,2.4-.18,4.75.37,7.14.31.21,0,.39,0,.42.28-2.5-.12-5-.23-7.5-.36a79.55,79.55,0,0,0-11.65.56A.5.5,0,0,0,1577.78,77.16Z" transform="translate(-112.17 -74.71)"/><path class="cls-2" d="M1599.44,76.61c-.16.14-.06.52-.44.44l-1-.07C1598.39,76.45,1598.92,76.57,1599.44,76.61Z" transform="translate(-112.17 -74.71)"/><path class="cls-2" d="M1595.33,76.38a1,1,0,0,1-.72,0A.86.86,0,0,1,1595.33,76.38Z" transform="translate(-112.17 -74.71)"/><path class="cls-2" d="M1608.5,78.52l0,.12c.08.49.79.59.73,1.17a.6.6,0,0,1-.56.14c-.4-.11-.83-.1-1.23-.25s-.66-.08-1-.26a.21.21,0,0,1-.08-.19c.23-.29.27-.68.5-1a.81.81,0,0,1,.86.18h.3C1608.25,78.39,1608.39,78.37,1608.5,78.52Z" transform="translate(-112.17 -74.71)"/><path class="cls-2" d="M1623,84.36l-.16-.15a6.24,6.24,0,0,1,2.71.84c.6.31,1.36.48,1.69,1.2l-.27-.06a.42.42,0,0,1-.46-.23h0c-.41-.13-.9-.12-1.17-.57a1.24,1.24,0,0,1-.75-.3A4.56,4.56,0,0,1,1623,84.36Z" transform="translate(-112.17 -74.71)"/><path class="cls-2" d="M1640.73,93.86a1.52,1.52,0,0,1,1.6.86c.3.6.14,1-.43,1.19a3.74,3.74,0,0,0-.06-1,.65.65,0,0,0-.74-.45C1640.55,94.52,1640.4,94.34,1640.73,93.86Z" transform="translate(-112.17 -74.71)"/><path class="cls-2" d="M1637.52,92.74l-.3-.34a2,2,0,0,1,1.75,1.41Z" transform="translate(-112.17 -74.71)"/><path class="cls-2" d="M1640.87,95c-.19-.51.24-.17.34-.22s.35.08.38.29a.44.44,0,0,1-.27.51A.74.74,0,0,1,1640.87,95Z" transform="translate(-112.17 -74.71)"/><path class="cls-2" d="M1640.87,95c.16.19.41.3.45.58v.31l-.93-.87C1640.55,95,1640.72,95.19,1640.87,95Z" transform="translate(-112.17 -74.71)"/><path class="cls-2" d="M1640.12,94.81a6.19,6.19,0,0,1-1-.93C1639.79,93.78,1639.89,94.36,1640.12,94.81Z" transform="translate(-112.17 -74.71)"/><path class="cls-2" d="M1631.06,88.33l-.15-.11c0-.72.44,0,.61-.18C1631.4,88.21,1631.15,88.11,1631.06,88.33Z" transform="translate(-112.17 -74.71)"/><path class="cls-2" d="M1640.44,93.57v.29c-.19-.12-.41-.27-.19-.5S1640.41,93.45,1640.44,93.57Z" transform="translate(-112.17 -74.71)"/><path class="cls-2" d="M1631.79,88.76l-.49-.29C1631.62,88.31,1631.8,88.39,1631.79,88.76Z" transform="translate(-112.17 -74.71)"/><path class="cls-2" d="M1544.18,99.42l-.29.3a2.24,2.24,0,0,0-.33-1.46c.53.09.72,0,1-.42a4.56,4.56,0,0,1,1.63-1.94l0,.08c0,.5-.43.8-.64,1.21-.51.69-.81,1.52-1.35,2.19Z" transform="translate(-112.17 -74.71)"/><path class="cls-2" d="M1548.8,93c-.41.59-1.07,1-1.4,1.62-.06.08-.11.17-.22.19l-.09,0a.89.89,0,0,1,.28-.71,3.47,3.47,0,0,0,1-1.28.67.67,0,0,1,.81-.33A.74.74,0,0,1,1548.8,93Z" transform="translate(-112.17 -74.71)"/><path class="cls-2" d="M1546.21,95.9c-.15-.73.38-.94.88-1.17l0,0a1.45,1.45,0,0,1-.89,1.16Z" transform="translate(-112.17 -74.71)"/><path class="cls-2" d="M1551.48,90.2c-.07.36-.47.44-.62.74-.18.1-.35.21-.52.32C1550.45,90.62,1551,90.43,1551.48,90.2Z" transform="translate(-112.17 -74.71)"/><path class="cls-2" d="M1556.82,86a1.52,1.52,0,0,1-.63.46C1556.19,86,1556.43,85.89,1556.82,86Z" transform="translate(-112.17 -74.71)"/><path class="cls-2" d="M1590.82,198.85a5.79,5.79,0,0,1,1-.87c0,.3-.19.67.39.57.15,0,.19.18.19.34-.29,0-.6.19-.81-.19-.1-.18-.23-.06-.35,0S1591,199.08,1590.82,198.85Z" transform="translate(-112.17 -74.71)"/><path class="cls-2" d="M1572.48,207.82a1.19,1.19,0,0,1,1.15,0A1.35,1.35,0,0,1,1572.48,207.82Z" transform="translate(-112.17 -74.71)"/><path class="cls-2" d="M1571.77,207.36a1.48,1.48,0,0,1,.77-.15C1572.33,207.5,1572,207.34,1571.77,207.36Z" transform="translate(-112.17 -74.71)"/><path class="cls-2" d="M1518.43,185.44l-.29-.45-1.34-2.88c-.06-.14,0-.2.13-.23.43.11.47.51.61.83l1.18,2.15C1518.63,185.06,1518.41,185.19,1518.43,185.44Z" transform="translate(-112.17 -74.71)"/><path class="cls-2" d="M1532.18,201.19l.92.61c-.63.28-1,.08-1.5-.88C1531.88,200.82,1532,201,1532.18,201.19Z" transform="translate(-112.17 -74.71)"/><path class="cls-2" d="M1534.09,202.39a.4.4,0,0,1-.09.52.48.48,0,0,1-.48,0c-.14,0-.16-.17-.15-.29s.19-.25.37-.25l.36,0Z" transform="translate(-112.17 -74.71)"/><path class="cls-2" d="M1526,196.6l.86.83C1526.5,197.27,1526.05,197.16,1526,196.6Z" transform="translate(-112.17 -74.71)"/><path class="cls-2" d="M1522.55,192l.41.65c-.23.17-.39.15-.43-.16A2.72,2.72,0,0,1,1522.55,192Z" transform="translate(-112.17 -74.71)"/><path class="cls-2" d="M1520.63,189.53a.86.86,0,0,1,.08.22.15.15,0,0,1-.09.1c-.1.05-.13,0-.12-.11S1520.56,189.63,1520.63,189.53Z" transform="translate(-112.17 -74.71)"/><path class="cls-2" d="M1550.78,87.76a1.07,1.07,0,0,0,.57-.48.39.39,0,0,1,.33-.28c.18-.06.15-.35.39-.35.1-.16.2-.31.42-.27.5.58,0,.89-.36,1.18s-.76.85-1.36.32A.17.17,0,0,0,1550.78,87.76Z" transform="translate(-112.17 -74.71)"/><path class="cls-2" d="M1603.29,156.93l0-.17a1.39,1.39,0,0,1-.14-1.14c0-.12-.06-.34.11-.34s.23.2.34.31c.29.31.06.7.16,1a.41.41,0,0,1,.13-.42,1.28,1.28,0,0,0,.31-.64c.09-.29.17.08.28.05v1.17a2.57,2.57,0,0,0-.52,2.2,2.05,2.05,0,0,1,.23,1.09,1.24,1.24,0,0,0,.2.89c.29.34-.22.53-.22.83a2.87,2.87,0,0,1-.42-1.53,10.56,10.56,0,0,0-.14-1.59,1.27,1.27,0,0,0-.14-.77C1603.22,157.59,1603.47,157.22,1603.29,156.93Z" transform="translate(-112.17 -74.71)"/><path class="cls-2" d="M1604.45,156.76h.58a2.55,2.55,0,0,1-.24,1.4,1,1,0,0,0,0,.91,3.65,3.65,0,0,1,.05,2.27A13.61,13.61,0,0,1,1604.45,156.76Z" transform="translate(-112.17 -74.71)"/><path class="cls-2" d="M1605,166.12c0,1.35,0,2.7,0,4,0,.24.12.56-.29.63a.34.34,0,0,1-.13-.25,42.09,42.09,0,0,1,.06-4.35A.24.24,0,0,1,1605,166.12Z" transform="translate(-112.17 -74.71)"/><path class="cls-2" d="M1604.74,166.12v6.46c0,.23.07.5-.27.57V172a45.28,45.28,0,0,0,0-5.21l0-.68a.18.18,0,0,1,.17-.06Z" transform="translate(-112.17 -74.71)"/><path class="cls-2" d="M1604.15,162.62V162c.83.37.52,1.13.58,1.75,0,0,0,.07,0,.1-.14.26,0,.6-.29.82-.17-.29-.07-.62-.14-.92s0-.61-.12-.89Z" transform="translate(-112.17 -74.71)"/><path class="cls-2" d="M1605,166.12h-.29a4.09,4.09,0,0,1,0-2.35h0c.35.05.29.33.29.55C1605,164.93,1605,165.53,1605,166.12Z" transform="translate(-112.17 -74.71)"/><path class="cls-2" d="M1599.47,145.35l0-.26a.29.29,0,0,1,.13-.14c.19-.09.25-.24.14-.41a12.23,12.23,0,0,1-.94-2.46c-.31-.55-.42-1.17-.78-1.71s-.08-.75.46-.77a5.39,5.39,0,0,1,1.08,2c.1.3.52.35.44.76a1.38,1.38,0,0,0,.34,1.08,1.18,1.18,0,0,1,0,1.3c.1.58-.46,1-.31,1.64-.22,0-.18-.25-.34-.31A1,1,0,0,1,1599.47,145.35Z" transform="translate(-112.17 -74.71)"/><path class="cls-2" d="M1600.35,144.77c0-.55.11-1.14-.47-1.52a.32.32,0,0,1-.1-.25c.11-1-.71-1.69-1-2.56a2.58,2.58,0,0,0-.32-.79c.18-.4.39-.16.6,0a8,8,0,0,1,1,1.89c.14.55.46,1.05.57,1.61,0,.17.14.32,0,.48C1600.52,144,1600.94,144.5,1600.35,144.77Z" transform="translate(-112.17 -74.71)"/><path class="cls-2" d="M1600.65,143.6a7.31,7.31,0,0,1-.58-2.09,11.65,11.65,0,0,1,1.16,2.38Z" transform="translate(-112.17 -74.71)"/><path class="cls-2" d="M1603.86,156.18v1.08h-.21a7.67,7.67,0,0,1-.08-1.66c0-.2.14-.38.27-.06A2,2,0,0,1,1603.86,156.18Z" transform="translate(-112.17 -74.71)"/><path class="cls-2" d="M1602.34,149.07c-.37-.17-.66-.36-.44-.77.07-.13.23-.31.33-.23C1602.61,148.34,1602.28,148.72,1602.34,149.07Z" transform="translate(-112.17 -74.71)"/><path class="cls-2" d="M1557.34,112.58l2,.22c-.36.42-.9.41-1.37.54-.32.09-.66.14-1,.24a8.69,8.69,0,0,0,1.75-.25,4,4,0,0,1,2.15.44c0,.62-.13.87-.7.74a13.51,13.51,0,0,0-3.17-.23c-.27,0-.5.32-.77.07l-4.79-.29c-.08-.18-.29-.12-.55-.31.83,0,1.52,0,2.21,0a1.54,1.54,0,0,0,.74-.17c.5-.27-.05-.28-.06-.41a.6.6,0,0,0,.08-.08,3.63,3.63,0,0,1,1.35-.12,1.32,1.32,0,0,0,.76-.11,1.24,1.24,0,0,1,.2-.1,1.91,1.91,0,0,1,.92,0C1557.31,112.78,1557.34,112.71,1557.34,112.58Z" transform="translate(-112.17 -74.71)"/><path class="cls-2" d="M1549.14,112.56a28.11,28.11,0,0,1,6.08-.19,6.2,6.2,0,0,1,1.87.19c-.23.32-.67,0-.92.32h0a1.51,1.51,0,0,1-1.31,0,.81.81,0,0,0-1,.27h-2.34l-.09-.06c-.35-.45-.8-.36-1.24-.2a1.43,1.43,0,0,1-.91.1C1549,112.93,1548.92,112.77,1549.14,112.56Z" transform="translate(-112.17 -74.71)"/><path class="cls-2" d="M1544.51,113.18l1.39-.17a.38.38,0,0,1,.21-.05,3.58,3.58,0,0,0,2.31,0,.7.7,0,0,1,.69.11c.1.55-.45.1-.54.35a2,2,0,0,1-1.72.22,1.85,1.85,0,0,0-.91.07,5,5,0,0,1-2.1-.31C1544,113.06,1544.32,113.36,1544.51,113.18Z" transform="translate(-112.17 -74.71)"/><path class="cls-2" d="M1544.46,114.72l-3.6.82c-.08-.1-.29-.09,0-.31.62-.53,1.4-.1,2.06-.48-.19-.23-.53,0-.74-.35C1543,114.26,1543.7,114.75,1544.46,114.72Z" transform="translate(-112.17 -74.71)"/><path class="cls-2" d="M1548.57,113.46c.12-.23.45,0,.58-.29a3.06,3.06,0,0,1,2.34,0c0,.35-.32.29-.55.29Z" transform="translate(-112.17 -74.71)"/><path class="cls-2" d="M1515.55,183.08a4.91,4.91,0,0,1,.65,1.19c-.06.4-.18.71-.69.57-.06-.22.14-.45-.1-.67C1515,183.77,1515.17,183.4,1515.55,183.08Z" transform="translate(-112.17 -74.71)"/><path class="cls-2" d="M1512.88,177.23c0,.29,0,.58,0,.87s-.06.32-.22.35a.45.45,0,0,1-.45-.17c-.3-.41.15-.69.22-1s.32.11.49,0Z" transform="translate(-112.17 -74.71)"/><path class="cls-2" d="M1605.33,152.69l2.33-.19c.38-.31.77-.09,1.16,0,.45.36,1,.13,1.46.17s1,0,1.52,0a8.39,8.39,0,0,1-1.8.18l-4.67-.06s-.07,0,0-.07S1605.31,152.69,1605.33,152.69Z" transform="translate(-112.17 -74.71)"/><path class="cls-2" d="M1608.82,152.49h-1.16a.57.57,0,0,1,0-.13.79.79,0,0,1,.87,0l.31,0Z" transform="translate(-112.17 -74.71)"/><path class="cls-2" d="M1615.71,152.28l-.25,0c.29-.36.68-.09,1-.16C1616.25,152.27,1616,152.18,1615.71,152.28Z" transform="translate(-112.17 -74.71)"/><path class="cls-2" d="M1603.6,78.05c-.77,0-1.54,0-2.3,0-.24,0-.56-.13-.66.26a.52.52,0,0,1-.6.15,26.73,26.73,0,0,0-3.89-.41c-.35-.15-.82,0-1.09-.36a4,4,0,0,1,2-.11A53.45,53.45,0,0,1,1603.6,78.05Z" transform="translate(-112.17 -74.71)"/><path class="cls-2" d="M1597,77.6c-.64.15-1.31-.12-1.94.14-.42.34-.8.14-1.18-.08-.16-.09-.39.07-.56-.21h1.73A15.85,15.85,0,0,1,1597,77.6Z" transform="translate(-112.17 -74.71)"/><path class="cls-2" d="M1522.81,125.59l-.28.33-1.47,1.26c0-.2-.15-.26-.33-.28a16.24,16.24,0,0,1,2.09-1.5A.12.12,0,0,1,1522.81,125.59Z" transform="translate(-112.17 -74.71)"/><path class="cls-2" d="M1515.37,131.5c.44.5-.31.54-.35.9s-.33.13-.42-.13C1514.84,132,1515,131.66,1515.37,131.5Z" transform="translate(-112.17 -74.71)"/><path class="cls-2" d="M1517.8,129.24c.08.33,0,.4-.4.31Z" transform="translate(-112.17 -74.71)"/><path class="cls-2" d="M1517.24,129.69c0,.1.16.21,0,.32s-.22,0-.33,0Z" transform="translate(-112.17 -74.71)"/><path class="cls-2" d="M1642.48,97.06l-.58-.44-.31-.41C1642.54,96.15,1642.54,96.15,1642.48,97.06Z" transform="translate(-112.17 -74.71)"/><path class="cls-2" d="M1605,79.08l-.31-.16.59-.7.3,0,.75.15a1.22,1.22,0,0,1-.78.77h-.27A.21.21,0,0,1,1605,79.08Z" transform="translate(-112.17 -74.71)"/><path class="cls-2" d="M1581,182.23l0,.27a.3.3,0,0,1,0,.21,2.51,2.51,0,0,1-.25.9c-.23.44-.63.36-1,.26a.45.45,0,0,1-.31-.72c.49-.53,0-1.16.18-1.63-.1.44.18,1-.1,1.53a.77.77,0,0,1-.22.22.2.2,0,0,1-.18-.06c-.63-.86-.08-1.74,0-2.6,0-.16.15-.34-.13-.39l-.07-.06a3,3,0,0,1,2.94-1.73.47.47,0,0,1,.12.45.45.45,0,0,0,0,.5.91.91,0,0,1,0,.49.49.49,0,0,1-.15.27l-.29.35c-.17.16-.18.48-.47.54a.25.25,0,0,0-.13.27A1.48,1.48,0,0,0,1581,182.23Z" transform="translate(-112.17 -74.71)"/><path class="cls-2" d="M1581,182.66v-.16l.15.15c.14.07.25.15.24.31a5.26,5.26,0,0,0,1.65,1.32c.33.3.73.2,1.11.2s.5.11.46.47c-.19.38-.43.68-.92.59a3.24,3.24,0,0,0-2.41-.06.35.35,0,0,1-.31,0,3.89,3.89,0,0,1-2.48-3.18,1.25,1.25,0,0,1,0-.81,1.79,1.79,0,0,1,.44-1.29l0,0a1.06,1.06,0,0,1,0,1.11,1.76,1.76,0,0,0,.23,2h0a1,1,0,0,0,1.14.87c.55,0,.74-.28.61-.83A.71.71,0,0,1,1581,182.66Z" transform="translate(-112.17 -74.71)"/><path class="cls-2" d="M1517.56,165.9c-.21.42-.79.42-1.25.52s-1-.59-1-1.1a1.1,1.1,0,0,1,1.1-1.11C1517.27,164.2,1517.58,164.62,1517.56,165.9Z" transform="translate(-112.17 -74.71)"/><path class="cls-2" d="M1537,184.85h.83a1.22,1.22,0,0,0,.27.09c.32.08.62.22.59.61a.61.61,0,0,1-.7.58l-.28.19c-.94.11-1.54-.27-1.56-1C1536.3,184.9,1536.7,185,1537,184.85Z" transform="translate(-112.17 -74.71)"/><path class="cls-2" d="M1526.44,166.74c-.65-.13-.89-.66-1.16-1.18.15-.25.15-.25.77-.18.57.27,1.26.43,1.13,1.31C1526.94,166.88,1526.68,166.7,1526.44,166.74Z" transform="translate(-112.17 -74.71)"/><path class="cls-2" d="M1586,186.7v-.62c0-.66.51-.61.9-.68a1.4,1.4,0,0,1,1.62.68c0,.08,0,.19.09.28a3.06,3.06,0,0,1,0,1.38.19.19,0,0,1-.27.08c-.21-.18-.18-.43-.19-.67-.07-.87-.15-1-1-1-.18,0-.35-.2-.54,0s-.11.54-.17.81a.47.47,0,0,1-.16.27C1585.91,187.19,1586.19,186.82,1586,186.7Z" transform="translate(-112.17 -74.71)"/><path class="cls-2" d="M1522.64,159.08a5.44,5.44,0,0,0-1.27.15c-.17-.17-.5-.09-.62-.37-.27-.91-.16-1.06.74-1.07.19,0,.25.14.31.28s-.06.31-.13.46c.15,0,.19-.14.29-.18Z" transform="translate(-112.17 -74.71)"/><path class="cls-2" d="M1515.5,173.15a.31.31,0,0,1-.13,0c-.34-.4-.32-.74.13-.93a1.47,1.47,0,0,1,1.31-.05c.23.16.47.32.69.49s.33.31,0,.49C1516.85,172.68,1516.17,172.48,1515.5,173.15Z" transform="translate(-112.17 -74.71)"/><path class="cls-2" d="M1583.67,185.43a.82.82,0,0,0,.88-.44.26.26,0,0,1,0,.33,3.15,3.15,0,0,1-3.55.12h.32C1582.12,185.1,1582.9,185.47,1583.67,185.43Z" transform="translate(-112.17 -74.71)"/><path class="cls-2" d="M1542.56,179c.22.24.8.05.78.44s-.56.21-.81.42a2.65,2.65,0,0,1-1.58-.44A2.68,2.68,0,0,1,1542.56,179Z" transform="translate(-112.17 -74.71)"/><path class="cls-2" d="M1581.92,179.88v-.59a.3.3,0,0,1,.3-.06,1.21,1.21,0,0,0,.72.16,3.26,3.26,0,0,1,1.46.4c.18.07.29.17.15.38a3.58,3.58,0,0,1-1.49-.14C1582.71,179.78,1582.27,180.12,1581.92,179.88Z" transform="translate(-112.17 -74.71)"/><path class="cls-2" d="M1515.5,173.15c.94-1,.75-1.05,2,0a.13.13,0,0,1-.1,0,3,3,0,0,1-1.94,0Z" transform="translate(-112.17 -74.71)"/><path class="cls-2" d="M1584.55,180.17a2.6,2.6,0,0,0-1.75-.59.24.24,0,0,1-.06-.27c.07-.13.27-.16.26-.34a.25.25,0,0,1,.09-.23c.69.23,1.11.83,1.7,1.19.07,0,.2.13.1.21S1584.66,180.16,1584.55,180.17Z" transform="translate(-112.17 -74.71)"/><path class="cls-2" d="M1584.57,185.32l0-.33c0-.42-.24-.4-.54-.44s-.74.24-.92-.27c.49.09,1,.33,1.45-.05.18-.16.22-.44.49-.53,0,0,0,0,.07,0,.17.28.3.56,0,.87S1584.88,185.16,1584.57,185.32Z" transform="translate(-112.17 -74.71)"/><path class="cls-2" d="M1567.14,167.3l.3-.15.19.6a7.29,7.29,0,0,1,0,1.4c-.51.53-.52-.05-.68-.31A8.91,8.91,0,0,1,1567.14,167.3Z" transform="translate(-112.17 -74.71)"/><path class="cls-2" d="M1604.74,163.78v2.35h-.25l-.06-1.43C1604.56,164.4,1604.2,163.94,1604.74,163.78Z" transform="translate(-112.17 -74.71)"/><path class="cls-2" d="M1515.5,173.15h1.94l0,.13A1.63,1.63,0,0,1,1515.5,173.15Z" transform="translate(-112.17 -74.71)"/><path class="cls-2" d="M1521.49,157.79c-.65.09-.83.48-.74,1.07l-.29-.34a.42.42,0,0,1,0-.58h0c.13-.35.35-.52.73-.34Z" transform="translate(-112.17 -74.71)"/><path class="cls-2" d="M1581.92,179v-.57c.37-.16.57.23.87.3,0,.25-.13.34-.32.4A.61.61,0,0,1,1581.92,179Z" transform="translate(-112.17 -74.71)"/><path class="cls-2" d="M1582.5,179l.29-.27h.3V179c0,.14-.21.18-.29.29v.29c-.23,0-.54.1-.59-.29C1582.26,179.15,1582.42,179.11,1582.5,179Z" transform="translate(-112.17 -74.71)"/><path class="cls-2" d="M1581.92,179.88h1.28s0,.05,0,.05a1.29,1.29,0,0,1-.16.09l-1.14.11Z" transform="translate(-112.17 -74.71)"/><path class="cls-2" d="M1526.05,165.38c-.22.22-.58-.15-.77.18C1525.34,165.18,1525.4,165.16,1526.05,165.38Z" transform="translate(-112.17 -74.71)"/><path class="cls-2" d="M1526.44,166.74c.23-.2.5,0,.74-.05C1527,167,1526.7,166.9,1526.44,166.74Z" transform="translate(-112.17 -74.71)"/><path class="cls-2" d="M1604.17,162.89a1.6,1.6,0,0,1,.12.89C1604.05,163.51,1604.19,163.19,1604.17,162.89Z" transform="translate(-112.17 -74.71)"/><path class="cls-2" d="M1578.54,181.45v.8A.79.79,0,0,1,1578.54,181.45Z" transform="translate(-112.17 -74.71)"/><path class="cls-2" d="M1599.05,139.62c-.19.13-.41-.22-.6,0-.49.2-.56.44-.17.86a3.3,3.3,0,0,1,.61,1.62.41.41,0,0,1-.33.13c-.38-.26-.38-.26-.4-1.25-.1.34.18.77-.32.9a.26.26,0,0,1-.19-.09c-.16-.36-.16-.82-.59-1a3.28,3.28,0,0,1-1-1.45l-.16-.42c-.11-.35-.15-.75-.57-.9l-1-1.47c-.06-.4.07-.94-.64-.86a70.57,70.57,0,0,0-4.89-5.48,66,66,0,0,0-6.94-5.78c-.1-.3-.38-.34-.62-.44a73.64,73.64,0,0,0-6.78-3.92l-2-1c-.18-.32-.51-.3-.8-.38a10.48,10.48,0,0,1-2.45-1.13c0-.65.73-.77,1-1.26a5,5,0,0,1,.51-.4.63.63,0,0,1,.87.18l4.36,2c.21.1.48.07.62.31h0c.44.12.77.47,1.24.53a.82.82,0,0,1,.41.27c.08.19.38.13.42.37l.84.46c.18,0,.29.09.42.18a8.37,8.37,0,0,1,.82.48,4.75,4.75,0,0,1,1,.73l.42.34c-.06.66.42.18.62.3a.32.32,0,0,1,.25.15h0a.59.59,0,0,1,.39.41c.08.16.38.23.17.49-.05.07-.15.09-.17.19l.22-.24a.39.39,0,0,1,.39-.11.62.62,0,0,1,.19.12h0a3.57,3.57,0,0,1,.65.51.91.91,0,0,0,.37.24l.15.1c.65.62,1.46,1.06,2.06,1.75a10.23,10.23,0,0,0,1.72,1.5v0a.71.71,0,0,0,.65.46,2.08,2.08,0,0,1,.66.66c.37.71.69,1.45,1.53,1.75,1.07,1.17,2.14,2.34,3.11,3.59.15.19.32.36.48.54a4.16,4.16,0,0,1,1.17,1.64l.33.68c0,.08-.13.07-.2.11.1,0,.14-.06.2-.11l.29.41a.61.61,0,0,0,.53.58.4.4,0,0,1,.17.33,1.06,1.06,0,0,0,.5.93c.19.08.14.29.25.4Z" transform="translate(-112.17 -74.71)"/><path class="cls-2" d="M1570.82,116.05a.48.48,0,0,1-.46.34c-.25,0-.47-.17-.77.11s-.73.08-1.1,0a.67.67,0,0,1-.15-.14c-.32-.49-.75-.39-1.14-.15a1.61,1.61,0,0,1-1.64.09c-.55-.26-1.16-.33-1.71-.57-.12,0-.28-.13-.37.07-2.38-.58-4.78-1-7.2-1.42a8.13,8.13,0,0,1,2.86-.32c.42,0,.66.35,1.08.33s.71-.1.63-.61.44-.33.59-.57l1.75.29c.21.17.5,0,.71.15a.93.93,0,0,0,.61.15,2.1,2.1,0,0,1,1.08.16,6.93,6.93,0,0,1,2,.73,1.75,1.75,0,0,0,.83.28c.13.09.34,0,.45.15a.39.39,0,0,0,.35.13,6.27,6.27,0,0,1,1.21.29C1570.63,115.63,1570.94,115.68,1570.82,116.05Z" transform="translate(-112.17 -74.71)"/><path class="cls-2" d="M1563.48,115.77c.15-.25.36-.36.6-.21.52.32,1.14.37,1.68.64a1.13,1.13,0,0,0,1.31-.21c.57-.45,1.31-.23,1.39.4-.07.07,0,0,0,0s0,0,0,0c.41-.13.9.26,1.28-.3.17-.27.42.16.62.3-.1.62-.79.74-1,1.23-.34.15-.6-.11-.88-.21C1566.81,116.77,1565.13,116.34,1563.48,115.77Z" transform="translate(-112.17 -74.71)"/><path class="cls-2" d="M1556.49,119.3c.8.73.73,1-.48,1.86a.34.34,0,0,0-.14,0,1.38,1.38,0,0,1-1.5-.45c-.36-.45-.07-1,.16-1.42l0,0,0,0A2.47,2.47,0,0,1,1556.49,119.3Z" transform="translate(-112.17 -74.71)"/><path class="cls-2" d="M1575.74,124a3.1,3.1,0,0,1,0-1.78c0-.2.15-.39.39-.37s.28.28.3.49A2.7,2.7,0,0,1,1575.74,124Z" transform="translate(-112.17 -74.71)"/><path class="cls-2" d="M1577.66,143.7a1.34,1.34,0,0,1-.82,1.3.39.39,0,0,1-.57-.13c-.17-.28.08-.37.26-.48Z" transform="translate(-112.17 -74.71)"/><path class="cls-2" d="M1554.53,119.28s.07.1.06.14c-.32,1.45-.27,1.52,1.22,1.66a.5.5,0,0,1,.2.08,1.75,1.75,0,0,1-2-.5A1.1,1.1,0,0,1,1554.53,119.28Z" transform="translate(-112.17 -74.71)"/><path class="cls-2" d="M1572,144.82a2,2,0,0,1-1.68,0c-.24-.07-.46-.24-.2-.54A1.53,1.53,0,0,1,1572,144.82Z" transform="translate(-112.17 -74.71)"/><path class="cls-2" d="M1556.49,119.3h-2A1.31,1.31,0,0,1,1556.49,119.3Z" transform="translate(-112.17 -74.71)"/><path class="cls-2" d="M1593.74,135.71c.19-.12.43-.47.58-.25a1,1,0,0,1,.06,1.11A3,3,0,0,1,1593.74,135.71Z" transform="translate(-112.17 -74.71)"/><path class="cls-2" d="M1595.38,138c.79-.09.55.5.57.9Z" transform="translate(-112.17 -74.71)"/><path class="cls-2" d="M1571.76,118.75c.3,0,.77-.25.8.38Z" transform="translate(-112.17 -74.71)"/><path class="cls-2" d="M1581.29,124c.33,0,.67-.08.62.44Z" transform="translate(-112.17 -74.71)"/><path class="cls-2" d="M1522,158.35c0,.2,0,.45-.33.45a.31.31,0,0,1-.31-.25c-.08-.38.23-.24.4-.3s.06-.12.08-.18S1522,158.22,1522,158.35Z" transform="translate(-112.17 -74.71)"/><path class="cls-2" d="M1599.18,144.77l0-.29c.6-.11.49.22.36.57l0,0Z" transform="translate(-112.17 -74.71)"/><path class="cls-2" d="M1516.81,131.3l-.28.15,0-.45C1516.74,131,1516.75,131.19,1516.81,131.3Z" transform="translate(-112.17 -74.71)"/><path class="cls-2" d="M1599.49,145.05c0-.24.06-.57-.36-.57a1,1,0,0,1-.26-.52,4,4,0,0,0-.33-1,.75.75,0,0,1,.06-.88h.29c.16,0,.3.1.28.27-.09.81.45,1.39.74,2,.08.19.19.35.09.54S1599.66,145,1599.49,145.05Z" transform="translate(-112.17 -74.71)"/><path class="cls-2" d="M1598.6,142.13c-.17.65.38,1.19.27,1.83-.33-.39-.36-1-.81-1.27a1,1,0,0,0-.33-.72s0-.09,0-.13c.51-.14.13-.61.33-.88.27.17.23.44.23.68S1598.28,142.1,1598.6,142.13Z" transform="translate(-112.17 -74.71)"/><path class="cls-2" d="M1527.51,135.7c-.31,0-.58-.55-.94-.1-.16-.22-.49-.39-.3-.73.09-.17,0-.33.06-.49.24-.2.35.11.54.13-.12-.21-.38-.15-.54-.28a1.48,1.48,0,0,1,1.23-.53c.18,0,.45.14.37.59a2.42,2.42,0,0,1-.43,1.41Z" transform="translate(-112.17 -74.71)"/><path class="cls-2" d="M1526.33,134.23a.81.81,0,0,1,.22,0c.23,0,.56-.14.64.26,0,.15,0,.32-.16.36-.33.07-.37-.23-.5-.41s-.13,0-.2-.07Z" transform="translate(-112.17 -74.71)"/><path class="cls-2" d="M1641,111.66c.21-.49.68-.7,1.07-1a4.72,4.72,0,0,1,1.89-.41.56.56,0,0,1,.59.14c.24.21.66.2.73.67a3.75,3.75,0,0,0-2,.92.31.31,0,0,1-.11.14c-.17.11-.19.3-.26.46a1.4,1.4,0,0,1-.09.17,2.74,2.74,0,0,0-.4,1.77.89.89,0,0,0,.44.83,1.41,1.41,0,0,1,.36.37c.2.45.51.4.85.18,0-.05.13.12.11,0a3.57,3.57,0,0,1-.07-.56c0-.19,0-.42.29-.43a.49.49,0,0,1,.44.34,4,4,0,0,1,.45,1.86c.2.85-.62.81-1,1.16h0c-.55-.08-.81-.56-1.13-.91a11.51,11.51,0,0,1-2.14-2.32,7.87,7.87,0,0,0,.79-2.46.61.61,0,0,1,.26-.42c.11-.09.27-.19.19-.35s-.31,0-.46,0a1.34,1.34,0,0,0-.63,0A.16.16,0,0,1,1641,111.66Z" transform="translate(-112.17 -74.71)"/><path class="cls-2" d="M1641,115.07l3.21,3.21c-.4.28-.84.09-1.27.13a3.65,3.65,0,0,1-1.51-.85c-.08-.36-.42-.6-.46-1,0-.2-.21-.29-.43-.28a2.35,2.35,0,0,1-.32-2C1640.74,114.32,1640.88,114.69,1641,115.07Z" transform="translate(-112.17 -74.71)"/><path class="cls-2" d="M1553.08,106.45c.37.29.88.47.76,1.1.22.42.17.71-.35.79a.74.74,0,0,0-.54.44.13.13,0,0,1-.13,0c-.18-.1-.38.12-.56,0s0-.29-.18-.35c-.89-.27-1.1-.67-.87-1.68.32-.36.78-.21,1.17-.3h0A.49.49,0,0,1,1553.08,106.45Z" transform="translate(-112.17 -74.71)"/><path class="cls-2" d="M1631.17,111.1l-.29.6c-.3,0-.25.14-.09.3.42.4.16.55-.24.65a3.23,3.23,0,0,1-1.09-2.44,2,2,0,0,1,1.28-1.21c.54.34.13.64-.06,1,.21.15.52,0,.71.22a.4.4,0,0,1,.09.2A.81.81,0,0,1,1631.17,111.1Z" transform="translate(-112.17 -74.71)"/><path class="cls-2" d="M1561.44,113.18c0,.41-.62.15-.59.57a2.3,2.3,0,0,1-1.38-.24.94.94,0,0,0-.85,0,4.18,4.18,0,0,1-2.52.06l3.26-.79A10.57,10.57,0,0,1,1561.44,113.18Z" transform="translate(-112.17 -74.71)"/><path class="cls-2" d="M1551.49,113.17h-2.34a3.29,3.29,0,0,0-1.4.24c-.64.3-1.21-.34-1.85-.4.27-.24.66,0,.93-.27s.71,0,1-.14l1.27,0c.12.67.61.33.82.19.37-.24.74-.13,1.11-.16S1551.49,112.87,1551.49,113.17Z" transform="translate(-112.17 -74.71)"/><path class="cls-2" d="M1611.6,123.26c-.33.07-.65.15-1,.2a1.07,1.07,0,0,1-1.13-.59.64.64,0,0,1,.34-1,.27.27,0,0,1,.22.29c0,.16-.19.32,0,.5l.13.12c.3.13.59.22.83-.09a.49.49,0,0,1,.18-.22Z" transform="translate(-112.17 -74.71)"/><path class="cls-2" d="M1592.06,130.11c-.46.19-.78.31-.88-.44-.06-.46-.87-.63-.78-1.29.58.14.86.62,1.16,1.07Z" transform="translate(-112.17 -74.71)"/><path class="cls-2" d="M1586.57,112a3.9,3.9,0,0,1,0,2.57A3.46,3.46,0,0,1,1586.57,112Z" transform="translate(-112.17 -74.71)"/><path class="cls-2" d="M1611.18,122.52v.32a1.19,1.19,0,0,1-1.17,0h0a.42.42,0,0,1,0-.59l-.18-.32h0a.65.65,0,0,1,.76,0l.29.17c.12.12.15.31.3.41Z" transform="translate(-112.17 -74.71)"/><path class="cls-2" d="M1625.89,134.25c.19-.41-.24-1,.34-1.31,0,.44.09.88.13,1.31a1.32,1.32,0,0,0-.1.68c0,.24-.11.29-.3.17S1625.91,134.53,1625.89,134.25Z" transform="translate(-112.17 -74.71)"/><path class="cls-2" d="M1629.71,112.62c-.4-.17-.48-.59-.71-.91a.67.67,0,0,1,0-.94c.21-.08.45,0,.46.19,0,.57.42,1,.48,1.54A.29.29,0,0,1,1629.71,112.62Z" transform="translate(-112.17 -74.71)"/><path class="cls-2" d="M1589.21,127.22c-.88-.15-1.29-.84-1.72-1.5l.85.62a1.21,1.21,0,0,1,.6.56Z" transform="translate(-112.17 -74.71)"/><path class="cls-2" d="M1554,107.62l-.14,1.45c-.17-.46-.44-.63-.88-.29,0-.28,0-.62.4-.58s.48-.32.5-.65A.47.47,0,0,0,1554,107.62Z" transform="translate(-112.17 -74.71)"/><path class="cls-2" d="M1645.12,117.1l.16.17c.19.89-.49.89-1,1,0-.2,0-.44.27-.41C1645.13,117.92,1645.15,117.54,1645.12,117.1Z" transform="translate(-112.17 -74.71)"/><path class="cls-2" d="M1630.49,112.88l-.75-.15,0-.11.07-.05a.53.53,0,0,1,.71,0c.41,0,.47-.24.3-.58.38,0,.4.15.26.44S1630.66,112.71,1630.49,112.88Z" transform="translate(-112.17 -74.71)"/><path class="cls-2" d="M1556.17,112.88c.16-.54.63-.17.92-.32l.25,0c0,.1.38.25,0,.29S1556.55,112.88,1556.17,112.88Z" transform="translate(-112.17 -74.71)"/><path class="cls-2" d="M1582.82,122.23c-.11,0-.26.11-.34.07s-.36.38-.53,0,.13-.37.26-.53a.44.44,0,0,1,.39.14C1582.72,122,1582.86,122.05,1582.82,122.23Z" transform="translate(-112.17 -74.71)"/><path class="cls-2" d="M1589.64,127.52l.17.28c-.43.06-.63-.12-.59-.56Z" transform="translate(-112.17 -74.71)"/><path class="cls-2" d="M1583.67,122.71l.43.41h-.43l-.27-.51a.12.12,0,0,1,.13,0Z" transform="translate(-112.17 -74.71)"/><path class="cls-2" d="M1597.72,137.3l.13.33c-.42,0-.43-.34-.41-.66Z" transform="translate(-112.17 -74.71)"/><path class="cls-2" d="M1578.24,119.32l.17,0c.13.08.55-.11.29.32Z" transform="translate(-112.17 -74.71)"/><path class="cls-2" d="M1552.26,108.78c.19,0,.4-.28.56,0A.4.4,0,0,1,1552.26,108.78Z" transform="translate(-112.17 -74.71)"/><path class="cls-2" d="M1611.18,122.53c-.28,0-.3-.2-.3-.41A.34.34,0,0,1,1611.18,122.53Z" transform="translate(-112.17 -74.71)"/><path class="cls-2" d="M1609.87,121.8h.71V122l-.76,0A.56.56,0,0,1,1609.87,121.8Z" transform="translate(-112.17 -74.71)"/><path class="cls-2" d="M1641,115.07l-.78-.75a3.14,3.14,0,0,1,.74-2.66l0,.06a.41.41,0,0,1,.12.4,11.06,11.06,0,0,0-.33,2,1,1,0,0,0,.3-.93,1.91,1.91,0,0,1,.49-1.46c.28,0,.44-.47.77-.21.15.11.1.31.09.48a.29.29,0,0,1-.25.31c-.15,0-.34.09-.29.25.19.63-.38,1.1-.33,1.7C1641.64,114.66,1641.1,114.72,1641,115.07Z" transform="translate(-112.17 -74.71)"/><path class="cls-2" d="M1632.83,107.66l.27.13a.11.11,0,0,0,0,.08c-.46.75-1.06,1.42-1.45,2.22h0c-.1.1,0,.34-.26.36l0-.21a.61.61,0,0,1-.06-.74A3.88,3.88,0,0,1,1632.83,107.66Z" transform="translate(-112.17 -74.71)"/><path class="cls-2" d="M1640.56,116.28c.3-.58.51,0,.57.11.15.34.15.76.52,1l-.2.18A2.25,2.25,0,0,1,1640.56,116.28Z" transform="translate(-112.17 -74.71)"/><path class="cls-2" d="M1511.65,172c-.32-.23-.24-.57-.24-.89.18-.2.23-.51.53-.61.51-.14,1-.24,1.39.31h0C1513.26,172.1,1512.89,172.37,1511.65,172Z" transform="translate(-112.17 -74.71)"/><path class="cls-2" d="M1513.33,170.8c-.41-.37-.92-.27-1.39-.31l.35-.24C1512.74,170.25,1513.16,170.28,1513.33,170.8Z" transform="translate(-112.17 -74.71)"/><path class="cls-2" d="M1516.66,181.49l.29.44-.15.18a.75.75,0,0,1-.28-.46C1516.45,181.49,1516.53,181.47,1516.66,181.49Z" transform="translate(-112.17 -74.71)"/><path class="cls-2" d="M1516.66,181.49l-.14.16c-.16-.2-.35-.39-.29-.68A1.21,1.21,0,0,1,1516.66,181.49Z" transform="translate(-112.17 -74.71)"/><path class="cls-2" d="M1511.65,172a2.08,2.08,0,0,1,.35,0c1,.2,1.13-.51,1.32-1.19.4.5-.11.89-.16,1.34a.42.42,0,0,1-.31.27c-.23,0-.47.22-.7,0h0C1512,172.25,1511.74,172.22,1511.65,172Z" transform="translate(-112.17 -74.71)"/><path class="cls-2" d="M1606.46,106.12a1.2,1.2,0,0,1-.64-.28c-.16,0-.12-.19-.18-.29l-.17-.57a1.65,1.65,0,0,0,.31-.64c.13-.31.31-.48.65-.44s.46.3.51.61,0,.67.08,1A.63.63,0,0,1,1606.46,106.12Z" transform="translate(-112.17 -74.71)"/><path class="cls-2" d="M1582.26,90.48c.17.1.59-.2.46.28s.2,1-.45,1a.81.81,0,0,1-.86-.81C1581.38,90.39,1581.94,90.59,1582.26,90.48Z" transform="translate(-112.17 -74.71)"/><path class="cls-2" d="M1624.66,101.18l-.05.4a2.12,2.12,0,0,1-1-1.3c0-.23-.11-.51.16-.64s.48.11.63.33.14.24.21.36A.65.65,0,0,1,1624.66,101.18Z" transform="translate(-112.17 -74.71)"/><path class="cls-2" d="M1607,105.58c-.33-.29-.16-.68-.17-1s-.1-.44-.38-.5-.39.1-.47.36-.13.53-.48.56c-.11-.38.11-.65.29-.93.34-.53.78-.54,1.14,0a5.77,5.77,0,0,1,.36.7,8.32,8.32,0,0,1,0,1.32.17.17,0,0,1-.14.16C1606.85,106.06,1607,105.8,1607,105.58Z" transform="translate(-112.17 -74.71)"/><path class="cls-2" d="M1598.58,85.09l.21-.57a.74.74,0,0,1,.64-.15l.4.4c-.24.3-.79,0-.91.49a.31.31,0,0,1-.31,0,.11.11,0,0,1,0-.11S1598.57,85.09,1598.58,85.09Z" transform="translate(-112.17 -74.71)"/><path class="cls-2" d="M1563.19,83.59c0,.1,0,.21-.12.23s-.14-.09-.15-.18,0-.21.11-.23S1563.16,83.5,1563.19,83.59Z" transform="translate(-112.17 -74.71)"/><path class="cls-2" d="M1617,98a1.33,1.33,0,0,1,0-1.09A1.85,1.85,0,0,1,1617,98Z" transform="translate(-112.17 -74.71)"/><path class="cls-2" d="M1625.81,107.76c-.21.08-.34.31-.59.29a.66.66,0,0,1,.59-.43Z" transform="translate(-112.17 -74.71)"/><path class="cls-2" d="M1600.78,85.37c0-.24-.1-.51.15-.7l0,.71h0C1600.87,85.44,1600.82,85.44,1600.78,85.37Z" transform="translate(-112.17 -74.71)"/><path class="cls-2" d="M1607.21,106.16l.06.12v.16l-.11.4-.09-.41a.2.2,0,0,1,0-.29Z" transform="translate(-112.17 -74.71)"/><path class="cls-2" d="M1631.4,107.48c.25,0,.52-.14.74.1a3,3,0,0,1-1.36,1.49,3.06,3.06,0,0,0-1.17,1.17c-.14.24-.29.46-.6.47s-.07-.29-.12-.44c.3-.77.47-1.61,1.26-2.09.23-.1.52-.12.62-.42Z" transform="translate(-112.17 -74.71)"/><path class="cls-2" d="M1566.55,100.6a2.47,2.47,0,0,1-2.33,0Z" transform="translate(-112.17 -74.71)"/><path class="cls-2" d="M1562.64,107.6l0-1.59c.18-.09.21.06.27.17l0,1C1562.75,107.31,1563,107.6,1562.64,107.6Z" transform="translate(-112.17 -74.71)"/><path class="cls-2" d="M1630.77,107.76c0,.52-.32.43-.62.42A1.09,1.09,0,0,1,1630.77,107.76Z" transform="translate(-112.17 -74.71)"/><path class="cls-2" d="M1606.46,79.26l-.84,0a.23.23,0,0,0,0-.11,2.72,2.72,0,0,1,.78-.77l.56,0C1607,78.78,1607,79.18,1606.46,79.26Z" transform="translate(-112.17 -74.71)"/><path class="cls-2" d="M1605.33,152.69v.1l-.88,0C1604.72,152.58,1605,152.69,1605.33,152.69Z" transform="translate(-112.17 -74.71)"/><path class="cls-2" d="M1553.83,113.17c.07-.55.46-.82,1-.53a2.77,2.77,0,0,0,1.37.24c-.05.35-.32.29-.55.29Z" transform="translate(-112.17 -74.71)"/><path class="cls-2" d="M1581,182.66a.91.91,0,0,0,.09.41c.37.53.26.93-.32,1.19a1.18,1.18,0,0,1-1.47-.52,1.64,1.64,0,0,1,0-.5l.29-.15h0c0,.36,0,.64.51.66s.66,0,.7-.52A.73.73,0,0,1,1581,182.66Z" transform="translate(-112.17 -74.71)"/><path class="cls-2" d="M1579.29,183.24a1.4,1.4,0,0,1-.54-1.69,3.18,3.18,0,0,0,.26-1.37c.2,0,.26-.28.51-.2A6.14,6.14,0,0,0,1579.29,183.24Z" transform="translate(-112.17 -74.71)"/><path class="cls-2" d="M1579.58,183.09c0-.65,0-1.3,0-2,0-.16,0-.31.17-.32s.15.16.16.28c.05.52-.11,1,.18,1.55.08.14-.21.4-.47.44Z" transform="translate(-112.17 -74.71)"/><path class="cls-2" d="M1580.52,179.09l.74-.26c0,.09.07.2,0,.26-.19.36-.48.14-.73.18Z" transform="translate(-112.17 -74.71)"/><path class="cls-2" d="M1582.5,179c0,.19-.1.28-.29.29h-.29c-.08,0-.21-.06-.22-.11s.12-.16.22-.18Z" transform="translate(-112.17 -74.71)"/><path class="cls-2" d="M1583.67,185.43c-.77.47-1.55-.12-2.33,0A2,2,0,0,1,1583.67,185.43Z" transform="translate(-112.17 -74.71)"/><path class="cls-2" d="M1516.25,164.88a1.23,1.23,0,0,1,0,.93C1516,165.52,1516.06,165.29,1516.25,164.88Z" transform="translate(-112.17 -74.71)"/><path class="cls-2" d="M1537.56,185.16c.18,0,.1.23.12.37s-.12.19-.24.18-.29-.14-.27-.33S1537.31,185.15,1537.56,185.16Z" transform="translate(-112.17 -74.71)"/><path class="cls-2" d="M1588.35,187.78l0,0h0a3.66,3.66,0,0,1-1.4,0c-.11,0-.22,0-.27-.16s-.12-.34-.31-.42h0l0-.32c.25-.24,0-.64.28-.87,0-.09-.09-.17,0-.26.38.44.94-.09,1.37.28s.37.94.38,1.45A2.81,2.81,0,0,1,1588.35,187.78Z" transform="translate(-112.17 -74.71)"/><path class="cls-2" d="M1586.6,186c-.1.29.24.72-.28.87C1586.4,186.6,1586.07,186.17,1586.6,186Z" transform="translate(-112.17 -74.71)"/><path class="cls-2" d="M1543.07,179.38a1.52,1.52,0,0,1-1.56.09A2.26,2.26,0,0,1,1543.07,179.38Z" transform="translate(-112.17 -74.71)"/><path class="cls-2" d="M1582.8,179.29a.26.26,0,0,1,.29-.29c.1,0,.28,0,.2.18S1583,179.26,1582.8,179.29Z" transform="translate(-112.17 -74.71)"/><path class="cls-2" d="M1586.86,187.79h1.4c-.38.24-.81.12-1.22.15Z" transform="translate(-112.17 -74.71)"/><path class="cls-2" d="M1586.28,187.21c.32,0,.32.2.31.42A.54.54,0,0,1,1586.28,187.21Z" transform="translate(-112.17 -74.71)"/><path class="cls-2" d="M1594.74,134.83c-.33-.25-.61-.38-.47-.75a.23.23,0,0,1,.31-.11C1594.93,134.15,1594.77,134.45,1594.74,134.83Z" transform="translate(-112.17 -74.71)"/><path class="cls-2" d="M1583.67,123.12c0,.23.1.57-.33.56a.22.22,0,0,1-.23-.23c0-.43.33-.3.56-.33Z" transform="translate(-112.17 -74.71)"/><path class="cls-2" d="M1598.58,138.63l.06.27a.74.74,0,0,1-.62-1Z" transform="translate(-112.17 -74.71)"/><path class="cls-2" d="M1597.7,141.74a3.59,3.59,0,0,1-.62-1.05C1597.64,140.83,1597.75,141.23,1597.7,141.74Z" transform="translate(-112.17 -74.71)"/><path class="cls-2" d="M1597.15,136.56c0,.06,0,.15-.07.19a.3.3,0,0,1-.45,0,.25.25,0,0,1,0-.33c.23-.24.33.24.55.12Z" transform="translate(-112.17 -74.71)"/><path class="cls-2" d="M1584.85,123.7c.23,0,.34.15.48.28C1585.1,124,1584.87,124,1584.85,123.7Z" transform="translate(-112.17 -74.71)"/><path class="cls-2" d="M1568.46,116.39c0,.24-.16.32-.38.26,0,0-.12-.11-.11-.13.11-.22.32-.1.49-.13Z" transform="translate(-112.17 -74.71)"/><path class="cls-2" d="M1641.61,111.71c-.5.86,0,2-.73,2.82-.45-1,0-1.89.15-2.81C1641.22,111.78,1641.41,111.24,1641.61,111.71Z" transform="translate(-112.17 -74.71)"/><path class="cls-2" d="M1642.79,112.59a4.93,4.93,0,0,0,0,2.92,1.93,1.93,0,0,1-.46-2.28C1642.44,113,1642.36,112.6,1642.79,112.59Z" transform="translate(-112.17 -74.71)"/><path class="cls-2" d="M1643.13,112l-.35.57C1642.79,112.34,1642.68,112,1643.13,112Z" transform="translate(-112.17 -74.71)"/><path class="cls-2" d="M1644.07,115.9l0-.39.12-.07c0,.19,0,.38,0,.57,0,0,0,0-.08.07Z" transform="translate(-112.17 -74.71)"/><path class="cls-2" d="M1630.78,109.07a13.74,13.74,0,0,1,1.36-1.49c.25-.18.46,0,.69.08-.3.51-.77.88-1.07,1.4a2.26,2.26,0,0,0-.4,1.18,3.62,3.62,0,0,1-1.08-.07C1630.33,109.74,1631.16,109.67,1630.78,109.07Z" transform="translate(-112.17 -74.71)"/><path class="cls-2" d="M1629,110.71l.6-.47c0,.52.37,1,.33,1.48a.3.3,0,0,0,.31.33c.36,0,.34.27.24.53h-.71c-.43-.51-.29-1.28-.78-1.76A.34.34,0,0,1,1629,110.71Z" transform="translate(-112.17 -74.71)"/><path class="cls-2" d="M1603.58,127.2l-.57-.31,0-.23c.19-.28.44-.13.69-.08-.14-.18-.59-.12-.38-.52.54-.1.83.28,1.15.59C1604.49,127.38,1604,127.2,1603.58,127.2Z" transform="translate(-112.17 -74.71)"/><path class="cls-2" d="M1603.27,126.06c0,.35.41.2.54.39s.36.19.21.39a.26.26,0,0,1-.39,0,.69.69,0,0,0-.67-.16v0a.48.48,0,0,1,0-.59Z" transform="translate(-112.17 -74.71)"/><path class="cls-2" d="M1603,126.05c0,.2,0,.4,0,.59a1.05,1.05,0,0,1-.51-.53A.53.53,0,0,1,1603,126.05Z" transform="translate(-112.17 -74.71)"/><path class="cls-2" d="M1610,122.82l1.17,0C1610.77,123.29,1610.39,123.3,1610,122.82Z" transform="translate(-112.17 -74.71)"/><path class="cls-2" d="M1610,122.24v.59c-.16,0-.28-.08-.29-.26A.28.28,0,0,1,1610,122.24Z" transform="translate(-112.17 -74.71)"/><path class="cls-2" d="M1600.2,86.38l-.13,0a.19.19,0,0,1-.18,0,.5.5,0,0,0-.61-.1.47.47,0,0,1-.28-.07l-.25-.18a.42.42,0,0,1-.28-.3.81.81,0,0,1,0-.31.36.36,0,0,1,.17-.26h.27c.52-.41,1-.1,1.43.14A1.83,1.83,0,0,1,1600.2,86.38Z" transform="translate(-112.17 -74.71)"/><path class="cls-2" d="M1600.32,85.37a6.87,6.87,0,0,0-1.43-.14c0-.88.6-.35.94-.46C1599.92,85,1600.37,85,1600.32,85.37Z" transform="translate(-112.17 -74.71)"/><path class="cls-2" d="M1600.78,85.37h.14v1.08A1.51,1.51,0,0,1,1600.78,85.37Z" transform="translate(-112.17 -74.71)"/><path class="cls-2" d="M1600,86.67a1.1,1.1,0,0,1-1-.27l0-.12.33,0a.64.64,0,0,1,.59.12l.15,0Z" transform="translate(-112.17 -74.71)"/><path class="cls-2" d="M1599.92,86.38l-.59-.12C1599.61,85.89,1599.78,86.07,1599.92,86.38Z" transform="translate(-112.17 -74.71)"/></svg>