<svg id="レイヤー_1" data-name="レイヤー 1" xmlns="http://www.w3.org/2000/svg" viewBox="0 0 130.68 48.41"><defs><style>.cls-1{fill:#0f0e0a;}</style></defs><title>mokuzi_soda</title><path class="cls-1" d="M156.47,89.4c-1.26-.24-2.52-.72-3.78-1a5.91,5.91,0,0,1-3.48-1.8c-1-1-1.08-2.94-1.56-4.32a31.14,31.14,0,0,1-1.32-4.2,12,12,0,0,1-.72-4.38L147,73.5a7.38,7.38,0,0,1,2.46,2.88c.54,1,1.2,2.94,2,3.9a13.42,13.42,0,0,0,2.7,2.34L158,83.7a11.75,11.75,0,0,0,4.32-1.08,31.91,31.91,0,0,1,3.72-1.5c1.26-.42,2.22-1.26,2.94-3.6l.36-1.2-1.08-2.1a9.78,9.78,0,0,0-2.88-3.12c-1-.48-2-.54-3.3-1.2-1.08-.24-2.46-.42-3.66-.6a5.44,5.44,0,0,1-3.6-1.44A33.12,33.12,0,0,1,151.85,65a20.75,20.75,0,0,1-1.74-5.28,11.1,11.1,0,0,1-.48-4.8,29.37,29.37,0,0,1,1.26-3.66,20.07,20.07,0,0,1,1.68-3.18,17.92,17.92,0,0,1,2.76-1.68,11.35,11.35,0,0,1,2.94-1,14.21,14.21,0,0,1,3.24-.24c1.2.24,2.4.66,3.48.84a11.24,11.24,0,0,1,3.54,1.2,13.42,13.42,0,0,1,3.12,2.46,11.51,11.51,0,0,1,1.2,4.08l-1.38,1.38h-1.26c-.9-1.56-1.74-2.22-2.7-2.46s-2-.6-3-.78a7.38,7.38,0,0,0-3.24,0c-1.08.18-2.46.6-3.6.78a11.08,11.08,0,0,0-3.42,1.86l-.84,4.8a5.21,5.21,0,0,0,1.86,2.58,19.72,19.72,0,0,0,6.06,2.7,40.85,40.85,0,0,1,6.42,2.28c2,1,4.32,2.4,5.64,4.38a18.6,18.6,0,0,1,2.28,3.9,9.45,9.45,0,0,1,1.44,4.32,16.93,16.93,0,0,1-1,4.08,5.46,5.46,0,0,1-2.1,3.24,7.37,7.37,0,0,1-4.32,2.1c-1.68.12-3.06.54-4.62.54a11.8,11.8,0,0,0-4.68.66A23.66,23.66,0,0,1,156.47,89.4Z" transform="translate(-145.61 -42.67)"/><path class="cls-1" d="M189.05,90.12a12.78,12.78,0,0,1-3.66-1.74,14,14,0,0,1-2.46-4,21.05,21.05,0,0,1-1.2-4.74,21.43,21.43,0,0,1-.18-4.86,19.15,19.15,0,0,1,1.38-5.22,18.52,18.52,0,0,1,2.52-5,32.29,32.29,0,0,1,3.48-4.2L191.57,59c3.18,0,4.14.66,6.18,1.38a15.72,15.72,0,0,1,4.5,1.74c1.26.9,2.22,1.32,3.3,2a12.43,12.43,0,0,1,2.76,3,22.11,22.11,0,0,1,2,5c.24,3.54-1.5,6.6-2.4,8.28s-1.92,3.36-2.82,4.8a11.93,11.93,0,0,1-4.38,4.08,14.92,14.92,0,0,1-3.6,1.2,10.67,10.67,0,0,1-8-.36Zm10.38-9.06a16.36,16.36,0,0,0,2.16-3.18l.42-1.5c.42-2.64.36-4.08-.6-4.86-1-1.2-2.4-1.26-3.42-2.28a5,5,0,0,0-4.14-1.5H193a44.92,44.92,0,0,0-4,3.24,12,12,0,0,0-1.92,2.76,10.85,10.85,0,0,0-.6,2.58,6.12,6.12,0,0,0-.24,2.76,6.82,6.82,0,0,0,1.08,2.34,4.73,4.73,0,0,0,1.5,2.22,6.05,6.05,0,0,0,2.28,1,6.12,6.12,0,0,0,2.52.18l2.76-1.2A19.61,19.61,0,0,0,199.43,81.06Z" transform="translate(-145.61 -42.67)"/><path class="cls-1" d="M216.05,87.6a8.91,8.91,0,0,1-1.26-3.24,7.46,7.46,0,0,1-.42-3.6v-3.6c.54-1.38,1-3,1.5-4.62a20.77,20.77,0,0,1,1.74-4.2,13.09,13.09,0,0,1,3.06-3.84,23.2,23.2,0,0,0,2.88-2.22,15.42,15.42,0,0,1,2.94-1.56A6.49,6.49,0,0,1,230,60.3l1,.42c.48-1.62,1-3.42,1.44-5.22a27.38,27.38,0,0,1,1.56-5.94c.54-1.62.3-3.66,1-5.94a3.9,3.9,0,0,1,3.3-.9,7.17,7.17,0,0,1,2.94.6,4.76,4.76,0,0,1,2.64,2.1l-.18,1.08-1.92,3.9a99.42,99.42,0,0,0-3,10.08A94.9,94.9,0,0,0,237.47,70a58.54,58.54,0,0,0-.36,9.78l1.32,3c1.26.48,1.32,1.44,1.5,2.4v2a6.28,6.28,0,0,1-3.54,1.8,5.74,5.74,0,0,1-3.9-2.16l-1-2.16a10.86,10.86,0,0,1-3,2.7,16.14,16.14,0,0,1-3.84,2.1l-4.92.12A6.33,6.33,0,0,1,216.05,87.6Zm9.54-6.84a19.46,19.46,0,0,0,2.4-3.42c.54-1.2,1.38-2.4,1.86-3.6V71.52a4.22,4.22,0,0,0-.72-2.4l-2.76-.6a4.56,4.56,0,0,0-2.16,1.2,8.67,8.67,0,0,0-1.86,2,19.51,19.51,0,0,0-2,4c-.48,1.38-1.08,2.76-1.44,4.2a10.59,10.59,0,0,0,1.32,4l1.62.36.9-.6A17.28,17.28,0,0,0,225.59,80.76Z" transform="translate(-145.61 -42.67)"/><path class="cls-1" d="M249.35,88.44A19.88,19.88,0,0,1,248,84.06a16.7,16.7,0,0,1-.78-4.32,18.5,18.5,0,0,1,1.2-5.16,25.66,25.66,0,0,1,1.92-4.68,17.64,17.64,0,0,1,2.82-4.38c.84-.66,1.74-1.32,2.64-2.1s1.74-1.14,2.7-1.86a7,7,0,0,1,3.6-.42c.6.78,1.32.78,2.1,1.5a7.81,7.81,0,0,1,2.28,1.26,3.48,3.48,0,0,1,.9,2.64l-.18,2.64.3,3.6c.18,2.34.48,3.84.6,5.4a37.89,37.89,0,0,0,.9,5c.66-.3,1.08-1.2,2.16-2.64a19.94,19.94,0,0,1,2-4.08l1.38-.06,1.26,1,.42,3.84a9.48,9.48,0,0,1-1.44,3.42A22.9,22.9,0,0,0,273,87.9a4.17,4.17,0,0,1-2.76,1.26,11.22,11.22,0,0,1-2.94.24,4.09,4.09,0,0,1-2.7-2.34,19.27,19.27,0,0,1-1-2.7s-.54.9-1,1.68A8.51,8.51,0,0,1,260,88.26a8,8,0,0,1-4.32,1.32c-1.38.12-2.58.06-3.9.24A3.94,3.94,0,0,1,249.35,88.44Zm9.54-8.94c.48-1.2.78-2.64,1.26-3.84a21.83,21.83,0,0,0,.42-4.44l-.24-1.8L259,68.88a8.71,8.71,0,0,1-1.56,1A6.19,6.19,0,0,0,256,72.12,30.78,30.78,0,0,0,254.33,77a28,28,0,0,0-.72,5.76c.54,1.68,1.2,2.16,2.28,1.68l1.26-1.26A22.62,22.62,0,0,0,258.89,79.5Z" transform="translate(-145.61 -42.67)"/></svg>