<svg id="レイヤー_1" data-name="レイヤー 1" xmlns="http://www.w3.org/2000/svg" viewBox="0 0 306.47 653.37"><defs><style>.cls-1{fill:#fff;}</style></defs><title>title</title><path class="cls-1" d="M339.49,119.59v-.53a6.09,6.09,0,0,1-1.06-3.47V103.92L339,101l-1.13-16.72h-1.58l-1.13,1.51-2.79,1.43v1l-7.75,5.42h-1.13l-4.37,5a7.66,7.66,0,0,0-2.22,1.43,8.54,8.54,0,0,1-2.22,1.47,12.11,12.11,0,0,1-2.22.71,8.73,8.73,0,0,0-2.15.75l-2.86-1.5-.53-2a29.47,29.47,0,0,1,3.39-.68,8.18,8.18,0,0,0,3-1,18.67,18.67,0,0,0,2.75-2,4.59,4.59,0,0,1,3.05-1.2l1.05-1.51,9.42-8.28h1.05v-1l5-5.42-5.58-.46a13,13,0,0,1-3.57,1.47,23.86,23.86,0,0,0-3.58,1.21,12.58,12.58,0,0,0-3.31,2.18,4.22,4.22,0,0,1-3.84,1V78.4l1.65-2h1.06v-1c1.5-.3,3-.52,4.44-.67a15.56,15.56,0,0,0,4.1-1,27,27,0,0,1,4.18-1.24A13.33,13.33,0,0,0,335.12,71l.53-2-1.06-2.94a4.54,4.54,0,0,0,.53-2.18V61.49a2.44,2.44,0,0,1,.83-2,5.86,5.86,0,0,0,1.35-1.69l3.84-.53L345.06,71c2.16,0,4.16.09,6,.26s3.81.26,5.84.26a17.27,17.27,0,0,1,5.8,1A30.61,30.61,0,0,0,368.25,74v1h-1.13l-2.18,2-5,1.43L345.06,77V79.9l2.18,3.39h1.06a6.78,6.78,0,0,0,2.52,3.95q1.92,1.47,3.88,2.94a20.62,20.62,0,0,0,4.18,2.45,29.84,29.84,0,0,1,4.4,2.41l13.25,2.41,5.58-1,1.13,1a4.36,4.36,0,0,0-.61,2.07,2.21,2.21,0,0,1-.83,1.69,9.92,9.92,0,0,0-1.35,1.47c-.35.48-.73,1-1.13,1.69q-1.74,1-3.39,1.74a8.57,8.57,0,0,1-3.58.75h-7.94l-1.13-.53v-1l-2.79-1L352.21,97V96l-2.78-1.43-.53-1.51-1.66-.45-4.44-3.47-.53,18.15,1.13,7.38h-.6l-.53,2.79h-1.13v2.11Z" transform="translate(-76.76 -57.31)"/><path class="cls-1" d="M310.35,197.28,309,190.05l1.81-3.84,15.28-7.3.91-13.86-2.26-4-3.39,2v-1.28h-1l-.45-6.63c.6-1.75,1.38-2.74,2.33-3a15.71,15.71,0,0,0,2.9-1c1-.45,1.93-.87,2.86-1.28s1.9-.85,2.9-1.35l.53-7.31L330.38,136h1.05v-1.36l4.67-.68,1.5.68.83,4-1.35,9.87a44.06,44.06,0,0,1,5.72.37c1.91.26,3.75.58,5.53,1a35.66,35.66,0,0,1,5.24,1.62,52.08,52.08,0,0,1,5,2.3l.52,2.63a3.14,3.14,0,0,1-1.46,1,5.47,5.47,0,0,1-1.89.34h-3.87l-4.22-.68v1.43l1,4.52-2.94,13.18q4.29,1.43,8.85,3.05c3,1.08,6,2.28,8.85,3.61a41.82,41.82,0,0,0,9.07,3,46.26,46.26,0,0,0,9.68,1v5.87l-3.47,2.49v1.28h-1.88l-8.58-1.88v-1.89l-4.82-1.35-.91-2a17,17,0,0,1-5.8-2.64,22.64,22.64,0,0,0-5.94-2.93q-3.09-1-6.18-1.7a14.84,14.84,0,0,0-6.4,0,12.5,12.5,0,0,1-4.37.75,33.48,33.48,0,0,0-4.74.34,14.54,14.54,0,0,0-4.37,1.28,32.78,32.78,0,0,1-4.29,1.69v.68l-5.72,5.87h-1l-1,3.77Zm29.59-22.44a8,8,0,0,0,1.73-4,33.78,33.78,0,0,1,.68-3.92,33.81,33.81,0,0,0,.68-4.25c.15-1.56.22-3.21.22-5l-.45-2h-9.49l-5.8,2v2l4.3,2.63,1,8.66-1,6.63h3.84Z" transform="translate(-76.76 -57.31)"/><path class="cls-1" d="M359.21,264.76v-1.35h-1.28l-1.73.9c.25-.6.45-1.12.61-1.54a5.65,5.65,0,0,1,.9-1.51,2.82,2.82,0,0,0,.68-1.73v-1.77l-1.81-2.18h-3.46a21.11,21.11,0,0,1-5.24,1.09,15.26,15.26,0,0,0-4.78,1.09,36.84,36.84,0,0,1-4.55,1.54,13.44,13.44,0,0,1-5.46.19v-.83h-.91c-.25-.9-.52-1.79-.83-2.67a16.15,16.15,0,0,1-.67-2.82,20.67,20.67,0,0,1-.23-3v-2.83l2.18-13.93h-3.46a1.39,1.39,0,0,1-1.32-.86,1.37,1.37,0,0,0-1.32-.87v-.9h-.82v-2.19l2.56-.83v-.9L334,226v-3.72a6.25,6.25,0,0,1,.19-1.74,9.46,9.46,0,0,1,.64-1.54h.9l2.19-3.92,1.28-.45a2,2,0,0,1,1.09,1.09,6.65,6.65,0,0,1,.19,1.74v3.72l-.38,3.47h1.28l2.63-1.28v-.91h.83v-.37h3.09l1.28.37v.91h.9v1.73a28.32,28.32,0,0,1-2.86,2.37c-1,.73-2,1.46-3.05,2.19a15.66,15.66,0,0,1-3.27,1.76,21.88,21.88,0,0,1-3.47,1.06,12,12,0,0,1-1.54,3.95,11.67,11.67,0,0,0-1.51,3.73,20.47,20.47,0,0,0-.41,4.14,20.42,20.42,0,0,1-.45,4.29l.45.45-.45,2.19,1.28,2.18,3.91.91,4.37-.91c1.46-.3,2.91-.59,4.37-.86s3-.49,4.59-.64a39.11,39.11,0,0,0,4.52-.68l5.72,2.18c.25.6.53,1.19.83,1.77a4.19,4.19,0,0,1,.45,2v4.1L362.3,263v.46h-.45V263H361l-1.28,1.81Zm-8.28,6.93v-.45l.45-.83h.46v.45Zm8.28-8.74-.45-.37-.37.37.37.46Zm1.36,0-.45-.37-.45.37.45.46Zm-.45.46-.45-.46v1.36Zm.83-.83-.38-.45-.45.45.45.37Z" transform="translate(-76.76 -57.31)"/><path class="cls-1" d="M349.05,346.61a53,53,0,0,1,4.25-6.36c1.59-2,3.09-4.08,4.52-6.14a34.72,34.72,0,0,0,3.54-6.4,15.23,15.23,0,0,0,.94-7.6c-.3-1.26-.61-2.59-.94-4a34.43,34.43,0,0,0-1.2-4,21.34,21.34,0,0,0-1.89-3.8,18.6,18.6,0,0,0-2.59-3.32,11.22,11.22,0,0,0-2.11-1.62,15.15,15.15,0,0,0-2.64-1.2,8.55,8.55,0,0,0-2.82-.49h-2.83a27.74,27.74,0,0,1-1.88,10.43q-1.87,4.71-4,9.45a102.69,102.69,0,0,1-4.74,9.22q-2.6,4.49-4.93,9.23h-1v-.91l-1.43-.52-.45-3.32h-1v-.45h.52v-.9h-.52l-.91-3.32h-.52v-2.86H324v-1.88h-.45v-2.41l-1-.9.53-1.88h-1l-.45-2.87a11.93,11.93,0,0,1,1.39-2.86,30,30,0,0,0,1.66-2.82,10.8,10.8,0,0,1,1.88-2.6c.78-.8,1.65-1.66,2.6-2.56l4.74-2.86v-1c1.26-.6,2.51-1.22,3.77-1.84a17.36,17.36,0,0,1,4-1.43,35.56,35.56,0,0,1,4.29-.72,42.88,42.88,0,0,1,4.48-.23,8.87,8.87,0,0,0,2.15.68c.77.15,1.55.32,2.33.49a5.84,5.84,0,0,1,2.11.94,18,18,0,0,0,1.92,1.21c1.25,1.85,2.43,3.65,3.54,5.38a36.32,36.32,0,0,1,2.86,5.46,15.82,15.82,0,0,1,1.2,6.17,25.22,25.22,0,0,0,.91,6.63,4.27,4.27,0,0,0-1.17,2.11,4.41,4.41,0,0,1-1.2,2.15,11.38,11.38,0,0,0-1.66,2.1,13.91,13.91,0,0,1-1.62,2.15,15.81,15.81,0,0,0-3.54,2.33c-1.1,1-2.21,2-3.31,3.09s-2.14,2.21-3.09,3.31S350,345.36,349.05,346.61Zm-23.19-21.23v-1l-.91-5.2h-1v5.65h.46v1.43h1.43Zm5.19,4.22a35.5,35.5,0,0,0,4.07-5.92q1.65-3,3.05-6.36a62.56,62.56,0,0,0,2.37-6.62,16.68,16.68,0,0,0,.45-7.08h-.9a13.48,13.48,0,0,0-4.29,2.56c-1.26,1.1-2.51,2.28-3.77,3.54a41.64,41.64,0,0,0-3.54,4q-1.65,2.14-3.08,4v4.75l1,3.76h.91l1.43,2.86,1.88.91Zm-3.31,0,.53-.46-2.86-2.86v1l1.88,2.79Zm-.45,5.19-.45-.45-.46.45.46.45Z" transform="translate(-76.76 -57.31)"/><path class="cls-1" d="M344.31,429.91l-1-.45a10.48,10.48,0,0,0-1.1-2,6.54,6.54,0,0,1-1-2.19c-.18-.75-.34-1.53-.49-2.33s-.28-1.66-.38-2.56l.53-3-.61-2,.46-1-1.06-9.26.38-3.84-9.49-.53-4.89.76-4.52-.38-5.8-14h-2.11v-1.36l.38-.75h.83l-.08-1c1.86-.7,3.77-1.36,5.72-2a50.47,50.47,0,0,1,6.29-1.47l6.48-1.09q3.12-.52,6.21-.83l.45-2.11-1.81-4.82.38-.75h.45v-.68l-.52-3.69.9-.45.38-1.28,5.57-.15,2.26.6v1.43l1.35.38,1.43,5.12a1.71,1.71,0,0,0-.9,1.55c.05.57.07,1.15.07,1.73v3.27a41.81,41.81,0,0,1,6.18.45,54,54,0,0,0,6.17.57c2.11.07,4.15.16,6.1.26a8.19,8.19,0,0,1,5.2,2.19l1.05,2.41a10.3,10.3,0,0,0-.45,3.46,7.29,7.29,0,0,1-.6,3.28,33.37,33.37,0,0,1-1.54,3,6.68,6.68,0,0,0-.87,3.39h.9v1l-1.2,1.36h.45v.68l-3.16.37V402h-.53v.38H365l-2.26-.68v-1.05l-5.34.07v-.37H357V400h-1v.67h-.38V400h.83l-.08-.61h-1.73l-1.35,1-1.28-.3-5,.76v3.53l.82,11.53-.6,1L348,421l-.61,2.71.61,1.5-2.19,3.54h-.75a1,1,0,0,0-.49.15c-.18.1-.26.21-.26.34ZM339.56,396l.45-1-.6-1.36.53-3.09-.6-1.05.37-7.23h-4.06l-13.93,3.62v.67l1.8,1.43v.68h.91l1.95,6.18q1.44.53,2.79,1.05a8,8,0,0,0,3.13.49c1.17,0,2.29,0,3.35,0h3.46Zm-1.73,4.59-.45-.38-.38.68h.38Zm24.4-5.27,2-6.1-2.79-5.87-12.27-1.21a3.21,3.21,0,0,0-1.62,2.9,26.32,26.32,0,0,1-.15,3.58,30.86,30.86,0,0,0-.19,3.46q0,1.74.15,3.39l14.39.23Zm-13.41,4.74.3-.3-1.28-.3.16.6.37.3Zm12.13.15-.38-.22-.45.67h.45Zm8.2.61-.52-.38-.45.38.45.3Z" transform="translate(-76.76 -57.31)"/><path class="cls-1" d="M349.05,500.83a53.06,53.06,0,0,1,4.25-6.37c1.59-2,3.09-4.07,4.52-6.13a35,35,0,0,0,3.54-6.4,15.28,15.28,0,0,0,.94-7.61c-.3-1.25-.61-2.58-.94-4a35,35,0,0,0-1.2-4,21.34,21.34,0,0,0-1.89-3.8,18.17,18.17,0,0,0-2.59-3.31,10.44,10.44,0,0,0-2.11-1.62,14.47,14.47,0,0,0-2.64-1.21,8.81,8.81,0,0,0-2.82-.49h-2.83a27.74,27.74,0,0,1-1.88,10.43q-1.87,4.71-4,9.45T334.63,485q-2.6,4.47-4.93,9.22h-1v-.9l-1.43-.53-.45-3.31h-1V489h.52v-.9h-.52l-.91-3.31h-.52v-2.86H324V480h-.45v-2.41l-1-.9.53-1.88h-1l-.45-2.86a11.58,11.58,0,0,1,1.39-2.86,31.42,31.42,0,0,0,1.66-2.83,11,11,0,0,1,1.88-2.6c.78-.8,1.65-1.65,2.6-2.56l4.74-2.86v-1c1.26-.6,2.51-1.21,3.77-1.84a17.36,17.36,0,0,1,4-1.43,35.56,35.56,0,0,1,4.29-.72,43,43,0,0,1,4.48-.22,9.32,9.32,0,0,0,2.15.67c.77.15,1.55.32,2.33.49a5.84,5.84,0,0,1,2.11.94A16.57,16.57,0,0,0,359,456.4q1.88,2.79,3.54,5.38a37.31,37.31,0,0,1,2.86,5.46,15.83,15.83,0,0,1,1.2,6.18,25.09,25.09,0,0,0,.91,6.62,4.31,4.31,0,0,0-1.17,2.11,4.37,4.37,0,0,1-1.2,2.15,11.45,11.45,0,0,0-1.66,2.11,13.82,13.82,0,0,1-1.62,2.14,15.52,15.52,0,0,0-3.54,2.34c-1.1.95-2.21,2-3.31,3.08s-2.14,2.21-3.09,3.32S350,499.57,349.05,500.83Zm-23.19-21.24v-1l-.91-5.19h-1v5.64h.46v1.44h1.43Zm5.19,4.22a35.85,35.85,0,0,0,4.07-5.91q1.65-3.06,3.05-6.37a61.77,61.77,0,0,0,2.37-6.62,16.68,16.68,0,0,0,.45-7.08h-.9a13.67,13.67,0,0,0-4.29,2.56c-1.26,1.11-2.51,2.29-3.77,3.54a44.16,44.16,0,0,0-3.54,4q-1.65,2.15-3.08,4v4.74l1,3.77h.91l1.43,2.86,1.88.9Zm-3.31,0,.53-.45-2.86-2.86v1l1.88,2.79Zm-.45,5.19-.45-.45-.46.45.46.46Z" transform="translate(-76.76 -57.31)"/><path class="cls-1" d="M327.36,584.44l-3.31-3.16-.45-4a6.57,6.57,0,0,0,1.5-4.33,38.9,38.9,0,0,1,.31-5,42.4,42.4,0,0,0,.3-5.16v-5.05l-.61-1.35h-1.05l-1.13,1.35a10.18,10.18,0,0,0-2.75,2.34,8.37,8.37,0,0,1-3,2.26,8.59,8.59,0,0,0-3.05,2.26A4.07,4.07,0,0,1,310.8,566l-2.64-1L306.51,561l.45-.83q2.18-1.36,4.67-2.71a51.56,51.56,0,0,0,4.74-2.94,49.94,49.94,0,0,0,4.14-3.2,24.4,24.4,0,0,0,3.54-3.8h1.05l5.65-7.23h1l1.66-4.59,1.65-.38,4,1.73,1,2.71q-1.65,1.37-3.57,3a31,31,0,0,0-3.32,3.2q-1.39,1.58-2.71,3.35a6,6,0,0,0-1.31,3.65l2.1.83,1.21,7.75a9.92,9.92,0,0,0-1.21,4.9c0,1.81-.07,3.55-.22,5.23a32.11,32.11,0,0,1-.83,4.93,11.74,11.74,0,0,0-.08,5.12l.68,1.36h-.68l-.52,1.43Zm-6.62-41-1.13-.45a7.2,7.2,0,0,1-.76-1.81,9.53,9.53,0,0,1-.22-2.26v-4.59l-2.86-.38v-2.25l3.31-2.72L340,524.88l.53-1.88-1-3.09.45-.9,2.86-.53,3.77,1.88,1.2,5q4.31.38,9,.38a53.92,53.92,0,0,1,8.81.67q4.06.69,8.21,1.62a43,43,0,0,1,8.13,2.75l1.05,4.9-2.71,4.59-2.33.45-3.77-1-1.65-4.06h-2.19v-.83h2.19l.45-3.69-5.95-.87-6.4-.9a46.91,46.91,0,0,0-6.32-.42h-6.56l-3.31.83-8.81-.37-11.14,2.71v1.8l1.13,6.33L324.58,543Zm46.83,35.54c-.65-.25-1.37-.52-2.14-.83a11.66,11.66,0,0,0-2.49-.64,20.27,20.27,0,0,0-2.75-.18h-2.56l-7.68.9-3.76-1.88-.68-2.71.68-7.23-1.66-8.13h-1.2l-1.13-5.88a3.21,3.21,0,0,1,1.73-1.09c.7-.17,1.42-.33,2.15-.45A4.21,4.21,0,0,0,348,550q.83-.68,1.95-1.65l1.73-2.64h-2.86l-5.95,1.28-1.2-4.89,1.2-1.81h1.66v-.9a19.39,19.39,0,0,0,5.12-.68,21.3,21.3,0,0,1,5.57-.68h11.9l4.29,1.73.68,3.69h-.68l-.52,1.36h-2.11l-10.47-1v1.43l1,2.71-.53,1.73h3.92a24.62,24.62,0,0,1,3.91.27c1.11.17,2.19.4,3.24.67a12.66,12.66,0,0,1,3.24,1.4l1.2,5.42a12.52,12.52,0,0,0-1.43,5.16q-.22,3-.49,5.64c-.17,1.79-.37,3.58-.6,5.39a17.72,17.72,0,0,1-1.32,5Zm-.45-16.64V557l.45-3.24-8.81-.38L348.3,555.6v.83L350,561h2.19l8.28-.83,5,.83v1.35l1.13.53Zm-1.66,9.57a2.65,2.65,0,0,0,1.13-1.89v-1.77a6.24,6.24,0,0,1,.27-1.77,6.58,6.58,0,0,0,.26-1.8l-10-.46L351.16,566,350,568.25h-1.13v1.36h0v.82h1.66a1.47,1.47,0,0,0,1.43,1.62,22.88,22.88,0,0,0,3.09.19h3.31a5.65,5.65,0,0,1,2.64.53l.67-.53,1,.53Zm1.66-7.69v-.9h-1.2v.9l.67.46Z" transform="translate(-76.76 -57.31)"/><path class="cls-1" d="M80.37,352.86l-3-.94V337.33l3-.78v-2h6.91l.94-3.61h3.92v1.88H94l3.92-4.7h2v-3.45l-2-6.44a18.71,18.71,0,0,1,11.69-6.43,89.05,89.05,0,0,0,13.18-2.82q6.34-1.89,12.7-4.16t13.26-4l.94-2.82h-6.9a43,43,0,0,1-5.81,1.49,59.84,59.84,0,0,0-5.88,1.41,24.12,24.12,0,0,0-5.33,2.28,21.74,21.74,0,0,1-5.41,2.19v-2.82l3-5.34,3.92-.94v-1.88l22.43-6.27v-4.71h-3v1.88a15.81,15.81,0,0,0-5.26.86q-2.43.87-5.41,1.81a17.35,17.35,0,0,0-5.41,2.82,5.59,5.59,0,0,1-5.41.94l-.94-11.92,3.92-3.61,3.92-1.1,3,1.1,10.67-2.82V266.9l-.94-2.67.94-1.88a3.4,3.4,0,0,0,3-1.34,6.54,6.54,0,0,1,1.88-1.88,4.86,4.86,0,0,1,2.43-.55h3.53a4.76,4.76,0,0,1,2.36,3,17.42,17.42,0,0,1,.47,4.16,15.88,15.88,0,0,0,.47,4.08,14.11,14.11,0,0,1,.47,3.53l24.47,1.72.94,7.38-2.82.94v.94h-3l-7.85-2.67h-3v1.73h-.94l-2.82-.94-3.92.94V287a3.06,3.06,0,0,0,2.9,1.88h10.74l3.93-.78,13.64,2.51v3.76l-9.72.78-15.69-.78-5.8,1.88-1.1,5.49q10.81,0,20.55.4a191,191,0,0,1,19.53,1.8q9.79,1.41,19.06,3.29a104.77,104.77,0,0,1,18.2,5.49v.95a19.24,19.24,0,0,0-3.85,2.19,7.35,7.35,0,0,1-4.39,1.41H220q-7.85-1.87-15.61-3.21t-15.61-2.75q-7.85-1.41-15.61-2.27a148.83,148.83,0,0,0-16.55-.86L143.36,310a91.3,91.3,0,0,0-12.71,2.67q-6.34,1.8-12.71,4.07c-4.23,1.52-8.29,2.91-12.15,4.16v1.73l-4.87,2-.94,7.06,4.87,2,1.88,5.33h.94v2Zm3-59.45-2-.79-.94-2.82.94-5.49,3.93-3.61a11.4,11.4,0,0,0,4.94-.94,17.66,17.66,0,0,1,4.39-1.41A11,11,0,0,0,99,276.47a8,8,0,0,1,4.79-1.42v2.83h2v1.88l3.92.94,1.88,5.49h-.94v2.67a22.58,22.58,0,0,1-6.82.94,65,65,0,0,0-7.3.39q-3.45.4-6.9.94A17.2,17.2,0,0,0,83.35,293.41Zm3.93,20.24v-2h-2v-5.34l3-5.49L97,297.17v1.73l11.77,1.88.94,7.38Zm36.08,72.94-2-.94-.94-3.61a26.87,26.87,0,0,1,4.86-11.92,57.21,57.21,0,0,0,6.35-11.37,78.66,78.66,0,0,0,3.92-12.32,38,38,0,0,0,.55-13.65l-3-6.43h-2.82v-2.82l3.76-6.28a19.08,19.08,0,0,1,8.32-1.88,45.91,45.91,0,0,0,8.78-.86,56.6,56.6,0,0,0,8.32-2.28,25.79,25.79,0,0,1,8.78-1.41l3,3.61h3.85a11.65,11.65,0,0,1,3.45.47,13.17,13.17,0,0,1,3,1.41,6.15,6.15,0,0,0,3.37.94l2,9.89-2,16.47.94,2-.94,3.61,3.92,24.63-.94,8.94h-2L183,382v.79h-2v1.72H178.1a11.84,11.84,0,0,1-1.56-3.92,23.67,23.67,0,0,1-.47-5v-9.88l.94-6.59-3.93-34.51-15.53-3.77-14.74,2.67v3.61a7.31,7.31,0,0,0,5.41,2H155a61.56,61.56,0,0,1,6.91.39,56.25,56.25,0,0,0,6.27.39v6.59l-.94,1.72H156.61V340h-6.9l-3-.94-3.92.94-.94,7.37H164.3l7.84-.94v8.16l-5.8.94-3.92-.94-3,.94-7.85-.94L138,357.41l-7.69,22.75a6.62,6.62,0,0,1-2,1.49,19.55,19.55,0,0,1-2.43.78,2.89,2.89,0,0,0-2,1.26A6.37,6.37,0,0,0,123.36,386.59Zm40-104.16-.94-.79-.94,1.73h.94Zm21.49-.79-.94-.94-.94.94.94.79Z" transform="translate(-76.76 -57.31)"/><path class="cls-1" d="M84.77,545v-1.88l-3-.78a5.13,5.13,0,0,0-1.49-3.3,6.74,6.74,0,0,1-1.64-4.08,29.53,29.53,0,0,0-.55-4.15,22.63,22.63,0,0,1-.39-4.63q3.92-2.82,7.53-5.18t7.92-4.71q4.31-2.34,8-4.78a44.6,44.6,0,0,1,8.55-4.31l.94,4.55a26.36,26.36,0,0,0-1.26,3.76,17.75,17.75,0,0,0-.47,4.24c0,1.56,0,3.11.08,4.62s.08,2.85.08,4h-2l-1.72,4.55h-1.89l-2.66,3.93-1.89.15v1.73c-1.25.63-2.38,1.25-3.37,1.88s-2.09,1.33-3.29,2.12a13.82,13.82,0,0,1-3.69,1.72A13.21,13.21,0,0,1,84.77,545Zm5.49-58a21.33,21.33,0,0,1-3.38-3.53,11,11,0,0,1-2-3.77,16.31,16.31,0,0,1-.47-4.07,42.37,42.37,0,0,0-.31-4.95c1.25-.62,2.51-1.3,3.76-2a37.77,37.77,0,0,1,3.85-2,23.7,23.7,0,0,1,3.84-1.33,26.4,26.4,0,0,1,4.71-.63l6.74,1.73,2,7.53-.94,4.55,1.88-.16v3.77ZM99,451l-6.74-2.83-2-11,10.51-3.92,2.66.94,4.08-.94,3.61,1.72,4.08,8.32-1.88,6.43Zm10.67,59-.94-.94-.94.94.94.94Zm11.92,31.69v-.79l-2-3.45,6.59-11.29,3.61-3.61,6.74-8.47L138,497.44l3.76-1.1,4.71,4.55,1.09,4.55A57.21,57.21,0,0,0,143,514.7q-1.74,4.54-4,9.33a48.56,48.56,0,0,1-5.56,9,72.64,72.64,0,0,1-7.06,7.84Zm17.88-59.14-5.8-2.83-1.1-7.37,2-3.61,2.82-.94,2.83-1.88L143,462l5.8-5.34-.31-6.59h-3l-17.73,7.85-1.1-6.59,4.55-6.59a17.09,17.09,0,0,0,3.76-2.2A7.39,7.39,0,0,1,139.2,441a9.42,9.42,0,0,0,4.24-1.09,10.13,10.13,0,0,1,4.86-1v-3.61a15.18,15.18,0,0,1-1.57-1.81,3,3,0,0,1-.63-1.8V427l3-3.6,6.59-.32c.73,1.26,1.41,2.51,2,3.77a8.3,8.3,0,0,1,.94,3.76c0,1.26,0,2.64.08,4.16s.08,2.85.08,4q5.81-.15,12-.24a71.94,71.94,0,0,1,11.84.79c3.77.57,7.43,1.31,11,2.19a82.2,82.2,0,0,0,11.13,2v2.82l-3,5.65h-8.47c-3.24-.53-6.27-1.07-9.1-1.65s-5.67-1.12-8.55-1.65-5.88-.94-9-1.25a72.25,72.25,0,0,0-9.57-.32,26,26,0,0,1-.47,5.18,20.06,20.06,0,0,0-.31,5.1,4.34,4.34,0,0,1-1.73,4.08,4.59,4.59,0,0,0-1.88,4h5.81l15.21-2-.31-2.83h-1.88l-1-6.11,3.61-2.2,6,2q.95,2.67,1.89,4.86a24.69,24.69,0,0,0,2.51,4.47,8.84,8.84,0,0,1,1.57,5.1c0,1.88,0,3.72.15,5.49l-3.76,3.61-2.83-1.57-1.88-2.82-9.57-.63a73.05,73.05,0,0,1-7.61,1.49,20.86,20.86,0,0,0-7.21,2.43l-6.75,3.77A16,16,0,0,1,139.51,482.54Zm20.24,50.35a6.45,6.45,0,0,0-2.59-1.33,2.65,2.65,0,0,1-2-1.8c-.31-1-.63-1.86-.94-2.75a9.81,9.81,0,0,1-.47-3.22l1.41-16.62-2-11,.94-1.72H158v1.72l2.82.95V499a2.55,2.55,0,0,1,2,.16,1.5,1.5,0,0,1,1,1.41,1.93,1.93,0,0,0,.47,1.41,10.45,10.45,0,0,0,1.73,1.25v7.53a20.57,20.57,0,0,0-.79,5.89,44.33,44.33,0,0,1-.39,6,12.89,12.89,0,0,1-1.88,5.17C162,529.44,160.9,531.12,159.75,532.89Zm63.06,16.32q-4.69-.94-10-2.36A42.82,42.82,0,0,1,203.2,543q-4.38-2.43-9.17-4.63a52.55,52.55,0,0,1-8.55-4.86A30.75,30.75,0,0,1,181,525.6c-1-2.67-2-5.39-2.91-8.16a30.33,30.33,0,0,1-1.49-9.25q-.08-5.1-.39-9.65l3.77-3.61a6.1,6.1,0,0,1,1.41,2.27,4.19,4.19,0,0,0,1.88,2.2,2.74,2.74,0,0,1,1.49,2.2c0,.89.08,2,.08,3.21l-.94,6.43,3.92,6.44q3.13,1.88,6.51,3.68a27.15,27.15,0,0,0,6.75,2.59,69.89,69.89,0,0,0,7.06,1.26,44,44,0,0,0,7.45.31,10.17,10.17,0,0,1,4-.94,7.68,7.68,0,0,0,3.68-1c1.26-.68,2.33-1.31,3.22-1.88a32.89,32.89,0,0,1,3.22-1.81l4.07,10.67h1.89l1.25,8.31-1.72,3.46-4.87,1.88-.94,3Z" transform="translate(-76.76 -57.31)"/><path class="cls-1" d="M82.1,698.76l-3.45-3.29-1.89-10.2,1.89-3.76h3.13a5.21,5.21,0,0,0,2.75-.63,13.29,13.29,0,0,0,2-1.57,3.45,3.45,0,0,1,2.43-.94v-1.25l7.69-5.18,1.25-.47v1.72l-2,.79a56.59,56.59,0,0,0,.4,6.59,7.8,7.8,0,0,1-1.73,6q-2.11,2.58-3.84,5.1a14.92,14.92,0,0,0-2.36,5.8Zm9.57-36.86A22.51,22.51,0,0,0,89,660.49a6.72,6.72,0,0,0-2.74-.63h-6.2v-1.25h1.25a1.38,1.38,0,0,1,.87-1.89c.88-.41,1.33-.94,1.33-1.57v-4.07l-.78-5.18L89,644.64a4.21,4.21,0,0,0,2.75,1.26,6.12,6.12,0,0,1,2.74.7,10.68,10.68,0,0,1,2.43,1.65c.68.63,1.49,1.36,2.43,2.2.53.42,1,.84,1.49,1.25a2,2,0,0,1,.71,1.57v4.08c-.52.84-1,1.6-1.49,2.27a3.31,3.31,0,0,1-2.43,1.26,23,23,0,0,1-3.14.24A5.78,5.78,0,0,0,91.67,661.9Zm37.49-44.4-5-7-4.86-.63A14.08,14.08,0,0,1,115,611.7a20.51,20.51,0,0,1-5.17.63A16.31,16.31,0,0,0,105,613a16.94,16.94,0,0,1-4.86.62l-3-1.25-1.88-5,1.41-7.06h1.25V599h1.41l.79-3.13q2.82-.63,5.1-1.26A42,42,0,0,0,110,593a13.84,13.84,0,0,1,5.26-1,8.9,8.9,0,0,0,4.78-1.25l5.49-5H127V584.4h7.69l4.86,4.55v1.26H143L164.3,589V587.7l-.78-2,4.23-5.65,4.71-1.41,4.39,2.67,2.67,6.9a83.36,83.36,0,0,0,9.57,1,62.17,62.17,0,0,1,9.72,1.25c3.24.69,6.36,1.44,9.34,2.28a57.24,57.24,0,0,1,8.55,3.14l.78,3.13-2.2,6.44-4.7.62c-2.83-.41-5.47-.86-7.92-1.33s-5.1-.92-7.93-1.33-5.59-.71-8.31-.87-5.44-.23-8.16-.23l-3.61,7.53-2.19,1.88-6,1.26-.79-1.89-6.27-1.25v-1.88l2.66-2.51v-3.14H149.87L143,604l-1.57,5.18H140v2.2a3.45,3.45,0,0,1-.62,1.88,7.2,7.2,0,0,0-.94,2,2.52,2.52,0,0,1-1.1,1.49Zm-14.59,93.19v-1.41l-6.27-.63-2-9.41h-4.71V698l5.49-3.14,4.08-41.25c-.42-1.26-.89-2.51-1.41-3.77a33.08,33.08,0,0,0-1.73-3.53,7.69,7.69,0,0,1-.94-3.84v-4.08a3.24,3.24,0,0,0,.47-2v-2.59a5.15,5.15,0,0,1,.39-2.12,4.11,4.11,0,0,1,1.81-1.65l2.19-.47v-2h3.3l8.47,2a5.3,5.3,0,0,1,2.67,4.63,23.59,23.59,0,0,0,.7,5.73,23.52,23.52,0,0,1,.71,5.72v6l-4.08,32.95.47,10.19L122.89,703l.78,2.35-2.82,3.93H116v1.41Zm38-17.1-6.27-3.14a4.36,4.36,0,0,1-1.26-3.22V675.7a7.19,7.19,0,0,1,4.79-1.72,20.65,20.65,0,0,0,5.18-.63,17.48,17.48,0,0,0,4.55-1.88,9.15,9.15,0,0,1,4.78-1.26,33.58,33.58,0,0,0,1-4.31,26,26,0,0,0,.39-4.39V653l-4.86-2.51c-1.36.42-2.62.84-3.77,1.25a29.71,29.71,0,0,0-3.53,1.57c-1.2.63-2.35,1.26-3.45,1.88a9.87,9.87,0,0,0-3.06,3l-2.66,1.73-3.61,2L134,658.13v-8.31l1.89-4.39a17.58,17.58,0,0,1,6.35-1.73,18.27,18.27,0,0,0,6.2-1.57,25.44,25.44,0,0,1,5.8-1.88,12.68,12.68,0,0,0,6-3.14l.63-2,2.67-2.51v-2.51l-.63-1.72,2.82-3.3,8.16-1.25a3.62,3.62,0,0,0,1.88.47h2a1.37,1.37,0,0,1,1.33,1,1.72,1.72,0,0,0,1.81,1l3.29,11.45q7.07.63,13.65,1.26a95,95,0,0,1,13.1,2.19q6.51,1.57,12.71,3.14a97.19,97.19,0,0,0,13.25,2.35v2.51l-4.23,6.28-7.06,1.41-41.42-7.06a6.53,6.53,0,0,0-3,4.71q-.31,2.82-.7,5.72c-.27,1.94-.63,3.87-1.1,5.81a24.77,24.77,0,0,0-.71,5.88l2.2,2.51L214,679l3.45,10.2a11.94,11.94,0,0,1-2.75,1.88,21.81,21.81,0,0,0-2.74,1.57,4.91,4.91,0,0,1-3.53.62,26.22,26.22,0,0,0-3.53-.31,54.89,54.89,0,0,0-8.55-1.88,87.33,87.33,0,0,1-8.63-1.65,36,36,0,0,0-8.63-1h-9.33l-12.39,2-2,2.51Z" transform="translate(-76.76 -57.31)"/></svg>